#N canvas 516 194 646 534 10;
#N canvas 177 222 1107 609 choice-folder 0;
#X obj 584 308 folder_list;
#X msg 603 358 add \$1;
#X obj 631 454 counter;
#X obj 631 430 b;
#X msg 402 218 clear;
#X obj 584 331 t s s b;
#X msg 659 430 set 0;
#X obj 379 -60 inlet;
#X msg 330 228 goto \$1;
#X obj 530 -24 bng 15 250 50 0 empty empty empty 17 7 0 10 -262144
-1 -1;
#X obj 292 144 min 0;
#X obj 292 175 max 0;
#X obj 631 510 outlet total_files;
#X obj 584 224 pack s s;
#X obj 629 199 symbol;
#X obj 586 199 symbol;
#X obj 508 200 symbol;
#X msg 508 251 symbol \$1/*;
#X obj 602 150 drip;
#X obj 602 174 t a b;
#X msg 584 251 symbol \$2/*.\$1;
#X obj 631 481 + 1;
#X obj 530 -2 tof/folderpanel;
#X obj 428 38 symbol;
#X obj 642 -5 initbang;
#X obj 642 21 dollarg;
#X obj 443 116 list;
#X obj 443 142 route bang;
#X obj 443 92 t b a a;
#X obj 428 -2 t b a;
#X obj 379 -28 route load filter;
#X obj 292 247 sel;
#X obj 292 198 t f b f;
#X obj 530 -51 inlet;
#X obj 428 67 t b a b b b;
#X obj 469 289 outlet snap;
#X msg 292 271 rewind;
#X obj 334 300 msgfile;
#X obj 334 329 outlet filename;
#X obj 469 225 t b a;
#X obj 803 162 outlet;
#X obj 524 34 t a a b;
#X connect 0 0 5 0;
#X connect 1 0 37 0;
#X connect 2 0 21 0;
#X connect 2 0 10 1;
#X connect 2 0 31 1;
#X connect 3 0 2 0;
#X connect 4 0 37 0;
#X connect 5 1 1 0;
#X connect 5 2 3 0;
#X connect 6 0 2 0;
#X connect 7 0 30 0;
#X connect 8 0 37 0;
#X connect 9 0 22 0;
#X connect 10 0 11 0;
#X connect 11 0 32 0;
#X connect 13 0 20 0;
#X connect 14 0 13 1;
#X connect 15 0 13 0;
#X connect 16 0 39 0;
#X connect 17 0 0 0;
#X connect 18 0 19 0;
#X connect 19 0 15 0;
#X connect 19 1 14 0;
#X connect 20 0 0 0;
#X connect 21 0 12 0;
#X connect 22 0 41 0;
#X connect 23 0 34 0;
#X connect 24 0 25 0;
#X connect 25 0 26 1;
#X connect 26 0 27 0;
#X connect 27 0 16 0;
#X connect 27 1 18 0;
#X connect 28 0 26 0;
#X connect 28 1 16 1;
#X connect 28 2 14 1;
#X connect 29 0 23 0;
#X connect 29 1 26 1;
#X connect 30 0 23 0;
#X connect 30 1 29 0;
#X connect 30 2 10 0;
#X connect 31 0 36 0;
#X connect 32 0 31 0;
#X connect 32 1 37 0;
#X connect 32 2 8 0;
#X connect 33 0 9 0;
#X connect 34 1 28 0;
#X connect 34 3 4 0;
#X connect 34 4 6 0;
#X connect 36 0 37 0;
#X connect 37 0 38 0;
#X connect 39 0 35 0;
#X connect 39 1 17 0;
#X connect 41 0 23 0;
#X connect 41 1 40 0;
#X connect 41 2 25 0;
#X restore -87 108 pd choice-folder;
#X obj -43 230 f;
#X obj -18 230 + 1;
#X obj -132 289 t a b;
#X obj -75 198 t f f;
#X obj -132 314 separator;
#X obj -96 418 pix_texture;
#X obj -43 257 t f f f;
#X msg -87 131 open \$1;
#X obj 99 334 gemwin 1;
#X obj -97 397 pix_image;
#X obj -132 375 pix_separator;
#X obj -132 447 alpha;
#X msg 99 302 destroy;
#X obj 144 200 t a a;
#X obj 99 276 sel 0;
#N canvas 540 186 760 610 snap 0;
#X msg 140 419 save /Users/aluan/Desktop/snap/_map_a1-1-3.png 1;
#X msg 188 382 set save \$1.png 1;
#X msg -21 345 1;
#X obj -64 346 t a b;
#X obj -64 277 t a b;
#X obj 216 -16 inlet;
#X obj 188 336 pack s s s 1;
#X obj 333 26 inlet;
#X obj 164 28 gemhead;
#X obj 165 59 spigot;
#X obj 216 60 tgl 15 0 empty empty empty 17 7 0 10 -262144 -1 -1 0
1;
#X obj -64 170 gemhead 50000;
#X msg 216 31 1;
#X obj -64 313 pix_snap 0 0 500 500;
#X obj 216 88 outlet;
#X obj 162 109 t b b b;
#X msg 249 31 0;
#X obj 216 8 t b;
#X obj 333 80 route name dimen;
#X obj 508 33 inlet;
#X obj 508 66 symbol;
#X obj 535 117 splitfilename /;
#X symbolatom 621 140 10 0 0 0 - - -, f 10;
#X obj 508 90 t a a;
#X obj 192 250 list;
#X obj 314 478 print;
#X obj -63 370 pix_buffer_write \$0-testtest 2;
#X obj 140 488 pix_buffer \$0-testtest 3;
#X obj 188 359 makesymbol %s/_map_%s;
#X msg 191 285 /Users/aluan/Desktop/snap;
#X connect 0 0 25 0;
#X connect 0 0 27 0;
#X connect 1 0 0 0;
#X connect 2 0 26 1;
#X connect 3 0 26 0;
#X connect 3 1 2 0;
#X connect 4 0 13 0;
#X connect 4 1 13 0;
#X connect 5 0 17 0;
#X connect 6 0 28 0;
#X connect 7 0 18 0;
#X connect 8 0 9 0;
#X connect 9 0 15 0;
#X connect 10 0 9 1;
#X connect 10 0 14 0;
#X connect 11 0 4 0;
#X connect 12 0 10 0;
#X connect 13 0 3 0;
#X connect 15 0 16 0;
#X connect 15 1 0 0;
#X connect 15 2 24 0;
#X connect 16 0 10 0;
#X connect 17 0 12 0;
#X connect 18 1 13 2;
#X connect 19 0 20 0;
#X connect 20 0 23 0;
#X connect 21 1 22 0;
#X connect 22 0 6 1;
#X connect 23 0 24 1;
#X connect 23 1 21 0;
#X connect 24 0 29 0;
#X connect 28 0 1 0;
#X connect 29 0 6 0;
#X restore 99 246 pd snap;
#X obj -87 78 spigot;
#X obj 64 116 t b b;
#X msg -54 26 1;
#X obj -161 182 gemhead;
#X obj -54 58 tgl 15 0 empty empty empty 17 7 0 10 -262144 -1 -1 0
1;
#X msg -23 27 0;
#X msg 169 340 destroy;
#X msg 239 337 reset \, dimen 500 500 \, create \, 1;
#X obj -131 471 scale 0.25;
#X obj -132 346 translateXYZ 0 3.75 0;
#X floatatom -59 304 5 0 0 0 - - -, f 5;
#X obj 49 356 % 8;
#X obj 49 381 k_range 0 7 -3.5 3.5;
#X obj -132 257 repeat 100;
#X obj 9 230 % 100;
#X obj 8 452 k_range 0 15 3.75 -3.75;
#X msg 144 179 4000 4000;
#X obj -132 498 rectangle 2 1;
#X floatatom -10 156 5 0 0 0 - - -, f 5;
#X obj 7 424 expr int($f1/8);
#X msg 143 222 dimen \$1 \$2;
#X obj 167 127 bng 30 250 50 0 empty empty empty 17 7 0 10 -262144
-1 -1;
#X obj 135 127 bng 30 250 50 0 empty empty empty 17 7 0 10 -262144
-1 -1;
#X obj 103 127 tgl 30 0 empty empty empty 17 7 0 10 -262144 -1 -1 0
1;
#X obj -146 217 spigot;
#X msg 154 304 destroy \, reset \, color 0 0 0 \, offset 1300 0 \,
dimen \$1 \$2 \, create \, 1;
#X connect 0 0 8 0;
#X connect 0 1 19 0;
#X connect 0 2 35 0;
#X connect 0 3 16 2;
#X connect 1 0 2 0;
#X connect 1 0 7 0;
#X connect 2 0 31 0;
#X connect 3 0 5 0;
#X connect 3 1 1 0;
#X connect 4 0 30 1;
#X connect 4 1 31 1;
#X connect 5 0 26 0;
#X connect 6 0 12 0;
#X connect 7 0 36 0;
#X connect 7 1 28 0;
#X connect 7 2 17 0;
#X connect 8 0 10 0;
#X connect 10 0 6 0;
#X connect 11 0 10 0;
#X connect 12 0 25 0;
#X connect 13 0 9 0;
#X connect 14 0 37 0;
#X connect 14 1 42 0;
#X connect 15 0 13 0;
#X connect 15 0 22 0;
#X connect 16 0 15 0;
#X connect 17 0 0 0;
#X connect 18 0 0 1;
#X connect 18 1 33 0;
#X connect 19 0 21 0;
#X connect 20 0 41 0;
#X connect 21 0 17 1;
#X connect 22 0 21 0;
#X connect 23 0 9 0;
#X connect 24 0 9 0;
#X connect 25 0 34 0;
#X connect 26 0 11 0;
#X connect 27 0 26 1;
#X connect 28 0 29 0;
#X connect 29 0 27 0;
#X connect 30 0 3 0;
#X connect 31 0 1 1;
#X connect 32 0 26 2;
#X connect 33 0 14 0;
#X connect 35 0 4 0;
#X connect 36 0 32 0;
#X connect 37 0 16 1;
#X connect 38 0 18 0;
#X connect 39 0 16 0;
#X connect 40 0 41 1;
#X connect 41 0 30 0;
#X connect 42 0 9 0;
#X coords 0 -1 1 1 100 60 1 100 100;
