#N canvas 420 150 646 534 10;
#N canvas 353 152 1107 609 choice-folder 1;
#X obj 584 308 folder_list;
#X msg 603 358 add \$1;
#X obj 631 454 counter;
#X msg 402 218 clear;
#X obj 584 331 t s s b;
#X obj 379 -60 inlet;
#X msg 330 228 goto \$1;
#X obj 523 -56 bng 15 250 50 0 empty empty empty 17 7 0 10 -262144
-1 -1;
#X obj 292 144 min 0;
#X obj 292 175 max 0;
#X obj 631 510 outlet total_files;
#X obj 584 224 pack s s;
#X obj 629 199 symbol;
#X obj 586 199 symbol;
#X obj 508 200 symbol;
#X msg 508 251 symbol \$1/*;
#X obj 602 150 drip;
#X obj 602 174 t a b;
#X msg 584 251 symbol \$2/*.\$1;
#X obj 631 481 + 1;
#X obj 523 -34 tof/folderpanel;
#X obj 428 38 symbol;
#X obj 642 -5 initbang;
#X obj 642 21 dollarg;
#X obj 443 116 list;
#X obj 443 142 route bang;
#X obj 443 92 t b a a;
#X obj 428 -2 t b a;
#X obj 379 -28 route load filter;
#X obj 292 247 sel;
#X obj 292 198 t f b f;
#X obj 523 -83 inlet;
#X obj 428 67 t b a b b b;
#X obj 469 289 outlet snap;
#X msg 292 271 rewind;
#X obj 334 300 msgfile;
#X obj 334 329 outlet filename;
#X obj 469 225 t b a;
#X obj 882 187 outlet;
#X obj 523 -6 t a a b;
#X msg 664 418 clear;
#X connect 0 0 4 0;
#X connect 1 0 35 0;
#X connect 2 0 19 0;
#X connect 2 0 8 1;
#X connect 2 0 29 1;
#X connect 3 0 35 0;
#X connect 4 1 1 0;
#X connect 4 2 2 0;
#X connect 5 0 28 0;
#X connect 6 0 35 0;
#X connect 7 0 20 0;
#X connect 8 0 9 0;
#X connect 9 0 30 0;
#X connect 11 0 18 0;
#X connect 12 0 11 1;
#X connect 13 0 11 0;
#X connect 14 0 37 0;
#X connect 15 0 0 0;
#X connect 16 0 17 0;
#X connect 17 0 13 0;
#X connect 17 1 12 0;
#X connect 18 0 0 0;
#X connect 19 0 10 0;
#X connect 20 0 39 0;
#X connect 21 0 32 0;
#X connect 22 0 23 0;
#X connect 23 0 24 1;
#X connect 24 0 25 0;
#X connect 25 0 14 0;
#X connect 25 1 16 0;
#X connect 26 0 24 0;
#X connect 26 1 14 1;
#X connect 26 2 12 1;
#X connect 27 0 21 0;
#X connect 27 1 24 1;
#X connect 28 0 21 0;
#X connect 28 1 27 0;
#X connect 28 2 8 0;
#X connect 29 0 34 0;
#X connect 30 0 29 0;
#X connect 30 1 35 0;
#X connect 30 2 6 0;
#X connect 31 0 7 0;
#X connect 32 1 26 0;
#X connect 32 3 3 0;
#X connect 32 4 40 0;
#X connect 34 0 35 0;
#X connect 35 0 36 0;
#X connect 37 0 33 0;
#X connect 37 1 15 0;
#X connect 39 0 21 0;
#X connect 39 1 38 0;
#X connect 39 2 23 0;
#X connect 40 0 2 0;
#X restore -87 108 pd choice-folder;
#X obj -43 230 f;
#X obj -18 230 + 1;
#X obj 9 230 % 100;
#X obj -132 289 t a b;
#X obj -132 257 repeat 196;
#X obj -75 198 t f f;
#X obj -132 314 separator;
#X obj -132 424 pix_texture;
#X obj -43 257 t f f f;
#X msg -87 131 open \$1;
#X obj 99 334 gemwin 1;
#X obj -132 400 pix_image;
#X obj -132 375 pix_separator;
#X obj -132 447 alpha;
#X msg 99 302 destroy;
#X obj 166 127 bng 30 250 50 0 empty empty empty 17 7 0 10 -262144
-1 -1;
#X obj 198 212 t a a;
#X obj 99 276 sel 0;
#N canvas 435 106 884 553 snap 0;
#X obj 142 517 pix_buffer \$0-test 3;
#X msg 140 419 save /Users/aluan/Desktop/snap/_map_symbol.png 1;
#X msg 278 354 set save \$1.png 1;
#X msg -21 345 1;
#X obj -64 346 t a b;
#X obj -64 277 t a b;
#X obj -63 370 pix_buffer_write \$0-test 2;
#X obj 216 -16 inlet;
#X obj 284 300 pack s s s 1;
#X obj 498 56 symbol;
#X obj 333 26 inlet;
#X obj 164 28 gemhead;
#X obj 165 59 spigot;
#X obj 216 60 tgl 15 0 empty empty empty 17 7 0 10 -262144 -1 -1 1
1;
#X obj -64 170 gemhead 50000;
#X msg 216 31 1;
#X obj -64 313 pix_snap 0 0 500 500;
#X obj 216 88 outlet;
#X obj 162 109 t b b b;
#X msg 249 31 0;
#X obj 216 8 t b;
#X obj 333 80 route name dimen;
#X obj 498 28 inlet;
#X obj 525 107 splitfilename /;
#X symbolatom 611 130 10 0 0 0 - - -, f 10;
#X obj 285 241 list;
#X obj 498 80 t a a;
#X obj 294 487 print;
#X obj 278 331 makesymbol %s/_map_%s;
#X msg 285 267 /Users/aluan/Desktop/snap;
#X connect 1 0 0 0;
#X connect 1 0 27 0;
#X connect 2 0 1 0;
#X connect 3 0 6 1;
#X connect 4 0 6 0;
#X connect 4 1 3 0;
#X connect 5 0 16 0;
#X connect 5 1 16 0;
#X connect 7 0 20 0;
#X connect 8 0 28 0;
#X connect 9 0 26 0;
#X connect 10 0 21 0;
#X connect 11 0 12 0;
#X connect 12 0 18 0;
#X connect 13 0 12 1;
#X connect 13 0 17 0;
#X connect 14 0 5 0;
#X connect 15 0 13 0;
#X connect 16 0 4 0;
#X connect 18 0 19 0;
#X connect 18 1 1 0;
#X connect 18 2 25 0;
#X connect 19 0 13 0;
#X connect 20 0 15 0;
#X connect 21 1 16 2;
#X connect 22 0 9 0;
#X connect 23 1 24 0;
#X connect 24 0 8 1;
#X connect 25 0 29 0;
#X connect 26 0 25 1;
#X connect 26 1 23 0;
#X connect 28 0 2 0;
#X connect 29 0 8 0;
#X restore 99 246 pd snap;
#X obj -87 78 spigot;
#X obj 171 164 t b b;
#X msg -54 26 1;
#X obj -134 177 gemhead;
#X obj -54 58 tgl 15 0 empty empty empty 17 7 0 10 -262144 -1 -1 1
1;
#X obj 134 127 bng 30 250 50 0 empty empty empty 17 7 0 10 -262144
-1 -1;
#X msg -23 27 0;
#X msg 169 340 destroy;
#X obj -132 473 square 0.4;
#X obj -132 346 translateXYZ 0 3.6 0;
#X msg 239 337 reset \, dimen 500 500 \, create \, 1;
#X obj 49 356 % 10;
#X obj 7 424 expr int($f1/10);
#X msg 198 191 4090 4090;
#X obj 49 381 k_range 0 9 -3.6 3.6;
#X obj 8 452 k_range 0 9 3.6 -3.6;
#X msg 198 233 dimen \$1 \$2;
#X obj 102 127 tgl 30 0 empty empty empty 17 7 0 10 -262144 -1 -1 1
1;
#X obj -138 214 spigot;
#X msg 154 304 destroy \, reset \, color 0 0 0 \, offset 1300 0 \,
dimen \$1 \$2 \, create \, 1;
#X connect 0 0 10 0;
#X connect 0 1 22 0;
#X connect 0 2 6 0;
#X connect 0 3 19 2;
#X connect 1 0 2 0;
#X connect 1 0 9 0;
#X connect 2 0 3 0;
#X connect 3 0 1 1;
#X connect 4 0 7 0;
#X connect 4 1 1 0;
#X connect 5 0 4 0;
#X connect 6 0 5 1;
#X connect 6 1 3 1;
#X connect 7 0 29 0;
#X connect 8 0 14 0;
#X connect 9 0 32 0;
#X connect 9 1 31 0;
#X connect 9 2 20 0;
#X connect 10 0 12 0;
#X connect 12 0 8 0;
#X connect 13 0 12 0;
#X connect 14 0 28 0;
#X connect 15 0 11 0;
#X connect 16 0 21 0;
#X connect 17 0 36 0;
#X connect 17 1 39 0;
#X connect 18 0 15 0;
#X connect 18 0 26 0;
#X connect 19 0 18 0;
#X connect 20 0 0 0;
#X connect 21 0 0 1;
#X connect 21 1 33 0;
#X connect 22 0 24 0;
#X connect 23 0 38 0;
#X connect 24 0 20 1;
#X connect 25 0 19 0;
#X connect 26 0 24 0;
#X connect 27 0 11 0;
#X connect 29 0 13 0;
#X connect 30 0 11 0;
#X connect 31 0 34 0;
#X connect 32 0 35 0;
#X connect 33 0 17 0;
#X connect 34 0 29 1;
#X connect 35 0 29 2;
#X connect 36 0 19 1;
#X connect 37 0 38 1;
#X connect 38 0 5 0;
#X connect 39 0 11 0;
#X coords 0 -1 1 1 100 60 1 100 100;
