#N canvas 414 22 387 264 10;
#X obj 24 -45 gemlist_matrix;
#X obj 24 1 GEMglLoadMatrixf;
#X msg 105 -22 0 0 1 0 0 1 0 0 1 0 0 0 \$13 \$14 \$15 1;
#X obj 24 -79 inlet;
#X obj 24 68 outlet;
#X obj 24 31 rotateXYZ 0 -90 0;
#X connect 0 0 1 0;
#X connect 0 1 2 0;
#X connect 1 0 5 0;
#X connect 2 0 1 1;
#X connect 3 0 0 0;
#X connect 5 0 4 0;
