#N canvas 404 141 1036 541 10;
#X obj 97 163 gemhead;
#X obj 153 405 curve 2;
#X msg 155 327 1.22471 0 1.22471;
#X floatatom 165 33 5 0 0 0 theta - -;
#X obj 165 60 / 360;
#X msg 220 274 set \$1 \$2 \$3;
#X obj 165 1 loadbang;
#X floatatom 309 22 5 0 0 0 phi - -;
#X obj 309 50 / 360;
#X obj 309 -9 loadbang;
#X obj 221 245 pack f f f;
#X obj 243 131 cos;
#X obj 283 132 cos;
#X obj 243 164 expr $f1*$f2*$f3;
#X obj 342 189 sin;
#X obj 254 213 expr $f1*$f2;
#X obj 403 185 sin;
#X obj 437 184 cos;
#X obj 340 245 expr $f1*$f2*$f3;
#X obj 97 221 t a b b b;
#X floatatom 116 135 5 0 0 0 - - -;
#X obj 30 249 loadbang;
#X obj 116 111 init \$1;
#X obj 214 33 init \$2;
#X obj 349 22 init \$3;
#X msg 201 361 0 0 0;
#X floatatom 585 57 5 0 0 0 theta - -;
#X obj 585 84 / 360;
#X msg 544 352 set \$1 \$2 \$3;
#X obj 585 25 loadbang;
#X floatatom 742 72 5 0 0 0 phi - -;
#X obj 742 100 / 360;
#X obj 742 41 loadbang;
#X obj 545 323 pack f f f;
#X obj 571 213 cos;
#X obj 703 156 cos;
#X obj 525 249 expr $f1*$f2*$f3;
#X obj 647 264 sin;
#X obj 578 291 expr $f1*$f2;
#X obj 710 280 sin;
#X obj 761 262 cos;
#X obj 664 323 expr $f1*$f2*$f3;
#X floatatom 525 213 5 0 0 0 - - -;
#X obj 525 181 init \$4;
#X obj 634 57 init \$5;
#X obj 782 72 init \$6;
#X obj 165 83 expr $f1*2*3.1415926;
#X obj 307 79 expr $f1*2*3.1415926;
#X obj 585 106 expr $f1*2*3.1415926;
#X obj 742 128 expr $f1*2*3.1415926;
#X obj 255 429 distance_n;
#X floatatom 255 453 5 0 0 0 - - -;
#X obj 255 480 outlet;
#X msg 30 271 width 1;
#X obj 98 191 color 1 1 1;
#X connect 0 0 54 0;
#X connect 2 0 1 1;
#X connect 2 0 50 0;
#X connect 3 0 4 0;
#X connect 4 0 46 0;
#X connect 5 0 2 0;
#X connect 6 0 3 0;
#X connect 7 0 8 0;
#X connect 8 0 47 0;
#X connect 9 0 7 0;
#X connect 10 0 5 0;
#X connect 11 0 13 1;
#X connect 12 0 13 2;
#X connect 13 0 10 0;
#X connect 14 0 15 1;
#X connect 15 0 10 1;
#X connect 16 0 18 1;
#X connect 17 0 18 2;
#X connect 18 0 10 2;
#X connect 19 0 1 0;
#X connect 19 1 2 0;
#X connect 19 2 25 0;
#X connect 19 3 20 0;
#X connect 19 3 42 0;
#X connect 20 0 13 0;
#X connect 20 0 15 0;
#X connect 20 0 18 0;
#X connect 21 0 53 0;
#X connect 22 0 20 0;
#X connect 23 0 3 0;
#X connect 24 0 7 0;
#X connect 25 0 1 2;
#X connect 25 0 50 1;
#X connect 26 0 27 0;
#X connect 27 0 48 0;
#X connect 28 0 25 0;
#X connect 29 0 26 0;
#X connect 30 0 31 0;
#X connect 31 0 49 0;
#X connect 32 0 30 0;
#X connect 33 0 28 0;
#X connect 34 0 36 1;
#X connect 35 0 36 2;
#X connect 36 0 33 0;
#X connect 37 0 38 1;
#X connect 38 0 33 1;
#X connect 39 0 41 1;
#X connect 40 0 41 2;
#X connect 41 0 33 2;
#X connect 42 0 36 0;
#X connect 42 0 38 0;
#X connect 42 0 41 0;
#X connect 43 0 42 0;
#X connect 44 0 26 0;
#X connect 45 0 30 0;
#X connect 46 0 11 0;
#X connect 46 0 16 0;
#X connect 47 0 12 0;
#X connect 47 0 17 0;
#X connect 47 0 14 0;
#X connect 48 0 34 0;
#X connect 48 0 39 0;
#X connect 49 0 35 0;
#X connect 49 0 40 0;
#X connect 49 0 37 0;
#X connect 50 0 51 0;
#X connect 51 0 52 0;
#X connect 53 0 1 0;
#X connect 54 0 19 0;
