#N canvas 392 246 649 495 10;
#X obj 139 5 inlet;
#X obj 387 30 inlet;
#X obj 139 145 expr $f1+(-$f2);
#X obj 158 176 expr $f1+($f2);
#X obj 139 217 pack f f;
#X obj 139 289 outlet;
#X obj 367 217 pack f f;
#X obj 367 286 outlet;
#X obj 367 145 expr $f1+($f2);
#X obj 386 176 expr $f1+(-$f2);
#X obj 139 35 unpack f f;
#X obj 387 58 unpack f f;
#X obj 441 -35 expr if($f1==0 \, 1 \, $f1);
#X obj 474 -6 expr if($f1==0 \, 1 \, $f1);
#X obj 441 17 pack f f;
#X obj 441 -59 init \$1;
#X obj 502 -61 init \$2;
#X obj 441 -107 loadbang;
#X obj 441 -86 t b b;
#X obj 139 73 t f f;
#X obj 196 71 t f f;
#X obj 387 88 t f f;
#X obj 444 85 t f f;
#X connect 0 0 10 0;
#X connect 1 0 11 0;
#X connect 2 0 4 0;
#X connect 3 0 4 1;
#X connect 4 0 5 0;
#X connect 6 0 7 0;
#X connect 8 0 6 0;
#X connect 9 0 6 1;
#X connect 10 0 19 0;
#X connect 10 1 20 0;
#X connect 11 0 21 0;
#X connect 11 1 22 0;
#X connect 12 0 14 0;
#X connect 13 0 14 1;
#X connect 14 0 11 0;
#X connect 15 0 12 0;
#X connect 16 0 13 0;
#X connect 17 0 18 0;
#X connect 18 0 15 0;
#X connect 18 1 16 0;
#X connect 19 0 2 0;
#X connect 19 1 8 0;
#X connect 20 0 3 0;
#X connect 20 1 9 0;
#X connect 21 0 2 1;
#X connect 21 1 8 1;
#X connect 22 0 3 1;
#X connect 22 1 9 1;
