#N canvas 417 281 717 419 10;
#X obj 227 116 expr (max($f1 \, $f3)+min($f1 \, $f3))/2;
#X obj 244 151 expr (max($f2 \, $f4)+min($f2 \, $f4))/2;
#X obj 227 76 t a a a a;
#X obj 261 213 expr (max($f1 \, $f3)-min($f1 \, $f3))/2;
#X obj 278 249 expr (max($f2 \, $f4)-min($f2 \, $f4))/2;
#X obj 227 -17 inlet;
#X obj 310 -56 inlet;
#X obj 80 217 outlet pos_x;
#X obj 164 216 outlet pos_y;
#X obj 224 309 outlet scale_x;
#X obj 334 310 outlet scale_y;
#X obj 227 17 unpack f f;
#X obj 311 -6 unpack f f;
#X obj 227 50 pack f f f f;
#X obj 0 251 loadbang;
#X obj 310 -33 t b a;
#X msg 0 279 1&2output send center position \, 3&4output send scaleX
& scaleY;
#X connect 0 0 7 0;
#X connect 1 0 8 0;
#X connect 2 0 0 0;
#X connect 2 1 1 0;
#X connect 2 2 3 0;
#X connect 2 3 4 0;
#X connect 3 0 9 0;
#X connect 4 0 10 0;
#X connect 5 0 11 0;
#X connect 6 0 15 0;
#X connect 11 0 13 0;
#X connect 11 1 13 1;
#X connect 12 0 13 2;
#X connect 12 1 13 3;
#X connect 13 0 2 0;
#X connect 14 0 16 0;
#X connect 15 0 13 0;
#X connect 15 1 12 0;
