#N canvas 736 243 287 471 10;
#X obj -14 2 cnv 15 270 450 empty empty empty 20 12 0 14 -233017 -66577
0;
#X obj 75 267 k_2point;
#X floatatom 63 304 5 0 0 0 - - -;
#X floatatom 106 304 5 0 0 0 - - -;
#X floatatom 147 305 5 0 0 0 - - -;
#X floatatom 190 306 5 0 0 0 - - -;
#X obj 48 150 pack f f;
#X obj 120 150 pack f f;
#X obj 180 62 tgl 15 0 empty empty empty 17 7 0 10 -262144 -1 -1 0
1;
#X obj 6 292 gemhead;
#X obj 6 332 translateXYZ;
#X obj 6 378 scaleXYZ;
#X obj 6 422 square 1;
#X obj 48 108 expr ($f1*8)-4;
#X obj 65 78 expr ($f1*-8)+4;
#X obj 48 33 gemmouse 1 1;
#X obj 180 83 sel 1;
#X obj 48 196 spigot;
#X obj 48 219 t b a;
#X obj 180 108 t b b;
#X msg 207 131 1;
#X obj 81 174 tgl 15 0 empty empty empty 17 7 0 10 -262144 -1 -1 0
1;
#X msg 48 244 0;
#X obj 120 183 spigot;
#X obj 133 379 cnv 15 100 60 empty empty empty 20 12 0 14 -195568 -66577
0;
#N canvas 0 22 450 300 gemwin 0;
#X obj 132 136 gemwin;
#X obj 67 89 outlet;
#X obj 67 10 inlet;
#X obj 67 41 route create;
#X msg 67 70 set destroy;
#X msg 142 68 set create;
#X msg 249 113 destroy;
#X msg 132 112 reset \, create \, 1;
#X connect 2 0 3 0;
#X connect 3 0 4 0;
#X connect 3 0 7 0;
#X connect 3 1 5 0;
#X connect 3 1 6 0;
#X connect 4 0 1 0;
#X connect 5 0 1 0;
#X connect 6 0 0 0;
#X connect 7 0 0 0;
#X restore 138 418 pd gemwin;
#X msg 138 399 destroy;
#X text 134 378 Create window:;
#X msg 70 389 draw line;
#X text 150 220 draw-rectangle;
#X connect 1 0 2 0;
#X connect 1 1 3 0;
#X connect 1 2 4 0;
#X connect 1 3 5 0;
#X connect 2 0 10 1;
#X connect 3 0 10 2;
#X connect 4 0 11 1;
#X connect 5 0 11 2;
#X connect 6 0 17 0;
#X connect 7 0 23 0;
#X connect 8 0 16 0;
#X connect 8 0 23 1;
#X connect 9 0 10 0;
#X connect 10 0 11 0;
#X connect 11 0 12 0;
#X connect 13 0 6 0;
#X connect 13 0 7 0;
#X connect 14 0 6 1;
#X connect 14 0 7 1;
#X connect 15 0 13 0;
#X connect 15 1 14 0;
#X connect 15 2 8 0;
#X connect 16 0 19 0;
#X connect 17 0 18 0;
#X connect 18 0 22 0;
#X connect 18 1 1 0;
#X connect 19 0 6 0;
#X connect 19 1 20 0;
#X connect 20 0 21 0;
#X connect 21 0 17 1;
#X connect 22 0 21 0;
#X connect 23 0 1 1;
#X connect 25 0 26 0;
#X connect 26 0 25 0;
#X connect 28 0 12 0;
