#N canvas 318 145 585 458 10;
#X obj 271 109 expr ($f1*8)-4;
#X obj 288 79 expr ($f1*-8)+4;
#X obj 271 34 gemmouse 1 1;
#X obj 271 210 unpack f f;
#X obj 399 214 unpack f f;
#X floatatom 270 234 5 0 0 0 - - -;
#X floatatom 326 235 5 0 0 0 - - -;
#X floatatom 399 261 5 0 0 0 - - -;
#X floatatom 455 238 5 0 0 0 - - -;
#X obj 45 50 cnv 15 100 60 empty empty empty 20 12 0 14 -195568 -66577
0;
#N canvas 0 22 450 300 gemwin 0;
#X obj 132 136 gemwin;
#X obj 67 89 outlet;
#X obj 67 10 inlet;
#X obj 67 41 route create;
#X msg 67 70 set destroy;
#X msg 142 68 set create;
#X msg 249 113 destroy;
#X msg 132 112 reset \, create \, 1;
#X connect 2 0 3 0;
#X connect 3 0 4 0;
#X connect 3 0 7 0;
#X connect 3 1 5 0;
#X connect 3 1 6 0;
#X connect 4 0 1 0;
#X connect 5 0 1 0;
#X connect 6 0 0 0;
#X connect 7 0 0 0;
#X restore 50 89 pd gemwin;
#X msg 50 70 destroy;
#X text 46 49 Create window:;
#X obj 248 286 gemhead;
#X obj 248 338 translateXYZ;
#X obj 353 285 gemhead;
#X obj 353 337 translateXYZ;
#X obj 248 394 circle 0.05;
#X obj 353 393 circle 0.05;
#X obj 271 138 pack f f;
#X obj 192 241 k_2point;
#X obj 126 285 gemhead;
#X obj 126 316 translateXYZ;
#X obj 126 393 square 1;
#X obj 58 332 loadbang;
#X msg 58 356 draw line;
#X obj 126 346 scaleXYZ;
#X obj 271 177 k_2pos 0.3 1;
#X connect 0 0 19 0;
#X connect 1 0 19 1;
#X connect 2 0 0 0;
#X connect 2 1 1 0;
#X connect 3 0 5 0;
#X connect 3 1 6 0;
#X connect 4 0 7 0;
#X connect 4 1 8 0;
#X connect 5 0 14 1;
#X connect 6 0 14 2;
#X connect 7 0 16 1;
#X connect 8 0 16 2;
#X connect 10 0 11 0;
#X connect 11 0 10 0;
#X connect 13 0 14 0;
#X connect 14 0 17 0;
#X connect 15 0 16 0;
#X connect 16 0 18 0;
#X connect 19 0 27 0;
#X connect 20 0 22 1;
#X connect 20 1 22 2;
#X connect 20 2 26 1;
#X connect 20 3 26 2;
#X connect 21 0 22 0;
#X connect 22 0 26 0;
#X connect 24 0 25 0;
#X connect 25 0 23 0;
#X connect 26 0 23 0;
#X connect 27 0 3 0;
#X connect 27 0 20 0;
#X connect 27 1 4 0;
#X connect 27 1 20 1;
