#N canvas 785 89 710 608 10;
#X obj 68 55 k_camera;
#X obj 68 187 gemwin;
#X msg 14 155 destroy;
#X obj 69 -1 k_cpu;
#X obj 144 171 gemhead;
#X obj 14 108 sel 0 1;
#X obj 14 72 tgl 30 0 empty empty empty 17 7 0 10 -262144 -1 -1 1 1
;
#X obj 143 474 k_3Dmodel;
#X msg 208 19 \; pd dsp 1;
#X obj 208 -7 loadbang;
#X obj 334 233 metro 200;
#X obj 334 208 tgl 15 0 empty empty empty 17 7 0 10 -262144 -1 -1 0
1;
#X msg 334 324 vertex \$1 \$2 \$3 \$4;
#X obj 334 294 list append 1;
#X floatatom 369 383 5 0 0 0 - - -;
#X msg 357 411 showface \$1;
#X msg 260 360 Lcolor 0 0 0;
#X msg 413 500 face \$1 \$2 \$3 \$4;
#X obj 443 43 k_multiSlider;
#X msg 443 138 5 \$1 \$2 \$3;
#X msg 413 466 85 0 0.1 0.1;
#X msg 275 385 color 1 1 1;
#X msg 209 289 vertex 1 1 1 1;
#X obj 171 224 scale 10;
#X obj 144 196 t a a;
#X obj 144 260 translateXYZ 0 -1 0;
#X floatatom 244 222 5 0 0 0 - - -;
#X msg 33 132 reset \, dimen 800 400 \, FSAA 4 \, color 0.2 0.5 0.8
\, create \, 1;
#X obj 448 193 adc~;
#X obj 448 226 env~;
#X obj 334 271 tripleRand 1;
#X msg 224 446 read 0.sketchup/grid.txt;
#X connect 0 0 1 0;
#X connect 2 0 1 0;
#X connect 4 0 24 0;
#X connect 5 0 2 0;
#X connect 5 1 27 0;
#X connect 6 0 5 0;
#X connect 9 0 8 0;
#X connect 10 0 30 0;
#X connect 11 0 10 0;
#X connect 12 0 7 2;
#X connect 13 0 12 0;
#X connect 14 0 15 0;
#X connect 15 0 7 2;
#X connect 16 0 7 2;
#X connect 17 0 7 2;
#X connect 18 0 19 0;
#X connect 20 0 17 0;
#X connect 21 0 7 2;
#X connect 22 0 7 2;
#X connect 24 0 25 0;
#X connect 24 1 23 0;
#X connect 25 0 7 0;
#X connect 26 0 25 2;
#X connect 27 0 1 0;
#X connect 28 0 29 0;
#X connect 30 0 13 0;
#X connect 31 0 7 1;
