#N canvas 366 73 919 747 10;
#X obj -9 498 f;
#X floatatom -9 521 10 0 0 0 - - -;
#X obj -46 584 unpack f f f;
#X obj 21 498 + 1;
#X obj -46 435 t a b;
#X obj 66 466 qlist;
#X msg 65 418 0;
#X obj 4 328 bng 15 250 50 0 empty empty empty 17 7 0 10 -262144 -1
-1;
#X msg 94 412 clear;
#X obj 59 568 s \$0-repeat-v;
#X obj -12 633 tabwrite \$0-y;
#X obj -46 657 tabwrite \$0-x;
#X obj 23 607 tabwrite \$0-z;
#X obj -49 294 r v;
#X obj -16 298 tgl 15 0 empty empty tgl 17 7 0 10 -262144 -1 -1 0 1
;
#X obj -49 323 spigot;
#X obj 374 127 r vt;
#X obj 374 179 r g;
#X obj 374 152 r s;
#X obj 409 155 r #;
#X obj 108 141 hsl 50 15 0.001 0.3 0 0 empty empty NOISE 8 8 0 10 -262144
-1 -1 0 1;
#X obj 241 -32 tgl 15 0 empty empty empty 17 7 0 10 -262144 -1 -1 1
1;
#X obj 241 -59 loadbang;
#X obj 307 49 v noise;
#X obj 241 19 t b b;
#X obj 241 47 v noise;
#X msg -16 264 0;
#X obj 59 540 + 1;
#X obj 409 129 r vn;
#X obj -161 54 inlet gemhead;
#X obj 208 68 r \$0-repeat-l;
#X floatatom 164 140 5 0 0 0 - - -;
#X obj 66 243 inlet;
#X msg 108 285 1;
#X obj 66 263 t b a b;
#X obj 472 187 inlet;
#X obj -161 111 outlet;
#X floatatom 164 119 5 0 0 0 - - -;
#X floatatom 28 -38 6 440 3520 0 - - -;
#X obj 108 120 hsl 50 15 0 1200 0 0 empty \$0-face start 8 8 0 10 -262144
-1 -1 0 1;
#X msg 54 7 range 0 \$1;
#X obj 74 121 int;
#X obj 307 80 - 0.0001;
#X obj 241 -8 metro 20;
#X obj 163 102 tgl 15 0 empty empty line 17 7 0 10 -262144 -1 -1 1
1;
#X obj 374 202 r usemtl;
#X text 122 34 1.sketchup;
#X text 121 51 2.maya;
#N canvas 192 125 876 632 name 0;
#X msg 50 90 read /Users/aluan/Documents/github/k_obj/model/face.txt
;
#X obj 50 61 inlet;
#X obj 50 131 outlet;
#X obj 188 12 inlet;
#X obj 121 381 savepanel;
#X obj 121 454 outlet;
#X msg 121 407 write \$1;
#X msg 236 176 clear;
#X obj 258 217 r \$0-repeat-v;
#X obj 212 241 repeat 0;
#X obj 213 265 f;
#X obj 241 264 + 1;
#X obj 176 139 t b b b b;
#X msg 208 176 0;
#X obj 236 345 tabread \$0-x;
#X obj 264 372 tabread \$0-y;
#X obj 289 396 tabread \$0-z;
#X msg 233 457 add v \$1 \$2 \$3;
#X obj 231 429 pack f f f;
#X obj 7 178 t b b b b b;
#X obj 36 235 repeat 0;
#X obj 37 259 f;
#X obj 65 258 + 1;
#X msg 56 211 0;
#X obj 82 211 r \$0-repeat-l;
#X obj 22 318 tabread \$0-num;
#X obj 20 349 sel 9 12;
#X msg 17 372 1;
#X msg 51 374 2;
#X obj -37 445 gate 2;
#X obj -159 247 tabread \$0-l1;
#X obj -131 269 tabread \$0-l2;
#X obj -104 295 tabread \$0-l3;
#X obj -72 316 tabread \$0-l4;
#X obj 16 286 t f f;
#X obj -152 209 t f f f f;
#X obj -164 296 + 1;
#X obj -131 318 + 1;
#X obj -104 348 + 1;
#X obj -67 355 + 1;
#X msg -1 485 add f \$1 0 0 \$2 0 0 \$3 0 0 \$4 0 0;
#X obj -162 381 pack f f f f;
#X msg -38 516 add f \$1 0 0 \$2 0 0 \$3 0 0;
#X obj 230 315 t f f f;
#X connect 0 0 2 0;
#X connect 1 0 0 0;
#X connect 3 0 12 0;
#X connect 4 0 6 0;
#X connect 6 0 5 0;
#X connect 7 0 5 0;
#X connect 8 0 9 1;
#X connect 9 0 10 0;
#X connect 10 0 11 0;
#X connect 10 0 43 0;
#X connect 11 0 10 1;
#X connect 12 0 19 0;
#X connect 12 1 9 0;
#X connect 12 2 13 0;
#X connect 12 3 7 0;
#X connect 13 0 10 1;
#X connect 14 0 18 0;
#X connect 15 0 18 1;
#X connect 16 0 18 2;
#X connect 17 0 5 0;
#X connect 18 0 17 0;
#X connect 19 2 4 0;
#X connect 19 3 20 0;
#X connect 19 4 23 0;
#X connect 20 0 21 0;
#X connect 21 0 22 0;
#X connect 21 0 34 0;
#X connect 22 0 21 1;
#X connect 23 0 21 1;
#X connect 24 0 20 1;
#X connect 25 0 26 0;
#X connect 26 0 27 0;
#X connect 26 1 28 0;
#X connect 27 0 29 0;
#X connect 28 0 29 0;
#X connect 29 0 42 0;
#X connect 29 1 40 0;
#X connect 30 0 36 0;
#X connect 31 0 37 0;
#X connect 32 0 38 0;
#X connect 33 0 39 0;
#X connect 34 0 35 0;
#X connect 34 1 25 0;
#X connect 35 0 30 0;
#X connect 35 1 31 0;
#X connect 35 2 32 0;
#X connect 35 3 33 0;
#X connect 36 0 41 0;
#X connect 37 0 41 1;
#X connect 38 0 41 2;
#X connect 39 0 41 3;
#X connect 40 0 5 0;
#X connect 41 0 29 1;
#X connect 42 0 5 0;
#X connect 43 0 14 0;
#X connect 43 1 15 0;
#X connect 43 2 16 0;
#X restore 88 343 pd name;
#X obj 466 506 init \$0;
#X obj 466 484 bng 15 250 50 0 empty empty empty 17 7 0 10 -262144
-1 -1;
#X msg 466 535 \; \$1-x const 0 \; \$1-y const 0 \; \$1-z const 0 \;
\$1-num const 0 \; \$1-l1 const 0 \; \$1-l2 const 0 \; \$1-l3 const
0 \; \$1-l4 const 0 \;;
#X floatatom -46 155 5 0 0 0 - - -;
#X obj 109 161 hsl 50 15 0 616 0 0 empty \$0-vertex vertex 8 8 0 10
-262144 -1 -1 0 1;
#X msg -8 155 range 0 \$1;
#X obj 75 160 int;
#X floatatom 164 160 5 0 0 0 - - -;
#X obj 206 122 nbx 4 14 -1e+37 1e+37 0 0 empty empty x -7 7 0 8 -1
-257985 -1 3.1 256;
#N canvas 0 22 614 748 load-write 0;
#X obj 289 245 r f;
#X obj 289 458 t a b;
#X obj 316 482 f;
#X obj 346 481 + 1;
#X floatatom 316 502 5 0 0 0 - - -;
#X msg 331 449 0;
#X obj 416 597 + 1;
#X obj 289 586 - 1;
#X obj 316 588 - 1;
#X obj 343 587 - 1;
#X obj 416 620 s \$0-repeat-l;
#X obj 288 617 tabwrite \$0-l1;
#X obj 316 639 tabwrite \$0-l2;
#X obj 343 665 tabwrite \$0-l3;
#X obj 289 276 spigot;
#X obj 429 441 list-drip;
#X obj 429 415 t a b;
#X obj 429 489 f;
#X obj 459 490 + 1;
#X obj 429 465 t b;
#X floatatom 429 514 5 0 0 0 - - -;
#X msg 463 467 1;
#X obj 289 304 t a a;
#X obj 289 560 unpack f f f f;
#X obj 375 588 - 1;
#X obj 375 686 tabwrite \$0-l4;
#X obj 289 420 pack f f f f;
#X obj 429 572 tabwrite \$0-num;
#X obj 429 553 v num;
#X obj 316 523 t f f f f f f b f;
#X obj 289 386 unpack f f f f f f f f f f f f;
#X obj 157 389 inlet;
#X obj 322 240 inlet;
#X connect 0 0 14 0;
#X connect 1 0 23 0;
#X connect 1 1 2 0;
#X connect 2 0 3 0;
#X connect 2 0 4 0;
#X connect 3 0 2 1;
#X connect 4 0 29 0;
#X connect 5 0 2 1;
#X connect 6 0 10 0;
#X connect 7 0 11 0;
#X connect 8 0 12 0;
#X connect 9 0 13 0;
#X connect 14 0 22 0;
#X connect 15 0 19 0;
#X connect 16 0 15 0;
#X connect 16 1 21 0;
#X connect 17 0 18 0;
#X connect 17 0 20 0;
#X connect 18 0 17 1;
#X connect 19 0 17 0;
#X connect 20 0 28 0;
#X connect 21 0 17 1;
#X connect 22 0 30 0;
#X connect 22 1 16 0;
#X connect 23 0 7 0;
#X connect 23 1 8 0;
#X connect 23 2 9 0;
#X connect 23 3 24 0;
#X connect 24 0 25 0;
#X connect 26 0 1 0;
#X connect 28 0 27 0;
#X connect 29 0 11 1;
#X connect 29 1 12 1;
#X connect 29 2 13 1;
#X connect 29 3 25 1;
#X connect 29 5 6 0;
#X connect 29 6 28 0;
#X connect 29 7 27 1;
#X connect 30 0 26 0;
#X connect 30 3 26 1;
#X connect 30 6 26 2;
#X connect 30 9 26 3;
#X connect 31 0 5 0;
#X connect 32 0 14 1;
#X restore 156 345 pd load-write;
#X obj 207 141 nbx 4 14 -1e+37 1e+37 0 0 empty empty y -7 7 0 8 -1
-257985 -1 -11.17 256;
#X obj 207 161 nbx 4 14 -1e+37 1e+37 0 0 empty empty z -7 7 0 8 -1
-257985 -1 14.22 256;
#X obj 209 472 init \$0;
#X obj 209 450 bng 15 250 50 0 empty empty empty 17 7 0 10 -262144
-1 -1;
#X obj 209 425 loadbang;
#X obj -9 540 t f f f f;
#X obj 210 502 pack f f;
#X msg 209 534 \; \$1-x resize \$2 \; \$1-y resize \$2 \; \$1-z resize
\$2 \; \$1-num resize \$2 \; \$1-l1 resize \$2 \; \$1-l2 resize \$2
\; \$1-l3 resize \$2 \; \$1-l4 resize \$2 \;;
#X obj 261 471 * 2;
#X floatatom 270 501 5 0 0 0 - - -;
#X obj 207 102 tgl 15 0 empty empty fill 17 7 0 10 -262144 -1 -1 0
1;
#X obj 7 381 t b b b b b b b b;
#X obj 339 454 t b b;
#X obj 339 503 init \$0;
#X obj 339 481 bng 15 250 50 0 empty empty empty 17 7 0 10 -262144
-1 -1;
#X msg 339 532 \; \$1-x resize 3000 \; \$1-y resize 3000 \; \$1-z resize
3000 \; \$1-num resize 3000 \; \$1-l1 resize 3000 \; \$1-l2 resize
3000 \; \$1-l3 resize 3000 \; \$1-l4 resize 3000 \;;
#X obj 28 -18 t f f;
#N canvas 0 22 614 671 edit 0;
#X obj 91 166 tabwrite \$0-y;
#X obj 57 190 tabwrite \$0-x;
#X obj 126 140 tabwrite \$0-z;
#X obj 69 69 unpack f f f f;
#X obj 184 415 tabread \$0-l1;
#X obj 204 437 tabread \$0-l2;
#X obj 221 462 tabread \$0-l3;
#X obj 242 493 tabread \$0-l4;
#X obj 184 390 t f f f f;
#N canvas 267 425 444 395 add_pos 0;
#X obj 107 69 tabread \$0-x;
#X obj 187 64 tabread \$0-z;
#X obj 153 94 tabread \$0-y;
#X obj 126 130 +;
#X obj 154 133 +;
#X obj 186 134 +;
#X obj 165 3 t f f f f;
#X obj 126 160 tabwrite \$0-x;
#X obj 165 -24 inlet;
#X obj 154 202 tabwrite \$0-y;
#X obj 186 250 tabwrite \$0-z;
#X obj 77 -32 inlet;
#X obj 74 -2 unpack f f f;
#X connect 0 0 3 0;
#X connect 1 0 5 0;
#X connect 2 0 4 0;
#X connect 3 0 7 0;
#X connect 4 0 9 0;
#X connect 5 0 10 0;
#X connect 6 0 0 0;
#X connect 6 1 2 0;
#X connect 6 2 1 0;
#X connect 6 3 10 1;
#X connect 6 3 9 1;
#X connect 6 3 7 1;
#X connect 8 0 6 0;
#X connect 11 0 12 0;
#X connect 12 0 3 1;
#X connect 12 1 4 1;
#X connect 12 2 5 1;
#X restore 100 444 pd add_pos;
#N canvas 346 316 444 395 add_pos 0;
#X obj 165 56 tabread \$0-x;
#X obj 199 30 tabread \$0-z;
#X obj 187 82 tabread \$0-y;
#X obj 164 106 +;
#X obj 192 109 +;
#X obj 224 110 +;
#X obj 165 3 t f f f f;
#X obj 160 142 tabwrite \$0-x;
#X obj 165 -24 inlet;
#X obj 183 166 tabwrite \$0-y;
#X obj 218 188 tabwrite \$0-z;
#X obj 77 -32 inlet;
#X obj 74 -2 unpack f f f;
#X connect 0 0 3 0;
#X connect 1 0 5 0;
#X connect 2 0 4 0;
#X connect 3 0 7 0;
#X connect 4 0 9 0;
#X connect 5 0 10 0;
#X connect 6 0 0 0;
#X connect 6 1 2 0;
#X connect 6 2 1 0;
#X connect 6 3 10 1;
#X connect 6 3 9 1;
#X connect 6 3 7 1;
#X connect 8 0 6 0;
#X connect 11 0 12 0;
#X connect 12 0 3 1;
#X connect 12 1 4 1;
#X connect 12 2 5 1;
#X restore 112 481 pd add_pos;
#N canvas 346 316 444 395 add_pos 0;
#X obj 165 56 tabread \$0-x;
#X obj 199 30 tabread \$0-z;
#X obj 187 82 tabread \$0-y;
#X obj 164 106 +;
#X obj 192 109 +;
#X obj 224 110 +;
#X obj 165 3 t f f f f;
#X obj 160 142 tabwrite \$0-x;
#X obj 165 -24 inlet;
#X obj 183 166 tabwrite \$0-y;
#X obj 218 188 tabwrite \$0-z;
#X obj 77 -32 inlet;
#X obj 74 -2 unpack f f f;
#X connect 0 0 3 0;
#X connect 1 0 5 0;
#X connect 2 0 4 0;
#X connect 3 0 7 0;
#X connect 4 0 9 0;
#X connect 5 0 10 0;
#X connect 6 0 0 0;
#X connect 6 1 2 0;
#X connect 6 2 1 0;
#X connect 6 3 10 1;
#X connect 6 3 9 1;
#X connect 6 3 7 1;
#X connect 8 0 6 0;
#X connect 11 0 12 0;
#X connect 12 0 3 1;
#X connect 12 1 4 1;
#X connect 12 2 5 1;
#X restore 126 513 pd add_pos;
#N canvas 346 316 444 395 add_pos 0;
#X obj 165 56 tabread \$0-x;
#X obj 199 30 tabread \$0-z;
#X obj 187 82 tabread \$0-y;
#X obj 164 106 +;
#X obj 192 109 +;
#X obj 224 110 +;
#X obj 165 3 t f f f f;
#X obj 160 142 tabwrite \$0-x;
#X obj 165 -24 inlet;
#X obj 183 166 tabwrite \$0-y;
#X obj 218 188 tabwrite \$0-z;
#X obj 77 -32 inlet;
#X obj 74 -2 unpack f f f;
#X connect 0 0 3 0;
#X connect 1 0 5 0;
#X connect 2 0 4 0;
#X connect 3 0 7 0;
#X connect 4 0 9 0;
#X connect 5 0 10 0;
#X connect 6 0 0 0;
#X connect 6 1 2 0;
#X connect 6 2 1 0;
#X connect 6 3 10 1;
#X connect 6 3 9 1;
#X connect 6 3 7 1;
#X connect 8 0 6 0;
#X connect 11 0 12 0;
#X connect 12 0 3 1;
#X connect 12 1 4 1;
#X connect 12 2 5 1;
#X restore 162 570 pd add_pos;
#X obj 98 378 t a a a a;
#X msg 207 259 \$1;
#X msg 96 321 \$2 \$3 \$4;
#X obj 282 301 sel 9 12;
#X obj 281 252 tabread \$0-num;
#X msg 282 331 0;
#X msg 304 358 1;
#X obj 242 519 spigot;
#X obj 162 545 spigot;
#X floatatom 281 275 5 0 0 0 - - -;
#X obj 205 282 t f f;
#X obj 165 235 t a a a;
#X msg 184 364 \$1;
#X obj 69 35 inlet;
#X obj 165 213 inlet;
#X connect 3 0 1 0;
#X connect 3 1 0 0;
#X connect 3 2 2 0;
#X connect 3 3 2 1;
#X connect 3 3 0 1;
#X connect 3 3 1 1;
#X connect 4 0 9 1;
#X connect 5 0 10 1;
#X connect 6 0 11 1;
#X connect 7 0 20 0;
#X connect 8 0 4 0;
#X connect 8 1 5 0;
#X connect 8 2 6 0;
#X connect 8 3 7 0;
#X connect 13 0 9 0;
#X connect 13 1 10 0;
#X connect 13 2 11 0;
#X connect 13 3 21 0;
#X connect 14 0 23 0;
#X connect 15 0 13 0;
#X connect 16 0 18 0;
#X connect 16 1 19 0;
#X connect 17 0 22 0;
#X connect 18 0 20 1;
#X connect 18 0 21 1;
#X connect 19 0 20 1;
#X connect 19 0 21 1;
#X connect 20 0 12 1;
#X connect 21 0 12 0;
#X connect 22 0 16 0;
#X connect 23 1 17 0;
#X connect 24 0 25 0;
#X connect 24 1 15 0;
#X connect 24 2 14 0;
#X connect 25 0 8 0;
#X connect 26 0 3 0;
#X connect 27 0 24 0;
#X restore 473 333 pd edit model;
#X obj 473 208 s \$0-data;
#X obj 518 308 s \$0-noise;
#X obj -3 126 r \$0-noise;
#X obj 4 38 r \$0-data;
#N canvas 16 27 1104 774 shape==================== 1;
#X obj 39 283 t a a a;
#X obj 214 352 GEMglEnd;
#X obj 214 303 t a a a;
#N canvas 452 200 580 432 xyz 0;
#X obj 198 116 inlet;
#X obj 196 327 outlet;
#X obj 198 197 tabread \$0-x;
#X obj 237 168 tabread \$0-z;
#X obj 217 223 tabread \$0-y;
#X obj 195 281 pack f f f;
#N canvas 423 167 450 300 ranfomf 0;
#X obj 160 -86 inlet;
#X obj 155 87 t b b b;
#X obj 156 211 outlet;
#X obj 209 220 outlet;
#X obj 278 220 outlet;
#X obj 264 106 / 2;
#X obj 236 55 t f f;
#X obj 237 -106 inlet;
#X obj 151 126 randomF 0.01;
#X obj 202 150 randomF 0.01;
#X obj 281 145 randomF 0.01;
#X obj 151 155 - 0.005;
#X obj 202 179 - 0.005;
#X obj 281 174 - 0.005;
#X obj 202 -29 sel 0;
#X msg 203 -5 0;
#X msg 234 -4 1;
#X obj 155 26 spigot;
#X obj 251 -68 t f f;
#X connect 0 0 17 0;
#X connect 1 0 8 0;
#X connect 1 1 9 0;
#X connect 1 2 10 0;
#X connect 5 0 11 1;
#X connect 5 0 12 1;
#X connect 5 0 13 1;
#X connect 6 0 8 1;
#X connect 6 0 9 1;
#X connect 6 0 10 1;
#X connect 6 1 5 0;
#X connect 7 0 18 0;
#X connect 8 0 11 0;
#X connect 9 0 12 0;
#X connect 10 0 13 0;
#X connect 11 0 2 0;
#X connect 12 0 3 0;
#X connect 13 0 4 0;
#X connect 14 0 15 0;
#X connect 14 1 16 0;
#X connect 15 0 17 1;
#X connect 16 0 17 1;
#X connect 17 0 1 0;
#X connect 18 0 6 0;
#X connect 18 1 14 0;
#X restore 323 165 pd ranfomf;
#X obj 198 144 t f f f b;
#X obj 194 247 +;
#X obj 222 250 +;
#X obj 254 251 +;
#X obj 315 124 r \$0-bomb-noise;
#X connect 0 0 7 0;
#X connect 2 0 8 0;
#X connect 3 0 10 0;
#X connect 4 0 9 0;
#X connect 5 0 1 0;
#X connect 6 0 8 1;
#X connect 6 1 9 1;
#X connect 6 2 10 1;
#X connect 7 0 2 0;
#X connect 7 1 4 0;
#X connect 7 2 3 0;
#X connect 7 3 6 0;
#X connect 8 0 5 0;
#X connect 9 0 5 1;
#X connect 10 0 5 2;
#X connect 11 0 6 1;
#X restore 314 609 pd xyz;
#X obj 233 632 GEMglVertex3fv;
#X obj 372 371 t f f f f;
#N canvas 452 200 550 433 xyz 0;
#X obj 188 106 inlet;
#X obj 186 317 outlet;
#X obj 188 187 tabread \$0-x;
#X obj 227 158 tabread \$0-z;
#X obj 207 213 tabread \$0-y;
#X obj 185 271 pack f f f;
#N canvas 423 167 450 300 ranfomf 0;
#X obj 158 -61 inlet;
#X obj 155 87 t b b b;
#X obj 156 211 outlet;
#X obj 209 220 outlet;
#X obj 278 220 outlet;
#X obj 264 106 / 2;
#X obj 236 55 t f f;
#X obj 235 -81 inlet;
#X obj 151 126 randomF 0.01;
#X obj 202 150 randomF 0.01;
#X obj 281 145 randomF 0.01;
#X obj 151 155 - 0.005;
#X obj 202 179 - 0.005;
#X obj 281 174 - 0.005;
#X obj 193 -18 sel 0;
#X msg 194 6 0;
#X msg 225 7 1;
#X obj 146 37 spigot;
#X obj 242 -57 t f f;
#X connect 0 0 17 0;
#X connect 1 0 8 0;
#X connect 1 1 9 0;
#X connect 1 2 10 0;
#X connect 5 0 11 1;
#X connect 5 0 12 1;
#X connect 5 0 13 1;
#X connect 6 0 8 1;
#X connect 6 0 9 1;
#X connect 6 0 10 1;
#X connect 6 1 5 0;
#X connect 7 0 18 0;
#X connect 8 0 11 0;
#X connect 9 0 12 0;
#X connect 10 0 13 0;
#X connect 11 0 2 0;
#X connect 12 0 3 0;
#X connect 13 0 4 0;
#X connect 14 0 15 0;
#X connect 14 1 16 0;
#X connect 15 0 17 1;
#X connect 16 0 17 1;
#X connect 17 0 1 0;
#X connect 18 0 6 0;
#X connect 18 1 14 0;
#X restore 313 155 pd ranfomf;
#X obj 188 134 t f f f b;
#X obj 184 237 +;
#X obj 212 240 +;
#X obj 244 241 +;
#X obj 339 106 r \$0-bomb-noise;
#X connect 0 0 7 0;
#X connect 2 0 8 0;
#X connect 3 0 10 0;
#X connect 4 0 9 0;
#X connect 5 0 1 0;
#X connect 6 0 8 1;
#X connect 6 1 9 1;
#X connect 6 2 10 1;
#X connect 7 0 2 0;
#X connect 7 1 4 0;
#X connect 7 2 3 0;
#X connect 7 3 6 0;
#X connect 8 0 5 0;
#X connect 9 0 5 1;
#X connect 10 0 5 2;
#X connect 11 0 6 1;
#X restore 331 562 pd xyz;
#X obj 250 585 GEMglVertex3fv;
#N canvas 452 200 560 437 xyz 0;
#X obj 178 96 inlet;
#X obj 176 307 outlet;
#X obj 178 177 tabread \$0-x;
#X obj 217 148 tabread \$0-z;
#X obj 197 203 tabread \$0-y;
#X obj 175 261 pack f f f;
#N canvas 423 167 493 470 ranfomf 0;
#X obj 157 -88 inlet;
#X obj 155 87 t b b b;
#X obj 156 211 outlet;
#X obj 209 220 outlet;
#X obj 278 220 outlet;
#X obj 264 106 / 2;
#X obj 236 55 t f f;
#X obj 234 -108 inlet;
#X obj 151 126 randomF 0.01;
#X obj 202 150 randomF 0.01;
#X obj 281 145 randomF 0.01;
#X obj 151 155 - 0.005;
#X obj 202 179 - 0.005;
#X obj 281 174 - 0.005;
#X obj 182 -21 sel 0;
#X msg 183 3 0;
#X msg 214 4 1;
#X obj 135 34 spigot;
#X obj 231 -60 t f f;
#X connect 0 0 17 0;
#X connect 1 0 8 0;
#X connect 1 1 9 0;
#X connect 1 2 10 0;
#X connect 5 0 11 1;
#X connect 5 0 12 1;
#X connect 5 0 13 1;
#X connect 6 0 8 1;
#X connect 6 0 9 1;
#X connect 6 0 10 1;
#X connect 6 1 5 0;
#X connect 7 0 18 0;
#X connect 8 0 11 0;
#X connect 9 0 12 0;
#X connect 10 0 13 0;
#X connect 11 0 2 0;
#X connect 12 0 3 0;
#X connect 13 0 4 0;
#X connect 14 0 15 0;
#X connect 14 1 16 0;
#X connect 15 0 17 1;
#X connect 16 0 17 1;
#X connect 17 0 1 0;
#X connect 18 0 6 0;
#X connect 18 1 14 0;
#X restore 303 145 pd ranfomf;
#X obj 178 124 t f f f b;
#X obj 174 227 +;
#X obj 202 230 +;
#X obj 234 231 +;
#X obj 295 104 r \$0-bomb-noise;
#X connect 0 0 7 0;
#X connect 2 0 8 0;
#X connect 3 0 10 0;
#X connect 4 0 9 0;
#X connect 5 0 1 0;
#X connect 6 0 8 1;
#X connect 6 1 9 1;
#X connect 6 2 10 1;
#X connect 7 0 2 0;
#X connect 7 1 4 0;
#X connect 7 2 3 0;
#X connect 7 3 6 0;
#X connect 8 0 5 0;
#X connect 9 0 5 1;
#X connect 10 0 5 2;
#X connect 11 0 6 1;
#X restore 348 515 pd xyz;
#X obj 267 538 GEMglVertex3fv;
#N canvas 113 318 559 418 xyz 0;
#X obj 168 86 inlet;
#X obj 166 297 outlet;
#X obj 168 167 tabread \$0-x;
#X obj 207 138 tabread \$0-z;
#X obj 187 193 tabread \$0-y;
#X obj 165 251 pack f f f;
#N canvas 423 167 450 300 ranfomf 0;
#X obj 153 -66 inlet;
#X obj 155 87 t b b b;
#X obj 156 211 outlet;
#X obj 209 220 outlet;
#X obj 278 220 outlet;
#X obj 264 106 / 2;
#X obj 236 55 t f f;
#X obj 244 -65 inlet;
#X obj 151 126 randomF 0.01;
#X obj 202 150 randomF 0.01;
#X obj 281 145 randomF 0.01;
#X obj 151 155 - 0.005;
#X obj 202 179 - 0.005;
#X obj 281 174 - 0.005;
#X obj 197 -4 sel 0;
#X msg 198 20 0;
#X msg 229 21 1;
#X obj 150 51 spigot;
#X obj 246 -43 t f f;
#X connect 0 0 17 0;
#X connect 1 0 8 0;
#X connect 1 1 9 0;
#X connect 1 2 10 0;
#X connect 5 0 11 1;
#X connect 5 0 12 1;
#X connect 5 0 13 1;
#X connect 6 0 8 1;
#X connect 6 0 9 1;
#X connect 6 0 10 1;
#X connect 6 1 5 0;
#X connect 7 0 18 0;
#X connect 8 0 11 0;
#X connect 9 0 12 0;
#X connect 10 0 13 0;
#X connect 11 0 2 0;
#X connect 12 0 3 0;
#X connect 13 0 4 0;
#X connect 14 0 15 0;
#X connect 14 1 16 0;
#X connect 15 0 17 1;
#X connect 16 0 17 1;
#X connect 17 0 1 0;
#X connect 18 0 6 0;
#X connect 18 1 14 0;
#X restore 293 135 pd ranfomf;
#X obj 168 114 t f f f b;
#X obj 164 217 +;
#X obj 192 220 +;
#X obj 224 221 +;
#X obj 350 103 r \$0-bomb-noise;
#X connect 0 0 7 0;
#X connect 2 0 8 0;
#X connect 3 0 10 0;
#X connect 4 0 9 0;
#X connect 5 0 1 0;
#X connect 6 0 8 1;
#X connect 6 1 9 1;
#X connect 6 2 10 1;
#X connect 7 0 2 0;
#X connect 7 1 4 0;
#X connect 7 2 3 0;
#X connect 7 3 6 0;
#X connect 8 0 5 0;
#X connect 9 0 5 1;
#X connect 10 0 5 2;
#X connect 11 0 6 1;
#X restore 365 467 pd xyz;
#X obj 284 490 GEMglVertex3fv;
#X obj 372 394 tabread \$0-l1;
#X obj 389 417 tabread \$0-l2;
#X obj 406 442 tabread \$0-l3;
#X obj 423 472 tabread \$0-l4;
#X obj 253 324 GEMglBegin 7;
#X msg 493 195 7;
#X obj 244 83 f 0;
#X obj 271 83 + 1;
#X obj 300 83 % 123;
#X obj 205 30 repeat 123;
#X floatatom 271 -11 5 0 0 0 - - -;
#X obj 271 -35 r \$0-repeat-l;
#X obj 401 251 t f f;
#X obj 438 252 t f f;
#X obj 377 289 sel 4 7;
#X obj 377 341 tgl 15 0 empty empty empty 17 7 0 10 -262144 -1 -1 0
1;
#X msg 409 314 1;
#X msg 377 314 0;
#X obj 233 458 t a a a a;
#X obj 233 609 spigot;
#X obj 465 148 tabread \$0-num;
#X obj 39 157 separator;
#X obj 39 332 GEMglEnd;
#X obj 75 434 GEMglVertex3fv;
#X obj 92 408 GEMglVertex3fv;
#X obj 109 382 GEMglVertex3fv;
#X obj 58 359 t a a a a;
#X obj 58 458 spigot;
#X obj 78 304 GEMglBegin 2;
#X obj 58 485 GEMglVertex3fv;
#X msg 465 195 4;
#X obj 465 173 sel 9 12;
#X obj 39 257 GEMglLineWidth 1;
#X obj 205 58 t a a b;
#X obj 214 230 separator;
#X obj 343 19 inlet;
#X obj 283 144 outlet;
#X obj 201 -116 inlet;
#X obj 244 170 moses 0;
#X obj 511 263 t f f f f;
#X obj 511 286 tabread \$0-l1;
#X obj 528 309 tabread \$0-l2;
#X obj 545 355 tabread \$0-l3;
#X obj 562 398 tabread \$0-l4;
#N canvas 0 22 412 391 xyz 0;
#X obj 178 177 tabread \$0-x;
#X obj 217 148 tabread \$0-z;
#X obj 197 203 tabread \$0-y;
#X obj 175 261 pack f f f;
#X obj 178 124 t f f f;
#X obj 172 96 inlet;
#X obj 176 287 outlet;
#X connect 0 0 3 0;
#X connect 1 0 3 2;
#X connect 2 0 3 1;
#X connect 3 0 6 0;
#X connect 4 0 0 0;
#X connect 4 1 2 0;
#X connect 4 2 1 0;
#X connect 5 0 4 0;
#X restore 511 331 pd xyz;
#N canvas 0 22 412 391 xyz 0;
#X obj 178 177 tabread \$0-x;
#X obj 217 148 tabread \$0-z;
#X obj 197 203 tabread \$0-y;
#X obj 175 261 pack f f f;
#X obj 178 124 t f f f;
#X obj 172 96 inlet;
#X obj 176 287 outlet;
#X connect 0 0 3 0;
#X connect 1 0 3 2;
#X connect 2 0 3 1;
#X connect 3 0 6 0;
#X connect 4 0 0 0;
#X connect 4 1 2 0;
#X connect 4 2 1 0;
#X connect 5 0 4 0;
#X restore 528 374 pd xyz;
#N canvas 0 22 412 391 xyz 0;
#X obj 178 177 tabread \$0-x;
#X obj 217 148 tabread \$0-z;
#X obj 197 203 tabread \$0-y;
#X obj 175 261 pack f f f;
#X obj 178 124 t f f f;
#X obj 172 96 inlet;
#X obj 176 287 outlet;
#X connect 0 0 3 0;
#X connect 1 0 3 2;
#X connect 2 0 3 1;
#X connect 3 0 6 0;
#X connect 4 0 0 0;
#X connect 4 1 2 0;
#X connect 4 2 1 0;
#X connect 5 0 4 0;
#X restore 545 417 pd xyz;
#N canvas 0 22 412 391 xyz 0;
#X obj 178 177 tabread \$0-x;
#X obj 217 148 tabread \$0-z;
#X obj 197 203 tabread \$0-y;
#X obj 175 261 pack f f f;
#X obj 178 124 t f f f;
#X obj 172 96 inlet;
#X obj 176 287 outlet;
#X connect 0 0 3 0;
#X connect 1 0 3 2;
#X connect 2 0 3 1;
#X connect 3 0 6 0;
#X connect 4 0 0 0;
#X connect 4 1 2 0;
#X connect 4 2 1 0;
#X connect 5 0 4 0;
#X restore 562 445 pd xyz;
#X obj 39 122 spigot;
#X obj 190 167 spigot;
#X obj 244 107 t f f f f;
#X obj 343 52 route color Lcolor showface;
#X obj 353 229 list;
#X obj 39 188 colorRGB 0 0 0 1;
#X obj 353 207 t b;
#X obj 320 182 sel 0;
#X obj 967 275 tabread \$0-x;
#X obj 967 251 t f f f;
#X obj 983 301 tabread \$0-y;
#X obj 1005 322 tabread \$0-z;
#X obj 944 375 color 1 0 0;
#X obj 944 350 translateXYZ;
#X obj 944 402 sphere 0.02 30;
#X obj 847 459 expr int($f1*100)/100;
#X obj 870 505 expr int($f1*100)/100;
#X obj 923 543 expr int($f1*100)/100;
#X obj 201 -63 separator;
#X obj 840 160 separator;
#X obj 72 96 r \$0-line;
#X obj 223 140 r \$0-fill;
#X obj 332 157 r \$0-nomove;
#X obj 967 226 r \$0-vertex_pos;
#X obj 847 481 s \$0-sx;
#X obj 871 526 s \$0-sy;
#X obj 923 565 s \$0-sz;
#X obj 214 256 colorRGB 1 1 1 1;
#X obj 214 279 alpha;
#X obj 256 219 unpack f f f f;
#X msg 236 196 1 0 0 1;
#X obj 840 233 spigot;
#X obj 873 207 r \$0-vertex;
#X obj 201 -94 t a a a;
#X obj 685 195 separator;
#X obj 685 167 spigot;
#X obj 685 227 repeat 123;
#X obj 718 145 tgl 15 0 empty empty empty 17 7 0 10 -262144 -1 -1 1
1;
#X obj 751 190 r \$0-repeat-v;
#X obj 712 281 f 0;
#X obj 739 281 + 1;
#X obj 768 281 % 123;
#X obj 685 250 t a b;
#X obj 685 320 separator;
#X obj 685 358 translateXYZ;
#X obj 766 333 tabread \$0-x;
#X obj 782 359 tabread \$0-y;
#X obj 804 380 tabread \$0-z;
#X obj 773 84 r \$0-point;
#X obj 655 607 model model/pyramid.obj;
#X obj 766 309 t f f f f;
#X obj 726 404 tabread x;
#X obj 742 430 tabread y;
#X obj 764 451 tabread z;
#X obj 655 559 rotateXYZ;
#X obj 672 506 k_range -1 1 0 360;
#X obj 689 526 k_range -1 1 0 360;
#X obj 706 478 k_range -1 1 0 360;
#X obj 655 584 scale 0.6;
#X obj 104 156 unpack f f f f;
#X obj 40 222 alpha;
#X connect 0 0 34 0;
#X connect 0 1 38 0;
#X connect 0 2 40 0;
#X connect 2 0 1 0;
#X connect 2 1 30 0;
#X connect 2 2 16 0;
#X connect 3 0 4 1;
#X connect 3 0 41 1;
#X connect 5 0 12 0;
#X connect 5 1 13 0;
#X connect 5 2 14 0;
#X connect 5 3 15 0;
#X connect 6 0 7 1;
#X connect 6 0 35 1;
#X connect 8 0 9 1;
#X connect 8 0 36 1;
#X connect 10 0 11 1;
#X connect 10 0 37 1;
#X connect 12 0 10 0;
#X connect 13 0 8 0;
#X connect 14 0 6 0;
#X connect 15 0 3 0;
#X connect 17 0 25 0;
#X connect 18 0 19 0;
#X connect 18 0 62 0;
#X connect 19 0 20 0;
#X connect 20 0 18 1;
#X connect 21 0 45 0;
#X connect 22 0 21 1;
#X connect 22 0 20 1;
#X connect 23 0 22 0;
#X connect 24 0 16 1;
#X connect 24 1 26 0;
#X connect 25 0 16 1;
#X connect 25 1 26 0;
#X connect 26 0 29 0;
#X connect 26 1 28 0;
#X connect 27 0 31 1;
#X connect 27 0 39 1;
#X connect 28 0 27 0;
#X connect 29 0 27 0;
#X connect 30 0 31 0;
#X connect 30 1 7 0;
#X connect 30 2 9 0;
#X connect 30 3 11 0;
#X connect 31 0 4 0;
#X connect 32 0 43 0;
#X connect 33 0 65 0;
#X connect 38 0 39 0;
#X connect 38 1 35 0;
#X connect 38 2 36 0;
#X connect 38 3 37 0;
#X connect 39 0 41 0;
#X connect 42 0 24 0;
#X connect 43 0 42 0;
#X connect 43 1 17 0;
#X connect 44 0 0 0;
#X connect 45 0 60 0;
#X connect 45 1 61 0;
#X connect 45 2 18 0;
#X connect 46 0 87 0;
#X connect 47 0 63 0;
#X connect 49 0 93 0;
#X connect 50 0 51 0;
#X connect 50 1 5 0;
#X connect 51 0 52 0;
#X connect 51 1 53 0;
#X connect 51 2 54 0;
#X connect 51 3 55 0;
#X connect 52 0 56 0;
#X connect 53 0 57 0;
#X connect 54 0 58 0;
#X connect 55 0 59 0;
#X connect 56 0 11 1;
#X connect 56 0 37 1;
#X connect 57 0 9 1;
#X connect 57 0 36 1;
#X connect 58 0 7 1;
#X connect 58 0 35 1;
#X connect 59 0 4 1;
#X connect 59 0 41 1;
#X connect 60 0 33 0;
#X connect 61 0 46 0;
#X connect 62 0 50 0;
#X connect 62 1 32 0;
#X connect 62 2 48 0;
#X connect 62 3 67 0;
#X connect 63 0 64 1;
#X connect 63 1 119 0;
#X connect 63 2 67 1;
#X connect 64 0 89 0;
#X connect 65 0 120 0;
#X connect 66 0 64 0;
#X connect 67 0 90 0;
#X connect 67 1 66 0;
#X connect 68 0 73 1;
#X connect 68 0 75 0;
#X connect 69 0 68 0;
#X connect 69 1 70 0;
#X connect 69 2 71 0;
#X connect 70 0 73 2;
#X connect 70 0 76 0;
#X connect 71 0 73 3;
#X connect 71 0 77 0;
#X connect 72 0 74 0;
#X connect 73 0 72 0;
#X connect 75 0 84 0;
#X connect 76 0 85 0;
#X connect 77 0 86 0;
#X connect 78 0 21 0;
#X connect 79 0 91 0;
#X connect 80 0 60 1;
#X connect 81 0 61 1;
#X connect 82 0 50 1;
#X connect 83 0 69 0;
#X connect 87 0 88 0;
#X connect 88 0 2 0;
#X connect 89 0 87 1;
#X connect 89 1 87 2;
#X connect 89 2 87 3;
#X connect 89 3 87 4;
#X connect 90 0 89 0;
#X connect 91 0 73 0;
#X connect 92 0 91 1;
#X connect 93 0 78 0;
#X connect 93 1 95 0;
#X connect 93 2 79 0;
#X connect 94 0 96 0;
#X connect 95 0 94 0;
#X connect 96 0 102 0;
#X connect 97 0 95 1;
#X connect 98 0 96 1;
#X connect 98 0 101 1;
#X connect 99 0 100 0;
#X connect 99 0 110 0;
#X connect 100 0 101 0;
#X connect 101 0 99 1;
#X connect 102 0 103 0;
#X connect 102 1 99 0;
#X connect 103 0 104 0;
#X connect 104 0 114 0;
#X connect 105 0 104 1;
#X connect 106 0 104 2;
#X connect 107 0 104 3;
#X connect 108 0 97 0;
#X connect 110 0 105 0;
#X connect 110 1 106 0;
#X connect 110 2 107 0;
#X connect 110 3 111 0;
#X connect 110 3 112 0;
#X connect 110 3 113 0;
#X connect 111 0 115 0;
#X connect 112 0 116 0;
#X connect 113 0 117 0;
#X connect 114 0 118 0;
#X connect 115 0 114 1;
#X connect 116 0 114 2;
#X connect 117 0 114 3;
#X connect 118 0 109 0;
#X connect 119 0 65 1;
#X connect 119 1 65 2;
#X connect 119 2 65 3;
#X connect 119 3 65 4;
#X connect 120 0 44 0;
#X restore -161 88 pd shape====================;
#X obj 195 189 s \$0-fill;
#X obj 132 189 s \$0-line;
#X obj 259 189 s \$0-nomove;
#X obj 516 155 loadbang;
#X obj 164 224 s \$0-vertex_pos;
#X obj 283 164 r \$0-sz;
#X obj 283 141 r \$0-sy;
#X obj 283 119 r \$0-sx;
#X obj 250 160 bng 15 250 50 0 empty empty empty 17 7 0 10 -262144
-1 -1;
#X obj 473 238 r \$0-data;
#X obj 96 -30 r \$0-data;
#X obj 96 -4 route line fill;
#X obj 66 224 s \$0-bomb-noise;
#X msg 516 177 color 1 1 1 0.5;
#X obj 284 209 tgl 15 0 empty empty empty 17 7 0 10 -262144 -1 -1 0
1;
#X obj 284 234 s \$0-vertex;
#X obj 473 285 route vertex noise face r_vertex r_face;
#N canvas 0 22 450 300 read 0;
#X obj 92 66 inlet;
#X obj 300 68 inlet;
#X obj 67 255 outlet;
#X obj 92 101 t f f f f;
#X obj 92 135 tabread \$0-x;
#X obj 110 161 tabread \$0-y;
#X obj 124 182 tabread \$0-z;
#X obj 91 214 pack f f f f;
#X connect 0 0 3 0;
#X connect 3 0 4 0;
#X connect 3 1 5 0;
#X connect 3 2 6 0;
#X connect 3 3 7 3;
#X connect 4 0 7 0;
#X connect 5 0 7 1;
#X connect 6 0 7 2;
#X connect 7 0 2 0;
#X restore 629 348 pd read;
#X obj 629 380 outlet;
#X obj 311 328 getdir 2;
#X obj 311 382 makesymbol %s/%s;
#X obj 311 354 pack s s;
#X msg 311 405 set read \$1;
#X obj 376 258 bng 15 250 50 0 empty empty empty 17 7 0 10 -262144
-1 -1;
#X obj 303 268 route read;
#X obj 311 299 t b a;
#X obj 379 330 symbol;
#X obj 376 29 table \$0-x 300;
#X obj 374 53 table \$0-y 300;
#X obj 373 78 table \$0-z 300;
#X obj 374 101 table \$0-num 300;
#X obj 491 29 table \$0-l1 300;
#X obj 491 52 table \$0-l2 300;
#X obj 493 73 table \$0-l3 300;
#X obj 493 97 table \$0-l4 300;
#X obj 251 103 tgl 15 0 empty empty point 17 7 0 10 -262144 -1 -1 1
1;
#X obj 326 11 s \$0-point;
#X connect 0 0 1 0;
#X connect 0 0 3 0;
#X connect 1 0 64 0;
#X connect 2 0 11 0;
#X connect 2 1 10 0;
#X connect 2 2 12 0;
#X connect 3 0 0 1;
#X connect 4 0 2 0;
#X connect 4 1 0 0;
#X connect 6 0 0 1;
#X connect 7 0 70 0;
#X connect 8 0 5 0;
#X connect 13 0 15 0;
#X connect 14 0 15 1;
#X connect 14 0 58 1;
#X connect 15 0 4 0;
#X connect 20 0 25 0;
#X connect 20 0 94 0;
#X connect 21 0 43 0;
#X connect 22 0 21 0;
#X connect 23 0 42 0;
#X connect 24 0 25 0;
#X connect 24 1 23 0;
#X connect 26 0 14 0;
#X connect 27 0 9 0;
#X connect 27 0 67 0;
#X connect 29 0 81 0;
#X connect 30 0 31 0;
#X connect 31 0 38 0;
#X connect 32 0 34 0;
#X connect 33 0 14 0;
#X connect 34 0 7 0;
#X connect 34 1 106 0;
#X connect 34 2 33 0;
#X connect 35 0 77 0;
#X connect 37 0 84 0;
#X connect 38 0 75 0;
#X connect 39 0 41 0;
#X connect 40 0 39 0;
#X connect 41 0 37 0;
#X connect 42 0 20 0;
#X connect 43 0 24 0;
#X connect 44 0 83 0;
#X connect 48 0 5 0;
#X connect 48 1 5 0;
#X connect 49 0 51 0;
#X connect 50 0 49 0;
#X connect 52 0 54 0;
#X connect 53 0 55 0;
#X connect 54 0 53 0;
#X connect 55 0 56 0;
#X connect 56 0 86 0;
#X connect 61 0 65 0;
#X connect 62 0 61 0;
#X connect 63 0 62 0;
#X connect 64 0 11 1;
#X connect 64 0 52 0;
#X connect 64 1 10 1;
#X connect 64 2 12 1;
#X connect 64 3 27 0;
#X connect 65 0 66 0;
#X connect 67 0 68 0;
#X connect 68 0 65 1;
#X connect 69 0 82 0;
#X connect 70 0 62 0;
#X connect 70 1 26 0;
#X connect 70 2 5 0;
#X connect 70 3 48 0;
#X connect 70 4 6 0;
#X connect 70 5 58 0;
#X connect 70 6 8 0;
#X connect 70 7 71 0;
#X connect 71 0 73 0;
#X connect 71 1 50 0;
#X connect 72 0 74 0;
#X connect 73 0 72 0;
#X connect 75 1 40 0;
#X connect 79 0 20 0;
#X connect 80 0 81 1;
#X connect 81 0 36 0;
#X connect 85 0 95 0;
#X connect 87 0 60 0;
#X connect 88 0 59 0;
#X connect 89 0 57 0;
#X connect 90 0 48 1;
#X connect 91 0 98 0;
#X connect 92 0 93 0;
#X connect 93 0 44 0;
#X connect 93 1 69 0;
#X connect 95 0 77 0;
#X connect 96 0 97 0;
#X connect 98 0 76 0;
#X connect 98 1 78 0;
#X connect 98 2 76 1;
#X connect 98 3 99 0;
#X connect 98 4 99 1;
#X connect 99 0 100 0;
#X connect 101 0 103 0;
#X connect 102 0 104 0;
#X connect 103 0 102 0;
#X connect 104 0 48 0;
#X connect 105 0 107 0;
#X connect 106 0 107 0;
#X connect 107 0 101 0;
#X connect 107 1 108 0;
#X connect 108 0 103 1;
#X connect 117 0 118 0;
#X coords 0 -1 1 1 200 80 1 100 100;
