#N canvas 969 234 526 432 10;
#X obj 152 355 polygon 4;
#X obj 204 268 inlet;
#X obj 246 267 inlet;
#X obj 289 267 inlet;
#X obj 331 266 inlet;
#X obj 152 268 inlet;
#X connect 1 0 0 1;
#X connect 2 0 0 2;
#X connect 3 0 0 3;
#X connect 4 0 0 4;
#X connect 5 0 0 0;
