#N canvas 675 75 567 390 10;
#X obj 49 147 k_win;
#X text 11 80 (日文)+drog mode= new rectangle;
#X text 15 110 click mode = white point(webcam);
#X obj 344 186 k_pick;
#N canvas 0 22 450 300 light 0;
#X obj 193 -203 gemhead;
#X obj 193 -177 world_light;
#X obj 87 -99 gemhead 1;
#X obj 87 3 light;
#X obj 87 -58 rotateXYZ 0 0 0;
#X obj 237 -122 gemhead 1;
#X obj 236 10 light;
#X obj 237 -81 rotateXYZ 0 0 0;
#X msg 263 -21 0.3 0.3 0.3;
#X msg 130 4 1 1 1;
#X floatatom 164 -101 5 0 0 0 - - -, f 5;
#X obj 87 -23 translateXYZ 2.5 3 -7;
#X obj 237 -46 translateXYZ -3 9 5;
#X connect 0 0 1 0;
#X connect 2 0 4 0;
#X connect 4 0 11 0;
#X connect 5 0 7 0;
#X connect 7 0 12 0;
#X connect 8 0 6 1;
#X connect 9 0 3 1;
#X connect 10 0 11 1;
#X connect 11 0 3 0;
#X connect 12 0 6 0;
#X restore 293 74 pd light;
#N canvas 642 133 530 622 camera 0;
#X obj 133 60 unpack f f f f f f;
#X floatatom 133 87 5 0 0 0 x - -, f 5;
#X floatatom 175 85 5 0 0 0 z - -, f 5;
#X floatatom 154 112 5 0 0 0 y - -, f 5;
#X floatatom 247 365 5 0 0 0 - - -, f 5;
#X obj 247 339 expr atan2($f1 \, $f2);
#X obj 247 388 expr $f1*(180/3.1415926);
#X floatatom 247 306 5 0 0 0 z - -, f 5;
#X floatatom 337 270 5 0 0 0 x - -, f 5;
#X floatatom 247 420 5 0 0 0 theta - -, f 5;
#X obj 337 307 t b f;
#X floatatom 65 293 5 0 0 0 - - -, f 5;
#X floatatom 65 343 5 0 0 0 - - -, f 5;
#X floatatom 65 393 5 0 0 0 - - -, f 5;
#X obj 65 319 atan;
#X obj 65 367 expr $f1*(180/3.1415926);
#X obj 65 265 expr sqrt((pow($f1 \, 2)+pow($f2 \, 2)))/$f3;
#X obj 113 403 > 0;
#X obj 113 425 + 1;
#X obj 65 418 t f f;
#X obj 64 459 gate 2;
#X obj 64 485 k_range -90 0 0 -90;
#X obj 97 509 k_range 90 0 0 90;
#X floatatom 64 532 10 0 0 0 phi - -, f 10;
#X obj 133 205 t f f;
#X obj 183 225 t f f;
#X obj 302 417 expr atan($f1/$f2);
#X floatatom 302 445 5 0 0 0 - - -, f 5;
#X obj 133 144 -;
#X obj 182 146 -;
#X obj 252 150 -;
#X obj 133 33 r viewcin;
#X connect 0 0 1 0;
#X connect 0 1 3 0;
#X connect 0 2 2 0;
#X connect 0 3 28 1;
#X connect 0 4 29 1;
#X connect 0 5 30 1;
#X connect 1 0 28 0;
#X connect 2 0 30 0;
#X connect 3 0 29 0;
#X connect 4 0 6 0;
#X connect 5 0 4 0;
#X connect 6 0 9 0;
#X connect 7 0 5 0;
#X connect 7 0 26 0;
#X connect 8 0 10 0;
#X connect 8 0 26 1;
#X connect 10 0 7 0;
#X connect 10 1 5 1;
#X connect 11 0 14 0;
#X connect 12 0 15 0;
#X connect 13 0 19 0;
#X connect 14 0 12 0;
#X connect 15 0 13 0;
#X connect 16 0 11 0;
#X connect 17 0 18 0;
#X connect 18 0 20 0;
#X connect 19 0 20 1;
#X connect 19 1 17 0;
#X connect 20 0 21 0;
#X connect 20 1 22 0;
#X connect 21 0 23 0;
#X connect 22 0 23 0;
#X connect 24 0 16 0;
#X connect 24 1 8 0;
#X connect 25 0 16 1;
#X connect 25 1 7 0;
#X connect 26 0 27 0;
#X connect 28 0 24 0;
#X connect 29 0 16 2;
#X connect 30 0 25 0;
#X connect 31 0 0 0;
#X restore 292 54 pd camera;
#N canvas 588 127 793 656 draw 0;
#X floatatom 250 116 5 0 0 0 - - -, f 5;
#X floatatom 266 182 5 0 0 0 - - -, f 5;
#X obj 250 93 expr $f1+ 90;
#X obj 266 156 expr $f1+ 270;
#X obj 76 120 line;
#X obj 235 40 line;
#X obj 76 18 r theta;
#X obj 235 -52 r phi;
#X obj -132 -18 r v-distance;
#X floatatom -132 52 5 0 0 0 - - -, f 5;
#X floatatom 235 -8 5 0 0 0 - - -, f 5;
#X floatatom 76 71 5 0 0 0 - - -, f 5;
#X obj -132 24 spigot;
#X obj -99 4 tgl 15 0 empty empty empty 17 7 0 10 -262144 -1 -1 1 1
;
#X obj 76 46 spigot;
#X obj 109 -3 tgl 15 0 empty empty empty 17 7 0 10 -262144 -1 -1 1
1;
#X obj 235 -30 spigot;
#X obj -17 -42 tgl 30 0 empty empty empty 17 7 0 10 -262144 -1 -1 1
1;
#X text -13 427 \$1=start-pos;
#X text -13 444 \$2=dis;
#X text -14 408 [k_aline2];
#X text 99 429 \$1=start-pos;
#X text 98 449 \$2=dis;
#X text 97 408 [k_pos];
#X obj 76 144 t f f f f f f;
#X obj 151 170 v \$0-theta;
#X obj 323 64 v \$0-phi;
#X obj 235 64 t f f f f f;
#X obj 136 200 s \$0-theta-2;
#X obj 282 131 s \$0-phi-2;
#N canvas 517 45 707 726 click-point 0;
#X floatatom 154 25 5 0 0 0 - - -, f 5;
#X obj 345 81 / 8;
#X obj 154 70 / 4;
#X obj 223 0 > 0;
#X obj 223 26 sel 0 1;
#X obj 395 198 > 0;
#X obj 395 224 sel 0 1;
#X obj 223 54 v \$0-phi;
#X obj 282 55 v \$0-phi;
#X obj 395 252 v \$0-theta;
#X obj 450 192 v \$0-theta;
#X obj 281 86 + 90;
#X obj 223 85 + 270;
#X obj 450 223 - 90;
#X floatatom 223 111 5 0 0 0 - - -, f 5;
#X floatatom 395 299 5 0 0 0 - - -, f 5;
#X floatatom 182 227 5 0 0 0 dis - -, f 5;
#X floatatom 154 118 5 0 0 0 - - -, f 5;
#X obj 154 47 abs;
#X obj 395 273 + 90;
#X obj 157 151 inlet;
#X obj 104 303 gemhead;
#X obj 104 334 color 0 1 0;
#X obj 104 383 translateXYZ;
#X obj 145 354 unpack f f f;
#X obj 345 53 abs;
#X obj 386 27 r x_size;
#X floatatom 386 52 5 0 0 0 - - -, f 5;
#X floatatom 395 173 5 0 0 0 - - -, f 5;
#X floatatom 345 30 5 0 0 0 - - -, f 5;
#X obj 154 94 * 1.5;
#X obj 207 152 r \$0-theta-2;
#N canvas 519 141 921 674 write 0;
#X obj 94 448 list;
#X obj 173 450 list;
#X obj 260 442 list;
#X obj 551 493 list;
#X obj 542 534 unpack f f f;
#X obj 654 394 + 1;
#X obj 491 340 t b b;
#X obj 491 365 t b b b b;
#X obj 142 239 inlet;
#X obj 195 239 inlet;
#X obj 251 240 inlet;
#X obj 304 240 inlet;
#X obj 626 395 f 0;
#X obj 683 393 % 20;
#X obj 612 556 tabwrite \$0-z1;
#X obj 573 592 tabwrite \$0-y1;
#X obj 527 632 tabwrite \$0-x1;
#X obj 365 522 unpack f f f;
#X obj 192 517 unpack f f f;
#X obj 16 514 unpack f f f;
#X obj 1 612 tabwrite \$0-x4;
#X obj 47 572 tabwrite \$0-y4;
#X obj 86 536 tabwrite \$0-z4;
#X obj 177 615 tabwrite \$0-x3;
#X obj 223 575 tabwrite \$0-y3;
#X obj 262 539 tabwrite \$0-z3;
#X obj 350 620 tabwrite \$0-x2;
#X obj 396 580 tabwrite \$0-y2;
#X obj 435 544 tabwrite \$0-z2;
#X obj 659 224 inlet;
#X obj 675 447 s todrag;
#X obj 675 421 + 1;
#X obj 641 359 r toclick;
#X connect 0 0 19 0;
#X connect 1 0 18 0;
#X connect 2 0 17 0;
#X connect 3 0 4 0;
#X connect 4 0 16 0;
#X connect 4 1 15 0;
#X connect 4 2 14 0;
#X connect 5 0 13 0;
#X connect 6 0 7 0;
#X connect 6 1 12 0;
#X connect 7 0 0 0;
#X connect 7 1 1 0;
#X connect 7 2 2 0;
#X connect 7 3 3 0;
#X connect 8 0 0 1;
#X connect 9 0 1 1;
#X connect 10 0 2 1;
#X connect 11 0 3 1;
#X connect 12 0 5 0;
#X connect 12 0 14 1;
#X connect 12 0 15 1;
#X connect 12 0 16 1;
#X connect 12 0 28 1;
#X connect 12 0 27 1;
#X connect 12 0 26 1;
#X connect 12 0 25 1;
#X connect 12 0 24 1;
#X connect 12 0 23 1;
#X connect 12 0 22 1;
#X connect 12 0 21 1;
#X connect 12 0 20 1;
#X connect 12 0 31 0;
#X connect 13 0 12 1;
#X connect 17 0 26 0;
#X connect 17 1 27 0;
#X connect 17 2 28 0;
#X connect 18 0 23 0;
#X connect 18 1 24 0;
#X connect 18 2 25 0;
#X connect 19 0 20 0;
#X connect 19 1 21 0;
#X connect 19 2 22 0;
#X connect 29 0 6 0;
#X connect 31 0 30 0;
#X connect 32 0 12 1;
#X restore 508 117 pd write;
#X obj 182 -13 t f f;
#X obj 345 -6 t f f;
#X obj 345 -84 r mouseX;
#X obj 182 -93 r mouseY;
#X obj 345 -58 v \$0-click_x;
#X obj 182 -64 v \$0-click_y;
#X obj 412 -220 tgl 15 0 empty empty empty 17 7 0 10 -262144 -1 -1
0 1;
#X obj 412 -247 r mouseleft3;
#X obj 412 -137 t b b b;
#X obj 476 -226 r hid;
#X obj 412 -185 spigot;
#X obj 522 -92 sel 1;
#X obj 507 -28 f;
#X obj 534 -28 + 1;
#X obj 565 -28 % 4;
#X obj 507 -4 + 1;
#X obj 412 -159 sel 1;
#X floatatom 507 23 5 0 0 0 - - -, f 5;
#X msg 522 -66 0;
#X obj 508 51 gate 4;
#X text 603 72 1;
#X text 636 74 2;
#X text 639 116 3;
#X text 601 116 4;
#X obj 601 92 bng 15 250 50 0 empty empty empty 17 7 0 10 -262144 -1
-1;
#X obj 635 92 bng 15 250 50 0 empty empty empty 17 7 0 10 -262144 -1
-1;
#X obj 635 132 bng 15 250 50 0 empty empty empty 17 7 0 10 -262144
-1 -1;
#X obj 601 131 bng 15 250 50 0 empty empty empty 17 7 0 10 -262144
-1 -1;
#X obj 104 415 sphere 0.02;
#X obj 475 -111 tgl 15 0 empty empty empty 17 7 0 10 -262144 -1 -1
0 1;
#X obj 157 182 k_pos 0 0 0 0;
#X obj 157 260 k_pos 0 0 0 0;
#X obj 476 -206 t a a;
#X msg 553 169 0;
#X msg 433 -74 1;
#X obj 80 213 loadbang;
#X msg 80 242 0;
#X floatatom 182 -39 5 0 0 0 - - -, f 5;
#X floatatom 345 -34 5 0 0 0 - - -, f 5;
#X obj 20 189 cnv 10 10 10 empty empty 置中於x軸的y軸位置 0
0 0 14 -262144 -66577 0;
#X obj 345 133 * 2.25;
#X obj 399 90 r multi_x;
#X obj 476 -134 route key_145;
#X obj 553 88 sel 0;
#X obj 518 -171 PRINT;
#X connect 0 0 18 0;
#X connect 1 0 73 0;
#X connect 2 0 30 0;
#X connect 3 0 4 0;
#X connect 4 0 7 0;
#X connect 4 1 8 0;
#X connect 5 0 6 0;
#X connect 6 0 9 0;
#X connect 6 1 10 0;
#X connect 7 0 12 0;
#X connect 8 0 11 0;
#X connect 9 0 19 0;
#X connect 10 0 13 0;
#X connect 11 0 14 0;
#X connect 12 0 14 0;
#X connect 13 0 15 0;
#X connect 14 0 63 3;
#X connect 15 0 64 2;
#X connect 16 0 64 1;
#X connect 17 0 63 1;
#X connect 18 0 2 0;
#X connect 19 0 15 0;
#X connect 20 0 63 0;
#X connect 21 0 22 0;
#X connect 22 0 23 0;
#X connect 23 0 61 0;
#X connect 24 0 23 1;
#X connect 24 1 23 2;
#X connect 24 2 23 3;
#X connect 25 0 1 0;
#X connect 26 0 27 0;
#X connect 27 0 1 1;
#X connect 28 0 5 0;
#X connect 29 0 25 0;
#X connect 30 0 17 0;
#X connect 31 0 63 2;
#X connect 33 0 0 0;
#X connect 33 1 3 0;
#X connect 34 0 29 0;
#X connect 34 1 28 0;
#X connect 35 0 37 0;
#X connect 36 0 38 0;
#X connect 37 0 71 0;
#X connect 38 0 70 0;
#X connect 39 0 43 0;
#X connect 40 0 39 0;
#X connect 41 0 45 0;
#X connect 41 1 37 0;
#X connect 41 2 38 0;
#X connect 41 2 67 0;
#X connect 42 0 65 0;
#X connect 43 0 49 0;
#X connect 44 0 51 0;
#X connect 45 0 46 0;
#X connect 45 0 48 0;
#X connect 46 0 47 0;
#X connect 47 0 45 1;
#X connect 48 0 50 0;
#X connect 49 0 41 0;
#X connect 50 0 52 0;
#X connect 51 0 45 1;
#X connect 52 0 32 0;
#X connect 52 1 32 1;
#X connect 52 2 32 2;
#X connect 52 3 32 3;
#X connect 57 0 58 0;
#X connect 58 0 59 0;
#X connect 59 0 60 0;
#X connect 62 0 44 0;
#X connect 62 0 43 1;
#X connect 62 0 76 0;
#X connect 63 0 64 0;
#X connect 64 0 52 1;
#X connect 64 0 24 0;
#X connect 65 0 75 0;
#X connect 65 1 77 0;
#X connect 66 0 21 0;
#X connect 67 0 21 0;
#X connect 68 0 69 0;
#X connect 69 0 21 0;
#X connect 70 0 33 0;
#X connect 71 0 34 0;
#X connect 73 0 16 0;
#X connect 74 0 73 1;
#X connect 75 0 62 0;
#X connect 76 0 32 4;
#X connect 76 0 66 0;
#X restore 57 243 pd click-point;
#X obj -17 -65 loadbang;
#X obj 10 121 r viewc;
#X msg 10 152 \$4 \$5 \$6;
#X floatatom -132 99 5 0 0 0 - - -, f 5;
#X obj -132 75 - 1.5;
#X obj 422 187 s phi;
#X obj 378 254 s theta;
#X obj 383 78 k_angle;
#X msg 377 18 \$1 \$2 \$3;
#X msg 396 44 \$4 \$5 \$6;
#X floatatom 378 160 5 0 0 0 - - -, f 5;
#X floatatom 422 165 5 0 0 0 - - -, f 5;
#X obj 378 206 expr 90-$f1;
#X obj 377 -10 t a a a;
#X floatatom 378 233 5 0 0 0 - - -, f 5;
#X obj 376 -33 r viewcin;
#X msg 235 14 \$1 10;
#X msg 76 94 \$1 10;
#X obj 10 216 t a a a a a;
#X text -13 490 \$5=showORhide;
#X text -13 474 \$4=phi;
#X text -13 460 \$3=theta;
#X obj 250 206 s \$0-phi-5;
#X obj 116 297 r \$0-phi-5;
#X obj 266 231 s \$0-phi-4;
#X obj 78 317 r \$0-phi-4;
#N canvas 966 398 450 300 centerPoint============== 0;
#X obj 116 87 gemhead;
#X obj 116 120 translateXYZ;
#X obj 116 146 sphere 0.03 30;
#X obj 174 84 unpack f f f;
#X obj 114 47 inlet;
#X connect 1 0 2 0;
#X connect 3 0 1 1;
#X connect 3 1 1 2;
#X connect 3 2 1 3;
#X connect 4 0 3 0;
#X restore 73 266 pd centerPoint==============;
#X obj 10 189 k_pos 0 0 0 1;
#X obj -132 138 s center_dis;
#X obj -126 314 loadbang;
#X obj -126 370 f \$0;
#X obj -126 335 bng 30 250 50 0 empty empty empty 17 7 0 10 -258113
-1 -1;
#X msg -126 393 \; \$1-x1 const 0 \; \$1-x2 const 0 \; \$1-x3 const
0 \; \$1-x4 const 0 \; \$1-y1 const 0 \; \$1-y2 const 0 \; \$1-y3 const
0 \; \$1-y4 const 0 \; \$1-z1 const 0 \; \$1-z2 const 0 \; \$1-z3 const
0 \; \$1-z4 const 0 \;;
#X text 98 470 \$3=theta;
#X text 98 489 \$4=phi;
#X obj 74 409 bng 8 250 50 0 empty empty empty 17 7 0 10 -262144 -1
-1;
#X obj 74 510 bng 8 250 50 0 empty empty empty 17 7 0 10 -262144 -1
-1;
#N canvas 502 74 787 487 center-projecr===================== 0;
#X floatatom 398 129 5 0 0 0 - - -, f 5;
#X obj 398 107 - 90;
#X floatatom 235 279 5 0 0 0 - - -, f 5;
#X obj 235 256 expr $f1+180;
#X text 108 220 right down;
#X text 81 359 left down;
#X obj 207 200 t a a;
#X obj -41 188 t a a;
#X obj 235 299 t f f;
#X text 335 167 up;
#X text 250 137 down;
#X obj -41 394 k_4face 0 0 0 0;
#X text 308 206 right up;
#X msg 91 402 -0.13 -0.05 -0.67;
#X msg 318 360 -0.11 0.24 -0.63;
#X text 333 329 left up;
#X msg 345 249 -0.46 0.24 -0.44;
#X msg 97 246 -0.48 -0.05 -0.48;
#X obj 398 150 t f f f;
#X text 511 346 down;
#X obj 516 329 bng 15 250 50 0 empty empty empty 17 7 0 10 -262144
-1 -1;
#X obj 519 259 bng 15 250 50 0 empty empty empty 17 7 0 10 -262144
-1 -1;
#X obj 559 329 bng 15 250 50 0 empty empty empty 17 7 0 10 -262144
-1 -1;
#X obj 562 259 bng 15 250 50 0 empty empty empty 17 7 0 10 -262144
-1 -1;
#X obj 463 331 bng 15 250 50 0 empty empty empty 17 7 0 10 -262144
-1 -1;
#X obj 466 261 bng 15 250 50 0 empty empty empty 17 7 0 10 -262144
-1 -1;
#X text 519 235 up;
#X text 562 237 right up;
#X text 446 239 left up;
#X text 556 349 right down;
#X text 440 351 left down;
#X text 435 106 right-90;
#X obj 359 58 r \$0-theta-2;
#X obj 359 82 t f f f;
#X obj 121 118 t a a;
#X obj 294 129 r \$0-phi-5;
#X obj 209 115 r \$0-phi-4;
#X obj 121 93 inlet;
#X obj 122 139 k_aline2 0.15 45 300 1;
#X obj 207 171 k_aline2 0.15 45 120 1;
#X obj -14 220 k_aline2 0.2 -45 0 1;
#X obj 234 228 k_aline2 0.2 -45 0 1;
#X obj 207 330 k_aline2 0.2 135 0 1;
#X obj -41 359 k_aline2 0.2 135 0 1;
#X obj -125 248 gemhead;
#X obj -125 276 pix_texture;
#X obj -62 245 r face_tex;
#X obj -125 337 alpha 1;
#X obj -125 309 colorRGB 1 1 1 0.5;
#X msg -175 315 auto 1;
#X obj -175 294 loadbang;
#X connect 0 0 18 0;
#X connect 1 0 0 0;
#X connect 2 0 8 0;
#X connect 3 0 2 0;
#X connect 6 0 42 0;
#X connect 6 1 41 0;
#X connect 7 0 43 0;
#X connect 7 1 40 0;
#X connect 8 0 43 2;
#X connect 8 1 42 2;
#X connect 18 0 40 2;
#X connect 18 1 41 2;
#X connect 18 2 3 0;
#X connect 20 0 22 0;
#X connect 21 0 20 0;
#X connect 21 0 23 0;
#X connect 23 0 22 0;
#X connect 24 0 20 0;
#X connect 25 0 24 0;
#X connect 25 0 21 0;
#X connect 32 0 33 0;
#X connect 33 0 38 2;
#X connect 33 1 39 2;
#X connect 33 2 1 0;
#X connect 34 0 38 0;
#X connect 34 1 39 0;
#X connect 35 0 39 3;
#X connect 36 0 38 3;
#X connect 37 0 34 0;
#X connect 38 0 7 0;
#X connect 39 0 6 0;
#X connect 40 0 11 2;
#X connect 40 1 17 0;
#X connect 41 0 11 3;
#X connect 41 1 16 0;
#X connect 42 0 11 4;
#X connect 42 1 14 0;
#X connect 43 0 11 1;
#X connect 43 1 13 0;
#X connect 44 0 45 0;
#X connect 45 0 48 0;
#X connect 46 0 45 1;
#X connect 47 0 11 0;
#X connect 48 0 47 0;
#X connect 49 0 47 0;
#X connect 50 0 49 0;
#X restore 10 368 pd center-projecr=====================;
#X obj 264 379 s multi_x;
#X text 217 452 400 400 = 1_1.5;
#X text 218 473 600 400 = 1.5_2.25;
#X obj 264 262 r buffer-xy;
#X obj 264 286 /;
#X floatatom 264 310 5 0 0 0 - - -, f 5;
#X obj 264 335 * 1.5;
#X floatatom 264 356 5 0 0 0 - - -, f 5;
#X text 217 409 **left+clickMode=clickpoint;
#X text 216 429 **right+dragMode=dragplane;
#N canvas 400 40 923 722 drag-plane 0;
#X floatatom 182 48 5 0 0 0 - - -, f 5;
#X obj 389 80 / 8;
#X obj 182 93 / 4;
#X obj 232 30 > 0;
#X obj 232 56 sel 0 1;
#X obj 463 168 > 0;
#X obj 463 194 sel 0 1;
#X obj 232 84 v \$0-phi;
#X obj 291 85 v \$0-phi;
#X obj 463 222 v \$0-theta;
#X obj 535 217 v \$0-theta;
#X obj 291 109 + 90;
#X obj 232 115 + 270;
#X obj 535 248 - 90;
#X floatatom 232 138 5 0 0 0 - - -, f 5;
#X floatatom 463 276 5 0 0 0 - - -, f 5;
#X floatatom 389 165 5 0 0 0 - - -, f 5;
#X floatatom 182 141 5 0 0 0 - - -, f 5;
#X obj 389 2 r tx;
#X obj 182 70 abs;
#X obj 182 24 r ty;
#X obj 463 243 + 90;
#X obj 209 476 r \$0-sx;
#X obj 182 554 r \$0-sx;
#X obj 410 534 r \$0-sx;
#X obj 437 471 r \$0-sx;
#X obj 284 362 r \$0-theta-2;
#X obj 284 463 + 180;
#X obj 182 386 r \$0-sy;
#X obj 410 373 r \$0-sy;
#X obj 157 439 t a a;
#X obj 385 440 t a a;
#X obj 157 355 t a a;
#X obj 232 345 inlet;
#X obj 460 359 inlet;
#X obj 77 119 inlet;
#X obj 284 397 - 90;
#X obj 435 334 r \$0-theta-2;
#X obj 207 319 r \$0-theta-2;
#X obj 389 52 abs;
#X obj 430 26 r x_size;
#X floatatom 430 51 5 0 0 0 - - -, f 5;
#X floatatom 463 143 5 0 0 0 - - -, f 5;
#X floatatom 232 7 5 0 0 0 - - -, f 5;
#X floatatom 389 29 5 0 0 0 - - -, f 5;
#X obj 182 117 * 1.5;
#X obj 232 -17 r ty;
#X obj 463 117 r tx;
#X obj 207 161 r \$0-theta-2;
#X obj 583 355 gemhead;
#X obj 583 386 repeat 20;
#X obj 604 556 f;
#X obj 634 556 + 1;
#X obj 664 555 % 20;
#X obj 583 532 separator;
#X obj 583 622 polygon 4 3 2 1;
#X obj 583 500 pix_texture;
#X obj 646 476 r face_tex;
#X obj 583 450 pix_separator;
#N canvas 81 143 976 530 read===== 0;
#X obj 320 37 inlet;
#X obj 167 125 t f f f;
#X obj 169 240 pack f f f;
#X obj 169 277 outlet;
#X obj 294 129 t f f f;
#X obj 291 244 pack f f f;
#X obj 291 281 outlet;
#X obj 411 122 t f f f;
#X obj 408 237 pack f f f;
#X obj 408 274 outlet;
#X obj 539 125 t f f f;
#X obj 536 240 pack f f f;
#X obj 536 277 outlet;
#X obj 164 155 tabread \$0-x1;
#X obj 187 183 tabread \$0-y1;
#X obj 207 209 tabread \$0-z1;
#X obj 295 159 tabread \$0-x2;
#X obj 308 188 tabread \$0-y2;
#X obj 328 213 tabread \$0-z2;
#X obj 411 152 tabread \$0-x3;
#X obj 425 181 tabread \$0-y3;
#X obj 446 206 tabread \$0-z3;
#X obj 539 155 tabread \$0-x4;
#X obj 554 184 tabread \$0-y4;
#X obj 574 209 tabread \$0-z4;
#X obj 320 65 t f f f f f;
#X connect 0 0 25 0;
#X connect 1 0 13 0;
#X connect 1 1 14 0;
#X connect 1 2 15 0;
#X connect 2 0 3 0;
#X connect 4 0 16 0;
#X connect 4 1 17 0;
#X connect 4 2 18 0;
#X connect 5 0 6 0;
#X connect 7 0 19 0;
#X connect 7 1 20 0;
#X connect 7 2 21 0;
#X connect 8 0 9 0;
#X connect 10 0 22 0;
#X connect 10 1 23 0;
#X connect 10 2 24 0;
#X connect 11 0 12 0;
#X connect 13 0 2 0;
#X connect 14 0 2 1;
#X connect 15 0 2 2;
#X connect 16 0 5 0;
#X connect 17 0 5 1;
#X connect 18 0 5 2;
#X connect 19 0 8 0;
#X connect 20 0 8 1;
#X connect 21 0 8 2;
#X connect 22 0 11 0;
#X connect 23 0 11 1;
#X connect 24 0 11 2;
#X connect 25 0 1 0;
#X connect 25 1 4 0;
#X connect 25 2 7 0;
#X connect 25 3 10 0;
#X restore 604 579 pd read=====;
#X obj 583 416 t a b;
#X obj 389 132 * 3;
#N canvas 307 495 921 674 write---------------------- 0;
#X obj 492 311 sel 0;
#X obj 492 229 tgl 15 0 empty empty empty 17 7 0 10 -262144 -1 -1 0
1;
#X obj 492 206 r mouseleft;
#X obj 94 448 list;
#X obj 173 450 list;
#X obj 260 442 list;
#X obj 551 493 list;
#X obj 542 534 unpack f f f;
#X obj 729 391 + 1;
#X obj 492 335 t b b;
#X obj 491 365 t b b b b;
#X obj 142 239 inlet;
#X obj 195 239 inlet;
#X obj 75 241 inlet;
#X obj 29 241 inlet;
#X obj 701 392 f 0;
#X obj 758 390 % 20;
#X obj 666 124 table \$0-y1 20;
#X obj 667 98 table \$0-x1 20;
#X obj 666 153 table \$0-z1 20;
#X obj 666 186 table \$0-x2 20;
#X obj 665 211 table \$0-y2 20;
#X obj 665 241 table \$0-z2 20;
#X obj 764 98 table \$0-x3 20;
#X obj 763 124 table \$0-y3 20;
#X obj 763 153 table \$0-z3 20;
#X obj 763 186 table \$0-x4 20;
#X obj 762 212 table \$0-y4 20;
#X obj 762 241 table \$0-z4 20;
#X obj 612 556 tabwrite \$0-z1;
#X obj 573 592 tabwrite \$0-y1;
#X obj 527 632 tabwrite \$0-x1;
#X obj 365 522 unpack f f f;
#X obj 192 517 unpack f f f;
#X obj 16 514 unpack f f f;
#X obj 1 612 tabwrite \$0-x4;
#X obj 47 572 tabwrite \$0-y4;
#X obj 86 536 tabwrite \$0-z4;
#X obj 177 615 tabwrite \$0-x3;
#X obj 223 575 tabwrite \$0-y3;
#X obj 262 539 tabwrite \$0-z3;
#X obj 350 620 tabwrite \$0-x2;
#X obj 396 580 tabwrite \$0-y2;
#X obj 435 544 tabwrite \$0-z2;
#X obj 717 427 + 1;
#X obj 716 357 r todrag;
#X obj 717 453 s toclick;
#X obj 525 133 r hid;
#X obj 492 270 spigot;
#X obj 525 181 tgl 15 0 empty empty empty 17 7 0 10 -262144 -1 -1 0
1;
#X obj 525 155 route key_144;
#X connect 0 0 9 0;
#X connect 1 0 48 0;
#X connect 2 0 1 0;
#X connect 3 0 34 0;
#X connect 4 0 33 0;
#X connect 5 0 32 0;
#X connect 6 0 7 0;
#X connect 7 0 31 0;
#X connect 7 1 30 0;
#X connect 7 2 29 0;
#X connect 8 0 16 0;
#X connect 9 0 10 0;
#X connect 9 1 15 0;
#X connect 10 0 3 0;
#X connect 10 1 4 0;
#X connect 10 2 5 0;
#X connect 10 3 6 0;
#X connect 11 0 3 1;
#X connect 12 0 4 1;
#X connect 13 0 5 1;
#X connect 14 0 6 1;
#X connect 15 0 8 0;
#X connect 15 0 29 1;
#X connect 15 0 30 1;
#X connect 15 0 31 1;
#X connect 15 0 43 1;
#X connect 15 0 42 1;
#X connect 15 0 41 1;
#X connect 15 0 40 1;
#X connect 15 0 39 1;
#X connect 15 0 38 1;
#X connect 15 0 37 1;
#X connect 15 0 36 1;
#X connect 15 0 35 1;
#X connect 15 0 44 0;
#X connect 16 0 15 1;
#X connect 32 0 41 0;
#X connect 32 1 42 0;
#X connect 32 2 43 0;
#X connect 33 0 38 0;
#X connect 33 1 39 0;
#X connect 33 2 40 0;
#X connect 34 0 35 0;
#X connect 34 1 36 0;
#X connect 34 2 37 0;
#X connect 44 0 46 0;
#X connect 45 0 15 1;
#X connect 47 0 50 0;
#X connect 48 0 0 0;
#X connect 49 0 48 1;
#X connect 50 0 49 0;
#X restore 157 612 pd write----------------------;
#X obj 284 492 t f f;
#X obj 284 432 t f f f;
#X obj 157 182 k_pos 0 0 0 0;
#X obj 157 290 k_pos 0 0 0 0;
#X obj 184 503 k_pos 0 0 0 0;
#X obj 412 494 k_pos 0 0 0 0;
#X obj 157 580 k_pos 0 0 0 0;
#X obj 385 562 k_pos 0 0 0 0;
#X obj 385 400 k_pos 0 0 0 0;
#X obj 157 410 k_pos 0 0 0 0;
#X obj 617 89 r sx;
#X obj 735 90 r sy;
#X floatatom 617 110 5 0 0 0 width - -, f 5;
#X floatatom 735 115 5 0 0 0 hight - -, f 5;
#X obj 735 163 * 1.5;
#X obj 735 140 / 4;
#X obj 650 51 r x_size;
#X floatatom 650 76 5 0 0 0 - - -, f 5;
#X floatatom 617 184 5 0 0 0 - - -, f 5;
#X floatatom 735 191 5 0 0 0 - - -, f 5;
#X obj 617 214 s \$0-sx;
#X obj 735 216 s \$0-sy;
#X obj 617 135 / 5.33;
#X obj 663 158 r multi_x;
#X obj 617 159 * 2.25;
#X obj 417 103 r multi_x;
#X connect 0 0 19 0;
#X connect 1 0 61 0;
#X connect 2 0 45 0;
#X connect 3 0 4 0;
#X connect 4 0 7 0;
#X connect 4 1 8 0;
#X connect 5 0 6 0;
#X connect 6 0 9 0;
#X connect 6 1 10 0;
#X connect 7 0 12 0;
#X connect 8 0 11 0;
#X connect 9 0 21 0;
#X connect 10 0 13 0;
#X connect 11 0 14 0;
#X connect 12 0 14 0;
#X connect 13 0 15 0;
#X connect 14 0 65 3;
#X connect 15 0 66 2;
#X connect 16 0 66 1;
#X connect 17 0 65 1;
#X connect 18 0 44 0;
#X connect 19 0 2 0;
#X connect 20 0 0 0;
#X connect 21 0 15 0;
#X connect 22 0 67 1;
#X connect 23 0 69 1;
#X connect 24 0 70 1;
#X connect 25 0 68 1;
#X connect 26 0 36 0;
#X connect 27 0 63 0;
#X connect 28 0 72 1;
#X connect 29 0 71 1;
#X connect 30 0 69 0;
#X connect 30 1 67 0;
#X connect 31 0 70 0;
#X connect 31 1 68 0;
#X connect 32 0 72 0;
#X connect 32 1 71 0;
#X connect 33 0 72 3;
#X connect 34 0 71 3;
#X connect 35 0 65 0;
#X connect 36 0 64 0;
#X connect 37 0 71 2;
#X connect 38 0 72 2;
#X connect 39 0 1 0;
#X connect 40 0 41 0;
#X connect 41 0 1 1;
#X connect 42 0 5 0;
#X connect 43 0 3 0;
#X connect 44 0 39 0;
#X connect 45 0 17 0;
#X connect 46 0 43 0;
#X connect 47 0 42 0;
#X connect 48 0 65 2;
#X connect 49 0 50 0;
#X connect 50 0 60 0;
#X connect 51 0 52 0;
#X connect 51 0 59 0;
#X connect 52 0 53 0;
#X connect 53 0 51 1;
#X connect 54 0 55 0;
#X connect 56 0 54 0;
#X connect 57 0 56 1;
#X connect 58 0 56 0;
#X connect 59 0 55 1;
#X connect 59 1 55 2;
#X connect 59 2 55 3;
#X connect 59 3 55 4;
#X connect 60 0 58 0;
#X connect 60 1 51 0;
#X connect 61 0 16 0;
#X connect 63 0 69 2;
#X connect 63 1 70 2;
#X connect 64 0 27 0;
#X connect 64 1 67 2;
#X connect 64 2 68 2;
#X connect 65 0 66 0;
#X connect 66 0 32 0;
#X connect 67 0 62 1;
#X connect 68 0 62 3;
#X connect 69 0 62 0;
#X connect 70 0 62 2;
#X connect 71 0 31 0;
#X connect 72 0 30 0;
#X connect 73 0 75 0;
#X connect 74 0 76 0;
#X connect 75 0 85 0;
#X connect 76 0 78 0;
#X connect 77 0 82 0;
#X connect 78 0 77 0;
#X connect 79 0 80 0;
#X connect 80 0 85 1;
#X connect 81 0 83 0;
#X connect 82 0 84 0;
#X connect 85 0 87 0;
#X connect 86 0 87 1;
#X connect 87 0 81 0;
#X connect 88 0 61 1;
#X restore 41 338 pd drag-plane;
#X connect 0 0 53 0;
#X connect 1 0 55 0;
#X connect 2 0 0 0;
#X connect 3 0 1 0;
#X connect 4 0 24 0;
#X connect 5 0 27 0;
#X connect 6 0 14 0;
#X connect 7 0 16 0;
#X connect 8 0 12 0;
#X connect 9 0 35 0;
#X connect 10 0 47 0;
#X connect 11 0 48 0;
#X connect 12 0 9 0;
#X connect 13 0 12 1;
#X connect 14 0 11 0;
#X connect 15 0 14 1;
#X connect 16 0 10 0;
#X connect 17 0 16 1;
#X connect 17 0 15 0;
#X connect 17 0 13 0;
#X connect 24 0 58 2;
#X connect 24 4 28 0;
#X connect 24 5 25 0;
#X connect 27 0 58 3;
#X connect 27 1 2 0;
#X connect 27 2 3 0;
#X connect 27 3 29 0;
#X connect 27 4 26 0;
#X connect 31 0 17 0;
#X connect 32 0 33 0;
#X connect 33 0 58 0;
#X connect 34 0 58 1;
#X connect 34 0 59 0;
#X connect 35 0 34 0;
#X connect 38 0 41 0;
#X connect 38 1 42 0;
#X connect 39 0 38 0;
#X connect 40 0 38 1;
#X connect 41 0 43 0;
#X connect 42 0 36 0;
#X connect 43 0 45 0;
#X connect 44 0 39 0;
#X connect 44 1 40 0;
#X connect 45 0 37 0;
#X connect 46 0 44 0;
#X connect 47 0 5 0;
#X connect 48 0 4 0;
#X connect 49 0 68 0;
#X connect 49 2 79 0;
#X connect 49 3 30 0;
#X connect 49 4 57 0;
#X connect 54 0 79 2;
#X connect 56 0 79 1;
#X connect 58 0 49 0;
#X connect 60 0 62 0;
#X connect 61 0 63 0;
#X connect 62 0 61 0;
#X connect 66 0 67 0;
#X connect 72 0 73 0;
#X connect 73 0 74 0;
#X connect 74 0 75 0;
#X connect 75 0 76 0;
#X connect 76 0 69 0;
#X restore 293 98 pd draw cube;
#N canvas 815 184 450 300 texture 0;
#X obj 151 131 s face_tex;
#X obj 70 101 gemframebuffer;
#X obj 70 15 gemhead 500;
#X obj 126 41 loadbang;
#X obj 70 156 translateXYZ 0 0 -4;
#X obj 70 246 square 4;
#X obj 70 220 pix_texture;
#X obj 70 185 pix_video;
#X msg 126 69 dimen 320 320 \, format RGBA \, color 0 0 1 1;
#X connect 1 0 4 0;
#X connect 1 1 0 0;
#X connect 2 0 1 0;
#X connect 3 0 8 0;
#X connect 4 0 7 0;
#X connect 6 0 5 0;
#X connect 7 0 6 0;
#X connect 8 0 1 0;
#X restore 293 119 pd texture;
#N canvas 832 197 499 512 click 0;
#X obj 19 134 gemhead;
#X obj 145 196 tgl 15 0 empty empty empty 17 7 0 10 -262144 -1 -1 1
1;
#X obj 19 194 sphere 0.2;
#X obj 118 132 t a a;
#X obj 19 164 translate 1 0 0 0;
#X obj 17 18 gemhead;
#X obj 143 80 tgl 15 0 empty empty empty 17 7 0 10 -262144 -1 -1 0
1;
#X obj 17 78 sphere 0.2;
#X obj 116 16 t a a;
#X obj 17 48 translate 1 0 0 0;
#X obj 19 256 gemhead;
#X obj 145 318 tgl 15 0 empty empty empty 17 7 0 10 -262144 -1 -1 0
1;
#X obj 19 316 sphere 0.2;
#X obj 118 254 t a a;
#X obj 19 286 translate 1 0 0 0;
#N canvas 0 22 450 300 ran 0;
#X obj 136 176 randomF 8;
#X obj 136 199 - 4;
#X obj 200 175 randomF 8;
#X obj 200 198 - 4;
#X obj 136 225 pack f f f;
#X obj 136 147 t b b b;
#X obj 264 173 randomF 8;
#X obj 264 196 - 4;
#X obj 136 249 outlet;
#X obj 136 115 loadbang;
#X connect 0 0 1 0;
#X connect 1 0 4 0;
#X connect 2 0 3 0;
#X connect 3 0 4 1;
#X connect 4 0 8 0;
#X connect 5 0 0 0;
#X connect 5 1 2 0;
#X connect 5 2 6 0;
#X connect 6 0 7 0;
#X connect 7 0 4 2;
#X connect 9 0 5 0;
#X restore 118 228 pd ran;
#X obj 145 276 k_target;
#X obj 143 38 k_target;
#X obj 145 154 k_target;
#N canvas 0 22 450 300 ran 0;
#X obj 136 176 randomF 8;
#X obj 136 199 - 4;
#X obj 200 175 randomF 8;
#X obj 200 198 - 4;
#X obj 136 225 pack f f f;
#X obj 136 147 t b b b;
#X obj 264 173 randomF 8;
#X obj 264 196 - 4;
#X obj 136 249 outlet;
#X obj 136 115 loadbang;
#X connect 0 0 1 0;
#X connect 1 0 4 0;
#X connect 2 0 3 0;
#X connect 3 0 4 1;
#X connect 4 0 8 0;
#X connect 5 0 0 0;
#X connect 5 1 2 0;
#X connect 5 2 6 0;
#X connect 6 0 7 0;
#X connect 7 0 4 2;
#X connect 9 0 5 0;
#X restore 117 108 pd ran;
#N canvas 0 22 450 300 ran 0;
#X obj 136 176 randomF 8;
#X obj 136 199 - 4;
#X obj 200 175 randomF 8;
#X obj 200 198 - 4;
#X obj 136 225 pack f f f;
#X obj 136 147 t b b b;
#X obj 264 173 randomF 8;
#X obj 264 196 - 4;
#X obj 136 249 outlet;
#X obj 136 115 loadbang;
#X connect 0 0 1 0;
#X connect 1 0 4 0;
#X connect 2 0 3 0;
#X connect 3 0 4 1;
#X connect 4 0 8 0;
#X connect 5 0 0 0;
#X connect 5 1 2 0;
#X connect 5 2 6 0;
#X connect 6 0 7 0;
#X connect 7 0 4 2;
#X connect 9 0 5 0;
#X restore 115 -7 pd ran;
#X connect 0 0 4 0;
#X connect 3 0 4 2;
#X connect 3 1 18 0;
#X connect 4 0 2 0;
#X connect 5 0 9 0;
#X connect 8 0 9 2;
#X connect 8 1 17 0;
#X connect 9 0 7 0;
#X connect 10 0 14 0;
#X connect 13 0 14 2;
#X connect 13 1 16 0;
#X connect 14 0 12 0;
#X connect 15 0 13 0;
#X connect 16 0 11 0;
#X connect 17 0 6 0;
#X connect 18 0 1 0;
#X connect 19 0 3 0;
#X connect 20 0 8 0;
#X restore 366 53 pd click target;
