#N canvas 969 234 526 432 10;
#X obj 133 145 gemhead;
#X obj 152 355 polygon 4;
#X obj 204 268 inlet;
#X obj 246 267 inlet;
#X obj 289 267 inlet;
#X obj 331 266 inlet;
#X obj 133 173 pix_texture;
#X obj 196 142 r face_tex;
#X obj 133 234 alpha 1;
#X obj 133 206 colorRGB 1 1 1 0.5;
#X msg 83 212 auto 1;
#X obj 83 191 loadbang;
#X connect 0 0 6 0;
#X connect 2 0 1 1;
#X connect 3 0 1 2;
#X connect 4 0 1 3;
#X connect 5 0 1 4;
#X connect 6 0 9 0;
#X connect 7 0 6 1;
#X connect 8 0 1 0;
#X connect 9 0 8 0;
#X connect 10 0 8 0;
#X connect 11 0 10 0;
