#N canvas 719 150 814 519 10;
#X msg 39 45 create \, 1;
#X obj 39 75 gemwin;
#X msg 19 16 destroy;
#X obj 120 3 k_camera;
#X text 82 142 [k_aline2];
#X msg 396 321 1.87 0 0;
#X text 76 166 inlet1=start-pos;
#X text 78 186 inlet2=dis;
#X text 78 209 inlet3=theta;
#X text 80 233 inlet4=phi;
#X text 78 265 inlet5=showORhide;
#X text 57 186 \$1;
#X text 55 207 \$2;
#X text 55 236 \$3;
#X text 55 265 \$4;
#X obj 272 65 tgl 15 0 empty empty empty 17 7 0 10 -262144 -1 -1 1
1;
#X obj 272 37 loadbang;
#X obj 272 115 tgl 15 0 empty empty empty 17 7 0 10 -262144 -1 -1 1
1;
#X obj 272 135 sel 0 1;
#X obj 273 238 line;
#X obj 272 93 metro 2000;
#X msg 273 216 \$1 2000;
#X obj 396 343 unpack f f f;
#X msg 273 267 \$1 0 0;
#X msg 272 157 0;
#X msg 293 184 1;
#X obj 273 295 k_aLine2 1 0 0 1;
#X obj 232 363 k_aLine2 1 0 90 1;
#X obj 232 390 k_aLine2 1 180 0 1;
#X obj 232 416 k_aLine2 1 90 0 1;
#X obj 231 444 k_aLine2 0.5 90 90 1;
#X connect 0 0 1 0;
#X connect 2 0 1 0;
#X connect 3 0 1 0;
#X connect 5 0 22 0;
#X connect 15 0 20 0;
#X connect 16 0 15 0;
#X connect 17 0 18 0;
#X connect 18 0 24 0;
#X connect 18 1 25 0;
#X connect 19 0 23 0;
#X connect 20 0 17 0;
#X connect 21 0 19 0;
#X connect 23 0 26 0;
#X connect 24 0 21 0;
#X connect 25 0 21 0;
#X connect 26 0 27 0;
#X connect 26 1 5 0;
#X connect 27 0 28 0;
#X connect 28 0 29 0;
#X connect 29 0 30 0;
