#N canvas 524 149 839 581 10;
#X obj 244 102 gemhead;
#X obj 269 468 curve 2;
#X floatatom 423 70 5 0 0 0 theta - -, f 5;
#X obj 423 108 / 360;
#X msg 512 488 set \$1 \$2 \$3;
#X obj 423 49 loadbang;
#X floatatom 556 97 5 0 0 0 phi - -, f 5;
#X obj 556 125 / 360;
#X obj 556 66 loadbang;
#X obj 397 371 pack f f f;
#X floatatom 347 161 5 0 0 0 - - -, f 5;
#X obj 353 108 init \$1;
#X obj 467 105 init \$2;
#X obj 599 123 init \$3;
#X obj 98 454 translateXYZ 0 0 0;
#X obj 423 131 expr $f1*2*3.1415926;
#X obj 556 150 expr $f1*2*3.1415926;
#X obj 347 218 expr $f1*cos($f2)*cos($f3);
#X obj 433 246 expr $f1*sin($f2);
#X obj 512 287 expr $f1*sin($f2)*cos($f3);
#X obj 269 233 color 1 1 1;
#X obj 431 336 +;
#X obj 466 336 +;
#X obj 412 298 unpack f f f;
#X obj 733 196 init \$4;
#X obj 694 238 sel 0;
#X obj 308 415 list;
#X obj 172 342 list;
#X obj 197 317 t a a;
#X obj 347 189 t f f f;
#X obj 556 175 t f f f;
#X obj 423 156 t f f;
#X obj 98 480 sphere 0.02 6;
#X obj 244 127 t a a;
#X obj 272 151 separator;
#X obj 124 214 separator;
#X msg 694 261 0;
#X msg 726 302 1;
#X obj 397 336 +;
#X obj 511 442 expr int($f1*100)/100;
#X obj 512 466 pack f f f;
#X obj 537 422 expr int($f1*100)/100;
#X obj 580 400 expr int($f1*100)/100;
#X obj 512 512 outlet msg;
#X obj 329 469 outlet 3d_pos;
#X obj 98 405 color 0 1 0;
#X obj 197 289 inlet in-1;
#X obj 342 85 inlet in-2;
#X obj 468 83 inlet in-3;
#X obj 600 100 inlet in-4;
#X obj 694 166 inlet in-5;
#X text 45 -2 [k_aline2];
#X text 39 22 inlet1=start-pos;
#X text 41 42 inlet2=dis;
#X text 41 65 inlet3=theta;
#X text 43 89 inlet4=phi;
#X text 41 121 inlet5=showORhide;
#X text 20 42 \$1;
#X text 18 63 \$2;
#X text 18 92 \$3;
#X text 18 121 \$4;
#X obj 412 276 list;
#X obj 269 263 t a b b b b;
#X connect 0 0 33 0;
#X connect 2 0 3 0;
#X connect 3 0 15 0;
#X connect 4 0 43 0;
#X connect 5 0 2 0;
#X connect 6 0 7 0;
#X connect 7 0 16 0;
#X connect 8 0 6 0;
#X connect 9 0 26 1;
#X connect 10 0 29 0;
#X connect 11 0 10 0;
#X connect 12 0 2 0;
#X connect 13 0 6 0;
#X connect 14 0 32 0;
#X connect 15 0 31 0;
#X connect 16 0 30 0;
#X connect 17 0 38 0;
#X connect 18 0 21 0;
#X connect 19 0 22 0;
#X connect 20 0 62 0;
#X connect 21 0 9 1;
#X connect 21 0 14 2;
#X connect 21 0 41 0;
#X connect 22 0 9 2;
#X connect 22 0 14 3;
#X connect 22 0 42 0;
#X connect 23 0 38 1;
#X connect 23 1 21 1;
#X connect 23 2 22 1;
#X connect 24 0 25 0;
#X connect 25 0 36 0;
#X connect 25 1 37 0;
#X connect 26 0 1 2;
#X connect 26 0 44 0;
#X connect 27 0 1 1;
#X connect 28 0 27 1;
#X connect 28 1 61 1;
#X connect 29 0 17 0;
#X connect 29 1 18 0;
#X connect 29 2 19 0;
#X connect 30 0 17 2;
#X connect 30 1 18 1;
#X connect 30 2 19 2;
#X connect 31 0 17 1;
#X connect 31 1 19 1;
#X connect 33 0 35 0;
#X connect 33 1 34 0;
#X connect 34 0 20 0;
#X connect 35 0 45 0;
#X connect 36 0 0 0;
#X connect 37 0 0 0;
#X connect 38 0 9 0;
#X connect 38 0 14 1;
#X connect 38 0 39 0;
#X connect 39 0 40 0;
#X connect 40 0 4 0;
#X connect 41 0 40 1;
#X connect 42 0 40 2;
#X connect 45 0 14 0;
#X connect 46 0 28 0;
#X connect 47 0 10 0;
#X connect 48 0 2 0;
#X connect 49 0 6 0;
#X connect 50 0 25 0;
#X connect 61 0 23 0;
#X connect 62 0 1 0;
#X connect 62 1 27 0;
#X connect 62 2 26 0;
#X connect 62 3 10 0;
#X connect 62 4 61 0;
