#N canvas 619 206 821 523 10;
#X obj 191 416 curve 2;
#X floatatom 345 29 5 0 0 0 theta - -;
#X obj 345 56 / 360;
#X msg 339 392 set \$1 \$2 \$3;
#X obj 345 -3 loadbang;
#X floatatom 478 45 5 0 0 0 phi - -;
#X obj 478 73 / 360;
#X obj 478 14 loadbang;
#X obj 319 319 pack f f f;
#X floatatom 264 84 5 0 0 0 - - -;
#X obj 275 56 init \$1;
#X obj 389 53 init \$2;
#X obj 521 71 init \$3;
#X obj 20 402 translateXYZ 0 0 0;
#X obj 345 79 expr $f1*2*3.1415926;
#X obj 478 98 expr $f1*2*3.1415926;
#X obj 269 166 expr $f1*cos($f2)*cos($f3);
#X obj 353 203 expr $f1*sin($f2);
#X obj 434 235 expr $f1*sin($f2)*cos($f3);
#X obj 251 417 outlet signal;
#X obj 100 317 color 1 1 1;
#X obj 353 284 +;
#X obj 388 284 +;
#X obj 334 246 unpack f f f;
#X obj 339 416 outlet;
#X obj 264 33 inlet;
#X obj 390 31 inlet;
#X obj 522 48 inlet;
#X obj 616 186 sel 0;
#X obj 230 363 list;
#X obj 129 208 list;
#X obj 150 181 t a a;
#X obj 150 153 inlet;
#X obj 616 105 inlet;
#X obj 269 137 t f f f;
#X obj 478 123 t f f f;
#X obj 345 104 t f f;
#X obj 20 428 sphere 0.02 6;
#X obj 37 76 t a a;
#X obj 37 99 separator;
#X obj 64 124 separator;
#X msg 616 209 0;
#X msg 616 234 1;
#X obj 319 284 +;
#X obj 38 51 spigot;
#X obj 38 30 t a b;
#X obj 130 42 t b b b;
#X obj 37 -4 inlet;
#X obj 20 353 color 1 1 1;
#X msg 657 166 1;
#X obj 655 144 loadbang;
#X obj 257 463 loadbang;
#X msg 257 487 draw point \, res 5;
#X obj 146 515 GEMglPointSize 2;
#X connect 1 0 2 0;
#X connect 2 0 14 0;
#X connect 3 0 24 0;
#X connect 4 0 1 0;
#X connect 5 0 6 0;
#X connect 6 0 15 0;
#X connect 7 0 5 0;
#X connect 8 0 3 0;
#X connect 8 0 29 1;
#X connect 9 0 34 0;
#X connect 10 0 9 0;
#X connect 11 0 1 0;
#X connect 12 0 5 0;
#X connect 13 0 37 0;
#X connect 14 0 36 0;
#X connect 15 0 35 0;
#X connect 16 0 43 0;
#X connect 17 0 21 0;
#X connect 18 0 22 0;
#X connect 20 0 53 0;
#X connect 21 0 8 1;
#X connect 21 0 13 2;
#X connect 22 0 8 2;
#X connect 22 0 13 3;
#X connect 23 0 43 1;
#X connect 23 1 21 1;
#X connect 23 2 22 1;
#X connect 25 0 9 0;
#X connect 26 0 1 0;
#X connect 27 0 5 0;
#X connect 28 0 41 0;
#X connect 28 1 42 0;
#X connect 29 0 0 2;
#X connect 29 0 19 0;
#X connect 30 0 0 1;
#X connect 31 0 30 1;
#X connect 31 1 23 0;
#X connect 32 0 31 0;
#X connect 33 0 28 0;
#X connect 34 0 16 0;
#X connect 34 1 17 0;
#X connect 34 2 18 0;
#X connect 35 0 16 2;
#X connect 35 1 17 1;
#X connect 35 2 18 2;
#X connect 36 0 16 1;
#X connect 36 1 18 1;
#X connect 38 0 39 0;
#X connect 38 1 40 0;
#X connect 39 0 48 0;
#X connect 40 0 20 0;
#X connect 41 0 44 1;
#X connect 42 0 44 1;
#X connect 43 0 8 0;
#X connect 43 0 13 1;
#X connect 44 0 38 0;
#X connect 45 0 44 0;
#X connect 45 1 46 0;
#X connect 46 0 30 0;
#X connect 46 1 29 0;
#X connect 46 2 9 0;
#X connect 47 0 45 0;
#X connect 48 0 13 0;
#X connect 49 0 28 0;
#X connect 50 0 49 0;
#X connect 51 0 52 0;
#X connect 52 0 0 0;
#X connect 53 0 0 0;
