#N canvas 254 258 723 514 10;
#X obj 191 416 curve 2;
#X obj 345 56 / 360;
#X obj 478 73 / 360;
#X obj 319 319 pack f f f;
#X obj 191 211 t a b b b;
#X floatatom 269 89 5 0 0 0 - - -;
#X obj 20 402 translateXYZ 0 0 0;
#X obj 345 79 expr $f1*2*3.1415926;
#X obj 478 98 expr $f1*2*3.1415926;
#X obj 269 166 expr $f1*cos($f2)*cos($f3);
#X obj 353 203 expr $f1*sin($f2);
#X obj 434 235 expr $f1*sin($f2)*cos($f3);
#X obj 353 284 +;
#X obj 388 284 +;
#X obj 334 246 unpack f f f;
#X obj 269 53 inlet;
#X obj 230 363 list;
#X obj 208 274 list;
#X obj 100 155 t a a;
#X obj 100 127 inlet;
#X obj 269 137 t f f f;
#X obj 478 123 t f f f;
#X obj 345 104 t f f;
#X obj 191 142 separator;
#X obj 319 284 +;
#X obj 348 -33 inlet;
#X obj 478 -42 inlet;
#X obj 24 124 inlet;
#X obj 24 158 t a a a;
#X obj 317 364 outlet signal;
#X obj 20 451 outlet gem;
#X obj 478 -18 t b f;
#X obj 348 -9 t b f;
#X obj 321 23 bng 15 250 50 0 empty empty empty 17 7 0 10 -262144 -1
-1;
#X obj 209 26 t b b b;
#X obj 18 223 separator;
#X connect 1 0 7 0;
#X connect 2 0 8 0;
#X connect 3 0 16 1;
#X connect 3 0 29 0;
#X connect 4 0 0 0;
#X connect 4 1 17 0;
#X connect 4 2 16 0;
#X connect 4 3 5 0;
#X connect 5 0 20 0;
#X connect 6 0 30 0;
#X connect 7 0 22 0;
#X connect 8 0 21 0;
#X connect 9 0 24 0;
#X connect 10 0 12 0;
#X connect 11 0 13 0;
#X connect 12 0 3 1;
#X connect 12 0 6 2;
#X connect 13 0 3 2;
#X connect 13 0 6 3;
#X connect 14 0 24 1;
#X connect 14 1 12 1;
#X connect 14 2 13 1;
#X connect 15 0 5 0;
#X connect 16 0 0 2;
#X connect 17 0 0 1;
#X connect 18 0 17 1;
#X connect 18 1 14 0;
#X connect 19 0 18 0;
#X connect 20 0 9 0;
#X connect 20 1 10 0;
#X connect 20 2 11 0;
#X connect 21 0 9 2;
#X connect 21 1 10 1;
#X connect 21 2 11 2;
#X connect 22 0 9 1;
#X connect 22 1 11 1;
#X connect 23 0 4 0;
#X connect 24 0 3 0;
#X connect 24 0 6 1;
#X connect 25 0 32 0;
#X connect 26 0 31 0;
#X connect 27 0 28 0;
#X connect 28 0 35 0;
#X connect 28 1 23 0;
#X connect 31 0 33 0;
#X connect 31 1 1 0;
#X connect 32 0 33 0;
#X connect 32 1 2 0;
#X connect 33 0 34 0;
#X connect 34 0 17 0;
#X connect 34 1 16 0;
#X connect 34 2 5 0;
#X connect 35 0 6 0;
