#N canvas 735 245 723 514 10;
#X obj 345 56 / 360;
#X obj 478 73 / 360;
#X obj 319 319 pack f f f;
#X floatatom 269 89 5 0 0 0 - - -;
#X obj 345 79 expr $f1*2*3.1415926;
#X obj 478 98 expr $f1*2*3.1415926;
#X obj 269 166 expr $f1*cos($f2)*cos($f3);
#X obj 353 203 expr $f1*sin($f2);
#X obj 434 235 expr $f1*sin($f2)*cos($f3);
#X obj 353 284 +;
#X obj 388 284 +;
#X obj 334 246 unpack f f f;
#X obj 269 53 inlet;
#X obj 100 127 inlet;
#X obj 269 137 t f f f;
#X obj 478 123 t f f f;
#X obj 345 104 t f f;
#X obj 319 284 +;
#X obj 348 -33 inlet;
#X obj 478 -42 inlet;
#X obj 24 124 inlet;
#X obj 317 364 outlet signal;
#X obj 478 -18 t b f;
#X obj 348 -9 t b f;
#X obj 321 23 bng 15 250 50 0 empty empty empty 17 7 0 10 -262144 -1
-1;
#X obj 25 158 t b;
#X obj 100 155 t a;
#X connect 0 0 4 0;
#X connect 1 0 5 0;
#X connect 2 0 21 0;
#X connect 3 0 14 0;
#X connect 4 0 16 0;
#X connect 5 0 15 0;
#X connect 6 0 17 0;
#X connect 7 0 9 0;
#X connect 8 0 10 0;
#X connect 9 0 2 1;
#X connect 10 0 2 2;
#X connect 11 0 17 1;
#X connect 11 1 9 1;
#X connect 11 2 10 1;
#X connect 12 0 3 0;
#X connect 13 0 26 0;
#X connect 14 0 6 0;
#X connect 14 1 7 0;
#X connect 14 2 8 0;
#X connect 15 0 6 2;
#X connect 15 1 7 1;
#X connect 15 2 8 2;
#X connect 16 0 6 1;
#X connect 16 1 8 1;
#X connect 17 0 2 0;
#X connect 18 0 23 0;
#X connect 19 0 22 0;
#X connect 20 0 25 0;
#X connect 22 0 24 0;
#X connect 22 1 0 0;
#X connect 23 0 24 0;
#X connect 23 1 1 0;
#X connect 24 0 3 0;
#X connect 25 0 3 0;
#X connect 26 0 11 0;
