#N canvas 596 180 814 519 10;
#X msg 39 45 create \, 1;
#X obj 39 75 gemwin;
#X floatatom 322 114 5 0 0 0 distance - -;
#X floatatom 340 147 5 0 0 1 x-angle - -;
#X floatatom 357 174 5 0 0 1 z-angle - -;
#X msg 19 16 destroy;
#X obj 117 161 gemhead;
#X obj 117 200 translateXYZ 0 0 0;
#X obj 117 231 circle 0.05;
#X obj 184 160 unpack f f f;
#X obj 288 53 gemhead;
#X msg 184 101 0 0 0;
#X obj 364 39 loadbang;
#X msg 429 118 0;
#X obj 409 224 PRINT;
#X obj 281 277 gemhead;
#X obj 281 402 circle 0.2;
#X obj 206 327 loadbang;
#X msg 206 352 draw line;
#X obj 281 320 color 1 0 0;
#X obj 281 352 translateXYZ;
#X obj 384 318 unpack f f f;
#X msg 364 65 3;
#X obj 288 200 k_aLine 0 0 0 0;
#X msg 385 291 2.92311 0.674853 0;
#X obj 383 268 t b a;
#X msg 387 94 0;
#X connect 0 0 1 0;
#X connect 2 0 23 2;
#X connect 3 0 23 3;
#X connect 4 0 23 4;
#X connect 5 0 1 0;
#X connect 6 0 7 0;
#X connect 7 0 8 0;
#X connect 9 0 7 1;
#X connect 9 1 7 2;
#X connect 9 2 7 3;
#X connect 10 0 23 0;
#X connect 11 0 9 0;
#X connect 11 0 23 1;
#X connect 12 0 11 0;
#X connect 12 0 22 0;
#X connect 12 0 26 0;
#X connect 12 0 13 0;
#X connect 13 0 4 0;
#X connect 15 0 19 0;
#X connect 17 0 18 0;
#X connect 18 0 16 0;
#X connect 19 0 20 0;
#X connect 20 0 16 0;
#X connect 21 0 20 1;
#X connect 21 1 20 2;
#X connect 21 2 20 3;
#X connect 22 0 2 0;
#X connect 23 1 14 0;
#X connect 23 1 25 0;
#X connect 24 0 21 0;
#X connect 25 0 24 0;
#X connect 25 1 24 0;
#X connect 26 0 3 0;
