#N canvas 512 35 972 742 10;
#X obj 273 288 k_angle;
#X obj -115 162 cnv 15 100 60 empty empty empty 20 12 0 14 -195568
-66577 0;
#N canvas 0 22 450 300 gemwin 0;
#X obj 132 136 gemwin;
#X obj 67 89 outlet;
#X obj 67 10 inlet;
#X obj 67 41 route create;
#X msg 67 70 set destroy;
#X msg 142 68 set create;
#X msg 249 113 destroy;
#X msg 132 112 reset \, create \, 1;
#X connect 2 0 3 0;
#X connect 3 0 4 0;
#X connect 3 0 7 0;
#X connect 3 1 5 0;
#X connect 3 1 6 0;
#X connect 4 0 1 0;
#X connect 5 0 1 0;
#X connect 6 0 0 0;
#X connect 7 0 0 0;
#X restore -110 201 pd gemwin;
#X msg -110 182 destroy;
#X text -114 161 Create window:;
#X obj 33 246 gemhead;
#X obj 246 11 gemmouse 1 1;
#X obj 33 309 curve 2;
#X obj 246 47 expr ($f1*8)-4;
#X obj 263 69 expr ($f1*-8)+4;
#X floatatom 246 95 5 0 0 0 - - -;
#X floatatom 287 99 5 0 0 0 - - -;
#X obj 246 139 pack f f 0;
#X floatatom 273 377 5 0 0 0 x-z - -;
#X floatatom 312 393 5 0 0 0 x-y - -;
#X floatatom 351 373 5 0 0 0 dis - -;
#X obj 225 164 list;
#X obj 165 143 t b f;
#X obj 192 192 gate 2;
#X obj 192 170 + 1;
#X obj 39 161 invert;
#X floatatom -55 480 5 0 0 0 distance - -;
#X floatatom -37 513 5 0 0 1 x-angle - -;
#X floatatom -20 540 5 0 0 1 z-angle - -;
#X obj -89 419 gemhead;
#X obj -13 405 loadbang;
#X msg 52 484 0;
#X obj -89 566 k_aLine 0 0 0 0;
#X msg 10 460 0;
#X msg -13 431 1;
#X obj 294 233 t a a a a;
#X obj 192 231 t a a a a a;
#X obj 323 585 expr 90- abs($f1);
#X floatatom 322 609 5 0 0 0 - - -;
#X floatatom 166 583 5 0 0 0 distance - -;
#X floatatom 184 616 5 0 0 1 x-angle - -;
#X floatatom 201 643 5 0 0 1 z-angle - -;
#X obj 132 522 gemhead;
#X obj 208 508 loadbang;
#X msg 273 587 0;
#X obj 132 669 k_aLine 0 0 0 0;
#X msg 231 563 0;
#X msg 208 534 1;
#X obj 323 556 gate 2;
#X obj 296 444 > 0;
#X obj 368 439 > 0;
#X obj 296 475 expr if($f1+$f2==2 || $f1+$f2==0 \, 2 \, 1);
#X floatatom 297 497 5 0 0 0 - - -;
#X obj 361 494 f;
#X obj 266 416 t b f;
#X obj 370 611 expr 90+ abs($f1);
#X floatatom 361 519 5 0 0 0 - - -;
#X obj 315 416 t b f f;
#X connect 0 0 13 0;
#X connect 0 1 14 0;
#X connect 0 2 15 0;
#X connect 2 0 3 0;
#X connect 3 0 2 0;
#X connect 5 0 7 0;
#X connect 6 0 8 0;
#X connect 6 1 9 0;
#X connect 6 2 17 0;
#X connect 6 2 20 0;
#X connect 8 0 10 0;
#X connect 9 0 11 0;
#X connect 10 0 12 0;
#X connect 11 0 12 1;
#X connect 12 0 16 1;
#X connect 13 0 49 0;
#X connect 14 0 52 0;
#X connect 16 0 18 1;
#X connect 17 0 16 0;
#X connect 17 1 19 0;
#X connect 18 0 7 2;
#X connect 18 0 31 0;
#X connect 18 1 7 1;
#X connect 18 1 30 0;
#X connect 19 0 18 0;
#X connect 20 0 5 0;
#X connect 20 0 24 0;
#X connect 20 0 37 0;
#X connect 21 0 27 2;
#X connect 22 0 27 3;
#X connect 23 0 27 4;
#X connect 24 0 27 0;
#X connect 25 0 29 0;
#X connect 25 0 28 0;
#X connect 25 0 26 0;
#X connect 26 0 23 0;
#X connect 28 0 22 0;
#X connect 29 0 21 0;
#X connect 30 1 40 1;
#X connect 30 2 0 1;
#X connect 31 3 0 0;
#X connect 31 4 27 1;
#X connect 32 0 33 0;
#X connect 33 0 23 0;
#X connect 33 0 36 0;
#X connect 34 0 40 2;
#X connect 35 0 40 3;
#X connect 36 0 40 4;
#X connect 37 0 40 0;
#X connect 38 0 42 0;
#X connect 38 0 41 0;
#X connect 38 0 39 0;
#X connect 39 0 36 0;
#X connect 41 0 35 0;
#X connect 42 0 34 0;
#X connect 43 0 32 0;
#X connect 43 1 50 0;
#X connect 44 0 46 0;
#X connect 45 0 46 1;
#X connect 46 0 47 0;
#X connect 47 0 43 0;
#X connect 48 0 51 0;
#X connect 49 0 48 0;
#X connect 49 1 44 0;
#X connect 50 0 33 0;
#X connect 51 0 43 1;
#X connect 52 0 13 0;
#X connect 52 1 48 1;
#X connect 52 2 45 0;
