#N canvas 520 32 315 291 10;
#X obj 51 71 cnv 15 100 60 empty empty empty 20 12 0 14 -195568 -66577
0;
#N canvas 0 22 450 300 gemwin 0;
#X obj 132 136 gemwin;
#X obj 67 89 outlet;
#X obj 67 10 inlet;
#X obj 67 41 route create;
#X msg 67 70 set destroy;
#X msg 142 68 set create;
#X msg 249 113 destroy;
#X msg 132 112 reset \, create \, 1;
#X connect 2 0 3 0;
#X connect 3 0 4 0;
#X connect 3 0 7 0;
#X connect 3 1 5 0;
#X connect 3 1 6 0;
#X connect 4 0 1 0;
#X connect 5 0 1 0;
#X connect 6 0 0 0;
#X connect 7 0 0 0;
#X restore 56 110 pd gemwin;
#X msg 56 91 destroy;
#X text 52 70 Create window:;
#N canvas 457 133 802 606 example 0;
#X obj 424 293 k_angle;
#X obj 397 16 gemmouse 1 1;
#X obj 243 244 curve 2;
#X obj 397 52 expr ($f1*8)-4;
#X obj 414 74 expr ($f1*-8)+4;
#X floatatom 397 100 5 0 0 0 - - -, f 5;
#X floatatom 438 104 5 0 0 0 - - -, f 5;
#X obj 397 144 pack f f 0;
#X floatatom 424 382 5 0 0 0 x-z - -, f 5;
#X floatatom 463 409 5 0 0 0 x-y - -, f 5;
#X floatatom 502 378 5 0 0 0 dis - -, f 5;
#X obj 166 437 gemhead;
#X obj 166 490 curve 2;
#X obj 376 169 list;
#X obj 316 148 t b f;
#X obj 343 197 gate 2;
#X obj 343 175 + 1;
#X obj 190 166 invert;
#X obj 71 509 gemhead;
#X obj 71 538 translateXYZ;
#X obj 166 461 color 1 0 0;
#X obj 71 559 color 1 0 0;
#X obj 261 461 gemhead;
#X obj 261 490 translateXYZ;
#X obj 261 511 color 1 1 1;
#X obj 261 538 text2d;
#X obj 344 478 loadbang;
#X obj 269 437 unpack f f f;
#X obj 71 586 text2d;
#X obj 151 537 loadbang;
#X msg 344 503 text A;
#X msg 151 562 text B;
#X obj 33 308 gemhead;
#X obj 33 337 translateXYZ;
#X obj 33 358 color 1 0 0;
#X obj 33 385 text2d;
#X obj 61 247 loadbang;
#X obj 86 304 unpack f f f;
#X msg 61 272 text C;
#X obj 431 475 gemhead;
#X obj 431 525 color 1 0 0;
#X obj 431 552 text2d;
#X obj 479 461 loadbang;
#X obj 431 504 translateXYZ 0 -3 0;
#X msg 479 486 text Angle(ABC)=\$1;
#X obj 593 389 > 0;
#X obj 592 411 expr $f1*180;
#X obj 463 434 expr abs($f2-abs($f1));
#X obj 135 402 unpack f f f;
#X obj 340 308 unpack f f f;
#X obj 343 236 t a a a a;
#X obj 340 357 pack f f 0;
#X obj 340 331 + 2;
#X obj 405 236 t a a;
#X obj 243 192 gemhead 50;
#X msg 221 290 width 4;
#X obj 222 266 loadbang;
#X obj 243 214 color 1 0 0;
#X connect 0 0 8 0;
#X connect 0 1 9 0;
#X connect 0 2 10 0;
#X connect 1 0 3 0;
#X connect 1 1 4 0;
#X connect 1 2 14 0;
#X connect 1 2 17 0;
#X connect 3 0 5 0;
#X connect 4 0 6 0;
#X connect 5 0 7 0;
#X connect 6 0 7 1;
#X connect 7 0 13 1;
#X connect 8 0 45 0;
#X connect 9 0 47 0;
#X connect 11 0 20 0;
#X connect 13 0 15 1;
#X connect 14 0 13 0;
#X connect 14 1 16 0;
#X connect 15 0 2 2;
#X connect 15 0 50 0;
#X connect 15 1 2 1;
#X connect 15 1 53 0;
#X connect 16 0 15 0;
#X connect 17 0 11 0;
#X connect 17 0 32 0;
#X connect 17 0 18 0;
#X connect 17 0 22 0;
#X connect 17 0 54 0;
#X connect 18 0 19 0;
#X connect 19 0 21 0;
#X connect 20 0 12 0;
#X connect 21 0 28 0;
#X connect 22 0 23 0;
#X connect 23 0 24 0;
#X connect 24 0 25 0;
#X connect 26 0 30 0;
#X connect 27 0 23 1;
#X connect 27 1 23 2;
#X connect 27 2 23 3;
#X connect 29 0 31 0;
#X connect 30 0 25 0;
#X connect 31 0 28 0;
#X connect 32 0 33 0;
#X connect 33 0 34 0;
#X connect 34 0 35 0;
#X connect 36 0 38 0;
#X connect 37 0 33 1;
#X connect 37 1 33 2;
#X connect 37 2 33 3;
#X connect 38 0 35 0;
#X connect 39 0 43 0;
#X connect 40 0 41 0;
#X connect 42 0 44 0;
#X connect 43 0 40 0;
#X connect 44 0 41 0;
#X connect 45 0 46 0;
#X connect 46 0 47 1;
#X connect 47 0 44 0;
#X connect 48 0 19 1;
#X connect 48 1 19 2;
#X connect 48 2 19 3;
#X connect 49 0 52 0;
#X connect 49 1 51 1;
#X connect 49 2 51 2;
#X connect 50 0 48 0;
#X connect 50 1 12 1;
#X connect 50 2 49 0;
#X connect 50 3 0 0;
#X connect 51 0 12 2;
#X connect 51 0 37 0;
#X connect 52 0 51 0;
#X connect 53 0 27 0;
#X connect 53 1 0 1;
#X connect 54 0 57 0;
#X connect 55 0 2 0;
#X connect 56 0 55 0;
#X connect 57 0 2 0;
#X restore 50 160 pd example 1;
#N canvas 0 22 731 717 example 0;
#X obj 273 288 k_angle;
#X obj 33 246 gemhead;
#X obj 246 11 gemmouse 1 1;
#X obj 33 309 curve 2;
#X obj 246 47 expr ($f1*8)-4;
#X obj 263 69 expr ($f1*-8)+4;
#X floatatom 246 95 5 0 0 0 - - -, f 5;
#X floatatom 287 99 5 0 0 0 - - -, f 5;
#X obj 246 139 pack f f 0;
#X floatatom 273 377 5 0 0 0 x-z - -, f 5;
#X floatatom 312 393 5 0 0 0 x-y - -, f 5;
#X floatatom 351 373 5 0 0 0 dis - -, f 5;
#X obj 225 164 list;
#X obj 165 143 t b f;
#X obj 192 192 gate 2;
#X obj 192 170 + 1;
#X obj 39 161 invert;
#X floatatom -55 480 5 0 0 0 distance - -, f 5;
#X floatatom -37 513 5 0 0 1 x-angle - -, f 5;
#X floatatom -20 540 5 0 0 1 z-angle - -, f 5;
#X obj -89 419 gemhead;
#X obj -13 405 loadbang;
#X msg 52 484 0;
#X obj -89 566 k_aLine 0 0 0 0;
#X msg 10 460 0;
#X msg -13 431 1;
#X obj 294 233 t a a a a;
#X obj 192 231 t a a a a a;
#X obj 323 585 expr 90- abs($f1);
#X floatatom 322 609 5 0 0 0 - - -, f 5;
#X floatatom 166 583 5 0 0 0 distance - -, f 5;
#X floatatom 184 616 5 0 0 1 x-angle - -, f 5;
#X floatatom 201 643 5 0 0 1 z-angle - -, f 5;
#X obj 132 522 gemhead;
#X obj 208 508 loadbang;
#X msg 273 587 0;
#X obj 132 669 k_aLine 0 0 0 0;
#X msg 231 563 0;
#X msg 208 534 1;
#X obj 323 556 gate 2;
#X obj 296 444 > 0;
#X obj 368 439 > 0;
#X obj 296 475 expr if($f1+$f2==2 || $f1+$f2==0 \, 2 \, 1);
#X floatatom 297 497 5 0 0 0 - - -, f 5;
#X obj 361 494 f;
#X obj 266 416 t b f;
#X obj 370 611 expr 90+ abs($f1);
#X floatatom 361 519 5 0 0 0 - - -, f 5;
#X obj 315 416 t b f f;
#X connect 0 0 9 0;
#X connect 0 1 10 0;
#X connect 0 2 11 0;
#X connect 1 0 3 0;
#X connect 2 0 4 0;
#X connect 2 1 5 0;
#X connect 2 2 13 0;
#X connect 2 2 16 0;
#X connect 4 0 6 0;
#X connect 5 0 7 0;
#X connect 6 0 8 0;
#X connect 7 0 8 1;
#X connect 8 0 12 1;
#X connect 9 0 45 0;
#X connect 10 0 48 0;
#X connect 12 0 14 1;
#X connect 13 0 12 0;
#X connect 13 1 15 0;
#X connect 14 0 3 2;
#X connect 14 0 27 0;
#X connect 14 1 3 1;
#X connect 14 1 26 0;
#X connect 15 0 14 0;
#X connect 16 0 1 0;
#X connect 16 0 20 0;
#X connect 16 0 33 0;
#X connect 17 0 23 2;
#X connect 18 0 23 3;
#X connect 19 0 23 4;
#X connect 20 0 23 0;
#X connect 21 0 25 0;
#X connect 21 0 24 0;
#X connect 21 0 22 0;
#X connect 22 0 19 0;
#X connect 24 0 18 0;
#X connect 25 0 17 0;
#X connect 26 1 36 1;
#X connect 26 2 0 1;
#X connect 27 3 0 0;
#X connect 27 4 23 1;
#X connect 28 0 29 0;
#X connect 29 0 19 0;
#X connect 29 0 32 0;
#X connect 30 0 36 2;
#X connect 31 0 36 3;
#X connect 32 0 36 4;
#X connect 33 0 36 0;
#X connect 34 0 38 0;
#X connect 34 0 37 0;
#X connect 34 0 35 0;
#X connect 35 0 32 0;
#X connect 37 0 31 0;
#X connect 38 0 30 0;
#X connect 39 0 28 0;
#X connect 39 1 46 0;
#X connect 40 0 42 0;
#X connect 41 0 42 1;
#X connect 42 0 43 0;
#X connect 43 0 39 0;
#X connect 44 0 47 0;
#X connect 45 0 44 0;
#X connect 45 1 40 0;
#X connect 46 0 29 0;
#X connect 47 0 39 1;
#X connect 48 0 9 0;
#X connect 48 1 44 1;
#X connect 48 2 41 0;
#X restore 50 139 pd example 2;
#X connect 1 0 2 0;
#X connect 2 0 1 0;
