#N canvas 85 253 754 410 10;
#X obj 257 36 inlet;
#X obj 379 36 inlet;
#X obj 257 91 unpack f f f;
#X obj 379 93 unpack f f f;
#X obj 304 138 -;
#X obj 257 125 -;
#X obj 392 135 -;
#X obj 135 12 expr $f1*(180/3.1415926);
#X floatatom 135 -12 10 0 0 0 - - -;
#X floatatom 135 117 5 0 0 0 x-z - -;
#X floatatom 135 136 5 0 0 0 x-y - -;
#X obj 135 -37 expr atan2($f1 \, $f2);
#X floatatom 446 251 5 0 0 0 - - -;
#X obj 329 324 expr $f1*(180/3.1415926);
#X floatatom 329 300 10 0 0 0 - - -;
#X floatatom 329 349 5 0 0 0 - - -;
#X msg 257 65 \$2 \$1 \$3;
#X msg 379 66 \$2 \$1 \$3;
#X obj 330 223 expr sqrt($f1*$f1+$f2*$f2);
#X floatatom 329 250 5 0 0 0 - - -;
#X floatatom 135 155 5 0 0 0 dis - -;
#X obj 392 161 t f f f;
#X obj 304 162 t f f f;
#X obj 257 152 t f f;
#X obj 8 218 outlet;
#X obj 34 245 outlet;
#X obj 68 271 outlet;
#X obj 513 219 expr sqrt($f1*$f1+$f2*$f2+$f3*$f3);
#X text 295 38 y x z;
#X text 433 24 y x z;
#X text 227 125 y;
#X text 332 139 x;
#X text 422 135 z;
#X obj 329 275 expr atan2($f1 \, $f2);
#X connect 0 0 16 0;
#X connect 1 0 17 0;
#X connect 2 0 5 0;
#X connect 2 1 4 0;
#X connect 2 2 6 0;
#X connect 3 0 5 1;
#X connect 3 1 4 1;
#X connect 3 2 6 1;
#X connect 4 0 22 0;
#X connect 5 0 23 0;
#X connect 6 0 21 0;
#X connect 7 0 9 0;
#X connect 8 0 7 0;
#X connect 9 0 24 0;
#X connect 10 0 25 0;
#X connect 11 0 8 0;
#X connect 12 0 33 1;
#X connect 13 0 15 0;
#X connect 14 0 13 0;
#X connect 15 0 10 0;
#X connect 16 0 2 0;
#X connect 17 0 3 0;
#X connect 18 0 12 0;
#X connect 19 0 33 0;
#X connect 20 0 26 0;
#X connect 21 0 11 1;
#X connect 21 1 18 1;
#X connect 21 2 27 2;
#X connect 22 0 11 0;
#X connect 22 1 18 0;
#X connect 22 2 27 1;
#X connect 23 0 19 0;
#X connect 23 1 27 0;
#X connect 27 0 20 0;
#X connect 33 0 14 0;
#X coords 0 -1 1 1 85 75 1 100 100;
