#N canvas 540 229 757 539 10;
#X obj 101 193 gemwin;
#X obj 292 -14 gemhead;
#X floatatom 429 7 5 0 0 0 distance - -, f 5;
#X floatatom 466 115 5 0 0 1 z-angle - -, f 5;
#X floatatom 446 45 5 0 0 1 x-angle - -, f 5;
#X msg 81 134 destroy;
#X obj 178 129 gemhead;
#X obj 178 168 translateXYZ 0 0 0;
#X obj 245 128 unpack f f f;
#X obj 385 140 k_aPos =====;
#X obj 486 -49 loadbang;
#X obj 486 -22 t b b b;
#X obj 204 270 gemhead;
#X obj 204 395 circle 0.2;
#X obj 129 320 loadbang;
#X msg 129 345 draw line;
#X obj 204 313 color 1 0 0;
#X obj 204 345 translateXYZ;
#X obj 245 67 loadbang;
#X msg 505 21 350;
#X obj 337 168 t a b;
#X obj 337 200 translateXYZ 0 0 0;
#X obj 385 170 unpack f f f;
#X obj 96 52 k_camera;
#X obj 337 229 sphere 0.05 20;
#X msg 245 93 1 1 1;
#X obj 175 236 sphere 0.05 20;
#X obj 357 312 curve 2;
#X msg 486 -1 1;
#X obj 337 95 separator;
#X obj 357 279 separator;
#X obj 174 197 color 1 0 0;
#X msg 18 169 frame 60 \, create \, 1;
#X obj 337 73 t a a b;
#X obj 466 91 k_count 1 360;
#X connect 1 0 33 0;
#X connect 2 0 9 2;
#X connect 3 0 9 4;
#X connect 4 0 9 3;
#X connect 5 0 0 0;
#X connect 6 0 7 0;
#X connect 7 0 31 0;
#X connect 8 0 7 1;
#X connect 8 0 17 1;
#X connect 8 1 7 2;
#X connect 8 1 17 2;
#X connect 8 2 7 3;
#X connect 8 2 17 3;
#X connect 9 0 22 0;
#X connect 9 0 27 2;
#X connect 10 0 11 0;
#X connect 11 0 28 0;
#X connect 11 1 19 0;
#X connect 12 0 16 0;
#X connect 14 0 15 0;
#X connect 15 0 13 0;
#X connect 16 0 17 0;
#X connect 17 0 13 0;
#X connect 18 0 25 0;
#X connect 19 0 4 0;
#X connect 20 0 21 0;
#X connect 20 1 9 0;
#X connect 21 0 24 0;
#X connect 22 0 21 1;
#X connect 22 1 21 2;
#X connect 22 2 21 3;
#X connect 23 0 0 0;
#X connect 25 0 8 0;
#X connect 25 0 9 1;
#X connect 25 0 27 1;
#X connect 28 0 2 0;
#X connect 29 0 20 0;
#X connect 30 0 27 0;
#X connect 31 0 26 0;
#X connect 32 0 0 0;
#X connect 33 0 29 0;
#X connect 33 1 30 0;
#X connect 33 2 34 0;
#X connect 34 0 3 0;
