#N canvas 622 39 525 404 10;
#X obj 212 59 / 360;
#X obj 379 135 / 360;
#X floatatom 136 145 5 0 0 0 - - -;
#X obj 212 82 expr $f1*2*3.1415926;
#X obj 379 164 expr $f1*2*3.1415926;
#X obj 136 177 expr $f1*cos($f2)*cos($f3);
#X obj 177 143 expr $f1*sin($f2);
#X obj 226 217 expr $f1*sin($f2)*cos($f3);
#X obj 56 326 outlet signal;
#X obj 124 267 +;
#X obj 154 267 +;
#X obj 190 267 +;
#X obj 139 229 unpack f f f;
#X obj 212 8 inlet;
#X obj 88 98 inlet;
#X obj 67 124 list;
#X obj 136 87 inlet;
#X obj 379 84 inlet;
#X obj 28 70 inlet;
#X obj 56 301 translateXYZ;
#X obj 28 101 t a b b;
#X obj 188 342 outlet;
#X obj 187 304 pack f f f;
#X connect 0 0 3 0;
#X connect 1 0 4 0;
#X connect 2 0 5 0;
#X connect 2 0 6 0;
#X connect 2 0 7 0;
#X connect 3 0 5 1;
#X connect 3 0 7 1;
#X connect 4 0 5 2;
#X connect 4 0 6 1;
#X connect 4 0 7 2;
#X connect 5 0 9 0;
#X connect 6 0 10 0;
#X connect 7 0 11 0;
#X connect 9 0 19 1;
#X connect 9 0 22 0;
#X connect 10 0 19 2;
#X connect 10 0 22 1;
#X connect 11 0 19 3;
#X connect 11 0 22 2;
#X connect 12 0 9 1;
#X connect 12 1 10 1;
#X connect 12 2 11 1;
#X connect 13 0 1 0;
#X connect 14 0 15 1;
#X connect 15 0 12 0;
#X connect 16 0 2 0;
#X connect 17 0 0 0;
#X connect 18 0 20 0;
#X connect 19 0 8 0;
#X connect 20 0 19 0;
#X connect 20 1 2 0;
#X connect 20 2 15 0;
#X connect 22 0 21 0;
