#N canvas 333 302 525 404 10;
#X floatatom 212 32 5 0 0 0 theta - -;
#X obj 212 59 / 360;
#X floatatom 367 53 5 0 0 0 phi - -;
#X obj 367 81 / 360;
#X obj 124 296 pack f f f;
#X floatatom 117 4 5 0 0 0 - - -;
#X obj 212 82 expr $f1*2*3.1415926;
#X obj 367 110 expr $f1*2*3.1415926;
#X obj 136 177 expr $f1*cos($f2)*cos($f3);
#X obj 177 143 expr $f1*sin($f2);
#X obj 226 217 expr $f1*sin($f2)*cos($f3);
#X obj 103 348 outlet signal;
#X obj 124 267 +;
#X obj 154 267 +;
#X obj 190 267 +;
#X obj 139 229 unpack f f f;
#X obj 212 8 inlet;
#X obj 103 319 list;
#X obj 88 98 inlet;
#X obj 67 124 list;
#X obj 117 -54 inlet;
#X obj 28 101 t b b b;
#X obj 367 30 inlet;
#X obj 367 133 t f f f;
#X obj 213 107 t f f;
#X obj 25 10 inlet;
#X obj 119 52 t f f f;
#X connect 0 0 1 0;
#X connect 1 0 6 0;
#X connect 2 0 3 0;
#X connect 3 0 7 0;
#X connect 4 0 17 1;
#X connect 5 0 26 0;
#X connect 6 0 24 0;
#X connect 7 0 23 0;
#X connect 8 0 12 0;
#X connect 9 0 13 0;
#X connect 10 0 14 0;
#X connect 12 0 4 0;
#X connect 13 0 4 1;
#X connect 14 0 4 2;
#X connect 15 0 12 1;
#X connect 15 1 13 1;
#X connect 15 2 14 1;
#X connect 16 0 0 0;
#X connect 17 0 11 0;
#X connect 18 0 19 1;
#X connect 19 0 15 0;
#X connect 20 0 5 0;
#X connect 21 0 17 0;
#X connect 21 1 5 0;
#X connect 21 2 19 0;
#X connect 22 0 2 0;
#X connect 23 0 9 1;
#X connect 23 1 8 2;
#X connect 23 2 10 2;
#X connect 24 0 8 1;
#X connect 24 1 10 1;
#X connect 25 0 21 0;
#X connect 26 0 8 0;
#X connect 26 1 9 0;
#X connect 26 2 10 0;
