#N canvas 302 133 409 535 10;
#X obj 36 -167 tabread \$0-x;
#X obj 36 -197 t f f f;
#X obj 36 114 pack f f f;
#X obj 36 142 outlet;
#X obj 36 -229 inlet;
#X obj 55 -144 tabread \$0-y;
#X obj 75 -120 tabread \$0-z;
#X obj 35 43 expr int($f1*100)/100;
#X obj 59 64 expr int($f1*100)/100;
#X obj 79 84 expr int($f1*100)/100;
#X floatatom 106 119 5 0 0 0 - - -;
#X floatatom 139 119 5 0 0 0 - - -;
#X floatatom 172 119 5 0 0 0 - - -;
#X obj 37 -37 line;
#X obj 125 -36 line;
#X obj 231 -10 line;
#X obj 32 -84 t f b;
#X obj 123 -84 t f b;
#X obj 219 -60 t f b;
#X obj 245 -36 f;
#X obj 149 -60 f;
#X obj 58 -60 f;
#X msg 121 -213 set \$1-x;
#X msg 144 -189 set \$1-y;
#X msg 162 -160 set \$1-z;
#X obj 128 -272 init \$1;
#X obj 260 -62 init \$2;
#X floatatom 128 -247 5 0 0 0 - - -;
#X obj 164 -86 init \$2;
#X obj 74 -87 init \$2;
#X obj 128 -292 bng 15 250 50 0 empty empty empty 17 7 0 10 -262144
-1 -1;
#X connect 0 0 16 0;
#X connect 1 0 0 0;
#X connect 1 1 5 0;
#X connect 1 2 6 0;
#X connect 2 0 3 0;
#X connect 4 0 1 0;
#X connect 5 0 17 0;
#X connect 6 0 18 0;
#X connect 7 0 2 0;
#X connect 7 0 10 0;
#X connect 8 0 2 1;
#X connect 8 0 11 0;
#X connect 9 0 2 2;
#X connect 9 0 12 0;
#X connect 13 0 7 0;
#X connect 14 0 8 0;
#X connect 15 0 9 0;
#X connect 16 0 13 0;
#X connect 16 1 21 0;
#X connect 17 0 14 0;
#X connect 17 1 20 0;
#X connect 18 0 15 0;
#X connect 18 1 19 0;
#X connect 19 0 15 1;
#X connect 20 0 14 1;
#X connect 21 0 13 1;
#X connect 22 0 0 0;
#X connect 23 0 5 0;
#X connect 24 0 6 0;
#X connect 25 0 27 0;
#X connect 26 0 19 1;
#X connect 27 0 22 0;
#X connect 27 0 23 0;
#X connect 27 0 24 0;
#X connect 28 0 20 1;
#X connect 29 0 21 1;
#X connect 30 0 25 0;
#X coords 0 -1 1 1 125 40 1 100 100;
