#N canvas 279 55 758 683 10;
#X obj 103 130 hsl 100 15 0 1 0 0 empty empty 0 5 8 0 10 -262144 -1
-1 0 1;
#X floatatom 101 156 5 0 0 0 - - -, f 5;
#X obj 101 93 inlet;
#X obj 143 245 outlet;
#X obj 101 203 t f f;
#X obj -24 245 expr int($f1*100)/100;
#X obj 297 222 pack f f;
#X msg 297 245 range \$1 \$2;
#X obj 195 -64 loadbang;
#X obj 195 3 f \$1;
#X obj 230 4 f \$2;
#X obj 195 49 expr if($f1==0 \, 0 \, $f1);
#X obj 236 72 expr if($f1==0 \, 1 \, $f1);
#X obj 145 7 f \$1;
#X floatatom 24 -196 5 0 0 0 - - -, f 5;
#X obj 24 -218 r editmode;
#X obj 24 -176 sel 0 1;
#X msg 43 -135 color 30 22 22;
#X msg -25 343 label \$1;
#X obj -24 267 makefilename %s;
#X msg 7 -97 color -2.15772e+06 22 22;
#X floatatom 101 116 5 0 0 0 - - -, f 5;
#X obj 147 205 +;
#X obj 196 -24 t b b b b;
#X obj 269 6 f \$3;
#X connect 0 0 1 0;
#X connect 1 0 4 0;
#X connect 2 0 0 0;
#X connect 4 0 5 0;
#X connect 4 1 22 0;
#X connect 5 0 19 0;
#X connect 6 0 7 0;
#X connect 7 0 0 0;
#X connect 8 0 23 0;
#X connect 9 0 11 0;
#X connect 10 0 12 0;
#X connect 11 0 6 0;
#X connect 12 0 6 1;
#X connect 13 0 0 0;
#X connect 14 0 16 0;
#X connect 15 0 14 0;
#X connect 16 0 17 0;
#X connect 16 1 20 0;
#X connect 17 0 0 0;
#X connect 18 0 0 0;
#X connect 19 0 18 0;
#X connect 20 0 0 0;
#X connect 21 0 22 1;
#X connect 22 0 3 0;
#X connect 23 0 13 0;
#X connect 23 1 9 0;
#X connect 23 2 10 0;
#X connect 23 3 24 0;
#X connect 24 0 21 0;
#X coords 0 -1 1 1 105 45 1 100 100;
