#N canvas 320 152 531 502 10;
#X obj 258 170 unpack f f f;
#X obj 370 161 unpack f f f;
#X obj 330 272 * 0;
#X obj 151 101 t f f b b;
#X obj 329 220 expr 1-$f1;
#X obj 363 274 * 0;
#X obj 401 273 * 0;
#X obj 329 241 t f f f;
#X obj 194 260 * 0;
#X obj 227 262 * 0;
#X obj 265 261 * 0;
#X obj 196 218 t f f f;
#X obj 105 316 expr ($f1+$f2);
#X obj 197 335 expr ($f1+$f2);
#X obj 265 371 expr ($f1+$f2);
#X obj 279 82 inlet;
#X obj 342 85 inlet;
#X obj 258 138 list;
#X obj 321 120 list;
#X obj 151 52 inlet;
#X obj 157 464 outlet;
#X obj 161 420 pack f f f;
#X connect 0 0 8 1;
#X connect 0 1 9 1;
#X connect 0 2 10 1;
#X connect 1 0 2 1;
#X connect 1 1 5 1;
#X connect 1 2 6 1;
#X connect 2 0 12 1;
#X connect 3 0 11 0;
#X connect 3 1 4 0;
#X connect 3 2 17 0;
#X connect 3 3 18 0;
#X connect 4 0 7 0;
#X connect 5 0 13 1;
#X connect 6 0 14 1;
#X connect 7 0 2 0;
#X connect 7 1 5 0;
#X connect 7 2 6 0;
#X connect 8 0 12 0;
#X connect 9 0 13 0;
#X connect 10 0 14 0;
#X connect 11 0 8 0;
#X connect 11 1 9 0;
#X connect 11 2 10 0;
#X connect 12 0 21 0;
#X connect 13 0 21 1;
#X connect 14 0 21 2;
#X connect 15 0 17 1;
#X connect 16 0 18 1;
#X connect 17 0 0 0;
#X connect 18 0 1 0;
#X connect 19 0 3 0;
#X connect 21 0 20 0;
