#N canvas 196 252 839 512 10;
#X obj 134 163 gemwin;
#X msg 136 131 reset \, create \, 1;
#X obj 246 40 gemhead;
#X obj 293 215 f 0;
#X obj 323 215 + 1;
#X obj 351 214 % 14;
#X floatatom 293 269 5 0 0 0 - - -;
#X obj 293 246 expr if($f1<7 \, $f1 \, abs($f1-13));
#X obj 293 165 f 0;
#X obj 323 165 + 1;
#X obj 293 190 sel 0;
#X obj 246 66 t a b;
#X obj 352 166 % 1;
#X obj 418 37 gemmouse 1 1;
#X obj 420 73 expr $f1*16-8;
#X obj 417 131 pack f f;
#X obj 436 98 expr ($f1*-8)+4;
#X msg 416 163 pos \$1 \$2;
#X obj 563 322 k_bird;
#X obj 556 50 gemhead;
#X obj 602 227 f 0;
#X obj 632 227 + 1;
#X obj 660 226 % 14;
#X floatatom 602 281 5 0 0 0 - - -;
#X obj 602 258 expr if($f1<7 \, $f1 \, abs($f1-13));
#X obj 602 177 f 0;
#X obj 632 177 + 1;
#X obj 602 202 sel 0;
#X obj 555 78 t a b;
#X obj 661 178 % 1;
#X obj 244 295 k_bird;
#X msg 114 99 destroy;
#X connect 1 0 0 0;
#X connect 2 0 11 0;
#X connect 3 0 4 0;
#X connect 3 0 7 0;
#X connect 4 0 5 0;
#X connect 5 0 3 1;
#X connect 6 0 30 1;
#X connect 7 0 6 0;
#X connect 8 0 9 0;
#X connect 8 0 10 0;
#X connect 9 0 12 0;
#X connect 10 0 3 0;
#X connect 11 0 30 0;
#X connect 11 1 8 0;
#X connect 12 0 8 1;
#X connect 13 0 14 0;
#X connect 13 1 16 0;
#X connect 14 0 15 0;
#X connect 15 0 17 0;
#X connect 16 0 15 1;
#X connect 17 0 18 2;
#X connect 17 0 30 2;
#X connect 19 0 28 0;
#X connect 20 0 21 0;
#X connect 20 0 24 0;
#X connect 21 0 22 0;
#X connect 22 0 20 1;
#X connect 23 0 18 1;
#X connect 24 0 23 0;
#X connect 25 0 26 0;
#X connect 25 0 27 0;
#X connect 26 0 29 0;
#X connect 27 0 20 0;
#X connect 28 0 18 0;
#X connect 28 1 25 0;
#X connect 29 0 25 1;
#X connect 31 0 0 0;
