#N canvas 628 103 812 664 10;
#X obj 91 428 multimodel;
#X msg 25 331 rescale 0;
#X obj -2 286 loadbang;
#X obj -2 308 t b b;
#X obj 90 252 rotateXYZ 0 0 0;
#X msg -2 363 open b*.obj 1 7 1;
#X obj 90 190 translateXYZ 0 0 0;
#X obj 236 163 t f f;
#X obj 279 164 t f f;
#X floatatom 119 226 5 0 0 0 - - -;
#X floatatom 177 227 5 0 0 0 - - -;
#X obj 244 39 line;
#X obj 324 42 line;
#X obj 90 123 inlet;
#X obj 90 161 separator;
#X obj 236 142 k_smooth;
#X obj 288 -61 r tostart;
#X obj 319 139 k_smooth;
#X obj 90 302 color 1 1 1;
#X obj 328 -207 / 1000;
#X obj 305 -282 r bird_x;
#X obj 467 -282 r bird_y;
#X obj 305 -253 t f b;
#X obj 305 -180 +;
#X obj 490 -210 / 1000;
#X obj 467 -256 t f b;
#X obj 475 -180 +;
#X obj 243 63 * 1;
#X obj 325 62 * 1;
#X obj 329 -229 random 1000;
#X obj 491 -232 random 1000;
#X msg 386 -10 \$1 \, 1 1000;
#X obj 386 14 line;
#X obj 500 41 spigot;
#X msg 537 100 0;
#X msg 517 157 1;
#X obj 578 -2 loadbang;
#X msg 578 20 1;
#X obj 499 68 t b b b;
#X msg 466 223 \$1 \, 1 1000;
#X obj 466 247 line;
#X obj 467 270 k_smooth;
#X obj 386 37 k_smooth;
#X obj 385 -36 randomF 3;
#X obj 465 197 randomF 3;
#X obj 609 84 tgl 15 0 empty empty empty 17 7 0 10 -262144 -1 -1 0
1;
#X obj 518 127 del 3000;
#X obj 243 90 f;
#X obj 271 91 +;
#X obj 324 90 f;
#X obj 352 91 +;
#X obj 608 107 metro 1000;
#X obj 680 82 tgl 15 0 empty empty empty 17 7 0 10 -262144 -1 -1 0
1;
#X obj 679 105 metro 50;
#X obj 680 136 f;
#X obj 708 136 + 1;
#X obj 739 138 % 100;
#X floatatom 681 162 5 0 0 0 - - -;
#X obj 656 254 sin;
#X obj 681 184 / 100;
#X obj 681 207 expr $f1*2*3.1415;
#X obj 694 255 cos;
#X obj 653 308 t b f;
#X obj 695 309 t b f;
#X obj 656 277 / 10;
#X obj 695 277 / 10;
#X obj 288 -39 unpack f f;
#X obj 91 275 scaleXYZ 0.1 0.1 0.1;
#X obj 258 223 outlet;
#X obj 317 220 outlet;
#X obj 360 283 inlet;
#X msg 244 15 \$1 500;
#X msg 324 19 \$1 500;
#X connect 1 0 0 0;
#X connect 2 0 3 0;
#X connect 3 0 5 0;
#X connect 3 1 1 0;
#X connect 4 0 67 0;
#X connect 5 0 0 0;
#X connect 6 0 4 0;
#X connect 7 0 6 1;
#X connect 7 1 68 0;
#X connect 8 0 6 2;
#X connect 8 1 69 0;
#X connect 9 0 4 1;
#X connect 10 0 4 2;
#X connect 10 0 4 3;
#X connect 11 0 27 0;
#X connect 12 0 28 0;
#X connect 13 0 14 0;
#X connect 14 0 6 0;
#X connect 15 0 7 0;
#X connect 16 0 66 0;
#X connect 17 0 8 0;
#X connect 18 0 0 0;
#X connect 19 0 23 1;
#X connect 20 0 22 0;
#X connect 21 0 25 0;
#X connect 22 0 23 0;
#X connect 22 1 29 0;
#X connect 22 1 33 0;
#X connect 23 0 71 0;
#X connect 24 0 26 1;
#X connect 25 0 26 0;
#X connect 25 1 30 0;
#X connect 26 0 72 0;
#X connect 27 0 47 0;
#X connect 28 0 49 0;
#X connect 29 0 19 0;
#X connect 30 0 24 0;
#X connect 31 0 32 0;
#X connect 32 0 42 0;
#X connect 33 0 38 0;
#X connect 34 0 33 1;
#X connect 34 0 45 0;
#X connect 34 0 52 0;
#X connect 35 0 33 1;
#X connect 35 0 45 0;
#X connect 35 0 52 0;
#X connect 36 0 37 0;
#X connect 37 0 33 1;
#X connect 38 0 43 0;
#X connect 38 0 44 0;
#X connect 38 1 46 0;
#X connect 38 2 34 0;
#X connect 39 0 40 0;
#X connect 40 0 41 0;
#X connect 41 0 28 1;
#X connect 42 0 27 1;
#X connect 43 0 31 0;
#X connect 44 0 39 0;
#X connect 45 0 51 0;
#X connect 46 0 35 0;
#X connect 47 0 48 0;
#X connect 47 0 15 0;
#X connect 48 0 47 1;
#X connect 49 0 50 0;
#X connect 49 0 17 0;
#X connect 50 0 49 1;
#X connect 51 0 43 0;
#X connect 51 0 44 0;
#X connect 52 0 53 0;
#X connect 53 0 54 0;
#X connect 54 0 55 0;
#X connect 54 0 57 0;
#X connect 55 0 56 0;
#X connect 56 0 54 1;
#X connect 57 0 59 0;
#X connect 58 0 64 0;
#X connect 59 0 60 0;
#X connect 60 0 58 0;
#X connect 60 0 61 0;
#X connect 61 0 65 0;
#X connect 62 0 47 0;
#X connect 62 1 48 1;
#X connect 63 0 49 0;
#X connect 63 1 50 1;
#X connect 64 0 62 0;
#X connect 65 0 63 0;
#X connect 66 0 71 0;
#X connect 66 1 72 0;
#X connect 67 0 18 0;
#X connect 70 0 0 1;
#X connect 71 0 11 0;
#X connect 72 0 12 0;
