#N canvas 325 103 557 505 10;
#X obj 104 120 hradio 15 1 0 5 empty empty empty 0 -8 0 10 -262144
-1 -1 4;
#X obj -188 185 inlet;
#X obj -25 474 outlet;
#X obj -39 181 inlet;
#X obj -188 442 pix_composite;
#X obj -87 443 pix_add;
#X obj 69 442 pix_diff;
#X obj -25 442 pix_subtract;
#X obj -188 347 pix_alpha;
#N canvas 445 182 508 174 select 0;
#X obj 88 35 inlet;
#X msg 88 98 1;
#X msg 144 98 2;
#X msg 201 97 3;
#X msg 257 97 0;
#X obj 88 121 outlet;
#X msg 329 100 4;
#X obj 88 59 sel 0 1 2 3 4;
#X connect 0 0 7 0;
#X connect 1 0 5 0;
#X connect 2 0 5 0;
#X connect 3 0 5 0;
#X connect 4 0 5 0;
#X connect 6 0 5 0;
#X connect 7 0 1 0;
#X connect 7 1 2 0;
#X connect 7 2 3 0;
#X connect 7 3 4 0;
#X connect 7 4 6 0;
#X restore 131 181 pd select blending method;
#X obj 144 444 pix_multiply;
#N canvas 172 373 450 300 demux5 0;
#X obj 59 30 inlet;
#X obj 283 17 inlet;
#X obj 59 193 outlet;
#X obj 59 137 spigot;
#X obj 96 109 == 0;
#X obj 106 137 spigot;
#X obj 153 139 spigot;
#X obj 200 137 spigot;
#X obj 246 137 spigot;
#X obj 143 109 == 1;
#X obj 190 109 == 2;
#X obj 237 109 == 3;
#X obj 283 109 == 4;
#X obj 96 83 loadbang;
#X obj 59 52 t a a a a a;
#X obj 106 194 outlet;
#X obj 153 195 outlet;
#X obj 200 196 outlet;
#X obj 246 195 outlet;
#X obj 283 61 f;
#X connect 0 0 14 0;
#X connect 1 0 19 0;
#X connect 3 0 2 0;
#X connect 4 0 3 1;
#X connect 5 0 15 0;
#X connect 6 0 16 0;
#X connect 7 0 17 0;
#X connect 8 0 18 0;
#X connect 9 0 5 1;
#X connect 10 0 6 1;
#X connect 11 0 7 1;
#X connect 12 0 8 1;
#X connect 13 0 4 0;
#X connect 14 0 3 0;
#X connect 14 1 5 0;
#X connect 14 2 6 0;
#X connect 14 3 7 0;
#X connect 14 4 8 0;
#X connect 19 0 4 0;
#X connect 19 0 9 0;
#X connect 19 0 10 0;
#X connect 19 0 11 0;
#X connect 19 0 12 0;
#X restore -188 309 pd demux5;
#X obj 104 148 t b a;
#X obj -188 249 pix_buf;
#X text -190 159 pix1;
#X obj 175 40 init \$1;
#X connect 0 0 12 0;
#X connect 1 0 13 0;
#X connect 3 0 5 1;
#X connect 3 0 4 1;
#X connect 3 0 7 1;
#X connect 3 0 6 1;
#X connect 3 0 10 1;
#X connect 4 0 2 0;
#X connect 5 0 2 0;
#X connect 6 0 2 0;
#X connect 7 0 2 0;
#X connect 8 0 4 0;
#X connect 9 0 11 1;
#X connect 10 0 2 0;
#X connect 11 0 8 0;
#X connect 11 1 5 0;
#X connect 11 2 7 0;
#X connect 11 3 6 0;
#X connect 11 4 10 0;
#X connect 12 0 13 0;
#X connect 12 1 9 0;
#X connect 13 0 11 0;
#X connect 15 0 0 0;
#X coords 0 -1 1 1 85 40 1 100 100;
