#N canvas 642 154 738 461 10;
#X obj 333 422 gemwin;
#X obj 150 379 pix_texture;
#X obj 150 58 gemhead 1;
#X obj 228 166 gemhead 2;
#X msg 333 389 dimen 640 480 \, create \, 1;
#X msg 309 356 destroy;
#X obj 150 423 rectangle 5.33 4;
#X obj 231 95 loadbang;
#X msg 231 121 \; pd dsp 1;
#X obj 150 255 k_blend;
#X obj 228 203 pix_video;
#X obj 150 157 pix_rgba;
#X obj 228 225 pix_rgba;
#N canvas 347 362 450 300 sig 0;
#X obj 150 33 inlet;
#X obj 150 149 outlet;
#X obj 283 99 block~ 4096;
#X obj 221 61 noise~;
#X obj 150 96 pix_sig2pix 64 64;
#X obj 150 124 pix_resize 320 240;
#X obj 285 46 osc~ 440;
#X connect 0 0 4 0;
#X connect 3 0 4 0;
#X connect 4 0 5 0;
#X connect 5 0 1 0;
#X connect 6 0 4 2;
#X restore 150 121 pd sig;
#X obj 150 295 alpha;
#X msg 173 349 quality 0;
#X obj 174 326 loadbang;
#X connect 1 0 6 0;
#X connect 2 0 13 0;
#X connect 3 0 10 0;
#X connect 4 0 0 0;
#X connect 5 0 0 0;
#X connect 7 0 8 0;
#X connect 9 0 14 0;
#X connect 10 0 12 0;
#X connect 11 0 9 0;
#X connect 12 0 9 1;
#X connect 13 0 11 0;
#X connect 14 0 1 0;
#X connect 15 0 1 0;
#X connect 16 0 15 0;
