#N canvas 0 22 503 606 10;
#X obj 105 117 hradio 15 1 0 5 empty empty empty 0 -8 0 10 -262144
-1 -1 2;
#X obj -9 171 inlet;
#X obj 73 512 outlet;
#X obj 59 166 inlet;
#X obj -90 427 pix_composite;
#X obj 11 428 pix_add;
#X obj 167 427 pix_diff;
#X obj 73 427 pix_subtract;
#X obj 242 429 pix_multiply;
#X obj 105 41 loadbang;
#X msg 105 66 4;
#X obj 59 242 t a a a a a;
#X obj -90 294 gate 5 4 3 2 1;
#X obj 105 144 + 1;
#X obj 226 59 inlet;
#X obj -9 227 pix_buf;
#X obj 105 168 t b b f;
#X obj 59 210 pix_buf;
#X obj 73 463 pix_alpha;
#X obj 73 486 pix_rgba;
#X connect 0 0 13 0;
#X connect 1 0 15 0;
#X connect 3 0 17 0;
#X connect 4 0 18 0;
#X connect 5 0 18 0;
#X connect 6 0 18 0;
#X connect 7 0 18 0;
#X connect 8 0 18 0;
#X connect 9 0 10 0;
#X connect 10 0 0 0;
#X connect 11 0 4 1;
#X connect 11 1 5 1;
#X connect 11 2 7 1;
#X connect 11 3 6 1;
#X connect 11 4 8 1;
#X connect 12 0 4 0;
#X connect 12 1 5 0;
#X connect 12 2 7 0;
#X connect 12 3 6 0;
#X connect 12 4 8 0;
#X connect 13 0 16 0;
#X connect 14 0 0 0;
#X connect 15 0 12 1;
#X connect 16 0 15 0;
#X connect 16 1 17 0;
#X connect 16 2 12 0;
#X connect 17 0 11 0;
#X connect 18 0 19 0;
#X connect 19 0 2 0;
#X coords 0 -1 1 1 85 35 1 100 100;
