#N canvas 537 315 512 428 10;
#X obj 35 40 cnv 15 100 60 empty empty empty 20 12 0 14 -195568 -66577
0;
#N canvas 0 22 450 300 gemwin 0;
#X obj 132 136 gemwin;
#X obj 67 89 outlet;
#X obj 67 10 inlet;
#X obj 67 41 route create;
#X msg 67 70 set destroy;
#X msg 142 68 set create;
#X msg 249 113 destroy;
#X msg 132 112 reset \, create \, 1;
#X connect 2 0 3 0;
#X connect 3 0 4 0;
#X connect 3 0 7 0;
#X connect 3 1 5 0;
#X connect 3 1 6 0;
#X connect 4 0 1 0;
#X connect 5 0 1 0;
#X connect 6 0 0 0;
#X connect 7 0 0 0;
#X restore 40 79 pd gemwin;
#X msg 40 60 destroy;
#X text 36 39 Create window:;
#X obj 173 108 expr ($f1*8)-4;
#X obj 190 78 expr ($f1*-8)+4;
#X obj 173 33 gemmouse 1 1;
#X obj 173 133 pack f f;
#X obj 231 226 tgl 15 0 empty empty empty 17 7 0 10 -262144 -1 -1 0
1;
#X msg 231 270 1 0 0;
#X msg 250 294 1 1 1;
#X obj 231 247 sel 1 0;
#X obj 144 242 color;
#X obj 144 285 square;
#X obj 144 204 k_btn 3 1 0.3 1;
#X obj 144 176 gemhead 200;
#X connect 1 0 2 0;
#X connect 2 0 1 0;
#X connect 4 0 7 0;
#X connect 5 0 7 1;
#X connect 6 0 4 0;
#X connect 6 1 5 0;
#X connect 7 0 14 1;
#X connect 8 0 11 0;
#X connect 9 0 12 1;
#X connect 10 0 12 1;
#X connect 11 0 9 0;
#X connect 11 1 10 0;
#X connect 12 0 13 0;
#X connect 14 0 12 0;
#X connect 14 1 8 0;
#X connect 15 0 14 0;
