#N canvas 481 304 643 494 10;
#X obj 49 113 inlet;
#X obj 250 288 outlet click;
#X obj 82 24 inlet mouse;
#X obj 429 -133 loadbang;
#X obj 429 -111 t b b;
#X obj 334 -123 inlet wh;
#X obj 334 -95 unpack f f;
#X obj 250 231 k_mouseover;
#X obj 301 187 k_2pos;
#X obj 411 33 pack f f;
#X obj 49 239 scaleXYZ;
#X obj 49 199 translateXYZ;
#X obj 178 -42 inlet pos;
#X obj 178 -6 unpack f f;
#X obj 345 -68 init \$3;
#X obj 456 -84 init \$4;
#X obj 178 48 f;
#X obj 235 46 f;
#X obj 270 -46 loadbang;
#X obj 270 -24 t b b;
#X obj 270 13 init \$1;
#X obj 297 44 init \$2;
#X obj 334 -36 f;
#X obj 456 -52 f;
#X obj 49 275 outlet;
#X floatatom 176 72 5 0 0 0 - - -;
#X floatatom 235 70 5 0 0 0 - - -;
#X obj 334 1 expr if($f1==0 \, 1 \, $f1);
#X obj 456 -26 expr if($f1==0 \, 1 \, $f1);
#X obj 301 150 pack f f;
#X obj 250 189 list;
#X obj 49 140 t a b;
#X connect 0 0 31 0;
#X connect 2 0 30 1;
#X connect 3 0 4 0;
#X connect 4 0 14 0;
#X connect 4 1 15 0;
#X connect 5 0 6 0;
#X connect 6 0 22 0;
#X connect 6 1 23 0;
#X connect 7 0 1 0;
#X connect 8 0 7 1;
#X connect 8 1 7 2;
#X connect 9 0 8 1;
#X connect 10 0 24 0;
#X connect 11 0 10 0;
#X connect 12 0 13 0;
#X connect 13 0 16 0;
#X connect 13 1 17 0;
#X connect 14 0 22 0;
#X connect 15 0 23 0;
#X connect 16 0 25 0;
#X connect 17 0 26 0;
#X connect 18 0 19 0;
#X connect 19 0 20 0;
#X connect 19 1 21 0;
#X connect 20 0 16 0;
#X connect 21 0 17 0;
#X connect 22 0 27 0;
#X connect 23 0 28 0;
#X connect 25 0 11 1;
#X connect 25 0 29 0;
#X connect 26 0 11 2;
#X connect 26 0 29 1;
#X connect 27 0 9 0;
#X connect 27 0 10 1;
#X connect 28 0 9 1;
#X connect 28 0 10 2;
#X connect 29 0 8 0;
#X connect 30 0 7 0;
#X connect 31 0 11 0;
#X connect 31 1 30 0;
