#N canvas 146 59 1146 669 10;
#X obj 103 123 cnv 15 154 44 empty empty empty 15 8 0 14 -228856 -66577
0;
#X obj -283 105 pack;
#X obj -283 127 spigot;
#X obj -283 148 unpack;
#X obj -283 259 t f f;
#X obj -283 190 +;
#X obj -218 254 t f f;
#X obj -218 204 +;
#X obj -240 3 t f f;
#X obj -239 33 -;
#X obj -281 21 t f f;
#X obj -283 52 -;
#X obj -218 178 * 0.5;
#X obj -283 170 * 0.5;
#X obj -239 58 t f f;
#X obj -80 137 spigot;
#X obj -47 111 tgl 15 0 empty empty empty 17 7 0 10 -262144 -1 -1 0
1;
#X obj -80 215 t f f;
#X obj -80 188 +;
#X floatatom -80 247 7 0 0 0 - - -;
#X obj -250 106 tgl 15 0 empty empty empty 17 7 0 10 -262144 -1 -1
0 1;
#N canvas 452 372 988 519 spigot 0;
#X obj 67 40 spigot;
#X obj 115 40 spigot;
#X obj 231 40 spigot;
#X obj 278 39 spigot;
#X obj 68 -20 inlet;
#X obj 118 -22 inlet;
#X obj 234 -20 inlet;
#X obj 280 -21 inlet;
#X obj 69 86 outlet;
#X obj 114 88 outlet;
#X obj 230 86 outlet;
#X obj 279 86 outlet;
#X obj -54 25 / 640;
#X obj 18 42 / 480;
#X obj -11 -90 r \$0-xy;
#X obj -11 -67 unpack f f;
#X obj 167 126 s mouseleft;
#X obj 167 72 spigot;
#X obj -54 81 s \$0-x;
#X obj 18 116 s \$0-y;
#X obj -54 53 spigot;
#X obj 18 88 spigot;
#X obj 345 -99 unpack f f;
#X msg 346 -129 0 1;
#X msg 377 -130 1 0;
#X obj 346 -155 sel 0 1;
#X obj 340 86 spigot;
#X obj 339 137 s mouseright;
#X obj 346 -178 r module-b;
#X floatatom -39 135 5 0 0 0 - - -;
#X floatatom 55 156 5 0 0 0 - - -;
#X connect 0 0 8 0;
#X connect 1 0 9 0;
#X connect 2 0 10 0;
#X connect 3 0 11 0;
#X connect 4 0 0 0;
#X connect 4 0 12 0;
#X connect 5 0 1 0;
#X connect 5 0 13 0;
#X connect 6 0 2 0;
#X connect 6 0 17 0;
#X connect 7 0 3 0;
#X connect 7 0 26 0;
#X connect 12 0 20 0;
#X connect 12 0 29 0;
#X connect 13 0 21 0;
#X connect 13 0 30 0;
#X connect 14 0 15 0;
#X connect 15 0 12 1;
#X connect 15 1 13 1;
#X connect 17 0 16 0;
#X connect 20 0 18 0;
#X connect 21 0 19 0;
#X connect 22 0 20 1;
#X connect 22 0 21 1;
#X connect 22 0 17 1;
#X connect 22 0 26 1;
#X connect 22 1 0 1;
#X connect 22 1 1 1;
#X connect 22 1 2 1;
#X connect 22 1 3 1;
#X connect 23 0 22 0;
#X connect 24 0 22 0;
#X connect 25 0 23 0;
#X connect 25 1 24 0;
#X connect 26 0 27 0;
#X connect 28 0 25 0;
#X restore -281 -27 pd spigot;
#X obj -80 162 * 2;
#X obj -260 -112 gemmouse;
#X obj -218 279 * -1;
#X obj -283 285 * -1;
#X floatatom -218 230 5 0 0 0 - - -;
#X floatatom -283 79 5 0 0 0 - - -;
#X floatatom -240 81 5 0 0 0 - - -;
#X obj -346 148 r \$0-addx;
#X obj -235 148 r \$0-addy;
#X obj -227 -76 s mousecenter;
#X obj -318 -58 / 2;
#X obj -376 -110 r \$0-xy;
#X obj -376 -87 unpack f f;
#X obj -377 -58 / 2;
#X obj -370 -26 pack f f;
#X msg -370 2 set \$1 \$2;
#X msg -372 29 320 240;
#X obj -372 50 unpack f f;
#X obj -380 98 line;
#X obj -338 122 line;
#X msg -380 75 \$1 50;
#X msg -338 100 \$1 50;
#X obj 103 104 cnv 15 154 20 empty empty k_buffer 40 12 1 14 -1 -258113
0;
#N canvas 929 202 467 481 (subpatch) 0;
#X obj 27 0 tgl 15 0 empty empty Ro 0 7 0 10 -258113 -1 -1 1 1;
#X obj 58 0 hsl 50 15 2 30 0 0 empty empty empty -2 -8 0 10 -262144
-1 -1 4900 1;
#X obj 79 255 s v-speed;
#X obj 44 137 sel 0;
#X obj 79 227 expr abs((($f1-10)/100)-1);
#X msg 44 162 0.5;
#X obj 60 -156 r module-b;
#X obj 27 -79 spigot;
#X obj 60 -131 invert;
#X msg -165 187 -0.112895;
#X msg -55 130 set \$1;
#X msg -4 246 set \$1;
#X obj -165 70 t f f f;
#X obj 167 154 s \$0-addx;
#X obj -165 224 s \$0-addx;
#X obj 167 98 metro 50;
#X obj -13 -159 r module-b;
#X obj -46 -82 spigot;
#X obj -13 -134 invert;
#X obj -46 -108 r hid7;
#X obj 27 -108 r hid8;
#X obj 1 0 tgl 15 0 empty empty Ra 0 7 0 10 -258113 -1 -1 0 1;
#X obj -165 131 metro 50;
#X obj 79 202 line;
#X msg 79 178 \$1 1000;
#X obj 62 -49 loadbang;
#X obj -55 62 metro 5000;
#X msg -87 226 -2.16633;
#X obj -87 170 metro 50;
#X obj -87 263 s \$0-addy;
#X obj -103 -82 r gem-ra;
#X obj 72 -80 r gem-ro;
#X obj 168 10 s gem-bg-color;
#X floatatom 212 49 5 0 0 0 - - -;
#X msg 167 125 1;
#X obj 212 74 i;
#X msg 62 -25 30;
#X obj -5 200 randomF 2;
#X obj -4 223 - 1;
#X obj -55 84 randomF 2;
#X obj -55 107 - 1;
#X connect 0 0 3 0;
#X connect 0 0 15 0;
#X connect 1 0 24 0;
#X connect 1 0 32 0;
#X connect 1 0 33 0;
#X connect 3 0 5 0;
#X connect 4 0 2 0;
#X connect 5 0 2 0;
#X connect 6 0 8 0;
#X connect 7 0 0 0;
#X connect 8 0 7 1;
#X connect 9 0 14 0;
#X connect 10 0 9 0;
#X connect 11 0 27 0;
#X connect 12 0 22 0;
#X connect 12 1 28 0;
#X connect 12 2 26 0;
#X connect 15 0 34 0;
#X connect 16 0 18 0;
#X connect 17 0 21 0;
#X connect 18 0 17 1;
#X connect 19 0 17 0;
#X connect 20 0 7 0;
#X connect 21 0 12 0;
#X connect 22 0 9 0;
#X connect 23 0 4 0;
#X connect 24 0 23 0;
#X connect 25 0 36 0;
#X connect 26 0 37 0;
#X connect 26 0 39 0;
#X connect 27 0 29 0;
#X connect 28 0 27 0;
#X connect 30 0 21 0;
#X connect 31 0 0 0;
#X connect 33 0 35 0;
#X connect 34 0 13 0;
#X connect 35 0 15 1;
#X connect 36 0 1 0;
#X connect 37 0 38 0;
#X connect 38 0 11 0;
#X connect 39 0 40 0;
#X connect 40 0 10 0;
#X coords 0 1 100 -1 110 15 1 0 0;
#X restore 105 131 graph;
#X floatatom -173 261 5 0 0 0 - - -;
#X floatatom -218 303 5 0 0 0 - - -;
#X obj -200 81 unpack f f f f;
#X obj -190 205 moses -89.9;
#X obj -173 238 moses 89.9;
#N canvas 838 447 450 300 smooth 0;
#X obj -224 62 inlet;
#X obj -147 223 pack f f f;
#X obj -147 252 outlet;
#X obj -118 18 inlet;
#X obj 2 67 inlet;
#X obj -118 163 t b f;
#X obj 2 136 t b f;
#X obj 2 114 line;
#X msg 2 89 \$1 3000;
#X connect 0 0 1 0;
#X connect 1 0 2 0;
#X connect 3 0 5 0;
#X connect 4 0 8 0;
#X connect 5 0 1 0;
#X connect 5 1 1 1;
#X connect 6 0 1 0;
#X connect 6 1 1 2;
#X connect 7 0 6 0;
#X connect 8 0 7 0;
#X restore -336 365 pd smooth;
#X obj -27 224 loadbang;
#X obj -27 276 s module-b;
#X msg -27 250 0;
#X obj -336 387 s control-buffer;
#N canvas 664 430 532 309 camera===== 0;
#X obj -209 73 outlet;
#X obj -209 12 r \$0-top;
#X msg -209 45 0 0 0 0;
#X connect 1 0 2 0;
#X connect 2 0 0 0;
#X restore -200 46 pd camera=====;
#X obj -54 -101 gemkeyboard;
#X msg 95 36 0 0 0;
#X obj 95 58 s viewpoint;
#X obj 173 59 s fix-view;
#X obj 173 35 t b;
#X floatatom -54 -75 5 0 0 0 - - -;
#X obj -54 -53 sel 13 0 1 2 7;
#X obj -54 -25 s \$0-top;
#X obj -38 1 s \$0-left;
#X obj -22 29 s \$0-front;
#X obj 95 -3 t b b b;
#X obj 95 -50 gemkeyboard;
#X obj 95 -27 sel 48;
#X obj 4 -27 s \$0-right;
#X obj 32 -1 s \$0-down;
#X obj 250 -64 gemkeyboard;
#X floatatom 250 -38 5 0 0 0 - - -;
#X obj 250 -16 sel 12 14;
#X obj 250 62 s z-dis;
#X msg 1 134 0;
#X obj -26 86 r z-dis;
#X obj -26 109 t f b;
#X obj -81 359 atan;
#X msg -81 338 1;
#X obj -81 317 loadbang;
#X obj -101 406 *;
#X floatatom -285 341 5 0 0 0 - - -;
#X floatatom -172 310 5 0 0 0 - - -;
#X obj -81 381 / -45;
#X obj -101 431 + 4;
#X obj 221 135 tgl 30 0 empty empty R 11 15 0 15 -258113 -1 -1 0 1
;
#X msg 248 217 destroy;
#X obj 221 196 sel 1;
#X obj 362 -1 r gem-color;
#X msg 362 66 fogcolor \$1 0 0;
#X obj 221 289 gemwin 30;
#X obj 274 131 s buffer-reset;
#X msg 250 14 150;
#X msg 275 35 400;
#X msg 390 189 fog \$1;
#X obj 393 146 hsl 50 15 0 1 0 0 empty gem-fog empty -2 -8 0 10 -262144
-1 -1 245 1;
#X floatatom 390 167 5 0 0 0 - - -;
#X obj 362 45 * 0.5;
#X floatatom 362 22 5 0 0 0 - - -;
#X obj -283 215 % 360;
#X floatatom -283 236 5 0 0 0 - - -;
#X obj -361 306 s fader;
#X floatatom -361 285 5 0 0 0 - - -;
#X obj 24 350 r z-dis;
#X obj 24 373 expr 1-(($f1-150)/250);
#X obj 24 396 s v-distance;
#X obj 201 150 bng 15 250 50 0 empty empty empty 17 7 0 10 -262144
-1 -1;
#X msg 105 262 \; focus.gui 0.5 \; bias.gui 0.05;
#N canvas 143 152 450 300 (subpatch) 0;
#X msg 0 21 fullscreen \$1;
#X obj 0 0 hradio 15 1 0 3 empty empty F-Screen 47 8 0 10 -262144 -1
-1 2;
#X obj 0 46 s \$0-control-gem;
#X obj 137 4 r gem-screen;
#X connect 0 0 2 0;
#X connect 1 0 0 0;
#X connect 3 0 1 0;
#X coords 0 1 100 -1 45 15 1 0 0;
#X restore 105 150 graph;
#X obj 286 289 r \$0-control-gem;
#X msg 221 238 perspec -1 1 -1 1 1 100 \, FSAA 0 \, dimen 800 600 \,
color 1 0 0 \, fogcolor 1 1 1 \, fog 0 \, fogmode 3 \, create \, 1
;
#X connect 1 0 2 0;
#X connect 2 0 3 0;
#X connect 3 0 13 0;
#X connect 3 1 12 0;
#X connect 4 0 25 0;
#X connect 4 1 5 1;
#X connect 5 0 101 0;
#X connect 6 0 24 0;
#X connect 6 1 7 1;
#X connect 7 0 26 0;
#X connect 8 0 9 1;
#X connect 8 1 9 0;
#X connect 9 0 14 0;
#X connect 10 0 11 1;
#X connect 10 1 11 0;
#X connect 11 0 27 0;
#X connect 12 0 7 0;
#X connect 13 0 5 0;
#X connect 14 0 28 0;
#X connect 14 1 15 0;
#X connect 15 0 22 0;
#X connect 16 0 15 1;
#X connect 17 0 19 0;
#X connect 17 1 18 1;
#X connect 18 0 17 0;
#X connect 19 0 82 0;
#X connect 20 0 2 1;
#X connect 21 0 10 0;
#X connect 21 1 8 0;
#X connect 21 2 20 0;
#X connect 21 3 16 0;
#X connect 22 0 18 0;
#X connect 23 0 42 0;
#X connect 23 1 43 0;
#X connect 23 2 21 2;
#X connect 23 3 31 0;
#X connect 23 4 21 3;
#X connect 24 0 47 0;
#X connect 25 0 51 1;
#X connect 26 0 49 0;
#X connect 27 0 1 0;
#X connect 28 0 1 1;
#X connect 29 0 5 0;
#X connect 30 0 7 0;
#X connect 32 0 36 1;
#X connect 33 0 34 0;
#X connect 34 0 35 0;
#X connect 34 1 32 0;
#X connect 35 0 36 0;
#X connect 36 0 37 0;
#X connect 37 0 38 0;
#X connect 38 0 39 0;
#X connect 39 0 42 0;
#X connect 39 1 43 0;
#X connect 40 0 21 0;
#X connect 41 0 21 1;
#X connect 42 0 40 0;
#X connect 43 0 41 0;
#X connect 46 0 6 0;
#X connect 47 0 51 0;
#X connect 48 0 5 0;
#X connect 48 1 5 1;
#X connect 48 2 7 0;
#X connect 48 3 7 1;
#X connect 49 1 50 0;
#X connect 50 0 46 0;
#X connect 51 0 55 0;
#X connect 52 0 54 0;
#X connect 54 0 53 0;
#X connect 56 0 48 0;
#X connect 57 0 62 0;
#X connect 58 0 59 0;
#X connect 61 0 60 0;
#X connect 62 0 63 0;
#X connect 63 0 64 0;
#X connect 63 1 65 0;
#X connect 63 2 66 0;
#X connect 63 3 70 0;
#X connect 63 4 71 0;
#X connect 67 0 58 0;
#X connect 67 1 61 0;
#X connect 68 0 69 0;
#X connect 69 0 67 0;
#X connect 72 0 73 0;
#X connect 73 0 74 0;
#X connect 74 0 94 0;
#X connect 74 1 95 0;
#X connect 76 0 18 1;
#X connect 77 0 78 0;
#X connect 78 0 18 0;
#X connect 78 1 76 0;
#X connect 79 0 85 0;
#X connect 80 0 79 0;
#X connect 81 0 80 0;
#X connect 82 0 86 0;
#X connect 83 0 51 2;
#X connect 84 0 82 0;
#X connect 85 0 82 1;
#X connect 86 0 83 0;
#X connect 87 0 89 0;
#X connect 88 0 92 0;
#X connect 89 0 112 0;
#X connect 89 0 93 0;
#X connect 89 0 109 0;
#X connect 89 1 88 0;
#X connect 90 0 100 0;
#X connect 94 0 75 0;
#X connect 95 0 75 0;
#X connect 96 0 92 0;
#X connect 97 0 98 0;
#X connect 98 0 96 0;
#X connect 99 0 91 0;
#X connect 100 0 99 0;
#X connect 101 0 102 0;
#X connect 102 0 4 0;
#X connect 102 0 104 0;
#X connect 104 0 103 0;
#X connect 105 0 106 0;
#X connect 106 0 107 0;
#X connect 108 0 109 0;
#X connect 111 0 92 0;
#X connect 112 0 92 0;
#X coords 0 -1 1 1 160 70 1 100 100;
