#N canvas 412 216 1022 611 10;
#X obj 101 120 cnv 15 68 18 empty \$0-Y y=84 3 11 0 16 -233017 -1 0
;
#X obj 101 101 cnv 15 68 18 empty \$0-X x=109 3 11 0 16 -233017 -1
0;
#X msg 412 257 label \$1;
#X obj 412 281 send \$0-Y;
#X obj 280 196 unpack float float float;
#X msg 246 257 label \$1;
#X obj 246 281 send \$0-X;
#X obj 175 -94 inlet;
#X obj 175 4 select 0;
#X obj 175 -69 route float bang;
#X obj 280 121 cyclone/gate 2;
#N canvas 0 22 454 304 capture 0;
#X obj 216 104 loadbang;
#X obj 250 191 route motion;
#X obj 188 169 toxy/tot .parent;
#X msg 188 148 capture \$1;
#X msg 188 127 1;
#X msg 124 127 0;
#X obj 102 46 inlet;
#X obj 197 46 inlet;
#X obj 250 227 outlet;
#X obj 197 67 bang;
#X obj 102 70 bang;
#X connect 0 0 4 0;
#X connect 1 0 8 0;
#X connect 2 2 1 0;
#X connect 3 0 2 0;
#X connect 4 0 3 0;
#X connect 5 0 3 0;
#X connect 6 0 10 0;
#X connect 7 0 9 0;
#X connect 9 0 4 0;
#X connect 10 0 5 0;
#X restore 376 156 pd capture motion;
#X obj 175 -17 trigger float bang;
#X msg 280 4 1;
#X obj 220 -94 tgl 15 0 empty empty empty 17 7 0 10 -262144 -1 -1 1
1;
#X obj 254 -94 loadbang;
#X obj 246 233 zexy/makesymbol x=%s;
#X obj 412 233 zexy/makesymbol y=%s;
#X connect 2 0 3 0;
#X connect 4 0 16 0;
#X connect 4 1 17 0;
#X connect 5 0 6 0;
#X connect 7 0 9 0;
#X connect 8 0 11 0;
#X connect 8 1 11 1;
#X connect 9 0 12 0;
#X connect 10 0 4 0;
#X connect 10 1 11 0;
#X connect 10 1 4 0;
#X connect 11 0 10 1;
#X connect 12 0 8 0;
#X connect 12 1 13 0;
#X connect 13 0 10 0;
#X connect 14 0 9 0;
#X connect 15 0 14 0;
#X connect 16 0 5 0;
#X connect 17 0 2 0;
#X coords 0 -1 1 1 70 40 1 100 100;
