#N canvas 0 22 626 574 10;
#X obj 130 163 gemwin;
#X obj 75 60 k_camera;
#X obj 313 17 gemhead;
#X obj 313 121 color 1 0 0;
#X obj 313 85 translateXYZ 0 0 0;
#X msg 126 121 reset \, create \, 1;
#X obj 459 23 gemhead;
#X obj 459 127 color 1 1 0;
#X obj 311 196 gemhead;
#X obj 457 202 gemhead;
#X obj 311 264 translateXYZ -1 1 -1;
#X obj 311 300 color 1 1 1;
#X obj 457 270 translateXYZ 2 0.5 -2;
#X obj 457 306 color 0 1 0;
#X obj 312 392 gemhead;
#X obj 458 398 gemhead;
#X obj 312 460 translateXYZ -2 -2 -2;
#X obj 312 496 color 1 0 1;
#X obj 458 466 translateXYZ 4 2.5 -3;
#X obj 458 502 color 0 0.5 1;
#X obj 459 91 translateXYZ 2 -2 2;
#X obj 311 339 sphere 0.3 20;
#X obj 457 345 sphere 0.3 20;
#X obj 458 541 sphere 0.3 20;
#X obj 312 535 sphere 0.3 20;
#X obj 313 160 sphere 0.3 20;
#X obj 459 166 sphere 0.3 20;
#X connect 1 0 0 0;
#X connect 2 0 4 0;
#X connect 3 0 25 0;
#X connect 4 0 3 0;
#X connect 5 0 0 0;
#X connect 6 0 20 0;
#X connect 7 0 26 0;
#X connect 8 0 10 0;
#X connect 9 0 12 0;
#X connect 10 0 11 0;
#X connect 11 0 21 0;
#X connect 12 0 13 0;
#X connect 13 0 22 0;
#X connect 14 0 16 0;
#X connect 15 0 18 0;
#X connect 16 0 17 0;
#X connect 17 0 24 0;
#X connect 18 0 19 0;
#X connect 19 0 23 0;
#X connect 20 0 7 0;
