#N canvas 392 278 483 441 10;
#X obj 188 204 f;
#X obj 216 204 + 1;
#X floatatom 314 188 5 0 0 0 - - -;
#X obj 188 153 inlet;
#X obj 188 231 outlet;
#X obj 231 153 inlet;
#X obj 271 153 inlet;
#X obj 266 49 init \$1;
#X obj 320 49 init \$2;
#X obj 266 81 moses 0;
#X obj 320 79 moses 0;
#X floatatom 231 178 5 0 0 0 - - -;
#X obj 248 204 fmod 10;
#X connect 0 0 1 0;
#X connect 0 0 4 0;
#X connect 1 0 12 0;
#X connect 2 0 12 1;
#X connect 3 0 0 0;
#X connect 5 0 11 0;
#X connect 6 0 2 0;
#X connect 7 0 9 0;
#X connect 8 0 10 0;
#X connect 9 1 11 0;
#X connect 10 1 2 0;
#X connect 11 0 1 1;
#X connect 12 0 0 1;
