#N canvas 343 314 522 440 10;
#X obj 103 117 cnv 15 74 40 empty empty empty 20 12 0 14 -1 -66577
0;
#X obj 154 44 cputime;
#X obj 154 88 * 0.1;
#X obj 154 63 int;
#X obj 154 -38 loadbang;
#X obj 106 126 nbx 3 20 0 500 0 0 empty empty empty -30 10 0 15 -24198
-1 -262144 11 256;
#N canvas 864 154 451 440 size&color 0;
#X obj 89 133 inlet;
#X msg 84 212 0;
#X msg 140 229 1;
#X msg 120 314 color 14;
#X msg 300 314 color 13;
#X msg 47 311 color 16;
#X obj 120 256 change -1;
#X msg 201 238 2;
#X msg 251 244 3;
#X obj 123 284 sel 0 1 2 3;
#X msg 180 313 color -1.5626e+07;
#X floatatom 89 160 5 0 0 0 - - -;
#X obj 152 371 outlet;
#X obj 89 185 moses 50;
#X obj 141 206 moses 100;
#X obj 201 216 moses 200;
#X connect 0 0 11 0;
#X connect 1 0 6 0;
#X connect 2 0 6 0;
#X connect 3 0 12 0;
#X connect 4 0 12 0;
#X connect 5 0 12 0;
#X connect 6 0 9 0;
#X connect 7 0 6 0;
#X connect 8 0 6 0;
#X connect 9 0 5 0;
#X connect 9 1 3 0;
#X connect 9 2 10 0;
#X connect 9 3 4 0;
#X connect 10 0 12 0;
#X connect 11 0 13 0;
#X connect 13 0 1 0;
#X connect 13 1 14 0;
#X connect 14 0 2 0;
#X connect 14 1 15 0;
#X connect 15 0 7 0;
#X connect 15 1 8 0;
#X restore 195 81 pd size&color;
#X obj 228 37 apple/cpu_temperature;
#X obj 154 25 t b b b;
#X obj 236 119 nbx 2 20 -1e+37 1e+37 0 0 empty empty empty 0 -8 0 10
-262144 -1 -1 81.75 256;
#X obj 154 -13 tgl 15 0 empty empty empty 17 7 0 10 -262144 -1 -1 1
1;
#X obj 51 213 outlet;
#X obj 154 6 metro 1000;
#X obj 107 172 average 20;
#X connect 1 0 3 0;
#X connect 2 0 6 0;
#X connect 2 0 5 0;
#X connect 3 0 2 0;
#X connect 4 0 10 0;
#X connect 5 0 13 0;
#X connect 6 0 5 0;
#X connect 7 0 9 0;
#X connect 8 0 1 0;
#X connect 8 1 1 1;
#X connect 8 2 7 0;
#X connect 10 0 12 0;
#X connect 12 0 8 0;
#X connect 13 0 11 0;
#X coords 0 -1 1 1 80 60 1 100 100;
