#N canvas 396 346 522 440 10;
#X obj 130 7 cputime;
#X obj 130 51 * 0.1;
#X obj 130 26 int;
#X obj 130 -75 loadbang;
#X obj 102 115 nbx 3 18 0 500 0 0 empty empty empty -30 10 0 15 -227043
-1 -262144 78 256;
#N canvas 19 332 451 440 size&color 0;
#X obj 89 133 inlet;
#X msg 84 212 0;
#X msg 140 229 1;
#X obj 123 261 change -1;
#X msg 209 216 2;
#X msg 259 222 3;
#X obj 123 284 sel 0 1 2 3;
#X floatatom 89 160 5 0 0 0 - - -, f 5;
#X obj 152 371 outlet;
#X obj 186 -2 colorpanel;
#X obj 187 -20 bng 15 250 50 0 empty empty empty 17 7 0 10 -262144
-1 -1;
#N canvas 15 207 606 448 RGB_____________ 0;
#X obj 262 19 inlet;
#X obj 339 55 inlet;
#X obj 405 56 inlet;
#X text 267 -6 red;
#X text 337 30 green;
#X text 409 30 blue;
#X obj 405 102 t b f;
#X obj 339 160 +;
#X obj 339 185 t b f;
#X obj 339 216 +;
#X obj 296 108 * -65536;
#X obj 339 80 * -256;
#X obj 405 80 * -1;
#X obj 339 247 - 1;
#X obj 261 45 t b f;
#X obj 339 269 outlet;
#X connect 0 0 14 0;
#X connect 1 0 11 0;
#X connect 2 0 12 0;
#X connect 6 0 7 0;
#X connect 6 1 7 1;
#X connect 7 0 8 0;
#X connect 8 0 9 0;
#X connect 8 1 9 1;
#X connect 9 0 13 0;
#X connect 10 0 9 0;
#X connect 11 0 7 0;
#X connect 12 0 6 0;
#X connect 13 0 15 0;
#X connect 14 0 13 0;
#X connect 14 1 10 0;
#X restore 173 98 pd RGB_____________;
#X obj 186 20 unpack f f f;
#X msg 172 120 set \$1;
#X obj 186 42 * 255;
#X obj 186 64 int;
#X obj 223 44 * 255;
#X obj 223 66 int;
#X obj 270 42 * 255;
#X obj 270 64 int;
#X msg 72 315 color -5.07441e+06;
#X msg 130 339 color -2.40727e+06;
#X msg 172 142 -1.42288e+07;
#X msg 232 313 color -1.45115e+07;
#X msg 274 341 color -1.42288e+07;
#X obj 89 185 moses 25;
#X obj 141 206 moses 50;
#X obj 209 194 moses 100;
#X connect 0 0 7 0;
#X connect 1 0 3 0;
#X connect 2 0 3 0;
#X connect 3 0 6 0;
#X connect 4 0 3 0;
#X connect 5 0 3 0;
#X connect 6 0 20 0;
#X connect 6 1 21 0;
#X connect 6 2 23 0;
#X connect 6 3 24 0;
#X connect 7 0 25 0;
#X connect 9 0 12 0;
#X connect 10 0 9 0;
#X connect 11 0 13 0;
#X connect 12 0 14 0;
#X connect 12 1 16 0;
#X connect 12 2 18 0;
#X connect 13 0 22 0;
#X connect 14 0 15 0;
#X connect 15 0 11 0;
#X connect 16 0 17 0;
#X connect 17 0 11 1;
#X connect 18 0 19 0;
#X connect 19 0 11 2;
#X connect 20 0 8 0;
#X connect 21 0 8 0;
#X connect 23 0 8 0;
#X connect 24 0 8 0;
#X connect 25 0 1 0;
#X connect 25 1 26 0;
#X connect 26 0 2 0;
#X connect 26 1 27 0;
#X connect 27 0 4 0;
#X connect 27 1 5 0;
#X restore 171 82 pd size&color;
#X obj 204 38 apple/cpu_temperature;
#X obj 130 -12 t b b b;
#X obj 212 120 nbx 2 20 -1e+37 1e+37 0 0 empty empty empty 0 -8 0 10
-262144 -1 -1 0 256;
#X obj 130 -50 tgl 15 0 empty empty empty 17 7 0 10 -262144 -1 -1 1
1;
#X obj 101 145 outlet;
#X obj 130 -31 metro 1000;
#X connect 0 0 2 0;
#X connect 1 0 5 0;
#X connect 1 0 4 0;
#X connect 2 0 1 0;
#X connect 3 0 9 0;
#X connect 4 0 10 0;
#X connect 5 0 4 0;
#X connect 6 0 8 0;
#X connect 7 0 0 0;
#X connect 7 1 0 1;
#X connect 7 2 6 0;
#X connect 9 0 11 0;
#X connect 11 0 7 0;
#X coords 0 -1 1 1 55 35 1 100 100;
