#N canvas 146 66 1142 680 10;
#X obj 102 102 cnv 15 546 206 empty empty k_dac 5 12 0 14 -262144 -66577
0;
#X obj 105 42 inlet~;
#X obj 245 36 inlet~;
#X obj 100 130 k_vol;
#X obj -66 320 env~;
#X floatatom -66 343 5 0 0 0 - - -;
#X obj -67 362 - 100;
#X obj 377 361 env~;
#X floatatom 377 386 5 0 0 0 - - -;
#X obj 376 405 - 100;
#N canvas 649 188 734 553 size&color 0;
#X obj 90 14 inlet;
#X obj 26 371 s \$0left;
#X obj 88 121 t f f;
#X msg 157 213 0;
#X msg 213 230 1;
#X msg 193 315 color 14;
#X msg 373 315 color 13;
#X msg 120 312 color 16;
#X obj 193 257 change -1;
#X msg 274 239 2;
#X obj 274 218 moses 100;
#X msg 324 245 3;
#X obj 196 285 sel 0 1 2 3;
#X msg 253 314 color -1.5626e+07;
#X obj 324 271 s \$0peak;
#X msg 43 217 vis_size \$1 15;
#X floatatom 67 156 5 0 0 0 - - -;
#X obj 67 178 * 2;
#X obj 214 207 moses 95;
#X obj 162 186 moses 90;
#X obj 217 113 cnv 15 100 60 empty empty empty 20 12 0 14 -233017 -66577
0;
#X connect 0 0 2 0;
#X connect 2 0 16 0;
#X connect 2 1 19 0;
#X connect 3 0 8 0;
#X connect 4 0 8 0;
#X connect 5 0 1 0;
#X connect 6 0 1 0;
#X connect 7 0 1 0;
#X connect 8 0 12 0;
#X connect 9 0 8 0;
#X connect 10 0 9 0;
#X connect 10 1 11 0;
#X connect 11 0 8 0;
#X connect 11 0 14 0;
#X connect 12 0 7 0;
#X connect 12 1 5 0;
#X connect 12 2 13 0;
#X connect 12 3 6 0;
#X connect 13 0 1 0;
#X connect 15 0 1 0;
#X connect 16 0 17 0;
#X connect 17 0 15 0;
#X connect 18 0 4 0;
#X connect 18 1 10 0;
#X connect 19 0 3 0;
#X connect 19 1 18 0;
#X restore -67 439 pd size&color;
#X floatatom -67 391 5 0 0 0 - - -;
#X obj -67 415 + 101;
#X obj 376 431 + 101;
#X obj 104 239 cnv 15 200 15 empty empty L-VOL 205 8 0 10 -1 -1 0;
#X obj 104 239 cnv 1 156 15 empty \$0left -22 5 7 0 14 -24198 -262144
0;
#X obj 104 266 cnv 15 200 15 empty empty R-VOL 205 8 0 10 -1 -1 0;
#X obj 104 266 cnv 1 153 15 empty \$0right -24 5 7 0 14 -24198 -262144
0;
#N canvas 649 188 734 553 size&color 0;
#X obj 90 14 inlet;
#X obj 88 121 t f f;
#X msg 157 213 0;
#X msg 213 230 1;
#X msg 193 315 color 14;
#X msg 373 315 color 13;
#X msg 120 312 color 16;
#X obj 193 257 change -1;
#X msg 274 239 2;
#X obj 274 218 moses 100;
#X msg 324 245 3;
#X obj 196 285 sel 0 1 2 3;
#X msg 253 314 color -1.5626e+07;
#X obj 324 271 s \$0peak;
#X msg 43 217 vis_size \$1 15;
#X floatatom 67 156 5 0 0 0 - - -;
#X obj 67 178 * 2;
#X obj 214 207 moses 95;
#X obj 162 186 moses 90;
#X obj 26 371 s \$0right;
#X connect 0 0 1 0;
#X connect 1 0 15 0;
#X connect 1 1 18 0;
#X connect 2 0 7 0;
#X connect 3 0 7 0;
#X connect 4 0 19 0;
#X connect 5 0 19 0;
#X connect 6 0 19 0;
#X connect 7 0 11 0;
#X connect 8 0 7 0;
#X connect 9 0 8 0;
#X connect 9 1 10 0;
#X connect 10 0 7 0;
#X connect 10 0 13 0;
#X connect 11 0 6 0;
#X connect 11 1 4 0;
#X connect 11 2 12 0;
#X connect 11 3 5 0;
#X connect 12 0 19 0;
#X connect 14 0 19 0;
#X connect 15 0 16 0;
#X connect 16 0 14 0;
#X connect 17 0 3 0;
#X connect 17 1 9 0;
#X connect 18 0 2 0;
#X connect 18 1 17 0;
#X restore 376 458 pd size&color;
#X msg 463 392 \; volgrid xticks 0 1 10 \;;
#N canvas 0 22 450 300 (subpatch) 0;
#X array volgrid 100 float 3;
#A 0 0 0 0 0 0 0 0 0 0 0 0 0 0 0 0 0 0 0 0 0 0 0 0 0 0 0 0 0 0 0 0
0 0 0 0 0 0 0 0 0 0 0 0 0 0 0 0 0 0 0 0 0 0 0 0 0 0 0 0 0 0 0 0 0 0
0 0 0 0 0 0 0 0 0 0 0 0 0 0 0 0 0 0 0 0 0 0 0 0 0 0 0 0 0 0 0 0 0 0
0;
#X coords 0 0 100 1 200 60 1;
#X restore 104 229 graph;
#X obj 463 367 loadbang;
#X obj 263 293 cnv 8 1 1 empty empty -20 0 5 0 8 -262144 -1 0;
#X obj 301 293 cnv 8 1 1 empty empty 0 0 5 0 8 -262144 -1 0;
#X obj 104 293 cnv 8 1 1 empty empty -100 0 5 0 8 -262144 -1 0;
#X obj 144 293 cnv 8 1 1 empty empty -80 0 5 0 8 -262144 -1 0;
#X obj 183 293 cnv 8 1 1 empty empty -60 0 5 0 8 -262144 -1 0;
#X obj 223 293 cnv 8 1 1 empty empty -40 0 5 0 8 -262144 -1 0;
#X obj -3 109 dac~;
#X obj -27 414 s \$0left;
#X msg -27 390 label \$1;
#X obj -27 362 makefilename %d;
#X msg 461 457 label \$1;
#X obj 461 429 makefilename %d;
#X obj 461 481 s \$0right;
#X obj 667 250 netsend~ 2;
#X msg 667 174 disconnect;
#X floatatom 667 273 5 0 0 0 - - -;
#X floatatom 724 273 5 0 0 0 - - -;
#X msg 686 210 connect 192.168.0.99 1111;
#X obj 625 106 tgl 20 0 empty empty NET 2 11 0 10 -1 -258113 -262144
1 1;
#X obj 667 134 sel 0 1;
#N canvas 740 22 659 791 FFT_Analyse========================= 0;
#X obj 100 169 inlet~;
#X obj 101 332 *~;
#X obj 132 331 *~;
#X obj 110 356 +~;
#X obj 111 377 powtodb~;
#N canvas 0 22 346 535 init_input_window 0;
#X obj 73 217 / 10;
#X obj 55 278 line 0 0.1;
#X msg 119 246 0;
#X obj 54 176 t f f b;
#X obj 54 239 pack;
#X obj 55 301 t f f;
#X obj 54 152 - 1;
#X obj 74 114 t f f;
#X obj 55 359 * 3.14159;
#X obj 55 381 sin;
#X msg 55 401 \$1 \$1;
#X obj 55 423 *;
#X text 119 334 0...0.99;
#X text 128 359 0...pi;
#X text 79 423 hanning;
#X msg 55 88 4096;
#X obj 100 88 f 4096;
#X obj 99 60 bng 15 250 50 0 empty empty empty 0 -6 0 8 -262144 -1
-1;
#X obj 99 39 loadbang;
#X obj 74 333 / 4096;
#X obj 55 448 tabwrite \$0-window;
#X text 86 381 half-sine;
#X connect 0 0 4 1;
#X connect 1 0 5 0;
#X connect 2 0 1 0;
#X connect 3 0 4 0;
#X connect 3 1 0 0;
#X connect 3 2 2 0;
#X connect 4 0 1 0;
#X connect 5 0 19 0;
#X connect 5 1 20 1;
#X connect 6 0 3 0;
#X connect 7 0 6 0;
#X connect 7 1 19 1;
#X connect 8 0 9 0;
#X connect 9 0 10 0;
#X connect 10 0 11 0;
#X connect 11 0 20 0;
#X connect 15 0 7 0;
#X connect 16 0 7 0;
#X connect 17 0 16 0;
#X connect 18 0 17 0;
#X connect 19 0 8 0;
#X restore 161 276 pd init_input_window;
#N canvas 0 22 450 300 (subpatch) 0;
#X array \$0-lin_scope 2048 float 0;
#X coords 0 100 2047 0 200 140 1;
#X restore 83 635 graph;
#N canvas 0 22 822 328 init_norm 0;
#X obj 43 230 outlet;
#X obj 43 187 - 100;
#X floatatom 43 208 9 0 0 0 - - -;
#X text 108 169 leistung -> techn. dB;
#X msg 43 69 4096;
#X obj 80 68 f 4096;
#X obj 80 47 bng 15 250 50 0 empty empty empty 0 -6 0 8 -262144 -1
-1;
#X obj 80 26 loadbang;
#X obj 43 167 rmstodb;
#X obj 43 110 / 4;
#X text 74 103 faktor 2 wegen hanning;
#X text 74 114 weiterer faktor 2 \, weil wir nur die;
#X text 73 124 erste haelfte des konjungiert komplexen spektrum sehen
;
#X text 108 135 bzw. bearbeiten \, somit nur die haelfte der spektralen
energie;
#X connect 1 0 2 0;
#X connect 2 0 0 0;
#X connect 4 0 9 0;
#X connect 5 0 9 0;
#X connect 6 0 5 0;
#X connect 7 0 6 0;
#X connect 8 0 1 0;
#X connect 9 0 8 0;
#X restore 161 399 pd init_norm;
#X obj 100 231 *~;
#X obj 110 425 -~ 60.206;
#X obj 123 519 *~ 0.98;
#X obj 110 541 +~;
#X obj 111 475 *~ 0.02;
#X msg 314 481 1 \$1;
#X obj 314 502 -;
#X obj 314 458 clip 0 1;
#X obj 314 437 / 100;
#X floatatom 314 413 5 0.5 100 0 - - -;
#X obj 314 373 loadbang;
#X obj 100 277 fft~;
#X obj 384 566 line 0 0.1;
#X obj 384 611 / 2;
#X obj 384 631 mtof;
#X msg 384 545 6 \, 273 26.7;
#X obj 384 589 t f f;
#X obj 415 611 - 6;
#X obj 384 651 / 44100;
#X obj 384 672 * 4096;
#X msg 317 116 6;
#X obj 317 136 / 2;
#X obj 317 156 mtof;
#X floatatom 317 176 9 0 0 0 - - -;
#X text 384 177 Hz;
#X obj 415 137 / 2;
#X obj 415 156 mtof;
#X floatatom 415 176 9 0 0 0 - - -;
#X text 483 176 Hz;
#X msg 415 117 273;
#X obj 317 95 t b b;
#X obj 384 494 tgl 15 0 empty empty empty 0 -6 0 8 -262144 -1 -1 1
1;
#X obj 384 454 loadbang;
#X msg 384 474 1;
#X obj 317 75 loadbang;
#X obj 130 253 table \$0-window 4096;
#X obj 132 198 tabreceive~ \$0-window;
#X text 353 403 temporal lowpass;
#X text 355 415 parameter between 0 .. 100 %;
#X obj 123 498 tabreceive~ \$0-lin_scope;
#X obj 110 587 tabsend~ \$0-lin_scope;
#X obj 384 694 tabread4 \$0-lin_scope;
#X text 474 545 transformation to log scale;
#X text 95 148 audio sig;
#X obj 457 525 switch~ 4096 2;
#X msg 314 392 50;
#X obj 384 525 metro 50;
#X obj 110 565 clip~ 0 100;
#X obj 384 716 tabwrite vol-s;
#X obj 153 167 inlet~;
#X connect 0 0 8 0;
#X connect 1 0 3 0;
#X connect 2 0 3 1;
#X connect 3 0 4 0;
#X connect 4 0 9 0;
#X connect 7 0 9 1;
#X connect 8 0 19 0;
#X connect 9 0 12 0;
#X connect 10 0 11 1;
#X connect 11 0 55 0;
#X connect 12 0 11 0;
#X connect 13 0 14 0;
#X connect 14 0 10 1;
#X connect 15 0 13 0;
#X connect 15 0 12 1;
#X connect 16 0 15 0;
#X connect 17 0 16 0;
#X connect 18 0 53 0;
#X connect 19 0 1 0;
#X connect 19 0 1 1;
#X connect 19 1 2 0;
#X connect 19 1 2 1;
#X connect 20 0 24 0;
#X connect 21 0 22 0;
#X connect 22 0 26 0;
#X connect 23 0 20 0;
#X connect 24 0 21 0;
#X connect 24 1 25 0;
#X connect 25 0 56 1;
#X connect 26 0 27 0;
#X connect 27 0 49 0;
#X connect 28 0 29 0;
#X connect 29 0 30 0;
#X connect 30 0 31 0;
#X connect 33 0 34 0;
#X connect 34 0 35 0;
#X connect 37 0 33 0;
#X connect 38 0 28 0;
#X connect 38 1 37 0;
#X connect 39 0 52 0;
#X connect 39 0 54 0;
#X connect 40 0 41 0;
#X connect 41 0 39 0;
#X connect 42 0 38 0;
#X connect 44 0 8 1;
#X connect 47 0 10 0;
#X connect 49 0 56 0;
#X connect 53 0 17 0;
#X connect 54 0 23 0;
#X connect 55 0 48 0;
#X connect 57 0 8 0;
#X restore 36 327 pd FFT_Analyse=========================;
#N canvas 0 22 450 300 (subpatch) 0;
#X array vol-s 268 float 0;
#X coords 0 100 267 0 267 140 1;
#X restore 351 129 graph;
#X obj 623 143 cnv 15 1 1 empty empty -10 0 0 0 10 -262144 -1 0;
#X obj 623 256 cnv 15 1 1 empty empty -90 0 0 0 10 -262144 -1 0;
#X obj 623 200 cnv 15 1 1 empty empty -50 0 0 0 10 -262144 -1 0;
#X obj 623 172 cnv 15 1 1 empty empty -30 0 0 0 10 -262144 -1 0;
#X obj 623 228 cnv 15 1 1 empty empty -70 0 0 0 10 -262144 -1 0;
#X obj 346 273 cnv 15 1 1 empty empty 10 0 5 0 10 -262144 -1 0;
#X obj 394 273 cnv 15 1 1 empty empty 40 0 5 0 10 -262144 -1 0;
#X obj 443 273 cnv 15 1 1 empty empty 160 0 5 0 10 -262144 -1 0;
#X obj 490 273 cnv 15 1 1 empty empty 640 0 5 0 10 -262144 -1 0;
#X obj 538 273 cnv 15 1 1 empty empty 2k56 0 5 0 10 -262144 -1 0;
#X obj 586 273 cnv 15 1 1 empty empty 10k2 0 5 0 10 -262144 -1 0;
#X obj 466 286 cnv 15 1 1 empty empty 320 0 5 0 10 -262144 -1 0;
#X obj 610 286 cnv 15 1 1 empty empty 20k5 0 5 0 10 -262144 -1 0;
#X obj 370 283 cnv 15 1 1 empty empty 20 0 9 0 10 -262144 -1 0;
#X obj 418 286 cnv 15 1 1 empty empty 80 0 5 0 10 -262144 -1 0;
#X obj 514 286 cnv 15 1 1 empty empty 1k28 0 5 0 10 -262144 -1 0;
#X obj 562 286 cnv 15 1 1 empty empty 5k12 0 5 0 10 -262144 -1 0;
#X obj 374 270 cnv 15 1 1 empty empty | 0 7 0 10 -262144 -1 0;
#X obj 422 270 cnv 15 1 1 empty empty | 0 7 0 10 -262144 -1 0;
#X obj 470 270 cnv 15 1 1 empty empty | 0 7 0 10 -262144 -1 0;
#X obj 518 270 cnv 15 1 1 empty empty | 0 7 0 10 -262144 -1 0;
#X obj 566 270 cnv 15 1 1 empty empty | 0 7 0 10 -262144 -1 0;
#X obj 614 270 cnv 15 1 1 empty empty | 0 7 0 10 -262144 -1 0;
#X obj 636 373 loadbang;
#X msg 659 457 \; vol-s yticks 0 5 2;
#X msg 636 424 \; vol-s xticks 0 12 2;
#X obj 220 130 k_vol;
#X connect 1 0 3 0;
#X connect 1 0 4 0;
#X connect 1 0 28 0;
#X connect 1 0 35 0;
#X connect 1 0 42 0;
#X connect 2 0 7 0;
#X connect 2 0 28 1;
#X connect 2 0 35 1;
#X connect 2 0 42 1;
#X connect 2 0 70 0;
#X connect 4 0 5 0;
#X connect 5 0 6 0;
#X connect 6 0 11 0;
#X connect 7 0 8 0;
#X connect 8 0 9 0;
#X connect 9 0 13 0;
#X connect 9 0 33 0;
#X connect 11 0 12 0;
#X connect 11 0 31 0;
#X connect 12 0 10 0;
#X connect 13 0 18 0;
#X connect 21 0 19 0;
#X connect 30 0 29 0;
#X connect 31 0 30 0;
#X connect 32 0 34 0;
#X connect 33 0 32 0;
#X connect 35 0 37 0;
#X connect 35 1 38 0;
#X connect 36 0 35 0;
#X connect 39 0 35 0;
#X connect 40 0 41 0;
#X connect 41 0 36 0;
#X connect 41 1 39 0;
#X connect 67 0 69 0;
#X connect 67 0 68 0;
#X coords 0 -1 1 1 550 210 1 100 100;
