#N canvas 655 209 727 407 10;
#X obj -57 83 clip~ -1 1;
#X obj 20 83 clip~ -1 1;
#X obj 20 52 inlet~;
#X obj -57 49 inlet~;
#X obj -58 177 dac~;
#X obj -57 130 *~;
#X obj 20 126 *~;
#X obj 103 117 hsl 75 28 0 1 0 0 empty empty 0.780000 0 15 0 10 -262144
-1 -1 5000 1;
#X obj 100 176 line~;
#X msg 100 154 \$1 1000;
#X floatatom 159 184 5 0 0 0 - - -, f 5;
#X obj 211 158 list prepend label;
#X obj 212 183 route list;
#X obj 208 103 makefilename %f;
#X obj 100 41 loadbang;
#X msg 100 65 1;
#X connect 0 0 5 0;
#X connect 1 0 6 0;
#X connect 2 0 1 0;
#X connect 3 0 0 0;
#X connect 5 0 4 0;
#X connect 6 0 4 1;
#X connect 7 0 9 0;
#X connect 7 0 10 0;
#X connect 8 0 6 1;
#X connect 8 0 5 1;
#X connect 9 0 8 0;
#X connect 10 0 13 0;
#X connect 11 0 12 0;
#X connect 12 0 7 0;
#X connect 13 0 11 0;
#X connect 14 0 15 0;
#X connect 15 0 7 0;
#X coords 0 -1 1 1 80 45 1 100 100;
