#N canvas 180 286 450 300 10;
#X floatatom 177 178 5 0 0 0 - - -, f 5;
#X obj 251 111 loadbang;
#X msg 251 135 \; pd dsp 1;
#X obj 176 151 unsig~ 1;
#X obj 177 221 k_debug 10;
#X obj 176 119 osc~ 5;
#X connect 0 0 4 0;
#X connect 1 0 2 0;
#X connect 3 0 0 0;
#X connect 5 0 3 0;
