#N canvas 489 288 399 400 10;
#X obj 42 89 inlet;
#X obj 211 126 + 1;
#X obj 204 178 sel 0;
#X floatatom 126 119 5 0 0 0 - - -;
#X obj 115 291 print;
#X obj 122 251 spigot;
#X msg 204 201 0;
#X obj 104 120 bng 15 250 50 0 empty empty empty 17 7 0 10 -262144
-1 -1;
#X obj 42 118 t a b;
#X obj 181 125 f 0;
#X obj 142 164 t b b;
#X obj 154 232 tgl 15 0 empty empty empty 17 7 0 10 -262144 -1 -1 0
1;
#X msg 168 185 1;
#X msg 140 185 0;
#X obj 268 43 inlet;
#X floatatom 260 82 5 0 0 0 - - -;
#X obj 112 39 expr if($f1==0 \, 1 \, $f2);
#X obj 107 10 init \$1;
#X connect 0 0 8 0;
#X connect 1 0 9 1;
#X connect 2 0 6 0;
#X connect 3 0 2 1;
#X connect 5 0 4 0;
#X connect 6 0 11 0;
#X connect 7 0 10 0;
#X connect 8 0 5 0;
#X connect 8 1 9 0;
#X connect 9 0 1 0;
#X connect 9 0 2 0;
#X connect 10 0 13 0;
#X connect 10 1 12 0;
#X connect 11 0 5 1;
#X connect 12 0 11 0;
#X connect 13 0 9 1;
#X connect 14 0 15 0;
#X connect 15 0 3 0;
#X connect 16 0 3 0;
#X connect 17 0 16 0;
#X coords 0 -1 1 1 70 40 1 100 100;
