#N canvas 305 277 474 379 10;
#X msg 135 102 0;
#X msg 156 127 2;
#X msg 172 151 4;
#X msg 186 176 5;
#X msg 203 200 7;
#X msg 219 226 9;
#X msg 238 251 11;
#X obj 136 80 sel 0 1 2 3 4 5 6 7;
#X msg 256 278 12;
#X obj 141 42 inlet;
#X obj 147 299 outlet;
#X connect 0 0 10 0;
#X connect 1 0 10 0;
#X connect 2 0 10 0;
#X connect 3 0 10 0;
#X connect 4 0 10 0;
#X connect 5 0 10 0;
#X connect 6 0 10 0;
#X connect 7 0 0 0;
#X connect 7 1 1 0;
#X connect 7 2 2 0;
#X connect 7 3 3 0;
#X connect 7 4 4 0;
#X connect 7 5 5 0;
#X connect 7 6 6 0;
#X connect 7 7 8 0;
#X connect 8 0 10 0;
#X connect 9 0 7 0;
