#N canvas 687 188 389 384 10;
#X obj 101 101 cnv 15 208 258 empty empty k_effect 5 12 0 14 -191677
-66577 0;
#X obj 105 127 tgl 30 0 empty empty E 11 15 0 15 -258113 -1 -1 1 1
;
#N canvas 788 160 450 482 smear 0;
#X obj 103 100 hsl 80 15 0 4 0 0 empty empty Gain 5 8 0 10 -1 -258113
-262144 1975 1;
#X obj 221 118 hsl 40 14 0 1 0 0 empty empty Alpha 5 8 0 10 -1 -258113
-262144 3900 1;
#X obj 147 71 line;
#X obj 147 -14 sel 0 1;
#X msg 147 13 0;
#X msg 178 13 0.5;
#X obj 78 67 line;
#X obj 13 -18 r effect-gain;
#X obj 210 13 r effect-alpha;
#X msg 147 46 \$1 1000;
#X msg 78 42 \$1 1000;
#X obj 101 133 s \$0-egain;
#X obj 218 142 s \$0-ealpha;
#X obj 147 -87 r effect-tgl;
#X obj 147 -62 change;
#X floatatom 147 -39 5 0 0 0 - - -;
#X msg 78 14 1;
#X msg 109 13 1.1;
#X connect 0 0 11 0;
#X connect 1 0 12 0;
#X connect 2 0 1 0;
#X connect 3 0 4 0;
#X connect 3 0 16 0;
#X connect 3 1 5 0;
#X connect 3 1 17 0;
#X connect 4 0 9 0;
#X connect 5 0 9 0;
#X connect 6 0 0 0;
#X connect 7 0 10 0;
#X connect 8 0 9 0;
#X connect 9 0 2 0;
#X connect 10 0 6 0;
#X connect 13 0 14 0;
#X connect 14 0 15 0;
#X connect 15 0 3 0;
#X connect 16 0 10 0;
#X connect 17 0 10 0;
#X coords 0 -1 1 1 85 15 2 100 100;
#X restore 105 159 pd smear;
#N canvas 589 340 554 364 auto 0;
#X obj 100 100 tgl 30 0 empty empty AUTO 2 15 0 12 -258113 -1 -1 0
1;
#X obj 75 -50 r effect-stop;
#X msg 75 -30 0;
#X obj 161 -49 r touchosc;
#X obj 161 -25 routeOSC /eq;
#X obj 161 -1 route /8;
#X obj 100 185 s totouch;
#X obj 100 162 packOSC;
#X msg 100 139 send /eq/8 \$1;
#X obj 201 140 s \$0-eauto;
#X connect 0 0 8 0;
#X connect 0 0 9 0;
#X connect 1 0 2 0;
#X connect 2 0 0 0;
#X connect 3 0 4 0;
#X connect 4 0 5 0;
#X connect 5 0 0 0;
#X connect 7 0 6 0;
#X connect 8 0 7 0;
#X coords 0 -1 1 1 30 30 2 100 100;
#X restore 138 127 pd auto;
#N canvas 627 361 450 300 blend 0;
#X obj 100 100 tgl 30 0 empty empty BLEND 4 15 0 8 -262144 -1 -1 1
1;
#X obj 100 49 r \$0-alpha;
#X obj 100 143 s \$0-eblend;
#X connect 0 0 2 0;
#X connect 1 0 0 0;
#X coords 0 -1 1 1 30 30 2 100 100;
#X restore 171 127 pd blend;
#N canvas 718 38 414 574 (subpatch) 0;
#X obj -73 241 s effect-tgl;
#X msg -73 217 1;
#X obj 15 255 s effect-bloom;
#X msg 15 230 1 1;
#X obj 15 127 sel 1;
#X obj 0 0 tgl 30 0 empty empty 4 10 15 0 15 -1 -260097 -262144 0 1
;
#X obj -40 196 s gem-fog;
#X msg -40 168 3 0.1;
#X obj -81 107 s bomb-effect;
#X obj 0 -24 sel 1;
#X obj 0 -47 route key_33;
#X obj 63 162 s toflash;
#X obj 133 176 s totouch;
#X obj 133 153 packOSC;
#X msg 133 130 send /eq/11 \$1;
#X obj 6 -167 r hid;
#X obj 6 -147 t a a;
#X obj 0 -102 spigot;
#X obj 33 -124 route key_226;
#X obj 157 -140 sel 1;
#X obj 157 -90 line;
#X floatatom 157 -67 5 0 0 0 - - -;
#X obj 100 -42 metro 2000;
#X msg 157 -112 3000 \, 400 20000;
#X obj 100 -180 r \$0-eauto;
#X obj 0 39 t b f f f f f;
#X obj 32 74 v e-4;
#X obj 134 4 r touchosc;
#X obj 134 55 tgl 15 0 empty empty empty 17 7 0 10 -262144 -1 -1 0
1;
#X msg 47 229 0 0;
#X obj 134 27 routeOSC /gemctl/8;
#X connect 1 0 0 0;
#X connect 3 0 2 0;
#X connect 4 0 3 0;
#X connect 4 0 1 0;
#X connect 4 0 7 0;
#X connect 4 1 29 0;
#X connect 5 0 25 0;
#X connect 7 0 6 0;
#X connect 9 0 5 0;
#X connect 10 0 9 0;
#X connect 13 0 12 0;
#X connect 14 0 13 0;
#X connect 15 0 16 0;
#X connect 16 0 17 0;
#X connect 16 1 18 0;
#X connect 17 0 10 0;
#X connect 18 0 17 1;
#X connect 19 0 23 0;
#X connect 20 0 21 0;
#X connect 21 0 22 1;
#X connect 22 0 5 0;
#X connect 23 0 20 0;
#X connect 24 0 22 0;
#X connect 24 0 19 0;
#X connect 25 0 8 0;
#X connect 25 1 4 0;
#X connect 25 2 26 0;
#X connect 25 4 11 0;
#X connect 25 5 14 0;
#X connect 27 0 30 0;
#X connect 28 0 5 0;
#X connect 29 0 2 0;
#X connect 30 0 28 0;
#X coords 0 1 100 -1 30 30 1 0 0;
#X restore 205 326 graph;
#N canvas 366 107 489 503 (subpatch) 0;
#X obj 0 114 sel 1;
#X obj 0 0 tgl 30 0 empty empty 5 10 15 0 15 -1 -260097 -262144 0 1
;
#X obj 3 234 s effect-wave;
#X obj -9 68 s bomb-effect;
#X obj 0 -26 sel 1;
#X obj -100 252 s effect-tgl;
#X msg -100 228 1;
#X obj 0 -49 route key_34;
#X obj 48 108 outlet;
#X obj 56 14 t b f f f f;
#X obj 121 106 s toflash;
#X obj 97 -60 inlet;
#X obj 225 166 s totouch;
#X obj 225 143 packOSC;
#X msg 225 120 send /eq/12 \$1;
#X msg 45 208 0 0;
#X msg 3 209 1 1;
#X obj 6 -161 r hid;
#X obj 6 -141 t a a;
#X obj 0 -96 spigot;
#X obj 33 -118 route key_226;
#X obj 95 63 v e-5;
#X obj 168 -52 r touchosc;
#X obj 168 -1 tgl 15 0 empty empty empty 17 7 0 10 -262144 -1 -1 0
1;
#X obj 168 -30 routeOSC /gemctl/10;
#X connect 0 0 16 0;
#X connect 0 0 6 0;
#X connect 0 1 15 0;
#X connect 1 0 9 0;
#X connect 4 0 1 0;
#X connect 6 0 5 0;
#X connect 7 0 4 0;
#X connect 9 0 3 0;
#X connect 9 1 0 0;
#X connect 9 2 8 0;
#X connect 9 3 21 0;
#X connect 9 4 10 0;
#X connect 9 4 14 0;
#X connect 11 0 1 0;
#X connect 13 0 12 0;
#X connect 14 0 13 0;
#X connect 15 0 2 0;
#X connect 16 0 2 0;
#X connect 17 0 18 0;
#X connect 18 0 19 0;
#X connect 18 1 20 0;
#X connect 19 0 7 0;
#X connect 20 0 19 1;
#X connect 22 0 24 0;
#X connect 23 0 1 0;
#X connect 24 0 23 0;
#X coords 0 1 100 -1 30 30 1 0 0;
#X restore 238 260 graph;
#N canvas 676 361 558 413 (subpatch) 0;
#X obj 101 264 s effect-tgl;
#X msg 101 240 1;
#X obj 0 55 sel 1;
#X obj 0 0 tgl 30 0 empty empty 3 10 15 0 15 -1 -260097 -262144 0 1
;
#X obj 13 263 s effect-time;
#X msg 57 239 0 0;
#X obj -128 288 s effect-gain;
#X obj -41 290 s effect-alpha;
#X msg -41 262 1;
#X obj -158 193 t b b b b b b b;
#X obj 71 117 s bomb-effect;
#X obj 0 -24 sel 1;
#X obj 0 -46 route key_32;
#X obj 71 7 t b f f f f;
#X obj 119 78 s toflash;
#X obj 205 146 s totouch;
#X obj 205 123 packOSC;
#X msg 205 100 send /eq/10 \$1;
#X msg 12 240 1 1;
#X obj 6 -137 r hid;
#X obj 6 -117 t a a;
#X obj 0 -72 spigot;
#X obj 33 -94 route key_226;
#X obj 102 45 v e-3;
#X msg -129 260 2;
#X obj 106 -68 r touchosc;
#X obj 106 -17 tgl 15 0 empty empty empty 17 7 0 10 -262144 -1 -1 0
1;
#X obj 106 -45 routeOSC /gemctl/6;
#X connect 1 0 0 0;
#X connect 2 0 9 0;
#X connect 2 1 5 0;
#X connect 3 0 13 0;
#X connect 5 0 4 0;
#X connect 8 0 7 0;
#X connect 9 0 18 0;
#X connect 9 3 24 0;
#X connect 9 4 8 0;
#X connect 9 6 1 0;
#X connect 11 0 3 0;
#X connect 12 0 11 0;
#X connect 13 0 10 0;
#X connect 13 1 2 0;
#X connect 13 2 23 0;
#X connect 13 3 14 0;
#X connect 13 4 17 0;
#X connect 16 0 15 0;
#X connect 17 0 16 0;
#X connect 18 0 4 0;
#X connect 19 0 20 0;
#X connect 20 0 21 0;
#X connect 20 1 22 0;
#X connect 21 0 12 0;
#X connect 22 0 21 1;
#X connect 24 0 6 0;
#X connect 25 0 27 0;
#X connect 26 0 13 0;
#X connect 27 0 26 0;
#X coords 0 1 100 -1 30 30 1 0 0;
#X restore 205 293 graph;
#N canvas 175 166 425 551 (subpatch) 0;
#X obj 24 324 s effect-tgl;
#X msg 24 300 1;
#X obj -63 139 sel 1;
#X obj 0 0 tgl 30 0 empty empty 2 10 15 0 15 -1 -260097 -262144 1 1
;
#X obj -5 276 s effect-alpha;
#X msg -5 248 1;
#X obj -63 165 t b b b b b b b;
#X obj 63 30 s bomb-effect;
#X obj 0 -24 sel 1;
#X obj 81 233 s effect-vfocus;
#X msg 97 188 0 0 0;
#X obj 0 -47 route key_31;
#X obj 63 5 t b f f f f;
#X msg -20 197 1;
#X obj 94 76 s toflash;
#X obj 126 146 s totouch;
#X obj 126 123 packOSC;
#X msg 126 100 send /eq/9 \$1;
#X obj 6 -137 r hid;
#X obj 6 -117 t a a;
#X obj 0 -72 spigot;
#X obj 33 -94 route key_226;
#X obj 110 54 v e-2;
#X obj -19 225 s effect-gain;
#X msg 81 208 1 0.9 0.02;
#X obj 216 -36 r touchosc;
#X obj 216 15 tgl 15 0 empty empty empty 17 7 0 10 -262144 -1 -1 1
1;
#X obj 216 -12 routeOSC /gemctl/4;
#X connect 1 0 0 0;
#X connect 2 0 6 0;
#X connect 2 1 10 0;
#X connect 3 0 12 0;
#X connect 5 0 4 0;
#X connect 6 2 24 0;
#X connect 6 3 13 0;
#X connect 6 4 5 0;
#X connect 6 6 1 0;
#X connect 8 0 3 0;
#X connect 10 0 9 0;
#X connect 11 0 8 0;
#X connect 12 0 7 0;
#X connect 12 1 2 0;
#X connect 12 2 14 0;
#X connect 12 3 22 0;
#X connect 12 4 17 0;
#X connect 13 0 23 0;
#X connect 16 0 15 0;
#X connect 17 0 16 0;
#X connect 18 0 19 0;
#X connect 19 0 20 0;
#X connect 19 1 21 0;
#X connect 20 0 11 0;
#X connect 21 0 20 1;
#X connect 24 0 9 0;
#X connect 25 0 27 0;
#X connect 26 0 3 0;
#X connect 27 0 26 0;
#X coords 0 1 100 -1 30 30 1 0 0;
#X restore 205 260 graph;
#N canvas 143 283 489 503 (subpatch) 0;
#X obj 0 114 sel 1;
#X obj 0 0 tgl 30 0 empty empty 6 10 15 0 15 -1 -260097 -262144 0 1
;
#X msg 3 209 1 0.8;
#X obj -52 73 s bomb-effect;
#X obj 0 -26 sel 1;
#X obj -100 252 s effect-tgl;
#X msg -100 228 1;
#X obj 48 108 outlet;
#X obj 121 106 s toflash;
#X obj 97 -60 inlet;
#X obj 0 -49 route key_35;
#X obj 197 112 s totouch;
#X obj 197 89 packOSC;
#X msg 197 66 send /eq/13 \$1;
#X msg 45 208 0 0;
#X obj 56 14 t b f f f f f;
#X obj 175 7 s e-starB-tgl;
#X obj 3 234 s effect-starB;
#X obj 24 -165 r hid;
#X obj 24 -145 t a a;
#X obj 18 -100 spigot;
#X obj 51 -122 route key_226;
#X obj 96 63 v e-6;
#X obj 163 -109 r touchosc;
#X obj 163 -58 tgl 15 0 empty empty empty 17 7 0 10 -262144 -1 -1 0
1;
#X obj 163 -86 routeOSC /gemctl/12;
#X connect 0 0 2 0;
#X connect 0 0 6 0;
#X connect 0 1 14 0;
#X connect 1 0 15 0;
#X connect 2 0 17 0;
#X connect 4 0 1 0;
#X connect 6 0 5 0;
#X connect 9 0 1 0;
#X connect 10 0 4 0;
#X connect 12 0 11 0;
#X connect 13 0 12 0;
#X connect 14 0 17 0;
#X connect 15 0 3 0;
#X connect 15 1 0 0;
#X connect 15 2 7 0;
#X connect 15 3 22 0;
#X connect 15 4 8 0;
#X connect 15 4 13 0;
#X connect 15 5 16 0;
#X connect 18 0 19 0;
#X connect 19 0 20 0;
#X connect 19 1 21 0;
#X connect 20 0 10 0;
#X connect 21 0 20 1;
#X connect 23 0 25 0;
#X connect 24 0 1 0;
#X connect 25 0 24 0;
#X coords 0 1 100 -1 30 30 1 0 0;
#X restore 238 293 graph;
#N canvas 187 299 489 503 (subpatch) 0;
#X obj 0 114 sel 1;
#X obj 0 0 tgl 30 0 empty empty 7 10 15 0 15 -1 -260097 -262144 0 1
;
#X obj 0 -26 sel 1;
#X obj -100 252 s effect-tgl;
#X msg -100 228 1;
#X obj 48 108 outlet;
#X obj 121 106 s toflash;
#X obj 97 -60 inlet;
#X obj 0 -49 route key_36;
#X obj -87 88 s bomb-effect;
#X obj 198 150 s totouch;
#X obj 198 127 packOSC;
#X msg 198 104 send /eq/14 \$1;
#X obj 3 234 s effect-starC;
#X msg 3 208 1 1;
#X msg 43 209 0 0;
#X obj 137 215 s e-starC-tgl;
#X obj 6 -144 r hid;
#X obj 6 -124 t a a;
#X obj 0 -79 spigot;
#X obj 33 -101 route key_226;
#X obj 96 63 v e-7;
#X obj 56 14 t b f f f f f f;
#X obj 156 -78 r touchosc;
#X obj 156 -27 tgl 15 0 empty empty empty 17 7 0 10 -262144 -1 -1 0
1;
#X obj 156 -55 routeOSC /gemctl/14;
#X connect 0 0 14 0;
#X connect 0 0 4 0;
#X connect 0 1 15 0;
#X connect 1 0 22 0;
#X connect 2 0 1 0;
#X connect 4 0 3 0;
#X connect 7 0 1 0;
#X connect 8 0 2 0;
#X connect 11 0 10 0;
#X connect 12 0 11 0;
#X connect 14 0 13 0;
#X connect 15 0 13 0;
#X connect 17 0 18 0;
#X connect 18 0 19 0;
#X connect 18 1 20 0;
#X connect 19 0 8 0;
#X connect 20 0 19 1;
#X connect 22 0 9 0;
#X connect 22 1 0 0;
#X connect 22 2 5 0;
#X connect 22 3 21 0;
#X connect 22 4 6 0;
#X connect 22 5 16 0;
#X connect 22 6 12 0;
#X connect 23 0 25 0;
#X connect 24 0 1 0;
#X connect 25 0 24 0;
#X coords 0 1 100 -1 30 30 1 0 0;
#X restore 238 326 graph;
#N canvas 187 299 489 503 (subpatch) 0;
#X obj 53 124 sel 1;
#X obj 0 0 tgl 30 0 empty empty 8 10 15 0 15 -1 -260097 -262144 0 1
;
#X obj 0 -26 sel 1;
#X obj -100 252 s effect-tgl;
#X msg -100 228 1;
#X obj 121 106 s toflash;
#X obj 97 -60 inlet;
#X obj -87 88 s bomb-effect;
#X obj 198 150 s totouch;
#X obj 198 127 packOSC;
#X msg 198 104 send /eq/14 \$1;
#X msg 56 218 1 1;
#X msg 96 219 0 0;
#X obj 6 -144 r hid;
#X obj 6 -124 t a a;
#X obj 0 -79 spigot;
#X obj 33 -101 route key_226;
#X obj 0 -50 route key_37;
#X obj 99 54 v e-8;
#X obj 56 14 t b f f f f f;
#X obj 241 3 s e-8-tgl;
#X obj 56 244 s effect-8;
#X obj 151 -87 r touchosc;
#X obj 151 -36 tgl 15 0 empty empty empty 17 7 0 10 -262144 -1 -1 0
1;
#X obj 151 -64 routeOSC /gemctl/16;
#X connect 0 0 11 0;
#X connect 0 0 4 0;
#X connect 0 1 12 0;
#X connect 1 0 19 0;
#X connect 2 0 1 0;
#X connect 4 0 3 0;
#X connect 6 0 1 0;
#X connect 9 0 8 0;
#X connect 10 0 9 0;
#X connect 11 0 21 0;
#X connect 12 0 21 0;
#X connect 13 0 14 0;
#X connect 14 0 15 0;
#X connect 14 1 16 0;
#X connect 15 0 17 0;
#X connect 16 0 15 1;
#X connect 17 0 2 0;
#X connect 19 0 7 0;
#X connect 19 1 0 0;
#X connect 19 3 18 0;
#X connect 19 5 20 0;
#X connect 22 0 24 0;
#X connect 23 0 1 0;
#X connect 24 0 23 0;
#X coords 0 1 100 -1 30 30 1 0 0;
#X restore 271 260 graph;
#N canvas 187 299 489 503 (subpatch) 0;
#X obj 0 114 sel 1;
#X obj 0 0 tgl 30 0 empty empty 9 10 15 0 15 -1 -260097 -262144 0 1
;
#X obj 0 -26 sel 1;
#X obj -100 252 s effect-tgl;
#X msg -100 228 1;
#X obj 56 14 t b f f f f;
#X obj 121 106 s toflash;
#X obj 97 -60 inlet;
#X obj -87 88 s bomb-effect;
#X obj 198 150 s totouch;
#X obj 198 127 packOSC;
#X msg 198 104 send /eq/14 \$1;
#X msg 3 208 1 1;
#X msg 43 209 0 0;
#X obj 6 -144 r hid;
#X obj 6 -124 t a a;
#X obj 0 -79 spigot;
#X obj 33 -101 route key_226;
#X obj 0 -49 route key_38;
#X obj 264 49 s e-9-tgl;
#X obj 3 234 s effect-9;
#X obj 61 79 v e-9;
#X obj 158 -76 r touchosc;
#X obj 158 -25 tgl 15 0 empty empty empty 17 7 0 10 -262144 -1 -1 0
1;
#X obj 158 -53 routeOSC /gemctl/18;
#X connect 0 0 12 0;
#X connect 0 0 4 0;
#X connect 0 1 13 0;
#X connect 1 0 5 0;
#X connect 2 0 1 0;
#X connect 4 0 3 0;
#X connect 5 0 8 0;
#X connect 5 1 0 0;
#X connect 5 3 21 0;
#X connect 5 4 19 0;
#X connect 7 0 1 0;
#X connect 10 0 9 0;
#X connect 11 0 10 0;
#X connect 12 0 20 0;
#X connect 13 0 20 0;
#X connect 14 0 15 0;
#X connect 15 0 16 0;
#X connect 15 1 17 0;
#X connect 16 0 18 0;
#X connect 17 0 16 1;
#X connect 18 0 2 0;
#X connect 22 0 24 0;
#X connect 23 0 1 0;
#X connect 24 0 23 0;
#X coords 0 1 100 -1 30 30 1 0 0;
#X restore 271 293 graph;
#N canvas 187 299 489 503 (subpatch) 0;
#X obj 0 114 sel 1;
#X obj 0 0 tgl 30 0 empty empty 10 5 15 0 15 -1 -260097 -262144 0 1
;
#X obj 0 -26 sel 1;
#X obj -100 252 s effect-tgl;
#X msg -100 228 1;
#X obj 56 14 t b f f f f;
#X obj 121 106 s toflash;
#X obj 97 -60 inlet;
#X obj -87 88 s bomb-effect;
#X obj 198 150 s totouch;
#X obj 198 127 packOSC;
#X msg 198 104 send /eq/14 \$1;
#X msg 3 208 1 1;
#X msg 43 209 0 0;
#X obj 6 -144 r hid;
#X obj 6 -124 t a a;
#X obj 0 -79 spigot;
#X obj 33 -101 route key_226;
#X obj 0 -49 route key_38;
#X obj 3 234 s effect-10;
#X obj 61 79 v e-10;
#X obj 264 49 s e-10-tgl;
#X obj 166 -77 r touchosc;
#X obj 166 -26 tgl 15 0 empty empty empty 17 7 0 10 -262144 -1 -1 0
1;
#X obj 166 -54 routeOSC /gemctl/20;
#X connect 0 0 12 0;
#X connect 0 0 4 0;
#X connect 0 1 13 0;
#X connect 1 0 5 0;
#X connect 2 0 1 0;
#X connect 4 0 3 0;
#X connect 5 0 8 0;
#X connect 5 1 0 0;
#X connect 5 3 20 0;
#X connect 5 4 21 0;
#X connect 7 0 1 0;
#X connect 10 0 9 0;
#X connect 11 0 10 0;
#X connect 12 0 19 0;
#X connect 13 0 19 0;
#X connect 14 0 15 0;
#X connect 15 0 16 0;
#X connect 15 1 17 0;
#X connect 16 0 18 0;
#X connect 17 0 16 1;
#X connect 22 0 24 0;
#X connect 23 0 1 0;
#X connect 24 0 23 0;
#X coords 0 1 100 -1 30 30 1 0 0;
#X restore 271 326 graph;
#N canvas 650 127 843 622 10-convovle 0;
#X obj 102 117 tgl 15 0 empty empty empty 17 7 0 10 -262144 -1 -1 0
1;
#X obj 122 117 hsl 70 15 0 1 0 0 empty empty Alpha 5 8 0 10 -1 -258113
-262144 0 1;
#X obj 69 174 spigot;
#X obj 62 354 s outeffect;
#X obj 177 74 unpack f f;
#X obj 234 131 line;
#X floatatom 126 147 5 0 0 0 - - -;
#X obj 170 146 sel 1;
#X obj 304 200 bng 15 250 50 0 empty empty empty 17 7 0 10 -262144
-1 -1;
#X obj 331 270 getdir 2;
#X obj 331 296 pack s s;
#X obj 387 296 symbol;
#X msg 387 270 base;
#X msg 331 342 open \$1;
#X obj 331 247 t b b;
#X obj 331 318 makesymbol %s/GLSL/%s.vert;
#X obj 304 223 t b b;
#X obj 162 361 getdir 2;
#X obj 162 387 pack s s;
#X obj 218 387 symbol;
#X msg 162 433 open \$1;
#X obj 162 338 t b b;
#X obj 162 409 makesymbol %s/GLSL/%s.frag;
#N canvas 789 277 576 443 glsl 0;
#X obj 86 377 glsl_program;
#X obj 159 292 pack 0 0;
#X obj 180 272 t b f;
#X obj 176 227 change;
#X obj 149 111 change;
#X msg 159 318 link \$1 \$2;
#X floatatom 180 253 2 0 0 0 ID - -;
#X floatatom 149 134 2 0 0 0 ID - -;
#X obj 86 89 glsl_vertex;
#X obj 86 207 glsl_fragment;
#X text 334 75 <-load an other shader;
#X text 338 89 (using rectangular texturing);
#X obj 86 13 inlet;
#X obj 87 416 outlet;
#X obj 269 11 inlet;
#X obj 322 11 inlet;
#X obj 373 15 inlet;
#X connect 0 0 13 0;
#X connect 1 0 5 0;
#X connect 2 0 1 0;
#X connect 2 1 1 1;
#X connect 3 0 6 0;
#X connect 4 0 7 0;
#X connect 5 0 0 0;
#X connect 6 0 2 0;
#X connect 7 0 1 0;
#X connect 8 0 9 0;
#X connect 8 1 4 0;
#X connect 9 0 0 0;
#X connect 9 1 3 0;
#X connect 12 0 8 0;
#X connect 14 0 0 0;
#X connect 15 0 8 0;
#X connect 16 0 9 0;
#X restore 62 327 pd glsl;
#X msg 109 265 iGlobalTime \$1;
#X floatatom 109 240 5 0 0 0 - - -;
#X obj 109 209 f;
#X obj 69 207 t a b;
#X msg 148 293 alpha \$1;
#X obj 69 77 r \$0-effect0;
#X obj 181 210 fmod 1;
#X obj 136 209 + 0.001;
#X msg 234 107 \$1 2000;
#X msg 218 361 convolve;
#X obj 177 50 r effect-10;
#X obj 346 443 s totouch;
#X obj 346 420 packOSC;
#X msg 346 397 send /win/21 \$1;
#X obj 174 -15 r touchosc;
#X obj 174 8 routeOSC /win/21;
#X connect 0 0 2 1;
#X connect 0 0 7 0;
#X connect 1 0 6 0;
#X connect 2 0 27 0;
#X connect 4 0 0 0;
#X connect 4 1 32 0;
#X connect 5 0 1 0;
#X connect 6 0 28 0;
#X connect 6 0 37 0;
#X connect 7 0 8 0;
#X connect 8 0 16 0;
#X connect 9 0 10 0;
#X connect 10 0 15 0;
#X connect 11 0 10 1;
#X connect 12 0 11 0;
#X connect 13 0 23 2;
#X connect 14 0 9 0;
#X connect 14 1 12 0;
#X connect 15 0 13 0;
#X connect 16 0 21 0;
#X connect 16 1 14 0;
#X connect 17 0 18 0;
#X connect 18 0 22 0;
#X connect 19 0 18 1;
#X connect 20 0 23 3;
#X connect 21 0 17 0;
#X connect 21 1 33 0;
#X connect 22 0 20 0;
#X connect 23 0 3 0;
#X connect 25 0 24 0;
#X connect 26 0 25 0;
#X connect 26 0 31 0;
#X connect 27 0 23 0;
#X connect 27 1 26 0;
#X connect 28 0 23 1;
#X connect 29 0 2 0;
#X connect 30 0 26 1;
#X connect 31 0 30 0;
#X connect 32 0 5 0;
#X connect 33 0 19 0;
#X connect 34 0 4 0;
#X connect 36 0 35 0;
#X connect 37 0 36 0;
#X connect 38 0 39 0;
#X connect 39 0 1 0;
#X coords 0 -1 1 1 95 35 1 100 100;
#X restore 205 219 pd 10-convovle;
#N canvas 395 167 843 622 9-radial 0;
#X obj 102 117 tgl 15 0 empty empty empty 17 7 0 10 -262144 -1 -1 0
1;
#X obj 122 117 hsl 70 15 0 1 0 0 empty empty Alpha 5 8 0 10 -1 -258113
-262144 0 1;
#X obj 69 174 spigot;
#X obj 62 354 s outeffect;
#X obj 177 74 unpack f f;
#X obj 234 131 line;
#X floatatom 126 147 5 0 0 0 - - -;
#X obj 170 146 sel 1;
#X obj 304 200 bng 15 250 50 0 empty empty empty 17 7 0 10 -262144
-1 -1;
#X obj 331 270 getdir 2;
#X obj 331 296 pack s s;
#X obj 387 296 symbol;
#X msg 387 270 base;
#X msg 331 342 open \$1;
#X obj 331 247 t b b;
#X obj 331 318 makesymbol %s/GLSL/%s.vert;
#X obj 304 223 t b b;
#X obj 162 361 getdir 2;
#X obj 162 387 pack s s;
#X obj 218 387 symbol;
#X msg 162 433 open \$1;
#X obj 162 338 t b b;
#X obj 162 409 makesymbol %s/GLSL/%s.frag;
#N canvas 789 277 576 443 glsl 0;
#X obj 86 377 glsl_program;
#X obj 159 292 pack 0 0;
#X obj 180 272 t b f;
#X obj 176 227 change;
#X obj 149 111 change;
#X msg 159 318 link \$1 \$2;
#X floatatom 180 253 2 0 0 0 ID - -;
#X floatatom 149 134 2 0 0 0 ID - -;
#X obj 86 89 glsl_vertex;
#X obj 86 207 glsl_fragment;
#X text 334 75 <-load an other shader;
#X text 338 89 (using rectangular texturing);
#X obj 86 13 inlet;
#X obj 87 416 outlet;
#X obj 269 11 inlet;
#X obj 322 11 inlet;
#X obj 373 15 inlet;
#X connect 0 0 13 0;
#X connect 1 0 5 0;
#X connect 2 0 1 0;
#X connect 2 1 1 1;
#X connect 3 0 6 0;
#X connect 4 0 7 0;
#X connect 5 0 0 0;
#X connect 6 0 2 0;
#X connect 7 0 1 0;
#X connect 8 0 9 0;
#X connect 8 1 4 0;
#X connect 9 0 0 0;
#X connect 9 1 3 0;
#X connect 12 0 8 0;
#X connect 14 0 0 0;
#X connect 15 0 8 0;
#X connect 16 0 9 0;
#X restore 62 327 pd glsl;
#X msg 109 265 iGlobalTime \$1;
#X floatatom 109 240 5 0 0 0 - - -;
#X obj 109 209 f;
#X obj 69 207 t a b;
#X msg 148 293 alpha \$1;
#X obj 69 77 r \$0-effect0;
#X msg 218 361 radial;
#X obj 181 210 fmod 1;
#X obj 136 209 + 0.001;
#X obj 177 50 r effect-9;
#X msg 234 107 \$1 2000;
#X obj 356 453 s totouch;
#X obj 356 430 packOSC;
#X obj 184 -5 r touchosc;
#X obj 184 18 routeOSC /win/19;
#X msg 356 407 send /win/19 \$1;
#X connect 0 0 2 1;
#X connect 0 0 7 0;
#X connect 1 0 6 0;
#X connect 2 0 27 0;
#X connect 4 0 0 0;
#X connect 4 1 34 0;
#X connect 5 0 1 0;
#X connect 6 0 28 0;
#X connect 6 0 39 0;
#X connect 7 0 8 0;
#X connect 8 0 16 0;
#X connect 9 0 10 0;
#X connect 10 0 15 0;
#X connect 11 0 10 1;
#X connect 12 0 11 0;
#X connect 13 0 23 2;
#X connect 14 0 9 0;
#X connect 14 1 12 0;
#X connect 15 0 13 0;
#X connect 16 0 21 0;
#X connect 16 1 14 0;
#X connect 17 0 18 0;
#X connect 18 0 22 0;
#X connect 19 0 18 1;
#X connect 20 0 23 3;
#X connect 21 0 17 0;
#X connect 21 1 30 0;
#X connect 22 0 20 0;
#X connect 23 0 3 0;
#X connect 24 0 23 1;
#X connect 25 0 24 0;
#X connect 26 0 25 0;
#X connect 26 0 32 0;
#X connect 27 0 23 0;
#X connect 27 1 26 0;
#X connect 28 0 23 1;
#X connect 29 0 2 0;
#X connect 30 0 19 0;
#X connect 31 0 26 1;
#X connect 32 0 31 0;
#X connect 33 0 4 0;
#X connect 34 0 5 0;
#X connect 36 0 35 0;
#X connect 37 0 38 0;
#X connect 38 0 1 0;
#X connect 39 0 36 0;
#X coords 0 -1 1 1 95 35 1 100 100;
#X restore 205 181 pd 9-radial;
#N canvas 170 220 843 622 8-distorded 0;
#X obj 102 117 tgl 15 0 empty empty empty 17 7 0 10 -262144 -1 -1 0
1;
#X obj 122 117 hsl 70 15 0 1 0 0 empty empty Alpha 5 8 0 10 -1 -258113
-262144 0 1;
#X obj 69 174 spigot;
#X obj 68 402 s outeffect;
#X obj 102 68 unpack f f;
#X obj 234 131 line;
#X floatatom 126 147 5 0 0 0 - - -;
#X obj 170 146 sel 1;
#X obj 304 200 bng 15 250 50 0 empty empty empty 17 7 0 10 -262144
-1 -1;
#X obj 331 270 getdir 2;
#X obj 331 296 pack s s;
#X obj 387 296 symbol;
#X msg 387 270 base;
#X msg 331 342 open \$1;
#X obj 331 247 t b b;
#X obj 331 318 makesymbol %s/GLSL/%s.vert;
#X obj 304 223 t b b;
#X obj 168 409 getdir 2;
#X obj 168 435 pack s s;
#X obj 224 435 symbol;
#X msg 168 481 open \$1;
#X obj 168 386 t b b;
#X obj 168 457 makesymbol %s/GLSL/%s.frag;
#X msg 224 409 distorted;
#N canvas 789 277 576 443 glsl 0;
#X obj 86 377 glsl_program;
#X obj 159 292 pack 0 0;
#X obj 180 272 t b f;
#X obj 176 227 change;
#X obj 149 111 change;
#X msg 159 318 link \$1 \$2;
#X floatatom 180 253 2 0 0 0 ID - -;
#X floatatom 149 134 2 0 0 0 ID - -;
#X obj 86 89 glsl_vertex;
#X obj 86 207 glsl_fragment;
#X text 334 75 <-load an other shader;
#X text 338 89 (using rectangular texturing);
#X obj 86 13 inlet;
#X obj 87 416 outlet;
#X obj 269 11 inlet;
#X obj 322 11 inlet;
#X obj 373 15 inlet;
#X connect 0 0 13 0;
#X connect 1 0 5 0;
#X connect 2 0 1 0;
#X connect 2 1 1 1;
#X connect 3 0 6 0;
#X connect 4 0 7 0;
#X connect 5 0 0 0;
#X connect 6 0 2 0;
#X connect 7 0 1 0;
#X connect 8 0 9 0;
#X connect 8 1 4 0;
#X connect 9 0 0 0;
#X connect 9 1 3 0;
#X connect 12 0 8 0;
#X connect 14 0 0 0;
#X connect 15 0 8 0;
#X connect 16 0 9 0;
#X restore 68 375 pd glsl;
#X msg 115 313 iGlobalTime \$1;
#X floatatom 115 288 5 0 0 0 - - -;
#X obj 115 257 f;
#X obj 75 255 t a b;
#X msg 139 339 alpha \$1;
#X obj 187 258 fmod 1000;
#X obj 142 257 + 0.01;
#X obj -35 96 r \$0-effect0;
#X obj 102 44 r effect-8;
#X msg 234 107 \$1 2000;
#X obj 366 463 s totouch;
#X obj 366 440 packOSC;
#X obj 194 5 r touchosc;
#X obj 194 28 routeOSC /win/17;
#X msg 366 417 send /win/17 \$1;
#X connect 0 0 2 1;
#X connect 0 0 7 0;
#X connect 1 0 6 0;
#X connect 2 0 28 0;
#X connect 4 0 0 0;
#X connect 4 1 34 0;
#X connect 5 0 1 0;
#X connect 6 0 29 0;
#X connect 6 0 39 0;
#X connect 7 0 8 0;
#X connect 8 0 16 0;
#X connect 9 0 10 0;
#X connect 10 0 15 0;
#X connect 11 0 10 1;
#X connect 12 0 11 0;
#X connect 13 0 24 2;
#X connect 14 0 9 0;
#X connect 14 1 12 0;
#X connect 15 0 13 0;
#X connect 16 0 21 0;
#X connect 16 1 14 0;
#X connect 17 0 18 0;
#X connect 18 0 22 0;
#X connect 19 0 18 1;
#X connect 20 0 24 3;
#X connect 21 0 17 0;
#X connect 21 1 23 0;
#X connect 22 0 20 0;
#X connect 23 0 19 0;
#X connect 24 0 3 0;
#X connect 25 0 24 1;
#X connect 26 0 25 0;
#X connect 27 0 26 0;
#X connect 27 0 31 0;
#X connect 28 0 24 0;
#X connect 28 1 27 0;
#X connect 29 0 24 1;
#X connect 30 0 27 1;
#X connect 31 0 30 0;
#X connect 32 0 2 0;
#X connect 33 0 4 0;
#X connect 34 0 5 0;
#X connect 36 0 35 0;
#X connect 37 0 38 0;
#X connect 38 0 1 0;
#X connect 39 0 36 0;
#X coords 0 -1 1 1 95 35 1 100 100;
#X restore 205 143 pd 8-distorded;
#N canvas 325 22 676 580 7-starC 0;
#X obj 102 119 tgl 15 0 empty empty empty 17 7 0 10 -262144 -1 -1 0
1;
#X obj 122 118 hsl 70 15 0 1 0 0 empty empty Alpha 5 8 0 10 -1 -258113
-262144 0 1;
#X obj 42 214 spigot;
#X obj 8 159 s e-sobel-tgl;
#X obj 43 368 s outeffect;
#X obj 215 193 bng 15 250 50 0 empty empty empty 17 7 0 10 -262144
-1 -1;
#X obj 242 263 getdir 2;
#X obj 242 289 pack s s;
#X obj 298 289 symbol;
#X msg 242 335 open \$1;
#X obj 242 240 t b b;
#X obj 242 311 makesymbol %s/GLSL/%s.vert;
#X obj 215 216 t b b;
#X obj 215 389 getdir 2;
#X obj 215 415 pack s s;
#X obj 271 415 symbol;
#X msg 215 461 open \$1;
#X obj 215 366 t b b;
#X obj 215 437 makesymbol %s/GLSL/%s.frag;
#X obj 215 167 sel 1;
#X msg 298 263 base;
#X msg 65 316 time \$1;
#X obj 43 238 t a b;
#X floatatom 64 295 5 0 0 0 - - -;
#X obj 64 266 f;
#X msg 103 295 alpha \$1;
#X obj 136 267 fmod 1000;
#X msg 271 389 starC;
#N canvas 789 277 576 443 starCShader 0;
#X obj 86 377 glsl_program;
#X obj 159 292 pack 0 0;
#X obj 180 272 t b f;
#X obj 176 227 change;
#X obj 149 111 change;
#X msg 159 318 link \$1 \$2;
#X floatatom 180 253 2 0 0 0 ID - -;
#X floatatom 149 134 2 0 0 0 ID - -;
#X obj 86 89 glsl_vertex;
#X obj 86 207 glsl_fragment;
#X text 334 75 <-load an other shader;
#X text 338 89 (using rectangular texturing);
#X obj 86 13 inlet;
#X obj 87 416 outlet;
#X obj 185 10 inlet;
#X obj 322 11 inlet;
#X obj 373 15 inlet;
#X connect 0 0 13 0;
#X connect 1 0 5 0;
#X connect 2 0 1 0;
#X connect 2 1 1 1;
#X connect 3 0 6 0;
#X connect 4 0 7 0;
#X connect 5 0 0 0;
#X connect 6 0 2 0;
#X connect 7 0 1 0;
#X connect 8 0 9 0;
#X connect 8 1 4 0;
#X connect 9 0 0 0;
#X connect 9 1 3 0;
#X connect 12 0 8 0;
#X connect 14 0 0 0;
#X connect 15 0 8 0;
#X connect 16 0 9 0;
#X restore 43 344 pd starCShader;
#X obj 42 187 r \$0-effect7;
#X obj 133 0 r effect-starC;
#X obj 133 25 unpack f f;
#X obj 301 133 line;
#X obj 281 17 t b f;
#X obj 281 44 del 300;
#X obj 301 82 v \$0-starC;
#X floatatom 133 205 5 0 0 0 - - -;
#X obj 91 266 + 0.05;
#X msg 301 106 \$1 2000;
#X obj 462 400 s totouch;
#X obj 462 377 packOSC;
#X obj 290 -58 r touchosc;
#X msg 462 354 send /win/15 \$1;
#X obj 290 -35 routeOSC /win/15;
#X connect 0 0 2 1;
#X connect 0 0 3 0;
#X connect 0 0 19 0;
#X connect 1 0 36 0;
#X connect 2 0 22 0;
#X connect 5 0 12 0;
#X connect 6 0 7 0;
#X connect 7 0 11 0;
#X connect 8 0 7 1;
#X connect 9 0 28 2;
#X connect 10 0 6 0;
#X connect 10 1 20 0;
#X connect 11 0 9 0;
#X connect 12 0 17 0;
#X connect 12 1 10 0;
#X connect 13 0 14 0;
#X connect 14 0 18 0;
#X connect 15 0 14 1;
#X connect 16 0 28 3;
#X connect 17 0 13 0;
#X connect 17 1 27 0;
#X connect 18 0 16 0;
#X connect 19 0 5 0;
#X connect 20 0 8 0;
#X connect 21 0 28 1;
#X connect 22 0 28 0;
#X connect 22 1 24 0;
#X connect 23 0 21 0;
#X connect 24 0 23 0;
#X connect 24 0 37 0;
#X connect 25 0 28 1;
#X connect 26 0 24 1;
#X connect 27 0 15 0;
#X connect 28 0 4 0;
#X connect 29 0 2 0;
#X connect 30 0 31 0;
#X connect 31 0 0 0;
#X connect 31 1 33 0;
#X connect 32 0 1 0;
#X connect 33 0 34 0;
#X connect 33 1 35 0;
#X connect 34 0 35 0;
#X connect 35 0 38 0;
#X connect 36 0 25 0;
#X connect 36 0 42 0;
#X connect 37 0 26 0;
#X connect 38 0 32 0;
#X connect 40 0 39 0;
#X connect 41 0 43 0;
#X connect 42 0 40 0;
#X connect 43 0 1 0;
#X coords 0 -1 1 1 95 35 1 100 100;
#X restore 205 105 pd 7-starC;
#N canvas 657 152 843 622 4-bloom 0;
#X obj 102 117 tgl 15 0 empty empty empty 17 7 0 10 -262144 -1 -1 0
1;
#X obj 102 72 inlet;
#X obj 122 117 hsl 70 15 0 1 0 0 empty empty bloom 5 8 0 10 -1 -258113
-262144 11 1;
#X obj 69 174 spigot;
#X obj 69 354 s outeffect;
#X obj 177 50 r effect-bloom;
#X obj 177 74 unpack f f;
#X obj 126 173 spigot;
#X obj 234 131 line;
#X obj 300 -21 r v-distance;
#X floatatom 126 147 5 0 0 0 - - -;
#X obj 300 8 expr (($f1-4)/9);
#X obj -18 262 s e-bloom-tgl;
#X obj 150 211 sel 1;
#X obj 243 217 bng 15 250 50 0 empty empty empty 17 7 0 10 -262144
-1 -1;
#N canvas 789 277 576 443 bloomShader 0;
#X obj 86 377 glsl_program;
#X obj 159 292 pack 0 0;
#X obj 180 272 t b f;
#X obj 176 227 change;
#X obj 149 111 change;
#X msg 159 318 link \$1 \$2;
#X floatatom 180 253 2 0 0 0 ID - -;
#X floatatom 149 134 2 0 0 0 ID - -;
#X obj 251 125 bng 15 250 50 0 empty empty empty 0 -6 0 8 -262144 -1
-1;
#X obj 86 89 glsl_vertex;
#X obj 86 207 glsl_fragment;
#X text 334 75 <-load an other shader;
#X text 338 89 (using rectangular texturing);
#X obj 86 13 inlet;
#X obj 87 416 outlet;
#X obj 269 11 inlet;
#X obj 185 10 inlet;
#X msg 222 197 glowSize \$1;
#X msg 246 160 0.25;
#X obj 185 57 / 100;
#X obj 322 11 inlet;
#X obj 373 15 inlet;
#X connect 0 0 14 0;
#X connect 1 0 5 0;
#X connect 2 0 1 0;
#X connect 2 1 1 1;
#X connect 3 0 6 0;
#X connect 4 0 7 0;
#X connect 5 0 0 0;
#X connect 6 0 2 0;
#X connect 7 0 1 0;
#X connect 8 0 18 0;
#X connect 9 0 10 0;
#X connect 9 1 4 0;
#X connect 10 0 0 0;
#X connect 10 1 3 0;
#X connect 13 0 9 0;
#X connect 15 0 8 0;
#X connect 16 0 19 0;
#X connect 17 0 0 0;
#X connect 18 0 17 0;
#X connect 19 0 17 0;
#X connect 20 0 9 0;
#X connect 21 0 10 0;
#X restore 69 327 pd bloomShader;
#X floatatom 89 291 5 0 0 0 - - -;
#X obj 151 288 bng 15 250 50 0 empty empty empty 17 7 0 10 -262144
-1 -1;
#X obj 270 287 getdir 2;
#X obj 270 313 pack s s;
#X obj 326 313 symbol;
#X msg 326 287 base;
#X msg 270 359 open \$1;
#X obj 270 264 t b b;
#X obj 270 335 makesymbol %s/GLSL/%s.vert;
#X obj 243 240 t b b;
#X obj 169 361 getdir 2;
#X obj 169 387 pack s s;
#X obj 225 387 symbol;
#X msg 169 433 open \$1;
#X obj 169 338 t b b;
#X obj 169 409 makesymbol %s/GLSL/%s.frag;
#X msg 225 361 bloom;
#X obj 126 195 expr 40+($f1*60);
#X obj 151 236 t b b;
#X obj -35 96 r \$0-effect4;
#X msg 234 107 \$1 2000;
#X obj 354 444 s totouch;
#X obj 354 421 packOSC;
#X obj 73 -14 r touchosc;
#X obj 73 9 routeOSC /win/9;
#X msg 354 398 send /win/9 \$1;
#X floatatom 270 81 5 0 0 0 - - -;
#X obj 338 75 print;
#X connect 0 0 3 1;
#X connect 0 0 7 1;
#X connect 0 0 12 0;
#X connect 0 0 13 0;
#X connect 1 0 0 0;
#X connect 2 0 10 0;
#X connect 2 0 41 0;
#X connect 3 0 15 0;
#X connect 5 0 6 0;
#X connect 5 0 43 0;
#X connect 6 0 0 0;
#X connect 6 1 36 0;
#X connect 6 1 42 0;
#X connect 7 0 33 0;
#X connect 8 0 2 0;
#X connect 9 0 11 0;
#X connect 10 0 7 0;
#X connect 11 0 36 0;
#X connect 13 0 34 0;
#X connect 14 0 25 0;
#X connect 15 0 4 0;
#X connect 16 0 15 1;
#X connect 17 0 15 2;
#X connect 18 0 19 0;
#X connect 19 0 24 0;
#X connect 20 0 19 1;
#X connect 21 0 20 0;
#X connect 22 0 15 3;
#X connect 23 0 18 0;
#X connect 23 1 21 0;
#X connect 24 0 22 0;
#X connect 25 0 30 0;
#X connect 25 1 23 0;
#X connect 26 0 27 0;
#X connect 27 0 31 0;
#X connect 28 0 27 1;
#X connect 29 0 15 4;
#X connect 30 0 26 0;
#X connect 30 1 32 0;
#X connect 31 0 29 0;
#X connect 32 0 28 0;
#X connect 33 0 16 0;
#X connect 34 0 17 0;
#X connect 34 1 14 0;
#X connect 35 0 3 0;
#X connect 36 0 8 0;
#X connect 38 0 37 0;
#X connect 39 0 40 0;
#X connect 40 0 2 0;
#X connect 41 0 38 0;
#X coords 0 -1 1 1 95 35 1 100 100;
#X restore 105 250 pd 4-bloom;
#N canvas 635 75 552 573 3-half 0;
#X obj 102 117 tgl 15 0 empty empty empty 17 7 0 10 -262144 -1 -1 0
1;
#X obj 102 72 inlet;
#X obj 122 117 hsl 70 15 0 1 0 0 empty empty halftone 5 8 0 10 -1 -258113
-262144 0 1;
#X obj 69 174 spigot;
#X obj 78 369 s outeffect;
#X obj 124 187 spigot;
#X obj 183 5 unpack f f;
#X obj 183 -53 r effect-time;
#X obj 335 130 line;
#X obj 175 81 v \$0-etime;
#X obj 149 32 t b f;
#X obj -47 175 s e-time-tgl;
#X obj 268 196 bng 15 250 50 0 empty empty empty 17 7 0 10 -262144
-1 -1;
#X obj 295 265 getdir 2;
#X obj 295 291 pack s s;
#X obj 351 291 symbol;
#X msg 351 265 base;
#X msg 295 337 open \$1;
#X obj 295 242 t b b;
#X obj 295 313 makesymbol %s/GLSL/%s.vert;
#X obj 268 218 t b b;
#X obj 179 371 getdir 2;
#X obj 179 397 pack s s;
#X obj 235 397 symbol;
#X msg 179 443 open \$1;
#X obj 179 348 t b b;
#X obj 179 419 makesymbol %s/GLSL/%s.frag;
#X obj 102 141 t f f f;
#X obj 267 172 sel 1;
#X msg 108 259 iGlobalTime \$1;
#X floatatom 108 234 5 0 0 0 - - -;
#X msg 235 371 halftone;
#N canvas 295 48 612 759 halftoneShader 0;
#X obj 86 377 glsl_program;
#X obj 159 292 pack 0 0;
#X obj 180 272 t b f;
#X obj 176 227 change;
#X obj 149 111 change;
#X msg 159 318 link \$1 \$2;
#X floatatom 180 253 2 0 0 0 ID - -;
#X floatatom 149 134 2 0 0 0 ID - -;
#X obj 86 89 glsl_vertex;
#X obj 86 207 glsl_fragment;
#X text 334 75 <-load an other shader;
#X text 338 89 (using rectangular texturing);
#X obj 86 13 inlet;
#X obj 87 416 outlet;
#X obj 232 214 inlet;
#X obj 322 11 inlet;
#X obj 373 15 inlet;
#X connect 0 0 13 0;
#X connect 1 0 5 0;
#X connect 2 0 1 0;
#X connect 2 1 1 1;
#X connect 3 0 6 0;
#X connect 4 0 7 0;
#X connect 5 0 0 0;
#X connect 6 0 2 0;
#X connect 7 0 1 0;
#X connect 8 0 9 0;
#X connect 8 1 4 0;
#X connect 9 0 0 0;
#X connect 9 1 3 0;
#X connect 12 0 8 0;
#X connect 14 0 0 0;
#X connect 15 0 8 0;
#X connect 16 0 9 0;
#X restore 79 337 pd halftoneShader;
#X obj 147 211 f;
#X obj 174 211 + 0.01;
#X obj 219 212 fmod 1;
#X obj 68 201 t a b;
#X msg 147 287 dotss \$1;
#X msg 335 107 \$1 2000;
#X obj -35 96 r \$0-effect3;
#X obj 149 55 del 300;
#X obj 376 400 s totouch;
#X obj 376 377 packOSC;
#X obj 15 -29 r touchosc;
#X obj 15 -6 routeOSC /win/7;
#X msg 376 354 send /win/7 \$1;
#X floatatom 261 44 5 0 0 0 - - -;
#X floatatom 199 40 5 0 0 0 - - -;
#X connect 0 0 11 0;
#X connect 0 0 27 0;
#X connect 1 0 0 0;
#X connect 2 0 45 0;
#X connect 2 0 5 0;
#X connect 3 0 36 0;
#X connect 5 0 37 0;
#X connect 6 0 10 0;
#X connect 6 0 47 0;
#X connect 6 1 0 0;
#X connect 6 1 46 0;
#X connect 7 0 6 0;
#X connect 8 0 2 0;
#X connect 9 0 38 0;
#X connect 10 0 40 0;
#X connect 10 1 9 0;
#X connect 12 0 20 0;
#X connect 13 0 14 0;
#X connect 14 0 19 0;
#X connect 15 0 14 1;
#X connect 16 0 15 0;
#X connect 17 0 32 2;
#X connect 18 0 13 0;
#X connect 18 1 16 0;
#X connect 19 0 17 0;
#X connect 20 0 25 0;
#X connect 20 1 18 0;
#X connect 21 0 22 0;
#X connect 22 0 26 0;
#X connect 23 0 22 1;
#X connect 24 0 32 3;
#X connect 25 0 21 0;
#X connect 25 1 31 0;
#X connect 26 0 24 0;
#X connect 27 0 3 1;
#X connect 27 1 5 1;
#X connect 27 2 28 0;
#X connect 28 0 12 0;
#X connect 29 0 32 1;
#X connect 30 0 29 0;
#X connect 31 0 23 0;
#X connect 32 0 4 0;
#X connect 33 0 34 0;
#X connect 33 0 30 0;
#X connect 34 0 35 0;
#X connect 35 0 33 1;
#X connect 36 0 32 0;
#X connect 36 1 33 0;
#X connect 37 0 32 1;
#X connect 38 0 8 0;
#X connect 39 0 3 0;
#X connect 40 0 9 0;
#X connect 42 0 41 0;
#X connect 43 0 44 0;
#X connect 44 0 2 0;
#X connect 45 0 42 0;
#X coords 0 -1 1 1 95 35 1 100 100;
#X restore 105 213 pd 3-half;
#N canvas 513 22 713 730 5-starA 0;
#X obj 102 117 tgl 15 0 empty empty empty 17 7 0 10 -262144 -1 -1 0
1;
#X obj 102 72 inlet;
#X obj 122 117 hsl 70 15 0 1 0 0 empty empty Alpha 5 8 0 10 -1 -258113
-262144 0 1;
#X obj 69 174 spigot;
#X floatatom 226 270 5 0 0 0 - - -;
#X obj 149 78 unpack f f;
#X obj 292 149 line;
#X obj 266 40 t b f;
#X msg 149 50 \$2 \$1;
#X obj 266 67 del 300;
#X obj 226 294 s v-speed;
#X obj 79 364 s outeffect;
#X obj 377 199 bng 15 250 50 0 empty empty empty 17 7 0 10 -262144
-1 -1;
#X obj 404 269 getdir 2;
#X obj 404 295 pack s s;
#X obj 460 295 symbol;
#X msg 404 341 open \$1;
#X obj 404 246 t b b;
#X obj 404 317 makesymbol %s/GLSL/%s.vert;
#X obj 377 222 t b b;
#X obj 179 371 getdir 2;
#X obj 179 397 pack s s;
#X obj 235 397 symbol;
#X msg 179 443 open \$1;
#X obj 179 348 t b b;
#X obj 179 419 makesymbol %s/GLSL/%s.frag;
#X obj 377 173 sel 1;
#X obj 69 49 r \$0-effect5;
#X msg 460 269 base;
#X msg 235 371 starA;
#N canvas 789 277 576 443 starShader 0;
#X obj 86 377 glsl_program;
#X obj 159 292 pack 0 0;
#X obj 180 272 t b f;
#X obj 176 227 change;
#X obj 149 111 change;
#X msg 159 318 link \$1 \$2;
#X floatatom 180 253 2 0 0 0 ID - -;
#X floatatom 149 134 2 0 0 0 ID - -;
#X obj 86 89 glsl_vertex;
#X obj 86 207 glsl_fragment;
#X text 334 75 <-load an other shader;
#X text 338 89 (using rectangular texturing);
#X obj 86 13 inlet;
#X obj 87 416 outlet;
#X obj 185 10 inlet;
#X obj 322 11 inlet;
#X obj 373 15 inlet;
#X connect 0 0 13 0;
#X connect 1 0 5 0;
#X connect 2 0 1 0;
#X connect 2 1 1 1;
#X connect 3 0 6 0;
#X connect 4 0 7 0;
#X connect 5 0 0 0;
#X connect 6 0 2 0;
#X connect 7 0 1 0;
#X connect 8 0 9 0;
#X connect 8 1 4 0;
#X connect 9 0 0 0;
#X connect 9 1 3 0;
#X connect 12 0 8 0;
#X connect 14 0 0 0;
#X connect 15 0 8 0;
#X connect 16 0 9 0;
#X restore 78 337 pd starShader;
#X msg 100 309 time \$1;
#X obj 64 205 t a b;
#X floatatom 99 288 5 0 0 0 - - -;
#X obj 93 226 f;
#X obj -8 272 s e-starA-tgl;
#X obj 292 98 v \$0-starA;
#X obj 149 21 r effect-wave;
#X msg 157 283 alpha \$1;
#X obj 165 227 fmod 5000;
#X obj 120 226 + 0.05;
#X msg 292 122 \$1 2000;
#X obj -47 370 s totouch;
#X obj -47 347 packOSC;
#X obj -7 -22 r touchosc;
#X obj -7 1 routeOSC /win/11;
#X msg -47 324 send /win/11 \$1;
#X connect 0 0 3 1;
#X connect 0 0 26 0;
#X connect 0 0 35 0;
#X connect 1 0 0 0;
#X connect 2 0 4 0;
#X connect 2 0 46 0;
#X connect 3 0 32 0;
#X connect 4 0 10 0;
#X connect 4 0 38 0;
#X connect 5 0 7 0;
#X connect 5 1 0 0;
#X connect 6 0 2 0;
#X connect 7 0 9 0;
#X connect 7 1 36 0;
#X connect 8 0 5 0;
#X connect 9 0 36 0;
#X connect 12 0 19 0;
#X connect 13 0 14 0;
#X connect 14 0 18 0;
#X connect 15 0 14 1;
#X connect 16 0 30 2;
#X connect 17 0 13 0;
#X connect 17 1 28 0;
#X connect 18 0 16 0;
#X connect 19 0 24 0;
#X connect 19 1 17 0;
#X connect 20 0 21 0;
#X connect 21 0 25 0;
#X connect 22 0 21 1;
#X connect 23 0 30 3;
#X connect 24 0 20 0;
#X connect 24 1 29 0;
#X connect 25 0 23 0;
#X connect 26 0 12 0;
#X connect 27 0 3 0;
#X connect 28 0 15 0;
#X connect 29 0 22 0;
#X connect 30 0 11 0;
#X connect 31 0 30 1;
#X connect 32 0 30 0;
#X connect 32 1 34 0;
#X connect 33 0 31 0;
#X connect 34 0 33 0;
#X connect 34 0 40 0;
#X connect 36 0 41 0;
#X connect 37 0 8 0;
#X connect 38 0 30 1;
#X connect 39 0 34 1;
#X connect 40 0 39 0;
#X connect 41 0 6 0;
#X connect 43 0 42 0;
#X connect 44 0 45 0;
#X connect 45 0 2 0;
#X connect 46 0 43 0;
#X coords 0 -1 1 1 95 35 1 100 100;
#X restore 105 287 pd 5-starA;
#N canvas 321 87 699 659 6-starB 0;
#X obj 102 117 tgl 15 0 empty empty empty 17 7 0 10 -262144 -1 -1 0
1;
#X obj 122 117 hsl 70 15 0 1 0 0 empty empty Alpha 5 8 0 10 -1 -258113
-262144 0 1;
#X obj 69 174 spigot;
#X obj 149 78 unpack f f;
#X obj 348 145 line;
#X obj 271 7 t b f;
#X msg 149 50 \$2 \$1;
#X obj 271 34 del 300;
#X obj -37 301 s e-sprial-tgl;
#X obj 69 49 r \$0-effect6;
#X obj 89 374 s outeffect;
#X obj 328 235 bng 15 250 50 0 empty empty empty 17 7 0 10 -262144
-1 -1;
#X obj 355 305 getdir 2;
#X obj 355 331 pack s s;
#X obj 411 331 symbol;
#X msg 355 377 open \$1;
#X obj 355 282 t b b;
#X obj 355 353 makesymbol %s/GLSL/%s.vert;
#X obj 328 258 t b b;
#X obj 189 381 getdir 2;
#X obj 189 407 pack s s;
#X obj 245 407 symbol;
#X msg 189 453 open \$1;
#X obj 189 358 t b b;
#X obj 189 429 makesymbol %s/GLSL/%s.frag;
#X obj 328 209 sel 1;
#X msg 411 305 base;
#X obj 74 215 t a b;
#X floatatom 109 298 5 0 0 0 - - -;
#X obj 103 236 f;
#X msg 167 293 alpha \$1;
#X msg 245 381 starB;
#N canvas 789 277 576 443 starBShader 0;
#X obj 86 377 glsl_program;
#X obj 159 292 pack 0 0;
#X obj 180 272 t b f;
#X obj 176 227 change;
#X obj 149 111 change;
#X msg 159 318 link \$1 \$2;
#X floatatom 180 253 2 0 0 0 ID - -;
#X floatatom 149 134 2 0 0 0 ID - -;
#X obj 86 89 glsl_vertex;
#X obj 86 207 glsl_fragment;
#X text 334 75 <-load an other shader;
#X text 338 89 (using rectangular texturing);
#X obj 86 13 inlet;
#X obj 87 416 outlet;
#X obj 185 10 inlet;
#X obj 322 11 inlet;
#X obj 373 15 inlet;
#X connect 0 0 13 0;
#X connect 1 0 5 0;
#X connect 2 0 1 0;
#X connect 2 1 1 1;
#X connect 3 0 6 0;
#X connect 4 0 7 0;
#X connect 5 0 0 0;
#X connect 6 0 2 0;
#X connect 7 0 1 0;
#X connect 8 0 9 0;
#X connect 8 1 4 0;
#X connect 9 0 0 0;
#X connect 9 1 3 0;
#X connect 12 0 8 0;
#X connect 14 0 0 0;
#X connect 15 0 8 0;
#X connect 16 0 9 0;
#X restore 88 347 pd starBShader;
#X obj 175 237 fmod 1000;
#X obj 348 94 v \$0-starB;
#X obj 149 20 r effect-starB;
#X msg 110 319 iGlobalTime \$1;
#X obj 130 236 + 0.1;
#X msg 348 118 \$1 2000;
#X obj 8 452 s totouch;
#X obj 8 429 packOSC;
#X obj 49 -42 r touchosc;
#X obj 49 -19 routeOSC /win/13;
#X msg 8 406 send /win/13 \$1;
#X connect 0 0 2 1;
#X connect 0 0 8 0;
#X connect 0 0 25 0;
#X connect 1 0 30 0;
#X connect 1 0 43 0;
#X connect 2 0 27 0;
#X connect 3 0 5 0;
#X connect 3 1 0 0;
#X connect 4 0 1 0;
#X connect 5 0 7 0;
#X connect 5 1 34 0;
#X connect 6 0 3 0;
#X connect 7 0 34 0;
#X connect 9 0 2 0;
#X connect 11 0 18 0;
#X connect 12 0 13 0;
#X connect 13 0 17 0;
#X connect 14 0 13 1;
#X connect 15 0 32 2;
#X connect 16 0 12 0;
#X connect 16 1 26 0;
#X connect 17 0 15 0;
#X connect 18 0 23 0;
#X connect 18 1 16 0;
#X connect 19 0 20 0;
#X connect 20 0 24 0;
#X connect 21 0 20 1;
#X connect 22 0 32 3;
#X connect 23 0 19 0;
#X connect 23 1 31 0;
#X connect 24 0 22 0;
#X connect 25 0 11 0;
#X connect 26 0 14 0;
#X connect 27 0 32 0;
#X connect 27 1 29 0;
#X connect 28 0 36 0;
#X connect 29 0 28 0;
#X connect 29 0 37 0;
#X connect 30 0 32 1;
#X connect 31 0 21 0;
#X connect 32 0 10 0;
#X connect 33 0 29 1;
#X connect 34 0 38 0;
#X connect 35 0 6 0;
#X connect 36 0 32 1;
#X connect 37 0 33 0;
#X connect 38 0 4 0;
#X connect 40 0 39 0;
#X connect 41 0 42 0;
#X connect 42 0 1 0;
#X connect 43 0 40 0;
#X coords 0 -1 1 1 95 35 1 100 100;
#X restore 105 324 pd 6-starB;
#N canvas 779 201 581 619 2-boken 0;
#X obj 101 117 tgl 15 0 empty empty empty 17 7 0 10 -262144 -1 -1 1
1;
#X obj 102 76 inlet;
#X obj 121 117 hsl 30 15 0 1 0 0 empty empty focus 5 8 0 10 -1 -258113
-262144 2610 1;
#X obj -10 181 spigot;
#X obj 61 393 s outeffect;
#X obj 156 77 line;
#X obj 41 178 spigot;
#X obj 161 117 hsl 30 15 0 0.1 0 0 empty empty bias 5 8 0 10 -1 -258113
-262144 580 1;
#X obj 88 177 spigot;
#X obj 149 -20 r effect-vfocus;
#X obj 149 4 unpack f f f;
#X obj 255 79 line;
#X obj -43 228 s e-focus-tgl;
#X msg 59 259 focus \$1;
#X msg 121 258 bias \$1;
#X obj 247 250 bng 15 250 50 0 empty empty empty 17 7 0 10 -262144
-1 -1;
#X obj 274 320 getdir 2;
#X obj 274 346 pack s s;
#X msg 274 392 open \$1;
#X obj 274 297 t b b;
#X obj 274 368 makesymbol %s/GLSL/%s.vert;
#X obj 247 273 t b b;
#X obj 173 394 getdir 2;
#X obj 173 420 pack s s;
#X obj 229 420 symbol;
#X msg 173 466 open \$1;
#X obj 173 371 t b b;
#X obj 173 442 makesymbol %s/GLSL/%s.frag;
#X obj 247 218 sel 1;
#X msg 336 321 base;
#X msg 229 394 bokeh;
#X obj 394 328 symbol;
#N canvas 789 277 576 443 bokenShader 0;
#X obj 86 377 glsl_program;
#X obj 159 292 pack 0 0;
#X obj 180 272 t b f;
#X obj 176 227 change;
#X obj 149 111 change;
#X msg 159 318 link \$1 \$2;
#X floatatom 180 253 2 0 0 0 ID - -;
#X floatatom 149 134 2 0 0 0 ID - -;
#X obj 86 89 glsl_vertex;
#X obj 86 207 glsl_fragment;
#X obj 86 13 inlet;
#X obj 87 416 outlet;
#X obj 269 11 inlet;
#X obj 185 10 inlet;
#X obj 346 11 inlet;
#X obj 397 15 inlet;
#X connect 0 0 11 0;
#X connect 1 0 5 0;
#X connect 2 0 1 0;
#X connect 2 1 1 1;
#X connect 3 0 6 0;
#X connect 4 0 7 0;
#X connect 5 0 0 0;
#X connect 6 0 2 0;
#X connect 7 0 1 0;
#X connect 8 0 9 0;
#X connect 8 1 4 0;
#X connect 9 0 0 0;
#X connect 9 1 3 0;
#X connect 10 0 8 0;
#X connect 12 0 0 0;
#X connect 13 0 0 0;
#X connect 14 0 8 0;
#X connect 15 0 9 0;
#X restore 73 360 pd bokenShader;
#X obj -10 134 r \$0-effect2;
#X msg 255 56 \$1 2000;
#X msg 156 54 \$1 2000;
#X connect 0 0 3 1;
#X connect 0 0 6 1;
#X connect 0 0 8 1;
#X connect 0 0 12 0;
#X connect 0 0 28 0;
#X connect 1 0 0 0;
#X connect 2 0 6 0;
#X connect 3 0 32 0;
#X connect 5 0 2 0;
#X connect 6 0 13 0;
#X connect 7 0 8 0;
#X connect 8 0 14 0;
#X connect 9 0 10 0;
#X connect 10 0 0 0;
#X connect 10 1 35 0;
#X connect 10 2 34 0;
#X connect 11 0 7 0;
#X connect 13 0 32 1;
#X connect 14 0 32 2;
#X connect 15 0 21 0;
#X connect 16 0 17 0;
#X connect 17 0 20 0;
#X connect 18 0 32 3;
#X connect 19 0 16 0;
#X connect 19 1 29 0;
#X connect 20 0 18 0;
#X connect 21 0 26 0;
#X connect 21 1 19 0;
#X connect 22 0 23 0;
#X connect 23 0 27 0;
#X connect 24 0 23 1;
#X connect 25 0 32 4;
#X connect 26 0 22 0;
#X connect 26 1 30 0;
#X connect 27 0 25 0;
#X connect 28 0 15 0;
#X connect 29 0 31 0;
#X connect 30 0 24 0;
#X connect 31 0 17 1;
#X connect 32 0 4 0;
#X connect 33 0 3 0;
#X connect 34 0 11 0;
#X connect 35 0 5 0;
#X coords 0 -1 1 1 95 35 1 100 100;
#X restore 105 176 pd 2-boken;
#N canvas 0 22 450 300 pix-color 0;
#X obj 106 117 tgl 15 0 empty empty empty 17 7 0 10 -262144 -1 -1 0
1;
#X obj 6 326 spigot;
#X obj 6 382 s outeffect;
#X obj 113 69 r \$0-effect6;
#X obj 6 356 pix_color;
#X obj 160 2 loadbang;
#X msg 160 22 0;
#X obj 110 263 pack f f f;
#X obj 127 117 hsl 15 15 0 1 0 0 empty empty empty -2 -8 0 10 -258113
-1 -1 1400 1;
#X obj 150 117 hsl 15 15 0 1 0 0 empty empty empty -2 -8 0 10 -4034
-1 -1 1400 1;
#X obj 173 117 hsl 15 15 0 1 0 0 empty empty empty -2 -8 0 10 -4160
-1 -1 1400 1;
#X obj 158 196 line;
#X obj 105 194 line;
#X obj 211 194 line;
#X obj 158 221 t b f;
#X obj 210 221 t b f;
#X msg 183 46 1;
#X msg 105 172 \$1 200;
#X msg 158 174 \$1 200;
#X msg 212 172 \$1 200;
#X connect 0 0 1 1;
#X connect 1 0 4 0;
#X connect 3 0 1 0;
#X connect 4 0 2 0;
#X connect 5 0 6 0;
#X connect 5 0 16 0;
#X connect 6 0 0 0;
#X connect 7 0 4 1;
#X connect 8 0 17 0;
#X connect 9 0 18 0;
#X connect 10 0 19 0;
#X connect 11 0 14 0;
#X connect 12 0 7 0;
#X connect 13 0 15 0;
#X connect 14 0 7 0;
#X connect 14 1 7 1;
#X connect 15 0 7 0;
#X connect 15 1 7 2;
#X connect 16 0 8 0;
#X connect 16 0 9 0;
#X connect 16 0 10 0;
#X connect 17 0 12 0;
#X connect 18 0 11 0;
#X connect 19 0 13 0;
#X coords 0 -1 1 1 95 35 1 100 100;
#X restore -47 318 pd pix-color;
#N canvas 827 112 451 612 show-buffer 0;
#X obj 14 435 r x_size;
#X obj -100 335 pix_texture;
#X obj -100 205 r outeffect;
#X obj -100 261 pix_gain 1;
#X obj -100 438 alpha;
#X floatatom 14 459 5 0 0 0 - - -;
#X obj -100 468 rectangle 5.33 4;
#X obj -100 391 scale 0.262;
#X msg 1 338 quality \$1;
#X obj 1 319 tgl 15 0 empty empty empty 0 -6 0 8 -262144 -1 -1 1 1
;
#X obj 1 295 loadbang;
#X obj -82 285 loadbang;
#X msg -82 307 rectangle 0;
#X obj -72 236 r \$0-egain;
#X obj 24 391 r \$0-ealpha;
#X obj -63 438 r \$0-eblend;
#X obj -100 417 colorRGB 1 1 1 1;
#X obj 0 394 tgl 15 0 empty empty empty 17 7 0 10 -262144 -1 -1 0 1
;
#X obj 17 183 tgl 15 0 empty empty empty 17 7 0 10 -262144 -1 -1 0
1;
#X obj -100 365 translateXYZ 0 0 2.95;
#X connect 0 0 5 0;
#X connect 1 0 19 0;
#X connect 2 0 3 0;
#X connect 3 0 1 0;
#X connect 4 0 6 0;
#X connect 5 0 6 1;
#X connect 7 0 16 0;
#X connect 8 0 1 0;
#X connect 9 0 8 0;
#X connect 10 0 9 0;
#X connect 11 0 12 0;
#X connect 12 0 1 0;
#X connect 13 0 3 1;
#X connect 14 0 17 0;
#X connect 15 0 4 1;
#X connect 16 0 4 0;
#X connect 17 0 16 4;
#X connect 19 0 7 0;
#X restore -46 299 pd show-buffer;
#X obj -46 254 pix_buffer_read \$0-temp;
#X msg -19 227 0;
#N canvas 392 420 450 300 snap 0;
#X obj 167 99 t b a;
#X obj 284 142 r buffer-xy;
#X obj 167 187 t a b;
#X obj 167 236 pix_buffer_write \$0-temp;
#X msg 308 211 0;
#X obj 167 165 pix_snap 0 0 800 600;
#X obj 257 20 inlet;
#X obj 167 57 k_tgl;
#X obj 167 20 gemhead 30000;
#X msg 167 127 snap;
#X connect 0 0 9 0;
#X connect 0 1 5 0;
#X connect 1 0 5 2;
#X connect 2 0 3 0;
#X connect 2 1 4 0;
#X connect 4 0 3 1;
#X connect 5 0 2 0;
#X connect 6 0 7 1;
#X connect 7 0 0 0;
#X connect 8 0 7 0;
#X connect 9 0 5 0;
#X restore -46 126 pd snap;
#X obj -46 14 pix_buffer \$0-temp 1;
#X obj -46 171 k_tgl;
#X obj -46 59 > 0;
#N canvas 617 495 450 300 in 0;
#X obj -112 124 s outeffect;
#X obj 136 188 s \$0-effect1;
#X obj 77 153 s \$0-effect2;
#X obj 50 176 s \$0-effect3;
#X obj 38 67 s \$0-effect4;
#X obj 23 91 s \$0-effect5;
#X obj 8 116 s \$0-effect6;
#X obj -7 139 s \$0-effect7;
#X obj -22 162 s \$0-effect8;
#X obj -37 41 t a a a a a a a a a a;
#X obj -37 16 inlet;
#X obj 173 124 s \$0-effect0;
#X connect 9 1 8 0;
#X connect 9 2 7 0;
#X connect 9 3 6 0;
#X connect 9 4 5 0;
#X connect 9 5 4 0;
#X connect 9 6 3 0;
#X connect 9 7 2 0;
#X connect 9 8 1 0;
#X connect 9 9 11 0;
#X connect 10 0 9 0;
#X restore -46 278 pd in buffer;
#X obj -46 85 t f f f;
#X obj -46 207 t a b;
#X obj -46 37 r \$0-ealpha;
#X obj -46 151 gemhead -1;
#N canvas 37 479 594 577 udp 0;
#X obj -94 46 tgl 15 0 empty empty empty 17 7 0 10 -262144 -1 -1 0
1;
#X obj -94 126 s toudp;
#X obj -94 99 packOSC;
#X msg -94 75 send /effect /1 \$1;
#X msg 18 44 send /effect /2 \$1;
#X msg -36 -17 send /effect /3 \$1;
#X obj -36 -45 r e-time-tgl;
#X obj -94 19 r e-bloom-tgl;
#X obj 46 94 r e-focus-tgl;
#X msg 46 121 send /effect /4 \$1;
#X obj 18 16 r e-starA-tgl;
#X obj -263 28 r e-starA-tgl;
#X obj -263 53 sel 1;
#X obj -263 106 s \$0-alpha;
#X msg -263 76 1;
#X msg -229 77 0;
#X obj -289 -15 r e-starB-tgl;
#X obj -186 -1 r e-starC-tgl;
#X obj -263 196 s gui-noise;
#X msg -274 450 0;
#X obj -274 479 s effect-tgl;
#X obj -274 424 sel 0;
#X floatatom -274 403 5 0 0 0 - - -;
#X obj -264 242 bng 15 250 50 0 empty empty empty 17 7 0 10 -262144
-1 -1;
#X obj -264 220 r bomb-effect;
#X obj -263 167 sel 1 0;
#X obj -263 136 r toflash;
#X obj -30 345 v e-8;
#X obj 13 345 v e-9;
#X obj -264 260 t b b b b b b b b b;
#X obj -274 347 v e-2;
#X obj -235 347 v e-3;
#X obj -195 348 v e-4;
#X obj -155 347 v e-5;
#X obj -114 346 v e-6;
#X obj -71 346 v e-7;
#X obj -320 -41 r e-8-tgl;
#X obj -229 -41 r e-9-tgl;
#X obj -274 373 expr $f1+$f2+$f3+$f4+$f5+$f6+$f7+$f8+$f9;
#X obj 55 344 v e-10;
#X obj -183 67 loadbang;
#X msg -184 92 1;
#X connect 0 0 3 0;
#X connect 2 0 1 0;
#X connect 3 0 2 0;
#X connect 4 0 2 0;
#X connect 5 0 2 0;
#X connect 6 0 5 0;
#X connect 7 0 0 0;
#X connect 8 0 9 0;
#X connect 9 0 2 0;
#X connect 10 0 4 0;
#X connect 11 0 12 0;
#X connect 12 0 14 0;
#X connect 12 1 15 0;
#X connect 16 0 12 0;
#X connect 17 0 12 0;
#X connect 19 0 20 0;
#X connect 21 0 19 0;
#X connect 22 0 21 0;
#X connect 23 0 29 0;
#X connect 24 0 23 0;
#X connect 25 0 18 0;
#X connect 25 1 18 0;
#X connect 26 0 25 0;
#X connect 27 0 38 6;
#X connect 28 0 38 7;
#X connect 29 0 30 0;
#X connect 29 1 31 0;
#X connect 29 2 32 0;
#X connect 29 3 33 0;
#X connect 29 4 34 0;
#X connect 29 5 35 0;
#X connect 29 6 27 0;
#X connect 29 7 28 0;
#X connect 29 8 39 0;
#X connect 30 0 38 0;
#X connect 31 0 38 1;
#X connect 32 0 38 2;
#X connect 33 0 38 3;
#X connect 34 0 38 4;
#X connect 35 0 38 5;
#X connect 36 0 12 0;
#X connect 37 0 12 0;
#X connect 38 0 22 0;
#X connect 39 0 38 8;
#X connect 40 0 41 0;
#X connect 41 0 13 0;
#X restore 87 14 pd udp;
#X connect 1 0 32 0;
#X connect 25 0 31 0;
#X connect 26 0 25 1;
#X connect 29 0 33 0;
#X connect 30 0 1 0;
#X connect 32 0 27 0;
#X connect 32 1 29 1;
#X connect 33 0 25 0;
#X connect 33 1 26 0;
#X connect 34 0 30 0;
#X connect 35 0 29 0;
#X coords 0 -1 1 1 210 260 1 100 100;
