#N canvas 640 120 938 680 10;
#X obj 101 101 cnv 15 208 228 empty empty k_effect 5 12 0 14 -191677
-66577 0;
#X obj -65 149 t a b b;
#X obj 105 127 tgl 30 0 empty empty E 11 15 0 15 -258113 -1 -1 0 1
;
#X obj -38 530 r x_size;
#X obj -139 441 pix_texture;
#N canvas 234 45 450 482 smear 0;
#X obj 104 104 hsl 40 14 1 10 0 0 empty empty Gain 5 8 0 10 -1 -258113
-262144 0 1;
#X obj 56 175 outlet;
#X obj 152 104 hsl 40 14 0 1 0 0 empty empty Alpha 5 8 0 10 -1 -258113
-262144 0 1;
#X obj 103 176 outlet;
#X obj 147 -38 inlet;
#X obj 147 71 line;
#X obj 147 -14 sel 0 1;
#X msg 147 13 0;
#X msg 178 13 0.5;
#X obj 78 67 line;
#X msg 77 14 1;
#X obj -2 -74 r effect-gain;
#X obj 86 -74 r effect-alpha;
#X msg 147 46 \$1 1000;
#X msg 78 42 \$1 1000;
#X msg 108 13 1;
#X connect 0 0 1 0;
#X connect 2 0 3 0;
#X connect 4 0 6 0;
#X connect 5 0 2 0;
#X connect 6 0 7 0;
#X connect 6 0 10 0;
#X connect 6 1 8 0;
#X connect 6 1 15 0;
#X connect 7 0 13 0;
#X connect 8 0 13 0;
#X connect 9 0 0 0;
#X connect 10 0 14 0;
#X connect 11 0 14 0;
#X connect 12 0 13 0;
#X connect 13 0 5 0;
#X connect 14 0 9 0;
#X connect 15 0 14 0;
#X coords 0 -1 1 1 95 20 2 100 100;
#X restore 105 165 pd smear;
#X obj 10 244 s \$0-effect1;
#X obj -5 268 s \$0-effect2;
#X obj -20 293 s \$0-effect3;
#X obj -139 332 r outeffect;
#X obj -139 367 pix_gain 1;
#X obj -35 316 s \$0-effect4;
#X obj -50 339 s \$0-effect5;
#X obj -65 196 pix_buffer_read \$0-temp;
#X obj -139 523 colorRGB;
#X obj -139 544 alpha;
#X msg -26 168 0;
#X obj 27 0 r effect-tgl;
#X floatatom -38 554 5 0 0 0 - - -;
#X obj -139 574 rectangle 5.33 4;
#X obj -65 93 gemhead -1;
#N canvas 392 420 450 300 snap 0;
#X obj 167 106 t b a;
#X obj 284 139 r buffer-xy;
#X obj 167 187 t a b;
#X obj 167 236 pix_buffer_write \$0-temp;
#X msg 167 137 snap;
#X msg 308 211 0;
#X obj 167 165 pix_snap 0 0 800 600;
#X obj 257 27 inlet;
#X obj 167 64 k_tgl;
#X obj 167 27 gemhead 30000;
#X connect 0 0 4 0;
#X connect 0 1 6 0;
#X connect 1 0 6 2;
#X connect 2 0 3 0;
#X connect 2 1 5 0;
#X connect 4 0 6 0;
#X connect 5 0 3 1;
#X connect 6 0 2 0;
#X connect 7 0 8 1;
#X connect 8 0 0 0;
#X connect 9 0 8 0;
#X restore -133 167 pd snap;
#X obj -133 67 loadbang;
#X msg -133 89 0;
#X obj -140 301 s outeffect;
#X obj -129 18 pix_buffer \$0-temp 1;
#X obj -133 126 t f f;
#X obj -65 113 k_tgl;
#X obj 0 487 tgl 15 0 empty empty empty 17 7 0 10 -262144 -1 -1 1 1
;
#N canvas 476 128 464 405 (subpatch) 0;
#X obj 85 235 s effect-tgl;
#X msg 85 211 1;
#X obj 0 261 s effect-bloom;
#X msg 0 236 1 1;
#X obj 15 127 sel 1;
#X obj 0 0 tgl 30 0 empty empty 4 10 15 0 15 -1 -260097 -262144 0 1
;
#X msg 32 235 0 1;
#X obj -44 197 s gem-fog;
#X msg -44 169 3 0.1;
#X obj 25 100 s bomb-effect;
#X obj 0 -24 sel 1;
#X obj 0 -47 route key_33;
#X obj 0 -74 inlet;
#X obj 49 120 outlet;
#X obj 32 74 v e-b;
#X obj 0 39 t b f f f f;
#X obj 159 158 s toflash;
#X obj 54 -84 inlet;
#X obj -87 -72 r touchosc;
#X obj -87 -48 routeOSC /eq;
#X obj -87 -24 route /11;
#X obj 189 91 s totouch;
#X obj 189 68 packOSC;
#X msg 189 45 send /eq/11 \$1;
#X connect 1 0 0 0;
#X connect 3 0 2 0;
#X connect 4 0 3 0;
#X connect 4 0 1 0;
#X connect 4 0 8 0;
#X connect 4 1 6 0;
#X connect 5 0 15 0;
#X connect 6 0 2 0;
#X connect 8 0 7 0;
#X connect 10 0 5 0;
#X connect 11 0 10 0;
#X connect 12 0 11 0;
#X connect 15 0 9 0;
#X connect 15 1 4 0;
#X connect 15 2 14 0;
#X connect 15 3 13 0;
#X connect 15 4 16 0;
#X connect 15 4 23 0;
#X connect 17 0 5 0;
#X connect 18 0 19 0;
#X connect 19 0 20 0;
#X connect 20 0 5 0;
#X connect 22 0 21 0;
#X connect 23 0 22 0;
#X coords 0 1 100 -1 30 30 1 0 0;
#X restore 275 104 graph;
#N canvas 669 179 489 503 (subpatch) 0;
#X obj 0 114 sel 1;
#X obj 0 0 tgl 30 0 empty empty 5 10 15 0 15 -1 -260097 -262144 0 1
;
#X obj 3 234 s effect-wave;
#X msg 3 209 1 0.8;
#X msg 45 208 0 1;
#X obj -9 68 s bomb-effect;
#X obj 0 -26 sel 1;
#X obj -100 252 s effect-tgl;
#X msg -100 228 1;
#X obj 0 -49 route key_34;
#X obj 0 -71 inlet;
#X obj 48 108 outlet;
#X obj 96 63 v e-w;
#X obj 56 14 t b f f f f;
#X obj 121 106 s toflash;
#X obj 97 -60 inlet;
#X obj -89 -70 r touchosc;
#X obj -89 -46 routeOSC /eq;
#X obj -89 -22 route /12;
#X obj 225 166 s totouch;
#X obj 225 143 packOSC;
#X msg 225 120 send /eq/12 \$1;
#X connect 0 0 3 0;
#X connect 0 0 8 0;
#X connect 0 1 4 0;
#X connect 1 0 13 0;
#X connect 3 0 2 0;
#X connect 4 0 2 0;
#X connect 6 0 1 0;
#X connect 8 0 7 0;
#X connect 9 0 6 0;
#X connect 10 0 9 0;
#X connect 13 0 5 0;
#X connect 13 1 0 0;
#X connect 13 2 11 0;
#X connect 13 3 12 0;
#X connect 13 4 14 0;
#X connect 13 4 21 0;
#X connect 15 0 1 0;
#X connect 16 0 17 0;
#X connect 17 0 18 0;
#X connect 18 0 1 0;
#X connect 20 0 19 0;
#X connect 21 0 20 0;
#X coords 0 1 100 -1 30 30 1 0 0;
#X restore 206 139 graph;
#N canvas 617 301 558 413 (subpatch) 0;
#X obj 101 264 s effect-tgl;
#X msg 101 240 1;
#X obj 0 55 sel 1;
#X obj 0 0 tgl 30 0 empty empty 3 10 15 0 15 -1 -260097 -262144 0 1
;
#X obj 13 263 s effect-time;
#X msg 57 239 0 0;
#X obj -128 288 s effect-gain;
#X obj -41 290 s effect-alpha;
#X msg -129 260 10;
#X msg -41 262 1;
#X obj -158 193 t b b b b b b b;
#X msg 12 240 0.1 1;
#X obj 55 102 s bomb-effect;
#X obj 0 -24 sel 1;
#X obj 0 -46 route key_32;
#X obj 0 -72 inlet;
#X obj 242 41 outlet;
#X obj 72 64 v e-t;
#X obj 71 7 t b f f f f;
#X obj 116 86 s toflash;
#X obj 115 -64 r touchosc;
#X obj 115 -40 routeOSC /eq;
#X obj 115 -16 route /10;
#X obj 205 146 s totouch;
#X obj 205 123 packOSC;
#X msg 205 100 send /eq/10 \$1;
#X connect 1 0 0 0;
#X connect 2 0 10 0;
#X connect 2 1 5 0;
#X connect 3 0 18 0;
#X connect 5 0 4 0;
#X connect 8 0 6 0;
#X connect 9 0 7 0;
#X connect 10 0 11 0;
#X connect 10 3 8 0;
#X connect 10 4 9 0;
#X connect 10 6 1 0;
#X connect 11 0 4 0;
#X connect 13 0 3 0;
#X connect 14 0 13 0;
#X connect 15 0 14 0;
#X connect 18 0 12 0;
#X connect 18 1 2 0;
#X connect 18 2 17 0;
#X connect 18 3 19 0;
#X connect 18 4 16 0;
#X connect 18 4 25 0;
#X connect 20 0 21 0;
#X connect 21 0 22 0;
#X connect 22 0 3 0;
#X connect 24 0 23 0;
#X connect 25 0 24 0;
#X coords 0 1 100 -1 30 30 1 0 0;
#X restore 240 104 graph;
#X obj 305 -23 r hid;
#N canvas 284 251 642 465 (subpatch) 0;
#X obj 101 218 s effect-tgl;
#X msg 101 194 1;
#X obj 0 55 sel 1;
#X obj 0 0 tgl 30 0 empty empty 2 10 15 0 15 -1 -260097 -262144 0 1
;
#X obj -128 288 s effect-gain;
#X obj -41 290 s effect-alpha;
#X msg -41 262 1;
#X obj -158 193 t b b b b b b b;
#X obj 54 100 s bomb-effect;
#X obj 0 -24 sel 1;
#X obj 13 263 s effect-vfocus;
#X msg 71 237 0 0 0;
#X msg -14 236 1 0.35 0.03;
#X obj 0 -73 inlet;
#X obj 0 -47 route key_31;
#X obj 164 21 outlet;
#X obj 110 54 v e-d;
#X obj 63 5 t b f f f f;
#X msg -129 260 1;
#X obj 91 76 s toflash;
#X obj 105 -74 r touchosc;
#X obj 105 -50 routeOSC /eq;
#X obj 105 -26 route /9;
#X obj 195 136 s totouch;
#X obj 195 113 packOSC;
#X msg 195 90 send /eq/9 \$1;
#X connect 1 0 0 0;
#X connect 2 0 7 0;
#X connect 2 1 11 0;
#X connect 3 0 17 0;
#X connect 6 0 5 0;
#X connect 7 2 12 0;
#X connect 7 3 18 0;
#X connect 7 4 6 0;
#X connect 7 6 1 0;
#X connect 9 0 3 0;
#X connect 11 0 10 0;
#X connect 12 0 10 0;
#X connect 13 0 14 0;
#X connect 14 0 9 0;
#X connect 17 0 8 0;
#X connect 17 1 2 0;
#X connect 17 2 19 0;
#X connect 17 3 16 0;
#X connect 17 4 15 0;
#X connect 17 4 25 0;
#X connect 18 0 4 0;
#X connect 20 0 21 0;
#X connect 21 0 22 0;
#X connect 22 0 3 0;
#X connect 24 0 23 0;
#X connect 25 0 24 0;
#X coords 0 1 100 -1 30 30 1 0 0;
#X restore 206 104 graph;
#X obj 305 -3 t a a;
#X obj 299 42 spigot;
#X obj 22 353 s \$0-effect6;
#X obj -139 471 translateXYZ 0 0 2.95;
#X obj -139 497 scale 0.262;
#X obj 300 473 tgl 15 0 empty empty empty 17 7 0 10 -262144 -1 -1 0
1;
#X obj 300 553 s toudp;
#X obj 300 526 packOSC;
#X msg 300 502 send /effect /1 \$1;
#X obj 412 443 r e-wave-tgl;
#X msg 412 471 send /effect /2 \$1;
#X msg 358 410 send /effect /3 \$1;
#X obj 358 382 r e-time-tgl;
#X obj 332 20 route key_226;
#X obj 323 247 s gui-noise;
#X msg 463 354 0;
#X obj 463 383 s effect-tgl;
#X obj 463 222 v e-d;
#X obj 502 222 v e-t;
#X obj 542 223 v e-b;
#X obj 582 222 v e-w;
#X obj 463 299 sel 0;
#X obj 27 25 change;
#X floatatom 463 278 5 0 0 0 - - -;
#X obj 463 176 bng 15 250 50 0 empty empty empty 17 7 0 10 -262144
-1 -1;
#X obj 463 154 r bomb-effect;
#X obj 326 208 sel 1 0;
#X obj 139 127 tgl 30 0 empty empty AUTO 2 15 0 12 -258113 -1 -1 0
1;
#X obj 458 10 sel 1;
#X obj 458 60 line;
#X floatatom 458 83 5 0 0 0 - - -;
#X obj 110 -9 r effect-stop;
#X msg 110 11 0;
#X obj 401 108 metro 2000;
#X msg 458 38 3000 \, 400 20000;
#X obj 300 446 r e-bloom-tgl;
#X obj 440 521 r e-focus-tgl;
#X msg 440 548 send /effect /4 \$1;
#N canvas 572 183 480 364 fr-timeblur 0;
#X obj 102 117 tgl 15 0 empty empty empty 17 7 0 10 -262144 -1 -1 0
1;
#X obj 102 72 inlet;
#X obj 122 117 hsl 70 15 0 0.8 0 0 empty empty Time 5 8 0 10 -1 -258113
-262144 0 1;
#X obj 69 174 spigot;
#X obj 69 237 s outeffect;
#X obj 138 173 spigot;
#X obj 183 5 unpack f f;
#X obj 183 -53 r effect-time;
#X obj 225 176 line;
#X floatatom 225 199 5 0 0 0 - - -;
#X msg 225 153 \$1 1000;
#X obj 102 141 t f f;
#X obj 199 75 v \$0-etime;
#X obj 149 32 t b f;
#X obj 149 55 del 300;
#X obj -35 96 r \$0-effect4;
#X obj -47 175 s e-time-tgl;
#X obj 69 204 pix_freeframe timeblur;
#X connect 0 0 11 0;
#X connect 0 0 16 0;
#X connect 1 0 0 0;
#X connect 2 0 10 0;
#X connect 3 0 17 0;
#X connect 5 0 17 1;
#X connect 6 0 13 0;
#X connect 6 1 0 0;
#X connect 7 0 6 0;
#X connect 8 0 5 0;
#X connect 8 0 9 0;
#X connect 10 0 8 0;
#X connect 11 0 3 1;
#X connect 11 1 5 1;
#X connect 12 0 2 0;
#X connect 13 0 14 0;
#X connect 13 1 12 0;
#X connect 14 0 12 0;
#X connect 15 0 3 0;
#X connect 17 0 4 0;
#X coords 0 -1 1 1 95 35 1 100 100;
#X restore 105 252 pd fr-timeblur;
#N canvas 685 232 755 502 fr-smear 0;
#X obj 102 117 tgl 15 0 empty empty empty 17 7 0 10 -262144 -1 -1 1
1;
#X obj 102 72 inlet;
#X obj 140 117 hsl 50 15 0 0.5 0 0 empty empty angle 5 8 0 10 -1 -258113
-262144 4900 1;
#X obj 147 230 s spain;
#X obj 119 117 bng 15 250 50 0 empty empty empty 17 7 0 10 -258113
-1 -1;
#X obj 137 23 counter 1;
#X obj 137 44 sel 0 1;
#X msg 170 66 0.9;
#X msg 137 65 0.1;
#X obj 137 89 expr (($f1-0.1)/0.8)*0.5;
#X obj 147 204 expr ($f1/0.5)*0.8+0.1;
#X obj 69 174 spigot;
#X floatatom 112 173 5 0 0 0 - - -;
#X obj -35 96 r \$0-effect1;
#X obj 137 138 t f f;
#X msg 163 159 1;
#X obj 69 277 pix_freeframe Smear;
#X connect 0 0 11 1;
#X connect 1 0 0 0;
#X connect 2 0 14 0;
#X connect 4 0 5 0;
#X connect 5 0 6 0;
#X connect 6 0 8 0;
#X connect 6 1 7 0;
#X connect 7 0 9 0;
#X connect 8 0 9 0;
#X connect 9 0 2 0;
#X connect 10 0 3 0;
#X connect 11 0 16 0;
#X connect 12 0 16 1;
#X connect 13 0 11 0;
#X connect 14 0 12 0;
#X connect 14 0 10 0;
#X connect 14 1 15 0;
#X connect 15 0 0 0;
#X coords 0 -1 1 1 95 35 1 100 100;
#X restore 171 401 pd fr-smear;
#N canvas 623 315 772 495 fr-wave 0;
#X obj 102 117 tgl 15 0 empty empty empty 17 7 0 10 -262144 -1 -1 0
1;
#X obj 102 72 inlet;
#X obj 122 117 hsl 70 15 1 0 0 0 empty empty Friction 5 8 0 10 -1 -258113
-262144 0 1;
#X obj 69 174 spigot;
#X floatatom 86 224 5 0 0 0 - - -;
#X obj 69 49 r \$0-effect2;
#X obj 149 78 unpack f f;
#X obj 149 20 r effect-wave;
#X obj 339 169 line;
#X msg 339 142 \$1 1000;
#X obj 86 246 spigot;
#X obj 236 70 t b f;
#X obj 339 118 v \$0-twave;
#X msg 149 50 \$2 \$1;
#X obj 236 97 del 300;
#X obj 214 191 s v-speed;
#X obj -8 272 s e-wave-tgl;
#X obj 70 300 pix_freeframe wave;
#X obj 123 137 hsl 70 15 1 0 0 0 empty empty Speed 5 8 0 10 -1 -258113
-262144 0 1;
#X obj 175 239 spigot;
#X connect 0 0 3 1;
#X connect 0 0 10 1;
#X connect 0 0 16 0;
#X connect 0 0 19 1;
#X connect 1 0 0 0;
#X connect 2 0 4 0;
#X connect 3 0 17 0;
#X connect 4 0 10 0;
#X connect 4 0 15 0;
#X connect 5 0 3 0;
#X connect 6 0 11 0;
#X connect 6 1 0 0;
#X connect 7 0 13 0;
#X connect 8 0 2 0;
#X connect 9 0 8 0;
#X connect 10 0 17 1;
#X connect 11 0 14 0;
#X connect 11 1 12 0;
#X connect 12 0 9 0;
#X connect 13 0 6 0;
#X connect 14 0 12 0;
#X connect 18 0 19 0;
#X connect 19 0 17 2;
#X coords 0 -1 1 1 95 55 1 100 100;
#X restore 204 178 pd fr-wave;
#N canvas 178 270 389 299 gl-boken 0;
#X obj 102 121 tgl 15 0 empty empty empty 17 7 0 10 -262144 -1 -1 0
1;
#X obj 102 76 inlet;
#X obj 122 121 hsl 70 15 0 1 0 0 empty empty focus 5 8 0 10 -1 -258113
-262144 0 1;
#X obj -10 181 spigot;
#X obj 68 235 s outeffect;
#X msg 156 54 \$1 1000;
#X obj 156 77 line;
#X obj 41 178 spigot;
#X obj -10 134 r \$0-effect5;
#X obj 122 141 hsl 70 15 0 0.1 0 0 empty empty bias 5 8 0 10 -1 -258113
-262144 0 1;
#X obj 88 177 spigot;
#X obj 149 -20 r effect-vfocus;
#X obj 149 4 unpack f f f;
#X msg 255 56 \$1 1000;
#X obj 255 79 line;
#X floatatom 160 181 5 0 0 0 - - -;
#X floatatom 169 215 5 0 0 0 - - -;
#X obj -43 228 s e-focus-tgl;
#X obj 69 205 bokeh;
#X connect 0 0 3 1;
#X connect 0 0 7 1;
#X connect 0 0 10 1;
#X connect 0 0 17 0;
#X connect 1 0 0 0;
#X connect 2 0 7 0;
#X connect 2 0 15 0;
#X connect 3 0 18 0;
#X connect 5 0 6 0;
#X connect 6 0 2 0;
#X connect 7 0 18 1;
#X connect 8 0 3 0;
#X connect 9 0 10 0;
#X connect 9 0 16 0;
#X connect 10 0 18 2;
#X connect 11 0 12 0;
#X connect 12 0 0 0;
#X connect 12 1 5 0;
#X connect 12 2 13 0;
#X connect 13 0 14 0;
#X connect 14 0 9 0;
#X connect 18 0 4 0;
#X coords 0 -1 1 1 95 60 1 100 100;
#X restore 105 189 pd gl-boken;
#N canvas 349 303 536 399 gl-bloom 0;
#X obj 102 117 tgl 15 0 empty empty empty 17 7 0 10 -262144 -1 -1 0
1;
#X obj 102 72 inlet;
#X obj 122 117 hsl 70 15 0 1 0 0 empty empty glow-size 5 8 0 10 -1
-258113 -262144 6900 1;
#X obj 69 174 spigot;
#X obj -35 96 r \$0-effect3;
#X obj 69 243 s outeffect;
#X obj 177 50 r effect-bloom;
#X obj 177 74 unpack f f;
#X obj 126 173 spigot;
#X obj 234 131 line;
#X obj 299 151 r v-distance;
#X floatatom 126 147 5 0 0 0 - - -;
#X obj 126 195 * 80;
#X msg 234 107 \$1 1000;
#X obj 299 180 expr (($f1-4)/9);
#X obj -18 262 s e-bloom-tgl;
#X obj 170 146 sel 1;
#X obj 69 222 bloom;
#X connect 0 0 3 1;
#X connect 0 0 8 1;
#X connect 0 0 15 0;
#X connect 0 0 16 0;
#X connect 1 0 0 0;
#X connect 2 0 11 0;
#X connect 3 0 17 0;
#X connect 4 0 3 0;
#X connect 6 0 7 0;
#X connect 7 0 0 0;
#X connect 7 1 13 0;
#X connect 8 0 12 0;
#X connect 9 0 2 0;
#X connect 10 0 14 0;
#X connect 11 0 8 0;
#X connect 12 0 17 1;
#X connect 13 0 9 0;
#X connect 14 0 13 0;
#X connect 16 0 17 2;
#X connect 17 0 5 0;
#X coords 0 -1 1 1 95 35 1 100 100;
#X restore 105 291 pd gl-bloom;
#N canvas 0 22 450 300 pix-color 0;
#X obj 106 117 tgl 15 0 empty empty empty 17 7 0 10 -262144 -1 -1 1
1;
#X obj 6 326 spigot;
#X obj 6 382 s outeffect;
#X obj 113 69 r \$0-effect6;
#X obj 6 356 pix_color;
#X obj 160 2 loadbang;
#X msg 160 22 0;
#X obj 110 263 pack f f f;
#X obj 127 117 hsl 15 15 0 1 0 0 empty empty empty -2 -8 0 10 -258113
-1 -1 1400 1;
#X obj 150 117 hsl 15 15 0 1 0 0 empty empty empty -2 -8 0 10 -4034
-1 -1 1400 1;
#X obj 173 117 hsl 15 15 0 1 0 0 empty empty empty -2 -8 0 10 -4160
-1 -1 1400 1;
#X obj 158 196 line;
#X obj 105 194 line;
#X obj 211 194 line;
#X obj 158 221 t b f;
#X obj 210 221 t b f;
#X msg 183 46 1;
#X msg 105 172 \$1 200;
#X msg 158 174 \$1 200;
#X msg 212 172 \$1 200;
#X connect 0 0 1 1;
#X connect 1 0 4 0;
#X connect 3 0 1 0;
#X connect 4 0 2 0;
#X connect 5 0 6 0;
#X connect 5 0 16 0;
#X connect 6 0 0 0;
#X connect 7 0 4 1;
#X connect 8 0 17 0;
#X connect 9 0 18 0;
#X connect 10 0 19 0;
#X connect 11 0 14 0;
#X connect 12 0 7 0;
#X connect 13 0 15 0;
#X connect 14 0 7 0;
#X connect 14 1 7 1;
#X connect 15 0 7 0;
#X connect 15 1 7 2;
#X connect 16 0 8 0;
#X connect 16 0 9 0;
#X connect 16 0 10 0;
#X connect 17 0 12 0;
#X connect 18 0 11 0;
#X connect 19 0 13 0;
#X coords 0 -1 1 1 95 35 1 100 100;
#X restore 196 356 pd pix-color;
#N canvas 453 321 462 498 f-sprialblur 0;
#X obj 102 117 tgl 15 0 empty empty empty 17 7 0 10 -262144 -1 -1 0
1;
#X obj 102 72 inlet;
#X obj 122 117 hsl 70 15 1 0 0 0 empty empty Angle 5 8 0 10 -1 -258113
-262144 1700 1;
#X obj 69 174 spigot;
#X floatatom 96 225 5 0 0 0 - - -;
#X obj 149 78 unpack f f;
#X obj 313 208 line;
#X msg 313 181 \$1 1000;
#X obj 96 247 spigot;
#X obj 236 70 t b f;
#X msg 149 50 \$2 \$1;
#X obj 236 97 del 300;
#X obj 123 137 hsl 70 15 1 0 0 0 empty empty scale 5 8 0 10 -1 -258113
-262144 5520 1;
#X obj 151 242 spigot;
#X obj 71 300 pix_freeframe spiralblur;
#X obj 69 49 r \$0-effect7;
#X obj 8 352 s e-sprial-tgl;
#X obj 313 157 v \$0-tsprial;
#X obj 149 20 r effect-sprial;
#X floatatom 151 217 5 0 0 0 - - -;
#X obj 221 138 loadbang;
#X msg 221 162 0.2;
#X connect 0 0 3 1;
#X connect 0 0 8 1;
#X connect 0 0 13 1;
#X connect 0 0 16 0;
#X connect 1 0 0 0;
#X connect 2 0 4 0;
#X connect 3 0 14 0;
#X connect 4 0 8 0;
#X connect 5 0 9 0;
#X connect 5 1 0 0;
#X connect 6 0 2 0;
#X connect 7 0 6 0;
#X connect 8 0 14 1;
#X connect 9 0 11 0;
#X connect 9 1 17 0;
#X connect 10 0 5 0;
#X connect 11 0 17 0;
#X connect 12 0 19 0;
#X connect 13 0 14 2;
#X connect 15 0 3 0;
#X connect 17 0 7 0;
#X connect 18 0 10 0;
#X connect 19 0 13 0;
#X connect 20 0 21 0;
#X connect 21 0 12 0;
#X coords 0 -1 1 1 95 55 1 100 100;
#X restore 169 438 pd f-sprialblur;
#X obj 49 330 s \$0-effect7;
#N canvas 684 291 489 503 (subpatch) 0;
#X obj 0 114 sel 1;
#X obj 0 0 tgl 30 0 empty empty 6 10 15 0 15 -1 -260097 -262144 0 1
;
#X msg 3 209 1 0.8;
#X msg 45 208 0 1;
#X obj -9 68 s bomb-effect;
#X obj 0 -26 sel 1;
#X obj -100 252 s effect-tgl;
#X msg -100 228 1;
#X obj 0 -71 inlet;
#X obj 48 108 outlet;
#X obj 56 14 t b f f f f;
#X obj 121 106 s toflash;
#X obj 97 -60 inlet;
#X obj 3 234 s effect-sprial;
#X obj 0 -49 route key_35;
#X obj 96 63 v e-s;
#X obj -63 -123 r touchosc;
#X obj -63 -99 routeOSC /eq;
#X obj -63 -75 route /13;
#X obj 197 112 s totouch;
#X obj 197 89 packOSC;
#X msg 197 66 send /eq/13 \$1;
#X connect 0 0 2 0;
#X connect 0 0 7 0;
#X connect 0 1 3 0;
#X connect 1 0 10 0;
#X connect 2 0 13 0;
#X connect 3 0 13 0;
#X connect 5 0 1 0;
#X connect 7 0 6 0;
#X connect 8 0 14 0;
#X connect 10 0 4 0;
#X connect 10 1 0 0;
#X connect 10 2 9 0;
#X connect 10 3 15 0;
#X connect 10 4 11 0;
#X connect 10 4 21 0;
#X connect 12 0 1 0;
#X connect 14 0 5 0;
#X connect 16 0 17 0;
#X connect 17 0 18 0;
#X connect 18 0 1 0;
#X connect 20 0 19 0;
#X connect 21 0 20 0;
#X coords 0 1 100 -1 30 30 1 0 0;
#X restore 240 139 graph;
#X obj 623 221 v e-s;
#X obj -65 218 t a a a a a a a a a;
#X obj 108 365 s \$0-effect8;
#N canvas 725 252 459 476 gl-sobel 0;
#X obj 102 121 tgl 15 0 empty empty empty 17 7 0 10 -262144 -1 -1 0
1;
#X obj 102 76 inlet;
#X obj 122 120 hsl 70 15 0 1 0 0 empty empty height 5 8 0 10 -1 -258113
-262144 0 1;
#X obj -57 226 spigot;
#X obj 17 355 s outeffect;
#X msg 156 54 \$1 1000;
#X obj 156 77 line;
#X obj -6 223 spigot;
#X obj 122 138 hsl 70 15 0 1 0 0 empty empty width 5 8 0 10 -1 -258113
-262144 0 1;
#X obj 41 222 spigot;
#X msg 211 53 \$1 1000;
#X obj 211 76 line;
#X obj 18 328 pix_contrast;
#X obj 122 155 hsl 70 15 0 10 0 0 empty empty saturation 5 8 0 10 -1
-258113 -262144 0 1;
#X obj 122 173 hsl 70 15 0 10 0 0 empty empty contrst 5 8 0 10 -1 -258113
-262144 0 1;
#X obj -10 134 r \$0-effect8;
#N canvas 937 260 450 300 sobel 0;
#X msg 277 228 width \$1;
#X msg 202 153 height \$1;
#X obj 106 139 inlet;
#X obj 107 275 outlet;
#N canvas 693 284 506 425 shader 0;
#X obj 57 -55 inlet;
#X obj 57 110 glsl_vertex;
#X obj 57 147 glsl_fragment;
#X obj 148 112 change;
#X obj 129 185 change;
#X obj 198 220 t b f;
#X obj 167 250 pack 0 0;
#X msg 167 269 link \$1 \$2;
#X obj 57 245 glsl_program;
#X obj 57 272 outlet;
#X obj 188 -1 loadbang;
#X obj 317 176 inlet;
#X obj 189 32 bng 15 250 50 0 empty empty empty 17 7 0 10 -262144 -1
-1;
#X obj 190 54 t b b;
#X msg 186 93 open 0.GLSL/sobel.vert;
#X msg 213 130 open 0.GLSL/sobel.frag;
#X connect 0 0 1 0;
#X connect 1 0 2 0;
#X connect 1 1 3 0;
#X connect 2 0 8 0;
#X connect 2 1 4 0;
#X connect 3 0 5 0;
#X connect 4 0 6 0;
#X connect 5 0 6 0;
#X connect 5 1 6 1;
#X connect 6 0 7 0;
#X connect 7 0 8 0;
#X connect 8 0 9 0;
#X connect 10 0 12 0;
#X connect 11 0 8 0;
#X connect 12 0 13 0;
#X connect 13 0 14 0;
#X connect 13 1 15 0;
#X connect 14 0 1 0;
#X connect 15 0 2 0;
#X restore 111 228 pd shader;
#X obj 206 64 inlet;
#X obj 282 156 inlet;
#X connect 0 0 4 1;
#X connect 1 0 4 1;
#X connect 2 0 4 0;
#X connect 4 0 3 0;
#X connect 5 0 1 0;
#X connect 6 0 0 0;
#X restore 19 303 pd sobel;
#X obj 229 288 s e-sobel-tgl;
#X obj 149 -21 r effect-sobel;
#X obj 149 4 unpack f f f f f;
#X msg 274 53 \$1 1000;
#X obj 274 76 line;
#X msg 329 52 \$1 1000;
#X obj 329 75 line;
#X obj 77 264 int;
#X obj 103 265 int;
#X connect 0 0 3 1;
#X connect 0 0 7 1;
#X connect 0 0 9 1;
#X connect 0 0 17 0;
#X connect 1 0 0 0;
#X connect 2 0 7 0;
#X connect 3 0 16 0;
#X connect 5 0 6 0;
#X connect 6 0 2 0;
#X connect 7 0 16 1;
#X connect 8 0 9 0;
#X connect 9 0 16 2;
#X connect 10 0 11 0;
#X connect 11 0 8 0;
#X connect 12 0 4 0;
#X connect 13 0 24 0;
#X connect 14 0 25 0;
#X connect 15 0 3 0;
#X connect 16 0 12 0;
#X connect 18 0 19 0;
#X connect 19 0 0 0;
#X connect 19 1 5 0;
#X connect 19 2 10 0;
#X connect 19 3 20 0;
#X connect 19 4 22 0;
#X connect 20 0 21 0;
#X connect 21 0 13 0;
#X connect 22 0 23 0;
#X connect 23 0 14 0;
#X connect 24 0 12 1;
#X connect 25 0 12 2;
#X coords 0 -1 1 1 95 90 1 100 100;
#X restore 205 236 pd gl-sobel;
#X obj 581 426 s \$0-texture;
#X obj 581 373 sel 1;
#X obj 581 350 r e-sobel-tgl;
#X msg 581 400 1;
#X obj 0 459 r \$0-alpha;
#X msg 613 401 0;
#X obj 587 464 s \$0-alpha;
#N canvas 562 268 489 503 (subpatch) 0;
#X obj 0 114 sel 1;
#X obj 0 0 tgl 30 0 empty empty 7 10 15 0 15 -1 -260097 -262144 0 1
;
#X obj 0 -26 sel 1;
#X obj -100 252 s effect-tgl;
#X msg -100 228 1;
#X obj 0 -71 inlet;
#X obj 48 108 outlet;
#X obj 56 14 t b f f f f;
#X obj 121 106 s toflash;
#X obj 97 -60 inlet;
#X obj 0 -49 route key_36;
#X obj 96 63 v e-l;
#X obj 3 234 s effect-sobel;
#X msg 114 207 0;
#X msg 3 208 1 0.5 0.5 2 2;
#X obj -87 88 s bomb-effect;
#X obj -84 -63 r touchosc;
#X obj -84 -39 routeOSC /eq;
#X obj -84 -15 route /14;
#X obj 198 150 s totouch;
#X obj 198 127 packOSC;
#X msg 198 104 send /eq/14 \$1;
#X connect 0 0 14 0;
#X connect 0 0 4 0;
#X connect 0 1 13 0;
#X connect 1 0 7 0;
#X connect 2 0 1 0;
#X connect 4 0 3 0;
#X connect 5 0 10 0;
#X connect 7 0 15 0;
#X connect 7 1 0 0;
#X connect 7 2 6 0;
#X connect 7 3 11 0;
#X connect 7 4 8 0;
#X connect 7 4 21 0;
#X connect 9 0 1 0;
#X connect 10 0 2 0;
#X connect 13 0 12 0;
#X connect 14 0 12 0;
#X connect 16 0 17 0;
#X connect 17 0 18 0;
#X connect 18 0 1 0;
#X connect 20 0 19 0;
#X connect 21 0 20 0;
#X coords 0 1 100 -1 30 30 1 0 0;
#X restore 276 139 graph;
#X obj 463 194 t b b b b b b;
#X obj 666 221 v e-l;
#X obj 463 248 expr $f1+$f2+$f3+$f4+$f5+$f6;
#X msg 642 400 0;
#X msg 674 400 1;
#X msg 18 421 quality \$1;
#X obj 18 402 tgl 15 0 empty empty empty 0 -6 0 8 -262144 -1 -1 1 1
;
#X obj 18 378 loadbang;
#X obj -67 369 loadbang;
#X msg -96 414 rectangle 0;
#X obj 105 72 > 0;
#X floatatom 27 48 5 0 0 0 - - -;
#X floatatom 105 47 5 0 0 0 - - -;
#X obj 199 -22 r touchosc;
#X obj 199 2 routeOSC /eq;
#X obj 199 26 route /8;
#X obj 321 327 s totouch;
#X obj 321 304 packOSC;
#X msg 321 281 send /eq/8 \$1;
#X connect 1 0 13 0;
#X connect 1 2 16 0;
#X connect 3 0 18 0;
#X connect 4 0 37 0;
#X connect 5 0 10 1;
#X connect 5 1 14 4;
#X connect 5 1 105 0;
#X connect 9 0 10 0;
#X connect 10 0 4 0;
#X connect 13 0 82 0;
#X connect 14 0 15 0;
#X connect 15 0 19 0;
#X connect 16 0 13 1;
#X connect 17 0 56 0;
#X connect 18 0 19 1;
#X connect 20 0 27 0;
#X connect 22 0 23 0;
#X connect 23 0 26 0;
#X connect 26 0 21 0;
#X connect 26 1 27 1;
#X connect 27 0 1 0;
#X connect 28 0 15 1;
#X connect 29 0 60 0;
#X connect 30 0 60 0;
#X connect 31 0 60 0;
#X connect 32 0 34 0;
#X connect 33 0 60 0;
#X connect 34 0 35 0;
#X connect 34 1 47 0;
#X connect 35 0 33 0;
#X connect 35 0 31 0;
#X connect 35 0 29 0;
#X connect 35 0 30 0;
#X connect 35 0 80 0;
#X connect 35 0 92 0;
#X connect 37 0 38 0;
#X connect 38 0 14 0;
#X connect 39 0 42 0;
#X connect 41 0 40 0;
#X connect 42 0 41 0;
#X connect 43 0 44 0;
#X connect 44 0 41 0;
#X connect 45 0 41 0;
#X connect 46 0 45 0;
#X connect 47 0 35 1;
#X connect 49 0 50 0;
#X connect 51 0 95 0;
#X connect 52 0 95 1;
#X connect 53 0 95 2;
#X connect 54 0 95 3;
#X connect 55 0 49 0;
#X connect 56 0 104 0;
#X connect 57 0 55 0;
#X connect 58 0 93 0;
#X connect 59 0 58 0;
#X connect 60 0 48 0;
#X connect 60 1 48 0;
#X connect 61 0 62 0;
#X connect 61 0 67 0;
#X connect 61 0 111 0;
#X connect 62 0 68 0;
#X connect 63 0 64 0;
#X connect 64 0 67 1;
#X connect 65 0 66 0;
#X connect 66 0 61 0;
#X connect 67 0 29 1;
#X connect 68 0 63 0;
#X connect 69 0 39 0;
#X connect 70 0 71 0;
#X connect 71 0 41 0;
#X connect 80 0 60 0;
#X connect 81 0 95 4;
#X connect 82 0 24 0;
#X connect 82 1 12 0;
#X connect 82 2 11 0;
#X connect 82 3 8 0;
#X connect 82 4 7 0;
#X connect 82 5 6 0;
#X connect 82 6 36 0;
#X connect 82 7 79 0;
#X connect 82 8 83 0;
#X connect 86 0 88 0;
#X connect 86 0 90 0;
#X connect 86 1 96 0;
#X connect 86 1 97 0;
#X connect 87 0 86 0;
#X connect 88 0 85 0;
#X connect 89 0 28 0;
#X connect 90 0 91 0;
#X connect 92 0 60 0;
#X connect 93 0 51 0;
#X connect 93 1 52 0;
#X connect 93 2 53 0;
#X connect 93 3 54 0;
#X connect 93 4 81 0;
#X connect 93 5 94 0;
#X connect 94 0 95 5;
#X connect 95 0 57 0;
#X connect 96 0 85 0;
#X connect 97 0 91 0;
#X connect 98 0 4 0;
#X connect 99 0 98 0;
#X connect 100 0 99 0;
#X connect 101 0 102 0;
#X connect 102 0 4 0;
#X connect 103 0 2 0;
#X connect 103 0 26 0;
#X connect 104 0 5 0;
#X connect 105 0 103 0;
#X connect 106 0 107 0;
#X connect 107 0 108 0;
#X connect 108 0 61 0;
#X connect 110 0 109 0;
#X connect 111 0 110 0;
#X coords 0 -1 1 1 210 230 1 100 100;
