#N canvas 799 321 653 409 10;
#X obj 101 101 cnv 15 388 158 empty empty k_effect 5 12 0 14 -191677
-66577 0;
#X obj 105 127 tgl 30 0 empty empty E 11 15 0 15 -258113 -1 -1 1 1
;
#N canvas 820 304 457 552 smear 0;
#X obj 103 101 hsl 30 15 0 4 0 0 empty empty Gain 5 8 0 10 -1 -258113
-262144 1450 1;
#X obj 249 49 hsl 40 14 0 1 0 0 empty empty Alpha 5 8 0 10 -1 -258113
-262144 1950 1;
#X obj 246 26 line;
#X obj 246 -59 sel 0 1;
#X msg 246 -32 0;
#X msg 277 -32 0.5;
#X obj 70 56 line;
#X obj 13 -75 r effect-gain;
#X obj 309 -32 r effect-alpha;
#X obj 100 173 s \$0-egain;
#X obj 246 73 s \$0-ealpha;
#X obj 246 -132 r effect-tgl;
#X floatatom 246 -84 5 0 0 0 - - -;
#X msg 78 -43 1;
#X msg 109 -44 1.1;
#X obj 180 101 tgl 15 0 empty empty empty 17 7 0 10 -262144 -1 -1 0
1;
#X obj 120 -141 tgl 15 0 empty empty empty 17 7 0 10 -262144 -1 -1
0 1;
#X obj 119 -115 sel 0 1;
#X obj 185 147 metro 1000;
#X msg 120 -89 0.1;
#X msg 157 -88 2;
#X obj 28 251 r touchosc;
#X obj 28 275 routeOSC /gemctl;
#X obj 28 299 route /46 /47;
#X obj 27 327 * 4;
#X floatatom 140 100 5 0 0 0 - - -;
#X obj 155 30 loadbang;
#X obj 72 -21 t f b;
#X msg 100 5 2000;
#X obj 70 33 pack f f;
#X msg 135 -13 set \$1;
#X obj 269 166 s \$0-time;
#X msg 155 52 2000;
#X obj 246 -108 change;
#X msg 246 1 \$1 100;
#X obj -27 2 r v-distance;
#X floatatom -25 72 5 0 0 0 - - -;
#X floatatom 100 145 5 0 0 0 - - -;
#X obj -27 100 k_event 1.762 4;
#X floatatom -20 186 5 0 0 0 - - -;
#X obj -21 42 spigot;
#X obj 12 22 invert;
#X msg 185 74 0;
#X obj -8 160 k_range 4 13 2 4;
#X msg -28 125 1;
#X obj 166 340 s totouch;
#X obj 166 313 packOSC;
#X msg 166 288 send /gemctl/46 \$1;
#X obj 166 262 / 4;
#X connect 0 0 37 0;
#X connect 1 0 10 0;
#X connect 2 0 1 0;
#X connect 3 0 4 0;
#X connect 3 0 13 0;
#X connect 3 1 5 0;
#X connect 3 1 14 0;
#X connect 4 0 34 0;
#X connect 5 0 34 0;
#X connect 6 0 0 0;
#X connect 7 0 27 0;
#X connect 8 0 34 0;
#X connect 11 0 33 0;
#X connect 12 0 3 0;
#X connect 13 0 27 0;
#X connect 14 0 27 0;
#X connect 15 0 18 0;
#X connect 15 0 41 0;
#X connect 16 0 17 0;
#X connect 17 0 19 0;
#X connect 17 1 20 0;
#X connect 18 0 16 0;
#X connect 19 0 27 0;
#X connect 20 0 27 0;
#X connect 21 0 22 0;
#X connect 22 0 23 0;
#X connect 23 0 24 0;
#X connect 23 1 15 0;
#X connect 24 0 0 0;
#X connect 25 0 18 1;
#X connect 25 0 30 0;
#X connect 25 0 31 0;
#X connect 26 0 32 0;
#X connect 26 0 42 0;
#X connect 27 0 29 0;
#X connect 27 1 28 0;
#X connect 28 0 29 1;
#X connect 29 0 6 0;
#X connect 30 0 28 0;
#X connect 32 0 25 0;
#X connect 33 0 12 0;
#X connect 34 0 2 0;
#X connect 35 0 40 0;
#X connect 36 0 38 0;
#X connect 37 0 9 0;
#X connect 37 0 48 0;
#X connect 38 0 44 0;
#X connect 38 1 43 0;
#X connect 40 0 36 0;
#X connect 41 0 40 1;
#X connect 42 0 15 0;
#X connect 43 0 39 0;
#X connect 44 0 39 0;
#X connect 46 0 45 0;
#X connect 47 0 46 0;
#X connect 48 0 47 0;
#X coords 0 -1 1 1 95 17 2 100 100;
#X restore 105 160 pd smear;
#N canvas 496 376 554 364 auto 0;
#X obj 100 100 tgl 30 0 empty empty AUTO 2 15 0 12 -258113 -1 -1 0
1;
#X obj 75 -50 r effect-stop;
#X msg 75 -30 0;
#X obj 161 -49 r touchosc;
#X obj 161 -25 routeOSC /eq;
#X obj 161 -1 route /8;
#X obj 100 185 s totouch;
#X obj 100 162 packOSC;
#X msg 100 139 send /eq/8 \$1;
#X obj 201 140 s \$0-eauto;
#X connect 0 0 8 0;
#X connect 0 0 9 0;
#X connect 1 0 2 0;
#X connect 2 0 0 0;
#X connect 3 0 4 0;
#X connect 4 0 5 0;
#X connect 5 0 0 0;
#X connect 7 0 6 0;
#X connect 8 0 7 0;
#X coords 0 -1 1 1 30 30 2 100 100;
#X restore 138 127 pd auto;
#N canvas 627 361 450 300 blend 0;
#X obj 100 100 tgl 30 0 empty empty BLEND 4 15 0 8 -262144 -1 -1 1
1;
#X obj 100 49 r \$0-alpha;
#X obj 100 143 s \$0-eblend;
#X connect 0 0 2 0;
#X connect 1 0 0 0;
#X coords 0 -1 1 1 30 30 2 100 100;
#X restore 171 127 pd blend;
#N canvas 163 229 414 574 (subpatch) 0;
#X obj 28 229 s effect-bloom;
#X obj 15 127 sel 1;
#X obj 0 0 tgl 30 0 empty empty 4 10 15 0 15 -1 -260097 -262144 1 1
;
#X obj -40 196 s gem-fog;
#X msg -40 168 3 0.1;
#X obj -81 107 s bomb-effect;
#X obj 0 -24 sel 1;
#X obj 0 -47 route key_33;
#X obj 63 162 s toflash;
#X obj 133 176 s totouch;
#X obj 133 153 packOSC;
#X msg 133 130 send /eq/11 \$1;
#X obj 6 -167 r hid;
#X obj 6 -147 t a a;
#X obj 0 -102 spigot;
#X obj 33 -124 route key_226;
#X obj 157 -140 sel 1;
#X obj 157 -90 line;
#X floatatom 157 -67 5 0 0 0 - - -;
#X obj 100 -42 metro 2000;
#X msg 157 -112 3000 \, 400 20000;
#X obj 100 -180 r \$0-eauto;
#X obj 113 -18 r touchosc;
#X obj 113 33 tgl 15 0 empty empty empty 17 7 0 10 -262144 -1 -1 0
1;
#X obj 113 5 routeOSC /gemctl/8;
#X obj 84 94 s gemlayer;
#X obj 217 175 s bombbomb;
#X obj 0 39 t b f f f f f b b;
#X msg 84 72 1;
#X obj -5 316 s effect-gain;
#X obj -5 259 del 2000;
#X msg -6 287 2;
#X connect 1 0 4 0;
#X connect 2 0 27 0;
#X connect 4 0 3 0;
#X connect 6 0 2 0;
#X connect 7 0 6 0;
#X connect 10 0 9 0;
#X connect 11 0 10 0;
#X connect 12 0 13 0;
#X connect 13 0 14 0;
#X connect 13 1 15 0;
#X connect 14 0 7 0;
#X connect 15 0 14 1;
#X connect 16 0 20 0;
#X connect 17 0 18 0;
#X connect 18 0 19 1;
#X connect 19 0 2 0;
#X connect 20 0 17 0;
#X connect 21 0 19 0;
#X connect 21 0 16 0;
#X connect 22 0 24 0;
#X connect 23 0 2 0;
#X connect 24 0 23 0;
#X connect 27 0 5 0;
#X connect 27 0 30 0;
#X connect 27 1 1 0;
#X connect 27 2 0 0;
#X connect 27 4 8 0;
#X connect 27 5 11 0;
#X connect 27 6 28 0;
#X connect 27 7 26 0;
#X connect 28 0 25 0;
#X connect 30 0 31 0;
#X connect 31 0 29 0;
#X coords 0 1 100 -1 30 30 1 0 0;
#X restore 409 184 graph;
#N canvas 655 149 489 503 (subpatch) 0;
#X obj 0 114 sel 1;
#X obj 0 0 tgl 30 0 empty empty 5 10 15 0 15 -1 -260097 -262144 0 1
;
#X obj 3 234 s effect-wave;
#X obj -9 68 s bomb-effect;
#X obj 0 -26 sel 1;
#X obj 0 -49 route key_34;
#X obj 48 108 outlet;
#X obj 121 106 s toflash;
#X obj 97 -60 inlet;
#X obj 225 166 s totouch;
#X obj 225 143 packOSC;
#X msg 225 120 send /eq/12 \$1;
#X msg 45 208 0 0;
#X msg 3 209 1 1;
#X obj 6 -161 r hid;
#X obj 6 -141 t a a;
#X obj 0 -96 spigot;
#X obj 33 -118 route key_226;
#X obj 168 -52 r touchosc;
#X obj 168 -1 tgl 15 0 empty empty empty 17 7 0 10 -262144 -1 -1 0
1;
#X obj 168 -30 routeOSC /gemctl/10;
#X obj 128 190 s gemlayer;
#X obj 56 14 t b f f f f b;
#X obj 221 228 s bombbomb;
#X msg 127 166 1;
#X connect 0 0 13 0;
#X connect 0 1 12 0;
#X connect 1 0 22 0;
#X connect 4 0 1 0;
#X connect 5 0 4 0;
#X connect 8 0 1 0;
#X connect 10 0 9 0;
#X connect 11 0 10 0;
#X connect 12 0 2 0;
#X connect 13 0 2 0;
#X connect 14 0 15 0;
#X connect 15 0 16 0;
#X connect 15 1 17 0;
#X connect 16 0 5 0;
#X connect 17 0 16 1;
#X connect 18 0 20 0;
#X connect 19 0 1 0;
#X connect 20 0 19 0;
#X connect 22 0 3 0;
#X connect 22 1 0 0;
#X connect 22 2 6 0;
#X connect 22 4 7 0;
#X connect 22 4 11 0;
#X connect 22 5 24 0;
#X connect 22 5 23 0;
#X connect 24 0 21 0;
#X coords 0 1 100 -1 30 30 1 0 0;
#X restore 409 222 graph;
#N canvas 639 121 558 553 (subpatch) 0;
#X obj 0 55 sel 1;
#X obj 0 0 tgl 30 0 empty empty 3 10 15 0 15 -1 -260097 -262144 0 1
;
#X obj -160 341 s effect-time;
#X msg -116 317 0 0;
#X obj -130 285 s effect-gain;
#X obj -41 290 s effect-alpha;
#X msg -41 262 1;
#X obj -158 193 t b b b b b b b;
#X obj 71 117 s bomb-effect;
#X obj 0 -24 sel 1;
#X obj 0 -46 route key_32;
#X obj 123 225 s toflash;
#X obj 205 146 s totouch;
#X obj 205 123 packOSC;
#X msg 205 100 send /eq/10 \$1;
#X msg -161 318 1 1;
#X obj 6 -137 r hid;
#X obj 6 -117 t a a;
#X obj 0 -72 spigot;
#X obj 33 -94 route key_226;
#X msg -129 260 2;
#X obj 106 -68 r touchosc;
#X obj 106 -17 tgl 15 0 empty empty empty 17 7 0 10 -262144 -1 -1 0
1;
#X obj 106 -45 routeOSC /gemctl/6;
#X obj 225 47 s gemlayer;
#X obj 71 7 t b f f f f b;
#X obj -60 225 s bomb-effect;
#X obj 34 333 s bombbomb;
#X msg 224 23 1;
#X obj 139 53 bng 15 250 50 0 empty empty empty 17 7 0 10 -262144 -1
-1;
#X obj 125 164 sel 1;
#X msg 134 192 1;
#X connect 0 0 7 0;
#X connect 0 1 3 0;
#X connect 1 0 25 0;
#X connect 3 0 2 0;
#X connect 6 0 5 0;
#X connect 7 0 15 0;
#X connect 7 3 20 0;
#X connect 7 4 6 0;
#X connect 7 5 27 0;
#X connect 7 6 26 0;
#X connect 9 0 1 0;
#X connect 10 0 9 0;
#X connect 13 0 12 0;
#X connect 14 0 13 0;
#X connect 15 0 2 0;
#X connect 16 0 17 0;
#X connect 17 0 18 0;
#X connect 17 1 19 0;
#X connect 18 0 10 0;
#X connect 19 0 18 1;
#X connect 20 0 4 0;
#X connect 21 0 23 0;
#X connect 22 0 25 0;
#X connect 23 0 22 0;
#X connect 25 0 8 0;
#X connect 25 1 0 0;
#X connect 25 3 30 0;
#X connect 25 4 14 0;
#X connect 25 5 28 0;
#X connect 28 0 24 0;
#X connect 30 0 31 0;
#X connect 31 0 11 0;
#X coords 0 1 100 -1 30 30 1 0 0;
#X restore 409 147 graph;
#N canvas 756 219 425 551 (subpatch) 0;
#X obj -63 139 sel 1;
#X obj 0 0 tgl 30 0 empty empty 2 10 15 0 15 -1 -260097 -262144 0 1
;
#X obj -5 276 s effect-alpha;
#X msg -5 248 1;
#X obj -63 165 t b b b b b b b;
#X obj 63 30 s bomb-effect;
#X obj 0 -24 sel 1;
#X obj -122 272 s effect-vfocus;
#X msg -106 227 0 0 0;
#X obj 0 -47 route key_31;
#X obj 63 5 t b f f f f;
#X msg -20 197 1;
#X obj 94 76 s toflash;
#X obj 126 146 s totouch;
#X obj 126 123 packOSC;
#X msg 126 100 send /eq/9 \$1;
#X obj 6 -137 r hid;
#X obj 6 -117 t a a;
#X obj 0 -72 spigot;
#X obj 33 -94 route key_226;
#X obj -19 225 s effect-gain;
#X msg -122 247 1 0.9 0.02;
#X obj 216 -36 r touchosc;
#X obj 216 15 tgl 15 0 empty empty empty 17 7 0 10 -262144 -1 -1 0
1;
#X obj 216 -12 routeOSC /gemctl/4;
#X obj 119 232 s gemlayer;
#X obj 137 307 s bombbomb;
#X msg 119 209 1;
#X obj 164 266 bng 15 250 50 0 empty empty empty 17 7 0 10 -262144
-1 -1;
#X connect 0 0 4 0;
#X connect 0 1 8 0;
#X connect 1 0 10 0;
#X connect 3 0 2 0;
#X connect 4 2 21 0;
#X connect 4 3 11 0;
#X connect 4 4 3 0;
#X connect 4 5 27 0;
#X connect 4 6 26 0;
#X connect 6 0 1 0;
#X connect 8 0 7 0;
#X connect 9 0 6 0;
#X connect 10 0 5 0;
#X connect 10 1 0 0;
#X connect 10 2 12 0;
#X connect 10 4 15 0;
#X connect 11 0 20 0;
#X connect 14 0 13 0;
#X connect 15 0 14 0;
#X connect 16 0 17 0;
#X connect 17 0 18 0;
#X connect 17 1 19 0;
#X connect 18 0 9 0;
#X connect 19 0 18 1;
#X connect 21 0 7 0;
#X connect 22 0 24 0;
#X connect 23 0 1 0;
#X connect 24 0 23 0;
#X connect 27 0 25 0;
#X connect 28 0 26 0;
#X coords 0 1 100 -1 30 30 1 0 0;
#X restore 409 111 graph;
#N canvas 614 312 489 503 (subpatch) 0;
#X obj 0 114 sel 1;
#X obj 0 0 tgl 30 0 empty empty 6 10 15 0 15 -1 -260097 -262144 0 1
;
#X msg 3 209 1 0.8;
#X obj -52 73 s bomb-effect;
#X obj 0 -26 sel 1;
#X obj 48 108 outlet;
#X obj 121 106 s toflash;
#X obj 97 -60 inlet;
#X obj 0 -49 route key_35;
#X obj 197 112 s totouch;
#X obj 197 89 packOSC;
#X msg 197 66 send /eq/13 \$1;
#X msg 45 208 0 0;
#X obj 175 7 s e-starB-tgl;
#X obj 3 234 s effect-starB;
#X obj 24 -165 r hid;
#X obj 24 -145 t a a;
#X obj 18 -100 spigot;
#X obj 51 -122 route key_226;
#X obj 163 -109 r touchosc;
#X obj 163 -58 tgl 15 0 empty empty empty 17 7 0 10 -262144 -1 -1 0
1;
#X obj 163 -86 routeOSC /gemctl/12;
#X obj 142 176 s gemlayer;
#X obj 56 14 t b f f f f f b;
#X obj 231 238 s bombbomb;
#X msg 141 152 1;
#X connect 0 0 2 0;
#X connect 0 1 12 0;
#X connect 1 0 23 0;
#X connect 2 0 14 0;
#X connect 4 0 1 0;
#X connect 7 0 1 0;
#X connect 8 0 4 0;
#X connect 10 0 9 0;
#X connect 11 0 10 0;
#X connect 12 0 14 0;
#X connect 15 0 16 0;
#X connect 16 0 17 0;
#X connect 16 1 18 0;
#X connect 17 0 8 0;
#X connect 18 0 17 1;
#X connect 19 0 21 0;
#X connect 20 0 1 0;
#X connect 21 0 20 0;
#X connect 23 0 3 0;
#X connect 23 1 0 0;
#X connect 23 2 5 0;
#X connect 23 4 6 0;
#X connect 23 4 11 0;
#X connect 23 5 13 0;
#X connect 23 6 25 0;
#X connect 23 6 24 0;
#X connect 25 0 22 0;
#X coords 0 1 100 -1 30 30 1 0 0;
#X restore 447 111 graph;
#N canvas 489 266 633 493 (subpatch) 0;
#X obj 13 105 sel 1;
#X obj 0 0 tgl 30 0 empty empty 7 10 15 0 15 -1 -260097 -262144 0 1
;
#X obj 0 -26 sel 1;
#X obj 0 -49 route key_36;
#X obj -13 201 s bomb-effect;
#X obj 142 174 s totouch;
#X obj 142 151 packOSC;
#X msg 142 128 send /eq/14 \$1;
#X obj 13 162 s effect-starC;
#X msg 53 137 0 0;
#X obj 81 239 s e-starC-tgl;
#X obj 6 -144 r hid;
#X obj 6 -124 t a a;
#X obj 0 -79 spigot;
#X obj 33 -101 route key_226;
#X obj 156 -78 r touchosc;
#X obj 156 -27 tgl 15 0 empty empty empty 17 7 0 10 -262144 -1 -1 0
1;
#X obj 156 -55 routeOSC /gemctl/14;
#X obj 160 98 s gemlayer;
#X msg 13 136 1 0.88;
#X obj -13 174 bng 15 250 50 0 empty empty empty 17 7 0 10 -262144
-1 -1;
#X msg 160 71 0;
#X obj 0 38 t b f f f f f f b;
#X connect 0 0 19 0;
#X connect 0 1 9 0;
#X connect 1 0 22 0;
#X connect 2 0 1 0;
#X connect 3 0 2 0;
#X connect 6 0 5 0;
#X connect 7 0 6 0;
#X connect 9 0 8 0;
#X connect 11 0 12 0;
#X connect 12 0 13 0;
#X connect 12 1 14 0;
#X connect 13 0 3 0;
#X connect 14 0 13 1;
#X connect 15 0 17 0;
#X connect 16 0 1 0;
#X connect 17 0 16 0;
#X connect 19 0 8 0;
#X connect 20 0 4 0;
#X connect 21 0 18 0;
#X connect 22 0 20 0;
#X connect 22 1 0 0;
#X connect 22 5 10 0;
#X connect 22 6 7 0;
#X connect 22 7 21 0;
#X coords 0 1 100 -1 30 30 1 0 0;
#X restore 447 147 graph;
#N canvas 590 243 489 503 (subpatch) 0;
#X obj 53 124 sel 1;
#X obj 0 0 tgl 30 0 empty empty 8 10 15 0 15 -1 -260097 -262144 0 1
;
#X obj 0 -26 sel 1;
#X obj 97 -60 inlet;
#X obj -87 88 s bomb-effect;
#X msg 56 218 1 1;
#X msg 96 219 0 0;
#X obj 6 -144 r hid;
#X obj 6 -124 t a a;
#X obj 0 -79 spigot;
#X obj 33 -101 route key_226;
#X obj 0 -50 route key_37;
#X obj 241 3 s e-8-tgl;
#X obj 56 244 s effect-8;
#X obj 151 -87 r touchosc;
#X obj 151 -36 tgl 15 0 empty empty empty 17 7 0 10 -262144 -1 -1 0
1;
#X obj 151 -64 routeOSC /gemctl/16;
#X obj 151 223 s gemlayer;
#X obj 56 14 t b f f f f f b;
#X msg 150 199 1;
#X obj -81 -29 r trigger3d;
#X connect 0 0 5 0;
#X connect 0 1 6 0;
#X connect 1 0 18 0;
#X connect 2 0 1 0;
#X connect 3 0 1 0;
#X connect 5 0 13 0;
#X connect 6 0 13 0;
#X connect 7 0 8 0;
#X connect 8 0 9 0;
#X connect 8 1 10 0;
#X connect 9 0 11 0;
#X connect 10 0 9 1;
#X connect 11 0 2 0;
#X connect 14 0 16 0;
#X connect 15 0 1 0;
#X connect 16 0 15 0;
#X connect 18 0 4 0;
#X connect 18 1 0 0;
#X connect 18 5 12 0;
#X connect 18 6 19 0;
#X connect 19 0 17 0;
#X coords 0 1 100 -1 30 30 1 0 0;
#X restore 447 184 graph;
#N canvas 187 299 489 503 (subpatch) 0;
#X obj 0 114 sel 1;
#X obj 0 0 tgl 30 0 empty empty 9 10 15 0 15 -1 -260097 -262144 0 1
;
#X obj 0 -26 sel 1;
#X obj 121 106 s toflash;
#X obj 97 -60 inlet;
#X obj -87 88 s bomb-effect;
#X obj 198 150 s totouch;
#X obj 198 127 packOSC;
#X msg 198 104 send /eq/14 \$1;
#X msg 3 208 1 1;
#X msg 43 209 0 0;
#X obj 6 -144 r hid;
#X obj 6 -124 t a a;
#X obj 0 -79 spigot;
#X obj 33 -101 route key_226;
#X obj 0 -49 route key_38;
#X obj 264 49 s e-9-tgl;
#X obj 3 234 s effect-9;
#X obj 158 -76 r touchosc;
#X obj 158 -25 tgl 15 0 empty empty empty 17 7 0 10 -262144 -1 -1 0
1;
#X obj 158 -53 routeOSC /gemctl/18;
#X obj 175 36 s gemlayer;
#X obj 56 14 t b f f f f b;
#X msg 174 12 1;
#X connect 0 0 9 0;
#X connect 0 1 10 0;
#X connect 1 0 22 0;
#X connect 2 0 1 0;
#X connect 4 0 1 0;
#X connect 7 0 6 0;
#X connect 8 0 7 0;
#X connect 9 0 17 0;
#X connect 10 0 17 0;
#X connect 11 0 12 0;
#X connect 12 0 13 0;
#X connect 12 1 14 0;
#X connect 13 0 15 0;
#X connect 14 0 13 1;
#X connect 15 0 2 0;
#X connect 18 0 20 0;
#X connect 19 0 1 0;
#X connect 20 0 19 0;
#X connect 22 0 5 0;
#X connect 22 1 0 0;
#X connect 22 4 16 0;
#X connect 22 5 23 0;
#X connect 23 0 21 0;
#X coords 0 1 100 -1 30 30 1 0 0;
#X restore 447 222 graph;
#N canvas 187 299 489 503 (subpatch) 0;
#X obj 0 114 sel 1;
#X obj 0 0 tgl 30 0 empty empty 10 5 15 0 15 -1 -260097 -262144 0 1
;
#X obj 0 -26 sel 1;
#X obj 97 -60 inlet;
#X obj -87 88 s bomb-effect;
#X obj 198 150 s totouch;
#X obj 198 127 packOSC;
#X msg 198 104 send /eq/14 \$1;
#X msg 3 208 1 1;
#X msg 43 209 0 0;
#X obj 6 -144 r hid;
#X obj 6 -124 t a a;
#X obj 0 -79 spigot;
#X obj 33 -101 route key_226;
#X obj 3 234 s effect-10;
#X obj 264 49 s e-10-tgl;
#X obj 166 -77 r touchosc;
#X obj 166 -26 tgl 15 0 empty empty empty 17 7 0 10 -262144 -1 -1 0
1;
#X obj 166 -54 routeOSC /gemctl/20;
#X obj 127 178 s gemlayer;
#X obj 0 -49 route key_45;
#X text -47 -47 alt+(-);
#X msg 127 155 3;
#X obj 76 93 s effect-gain;
#X msg 75 68 3.3;
#X obj 56 14 t b b f f f b;
#X obj 97 49 del 500;
#X connect 0 0 8 0;
#X connect 0 1 9 0;
#X connect 1 0 25 0;
#X connect 2 0 1 0;
#X connect 3 0 1 0;
#X connect 6 0 5 0;
#X connect 7 0 6 0;
#X connect 8 0 14 0;
#X connect 9 0 14 0;
#X connect 10 0 11 0;
#X connect 11 0 12 0;
#X connect 11 1 13 0;
#X connect 12 0 20 0;
#X connect 13 0 12 1;
#X connect 16 0 18 0;
#X connect 17 0 1 0;
#X connect 18 0 17 0;
#X connect 20 0 2 0;
#X connect 22 0 19 0;
#X connect 24 0 23 0;
#X connect 25 0 26 0;
#X connect 25 1 4 0;
#X connect 25 2 0 0;
#X connect 25 4 15 0;
#X connect 25 5 22 0;
#X connect 26 0 24 0;
#X coords 0 1 100 -1 30 30 1 0 0;
#X restore 372 222 graph;
#N canvas 0 22 450 300 pix-color 0;
#X obj 106 117 tgl 15 0 empty empty empty 17 7 0 10 -262144 -1 -1 0
1;
#X obj 6 326 spigot;
#X obj 6 382 s outeffect;
#X obj 113 69 r \$0-effect6;
#X obj 6 356 pix_color;
#X obj 160 2 loadbang;
#X msg 160 22 0;
#X obj 110 263 pack f f f;
#X obj 127 117 hsl 15 15 0 1 0 0 empty empty empty -2 -8 0 10 -258113
-1 -1 1400 1;
#X obj 150 117 hsl 15 15 0 1 0 0 empty empty empty -2 -8 0 10 -4034
-1 -1 1400 1;
#X obj 173 117 hsl 15 15 0 1 0 0 empty empty empty -2 -8 0 10 -4160
-1 -1 1400 1;
#X obj 158 196 line;
#X obj 105 194 line;
#X obj 211 194 line;
#X obj 158 221 t b f;
#X obj 210 221 t b f;
#X msg 183 46 1;
#X msg 105 172 \$1 200;
#X msg 158 174 \$1 200;
#X msg 212 172 \$1 200;
#X connect 0 0 1 1;
#X connect 1 0 4 0;
#X connect 3 0 1 0;
#X connect 4 0 2 0;
#X connect 5 0 6 0;
#X connect 5 0 16 0;
#X connect 6 0 0 0;
#X connect 7 0 4 1;
#X connect 8 0 17 0;
#X connect 9 0 18 0;
#X connect 10 0 19 0;
#X connect 11 0 14 0;
#X connect 12 0 7 0;
#X connect 13 0 15 0;
#X connect 14 0 7 0;
#X connect 14 1 7 1;
#X connect 15 0 7 0;
#X connect 15 1 7 2;
#X connect 16 0 8 0;
#X connect 16 0 9 0;
#X connect 16 0 10 0;
#X connect 17 0 12 0;
#X connect 18 0 11 0;
#X connect 19 0 13 0;
#X coords 0 -1 1 1 95 35 1 100 100;
#X restore -47 329 pd pix-color;
#X obj -46 14 pix_buffer \$0-temp 1;
#X obj -46 59 > 0;
#X obj -46 37 r \$0-ealpha;
#N canvas 797 176 594 577 udp 0;
#X obj -94 46 tgl 15 0 empty empty empty 17 7 0 10 -262144 -1 -1 1
1;
#X obj -94 126 s toudp;
#X obj -94 99 packOSC;
#X msg -94 75 send /effect /1 \$1;
#X msg 18 44 send /effect /2 \$1;
#X msg -36 -17 send /effect /3 \$1;
#X obj -36 -45 r e-time-tgl;
#X obj -94 19 r e-bloom-tgl;
#X obj 45 127 r e-focus-tgl;
#X msg 45 154 send /effect /4 \$1;
#X obj 18 16 r e-starA-tgl;
#X obj -263 28 r e-starA-tgl;
#X obj -263 53 sel 1;
#X obj -263 106 s \$0-alpha;
#X msg -263 76 1;
#X msg -229 77 0;
#X obj -289 -15 r e-starB-tgl;
#X obj -186 -1 r e-starC-tgl;
#X obj -263 196 s gui-noise;
#X obj -274 479 s effect-tgl;
#X floatatom -274 403 5 0 0 0 - - -;
#X obj -264 242 bng 15 250 50 0 empty empty empty 17 7 0 10 -262144
-1 -1;
#X obj -263 167 sel 1 0;
#X obj -263 136 r toflash;
#X obj -30 345 v e-8;
#X obj 13 345 v e-9;
#X obj -264 260 t b b b b b b b b b;
#X obj -274 347 v e-2;
#X obj -235 347 v e-3;
#X obj -195 348 v e-4;
#X obj -155 347 v e-5;
#X obj -114 346 v e-6;
#X obj -71 346 v e-7;
#X obj -320 -41 r e-8-tgl;
#X obj -229 -41 r e-9-tgl;
#X obj -274 373 expr $f1+$f2+$f3+$f4+$f5+$f6+$f7+$f8+$f9;
#X obj 55 344 v e-10;
#X obj -183 67 loadbang;
#X msg -184 92 1;
#X obj -166 211 metro 100;
#X obj -166 188 tgl 15 0 empty empty empty 17 7 0 10 -262144 -1 -1
1 1;
#X connect 0 0 3 0;
#X connect 2 0 1 0;
#X connect 3 0 2 0;
#X connect 4 0 2 0;
#X connect 5 0 2 0;
#X connect 6 0 5 0;
#X connect 7 0 0 0;
#X connect 8 0 9 0;
#X connect 9 0 2 0;
#X connect 10 0 4 0;
#X connect 11 0 12 0;
#X connect 12 0 14 0;
#X connect 12 1 15 0;
#X connect 16 0 12 0;
#X connect 17 0 12 0;
#X connect 20 0 19 0;
#X connect 21 0 26 0;
#X connect 22 0 18 0;
#X connect 22 1 18 0;
#X connect 23 0 22 0;
#X connect 24 0 35 6;
#X connect 25 0 35 7;
#X connect 26 0 27 0;
#X connect 26 1 28 0;
#X connect 26 2 29 0;
#X connect 26 3 30 0;
#X connect 26 4 31 0;
#X connect 26 5 32 0;
#X connect 26 6 24 0;
#X connect 26 7 25 0;
#X connect 26 8 36 0;
#X connect 27 0 35 0;
#X connect 28 0 35 1;
#X connect 29 0 35 2;
#X connect 30 0 35 3;
#X connect 31 0 35 4;
#X connect 32 0 35 5;
#X connect 33 0 12 0;
#X connect 34 0 12 0;
#X connect 35 0 20 0;
#X connect 36 0 35 8;
#X connect 37 0 38 0;
#X connect 38 0 13 0;
#X connect 38 0 40 0;
#X connect 39 0 21 0;
#X connect 40 0 39 0;
#X restore 87 14 pd udp;
#X obj 105 53 change;
#X obj 169 -4 r touchosc;
#X obj 169 47 tgl 15 0 empty empty empty 17 7 0 10 -262144 -1 -1 0
1;
#X obj 169 20 routeOSC /gemctl/50;
#N canvas 133 244 843 622 9-radial 0;
#X obj 102 117 tgl 15 0 empty empty empty 17 7 0 10 -262144 -1 -1 0
1;
#X obj 122 117 hsl 70 15 0 1 0 0 empty empty Alpha 5 8 0 10 -1 -258113
-262144 0 1;
#X obj 69 174 spigot;
#X obj 62 354 s outeffect;
#X obj 177 74 unpack f f;
#X obj 234 131 line;
#X floatatom 151 168 5 0 0 0 - - -;
#X obj 170 146 sel 1;
#X obj 304 200 bng 15 250 50 0 empty empty empty 17 7 0 10 -262144
-1 -1;
#X obj 331 270 getdir 2;
#X obj 331 296 pack s s;
#X obj 387 296 symbol;
#X msg 387 270 base;
#X msg 331 342 open \$1;
#X obj 331 247 t b b;
#X obj 304 223 t b b;
#X obj 162 361 getdir 2;
#X obj 162 387 pack s s;
#X obj 218 387 symbol;
#X msg 162 433 open \$1;
#X obj 162 338 t b b;
#X msg 109 265 iGlobalTime \$1;
#X floatatom 109 240 5 0 0 0 - - -;
#X obj 109 209 f;
#X obj 69 207 t a b;
#X msg 148 293 alpha \$1;
#X obj 193 209 fmod 1;
#X obj 177 50 r effect-9;
#X msg 234 107 \$1 2000;
#X obj 356 453 s totouch;
#X obj 356 430 packOSC;
#X obj 184 -5 r touchosc;
#X obj 331 318 makesymbol %s/_glsl/%s.vert;
#X obj 162 409 makesymbol %s/_glsl/%s.frag;
#X obj 39 36 r \$0-effect9;
#X obj 184 18 routeOSC /gemctl/19;
#X msg 356 407 send /gemctl/19 \$1;
#N canvas 789 277 576 443 glsl 0;
#X obj 86 377 glsl_program;
#X obj 159 292 pack 0 0;
#X obj 180 272 t b f;
#X obj 176 227 change;
#X obj 149 111 change;
#X msg 159 318 link \$1 \$2;
#X floatatom 180 253 2 0 0 0 ID - -;
#X floatatom 149 134 2 0 0 0 ID - -;
#X obj 86 89 glsl_vertex;
#X obj 86 207 glsl_fragment;
#X text 334 75 <-load an other shader;
#X text 338 89 (using rectangular texturing);
#X obj 86 13 inlet;
#X obj 87 416 outlet;
#X obj 269 11 inlet;
#X obj 322 11 inlet;
#X obj 373 15 inlet;
#X connect 0 0 13 0;
#X connect 1 0 5 0;
#X connect 2 0 1 0;
#X connect 2 1 1 1;
#X connect 3 0 6 0;
#X connect 4 0 7 0;
#X connect 5 0 0 0;
#X connect 6 0 2 0;
#X connect 7 0 1 0;
#X connect 8 0 9 0;
#X connect 8 1 4 0;
#X connect 9 0 0 0;
#X connect 9 1 3 0;
#X connect 12 0 8 0;
#X connect 14 0 0 0;
#X connect 15 0 8 0;
#X connect 16 0 9 0;
#X restore 62 327 pd glsl;
#X msg 218 361 radial;
#X obj 136 209 + 0.001;
#X floatatom 250 155 5 0 0 0 - - -;
#X obj 289 130 > 0;
#X obj 290 150 change;
#X obj 403 65 r \$0-time;
#X obj 403 105 k_range 2000 100 0.0005 0.001;
#X obj 46 147 v e-9;
#X connect 0 0 2 1;
#X connect 0 0 7 0;
#X connect 0 0 45 0;
#X connect 1 0 6 0;
#X connect 2 0 24 0;
#X connect 4 1 28 0;
#X connect 5 0 1 0;
#X connect 5 0 40 0;
#X connect 6 0 25 0;
#X connect 6 0 36 0;
#X connect 7 0 8 0;
#X connect 8 0 15 0;
#X connect 9 0 10 0;
#X connect 10 0 32 0;
#X connect 11 0 10 1;
#X connect 12 0 11 0;
#X connect 13 0 37 2;
#X connect 14 0 9 0;
#X connect 14 1 12 0;
#X connect 15 0 20 0;
#X connect 15 1 14 0;
#X connect 16 0 17 0;
#X connect 17 0 33 0;
#X connect 18 0 17 1;
#X connect 19 0 37 3;
#X connect 20 0 16 0;
#X connect 20 1 38 0;
#X connect 21 0 37 1;
#X connect 22 0 21 0;
#X connect 23 0 22 0;
#X connect 23 0 39 0;
#X connect 24 0 37 0;
#X connect 24 1 23 0;
#X connect 25 0 37 1;
#X connect 26 0 23 1;
#X connect 27 0 4 0;
#X connect 28 0 5 0;
#X connect 30 0 29 0;
#X connect 31 0 35 0;
#X connect 32 0 13 0;
#X connect 33 0 19 0;
#X connect 34 0 2 0;
#X connect 35 0 1 0;
#X connect 36 0 30 0;
#X connect 37 0 3 0;
#X connect 38 0 18 0;
#X connect 39 0 26 0;
#X connect 40 0 41 0;
#X connect 41 0 42 0;
#X connect 42 0 0 0;
#X connect 43 0 44 0;
#X connect 44 0 39 1;
#X coords 0 -1 1 1 95 35 1 100 100;
#X restore 205 181 pd 9-radial;
#N canvas 475 167 843 622 8-distorded 0;
#X obj 102 117 tgl 15 0 empty empty empty 17 7 0 10 -262144 -1 -1 0
1;
#X obj 122 117 hsl 70 15 0 1 0 0 empty empty Alpha 5 8 0 10 -1 -258113
-262144 0 1;
#X obj 69 174 spigot;
#X obj 68 402 s outeffect;
#X obj 102 68 unpack f f;
#X obj 234 131 line;
#X floatatom 126 147 5 0 0 0 - - -;
#X obj 170 146 sel 1;
#X obj 304 200 bng 15 250 50 0 empty empty empty 17 7 0 10 -262144
-1 -1;
#X obj 331 270 getdir 2;
#X obj 331 296 pack s s;
#X obj 387 296 symbol;
#X msg 387 270 base;
#X msg 331 342 open \$1;
#X obj 331 247 t b b;
#X obj 304 223 t b b;
#X obj 168 409 getdir 2;
#X obj 168 435 pack s s;
#X obj 224 435 symbol;
#X msg 168 481 open \$1;
#X obj 168 386 t b b;
#X msg 224 409 distorted;
#N canvas 789 277 576 443 glsl 0;
#X obj 86 377 glsl_program;
#X obj 159 292 pack 0 0;
#X obj 180 272 t b f;
#X obj 176 227 change;
#X obj 149 111 change;
#X msg 159 318 link \$1 \$2;
#X floatatom 180 253 2 0 0 0 ID - -;
#X floatatom 149 134 2 0 0 0 ID - -;
#X obj 86 89 glsl_vertex;
#X obj 86 207 glsl_fragment;
#X text 334 75 <-load an other shader;
#X text 338 89 (using rectangular texturing);
#X obj 86 13 inlet;
#X obj 87 416 outlet;
#X obj 269 11 inlet;
#X obj 322 11 inlet;
#X obj 373 15 inlet;
#X connect 0 0 13 0;
#X connect 1 0 5 0;
#X connect 2 0 1 0;
#X connect 2 1 1 1;
#X connect 3 0 6 0;
#X connect 4 0 7 0;
#X connect 5 0 0 0;
#X connect 6 0 2 0;
#X connect 7 0 1 0;
#X connect 8 0 9 0;
#X connect 8 1 4 0;
#X connect 9 0 0 0;
#X connect 9 1 3 0;
#X connect 12 0 8 0;
#X connect 14 0 0 0;
#X connect 15 0 8 0;
#X connect 16 0 9 0;
#X restore 68 375 pd glsl;
#X msg 115 313 iGlobalTime \$1;
#X floatatom 115 288 5 0 0 0 - - -;
#X obj 115 257 f;
#X obj 75 255 t a b;
#X msg 139 339 alpha \$1;
#X obj 187 258 fmod 1000;
#X obj 142 257 + 0.01;
#X obj 102 44 r effect-8;
#X obj 366 463 s totouch;
#X obj 366 440 packOSC;
#X obj 194 5 r touchosc;
#X obj 331 318 makesymbol %s/_glsl/%s.vert;
#X obj 168 457 makesymbol %s/_glsl/%s.frag;
#X obj 366 370 print;
#X obj 165 522 print;
#X obj -35 96 r \$0-effect8;
#X obj 221 191 > 0;
#X obj 226 219 change;
#X obj 194 28 routeOSC /gemctl/17;
#X msg 366 417 send /gemctl/17 \$1;
#X msg 234 107 \$1 500;
#X obj 54 130 v e-8;
#X connect 0 0 2 1;
#X connect 0 0 7 0;
#X connect 0 0 44 0;
#X connect 1 0 6 0;
#X connect 2 0 26 0;
#X connect 4 1 43 0;
#X connect 5 0 1 0;
#X connect 5 0 39 0;
#X connect 6 0 27 0;
#X connect 6 0 42 0;
#X connect 7 0 8 0;
#X connect 8 0 15 0;
#X connect 9 0 10 0;
#X connect 10 0 34 0;
#X connect 11 0 10 1;
#X connect 12 0 11 0;
#X connect 13 0 22 2;
#X connect 13 0 36 0;
#X connect 14 0 9 0;
#X connect 14 1 12 0;
#X connect 15 0 20 0;
#X connect 15 1 14 0;
#X connect 16 0 17 0;
#X connect 17 0 35 0;
#X connect 18 0 17 1;
#X connect 19 0 22 3;
#X connect 19 0 37 0;
#X connect 20 0 16 0;
#X connect 20 1 21 0;
#X connect 21 0 18 0;
#X connect 22 0 3 0;
#X connect 23 0 22 1;
#X connect 24 0 23 0;
#X connect 25 0 24 0;
#X connect 25 0 29 0;
#X connect 26 0 22 0;
#X connect 26 1 25 0;
#X connect 27 0 22 1;
#X connect 28 0 25 1;
#X connect 29 0 28 0;
#X connect 30 0 4 0;
#X connect 32 0 31 0;
#X connect 33 0 41 0;
#X connect 34 0 13 0;
#X connect 35 0 19 0;
#X connect 38 0 2 0;
#X connect 39 0 40 0;
#X connect 40 0 0 0;
#X connect 41 0 1 0;
#X connect 42 0 32 0;
#X connect 43 0 5 0;
#X coords 0 -1 1 1 95 35 1 100 100;
#X restore 205 143 pd 8-distorded;
#N canvas 494 135 591 542 4-bloom 0;
#X obj 102 117 tgl 15 0 empty empty empty 17 7 0 10 -262144 -1 -1 1
1;
#X obj 122 117 hsl 70 15 0 1 0 0 empty empty bloom 5 8 0 10 -1 -258113
-262144 6900 1;
#X obj 69 174 spigot;
#X obj 69 354 s outeffect;
#X obj 234 68 r effect-bloom;
#X obj 234 131 line;
#X floatatom 89 241 5 0 0 0 - - -;
#X obj -18 262 s e-bloom-tgl;
#X obj 194 266 bng 15 250 50 0 empty empty empty 17 7 0 10 -262144
-1 -1;
#N canvas 789 277 576 443 bloomShader 0;
#X obj 86 377 glsl_program;
#X obj 159 292 pack 0 0;
#X obj 180 272 t b f;
#X obj 176 227 change;
#X obj 149 111 change;
#X msg 159 318 link \$1 \$2;
#X floatatom 180 253 2 0 0 0 ID - -;
#X floatatom 149 134 2 0 0 0 ID - -;
#X obj 86 89 glsl_vertex;
#X obj 86 207 glsl_fragment;
#X text 334 75 <-load an other shader;
#X text 338 89 (using rectangular texturing);
#X obj 86 13 inlet;
#X obj 87 416 outlet;
#X obj 185 10 inlet;
#X obj 322 11 inlet;
#X obj 373 15 inlet;
#X msg 222 197 alpha \$1;
#X connect 0 0 13 0;
#X connect 1 0 5 0;
#X connect 2 0 1 0;
#X connect 2 1 1 1;
#X connect 3 0 6 0;
#X connect 4 0 7 0;
#X connect 5 0 0 0;
#X connect 6 0 2 0;
#X connect 7 0 1 0;
#X connect 8 0 9 0;
#X connect 8 1 4 0;
#X connect 9 0 0 0;
#X connect 9 1 3 0;
#X connect 12 0 8 0;
#X connect 14 0 17 0;
#X connect 15 0 8 0;
#X connect 16 0 9 0;
#X connect 17 0 0 0;
#X restore 69 327 pd bloomShader;
#X obj 331 273 getdir 2;
#X obj 331 299 pack s s;
#X obj 387 299 symbol;
#X msg 387 273 base;
#X msg 331 345 open \$1;
#X obj 331 250 t b b;
#X obj 194 289 t b b;
#X obj 169 361 getdir 2;
#X obj 169 387 pack s s;
#X obj 225 387 symbol;
#X msg 169 433 open \$1;
#X obj 169 338 t b b;
#X obj -35 96 r \$0-effect4;
#X msg 234 107 \$1 2000;
#X obj 354 444 s totouch;
#X obj 354 421 packOSC;
#X obj 119 26 r touchosc;
#X obj 119 49 routeOSC /win/9;
#X msg 354 398 send /win/9 \$1;
#X msg 225 361 bloom;
#X obj 169 409 makesymbol %s/_glsl/%s.frag;
#X obj 331 321 makesymbol %s/_glsl/%s.vert;
#X obj 366 36 r touchosc;
#X obj 366 59 routeOSC /gemctl/9;
#X obj 16 156 v e-4;
#X obj 194 243 sel 1;
#X obj 194 216 change;
#X obj 297 178 > 0;
#X obj 269 155 t f f;
#X msg 89 266 alpha \$1;
#X connect 0 0 2 1;
#X connect 0 0 34 0;
#X connect 0 0 36 0;
#X connect 1 0 6 0;
#X connect 1 0 28 0;
#X connect 2 0 9 0;
#X connect 4 0 23 0;
#X connect 5 0 38 0;
#X connect 6 0 39 0;
#X connect 8 0 16 0;
#X connect 9 0 3 0;
#X connect 10 0 11 0;
#X connect 11 0 31 0;
#X connect 12 0 11 1;
#X connect 13 0 12 0;
#X connect 14 0 9 2;
#X connect 15 0 10 0;
#X connect 15 1 13 0;
#X connect 16 0 21 0;
#X connect 16 1 15 0;
#X connect 17 0 18 0;
#X connect 18 0 30 0;
#X connect 19 0 18 1;
#X connect 20 0 9 3;
#X connect 21 0 17 0;
#X connect 21 1 29 0;
#X connect 22 0 2 0;
#X connect 23 0 5 0;
#X connect 25 0 24 0;
#X connect 26 0 27 0;
#X connect 27 0 1 0;
#X connect 28 0 25 0;
#X connect 29 0 19 0;
#X connect 30 0 20 0;
#X connect 31 0 14 0;
#X connect 32 0 33 0;
#X connect 33 0 1 0;
#X connect 35 0 8 0;
#X connect 36 0 35 0;
#X connect 36 0 7 0;
#X connect 37 0 0 0;
#X connect 38 0 1 0;
#X connect 38 1 37 0;
#X connect 39 0 9 1;
#X coords 0 -1 1 1 95 35 1 100 100;
#X restore 304 106 pd 4-bloom;
#N canvas 475 174 711 596 3-half 0;
#X obj 102 117 tgl 15 0 empty empty empty 17 7 0 10 -262144 -1 -1 0
1;
#X obj 122 117 hsl 70 15 0 1 0 0 empty empty halftone 5 8 0 10 -1 -258113
-262144 0 1;
#X obj 69 174 spigot;
#X obj 78 369 s outeffect;
#X obj 124 187 spigot;
#X obj 183 5 unpack f f;
#X obj 183 -53 r effect-time;
#X obj 335 130 line;
#X obj 332 22 v \$0-etime;
#X obj 306 -27 t b f;
#X obj 381 233 s e-time-tgl;
#X obj 268 196 bng 15 250 50 0 empty empty empty 17 7 0 10 -262144
-1 -1;
#X obj 295 265 getdir 2;
#X obj 295 291 pack s s;
#X obj 351 291 symbol;
#X msg 351 265 base;
#X msg 295 337 open \$1;
#X obj 295 242 t b b;
#X obj 268 218 t b b;
#X obj 212 382 getdir 2;
#X obj 212 408 pack s s;
#X obj 268 408 symbol;
#X msg 212 454 open \$1;
#X obj 212 359 t b b;
#X obj 102 141 t f f f;
#X obj 267 172 sel 1;
#X msg 108 259 iGlobalTime \$1;
#X floatatom 108 234 5 0 0 0 - - -;
#X msg 268 382 halftone;
#N canvas 295 48 612 759 halftoneShader 0;
#X obj 86 377 glsl_program;
#X obj 159 292 pack 0 0;
#X obj 180 272 t b f;
#X obj 176 227 change;
#X obj 149 111 change;
#X msg 159 318 link \$1 \$2;
#X floatatom 180 253 2 0 0 0 ID - -;
#X floatatom 149 134 2 0 0 0 ID - -;
#X obj 86 89 glsl_vertex;
#X obj 86 207 glsl_fragment;
#X text 334 75 <-load an other shader;
#X text 338 89 (using rectangular texturing);
#X obj 86 13 inlet;
#X obj 87 416 outlet;
#X obj 232 214 inlet;
#X obj 322 11 inlet;
#X obj 373 15 inlet;
#X connect 0 0 13 0;
#X connect 1 0 5 0;
#X connect 2 0 1 0;
#X connect 2 1 1 1;
#X connect 3 0 6 0;
#X connect 4 0 7 0;
#X connect 5 0 0 0;
#X connect 6 0 2 0;
#X connect 7 0 1 0;
#X connect 8 0 9 0;
#X connect 8 1 4 0;
#X connect 9 0 0 0;
#X connect 9 1 3 0;
#X connect 12 0 8 0;
#X connect 14 0 0 0;
#X connect 15 0 8 0;
#X connect 16 0 9 0;
#X restore 79 337 pd halftoneShader;
#X obj 147 211 f;
#X obj 174 211 + 0.01;
#X obj 219 212 fmod 1;
#X obj 68 201 t a b;
#X msg 335 107 \$1 2000;
#X obj -35 96 r \$0-effect3;
#X obj 376 400 s totouch;
#X obj 376 377 packOSC;
#X obj 15 -29 r touchosc;
#X msg 376 354 send /win/7 \$1;
#X obj 212 430 makesymbol %s/_glsl/%s.frag;
#X obj 295 313 makesymbol %s/_glsl/%s.vert;
#X obj 335 157 > 0;
#X obj 335 187 change;
#X obj 15 -6 routeOSC /gemctl/7;
#X msg 147 287 alpha \$1;
#X obj 306 -4 del 100;
#X msg 331 72 1;
#X obj 332 48 sel 1 0;
#X msg 394 76 0;
#X msg 394 106 \$1 5000;
#X obj 95 58 v e-3;
#X obj 267 144 change;
#X floatatom 429 9 5 0 0 0 - - -;
#X connect 0 0 24 0;
#X connect 0 0 51 0;
#X connect 1 0 39 0;
#X connect 1 0 4 0;
#X connect 2 0 33 0;
#X connect 4 0 45 0;
#X connect 5 0 9 0;
#X connect 6 0 5 0;
#X connect 7 0 1 0;
#X connect 7 0 42 0;
#X connect 8 0 48 0;
#X connect 9 0 46 0;
#X connect 9 1 8 0;
#X connect 11 0 18 0;
#X connect 12 0 13 0;
#X connect 13 0 41 0;
#X connect 14 0 13 1;
#X connect 15 0 14 0;
#X connect 16 0 29 2;
#X connect 17 0 12 0;
#X connect 17 1 15 0;
#X connect 18 0 23 0;
#X connect 18 1 17 0;
#X connect 19 0 20 0;
#X connect 20 0 40 0;
#X connect 21 0 20 1;
#X connect 22 0 29 3;
#X connect 23 0 19 0;
#X connect 23 1 28 0;
#X connect 24 0 2 1;
#X connect 24 1 4 1;
#X connect 24 2 52 0;
#X connect 25 0 11 0;
#X connect 26 0 29 1;
#X connect 27 0 26 0;
#X connect 28 0 21 0;
#X connect 29 0 3 0;
#X connect 30 0 31 0;
#X connect 30 0 27 0;
#X connect 31 0 32 0;
#X connect 32 0 30 1;
#X connect 33 0 29 0;
#X connect 33 1 30 0;
#X connect 34 0 7 0;
#X connect 35 0 2 0;
#X connect 37 0 36 0;
#X connect 38 0 44 0;
#X connect 39 0 37 0;
#X connect 40 0 22 0;
#X connect 41 0 16 0;
#X connect 42 0 43 0;
#X connect 43 0 0 0;
#X connect 44 0 1 0;
#X connect 45 0 29 1;
#X connect 46 0 8 0;
#X connect 47 0 34 0;
#X connect 48 0 47 0;
#X connect 48 1 49 0;
#X connect 49 0 50 0;
#X connect 50 0 7 0;
#X connect 52 0 25 0;
#X connect 52 0 10 0;
#X coords 0 -1 1 1 95 35 1 100 100;
#X restore 105 219 pd 3-half;
#N canvas 642 180 699 659 6-starB 0;
#X obj 102 117 tgl 15 0 empty empty empty 17 7 0 10 -262144 -1 -1 0
1;
#X obj 122 117 hsl 70 15 0 1 0 0 empty empty Alpha 5 8 0 10 -1 -258113
-262144 0 1;
#X obj 69 174 spigot;
#X obj 149 78 unpack f f;
#X obj 348 145 line;
#X obj 271 7 t b f;
#X msg 149 50 \$2 \$1;
#X obj 271 34 del 300;
#X obj 69 49 r \$0-effect6;
#X obj 89 374 s outeffect;
#X obj 328 235 bng 15 250 50 0 empty empty empty 17 7 0 10 -262144
-1 -1;
#X obj 355 305 getdir 2;
#X obj 355 331 pack s s;
#X obj 411 331 symbol;
#X msg 355 377 open \$1;
#X obj 355 282 t b b;
#X obj 328 258 t b b;
#X obj 189 381 getdir 2;
#X obj 189 407 pack s s;
#X obj 245 407 symbol;
#X msg 189 453 open \$1;
#X obj 189 358 t b b;
#X obj 328 209 sel 1;
#X msg 411 305 base;
#X obj 74 215 t a b;
#X floatatom 109 298 5 0 0 0 - - -;
#X obj 103 236 f;
#X msg 167 293 alpha \$1;
#X msg 245 381 starB;
#N canvas 789 277 576 443 starBShader 0;
#X obj 86 377 glsl_program;
#X obj 159 292 pack 0 0;
#X obj 180 272 t b f;
#X obj 176 227 change;
#X obj 149 111 change;
#X msg 159 318 link \$1 \$2;
#X floatatom 180 253 2 0 0 0 ID - -;
#X floatatom 149 134 2 0 0 0 ID - -;
#X obj 86 89 glsl_vertex;
#X obj 86 207 glsl_fragment;
#X text 334 75 <-load an other shader;
#X text 338 89 (using rectangular texturing);
#X obj 86 13 inlet;
#X obj 87 416 outlet;
#X obj 185 10 inlet;
#X obj 322 11 inlet;
#X obj 373 15 inlet;
#X connect 0 0 13 0;
#X connect 1 0 5 0;
#X connect 2 0 1 0;
#X connect 2 1 1 1;
#X connect 3 0 6 0;
#X connect 4 0 7 0;
#X connect 5 0 0 0;
#X connect 6 0 2 0;
#X connect 7 0 1 0;
#X connect 8 0 9 0;
#X connect 8 1 4 0;
#X connect 9 0 0 0;
#X connect 9 1 3 0;
#X connect 12 0 8 0;
#X connect 14 0 0 0;
#X connect 15 0 8 0;
#X connect 16 0 9 0;
#X restore 88 347 pd starBShader;
#X obj 175 237 fmod 1000;
#X obj 348 94 v \$0-starB;
#X obj 149 20 r effect-starB;
#X msg 110 319 iGlobalTime \$1;
#X obj 130 236 + 0.1;
#X msg 348 118 \$1 2000;
#X obj 8 452 s totouch;
#X obj 8 429 packOSC;
#X obj 49 -42 r touchosc;
#X msg 8 406 send /win/13 \$1;
#X obj 189 429 makesymbol %s/_glsl/%s.frag;
#X obj 355 353 makesymbol %s/_glsl/%s.vert;
#X obj 49 -19 routeOSC /gemctl/13;
#X obj 139 184 v e-6;
#X obj 406 233 s e-sprial-tgl;
#X obj 313 177 change;
#X connect 0 0 2 1;
#X connect 0 0 43 0;
#X connect 0 0 45 0;
#X connect 1 0 27 0;
#X connect 1 0 39 0;
#X connect 2 0 24 0;
#X connect 3 0 5 0;
#X connect 3 1 0 0;
#X connect 4 0 1 0;
#X connect 5 0 7 0;
#X connect 5 1 31 0;
#X connect 6 0 3 0;
#X connect 7 0 31 0;
#X connect 8 0 2 0;
#X connect 10 0 16 0;
#X connect 11 0 12 0;
#X connect 12 0 41 0;
#X connect 13 0 12 1;
#X connect 14 0 29 2;
#X connect 15 0 11 0;
#X connect 15 1 23 0;
#X connect 16 0 21 0;
#X connect 16 1 15 0;
#X connect 17 0 18 0;
#X connect 18 0 40 0;
#X connect 19 0 18 1;
#X connect 20 0 29 3;
#X connect 21 0 17 0;
#X connect 21 1 28 0;
#X connect 22 0 10 0;
#X connect 23 0 13 0;
#X connect 24 0 29 0;
#X connect 24 1 26 0;
#X connect 25 0 33 0;
#X connect 26 0 25 0;
#X connect 26 0 34 0;
#X connect 27 0 29 1;
#X connect 28 0 19 0;
#X connect 29 0 9 0;
#X connect 30 0 26 1;
#X connect 31 0 35 0;
#X connect 32 0 6 0;
#X connect 33 0 29 1;
#X connect 34 0 30 0;
#X connect 35 0 4 0;
#X connect 37 0 36 0;
#X connect 38 0 42 0;
#X connect 39 0 37 0;
#X connect 40 0 20 0;
#X connect 41 0 14 0;
#X connect 42 0 1 0;
#X connect 45 0 22 0;
#X connect 45 0 44 0;
#X coords 0 -1 1 1 95 35 1 100 100;
#X restore 304 180 pd 6-starB;
#N canvas 558 197 581 619 2-boken 0;
#X obj 101 117 tgl 15 0 empty empty empty 17 7 0 10 -262144 -1 -1 0
1;
#X obj 121 117 hsl 30 15 0 1 0 0 empty empty focus 5 8 0 10 -1 -258113
-262144 0 1;
#X obj -10 181 spigot;
#X obj 61 393 s outeffect;
#X obj 156 77 line;
#X obj 41 178 spigot;
#X obj 161 117 hsl 30 15 0 0.1 0 0 empty empty bias 5 8 0 10 -1 -258113
-262144 0 1;
#X obj 88 177 spigot;
#X obj 149 -20 r effect-vfocus;
#X obj 149 4 unpack f f f;
#X obj 255 79 line;
#X obj 261 166 s e-focus-tgl;
#X msg 59 259 focus \$1;
#X msg 121 258 bias \$1;
#X obj 247 250 bng 15 250 50 0 empty empty empty 17 7 0 10 -262144
-1 -1;
#X obj 274 320 getdir 2;
#X obj 274 346 pack s s;
#X msg 274 392 open \$1;
#X obj 274 297 t b b;
#X obj 247 273 t b b;
#X obj 173 394 getdir 2;
#X obj 173 420 pack s s;
#X obj 229 420 symbol;
#X msg 173 466 open \$1;
#X obj 173 371 t b b;
#X obj 247 218 sel 1;
#X msg 336 321 base;
#X msg 229 394 bokeh;
#X obj 394 328 symbol;
#N canvas 789 277 576 443 bokenShader 0;
#X obj 86 377 glsl_program;
#X obj 159 292 pack 0 0;
#X obj 180 272 t b f;
#X obj 176 227 change;
#X obj 149 111 change;
#X msg 159 318 link \$1 \$2;
#X floatatom 180 253 2 0 0 0 ID - -;
#X floatatom 149 134 2 0 0 0 ID - -;
#X obj 86 89 glsl_vertex;
#X obj 86 207 glsl_fragment;
#X obj 86 13 inlet;
#X obj 87 416 outlet;
#X obj 269 11 inlet;
#X obj 185 10 inlet;
#X obj 346 11 inlet;
#X obj 397 15 inlet;
#X connect 0 0 11 0;
#X connect 1 0 5 0;
#X connect 2 0 1 0;
#X connect 2 1 1 1;
#X connect 3 0 6 0;
#X connect 4 0 7 0;
#X connect 5 0 0 0;
#X connect 6 0 2 0;
#X connect 7 0 1 0;
#X connect 8 0 9 0;
#X connect 8 1 4 0;
#X connect 9 0 0 0;
#X connect 9 1 3 0;
#X connect 10 0 8 0;
#X connect 12 0 0 0;
#X connect 13 0 0 0;
#X connect 14 0 8 0;
#X connect 15 0 9 0;
#X restore 73 360 pd bokenShader;
#X obj -10 134 r \$0-effect2;
#X msg 255 56 \$1 2000;
#X msg 156 54 \$1 2000;
#X obj 173 442 makesymbol %s/_glsl/%s.frag;
#X obj 274 368 makesymbol %s/_glsl/%s.vert;
#X obj 178 155 > 0;
#X obj 164 193 change;
#X obj 300 -48 r touchosc;
#X obj 300 -25 routeOSC /gemctl/5;
#X obj 161 232 v e-2;
#X connect 0 0 2 1;
#X connect 0 0 5 1;
#X connect 0 0 7 1;
#X connect 0 0 11 0;
#X connect 0 0 25 0;
#X connect 0 0 39 0;
#X connect 1 0 5 0;
#X connect 2 0 29 0;
#X connect 4 0 1 0;
#X connect 4 0 35 0;
#X connect 5 0 12 0;
#X connect 6 0 7 0;
#X connect 7 0 13 0;
#X connect 8 0 9 0;
#X connect 9 0 0 0;
#X connect 9 1 32 0;
#X connect 9 2 31 0;
#X connect 10 0 6 0;
#X connect 12 0 29 1;
#X connect 13 0 29 2;
#X connect 14 0 19 0;
#X connect 15 0 16 0;
#X connect 16 0 34 0;
#X connect 17 0 29 3;
#X connect 18 0 15 0;
#X connect 18 1 26 0;
#X connect 19 0 24 0;
#X connect 19 1 18 0;
#X connect 20 0 21 0;
#X connect 21 0 33 0;
#X connect 22 0 21 1;
#X connect 23 0 29 4;
#X connect 24 0 20 0;
#X connect 24 1 27 0;
#X connect 25 0 14 0;
#X connect 26 0 28 0;
#X connect 27 0 22 0;
#X connect 28 0 16 1;
#X connect 29 0 3 0;
#X connect 30 0 2 0;
#X connect 31 0 10 0;
#X connect 32 0 4 0;
#X connect 33 0 23 0;
#X connect 34 0 17 0;
#X connect 35 0 36 0;
#X connect 37 0 38 0;
#X connect 38 0 1 0;
#X coords 0 -1 1 1 95 35 1 100 100;
#X restore 105 181 pd 2-boken;
#N canvas 444 148 713 730 5-edge-glow 0;
#X obj 102 117 tgl 15 0 empty empty empty 17 7 0 10 -262144 -1 -1 0
1;
#X obj 122 117 hsl 70 15 0 1 0 0 empty empty Alpha 5 8 0 10 -1 -258113
-262144 0 1;
#X obj 69 174 spigot;
#X floatatom 226 270 5 0 0 0 - - -;
#X obj 149 78 unpack f f;
#X obj 292 149 line;
#X obj 266 40 t b f;
#X msg 149 50 \$2 \$1;
#X obj 266 67 del 300;
#X obj 226 294 s v-speed;
#X obj 79 364 s outeffect;
#X obj 377 199 bng 15 250 50 0 empty empty empty 17 7 0 10 -262144
-1 -1;
#X obj 404 269 getdir 2;
#X obj 404 295 pack s s;
#X obj 460 295 symbol;
#X msg 404 341 open \$1;
#X obj 404 246 t b b;
#X obj 377 222 t b b;
#X obj 179 371 getdir 2;
#X obj 179 397 pack s s;
#X obj 235 397 symbol;
#X msg 179 443 open \$1;
#X obj 179 348 t b b;
#X obj 377 173 sel 1;
#X obj 69 49 r \$0-effect5;
#X msg 460 269 base;
#N canvas 789 277 576 443 starShader 0;
#X obj 86 377 glsl_program;
#X obj 159 292 pack 0 0;
#X obj 180 272 t b f;
#X obj 176 227 change;
#X obj 149 111 change;
#X msg 159 318 link \$1 \$2;
#X floatatom 180 253 2 0 0 0 ID - -;
#X floatatom 149 134 2 0 0 0 ID - -;
#X obj 86 89 glsl_vertex;
#X obj 86 207 glsl_fragment;
#X text 334 75 <-load an other shader;
#X text 338 89 (using rectangular texturing);
#X obj 86 13 inlet;
#X obj 87 416 outlet;
#X obj 185 10 inlet;
#X obj 322 11 inlet;
#X obj 373 15 inlet;
#X connect 0 0 13 0;
#X connect 1 0 5 0;
#X connect 2 0 1 0;
#X connect 2 1 1 1;
#X connect 3 0 6 0;
#X connect 4 0 7 0;
#X connect 5 0 0 0;
#X connect 6 0 2 0;
#X connect 7 0 1 0;
#X connect 8 0 9 0;
#X connect 8 1 4 0;
#X connect 9 0 0 0;
#X connect 9 1 3 0;
#X connect 12 0 8 0;
#X connect 14 0 0 0;
#X connect 15 0 8 0;
#X connect 16 0 9 0;
#X restore 78 337 pd starShader;
#X obj 64 205 t a b;
#X floatatom 99 288 5 0 0 0 - - -;
#X obj 93 226 f;
#X obj 490 202 s e-starA-tgl;
#X obj 292 98 v \$0-starA;
#X obj 149 21 r effect-wave;
#X msg 157 283 alpha \$1;
#X obj 165 227 fmod 5000;
#X obj 120 226 + 0.05;
#X msg 292 122 \$1 2000;
#X obj -47 370 s totouch;
#X obj -47 347 packOSC;
#X obj -7 -22 r touchosc;
#X msg -47 324 send /win/11 \$1;
#X msg 235 371 edgeglow;
#X msg 100 309 iGlobalTime \$1;
#X obj 179 419 makesymbol %s/_glsl/%s.frag;
#X obj 404 317 makesymbol %s/_glsl/%s.vert;
#X obj -7 1 routeOSC /gemctl/11;
#X obj 138 177 v e-5;
#X obj 309 209 > 0;
#X obj 282 181 t f f;
#X obj 377 141 change;
#X connect 0 0 2 1;
#X connect 0 0 46 0;
#X connect 0 0 49 0;
#X connect 1 0 3 0;
#X connect 1 0 40 0;
#X connect 2 0 27 0;
#X connect 3 0 9 0;
#X connect 3 0 33 0;
#X connect 4 0 6 0;
#X connect 5 0 48 0;
#X connect 6 0 8 0;
#X connect 6 1 31 0;
#X connect 7 0 4 0;
#X connect 8 0 31 0;
#X connect 11 0 17 0;
#X connect 12 0 13 0;
#X connect 13 0 44 0;
#X connect 14 0 13 1;
#X connect 15 0 26 2;
#X connect 16 0 12 0;
#X connect 16 1 25 0;
#X connect 17 0 22 0;
#X connect 17 1 16 0;
#X connect 18 0 19 0;
#X connect 19 0 43 0;
#X connect 20 0 19 1;
#X connect 21 0 26 3;
#X connect 22 0 18 0;
#X connect 22 1 41 0;
#X connect 23 0 11 0;
#X connect 24 0 2 0;
#X connect 25 0 14 0;
#X connect 26 0 10 0;
#X connect 27 0 26 0;
#X connect 27 1 29 0;
#X connect 28 0 42 0;
#X connect 29 0 28 0;
#X connect 29 0 35 0;
#X connect 31 0 36 0;
#X connect 32 0 7 0;
#X connect 33 0 26 1;
#X connect 34 0 29 1;
#X connect 35 0 34 0;
#X connect 36 0 5 0;
#X connect 38 0 37 0;
#X connect 39 0 45 0;
#X connect 40 0 38 0;
#X connect 41 0 20 0;
#X connect 42 0 26 1;
#X connect 43 0 21 0;
#X connect 44 0 15 0;
#X connect 45 0 1 0;
#X connect 47 0 0 0;
#X connect 48 0 1 0;
#X connect 48 1 47 0;
#X connect 49 0 23 0;
#X connect 49 0 30 0;
#X coords 0 -1 1 1 95 35 1 100 100;
#X restore 304 143 pd 5-edge-glow;
#N canvas 407 249 676 580 7-feedback 0;
#X obj 102 119 tgl 15 0 empty empty empty 17 7 0 10 -262144 -1 -1 0
1;
#X obj 122 118 hsl 70 15 0.6 0.88 0 0 empty empty Alpha 5 8 0 10 -1
-258113 -262144 0 1;
#X obj 42 214 spigot;
#X obj 8 159 s e-sobel-tgl;
#X obj 42 434 s outeffect;
#X obj 215 193 bng 15 250 50 0 empty empty empty 17 7 0 10 -262144
-1 -1;
#X obj 242 263 getdir 2;
#X obj 242 289 pack s s;
#X obj 298 289 symbol;
#X msg 242 335 open \$1;
#X obj 242 240 t b b;
#X obj 215 216 t b b;
#X obj 215 389 getdir 2;
#X obj 215 415 pack s s;
#X obj 271 415 symbol;
#X msg 215 461 open \$1;
#X obj 215 366 t b b;
#X obj 215 167 sel 1;
#X msg 298 263 base;
#X msg 65 316 time \$1;
#X obj 43 238 t a b;
#X floatatom 64 295 5 0 0 0 - - -;
#X obj 64 266 f;
#X msg 138 295 alpha \$1;
#X obj 136 267 fmod 1000;
#N canvas 789 277 576 443 starCShader 0;
#X obj 86 377 glsl_program;
#X obj 159 292 pack 0 0;
#X obj 180 272 t b f;
#X obj 176 227 change;
#X obj 149 111 change;
#X msg 159 318 link \$1 \$2;
#X floatatom 180 253 2 0 0 0 ID - -;
#X floatatom 149 134 2 0 0 0 ID - -;
#X obj 86 89 glsl_vertex;
#X obj 86 207 glsl_fragment;
#X text 334 75 <-load an other shader;
#X text 338 89 (using rectangular texturing);
#X obj 86 13 inlet;
#X obj 87 416 outlet;
#X obj 185 10 inlet;
#X obj 322 11 inlet;
#X obj 373 15 inlet;
#X connect 0 0 13 0;
#X connect 1 0 5 0;
#X connect 2 0 1 0;
#X connect 2 1 1 1;
#X connect 3 0 6 0;
#X connect 4 0 7 0;
#X connect 5 0 0 0;
#X connect 6 0 2 0;
#X connect 7 0 1 0;
#X connect 8 0 9 0;
#X connect 8 1 4 0;
#X connect 9 0 0 0;
#X connect 9 1 3 0;
#X connect 12 0 8 0;
#X connect 14 0 0 0;
#X connect 15 0 8 0;
#X connect 16 0 9 0;
#X restore 109 347 pd starCShader;
#X obj 42 187 r \$0-effect7;
#X obj 133 0 r effect-starC;
#X obj 133 25 unpack f f;
#X obj 301 133 line;
#X obj 281 17 t b f;
#X obj 301 79 v \$0-starC;
#X floatatom 133 205 5 0 0 0 - - -;
#X obj 91 266 + 0.05;
#X obj 462 400 s totouch;
#X obj 462 377 packOSC;
#X obj 286 -116 r touchosc;
#X msg 271 389 feedback;
#X obj 215 437 makesymbol %s/_glsl/%s.frag;
#X obj 242 311 makesymbol %s/_glsl/%s.vert;
#X obj 42 403 scale 0.95;
#X obj 65 51 change;
#X obj 301 166 k_range 0 1 0.6 0.88;
#X obj 65 25 > 0.601;
#X obj 286 -93 routeOSC /gemctl/15;
#X msg 462 354 send /gemctl/15 \$1;
#X msg 301 106 \$1 2000;
#X obj 454 233 s gemlayer;
#X obj 454 187 sel 0;
#X msg 454 212 1;
#X obj 332 21 t b f;
#X obj 379 75 v \$0-starC;
#X msg 379 102 \$1 0;
#X obj 332 48 del 100;
#X obj 281 44 del 100;
#X floatatom 196 59 5 0 0 0 - - -;
#X obj 276 -44 sel 0.88 0;
#X msg 281 -16 0.88;
#X msg 324 -12 0;
#X obj 153 176 v e-7;
#X connect 0 0 2 1;
#X connect 0 0 3 0;
#X connect 0 0 17 0;
#X connect 0 0 59 0;
#X connect 1 0 32 0;
#X connect 2 0 20 0;
#X connect 5 0 11 0;
#X connect 6 0 7 0;
#X connect 7 0 39 0;
#X connect 8 0 7 1;
#X connect 9 0 25 2;
#X connect 10 0 6 0;
#X connect 10 1 18 0;
#X connect 11 0 16 0;
#X connect 11 1 10 0;
#X connect 12 0 13 0;
#X connect 13 0 38 0;
#X connect 14 0 13 1;
#X connect 15 0 25 3;
#X connect 16 0 12 0;
#X connect 16 1 37 0;
#X connect 17 0 5 0;
#X connect 18 0 8 0;
#X connect 20 0 25 0;
#X connect 20 1 22 0;
#X connect 21 0 19 0;
#X connect 22 0 21 0;
#X connect 22 0 33 0;
#X connect 23 0 25 1;
#X connect 24 0 22 1;
#X connect 25 0 40 0;
#X connect 26 0 2 0;
#X connect 27 0 28 0;
#X connect 28 1 55 0;
#X connect 28 1 56 0;
#X connect 29 0 42 0;
#X connect 29 0 45 0;
#X connect 29 0 48 0;
#X connect 30 0 54 0;
#X connect 30 1 31 0;
#X connect 31 0 46 0;
#X connect 32 0 23 0;
#X connect 32 0 43 0;
#X connect 33 0 24 0;
#X connect 35 0 34 0;
#X connect 36 0 44 0;
#X connect 37 0 14 0;
#X connect 38 0 15 0;
#X connect 39 0 9 0;
#X connect 40 0 4 0;
#X connect 41 0 0 0;
#X connect 42 0 1 0;
#X connect 43 0 41 0;
#X connect 44 0 1 0;
#X connect 45 0 35 0;
#X connect 46 0 29 0;
#X connect 48 0 49 0;
#X connect 49 0 47 0;
#X connect 50 0 53 0;
#X connect 50 1 51 0;
#X connect 51 0 52 0;
#X connect 52 0 29 0;
#X connect 53 0 51 0;
#X connect 54 0 31 0;
#X connect 56 0 57 0;
#X connect 56 1 58 0;
#X connect 57 0 30 0;
#X connect 58 0 50 0;
#X coords 0 -1 1 1 95 35 1 100 100;
#X restore 205 105 pd 7-feedback;
#X obj -46 265 pix_buffer_read \$0-temp;
#X msg -19 238 0;
#N canvas 392 420 450 300 snap 0;
#X obj 167 99 t b a;
#X obj 284 142 r buffer-xy;
#X obj 167 187 t a b;
#X obj 167 236 pix_buffer_write \$0-temp;
#X msg 308 211 0;
#X obj 167 165 pix_snap 0 0 800 600;
#X obj 264 19 inlet;
#X obj 167 57 k_tgl;
#X msg 167 127 snap;
#X obj 167 20 gemhead 99998;
#X connect 0 0 8 0;
#X connect 0 1 5 0;
#X connect 1 0 5 2;
#X connect 2 0 3 0;
#X connect 2 1 4 0;
#X connect 4 0 3 1;
#X connect 5 0 2 0;
#X connect 6 0 7 1;
#X connect 7 0 0 0;
#X connect 8 0 5 0;
#X connect 9 0 7 0;
#X restore -46 126 pd snap;
#X obj -46 171 k_tgl;
#X obj -46 85 t f f f;
#X obj -46 218 t a b;
#X obj 23 128 r gemlayer;
#N canvas 765 504 450 300 web 0;
#X obj 161 144 s totouch;
#X obj 161 54 inlet;
#X msg 216 48 0;
#X obj 161 120 packOSC;
#X msg 161 95 send /gemctl/50 \$1;
#X connect 1 0 4 0;
#X connect 2 0 4 0;
#X connect 3 0 0 0;
#X connect 4 0 3 0;
#X restore 15 81 pd web;
#X obj 23 150 sel 0 1;
#X msg 23 174 10000;
#X obj -46 151 gemhead -1;
#N canvas 646 23 756 726 show-buffer 0;
#X obj -364 193 pix_texture;
#X obj -364 119 pix_gain 1;
#X msg -268 113 quality \$1;
#X obj -268 94 tgl 15 0 empty empty empty 0 -6 0 8 -262144 -1 -1 1
1;
#X obj -268 70 loadbang;
#X obj -346 143 loadbang;
#X obj -336 94 r \$0-egain;
#X obj -361 -280 inlet;
#X obj -171 290 r buffer-xy;
#X floatatom -171 346 5 0 0 0 - - -;
#X obj -291 311 translateXYZ;
#X obj -17 -256 r viewcin;
#X obj -11 -139 k_angle;
#X msg 2 -198 \$1 \$2 \$3;
#X msg 27 -170 \$4 \$5 \$6;
#X floatatom -11 -35 5 0 0 0 - - -;
#X floatatom 28 -55 5 0 0 0 - - -;
#X obj -11 -4 expr 90-$f1;
#X obj -106 -48 r v-distance;
#X floatatom -106 22 5 0 0 0 - - -;
#X msg -147 98 \$4 \$5 \$6;
#X floatatom -106 69 5 0 0 0 - - -;
#X obj -17 -227 t a a a;
#X obj -186 60 t b a;
#X obj -268 279 unpack f f f;
#X obj -291 347 facing;
#X obj -106 45 - 2;
#X obj -171 319 expr ($f1/$f2)*2;
#X obj -364 10 r outeffect;
#X obj -364 48 alpha;
#X obj -321 40 r \$0-eblend;
#X obj -321 63 tgl 15 0 empty empty empty 17 7 0 10 -262144 -1 -1 1
1;
#X obj -214 -203 s \$0-effect2;
#X obj -228 -227 s \$0-effect3;
#X obj -241 -178 s \$0-effect4;
#X obj -254 -156 s \$0-effect5;
#X obj -266 -129 s \$0-effect6;
#X obj -278 -107 s \$0-effect7;
#X obj -294 -79 s \$0-effect8;
#X obj -308 -227 s \$0-effect9;
#X obj -321 -53 s \$0-effect10;
#X obj -407 286 r buffer-xy;
#X floatatom -407 342 5 0 0 0 - - -;
#X obj -407 315 expr ($f1/$f2)*2;
#X obj -527 260 translateXYZ 0 0 3;
#X obj -527 343 scale 0.5;
#X obj -167 135 k_apos;
#X obj -527 373 rectangle 3.33 2;
#X obj -291 377 rectangle 3.33 2;
#X obj -361 -255 t b b a a a a a a a a a a;
#X obj -464 -79 s readbuffer;
#X msg -346 165 rectangle 0;
#X obj -433 -50 r gemlayer;
#X msg -489 98 1;
#X msg -508 74 2;
#X obj -441 2 loadbang;
#X msg -453 99 3;
#X obj -397 219 gate 3;
#X obj -286 -1 sel 0 1;
#X msg -287 19 1;
#X msg -256 19 0;
#X floatatom -428 171 5 0 0 0 - - -;
#X obj -508 50 sel 0 1 2 3;
#X msg -440 72 1;
#X connect 0 0 57 1;
#X connect 1 0 0 0;
#X connect 2 0 0 0;
#X connect 3 0 2 0;
#X connect 4 0 3 0;
#X connect 5 0 51 0;
#X connect 6 0 1 1;
#X connect 7 0 49 0;
#X connect 8 0 27 0;
#X connect 9 0 48 1;
#X connect 10 0 25 0;
#X connect 11 0 22 0;
#X connect 12 0 15 0;
#X connect 12 1 16 0;
#X connect 13 0 12 0;
#X connect 14 0 12 1;
#X connect 15 0 17 0;
#X connect 16 0 46 4;
#X connect 17 0 46 3;
#X connect 18 0 19 0;
#X connect 19 0 26 0;
#X connect 20 0 46 1;
#X connect 21 0 46 2;
#X connect 22 0 23 0;
#X connect 22 1 13 0;
#X connect 22 2 14 0;
#X connect 23 0 46 0;
#X connect 23 1 20 0;
#X connect 24 0 10 1;
#X connect 24 1 10 2;
#X connect 24 2 10 3;
#X connect 25 0 48 0;
#X connect 26 0 21 0;
#X connect 27 0 9 0;
#X connect 28 0 29 0;
#X connect 29 0 1 0;
#X connect 30 0 31 0;
#X connect 31 0 29 1;
#X connect 41 0 43 0;
#X connect 42 0 47 1;
#X connect 43 0 42 0;
#X connect 44 0 45 0;
#X connect 45 0 47 0;
#X connect 46 0 24 0;
#X connect 49 0 50 0;
#X connect 49 3 40 0;
#X connect 49 4 39 0;
#X connect 49 5 38 0;
#X connect 49 6 37 0;
#X connect 49 7 36 0;
#X connect 49 8 35 0;
#X connect 49 9 34 0;
#X connect 49 10 33 0;
#X connect 49 11 32 0;
#X connect 51 0 0 0;
#X connect 52 0 58 0;
#X connect 52 0 62 0;
#X connect 53 0 61 0;
#X connect 54 0 61 0;
#X connect 55 0 53 0;
#X connect 56 0 61 0;
#X connect 57 0 44 0;
#X connect 57 1 10 0;
#X connect 58 0 59 0;
#X connect 58 1 59 0;
#X connect 58 2 60 0;
#X connect 59 0 31 0;
#X connect 60 0 31 0;
#X connect 61 0 57 0;
#X connect 62 0 54 0;
#X connect 62 1 53 0;
#X connect 62 2 56 0;
#X connect 62 3 63 0;
#X connect 63 0 61 0;
#X restore -46 294 pd show-buffer;
#X msg 58 193 -2;
#N canvas 688 36 572 726 10-gray 0;
#X obj 102 117 tgl 15 0 empty empty empty 17 7 0 10 -262144 -1 -1 0
1;
#X obj 122 117 hsl 70 15 0 1 0 0 empty empty Alpha 5 8 0 10 -1 -258113
-262144 0 1;
#X obj 69 174 spigot;
#X obj 84 517 s outeffect;
#X obj 287 -73 unpack f f;
#X obj 344 -16 line;
#X floatatom 126 147 5 0 0 0 - - -;
#X obj 170 146 sel 1;
#X obj 304 200 bng 15 250 50 0 empty empty empty 17 7 0 10 -262144
-1 -1;
#X obj 331 270 getdir 2;
#X obj 331 296 pack s s;
#X obj 387 296 symbol;
#X msg 387 270 base;
#X msg 331 342 open \$1;
#X obj 331 247 t b b;
#X obj 304 223 t b b;
#X obj 162 361 getdir 2;
#X obj 162 387 pack s s;
#X obj 218 387 symbol;
#X msg 162 433 open \$1;
#X obj 162 338 t b b;
#N canvas 789 277 576 443 glsl 0;
#X obj 86 377 glsl_program;
#X obj 159 292 pack 0 0;
#X obj 180 272 t b f;
#X obj 176 227 change;
#X obj 149 111 change;
#X msg 159 318 link \$1 \$2;
#X floatatom 180 253 2 0 0 0 ID - -;
#X floatatom 149 134 2 0 0 0 ID - -;
#X obj 86 89 glsl_vertex;
#X obj 86 207 glsl_fragment;
#X text 334 75 <-load an other shader;
#X text 338 89 (using rectangular texturing);
#X obj 86 13 inlet;
#X obj 87 416 outlet;
#X obj 269 11 inlet;
#X obj 322 11 inlet;
#X obj 373 15 inlet;
#X connect 0 0 13 0;
#X connect 1 0 5 0;
#X connect 2 0 1 0;
#X connect 2 1 1 1;
#X connect 3 0 6 0;
#X connect 4 0 7 0;
#X connect 5 0 0 0;
#X connect 6 0 2 0;
#X connect 7 0 1 0;
#X connect 8 0 9 0;
#X connect 8 1 4 0;
#X connect 9 0 0 0;
#X connect 9 1 3 0;
#X connect 12 0 8 0;
#X connect 14 0 0 0;
#X connect 15 0 8 0;
#X connect 16 0 9 0;
#X restore 84 490 pd glsl;
#X msg 109 265 iGlobalTime \$1;
#X floatatom 109 240 5 0 0 0 - - -;
#X obj 109 209 f;
#X obj 69 207 t a b;
#X obj 189 210 fmod 1;
#X obj 136 209 + 0.001;
#X msg 344 -40 \$1 2000;
#X obj 287 -97 r effect-10;
#X obj 346 443 s totouch;
#X obj 346 420 packOSC;
#X obj 174 -15 r touchosc;
#X obj 162 409 makesymbol %s/_glsl/%s.frag;
#X obj 331 318 makesymbol %s/_glsl/%s.vert;
#X obj 30 45 r \$0-effect10;
#X obj 367 32 > 0;
#X obj 365 55 change;
#X obj 174 8 routeOSC /gemctl/21;
#X msg 346 397 send /gemctl/21 \$1;
#X floatatom 303 44 5 0 0 0 - - -;
#X msg 142 300 alpha \$1;
#X obj 61 135 v e-10;
#X msg 218 361 gray;
#X connect 0 0 2 1;
#X connect 0 0 7 0;
#X connect 0 0 42 0;
#X connect 1 0 6 0;
#X connect 2 0 25 0;
#X connect 4 1 28 0;
#X connect 5 0 36 0;
#X connect 5 0 40 0;
#X connect 6 0 39 0;
#X connect 6 0 41 0;
#X connect 7 0 8 0;
#X connect 8 0 15 0;
#X connect 9 0 10 0;
#X connect 10 0 34 0;
#X connect 11 0 10 1;
#X connect 12 0 11 0;
#X connect 13 0 21 2;
#X connect 14 0 9 0;
#X connect 14 1 12 0;
#X connect 15 0 20 0;
#X connect 15 1 14 0;
#X connect 16 0 17 0;
#X connect 17 0 33 0;
#X connect 18 0 17 1;
#X connect 19 0 21 3;
#X connect 20 0 16 0;
#X connect 20 1 43 0;
#X connect 21 0 3 0;
#X connect 22 0 21 1;
#X connect 23 0 22 0;
#X connect 24 0 23 0;
#X connect 24 0 27 0;
#X connect 25 0 21 0;
#X connect 25 1 24 0;
#X connect 26 0 24 1;
#X connect 27 0 26 0;
#X connect 28 0 5 0;
#X connect 29 0 4 0;
#X connect 31 0 30 0;
#X connect 32 0 38 0;
#X connect 33 0 19 0;
#X connect 34 0 13 0;
#X connect 35 0 2 0;
#X connect 36 0 37 0;
#X connect 37 0 0 0;
#X connect 38 0 1 0;
#X connect 39 0 31 0;
#X connect 40 0 1 0;
#X connect 41 0 21 1;
#X connect 43 0 18 0;
#X coords 0 -1 1 1 95 35 1 100 100;
#X restore 205 219 pd 10-gray;
#X msg 20 238 set \$1;
#X floatatom 20 212 5 0 0 0 - - -;
#X connect 1 0 35 0;
#X connect 16 0 19 0;
#X connect 17 0 16 0;
#X connect 19 0 1 0;
#X connect 20 0 22 0;
#X connect 21 0 19 0;
#X connect 22 0 21 0;
#X connect 31 0 42 0;
#X connect 32 0 31 1;
#X connect 34 0 36 0;
#X connect 35 0 33 0;
#X connect 35 1 34 1;
#X connect 35 2 38 0;
#X connect 36 0 31 0;
#X connect 36 1 32 0;
#X connect 37 0 39 0;
#X connect 39 0 40 0;
#X connect 39 1 43 0;
#X connect 40 0 46 0;
#X connect 41 0 34 0;
#X connect 43 0 46 0;
#X connect 45 0 41 0;
#X connect 46 0 45 0;
#X coords 0 -1 1 1 390 160 1 100 100;
