#N canvas 736 262 450 300 10;
#X obj 115 101 init \$1;
#X obj 160 144 init \$2;
#X obj 76 97 inlet;
#X obj 76 144 moses 0;
#X obj 115 173 moses 10;
#X floatatom 76 122 5 0 0 0 - - -;
#X floatatom 115 199 5 0 0 0 - - -;
#X obj 115 225 outlet;
#X floatatom 159 199 5 0 0 0 - - -;
#X obj 159 225 outlet;
#X obj 140 73 inlet;
#X obj 208 76 inlet;
#X connect 0 0 3 1;
#X connect 1 0 4 1;
#X connect 2 0 5 0;
#X connect 3 1 4 0;
#X connect 4 0 6 0;
#X connect 4 1 8 0;
#X connect 5 0 3 0;
#X connect 6 0 7 0;
#X connect 8 0 9 0;
#X connect 10 0 3 1;
#X connect 11 0 4 1;
