#N canvas 535 117 701 569 10;
#X obj 84 354 color 1 1 1;
#X msg 155 413 draw line \, width 2;
#X obj 155 387 loadbang;
#X obj 84 265 scaleXYZ 1;
#X obj 292 364 k_event 0 0.2;
#X msg 454 436 1;
#X floatatom 367 478 5 0 0 0 - - -;
#X obj 367 386 k_event 0.2 0.9;
#X obj 454 413 k_event 0.9 1;
#X obj 367 456 expr 0.35-abs($f1-0.55)*1.1+1;
#X obj 292 412 k_range 0 0.2 0.8 1;
#X obj 84 327 circle 0.25;
#X obj 84 395 circle 0.25;
#X obj 84 297 colorRGB 1 0 0;
#X obj 81 202 gemhead;
#X obj 104 93 cnv 15 100 60 empty empty empty 20 12 0 14 -195568 -66577
0;
#N canvas 0 22 450 300 gemwin 0;
#X obj 132 136 gemwin;
#X obj 67 89 outlet;
#X obj 67 10 inlet;
#X obj 67 41 route create;
#X msg 67 70 set destroy;
#X msg 142 68 set create;
#X msg 249 113 destroy;
#X msg 132 112 reset \, create \, 1;
#X connect 2 0 3 0;
#X connect 3 0 4 0;
#X connect 3 0 7 0;
#X connect 3 1 5 0;
#X connect 3 1 6 0;
#X connect 4 0 1 0;
#X connect 5 0 1 0;
#X connect 6 0 0 0;
#X connect 7 0 0 0;
#X restore 109 132 pd gemwin;
#X msg 109 113 destroy;
#X text 105 92 Create window:;
#X obj 287 268 hsl 128 15 0 127 0 0 empty empty empty -2 -8 0 10 -262144
-1 -1 12700 1;
#X obj 283 306 / 127;
#X floatatom 291 341 5 0 0 0 - - -;
#X obj 84 239 translateXYZ;
#X obj 175 200 k_range 0 1 0 3;
#X connect 0 0 12 0;
#X connect 1 0 12 0;
#X connect 2 0 1 0;
#X connect 3 0 13 0;
#X connect 4 0 10 0;
#X connect 4 1 7 0;
#X connect 5 0 6 0;
#X connect 6 0 3 2;
#X connect 7 0 9 0;
#X connect 7 1 8 0;
#X connect 8 0 5 0;
#X connect 9 0 6 0;
#X connect 10 0 6 0;
#X connect 11 0 0 0;
#X connect 13 0 11 0;
#X connect 14 0 22 0;
#X connect 16 0 17 0;
#X connect 17 0 16 0;
#X connect 19 0 20 0;
#X connect 20 0 21 0;
#X connect 20 0 23 0;
#X connect 21 0 4 0;
#X connect 22 0 3 0;
#X connect 23 0 22 2;
