#N canvas 400 22 649 649 10;
#X obj 103 127 cnv 15 174 100 empty empty empty 20 12 0 14 -233017
-66577 0;
#X obj 302 113 loadbang;
#N canvas 485 22 659 791 FFT_Analyse========================= 0;
#X obj 100 169 inlet~;
#X obj 101 332 *~;
#X obj 132 331 *~;
#X obj 110 356 +~;
#X obj 111 377 powtodb~;
#N canvas 0 22 346 535 init_input_window 0;
#X obj 73 217 / 10;
#X obj 55 278 line 0 0.1;
#X msg 119 246 0;
#X obj 54 176 t f f b;
#X obj 54 239 pack;
#X obj 55 301 t f f;
#X obj 54 152 - 1;
#X obj 74 114 t f f;
#X obj 55 359 * 3.14159;
#X obj 55 381 sin;
#X msg 55 401 \$1 \$1;
#X obj 55 423 *;
#X text 119 334 0...0.99;
#X text 128 359 0...pi;
#X text 79 423 hanning;
#X msg 55 88 4096;
#X obj 100 88 f 4096;
#X obj 99 60 bng 15 250 50 0 empty empty empty 0 -6 0 8 -262144 -1
-1;
#X obj 99 39 loadbang;
#X obj 74 333 / 4096;
#X obj 55 448 tabwrite \$0-window;
#X text 86 381 half-sine;
#X connect 0 0 4 1;
#X connect 1 0 5 0;
#X connect 2 0 1 0;
#X connect 3 0 4 0;
#X connect 3 1 0 0;
#X connect 3 2 2 0;
#X connect 4 0 1 0;
#X connect 5 0 19 0;
#X connect 5 1 20 1;
#X connect 6 0 3 0;
#X connect 7 0 6 0;
#X connect 7 1 19 1;
#X connect 8 0 9 0;
#X connect 9 0 10 0;
#X connect 10 0 11 0;
#X connect 11 0 20 0;
#X connect 15 0 7 0;
#X connect 16 0 7 0;
#X connect 17 0 16 0;
#X connect 18 0 17 0;
#X connect 19 0 8 0;
#X restore 161 276 pd init_input_window;
#N canvas 0 22 450 300 (subpatch) 0;
#X array \$0-lin_scope 2048 float 0;
#X coords 0 100 2047 0 200 140 1;
#X restore 102 630 graph;
#N canvas 0 22 822 328 init_norm 0;
#X obj 43 230 outlet;
#X obj 43 187 - 100;
#X floatatom 43 208 9 0 0 0 - - -;
#X text 108 169 leistung -> techn. dB;
#X msg 43 69 4096;
#X obj 80 68 f 4096;
#X obj 80 47 bng 15 250 50 0 empty empty empty 0 -6 0 8 -262144 -1
-1;
#X obj 80 26 loadbang;
#X obj 43 167 rmstodb;
#X obj 43 110 / 4;
#X text 74 103 faktor 2 wegen hanning;
#X text 74 114 weiterer faktor 2 \, weil wir nur die;
#X text 73 124 erste haelfte des konjungiert komplexen spektrum sehen
;
#X text 108 135 bzw. bearbeiten \, somit nur die haelfte der spektralen
energie;
#X connect 1 0 2 0;
#X connect 2 0 0 0;
#X connect 4 0 9 0;
#X connect 5 0 9 0;
#X connect 6 0 5 0;
#X connect 7 0 6 0;
#X connect 8 0 1 0;
#X connect 9 0 8 0;
#X restore 161 399 pd init_norm;
#X obj 100 231 *~;
#X obj 110 425 -~ 60.206;
#X obj 123 519 *~ 0.98;
#X obj 110 541 +~;
#X obj 110 475 *~ 0.02;
#X msg 314 481 1 \$1;
#X obj 314 502 -;
#X obj 314 458 clip 0 1;
#X obj 314 437 / 100;
#X floatatom 314 413 5 0.5 100 0 - - -;
#X obj 314 373 loadbang;
#X obj 100 277 fft~;
#X obj 384 566 line 0 0.1;
#X obj 384 611 / 2;
#X obj 384 631 mtof;
#X msg 384 545 6 \, 273 26.7;
#X obj 384 589 t f f;
#X obj 415 611 - 6;
#X obj 384 651 / 44100;
#X obj 384 672 * 4096;
#X msg 317 116 6;
#X obj 317 136 / 2;
#X obj 317 156 mtof;
#X floatatom 317 176 9 0 0 0 - - -;
#X text 384 177 Hz;
#X obj 415 137 / 2;
#X obj 415 156 mtof;
#X floatatom 415 176 9 0 0 0 - - -;
#X text 483 176 Hz;
#X msg 415 117 273;
#X obj 317 95 t b b;
#X obj 384 494 tgl 15 0 empty empty empty 0 -6 0 8 -262144 -1 -1 1
1;
#X obj 384 454 loadbang;
#X msg 384 474 1;
#X obj 317 75 loadbang;
#X obj 130 253 table \$0-window 4096;
#X obj 132 198 tabreceive~ \$0-window;
#X text 353 403 temporal lowpass;
#X text 355 415 parameter between 0 .. 100 %;
#X obj 123 498 tabreceive~ \$0-lin_scope;
#X obj 110 587 tabsend~ \$0-lin_scope;
#X obj 384 694 tabread4 \$0-lin_scope;
#X text 474 545 transformation to log scale;
#X text 95 148 audio sig;
#X obj 457 525 switch~ 4096 2;
#X msg 314 392 50;
#X obj 110 565 clip~ 0 100;
#X obj 153 167 inlet~;
#X obj 384 716 tabwrite vol-fft;
#X obj 384 525 metro 100;
#X connect 0 0 8 0;
#X connect 1 0 3 0;
#X connect 2 0 3 1;
#X connect 3 0 4 0;
#X connect 4 0 9 0;
#X connect 7 0 9 1;
#X connect 8 0 19 0;
#X connect 9 0 12 0;
#X connect 10 0 11 1;
#X connect 11 0 54 0;
#X connect 12 0 11 0;
#X connect 13 0 14 0;
#X connect 14 0 10 1;
#X connect 15 0 13 0;
#X connect 15 0 12 1;
#X connect 16 0 15 0;
#X connect 17 0 16 0;
#X connect 18 0 53 0;
#X connect 19 0 1 0;
#X connect 19 0 1 1;
#X connect 19 1 2 0;
#X connect 19 1 2 1;
#X connect 20 0 24 0;
#X connect 21 0 22 0;
#X connect 22 0 26 0;
#X connect 23 0 20 0;
#X connect 24 0 21 0;
#X connect 24 1 25 0;
#X connect 25 0 56 1;
#X connect 26 0 27 0;
#X connect 27 0 49 0;
#X connect 28 0 29 0;
#X connect 29 0 30 0;
#X connect 30 0 31 0;
#X connect 33 0 34 0;
#X connect 34 0 35 0;
#X connect 37 0 33 0;
#X connect 38 0 28 0;
#X connect 38 1 37 0;
#X connect 39 0 52 0;
#X connect 39 0 57 0;
#X connect 40 0 41 0;
#X connect 41 0 39 0;
#X connect 42 0 38 0;
#X connect 44 0 8 1;
#X connect 47 0 10 0;
#X connect 49 0 56 0;
#X connect 53 0 17 0;
#X connect 54 0 48 0;
#X connect 55 0 8 0;
#X connect 57 0 23 0;
#X restore 107 66 pd FFT_Analyse=========================;
#X obj 107 38 inlet~;
#X obj 338 35 inlet~;
#X msg 321 195 \; vol-fft yticks 0 5 2;
#X obj 141 212 cnv 5 10 10 empty empty |80 5 5 0 8 -233017 -66577 0
;
#X msg 302 162 \; vol-fft xticks 0 12 2;
#X obj 174 212 cnv 5 10 10 empty empty |320 0 5 0 8 -233017 -66577
0;
#X obj 112 212 cnv 5 10 10 empty empty |20 5 5 0 8 -233017 -66577 0
;
#X obj 203 212 cnv 5 10 10 empty empty |1.28 0 5 0 8 -233017 -66577
0;
#X obj 232 212 cnv 5 10 10 empty empty |5.12 0 5 0 8 -233017 -66577
0;
#X obj 108 141 hsl 155 70 0 267 0 0 empty \$0-peak empty -2 -8 0 10
-3264 -258113 -1 0 1;
#N canvas 0 22 450 300 (subpatch) 0;
#X array vol-fft 268 float 0;
#X coords 0 100 267 0 160 70 1;
#X restore 105 141 graph;
#X obj 185 263 tgl 15 0 empty empty empty 17 7 0 10 -262144 -1 -1 1
1;
#X obj 204 342 repeat 268;
#X obj 232 366 + 1;
#X obj 261 366 % 268;
#X obj 221 467 tabread vol-fft;
#X obj 204 495 tabread vol-fft;
#X floatatom 221 524 5 0 0 0 - - -;
#X floatatom 204 547 5 0 0 0 - - -;
#X floatatom 204 390 5 0 0 0 - - -;
#X obj 204 572 >;
#X obj 282 574 v n2;
#X obj 204 619 sel 1 0;
#X obj 185 313 t b b b;
#X obj 204 418 t f b f f;
#X obj 333 504 v n1;
#X obj 204 596 tgl 15 0 empty empty empty 17 7 0 10 -262144 -1 -1 0
1;
#X obj 317 572 v n1;
#X obj 282 610 v n1;
#X obj 221 442 v n1;
#X obj 204 365 f 0;
#X obj 122 348 v n1;
#X floatatom 122 373 5 0 0 0 - - -;
#X obj 122 471 s \$0-peak;
#X obj 122 421 line;
#X obj 185 239 loadbang;
#X msg 333 480 0;
#X obj 263 212 cnv 5 10 10 empty empty |20 0 5 0 8 -233017 -66577 0
;
#X floatatom 122 445 5 0 0 0 - - -;
#X obj 369 319 repeat 268;
#X obj 397 343 + 1;
#X obj 426 343 % 268;
#X floatatom 369 367 5 0 0 0 - - -;
#X obj 369 342 f 0;
#X obj 369 297 bng 15 250 50 0 empty empty empty 17 7 0 10 -262144
-1 -1;
#X obj 369 391 t b f;
#X obj 369 444 tabwrite vol-fft;
#X obj 369 417 random 50;
#X obj 374 89 fiddle~ 1024 1 20 3;
#X obj 374 113 mtof;
#X floatatom 234 106 5 0 0 0 - - -;
#X obj 374 137 int;
#X obj 30 79 outlet~;
#X obj 434 61 outlet~;
#X obj 185 287 metro 60;
#X msg 122 398 \$1 60;
#X connect 1 0 7 0;
#X connect 1 0 5 0;
#X connect 3 0 2 0;
#X connect 3 0 51 0;
#X connect 3 0 55 0;
#X connect 4 0 2 1;
#X connect 4 0 51 0;
#X connect 4 0 56 0;
#X connect 14 0 57 0;
#X connect 15 0 33 0;
#X connect 16 0 17 0;
#X connect 17 0 33 1;
#X connect 18 0 20 0;
#X connect 19 0 21 0;
#X connect 20 0 23 1;
#X connect 21 0 23 0;
#X connect 22 0 27 0;
#X connect 23 0 29 0;
#X connect 24 0 31 0;
#X connect 25 0 24 0;
#X connect 25 1 30 0;
#X connect 26 0 34 0;
#X connect 26 1 15 0;
#X connect 26 2 39 0;
#X connect 27 0 19 0;
#X connect 27 1 32 0;
#X connect 27 2 24 0;
#X connect 29 0 25 0;
#X connect 30 0 31 0;
#X connect 32 0 18 0;
#X connect 33 0 16 0;
#X connect 33 0 22 0;
#X connect 34 0 35 0;
#X connect 35 0 58 0;
#X connect 37 0 41 0;
#X connect 38 0 14 0;
#X connect 39 0 28 0;
#X connect 41 0 36 0;
#X connect 42 0 46 0;
#X connect 43 0 44 0;
#X connect 44 0 46 1;
#X connect 45 0 48 0;
#X connect 46 0 43 0;
#X connect 46 0 45 0;
#X connect 47 0 42 0;
#X connect 48 0 50 0;
#X connect 48 1 49 1;
#X connect 50 0 49 0;
#X connect 51 0 52 0;
#X connect 52 0 54 0;
#X connect 54 0 53 0;
#X connect 57 0 26 0;
#X connect 58 0 37 0;
#X coords 0 -1 1 1 180 130 1 100 100;
