#N canvas 305 264 463 433 10;
#X obj 142 50 inlet;
#X obj 280 22 loadbang;
#X obj 142 126 v \$0-value;
#X obj 200 68 tgl 15 0 empty empty empty 17 7 0 10 -262144 -1 -1 1
1;
#X obj 142 176 outlet;
#X obj 200 90 metro 50;
#X obj 280 50 init \$1;
#X obj 340 50 inlet;
#X obj 142 82 change;
#X connect 0 0 8 0;
#X connect 1 0 3 0;
#X connect 1 0 6 0;
#X connect 2 0 4 0;
#X connect 3 0 5 0;
#X connect 5 0 2 0;
#X connect 6 0 5 1;
#X connect 7 0 5 1;
#X connect 8 0 2 0;
