#N canvas 538 233 450 300 12;
#X obj 153 141 random 100000;
#X obj 152 169 / 100000;
#X obj 153 80 tgl 15 0 empty empty empty 17 7 0 10 -262144 -1 -1 0
1;
#X obj 152 99 metro 300;
#X floatatom 152 237 5 0 0 0 - - -, f 5;
#X obj 151 50 loadbang;
#X obj 152 212 k_float 1000;
#X floatatom 31 239 5 0 0 0 - - -, f 5;
#X obj 31 213 k_float 100;
#X floatatom 274 237 5 0 0 0 - - -, f 5;
#X obj 274 212 k_float 10;
#X connect 0 0 1 0;
#X connect 1 0 6 0;
#X connect 1 0 8 0;
#X connect 1 0 10 0;
#X connect 2 0 3 0;
#X connect 3 0 0 0;
#X connect 5 0 2 0;
#X connect 6 0 4 0;
#X connect 8 0 7 0;
#X connect 10 0 9 0;
