#N canvas 0 22 575 279 10;
#X obj 184 71 inlet;
#X obj 182 177 outlet;
#X obj 286 66 init \$1;
#X obj 286 88 expr if($f1==0 \, 100 \, $f1);
#X obj 184 144 expr int($f1*$f2)/$f2;
#X connect 0 0 4 0;
#X connect 2 0 3 0;
#X connect 3 0 4 1;
#X connect 4 0 1 0;
