#N canvas 608 332 522 440 10;
#X obj 102 149 outlet;
#X obj 199 -89 realtime;
#X obj 199 -110 t b b;
#X obj 199 -132 gemhead;
#X obj 199 -44 +;
#X obj 199 -17 / 11;
#X obj 199 22 +;
#X obj 199 48 / 11;
#X msg 199 72 1000 \$1;
#X obj 199 95 /;
#X obj 199 117 + 0.5;
#X obj 199 142 i;
#X obj 199 163 change;
#X obj 214 -70 * 10;
#X obj 213 1 * 10;
#X floatatom 180 188 5 0 0 0 - - -;
#X obj 102 115 nbx 3 18 -1e+37 1e+37 0 0 empty empty empty 0 -8 0 14
-4034 -1 -1 40 256;
#X connect 1 0 4 0;
#X connect 2 0 1 0;
#X connect 2 1 1 1;
#X connect 3 0 2 0;
#X connect 4 0 5 0;
#X connect 5 0 13 0;
#X connect 5 0 6 0;
#X connect 6 0 7 0;
#X connect 7 0 14 0;
#X connect 7 0 8 0;
#X connect 8 0 9 0;
#X connect 9 0 10 0;
#X connect 10 0 11 0;
#X connect 11 0 12 0;
#X connect 12 0 15 0;
#X connect 13 0 4 1;
#X connect 14 0 6 1;
#X connect 15 0 16 0;
#X connect 16 0 0 0;
#X coords 0 -1 1 1 55 35 1 100 100;
