#N canvas 939 469 450 300 10;
#X obj 168 74 metro 1000;
#X obj 168 51 tgl 15 0 empty empty empty 17 7 0 10 -262144 -1 -1 1
1;
#X obj 104 86 gemhead;
#X obj 104 121 t a b;
#X obj 169 153 + 1;
#X obj 132 153 f 0;
#X obj 132 189 v framerate;
#X obj 168 101 t b b;
#X msg 168 125 0;
#X floatatom 132 213 5 0 0 0 - - -;
#X obj 130 252 print;
#X connect 0 0 7 0;
#X connect 1 0 0 0;
#X connect 2 0 3 0;
#X connect 3 1 5 0;
#X connect 4 0 5 1;
#X connect 5 0 4 0;
#X connect 5 0 6 0;
#X connect 6 0 9 0;
#X connect 7 0 8 0;
#X connect 7 1 6 0;
#X connect 8 0 5 1;
#X connect 9 0 10 0;
