#N canvas 599 328 599 343 10;
#X obj 22 118 gemframebuffer;
#X obj 38 71 loadbang;
#X obj 22 141 translateXYZ 0 0 -4;
#X obj 22 184 outlet;
#X obj 103 185 outlet;
#X msg 36 12 set \$1;
#X obj 36 -80 r gemlayer;
#X obj 36 -58 sel 0 1;
#X msg 36 -34 99999;
#X msg 38 92 dimen 1000 1000 \, format RGBA \, color 1 1 1 0;
#X msg 55 -10 -6;
#X floatatom 89 0 5 0 0 0 - - -;
#X obj 22 38 gemhead;
#X connect 0 0 2 0;
#X connect 0 1 4 0;
#X connect 1 0 9 0;
#X connect 2 0 3 0;
#X connect 6 0 7 0;
#X connect 7 0 8 0;
#X connect 7 1 10 0;
#X connect 8 0 5 0;
#X connect 9 0 0 0;
#X connect 10 0 5 0;
#X connect 11 0 5 0;
#X connect 12 0 0 0;
