#N canvas 599 328 599 343 10;
#X obj 22 118 gemframebuffer;
#X obj 38 71 loadbang;
#X obj 22 141 translateXYZ 0 0 -4;
#X obj 22 184 outlet;
#X obj 103 185 outlet;
#X obj 22 38 gemhead -1;
#X msg 38 92 dimen 1000 1000 \, format RGBA \, color 1 1 1 0;
#X connect 0 0 2 0;
#X connect 0 1 4 0;
#X connect 1 0 6 0;
#X connect 2 0 3 0;
#X connect 5 0 0 0;
#X connect 6 0 0 0;
