#N canvas 140 101 1094 531 10;
#X obj 105 125 cnv 15 590 170 empty empty empty 20 12 0 14 -228856
-66577 0;
#X obj 643 213 metro 3000;
#X obj 643 192 tgl 15 0 empty empty empty 17 7 0 10 -99865 -258113
-258113 0 127;
#N canvas 556 216 199 242 (subpatch) 0;
#X obj -91 88 f;
#X obj -58 85 + 1;
#X obj -25 86 % 2;
#X obj -91 110 sel 0 1;
#X floatatom -93 170 5 0 0 0 - - -;
#X obj -93 197 outlet;
#X obj -91 29 inlet;
#X obj -91 55 metro 6000;
#X msg -93 135 0;
#X msg -65 135 10;
#X obj -1 86 sel 0 1;
#X connect 0 0 1 0;
#X connect 0 0 3 0;
#X connect 1 0 2 0;
#X connect 2 0 0 1;
#X connect 3 0 8 0;
#X connect 3 1 9 0;
#X connect 4 0 5 0;
#X connect 6 0 7 0;
#X connect 6 0 10 0;
#X connect 7 0 0 0;
#X connect 8 0 4 0;
#X connect 9 0 4 0;
#X connect 10 0 8 0;
#X connect 10 1 9 0;
#X restore 90 213 pd 1;
#N canvas 613 218 527 275 (subpatch) 0;
#X obj -142 -99 link \$0-link 0 1 0 200;
#X obj 6 -102 mass \$0-mass 10000 0;
#X msg -141 -132 setK 1 \, setD 0 \, setD2 30;
#X obj -141 -162 loadbang;
#X obj -198 -141 inlet;
#X obj 6 -69 outlet;
#X connect 0 1 1 0;
#X connect 1 0 0 1;
#X connect 1 0 5 0;
#X connect 2 0 0 0;
#X connect 3 0 2 0;
#X connect 4 0 0 0;
#X restore 90 236 pd 2;
#X obj 460 193 tgl 15 0 empty empty RO-X 0 -15 0 10 -258113 -1 -1 0
127;
#N canvas 217 315 562 454 color 0;
#X obj 115 284 outlet;
#X obj 105 72 inlet;
#X obj 157 74 inlet;
#X obj 212 72 inlet;
#X obj 165 185 t b f;
#X obj 232 185 t b f;
#X obj 113 235 pack 0 0 0;
#X obj 107 139 / 127;
#X obj 152 118 / 127;
#X obj 220 112 / 127;
#X floatatom 296 148 5 0 0 0 - - -;
#X connect 1 0 7 0;
#X connect 2 0 8 0;
#X connect 3 0 9 0;
#X connect 3 0 10 0;
#X connect 4 0 6 0;
#X connect 4 1 6 1;
#X connect 5 0 6 0;
#X connect 5 1 6 2;
#X connect 6 0 0 0;
#X connect 7 0 6 0;
#X connect 8 0 4 0;
#X connect 9 0 5 0;
#X coords 0 -1 1 1 30 30 2 100 100;
#X restore 728 172 pd color sliders;
#X obj 643 235 random 10;
#X obj 36 53 loadbang;
#N canvas 556 216 199 242 (subpatch) 0;
#X obj -91 88 f;
#X obj -58 85 + 1;
#X obj -25 86 % 2;
#X obj -91 110 sel 0 1;
#X floatatom -93 170 5 0 0 0 - - -;
#X obj -93 197 outlet;
#X obj -91 29 inlet;
#X msg -93 135 0;
#X msg -65 135 360;
#X obj 2 88 sel 0 1;
#X obj -91 55 metro 3000;
#X connect 0 0 1 0;
#X connect 0 0 3 0;
#X connect 1 0 2 0;
#X connect 2 0 0 1;
#X connect 3 0 7 0;
#X connect 3 1 8 0;
#X connect 4 0 5 0;
#X connect 6 0 9 0;
#X connect 6 0 10 0;
#X connect 7 0 4 0;
#X connect 8 0 4 0;
#X connect 9 0 7 0;
#X connect 9 1 8 0;
#X connect 10 0 0 0;
#X restore 578 211 pd 1;
#N canvas 613 218 527 275 (subpatch) 0;
#X obj -142 -99 link \$0-link 0 1 0 200;
#X obj 6 -102 mass \$0-mass 10000 0;
#X msg -141 -132 setK 1 \, setD 0 \, setD2 30;
#X obj -141 -162 loadbang;
#X obj -198 -141 inlet;
#X obj 6 -69 outlet;
#X obj 56 -70 s a2_3;
#X connect 0 1 1 0;
#X connect 1 0 0 1;
#X connect 1 0 5 0;
#X connect 1 0 6 0;
#X connect 2 0 0 0;
#X connect 3 0 2 0;
#X connect 4 0 0 0;
#X restore 578 235 pd 2;
#N canvas 556 216 199 242 (subpatch) 0;
#X obj -91 88 f;
#X obj -58 85 + 1;
#X obj -25 86 % 2;
#X obj -91 110 sel 0 1;
#X floatatom -93 170 5 0 0 0 - - -;
#X obj -93 197 outlet;
#X obj -91 29 inlet;
#X msg -93 135 0;
#X msg -65 135 360;
#X obj 5 89 sel 0 1;
#X obj -91 55 metro 3000;
#X connect 0 0 1 0;
#X connect 0 0 3 0;
#X connect 1 0 2 0;
#X connect 2 0 0 1;
#X connect 3 0 7 0;
#X connect 3 1 8 0;
#X connect 4 0 5 0;
#X connect 6 0 9 0;
#X connect 6 0 10 0;
#X connect 7 0 4 0;
#X connect 8 0 4 0;
#X connect 9 0 7 0;
#X connect 9 1 8 0;
#X connect 10 0 0 0;
#X restore 512 213 pd 1;
#N canvas 613 218 527 275 (subpatch) 0;
#X obj -142 -99 link \$0-link 0 1 0 200;
#X obj 6 -102 mass \$0-mass 10000 0;
#X msg -141 -132 setK 1 \, setD 0 \, setD2 30;
#X obj -141 -162 loadbang;
#X obj -198 -141 inlet;
#X obj 6 -69 outlet;
#X obj 76 -8 s a2_2;
#X obj 76 -71 abs;
#X obj 76 -49 / 2;
#X obj 76 -30 + 100;
#X connect 0 1 1 0;
#X connect 1 0 0 1;
#X connect 1 0 5 0;
#X connect 1 0 7 0;
#X connect 2 0 0 0;
#X connect 3 0 2 0;
#X connect 4 0 0 0;
#X connect 7 0 8 0;
#X connect 8 0 9 0;
#X connect 9 0 6 0;
#X restore 512 236 pd 2;
#N canvas 556 216 199 242 (subpatch) 0;
#X obj -91 88 f;
#X obj -58 85 + 1;
#X obj -25 86 % 2;
#X obj -91 110 sel 0 1;
#X floatatom -93 170 5 0 0 0 - - -;
#X obj -93 197 outlet;
#X obj -91 29 inlet;
#X msg -93 135 0;
#X msg -65 135 360;
#X obj -14 56 sel 0 1;
#X obj -91 55 metro 3000;
#X connect 0 0 1 0;
#X connect 0 0 3 0;
#X connect 1 0 2 0;
#X connect 2 0 0 1;
#X connect 3 0 7 0;
#X connect 3 1 8 0;
#X connect 4 0 5 0;
#X connect 6 0 9 0;
#X connect 6 0 10 0;
#X connect 7 0 4 0;
#X connect 8 0 4 0;
#X connect 9 0 7 0;
#X connect 9 1 8 0;
#X connect 10 0 0 0;
#X restore 449 214 pd 1;
#N canvas 613 218 527 275 (subpatch) 0;
#X obj -142 -99 link \$0-link 0 1 0 200;
#X obj 6 -102 mass \$0-mass 10000 0;
#X msg -141 -132 setK 1 \, setD 0 \, setD2 30;
#X obj -141 -162 loadbang;
#X obj -198 -141 inlet;
#X obj 6 -69 outlet;
#X obj 52 1 s a2_1;
#X obj 52 -67 abs;
#X obj 52 -44 * 4;
#X obj 52 -21 + 200;
#X connect 0 1 1 0;
#X connect 1 0 0 1;
#X connect 1 0 5 0;
#X connect 1 0 7 0;
#X connect 2 0 0 0;
#X connect 3 0 2 0;
#X connect 4 0 0 0;
#X connect 7 0 8 0;
#X connect 8 0 9 0;
#X connect 9 0 6 0;
#X restore 449 237 pd 2;
#X obj 121 139 knob 30 30 0 127 0 0 empty empty empty 0 -8 0 10 -1
-258113 -258113 1585 1;
#X obj 126 193 vsl 15 60 0 10 0 0 empty empty x 0 -9 0 10 -257985 -1
-1 0 1;
#X obj 107 191 tgl 15 0 empty empty empty 17 7 0 10 -262144 -258113
-1 0 127;
#X obj 196 139 knob 30 30 0 127 0 0 empty empty empty 0 -8 0 10 -4034
-4034 -258113 285 1;
#X obj 200 193 vsl 15 60 0 10 0 0 empty empty y 0 -9 0 10 -257985 -1
-1 0 1;
#X obj 182 191 tgl 15 0 empty empty empty 17 7 0 10 -262144 -258113
-1 127 127;
#X obj 272 140 knob 30 30 0 127 0 0 empty empty empty 0 -8 0 10 -1
-4160 -258113 2000 1;
#X obj 276 193 vsl 15 60 0 10 0 0 empty empty z 0 -9 0 10 -257985 -1
-1 5900 1;
#X obj 256 191 tgl 15 0 empty empty empty 17 7 0 10 -262144 -258113
-1 127 127;
#X obj 338 139 knob 30 30 0 1 0 0 empty empty empty 0 -8 0 10 -128992
-128992 -258113 1800 1;
#X obj 343 193 vsl 15 60 0 360 0 0 empty empty movie 0 -9 0 10 -262144
-1 -1 3000 1;
#X obj 325 191 tgl 15 0 empty empty empty 17 7 0 10 -262144 -258113
-1 0 127;
#X obj 414 195 vsl 15 60 0 10 0 0 empty empty size 0 -9 0 10 -262144
-1 -1 1600 1;
#X obj 393 193 tgl 15 0 empty empty empty 17 7 0 10 -262144 -258113
-1 0 127;
#N canvas 556 216 199 242 (subpatch) 0;
#X obj -91 88 f;
#X obj -58 85 + 1;
#X obj -25 86 % 2;
#X obj -91 110 sel 0 1;
#X floatatom -93 170 5 0 0 0 - - -;
#X obj -93 197 outlet;
#X obj -91 29 inlet;
#X obj -91 55 metro 6000;
#X msg -93 135 0;
#X msg -65 135 10;
#X obj 8 86 sel 0 1;
#X connect 0 0 1 0;
#X connect 0 0 3 0;
#X connect 1 0 2 0;
#X connect 2 0 0 1;
#X connect 3 0 8 0;
#X connect 3 1 9 0;
#X connect 4 0 5 0;
#X connect 6 0 7 0;
#X connect 6 0 10 0;
#X connect 7 0 0 0;
#X connect 8 0 4 0;
#X connect 9 0 4 0;
#X connect 10 0 8 0;
#X connect 10 1 9 0;
#X restore 164 212 pd 1;
#N canvas 613 218 527 275 (subpatch) 0;
#X obj -142 -99 link \$0-link 0 1 0 200;
#X obj 6 -102 mass \$0-mass 10000 0;
#X msg -141 -132 setK 1 \, setD 0 \, setD2 30;
#X obj -141 -162 loadbang;
#X obj -198 -141 inlet;
#X obj 6 -69 outlet;
#X connect 0 1 1 0;
#X connect 1 0 0 1;
#X connect 1 0 5 0;
#X connect 2 0 0 0;
#X connect 3 0 2 0;
#X connect 4 0 0 0;
#X restore 164 237 pd 2;
#N canvas 556 216 199 242 (subpatch) 0;
#X obj -91 88 f;
#X obj -58 85 + 1;
#X obj -25 86 % 2;
#X obj -91 110 sel 0 1;
#X floatatom -93 170 5 0 0 0 - - -;
#X obj -93 197 outlet;
#X obj -91 29 inlet;
#X obj -91 55 metro 6000;
#X msg -93 135 0;
#X msg -65 135 10;
#X obj 6 88 sel 0 1;
#X connect 0 0 1 0;
#X connect 0 0 3 0;
#X connect 1 0 2 0;
#X connect 2 0 0 1;
#X connect 3 0 8 0;
#X connect 3 1 9 0;
#X connect 4 0 5 0;
#X connect 6 0 7 0;
#X connect 6 0 10 0;
#X connect 7 0 0 0;
#X connect 8 0 4 0;
#X connect 9 0 4 0;
#X connect 10 0 8 0;
#X connect 10 1 9 0;
#X restore 240 212 pd 1;
#N canvas 613 218 527 275 (subpatch) 0;
#X obj -142 -99 link \$0-link 0 1 0 200;
#X obj 6 -102 mass \$0-mass 10000 0;
#X msg -141 -132 setK 1 \, setD 0 \, setD2 30;
#X obj -141 -162 loadbang;
#X obj -198 -141 inlet;
#X obj 6 -69 outlet;
#X obj 85 0 s a3_3;
#X obj 86 -63 abs;
#X obj 86 -41 * 16;
#X obj 86 -22 + 20;
#X connect 0 1 1 0;
#X connect 1 0 0 1;
#X connect 1 0 5 0;
#X connect 1 0 7 0;
#X connect 2 0 0 0;
#X connect 3 0 2 0;
#X connect 4 0 0 0;
#X connect 7 0 8 0;
#X connect 8 0 9 0;
#X connect 9 0 6 0;
#X restore 240 236 pd 2;
#N canvas 556 216 244 358 (subpatch) 0;
#X obj -91 88 f;
#X obj -58 85 + 1;
#X obj -25 86 % 2;
#X obj -91 110 sel 0 1;
#X floatatom -93 170 5 0 0 0 - - -;
#X obj -94 198 outlet;
#X obj -91 29 inlet;
#X obj -91 55 metro 6000;
#X msg -93 135 0;
#X msg -65 135 360;
#X obj -13 52 sel 0 1;
#X connect 0 0 1 0;
#X connect 0 0 3 0;
#X connect 1 0 2 0;
#X connect 2 0 0 1;
#X connect 3 0 8 0;
#X connect 3 1 9 0;
#X connect 4 0 5 0;
#X connect 6 0 7 0;
#X connect 6 0 10 0;
#X connect 7 0 0 0;
#X connect 8 0 4 0;
#X connect 9 0 4 0;
#X connect 10 0 8 0;
#X connect 10 1 9 0;
#X restore 307 214 pd 1;
#N canvas 613 218 527 275 (subpatch) 0;
#X obj -142 -99 link \$0-link 0 1 0 200;
#X obj 6 -102 mass \$0-mass 10000 0;
#X msg -141 -132 setK 1 \, setD 0 \, setD2 30;
#X obj -141 -162 loadbang;
#X obj -198 -141 inlet;
#X obj 6 -69 outlet;
#X obj 61 -69 abs;
#X obj 61 -46 / 7200;
#X obj 60 -17 + 0;
#X connect 0 1 1 0;
#X connect 1 0 0 1;
#X connect 1 0 5 0;
#X connect 1 0 6 0;
#X connect 2 0 0 0;
#X connect 3 0 2 0;
#X connect 4 0 0 0;
#X connect 6 0 7 0;
#X connect 7 0 8 0;
#X restore 307 238 pd 2;
#N canvas 556 216 368 387 (subpatch) 0;
#X obj -91 88 f;
#X obj -58 85 + 1;
#X obj -25 86 % 2;
#X obj -91 110 sel 0 1;
#X floatatom -93 170 5 0 0 0 - - -;
#X obj -93 197 outlet;
#X obj -91 29 inlet;
#X msg -93 135 0;
#X obj -91 55 metro 2000;
#X msg -65 135 10;
#X obj 43 86 sel 0 1;
#X obj -3 135 s bbbb;
#X connect 0 0 1 0;
#X connect 0 0 3 0;
#X connect 1 0 2 0;
#X connect 2 0 0 1;
#X connect 3 0 7 0;
#X connect 3 1 9 0;
#X connect 4 0 5 0;
#X connect 6 0 8 0;
#X connect 6 0 10 0;
#X connect 7 0 4 0;
#X connect 8 0 0 0;
#X connect 8 0 11 0;
#X connect 9 0 4 0;
#X connect 10 0 7 0;
#X connect 10 1 9 0;
#X restore 378 214 pd 1;
#N canvas 613 218 527 275 (subpatch) 0;
#X obj -142 -99 link \$0-link 0 1 0 200;
#X msg -141 -132 setK 1 \, setD 0 \, setD2 30;
#X obj -141 -162 loadbang;
#X obj -198 -141 inlet;
#X obj 6 -69 outlet;
#X obj 124 12 s a6;
#X obj 124 -31 / 150;
#X obj 124 -10 abs;
#X obj 6 -102 mass \$0-mass 5000 0;
#X connect 0 1 8 0;
#X connect 1 0 0 0;
#X connect 2 0 1 0;
#X connect 3 0 0 0;
#X connect 6 0 7 0;
#X connect 7 0 5 0;
#X connect 8 0 0 1;
#X connect 8 0 4 0;
#X connect 8 0 6 0;
#X restore 379 241 pd 2;
#X obj 121 -98 ctlin 94;
#X obj 196 -22 ctlin 95;
#X obj 272 -20 ctlin 96;
#X obj 126 -8 ctlin 85;
#X obj 200 -104 ctlin 86;
#X obj 276 -87 ctlin 87;
#X obj 343 -22 ctlin 88;
#X obj 414 -37 ctlin 89;
#N canvas 0 22 290 227 c 0;
#X obj 135 61 inlet;
#X obj 134 107 / 127;
#X obj 134 141 * 10;
#X obj 133 172 outlet;
#X connect 0 0 1 0;
#X connect 1 0 2 0;
#X connect 2 0 3 0;
#X restore 126 12 pd c;
#X obj 107 -31 ctlin 107;
#X obj 181 -126 ctlin 108;
#X obj 256 -128 ctlin 109;
#X obj 325 -50 ctlin 110;
#X obj 393 -69 ctlin 111;
#X obj 123 269 cnv 15 25 25 empty empty 1 5 12 0 16 -1 -258113 0;
#N canvas 0 22 290 227 c 0;
#X obj 135 61 inlet;
#X obj 134 107 / 127;
#X obj 134 141 * 10;
#X obj 133 172 outlet;
#X connect 0 0 1 0;
#X connect 1 0 2 0;
#X connect 2 0 3 0;
#X restore 200 -80 pd c;
#N canvas 0 22 290 227 c 0;
#X obj 135 61 inlet;
#X obj 134 107 / 127;
#X obj 134 141 * 10;
#X obj 133 172 outlet;
#X connect 0 0 1 0;
#X connect 1 0 2 0;
#X connect 2 0 3 0;
#X restore 276 -67 pd c;
#N canvas 0 22 290 227 c 0;
#X obj 135 61 inlet;
#X obj 134 107 / 127;
#X obj 133 172 outlet;
#X obj 134 141 * 360;
#X connect 0 0 1 0;
#X connect 1 0 3 0;
#X connect 3 0 2 0;
#X restore 343 1 pd c;
#N canvas 0 22 290 227 c 0;
#X obj 135 61 inlet;
#X obj 134 107 / 127;
#X obj 133 194 outlet;
#X obj 132 136 * 10;
#X connect 0 0 1 0;
#X connect 1 0 3 0;
#X connect 3 0 2 0;
#X restore 414 -14 pd c;
#X obj 480 195 vsl 15 60 0 1 0 0 empty empty x 0 -9 0 10 -260097 -1
-1 0 1;
#X obj 547 195 vsl 15 60 0 1 0 0 empty empty y 0 -9 0 10 -260097 -1
-1 1500 1;
#X obj 611 195 vsl 15 60 0 1 0 0 empty empty z 0 -9 0 10 -260097 -1
-1 0 1;
#X obj 528 192 tgl 15 0 empty empty RO-Y 0 -15 0 10 -258113 -1 -1 0
127;
#X obj 591 193 tgl 15 0 empty empty RO-Z 0 -15 0 10 -258113 -1 -1 0
127;
#X obj 591 -68 ctlin 114;
#X obj 528 -96 ctlin 113;
#X obj 460 -116 ctlin 112;
#X obj 663 195 vsl 15 60 0 10 0 1 empty empty zoom 0 -9 0 10 -99865
-1 -1 600 0;
#X obj 643 -27 ctlin 115;
#N canvas 141 49 290 227 c 0;
#X obj 135 61 inlet;
#X obj 134 107 / 127;
#X obj 133 194 outlet;
#X obj 134 141 * 10;
#X connect 0 0 1 0;
#X connect 1 0 3 0;
#X connect 3 0 2 0;
#X restore 663 19 pd c;
#X obj 663 -4 ctlin 93;
#N canvas 141 49 290 227 c 0;
#X obj 135 61 inlet;
#X obj 134 107 / 127;
#X obj 133 194 outlet;
#X connect 0 0 1 0;
#X connect 1 0 2 0;
#X restore 611 -104 pd c;
#X obj 611 -127 ctlin 92;
#N canvas 141 49 290 227 c 0;
#X obj 135 61 inlet;
#X obj 134 107 / 127;
#X obj 133 194 outlet;
#X connect 0 0 1 0;
#X connect 1 0 2 0;
#X restore 548 20 pd c;
#N canvas 141 49 290 227 c 0;
#X obj 135 61 inlet;
#X obj 134 107 / 127;
#X obj 133 194 outlet;
#X connect 0 0 1 0;
#X connect 1 0 2 0;
#X restore 480 -44 pd c;
#X obj 480 -67 ctlin 90;
#X obj 548 -3 ctlin 91;
#X obj 338 -137 ctlin 97;
#X obj 338 -98 / 127;
#X msg 36 102 30;
#N canvas 462 60 978 749 group_sphere_rotate=========================================
1;
#X floatatom 575 -478 5 0 0 0 - - -;
#X obj 578 -500 hsl 30 15 0 1 0 0 empty empty empty -2 -8 0 10 -262144
-1 -1 1800 1;
#X obj 575 -522 line;
#N canvas 0 22 268 186 stuff 0;
#X obj 13 20 loadbang;
#X obj 48 97 s \$0-link;
#X obj 13 72 t b b;
#X obj 13 123 s \$0-mass;
#X obj 13 45 metro 5;
#X obj 89 20 bng 15 250 50 0 empty empty empty 0 -6 0 8 -262144 -1
-1;
#X msg 124 92 reset;
#X msg 89 66 resetL \, resetF;
#X obj 89 40 t b b;
#X connect 0 0 4 0;
#X connect 2 0 3 0;
#X connect 2 1 1 0;
#X connect 4 0 2 0;
#X connect 5 0 8 0;
#X connect 6 0 3 0;
#X connect 7 0 1 0;
#X connect 8 0 7 0;
#X connect 8 1 6 0;
#X restore 541 -608 pd stuff;
#X obj 201 -414 t a b;
#X obj 201 -386 separator;
#X obj 228 -360 f;
#X obj 260 -360 + 1;
#X obj 201 -85 colorRGB 0 0 0 0;
#X obj 224 -113 unpack f f f;
#X obj 201 4 alpha;
#X obj 201 30 translateXYZ 0 0 0;
#X obj 201 -177 t a b;
#X obj 42 -204 f;
#X obj 70 -204 + 1;
#X obj 201 -225 translateXYZ 0 0 0;
#X obj 228 -316 expr ($f1*3.1415926)*2;
#X obj 228 -286 sin;
#X obj 228 -263 * 1;
#X obj 258 -263 * 1;
#X obj 258 -286 cos;
#X floatatom 286 -287 5 0.1 2 0 - - -;
#X obj 201 -202 repeat 5;
#X obj 42 -174 / 100;
#X obj 201 -476 repeat 2;
#X obj 295 -360 % 2;
#X obj 228 -339 / 2;
#X obj 97 -204 % 100;
#X floatatom 103 -504 5 1 100 0 - - -;
#X obj 124 -319 *;
#X floatatom 146 -364 5 1 100 0 - - -;
#X obj 103 -531 i;
#X obj 146 -388 i;
#X obj 321 -48 * 360;
#X obj 201 58 rotateXYZ 0 0 0;
#X floatatom 765 -534 5 0 0 0 - - -;
#N canvas 613 218 527 275 mass 0;
#X obj -142 -99 link \$0-link 0 1 0 200;
#X obj 6 -102 mass \$0-mass 10000 0;
#X msg -141 -132 setK 1 \, setD 0 \, setD2 30;
#X obj -141 -162 loadbang;
#X obj -198 -141 inlet;
#X obj 6 -69 outlet;
#X connect 0 1 1 0;
#X connect 1 0 0 1;
#X connect 1 0 5 0;
#X connect 2 0 0 0;
#X connect 3 0 2 0;
#X connect 4 0 0 0;
#X restore 765 -515 pd mass;
#X obj 765 -567 inlet;
#X obj 765 -493 abs;
#X msg 52 35 draw point;
#X obj 201 -518 rotateXYZ 0 0 0;
#X obj 231 -57 loadbang;
#X msg 227 -29 1;
#X obj 335 -382 bng 15 250 50 0 b_sound empty empty 17 7 0 10 -262144
-1 -1;
#X obj 201 90 circle 1;
#X obj 42 -151 expr abs($f1-0.5)*$f2;
#X obj 452 -571 inlet;
#X obj 42 -122 / 4;
#X obj 201 -145 rotateXYZ 10 0 0;
#X obj 51 2 loadbang;
#X msg 575 -545 \$1 1000;
#X obj 201 -444 rotateXYZ 0 0 0;
#X obj 452 -541 abs;
#X obj 103 -558 inlet;
#X obj 230 -597 inlet;
#X obj 259 -627 inlet;
#X obj 288 -599 inlet;
#X obj 339 -570 inlet;
#X obj 377 -570 inlet;
#X obj 413 -570 inlet;
#X obj 494 -571 inlet;
#X obj 575 -567 inlet;
#X obj 536 -569 inlet;
#X obj 638 -565 inlet;
#X obj 680 -566 inlet;
#X obj 723 -566 inlet;
#X obj 146 -414 inlet;
#X obj 191 -563 gemhead;
#X connect 0 0 8 4;
#X connect 1 0 0 0;
#X connect 2 0 1 0;
#X connect 4 0 5 0;
#X connect 4 1 6 0;
#X connect 4 1 43 0;
#X connect 5 0 15 0;
#X connect 6 0 7 0;
#X connect 6 0 26 0;
#X connect 7 0 25 0;
#X connect 8 0 10 0;
#X connect 9 0 8 1;
#X connect 9 1 8 2;
#X connect 9 2 8 3;
#X connect 10 0 11 0;
#X connect 11 0 34 0;
#X connect 12 0 48 0;
#X connect 12 1 13 0;
#X connect 13 0 14 0;
#X connect 13 0 23 0;
#X connect 14 0 27 0;
#X connect 15 0 22 0;
#X connect 16 0 17 0;
#X connect 16 0 20 0;
#X connect 17 0 18 0;
#X connect 18 0 15 1;
#X connect 19 0 15 2;
#X connect 20 0 19 0;
#X connect 21 0 18 1;
#X connect 21 0 19 1;
#X connect 22 0 12 0;
#X connect 23 0 33 0;
#X connect 23 0 45 0;
#X connect 24 0 51 0;
#X connect 25 0 6 1;
#X connect 26 0 16 0;
#X connect 27 0 13 1;
#X connect 28 0 25 1;
#X connect 28 0 26 1;
#X connect 28 0 24 1;
#X connect 28 0 29 0;
#X connect 29 0 27 1;
#X connect 29 0 23 1;
#X connect 30 0 22 1;
#X connect 30 0 29 1;
#X connect 31 0 28 0;
#X connect 32 0 30 0;
#X connect 33 0 34 1;
#X connect 34 0 44 0;
#X connect 35 0 36 0;
#X connect 36 0 38 0;
#X connect 37 0 35 0;
#X connect 38 0 21 0;
#X connect 39 0 44 0;
#X connect 40 0 24 0;
#X connect 41 0 42 0;
#X connect 42 0 10 1;
#X connect 45 0 47 0;
#X connect 46 0 52 0;
#X connect 47 0 44 1;
#X connect 48 0 8 0;
#X connect 49 0 39 0;
#X connect 50 0 2 0;
#X connect 51 0 4 0;
#X connect 52 0 45 1;
#X connect 53 0 31 0;
#X connect 54 0 40 1;
#X connect 55 0 40 2;
#X connect 56 0 40 3;
#X connect 57 0 51 1;
#X connect 58 0 51 2;
#X connect 59 0 51 3;
#X connect 60 0 48 1;
#X connect 61 0 50 0;
#X connect 62 0 9 0;
#X connect 63 0 11 1;
#X connect 64 0 11 2;
#X connect 65 0 11 3;
#X connect 66 0 32 0;
#X connect 67 0 40 0;
#X restore 264 337 pd group_sphere_rotate=========================================
;
#X msg 67 102 0.3;
#X obj 36 75 t b b;
#X obj 426 25 loadbang;
#X obj 426 47 t b b;
#X msg 426 70 100;
#X msg 453 69 40;
#X floatatom 426 136 5 1 100 0 - - -;
#X floatatom 469 135 5 1 40 0 - - -;
#X obj 200 269 cnv 15 25 25 empty empty 2 5 12 0 16 -1 -258113 0;
#X obj 275 269 cnv 15 25 25 empty empty 3 5 12 0 16 -1 -258113 0;
#X obj 343 268 cnv 15 25 25 empty empty 4 5 12 0 16 -1 -258113 0;
#X obj 414 268 cnv 15 25 25 empty empty 5 5 12 0 16 -1 -258113 0;
#X obj 480 268 cnv 15 25 25 empty empty 6 5 12 0 16 -1 -258113 0;
#X obj 548 269 cnv 15 25 25 empty empty 7 5 12 0 16 -1 -258113 0;
#X obj 611 268 cnv 15 25 25 empty empty 8 5 12 0 16 -1 -258113 0;
#X obj 663 268 cnv 15 25 25 empty empty 9 5 12 0 16 -1 -258113 0;
#X connect 1 0 7 0;
#X connect 2 0 1 0;
#X connect 3 0 16 0;
#X connect 4 0 77 5;
#X connect 5 0 13 0;
#X connect 6 0 77 10;
#X connect 7 0 64 0;
#X connect 8 0 79 0;
#X connect 9 0 10 0;
#X connect 10 0 77 4;
#X connect 11 0 12 0;
#X connect 12 0 77 3;
#X connect 13 0 14 0;
#X connect 14 0 77 2;
#X connect 15 0 6 0;
#X connect 16 0 4 0;
#X connect 17 0 3 0;
#X connect 18 0 6 1;
#X connect 19 0 30 0;
#X connect 20 0 29 0;
#X connect 21 0 6 2;
#X connect 22 0 32 0;
#X connect 23 0 31 0;
#X connect 24 0 77 11;
#X connect 25 0 34 0;
#X connect 26 0 33 0;
#X connect 27 0 36 0;
#X connect 28 0 35 0;
#X connect 29 0 19 0;
#X connect 30 0 77 6;
#X connect 31 0 22 0;
#X connect 32 0 77 7;
#X connect 33 0 25 0;
#X connect 34 0 77 9;
#X connect 35 0 27 0;
#X connect 36 0 77 8;
#X connect 37 0 15 0;
#X connect 38 0 18 0;
#X connect 39 0 21 0;
#X connect 40 0 45 0;
#X connect 41 0 52 0;
#X connect 42 0 53 0;
#X connect 43 0 54 0;
#X connect 44 0 55 0;
#X connect 45 0 16 0;
#X connect 46 0 17 0;
#X connect 47 0 20 0;
#X connect 48 0 23 0;
#X connect 49 0 26 0;
#X connect 50 0 28 0;
#X connect 52 0 19 0;
#X connect 53 0 22 0;
#X connect 54 0 25 0;
#X connect 55 0 27 0;
#X connect 56 0 77 12;
#X connect 57 0 77 13;
#X connect 58 0 77 14;
#X connect 59 0 11 0;
#X connect 60 0 9 0;
#X connect 61 0 60 0;
#X connect 62 0 59 0;
#X connect 63 0 5 0;
#X connect 64 0 77 15;
#X connect 65 0 2 0;
#X connect 66 0 64 0;
#X connect 67 0 66 0;
#X connect 68 0 58 0;
#X connect 69 0 68 0;
#X connect 70 0 57 0;
#X connect 71 0 56 0;
#X connect 72 0 71 0;
#X connect 73 0 70 0;
#X connect 74 0 75 0;
#X connect 75 0 24 0;
#X connect 76 0 15 0;
#X connect 76 0 18 0;
#X connect 76 0 21 0;
#X connect 78 0 24 0;
#X connect 79 0 76 0;
#X connect 79 1 78 0;
#X connect 80 0 81 0;
#X connect 81 0 82 0;
#X connect 81 1 83 0;
#X connect 82 0 84 0;
#X connect 83 0 85 0;
#X connect 84 0 77 0;
#X connect 85 0 77 1;
#X coords 0 -1 1 1 600 200 1 100 100;
