#N canvas 0 22 488 347 10;
#X obj 100 119 grid grid1 240 0 240 180 0 180 1 1 1 10 10 257 390;
#N canvas 762 354 450 300 grid 0;
#X obj 100 91 inlet;
#X obj 230 88 inlet;
#X floatatom 100 116 5 0 0 0 - - -;
#X floatatom 230 113 5 0 0 0 - - -;
#X floatatom 230 156 5 0 0 0 - - -;
#X floatatom 100 164 5 0 0 0 - - -;
#X obj 100 140 expr ($f1/240)*$f2;
#X obj 230 136 expr (1-($f1/180))*$f2;
#X obj 163 60 v canvas-x;
#X obj 266 58 v canvas-y;
#X obj 163 36 t b b;
#X obj 163 10 loadbang;
#X obj 373 28 inlet;
#X obj 100 188 s grid-x;
#X obj 230 177 s grid-y;
#X connect 0 0 2 0;
#X connect 1 0 3 0;
#X connect 2 0 6 0;
#X connect 3 0 7 0;
#X connect 4 0 14 0;
#X connect 5 0 13 0;
#X connect 6 0 5 0;
#X connect 7 0 4 0;
#X connect 8 0 6 1;
#X connect 9 0 7 1;
#X connect 10 0 8 0;
#X connect 10 1 9 0;
#X connect 11 0 10 0;
#X connect 12 0 10 0;
#X restore 294 315 pd grid;
#X obj 323 102 bng 15 250 50 0 empty empty empty 17 7 0 10 -262144
-1 -1;
#X connect 0 0 1 0;
#X connect 0 1 1 1;
#X connect 2 0 1 2;
#X coords 0 -1 1 1 240 200 1 100 100;
