#N canvas 565 363 620 462 24;
#X obj 132 257 hcs/sys_gui;
#X msg 65 129 set atom_box_fill yellow;
#X msg 137 205 set obj_box_fill pink;
#X msg 95 162 set msg_box_fill skyblue;
#X obj 65 -14 loadbang;
#X obj 62 64 t b b b b;
#X obj 63 29 bng 15 250 50 0 empty empty empty 17 7 0 10 -262144 -1
-1;
#X msg 159 98 set canvas_fill Lavender;
#X connect 1 0 0 0;
#X connect 2 0 0 0;
#X connect 3 0 0 0;
#X connect 4 0 6 0;
#X connect 5 0 1 0;
#X connect 5 1 3 0;
#X connect 5 2 2 0;
#X connect 5 3 7 0;
#X connect 6 0 5 0;
#X connect 7 0 0 0;
