#N canvas 297 43 994 766 10;
#X obj 93 62 envgen 200 140 1 0  ;
#X obj 332 60 grid grid1 200 0 199 200 0 199 1 1 1 10 10 0 0;
#X text 90 225 [envgen];
#X text 328 273 [grid];
#X obj 92 343 filebrowser;
#X text 90 319 [filebrowser];
#X text 343 318 [image];
#X obj 414 433 image /Library/Pd/K-OBJ/mtv.gif;
#X msg 415 357 open \$1;
#X obj 415 313 bng 15 250 50 0 empty empty empty 0 -6 0 10 -4034 -1
-1;
#X obj 415 334 openpanel;
#X text 536 319 [k_key];
#X text 95 542 [audience~];
#X obj 98 578 audience~ 200 200 4 2 0.01 0 48 10 97 10 146 10 195 10
0 190 195 190;
#X obj 354 578 probalizer 200 200 5 100 1 0 36 1 73 2 54 3 88 4 45
;
#X text 347 549 [probalizer];
#X obj 538 356 k_piano;
#X obj 584 582 pianoroll pianoroll2 192 186 -15 15 31 16 0 0 1 0 1
0 1 0 1 0 1 0 1 0 1 0 1 0 1 0 1 0 1 0 1 0 1 0 1 0 1 0 1 0 1;
#X text 583 550 [pianoroll];
#X obj 611 140 entry 130 130 grey70 black;
#X obj 610 59 pdp_colorgrid pdp_colorgrid1 256 0 256 50 0 50 0 1 1
10 10 654 76;
#X obj 211 414 colorpanel;
#X obj 210 386 bng 15 250 50 0 empty empty empty 17 7 0 10 -262144
-1 -1;
#X obj 211 440 PRINT;
#X obj 777 377 Scope~ 130 130 256 3 128 -1 1 0 0 0 0 102 255 51 135
135 135 0;
#X text 776 332 [Scope~];
#X obj 244 341 popup 124 25 #ffffff popup option;
#X connect 8 0 7 0;
#X connect 9 0 10 0;
#X connect 10 0 8 0;
#X connect 21 0 23 0;
#X connect 22 0 21 0;
