#N canvas 0 22 450 300 10;
#X obj 174 106 random 2;
#X obj 171 144 sel 0 1;
#X obj 185 68 inlet;
#X msg 169 173 1;
#X msg 192 197 -1;
#X obj 169 224 outlet;
#X connect 0 0 1 0;
#X connect 1 0 3 0;
#X connect 1 1 4 0;
#X connect 2 0 0 0;
#X connect 3 0 5 0;
#X connect 4 0 5 0;
