#N canvas 0 22 450 300 10;
#X obj 162 188 k_invert;
#X obj 166 115 tgl 15 0 empty empty empty 17 7 0 10 -262144 -1 -1 1
1;
#X obj 162 156 t b b;
#X obj 224 189 k_random 5 15;
#X obj 179 224 *;
#X floatatom 175 250 5 0 0 0 - - -;
#X obj 167 89 loadbang;
#X obj 164 137 metro 200;
#X connect 0 0 4 0;
#X connect 1 0 7 0;
#X connect 2 0 0 0;
#X connect 2 1 3 0;
#X connect 3 0 4 1;
#X connect 4 0 5 0;
#X connect 6 0 1 0;
#X connect 7 0 2 0;
