#N canvas 399 268 450 300 10;
#X floatatom 196 138 5 0 0 0 - - -;
#X floatatom 261 138 5 0 0 0 - - -;
#X obj 196 113 inlet;
#X obj 261 112 inlet;
#X obj 132 167 expr $f1*($f3-$f2)+$f2;
#X obj 132 111 inlet;
#X obj 132 204 outlet;
#X connect 0 0 4 1;
#X connect 1 0 4 2;
#X connect 2 0 0 0;
#X connect 3 0 1 0;
#X connect 4 0 6 0;
#X connect 5 0 4 0;
