#N canvas 399 268 471 482 10;
#X obj 135 336 k_line;
#X obj 70 269 line;
#X obj 162 192 t b b b;
#X obj 180 226 random 5;
#X obj 179 253 + 5;
#X obj 233 248 random 10;
#X obj 232 275 + 10;
#X obj 164 133 tgl 15 0 empty empty empty 17 7 0 10 -262144 -1 -1 1
1;
#X msg 70 242 0 \, 1 1000;
#X floatatom 220 302 5 0 0 0 - - -, f 5;
#X floatatom 177 279 5 0 0 0 - - -, f 5;
#X floatatom 135 374 5 0 0 0 - - -, f 5;
#X obj 163 156 metro 2000;
#X obj 70 291 incirc;
#X connect 0 0 11 0;
#X connect 1 0 13 0;
#X connect 2 0 8 0;
#X connect 2 1 3 0;
#X connect 2 2 5 0;
#X connect 3 0 4 0;
#X connect 4 0 10 0;
#X connect 5 0 6 0;
#X connect 6 0 9 0;
#X connect 7 0 12 0;
#X connect 8 0 1 0;
#X connect 9 0 0 2;
#X connect 10 0 0 1;
#X connect 12 0 2 0;
#X connect 13 0 0 0;
