#N canvas 20 229 839 520 10;
#X text 17 17 ::angle::;
#X text 32 153 ::Spherical coordinate::;
#X obj 35 180 expr $f1*cos($f2)*cos($f3);
#X obj 35 202 expr $f1*sin($f2);
#X obj 35 225 expr $f1*sin($f2)*cos($f3);
#X text 33 252 $f1=radius \, $f2=theta \, $f3=phi;
#X obj 52 39 expr ($f1-$f2);
#X text 22 39 dx=;
#X obj 51 65 expr ($f1-$f2);
#X text 22 64 dy=;
#X text 148 65 $f1=Y1 \, $f2=Y2;
#X text 148 42 $f1=X1 \, $f2=X2;
#X obj 71 94 expr atan2($f1 \, $f2)*180/3.1415926;
#X text 28 95 angle=;
#X text 15 181 x=;
#X text 15 202 y=;
#X text 15 224 z=;
#X text 34 300 ::line::;
#X obj 38 328 expr ($f1-$f3)/($f2-$f4);
#X text 16 327 m=;
#X obj 61 357 expr ($f1+$f3)/2 \; ($f2+$f4)/2 \;;
#X text 60 391 p(x \, y);
#X text 11 363 center=;
#X obj 52 423 expr $f2*($f1-$f3)+$f4;
#X text 10 422 line;
#X text 178 363 $f1=x1 \, $f2=y1 \, $f3=x2 \, $f4=y2;
#X text 193 327 $f1=x1 \, $f2=y1 \, $f3=x2 \, $f4=y2;
#X text 196 424 $f1=x \, m \, $f3=p(x) \, $f4=p(y);
#X text 50 443 y;
#X obj 386 16 bng 15 250 50 0 empty empty empty 17 7 0 10 -262144 -1
-1;
#X obj 386 464 bng 15 250 50 0 empty empty empty 17 7 0 10 -262144
-1 -1;
#X obj 448 94 expr sqrt(pow($f1 \, 2)+pow($f2 \, 2));
#X text 426 93 d=;
#X obj 454 42 expr ($f1-$f2);
#X text 424 42 dx=;
#X obj 453 68 expr ($f1-$f2);
#X text 424 67 dy=;
#X text 550 68 $f1=Y1 \, $f2=Y2;
#X text 550 45 $f1=X1 \, $f2=X2;
#X text 424 13 ::distance::;
#X obj 424 158 expr (atan($f1)-atan($f2))*180/3.1415926;
#X obj 424 178 t f f;
#X obj 451 200 + 180;
#X text 418 128 ::two line::;
#X text 541 180 $f1=lin1-m \, $f2=lin2-m;
#X text 288 94 $f1=dy \, $f2=dx;
#X connect 29 0 30 0;
#X connect 40 0 41 0;
#X connect 41 1 42 0;
