#N canvas 499 79 767 512 10;
#X obj 414 15 loadbang;
#X obj 366 77 gemframebuffer;
#X obj 366 207 t a b;
#X msg 393 229 0;
#X obj 366 147 t a b;
#X obj 366 100 translateXYZ 0 0 -4;
#X obj 366 182 pix_snap 0 0 512 512;
#X obj 366 280 pix_buffer \$0_temp 1;
#X obj 366 256 pix_buffer_write \$0_temp 1;
#X msg 414 51 format RGBA \, color 1 1 1 0 \, dimen 512 512 \, rectangle
0;
#X obj 62 236 glsl_program;
#X obj 62 170 glsl_fragment;
#X obj 86 91 loadbang;
#X msg 127 205 link \$1;
#X obj 205 227 f;
#X obj 132 257 t b b;
#X obj 268 228 f;
#X msg 204 250 tex_1 \$1;
#X msg 267 249 tex_2 \$1;
#X obj 246 133 inlet;
#X obj 300 133 inlet;
#X obj 62 347 pix_texture;
#X obj 92 297 loadbang;
#X obj 62 375 alpha;
#X obj 62 401 square 4;
#X obj 366 122 t a a;
#X obj 102 113 bng 15 250 50 0 empty empty empty 17 7 0 10 -262144
-1 -1;
#X msg 92 322 rectangle 0;
#X floatatom 246 163 5 0 0 0 - - -, f 5;
#X floatatom 295 168 5 0 0 0 - - -, f 5;
#X obj 150 71 inlet;
#X obj 164 383 pix_buffer_read \$0_temp 1;
#X obj 366 35 gemhead;
#X obj 164 408 outlet;
#X obj 218 409 outlet;
#X obj 163 358 t a b;
#X msg 225 360 0;
#X msg 86 136 open _glsl/mask.frag;
#X connect 0 0 9 0;
#X connect 1 0 5 0;
#X connect 1 1 34 0;
#X connect 2 0 8 0;
#X connect 2 1 3 0;
#X connect 3 0 8 1;
#X connect 4 0 6 0;
#X connect 4 1 6 0;
#X connect 5 0 25 0;
#X connect 6 0 2 0;
#X connect 9 0 1 0;
#X connect 10 0 21 0;
#X connect 10 1 15 0;
#X connect 11 0 10 0;
#X connect 11 1 13 0;
#X connect 12 0 37 0;
#X connect 13 0 10 0;
#X connect 14 0 17 0;
#X connect 15 0 14 0;
#X connect 15 1 16 0;
#X connect 16 0 18 0;
#X connect 17 0 10 0;
#X connect 18 0 10 0;
#X connect 19 0 28 0;
#X connect 20 0 29 0;
#X connect 21 0 23 0;
#X connect 22 0 27 0;
#X connect 23 0 24 0;
#X connect 25 0 4 0;
#X connect 25 1 11 0;
#X connect 26 0 37 0;
#X connect 27 0 21 0;
#X connect 28 0 14 1;
#X connect 29 0 16 1;
#X connect 30 0 35 0;
#X connect 31 0 33 0;
#X connect 32 0 1 0;
#X connect 35 0 31 0;
#X connect 35 1 36 0;
#X connect 36 0 31 1;
#X connect 37 0 11 0;
#X coords 0 -1 1 1 40 30 1 100 100;
