#N canvas 399 305 751 435 10;
#X obj 74 378 alpha;
#X obj 74 322 k_mask;
#X obj 74 356 pix_texture;
#X obj 73 240 gemhead 3000;
#X floatatom 147 405 5 0 0 0 - - -, f 5;
#X obj 241 308 gemwin;
#X msg 218 258 destroy;
#X msg 241 286 color 1 0 0 \, create \, 1;
#X obj 73 262 t a b b;
#X msg 91 287 1;
#X msg 127 287 7;
#X obj 202 354 loadbang;
#X msg 202 379 rectangle 0;
#X obj 74 401 square 4;
#X floatatom 477 85 5 0 0 0 - - -, f 5;
#X floatatom 312 66 5 0 0 0 - - -, f 5;
#X obj 313 44 k_texunit 1;
#X msg 314 22 _imgs/ink_1.png;
#X obj 234 82 gemhead;
#X obj 232 139 pix_texture;
#X obj 232 193 square 1;
#X obj 234 104 translateXYZ -3 0 0;
#X obj 394 89 gemhead;
#X obj 392 146 pix_texture;
#X obj 392 200 square 1;
#X obj 394 111 translateXYZ 3 0 0;
#X msg 477 36 _imgs/mask.png;
#X obj 477 58 k_texunit 7;
#X connect 0 0 13 0;
#X connect 1 0 2 0;
#X connect 1 1 4 0;
#X connect 2 0 0 0;
#X connect 3 0 8 0;
#X connect 6 0 5 0;
#X connect 7 0 5 0;
#X connect 8 0 1 0;
#X connect 8 1 9 0;
#X connect 8 2 10 0;
#X connect 9 0 1 1;
#X connect 10 0 1 2;
#X connect 11 0 12 0;
#X connect 12 0 2 0;
#X connect 14 0 23 1;
#X connect 15 0 19 1;
#X connect 16 0 15 0;
#X connect 17 0 16 0;
#X connect 18 0 21 0;
#X connect 19 0 20 0;
#X connect 21 0 19 0;
#X connect 22 0 25 0;
#X connect 23 0 24 0;
#X connect 25 0 23 0;
#X connect 26 0 27 0;
#X connect 27 0 14 0;
