#N canvas 355 143 480 328 10;
#X obj 123 23 f;
#X floatatom -75 6 5 0 0 0 - - -;
#X obj 69 179 expr if($f1>$f2 \, $f1 \, $f2);
#X floatatom 69 223 5 0 0 0 - - -;
#X floatatom 146 130 5 0 0 2 max - -;
#X msg 306 86 0;
#X floatatom -56 118 5 0 0 0 - - -;
#X obj -56 76 expr if($f1<$f2 \, $f1 \, $f2);
#X floatatom -56 52 5 0 0 0 - - -;
#X floatatom 184 130 5 0 0 2 min - -;
#X obj 69 202 change;
#X obj -56 97 change;
#X obj -75 30 t f f f b;
#X obj 152 23 + 1;
#X floatatom 106 130 5 0 0 2 count - -;
#X obj 253 64 sel 0;
#X obj 253 85 t b b;
#X msg 36 125 100;
#X floatatom -74 201 5 0 0 0 - - -;
#X obj 69 246 t f f;
#X obj -56 143 t f f;
#X obj -74 177 k_range 0 1 0 1;
#X obj 183 23 % 200;
#X obj 210 -4 init \$1;
#X obj -75 227 outlet;
#X obj -75 -23 inlet;
#X connect 0 0 13 0;
#X connect 0 0 14 0;
#X connect 1 0 12 0;
#X connect 2 0 10 0;
#X connect 3 0 19 0;
#X connect 4 0 2 1;
#X connect 5 0 4 0;
#X connect 6 0 20 0;
#X connect 7 0 11 0;
#X connect 8 0 7 0;
#X connect 9 0 7 1;
#X connect 10 0 3 0;
#X connect 11 0 6 0;
#X connect 12 0 21 0;
#X connect 12 1 8 0;
#X connect 12 2 2 0;
#X connect 12 3 0 0;
#X connect 13 0 22 0;
#X connect 14 0 15 0;
#X connect 15 0 16 0;
#X connect 16 0 17 0;
#X connect 16 1 5 0;
#X connect 17 0 9 0;
#X connect 18 0 24 0;
#X connect 19 0 21 2;
#X connect 19 1 4 0;
#X connect 20 0 21 1;
#X connect 20 1 9 0;
#X connect 21 0 18 0;
#X connect 22 0 0 1;
#X connect 23 0 22 1;
#X connect 25 0 1 0;
#X coords 0 -1 1 1 120 50 1 100 100;
