#N canvas 328 296 858 454 10;
#N canvas 616 320 450 300 red 0;
#N canvas 489 145 872 547 RGB_____________ 0;
#X obj 217 386 outlet;
#X obj 405 161 t b f;
#X obj 339 204 +;
#X obj 339 229 t b f;
#X obj 339 260 +;
#X obj 264 386 outlet;
#X obj 311 386 outlet;
#X obj 311 363 f;
#X obj 264 362 f;
#X obj 217 362 f;
#X obj 289 179 * -65536;
#X obj 339 139 * -256;
#X obj 405 139 * -1;
#X obj 339 291 - 1;
#X obj 210 213 t b b b b;
#X obj 338 -81 inlet;
#X obj 262 78 line;
#X msg 357 15 \$1 0;
#X obj 262 145 t b f;
#X obj 338 -11 t b f b;
#X floatatom 262 98 5 0 0 0 - - -;
#X floatatom 405 105 5 0 0 0 - - -;
#X floatatom 339 113 5 0 0 0 - - -;
#X floatatom 338 -57 5 0 0 0 - - -;
#X obj 262 121 int;
#X msg 377 44 0 0;
#X obj 339 66 line;
#X obj 339 88 int;
#X obj 210 184 del 10;
#X connect 1 0 2 0;
#X connect 1 1 2 1;
#X connect 2 0 3 0;
#X connect 3 0 4 0;
#X connect 3 1 4 1;
#X connect 4 0 13 0;
#X connect 7 0 6 0;
#X connect 8 0 5 0;
#X connect 9 0 0 0;
#X connect 10 0 4 0;
#X connect 11 0 2 0;
#X connect 12 0 1 0;
#X connect 13 0 9 0;
#X connect 13 0 8 0;
#X connect 13 0 7 0;
#X connect 14 0 9 0;
#X connect 14 1 8 0;
#X connect 14 2 7 0;
#X connect 14 3 13 0;
#X connect 15 0 23 0;
#X connect 16 0 20 0;
#X connect 17 0 16 0;
#X connect 18 0 28 0;
#X connect 18 1 10 0;
#X connect 19 1 17 0;
#X connect 19 2 25 0;
#X connect 20 0 24 0;
#X connect 21 0 12 0;
#X connect 22 0 11 0;
#X connect 23 0 19 0;
#X connect 24 0 18 0;
#X connect 25 0 26 0;
#X connect 26 0 27 0;
#X connect 27 0 21 0;
#X connect 27 0 22 0;
#X connect 28 0 14 0;
#X restore 22 183 pd RGB_____________;
#X obj 22 206 pack 0 0 0;
#X obj 22 151 inlet;
#X obj 22 269 outlet;
#X msg 22 237 color \$1 \$2 22;
#X connect 0 0 1 0;
#X connect 0 1 1 1;
#X connect 0 2 1 2;
#X connect 1 0 4 0;
#X connect 2 0 0 0;
#X connect 4 0 3 0;
#X restore 555 51 pd red;
#X obj 100 100 cnv 15 200 40 empty empty empty 20 12 0 14 -1 -66577
0;
#N canvas 616 320 450 300 white 0;
#N canvas 489 145 872 547 RGB_____________ 0;
#X obj 217 386 outlet;
#X obj 405 161 t b f;
#X obj 339 204 +;
#X obj 339 229 t b f;
#X obj 339 260 +;
#X obj 264 386 outlet;
#X obj 311 386 outlet;
#X obj 311 363 f;
#X obj 264 362 f;
#X obj 217 362 f;
#X obj 289 179 * -65536;
#X obj 338 153 * -256;
#X obj 405 139 * -1;
#X obj 339 291 - 1;
#X obj 210 213 t b b b b;
#X obj 242 -48 inlet;
#X obj 262 78 line;
#X msg 261 48 \$1 0;
#X obj 262 145 t b f;
#X obj 242 22 t b f b;
#X floatatom 262 98 5 0 0 0 - - -;
#X floatatom 242 -24 5 0 0 0 - - -;
#X obj 262 121 int;
#X obj 210 184 del 10;
#X connect 1 0 2 0;
#X connect 1 1 2 1;
#X connect 2 0 3 0;
#X connect 3 0 4 0;
#X connect 3 1 4 1;
#X connect 4 0 13 0;
#X connect 7 0 6 0;
#X connect 8 0 5 0;
#X connect 9 0 0 0;
#X connect 10 0 4 0;
#X connect 11 0 2 0;
#X connect 12 0 1 0;
#X connect 13 0 9 0;
#X connect 13 0 8 0;
#X connect 13 0 7 0;
#X connect 14 0 9 0;
#X connect 14 1 8 0;
#X connect 14 2 7 0;
#X connect 14 3 13 0;
#X connect 15 0 21 0;
#X connect 16 0 20 0;
#X connect 17 0 16 0;
#X connect 18 0 23 0;
#X connect 18 1 10 0;
#X connect 19 1 17 0;
#X connect 20 0 22 0;
#X connect 21 0 19 0;
#X connect 22 0 18 0;
#X connect 22 0 11 0;
#X connect 22 0 12 0;
#X connect 23 0 14 0;
#X restore 22 183 pd RGB_____________;
#X obj 22 206 pack 0 0 0;
#X obj 86 78 inlet;
#X obj 22 269 outlet;
#X msg 22 237 color \$1 \$2 22;
#X connect 0 0 1 0;
#X connect 0 1 1 1;
#X connect 0 2 1 2;
#X connect 1 0 4 0;
#X connect 2 0 0 0;
#X connect 4 0 3 0;
#X restore 113 74 pd white;
#X obj 113 4 * 255;
#N canvas 616 320 450 300 white 0;
#N canvas 489 145 872 547 RGB_____________ 0;
#X obj 217 386 outlet;
#X obj 405 161 t b f;
#X obj 339 204 +;
#X obj 339 229 t b f;
#X obj 339 260 +;
#X obj 264 386 outlet;
#X obj 311 386 outlet;
#X obj 311 363 f;
#X obj 264 362 f;
#X obj 217 362 f;
#X obj 289 179 * -65536;
#X obj 338 153 * -256;
#X obj 405 139 * -1;
#X obj 339 291 - 1;
#X obj 210 213 t b b b b;
#X obj 242 -48 inlet;
#X obj 262 78 line;
#X msg 261 48 \$1 0;
#X obj 262 145 t b f;
#X obj 242 22 t b f b;
#X floatatom 262 98 5 0 0 0 - - -;
#X floatatom 242 -24 5 0 0 0 - - -;
#X obj 262 121 int;
#X obj 210 184 del 10;
#X connect 1 0 2 0;
#X connect 1 1 2 1;
#X connect 2 0 3 0;
#X connect 3 0 4 0;
#X connect 3 1 4 1;
#X connect 4 0 13 0;
#X connect 7 0 6 0;
#X connect 8 0 5 0;
#X connect 9 0 0 0;
#X connect 10 0 4 0;
#X connect 11 0 2 0;
#X connect 12 0 1 0;
#X connect 13 0 9 0;
#X connect 13 0 8 0;
#X connect 13 0 7 0;
#X connect 14 0 9 0;
#X connect 14 1 8 0;
#X connect 14 2 7 0;
#X connect 14 3 13 0;
#X connect 15 0 21 0;
#X connect 16 0 20 0;
#X connect 17 0 16 0;
#X connect 18 0 23 0;
#X connect 18 1 10 0;
#X connect 19 1 17 0;
#X connect 20 0 22 0;
#X connect 21 0 19 0;
#X connect 22 0 18 0;
#X connect 22 0 11 0;
#X connect 22 0 12 0;
#X connect 23 0 14 0;
#X restore 22 183 pd RGB_____________;
#X obj 22 206 pack 0 0 0;
#X obj 86 78 inlet;
#X obj 22 269 outlet;
#X msg 22 237 color \$1 \$2 22;
#X connect 0 0 1 0;
#X connect 0 1 1 1;
#X connect 0 2 1 2;
#X connect 1 0 4 0;
#X connect 2 0 0 0;
#X connect 4 0 3 0;
#X restore 171 74 pd white;
#X obj 171 33 * 255;
#N canvas 616 320 450 300 white 0;
#N canvas 489 145 872 547 RGB_____________ 0;
#X obj 217 386 outlet;
#X obj 405 161 t b f;
#X obj 339 204 +;
#X obj 339 229 t b f;
#X obj 339 260 +;
#X obj 264 386 outlet;
#X obj 311 386 outlet;
#X obj 311 363 f;
#X obj 264 362 f;
#X obj 217 362 f;
#X obj 289 179 * -65536;
#X obj 338 153 * -256;
#X obj 405 139 * -1;
#X obj 339 291 - 1;
#X obj 210 213 t b b b b;
#X obj 242 -48 inlet;
#X obj 262 78 line;
#X msg 261 48 \$1 0;
#X obj 262 145 t b f;
#X obj 242 22 t b f b;
#X floatatom 262 98 5 0 0 0 - - -;
#X floatatom 242 -24 5 0 0 0 - - -;
#X obj 262 121 int;
#X obj 210 184 del 10;
#X connect 1 0 2 0;
#X connect 1 1 2 1;
#X connect 2 0 3 0;
#X connect 3 0 4 0;
#X connect 3 1 4 1;
#X connect 4 0 13 0;
#X connect 7 0 6 0;
#X connect 8 0 5 0;
#X connect 9 0 0 0;
#X connect 10 0 4 0;
#X connect 11 0 2 0;
#X connect 12 0 1 0;
#X connect 13 0 9 0;
#X connect 13 0 8 0;
#X connect 13 0 7 0;
#X connect 14 0 9 0;
#X connect 14 1 8 0;
#X connect 14 2 7 0;
#X connect 14 3 13 0;
#X connect 15 0 21 0;
#X connect 16 0 20 0;
#X connect 17 0 16 0;
#X connect 18 0 23 0;
#X connect 18 1 10 0;
#X connect 19 1 17 0;
#X connect 20 0 22 0;
#X connect 21 0 19 0;
#X connect 22 0 18 0;
#X connect 22 0 11 0;
#X connect 22 0 12 0;
#X connect 23 0 14 0;
#X restore 22 183 pd RGB_____________;
#X obj 22 206 pack 0 0 0;
#X obj 86 78 inlet;
#X obj 22 269 outlet;
#X msg 22 237 color \$1 \$2 22;
#X connect 0 0 1 0;
#X connect 0 1 1 1;
#X connect 0 2 1 2;
#X connect 1 0 4 0;
#X connect 2 0 0 0;
#X connect 4 0 3 0;
#X restore 314 10 pd white;
#X obj 314 -14 * 255;
#N canvas 616 320 450 300 white 0;
#N canvas 489 145 872 547 RGB_____________ 0;
#X obj 217 386 outlet;
#X obj 405 161 t b f;
#X obj 339 204 +;
#X obj 339 229 t b f;
#X obj 339 260 +;
#X obj 264 386 outlet;
#X obj 311 386 outlet;
#X obj 311 363 f;
#X obj 264 362 f;
#X obj 217 362 f;
#X obj 289 179 * -65536;
#X obj 338 153 * -256;
#X obj 405 139 * -1;
#X obj 339 291 - 1;
#X obj 210 213 t b b b b;
#X obj 242 -48 inlet;
#X obj 262 78 line;
#X msg 261 48 \$1 0;
#X obj 262 145 t b f;
#X obj 242 22 t b f b;
#X floatatom 262 98 5 0 0 0 - - -;
#X floatatom 242 -24 5 0 0 0 - - -;
#X obj 262 121 int;
#X obj 210 184 del 10;
#X connect 1 0 2 0;
#X connect 1 1 2 1;
#X connect 2 0 3 0;
#X connect 3 0 4 0;
#X connect 3 1 4 1;
#X connect 4 0 13 0;
#X connect 7 0 6 0;
#X connect 8 0 5 0;
#X connect 9 0 0 0;
#X connect 10 0 4 0;
#X connect 11 0 2 0;
#X connect 12 0 1 0;
#X connect 13 0 9 0;
#X connect 13 0 8 0;
#X connect 13 0 7 0;
#X connect 14 0 9 0;
#X connect 14 1 8 0;
#X connect 14 2 7 0;
#X connect 14 3 13 0;
#X connect 15 0 21 0;
#X connect 16 0 20 0;
#X connect 17 0 16 0;
#X connect 18 0 23 0;
#X connect 18 1 10 0;
#X connect 19 1 17 0;
#X connect 20 0 22 0;
#X connect 21 0 19 0;
#X connect 22 0 18 0;
#X connect 22 0 11 0;
#X connect 22 0 12 0;
#X connect 23 0 14 0;
#X restore 22 183 pd RGB_____________;
#X obj 22 206 pack 0 0 0;
#X obj 86 78 inlet;
#X obj 22 269 outlet;
#X msg 22 237 color \$1 \$2 22;
#X connect 0 0 1 0;
#X connect 0 1 1 1;
#X connect 0 2 1 2;
#X connect 1 0 4 0;
#X connect 2 0 0 0;
#X connect 4 0 3 0;
#X restore 411 52 pd white;
#X obj 411 28 * 255;
#X obj 555 26 * 255;
#X floatatom 114 -138 5 0 0 0 - - -;
#X obj 75 -231 inlet;
#X obj 195 -203 loadbang;
#X msg 195 -182 0;
#X obj 75 -176 moses 0;
#X obj 114 -103 t f f f f f;
#X obj 113 105 tgl 30 0 empty empty empty 17 7 0 10 -262144 -262144
-1 0 1;
#X obj 148 105 tgl 30 0 empty empty empty 17 7 0 10 -262144 -262144
-1 0 1;
#X obj 182 105 tgl 30 0 empty empty empty 17 7 0 10 -1 -1 -1 0 1;
#X obj 217 105 tgl 30 0 empty empty empty 17 7 0 10 -1 -1 -1 0 1;
#X obj 251 105 tgl 30 0 empty empty empty 17 7 0 10 -1 -1 -1 0 1;
#X obj 555 1 expr if($f1>=0.5 \, 1 \, 0);
#X obj 411 3 expr if($f1>=0.4 \, 1 \, 0);
#X obj 314 -38 expr if($f1>=0.3 \, 1 \, 0);
#X obj 171 3 expr if($f1>=0.2 \, 1 \, 0);
#X obj 113 -26 expr if($f1>=0.1 \, 1 \, 0);
#X connect 0 0 21 0;
#X connect 2 0 17 0;
#X connect 3 0 2 0;
#X connect 4 0 18 0;
#X connect 5 0 4 0;
#X connect 6 0 19 0;
#X connect 7 0 6 0;
#X connect 8 0 20 0;
#X connect 9 0 8 0;
#X connect 10 0 0 0;
#X connect 11 0 16 0;
#X connect 12 0 15 0;
#X connect 13 0 14 0;
#X connect 14 0 11 0;
#X connect 15 1 11 0;
#X connect 16 0 26 0;
#X connect 16 1 25 0;
#X connect 16 2 24 0;
#X connect 16 3 23 0;
#X connect 16 4 22 0;
#X connect 22 0 10 0;
#X connect 23 0 9 0;
#X connect 24 0 7 0;
#X connect 25 0 5 0;
#X connect 26 0 3 0;
#X coords 0 -1 1 1 200 40 1 100 100;
