#N canvas 355 22 823 553 10;
#X obj 103 114 cnv 15 104 104 empty empty empty 20 12 0 14 -191677
-66577 0;
#X obj 100 264 adc~;
#X floatatom 100 417 5 0 0 0 - - -;
#X floatatom 174 417 5 0 0 0 - - -;
#X obj 100 382 fiddle~ 1024 1 20 0;
#X floatatom 283 380 5 0 0 0 - - -;
#X obj 42 536 expr ($f1/100);
#X obj 42 488 moses 100;
#X msg 93 512 100;
#X obj 42 461 moses 10;
#X obj 174 528 expr ($f1/100);
#X obj 174 480 moses 100;
#X msg 225 471 100;
#X obj 174 453 moses 10;
#X obj 109 184 hsl 60 15 0 50 0 0 empty empty threshold -2 8 0 10 -262144
-1 -1 0 1;
#X obj 322 519 expr ($f1/100);
#X obj 38 75 loadbang;
#X obj 283 404 - 0;
#X obj 283 462 moses 0;
#X msg 38 97 0;
#X obj 106 22 tgl 15 0 empty empty empty 17 7 0 10 -262144 -1 -1 1
1;
#X floatatom 107 125 5 0 0 1 pitch-1 - -;
#X floatatom 107 146 5 0 0 1 pitch-2 - -;
#X floatatom 107 165 5 0 0 1 vol - -;
#X obj 106 84 v pitch-1;
#X obj 254 84 v pitch-2;
#X obj 190 85 v vol;
#X obj 106 -4 loadbang;
#X floatatom 350 279 5 0 0 0 - - -;
#X obj 283 427 *;
#X msg 313 148 \; pd dsp 1;
#X obj 313 127 loadbang;
#X obj -40 409 *~;
#X obj -115 438 throw~ micl;
#X obj -40 439 throw~ micr;
#X obj -115 400 *~;
#X obj -99 340 expr~ 1-($v1/50);
#X obj 350 371 expr 1-($f1/50);
#X obj 190 44 metro 10;
#X obj 106 44 metro 50;
#X obj 175 187 tgl 30 0 empty empty net 8 15 0 10 -258113 -1 -1 0 1
;
#X obj 109 202 hsl 60 15 1 4 0 0 empty empty gain -2 8 0 10 -262144
-1 -1 0 1;
#X obj 322 541 *;
#X obj -40 380 *~ 1;
#X obj -115 377 *~ 1;
#X floatatom 12 342 5 0 0 0 - - -;
#X obj 350 248 line;
#X obj 12 276 line;
#X msg 59 214 1;
#X obj -35 131 spigot;
#X obj -36 157 s vj-pitch-1;
#X obj -89 183 s vj-pitch-2;
#X obj -92 233 s vj-vol;
#X obj -89 161 spigot;
#X obj -92 211 spigot;
#X floatatom -5 102 5 0 0 0 - - -;
#X msg 350 226 \$1 1000;
#X msg 12 254 \$1 1000;
#X obj 99 297 *~ 0;
#X obj 133 296 *~ 0;
#X obj 170 296 *~ 0;
#X obj 204 295 *~ 0;
#X obj 184 263 r~ r1;
#X obj 140 264 r~ l1;
#X obj 254 230 t f f;
#X obj 281 254 invert;
#X obj 100 350 *~ 1;
#X obj 134 350 *~ 1;
#X msg 253 173 0;
#X obj -112 485 catch~ micl;
#X obj -37 486 catch~ micr;
#X obj 425 115 netreceive~ 10001 4;
#X obj 425 157 s~ l1;
#X obj 447 192 s~ r1;
#X obj 421 256 sel 0 1;
#X msg 421 287 label net;
#X msg 440 315 label mic;
#X connect 1 0 58 0;
#X connect 1 1 59 0;
#X connect 2 0 9 0;
#X connect 3 0 13 0;
#X connect 4 0 2 0;
#X connect 4 2 3 0;
#X connect 4 3 5 0;
#X connect 5 0 17 0;
#X connect 6 0 24 0;
#X connect 7 0 6 0;
#X connect 7 1 8 0;
#X connect 8 0 6 0;
#X connect 9 1 7 0;
#X connect 10 0 25 0;
#X connect 11 0 10 0;
#X connect 11 1 12 0;
#X connect 12 0 10 0;
#X connect 13 1 11 0;
#X connect 14 0 56 0;
#X connect 15 0 42 0;
#X connect 16 0 19 0;
#X connect 16 0 48 0;
#X connect 17 0 29 0;
#X connect 18 1 15 0;
#X connect 19 0 14 0;
#X connect 20 0 39 0;
#X connect 20 0 38 0;
#X connect 21 0 49 0;
#X connect 22 0 53 0;
#X connect 23 0 54 0;
#X connect 24 0 21 0;
#X connect 25 0 22 0;
#X connect 26 0 23 0;
#X connect 27 0 20 0;
#X connect 28 0 37 0;
#X connect 28 0 17 1;
#X connect 28 0 36 0;
#X connect 29 0 18 0;
#X connect 31 0 30 0;
#X connect 31 0 68 0;
#X connect 32 0 34 0;
#X connect 35 0 33 0;
#X connect 36 0 35 1;
#X connect 36 0 32 1;
#X connect 37 0 29 1;
#X connect 38 0 26 0;
#X connect 38 0 25 0;
#X connect 39 0 24 0;
#X connect 40 0 55 0;
#X connect 40 0 64 0;
#X connect 40 0 74 0;
#X connect 41 0 57 0;
#X connect 42 0 26 0;
#X connect 43 0 32 0;
#X connect 44 0 35 0;
#X connect 45 0 43 1;
#X connect 45 0 44 1;
#X connect 45 0 42 1;
#X connect 46 0 28 0;
#X connect 47 0 45 0;
#X connect 48 0 41 0;
#X connect 49 0 50 0;
#X connect 53 0 51 0;
#X connect 54 0 52 0;
#X connect 55 0 49 1;
#X connect 55 0 53 1;
#X connect 55 0 54 1;
#X connect 56 0 46 0;
#X connect 57 0 47 0;
#X connect 58 0 66 0;
#X connect 59 0 67 0;
#X connect 60 0 66 0;
#X connect 61 0 67 0;
#X connect 62 0 61 0;
#X connect 63 0 60 0;
#X connect 64 0 58 1;
#X connect 64 0 59 1;
#X connect 64 1 65 0;
#X connect 65 0 61 1;
#X connect 65 0 60 1;
#X connect 66 0 44 0;
#X connect 66 0 4 0;
#X connect 67 0 43 0;
#X connect 68 0 40 0;
#X connect 71 0 72 0;
#X connect 71 1 73 0;
#X connect 74 0 75 0;
#X connect 74 1 76 0;
#X connect 75 0 40 0;
#X connect 76 0 40 0;
#X coords 0 -1 1 1 110 120 1 100 100;
