#N canvas 472 305 816 720 10;
#X obj 103 114 cnv 15 104 104 empty empty empty 20 12 0 14 -191677
-66577 0;
#X obj 118 319 adc~;
#X floatatom 118 472 5 0 0 0 - - -;
#X obj 118 437 fiddle~ 1024 1 20 0;
#X floatatom 301 435 5 0 0 0 - - -;
#X obj 192 583 expr ($f1/100);
#X obj 192 534 moses 100;
#X msg 243 554 100;
#X obj 192 508 moses 10;
#X obj 109 184 hsl 60 15 0 50 0 0 empty empty threshold -2 8 0 10 -262144
-1 -1 0 1;
#X obj 340 574 expr ($f1/100);
#X obj -38 70 loadbang;
#X obj 301 459 - 0;
#X obj 301 517 moses 0;
#X msg -38 92 0;
#X obj 106 22 tgl 15 0 empty empty empty 17 7 0 10 -262144 -1 -1 1
1;
#X floatatom 107 125 5 0 0 1 pitch-1 - -;
#X floatatom 107 146 5 0 0 1 pitch-2 - -;
#X floatatom 107 165 5 0 0 1 vol - -;
#X obj 106 -4 loadbang;
#X floatatom 368 334 5 0 0 0 - - -;
#X obj 301 482 *;
#X msg 313 148 \; pd dsp 1;
#X obj 313 127 loadbang;
#X obj -40 409 *~;
#X obj -115 400 *~;
#X obj -99 340 expr~ 1-($v1/50);
#X obj 368 426 expr 1-($f1/50);
#X obj 174 186 tgl 30 0 empty empty mic 8 15 0 10 -258113 -258113 -1
1 1;
#X obj 109 202 hsl 60 15 1 4 0 0 empty empty gain -2 8 0 10 -262144
-1 -1 0 1;
#X obj 340 596 *;
#X obj -40 380 *~ 1;
#X obj -115 377 *~ 1;
#X floatatom 12 342 5 0 0 0 - - -;
#X obj 350 248 line;
#X obj 12 276 line;
#X msg 59 214 1;
#X obj -95 184 s vj-pitch-1;
#X obj -92 217 s vj-pitch-2;
#X obj -92 250 s vj-vol;
#X msg 350 226 \$1 1000;
#X msg 12 254 \$1 1000;
#X obj 117 352 *~ 0;
#X obj 151 351 *~ 0;
#X obj 188 351 *~ 0;
#X obj 222 350 *~ 0;
#X obj 254 230 t f f;
#X obj 281 254 invert;
#X obj 118 405 *~ 1;
#X obj 152 405 *~ 1;
#X msg 254 146 0;
#X obj 421 256 sel 0 1;
#X msg 421 287 label net;
#X msg 440 315 label mic;
#X obj 131 235 netreceive~ 10001 2;
#X obj 190 85 v \$0-vol;
#X obj 114 269 s~ l1;
#X obj 168 270 s~ r1;
#X obj 410 487 unpack;
#X floatatom 410 537 0 0 0 0 - - -;
#X floatatom 424 514 0 0 0 0 - - -;
#X obj 75 515 unpack f f;
#X floatatom 74 537 5 0 0 0 - - -;
#X floatatom 134 540 5 0 0 0 - - -;
#X floatatom 193 606 5 0 0 0 - - -;
#X obj -11 590 expr ($f1/100);
#X obj -11 541 moses 100;
#X msg 40 561 100;
#X obj -11 515 moses 10;
#X floatatom -10 613 5 0 0 0 - - -;
#X obj 340 619 v \$0-vol;
#X obj 190 44 metro 50;
#X obj 192 631 v \$0-p1;
#X obj -11 636 v \$0-p2;
#X obj 129 77 v \$0-p1;
#X obj 72 78 v \$0-p2;
#X obj 69 56 t b b;
#X obj 106 44 metro 100;
#X connect 1 0 42 0;
#X connect 1 1 43 0;
#X connect 3 0 2 0;
#X connect 3 2 61 0;
#X connect 3 3 4 0;
#X connect 4 0 12 0;
#X connect 5 0 64 0;
#X connect 6 0 5 0;
#X connect 6 1 7 0;
#X connect 7 0 5 0;
#X connect 8 1 6 0;
#X connect 9 0 40 0;
#X connect 10 0 30 0;
#X connect 11 0 14 0;
#X connect 11 0 36 0;
#X connect 12 0 21 0;
#X connect 13 1 10 0;
#X connect 14 0 9 0;
#X connect 15 0 71 0;
#X connect 15 0 77 0;
#X connect 16 0 37 0;
#X connect 17 0 38 0;
#X connect 18 0 39 0;
#X connect 19 0 15 0;
#X connect 20 0 27 0;
#X connect 20 0 12 1;
#X connect 20 0 26 0;
#X connect 21 0 13 0;
#X connect 23 0 22 0;
#X connect 23 0 50 0;
#X connect 26 0 25 1;
#X connect 26 0 24 1;
#X connect 27 0 21 1;
#X connect 28 0 46 0;
#X connect 28 0 51 0;
#X connect 29 0 41 0;
#X connect 30 0 70 0;
#X connect 31 0 24 0;
#X connect 32 0 25 0;
#X connect 33 0 31 1;
#X connect 33 0 32 1;
#X connect 33 0 30 1;
#X connect 34 0 20 0;
#X connect 35 0 33 0;
#X connect 36 0 29 0;
#X connect 40 0 34 0;
#X connect 41 0 35 0;
#X connect 42 0 48 0;
#X connect 43 0 49 0;
#X connect 44 0 48 0;
#X connect 45 0 49 0;
#X connect 46 0 42 1;
#X connect 46 0 43 1;
#X connect 46 1 47 0;
#X connect 47 0 45 1;
#X connect 47 0 44 1;
#X connect 48 0 32 0;
#X connect 48 0 3 0;
#X connect 49 0 31 0;
#X connect 50 0 28 0;
#X connect 51 0 52 0;
#X connect 51 1 53 0;
#X connect 52 0 28 0;
#X connect 53 0 28 0;
#X connect 54 0 44 0;
#X connect 54 0 56 0;
#X connect 54 1 45 0;
#X connect 54 1 57 0;
#X connect 55 0 18 0;
#X connect 58 0 59 0;
#X connect 58 1 60 0;
#X connect 61 0 62 0;
#X connect 61 1 63 0;
#X connect 62 0 68 0;
#X connect 63 0 8 0;
#X connect 64 0 72 0;
#X connect 65 0 69 0;
#X connect 66 0 65 0;
#X connect 66 1 67 0;
#X connect 67 0 65 0;
#X connect 68 1 66 0;
#X connect 69 0 73 0;
#X connect 71 0 55 0;
#X connect 74 0 17 0;
#X connect 75 0 16 0;
#X connect 76 0 75 0;
#X connect 76 1 74 0;
#X connect 77 0 76 0;
#X coords 0 -1 1 1 110 120 1 100 100;
