#N canvas 662 303 420 393 10;
#X obj 123 95 seq;
#X obj 123 28 bng 30 250 50 0 empty empty empty 17 7 0 10 -262144 -1
-1;
#X obj 123 117 midiparse;
#X floatatom 174 141 5 0 0 0 - - -;
#X text 210 141 channel number;
#X msg 180 59 read \$1;
#X obj 180 2 openpanel;
#X obj 180 -38 bng 15 250 50 0 empty empty empty 17 7 0 10 -262144
-1 -1;
#X obj -8 141 catch~ all;
#X obj -8 179 dac~;
#X obj 199 111 s reset;
#X obj 199 85 bng 15 250 50 0 empty empty empty 17 7 0 10 -262144 -1
-1;
#X obj 252 251 poly 20 1;
#X msg 59 33 stop;
#X msg 252 217 clear;
#X obj 180 32 t a b b;
#N canvas 872 242 568 408 piano 0;
#X obj 116 228 k_osc;
#X obj 116 203 route 1 2 3 4 5 6 7 8 9 10 11 12 13 14 15 16 17 18 19
20;
#X obj 116 173 inlet;
#X obj 132 252 k_osc;
#X obj 149 277 k_osc;
#X obj 165 228 k_osc;
#X obj 182 254 k_osc;
#X obj 199 279 k_osc;
#X obj 215 228 k_osc;
#X obj 232 252 k_osc;
#X obj 249 277 k_osc;
#X obj 265 228 k_osc;
#X obj 282 254 k_osc;
#X obj 299 279 k_osc;
#X obj 315 228 k_osc;
#X obj 332 254 k_osc;
#X obj 349 279 k_osc;
#X obj 365 226 k_osc;
#X obj 382 252 k_osc;
#X obj 399 277 k_osc;
#X obj 415 225 k_osc;
#X obj 432 250 k_osc;
#X connect 1 0 0 0;
#X connect 1 1 3 0;
#X connect 1 2 4 0;
#X connect 1 3 5 0;
#X connect 1 4 6 0;
#X connect 1 5 7 0;
#X connect 1 6 8 0;
#X connect 1 7 9 0;
#X connect 1 8 10 0;
#X connect 1 9 11 0;
#X connect 1 10 12 0;
#X connect 1 11 13 0;
#X connect 1 12 14 0;
#X connect 1 13 15 0;
#X connect 1 14 16 0;
#X connect 1 15 17 0;
#X connect 1 16 18 0;
#X connect 1 17 19 0;
#X connect 1 18 20 0;
#X connect 1 19 21 0;
#X connect 2 0 1 0;
#X restore 252 307 pd piano;
#X obj 252 284 pack 0 0 0;
#N canvas 558 71 703 471 channel-10 0;
#X obj 476 199 route 47 48 49 50 51 52 53 54;
#X msg 156 117 36 50;
#X obj 34 143 808_global /key;
#N canvas 0 22 450 300 savedata 0;
#X obj 10 10 inlet;
#X msg 10 40 \; SSSAD /openhithat/controls 0 0.45 1 1 2 0.9 3 0.6 4
0.55 5 0.1 6 0.4 7 0.668644 8 0.7 9 0.6 10 0.8 11 0.393729 \; SSSAD
/SnareDrum1/controls 0 0.49 1 0.8 2 0.7 3 0.6 4 0.55 5 0.42 6 0.55
7 0.6 8 0.35 9 0.747966 \; SSSAD /sidestick/controls 0 1 1 1 2 0.38983
3 0.271186 4 0.372881 5 0.182712 6 0.0923729 7 0.650847 8 1 9 0.267797
\; SSSAD /bassdrum2/controls 0 0.135593 1 0.186441 2 0.457627 3 0.423729
4 0.576271 5 0.7 6 0.644068 7 0.425254 \; SSSAD /bassdrum1/controls
0 0.4 1 0.4 2 0.4 3 0.237288 4 0.7 5 0.7 6 0.677966 7 0.425254 \; SSSAD
/key/controls 0 0.45 1 1 2 0.9 3 0.6 4 0.55 5 0.1 6 0.4 7 0.55 8 0.7
9 0.6 10 0.8 11 0.6 \; SSSAD /key/controls 0 0.45 1 1 2 0.9 3 0.6 4
0.55 5 0.1 6 0.4 7 0.55 8 0.7 9 0.6 10 0.8 11 0.6 \; SSSAD_ADMIN set
\;;
#X connect 0 0 1 0;
#X restore 34 208 pd savedata;
#X obj 233 42 inlet;
#X obj 233 174 route 35 36 37 38 39 40 41 42 43 44 45 46;
#X msg 207 129 38 70;
#X obj 233 74 t a a a;
#X obj 315 58 spigot;
#X obj 315 83 print;
#X obj 348 36 tgl 15 0 empty empty empty 17 7 0 10 -262144 -1 -1 0
1;
#X obj 233 199 s \$0-35;
#X obj 253 221 s \$0-36;
#X obj 273 242 s \$0-37;
#X obj 293 265 s \$0-38;
#X obj 314 197 s \$0-39;
#X obj 334 219 s \$0-40;
#X obj 354 240 s \$0-41;
#X obj 374 263 s \$0-42;
#X obj 395 198 s \$0-43;
#X obj 415 220 s \$0-44;
#X obj 435 241 s \$0-45;
#X obj 455 264 s \$0-46;
#X obj 476 222 s \$0-47;
#X obj 497 245 s \$0-48;
#X obj 518 266 s \$0-49;
#X obj 540 289 s \$0-50;
#X obj 561 224 s \$0-51;
#X obj 582 246 s \$0-52;
#X obj 604 267 s \$0-53;
#X obj 625 290 s \$0-54;
#X obj 34 117 loadbang;
#N canvas 675 465 1247 723 music 0;
#X obj 46 321 throw~ all;
#X obj 626 326 throw~ all;
#X obj 836 348 throw~ all;
#X obj 76 124 t b f;
#X obj 103 145 / 127;
#X msg 103 169 7 \$1;
#X obj 46 194 perk-bassdrum /bassdrum1;
#X obj 249 320 throw~ all;
#X obj 279 123 t b f;
#X obj 306 144 / 127;
#X msg 306 168 7 \$1;
#X obj 249 193 perk-bassdrum /bassdrum2;
#X obj 438 322 throw~ all;
#X obj 438 180 perk-snare /sidestick;
#X obj 468 111 t b f;
#X obj 495 132 / 127;
#X msg 495 156 9 \$1;
#X floatatom 132 125 5 0 0 0 - - -;
#X obj 37 100 moses 1;
#X obj 627 184 perk-snare /SnareDrum1;
#X obj 662 112 t b f;
#X obj 689 133 / 127;
#X msg 689 157 9 \$1;
#X obj 240 99 moses 1;
#X obj 429 87 moses 1;
#X obj 623 88 moses 1;
#X obj 862 114 t b f;
#X obj 889 135 / 127;
#X obj 823 90 moses 1;
#X msg 889 159 11 \$1;
#X obj 37 75 r \$0-35;
#X obj 240 70 r \$0-36;
#X obj 429 62 r \$0-37;
#X obj 623 63 r \$0-38;
#X obj 823 60 r \$0-46;
#X obj 836 182 perk-hihat /openhithat;
#X msg 879 59 50;
#X obj 47 172 bng 15 250 50 0 empty empty empty 17 7 0 10 -262144 -1
-1;
#X obj 249 170 bng 15 250 50 0 empty empty empty 17 7 0 10 -262144
-1 -1;
#X obj 438 156 bng 15 250 50 0 empty empty empty 17 7 0 10 -262144
-1 -1;
#X obj 627 158 bng 15 250 50 0 empty empty empty 17 7 0 10 -262144
-1 -1;
#X obj 836 156 bng 15 250 50 0 empty empty empty 17 7 0 10 -262144
-1 -1;
#X obj 57 661 throw~ all;
#X obj 83 427 t b f;
#X obj 110 448 / 127;
#X obj 44 403 moses 1;
#X msg 110 472 11 \$1;
#X msg 100 372 50;
#X obj 57 469 bng 15 250 50 0 empty empty empty 17 7 0 10 -262144 -1
-1;
#X obj 44 373 r \$0-44;
#X obj 57 495 perk-hihat /Hihatpedal;
#X obj 292 466 t b f;
#X obj 319 487 / 127;
#X obj 253 442 moses 1;
#X obj 282 516 bng 15 250 50 0 empty empty empty 17 7 0 10 -262144
-1 -1;
#X obj 253 412 r \$0-54;
#N canvas 0 22 450 300 tamb 0;
#X msg 91 98 1700 3149 2330 1511 217 40 6300 1;
#X msg 83 76 1700 3149 2330 1511 300 20 6300 1;
#X msg 101 119 1700 3149 2330 1511 217 40 6300 10;
#N canvas 0 22 482 669 tambsyn 0;
#X obj 147 258 noise~;
#X obj 258 306 bp~ 100 30;
#X obj 31 351 *~;
#X obj 53 328 line~;
#X obj 142 392 *~ 1;
#X obj 182 306 bp~ 100 30;
#X obj 106 306 bp~ 100 30;
#X obj 30 306 bp~ 100 30;
#X obj 259 357 *~;
#X obj 281 334 line~;
#X obj 106 355 *~;
#X obj 128 332 line~;
#X obj 183 354 *~;
#X obj 205 331 line~;
#X obj 399 147 * 2;
#X obj 398 171 * 2;
#X obj 397 193 * 2;
#X msg 213 258 1 \, 0 \$1;
#X msg 273 257 1 \, 0 \$1;
#X msg 337 257 1 \, 0 \$1;
#X msg 397 256 1 \, 0 \$1;
#X obj 399 123 f;
#X obj 158 415 osc~ 5500;
#X obj 142 447 *~;
#X obj 399 65 del 8;
#X obj 399 89 del 13;
#X obj 95 -46 t b l;
#X obj 88 -5 unpack f f f f f f f f;
#X obj 436 41 * 2;
#X obj 399 15 t b b;
#X obj 95 -72 inlet;
#X text 35 263 metals 24;
#X obj 136 504 outlet~;
#X text 156 -69 tamb bells;
#X obj 141 471 *~ 2;
#X connect 0 0 1 0;
#X connect 0 0 5 0;
#X connect 0 0 6 0;
#X connect 0 0 7 0;
#X connect 1 0 8 0;
#X connect 2 0 4 0;
#X connect 3 0 2 1;
#X connect 4 0 23 0;
#X connect 5 0 12 0;
#X connect 6 0 10 0;
#X connect 7 0 2 0;
#X connect 8 0 4 0;
#X connect 9 0 8 1;
#X connect 10 0 4 0;
#X connect 11 0 10 1;
#X connect 12 0 4 0;
#X connect 13 0 12 1;
#X connect 14 0 15 0;
#X connect 14 0 18 0;
#X connect 15 0 16 0;
#X connect 15 0 19 0;
#X connect 16 0 20 0;
#X connect 17 0 3 0;
#X connect 18 0 11 0;
#X connect 19 0 13 0;
#X connect 20 0 9 0;
#X connect 21 0 17 0;
#X connect 21 0 14 0;
#X connect 22 0 23 1;
#X connect 23 0 34 0;
#X connect 24 0 25 0;
#X connect 25 0 21 0;
#X connect 26 0 29 0;
#X connect 26 1 27 0;
#X connect 27 0 7 1;
#X connect 27 1 6 1;
#X connect 27 2 5 1;
#X connect 27 3 1 1;
#X connect 27 4 7 2;
#X connect 27 4 6 2;
#X connect 27 4 5 2;
#X connect 27 4 1 2;
#X connect 27 5 21 1;
#X connect 27 6 22 0;
#X connect 27 7 28 0;
#X connect 27 7 24 1;
#X connect 28 0 25 1;
#X connect 29 0 24 0;
#X connect 29 1 21 0;
#X connect 30 0 26 0;
#X connect 34 0 32 0;
#X coords 0 0 1 1 85 60 0;
#X restore 68 144 pd tambsyn;
#X obj 97 23 inlet;
#X obj 98 45 sel 0 1 2;
#X obj 65 171 outlet~;
#X connect 0 0 3 0;
#X connect 1 0 3 0;
#X connect 2 0 3 0;
#X connect 3 0 6 0;
#X connect 4 0 5 0;
#X connect 5 0 1 0;
#X connect 5 1 0 0;
#X connect 5 2 2 0;
#X restore 282 566 pd tamb;
#X obj 282 643 throw~ all;
#X floatatom 322 514 5 0 0 0 - - -;
#X obj 282 604 *~ 0;
#X obj 282 541 random 3;
#X msg 308 413 60;
#X connect 3 0 37 0;
#X connect 3 1 4 0;
#X connect 3 1 17 0;
#X connect 4 0 5 0;
#X connect 5 0 6 1;
#X connect 6 0 0 0;
#X connect 8 0 38 0;
#X connect 8 1 9 0;
#X connect 9 0 10 0;
#X connect 10 0 11 1;
#X connect 11 0 7 0;
#X connect 13 0 12 0;
#X connect 14 0 39 0;
#X connect 14 1 15 0;
#X connect 15 0 16 0;
#X connect 16 0 13 1;
#X connect 18 1 3 0;
#X connect 19 0 1 0;
#X connect 20 0 40 0;
#X connect 20 1 21 0;
#X connect 21 0 22 0;
#X connect 22 0 19 1;
#X connect 23 1 8 0;
#X connect 24 1 14 0;
#X connect 25 1 20 0;
#X connect 26 0 41 0;
#X connect 26 1 27 0;
#X connect 27 0 29 0;
#X connect 28 1 26 0;
#X connect 29 0 35 1;
#X connect 30 0 18 0;
#X connect 31 0 23 0;
#X connect 32 0 24 0;
#X connect 33 0 25 0;
#X connect 34 0 28 0;
#X connect 35 0 2 0;
#X connect 36 0 28 0;
#X connect 37 0 6 0;
#X connect 38 0 11 0;
#X connect 39 0 13 0;
#X connect 40 0 19 0;
#X connect 41 0 35 0;
#X connect 43 0 48 0;
#X connect 43 1 44 0;
#X connect 44 0 46 0;
#X connect 45 1 43 0;
#X connect 46 0 50 1;
#X connect 47 0 45 0;
#X connect 48 0 50 0;
#X connect 49 0 45 0;
#X connect 50 0 42 0;
#X connect 51 0 54 0;
#X connect 51 1 52 0;
#X connect 52 0 58 0;
#X connect 53 1 51 0;
#X connect 54 0 60 0;
#X connect 55 0 53 0;
#X connect 56 0 59 0;
#X connect 58 0 59 1;
#X connect 59 0 57 0;
#X connect 60 0 56 0;
#X connect 61 0 53 0;
#X restore 61 299 pd music;
#X connect 0 0 23 0;
#X connect 0 1 24 0;
#X connect 0 2 25 0;
#X connect 0 3 26 0;
#X connect 0 4 27 0;
#X connect 0 5 28 0;
#X connect 0 6 29 0;
#X connect 0 7 30 0;
#X connect 1 0 5 0;
#X connect 2 0 3 0;
#X connect 4 0 7 0;
#X connect 5 0 11 0;
#X connect 5 1 12 0;
#X connect 5 2 13 0;
#X connect 5 3 14 0;
#X connect 5 4 15 0;
#X connect 5 5 16 0;
#X connect 5 6 17 0;
#X connect 5 7 18 0;
#X connect 5 8 19 0;
#X connect 5 9 20 0;
#X connect 5 10 21 0;
#X connect 5 11 22 0;
#X connect 5 12 0 0;
#X connect 6 0 5 0;
#X connect 7 0 5 0;
#X connect 7 2 8 0;
#X connect 8 0 9 0;
#X connect 10 0 8 1;
#X connect 31 0 2 0;
#X restore 123 269 pd channel-10;
#X obj 123 193 prepend;
#X obj 123 222 route 10;
#X msg 212 216 \$2 \$3;
#X obj 22 113 catch~ piano;
#X connect 0 0 2 0;
#X connect 0 1 1 0;
#X connect 1 0 0 0;
#X connect 2 0 19 0;
#X connect 2 6 3 0;
#X connect 3 0 19 1;
#X connect 5 0 0 0;
#X connect 6 0 15 0;
#X connect 7 0 6 0;
#X connect 8 0 9 0;
#X connect 8 0 9 1;
#X connect 11 0 10 0;
#X connect 12 0 17 0;
#X connect 12 1 17 1;
#X connect 12 2 17 2;
#X connect 13 0 0 0;
#X connect 13 0 11 0;
#X connect 14 0 12 0;
#X connect 15 0 5 0;
#X connect 15 1 11 0;
#X connect 15 2 14 0;
#X connect 17 0 16 0;
#X connect 19 0 20 0;
#X connect 20 0 18 0;
#X connect 20 1 21 0;
#X connect 21 0 12 0;
#X connect 22 0 9 1;
#X connect 22 0 9 0;
