#N canvas 0 22 552 466 10;
#X msg 206 7 -1 -1;
#X obj 83 -7 pack f f;
#X floatatom 83 -37 5 0 0 0 - - -;
#X floatatom 128 -37 5 0 0 0 - - -;
#X obj 83 90 tgl 15 0 empty empty empty 17 7 0 10 -262144 -1 -1 0 1
;
#X obj 83 57 k_mouseover 1 1 -1 -1;
#X obj 272 82 k_2point;
#X floatatom 260 119 5 0 0 0 - - -;
#X floatatom 303 119 5 0 0 0 - - -;
#X floatatom 344 120 5 0 0 0 - - -;
#X floatatom 387 121 5 0 0 0 - - -;
#X obj 207 119 gemhead;
#X obj 207 159 translateXYZ;
#X obj 207 229 scaleXYZ;
#X obj 207 273 square 1;
#X obj 375 241 cnv 15 100 60 empty empty empty 20 12 0 14 -195568 -66577
0;
#N canvas 0 22 450 300 gemwin 0;
#X obj 132 136 gemwin;
#X obj 67 89 outlet;
#X obj 67 10 inlet;
#X obj 67 41 route create;
#X msg 67 70 set destroy;
#X msg 142 68 set create;
#X msg 249 113 destroy;
#X msg 132 112 reset \, create \, 1;
#X connect 2 0 3 0;
#X connect 3 0 4 0;
#X connect 3 0 7 0;
#X connect 3 1 5 0;
#X connect 3 1 6 0;
#X connect 4 0 1 0;
#X connect 5 0 1 0;
#X connect 6 0 0 0;
#X connect 7 0 0 0;
#X restore 380 280 pd gemwin;
#X msg 380 261 destroy;
#X text 376 240 Create window:;
#X msg 271 240 draw line;
#X obj 207 191 color;
#X obj 83 111 sel 0 1;
#X msg 83 138 1 1 1;
#X msg 102 164 1 0 0;
#X obj 83 -123 gemmouse 1 1;
#X obj 83 -98 k_range 0 1 -4 4;
#X obj 100 -71 k_range 0 1 4 -4;
#X msg 144 9 -3 0;
#X connect 0 0 5 2;
#X connect 0 0 6 1;
#X connect 1 0 5 0;
#X connect 2 0 1 0;
#X connect 3 0 1 1;
#X connect 4 0 21 0;
#X connect 5 0 4 0;
#X connect 6 0 7 0;
#X connect 6 1 8 0;
#X connect 6 2 9 0;
#X connect 6 3 10 0;
#X connect 7 0 12 1;
#X connect 8 0 12 2;
#X connect 9 0 13 1;
#X connect 10 0 13 2;
#X connect 11 0 12 0;
#X connect 12 0 20 0;
#X connect 13 0 14 0;
#X connect 16 0 17 0;
#X connect 17 0 16 0;
#X connect 19 0 14 0;
#X connect 20 0 13 0;
#X connect 21 0 22 0;
#X connect 21 1 23 0;
#X connect 22 0 20 1;
#X connect 23 0 20 1;
#X connect 24 0 25 0;
#X connect 24 1 26 0;
#X connect 25 0 2 0;
#X connect 26 0 3 0;
#X connect 27 0 5 1;
#X connect 27 0 6 0;
