#N canvas 0 22 638 301 10;
#X obj 94 83 cnv 15 100 60 empty empty empty 20 12 0 14 -195568 -66577
0;
#N canvas 0 22 450 300 gemwin 0;
#X obj 132 136 gemwin;
#X obj 67 89 outlet;
#X obj 67 10 inlet;
#X obj 67 41 route create;
#X msg 67 70 set destroy;
#X msg 142 68 set create;
#X msg 249 113 destroy;
#X msg 132 112 reset \, create \, 1;
#X connect 2 0 3 0;
#X connect 3 0 4 0;
#X connect 3 0 7 0;
#X connect 3 1 5 0;
#X connect 3 1 6 0;
#X connect 4 0 1 0;
#X connect 5 0 1 0;
#X connect 6 0 0 0;
#X connect 7 0 0 0;
#X restore 99 122 pd gemwin;
#X msg 99 103 destroy;
#X text 95 82 Create window:;
#X obj 272 98 gemhead;
#X obj 338 105 k_MoveCircle;
#X obj 270 228 circle 0.1;
#X obj 271 170 translateXYZ;
#X obj 351 48 hsl 128 15 0 127 0 0 empty empty empty -2 -8 0 10 -262144
-1 -1 12700 1;
#X obj 346 69 / 127;
#X connect 1 0 2 0;
#X connect 2 0 1 0;
#X connect 4 0 7 0;
#X connect 5 0 7 1;
#X connect 5 1 7 2;
#X connect 7 0 6 0;
#X connect 8 0 9 0;
#X connect 9 0 5 0;
