#N canvas 516 225 724 457 10;
#X obj 125 29 loadbang;
#X obj 125 56 t b b b b;
#X floatatom 211 141 5 0 0 0 - - -;
#X floatatom 159 192 5 0 0 0 - - -;
#X floatatom 82 279 5 0 0 0 - - -;
#X obj 55 3 inlet;
#X obj 187 2 inlet;
#X obj -58 39 inlet;
#X obj 82 308 s \$0-x;
#X obj 126 277 s \$0-y;
#X obj 211 164 s \$0-y1;
#X obj 300 -6 r \$0-x;
#X obj 439 24 r \$0-y;
#X obj 346 -6 r \$0-x1;
#X obj -58 64 unpack f f;
#X obj -58 97 s \$0-jx;
#X obj -1 97 s \$0-jy;
#X obj 270 116 r \$0-jx;
#X obj 297 174 >;
#X obj 300 56 max;
#X obj 351 57 min;
#X floatatom 351 79 5 0 0 0 - - -;
#X floatatom 300 79 5 0 0 0 - - -;
#X obj 300 16 t f f;
#X obj 346 17 t f f;
#X obj 270 140 t f f;
#X obj 270 196 <;
#X obj 270 241 +;
#X obj 297 198 tgl 15 0 empty empty empty 17 7 0 10 -262144 -1 -1 0
1;
#X obj 270 220 tgl 15 0 empty empty empty 17 7 0 10 -262144 -1 -1 1
1;
#X floatatom 270 266 5 0 0 0 - - -;
#X obj 439 92 max;
#X obj 490 93 min;
#X floatatom 490 115 5 0 0 0 - - -;
#X floatatom 439 115 5 0 0 0 - - -;
#X obj 439 52 t f f;
#X obj 485 53 t f f;
#X obj 415 171 >;
#X obj 388 137 t f f;
#X obj 388 193 <;
#X obj 388 238 +;
#X obj 415 195 tgl 15 0 empty empty empty 17 7 0 10 -262144 -1 -1 0
1;
#X obj 388 217 tgl 15 0 empty empty empty 17 7 0 10 -262144 -1 -1 1
1;
#X floatatom 389 260 5 0 0 0 - - -;
#X obj 388 113 r \$0-jy;
#X obj 270 302 +;
#X obj 270 328 expr if($f1==4 \, 1 \, 0);
#X obj 270 353 tgl 15 0 empty empty empty 17 7 0 10 -262144 -1 -1 0
1;
#X obj 270 377 outlet;
#X obj 485 24 r \$0-y1;
#X msg 211 86 0;
#X obj 211 109 + \$4;
#X msg 159 143 0;
#X obj 159 166 + \$3;
#X obj 159 213 s \$0-x1;
#X msg 82 225 0;
#X obj 82 248 + \$1;
#X msg 126 210 0;
#X obj 126 233 + \$2;
#X floatatom 126 255 5 0 0 0 - - -;
#X obj 55 29 unpack f f;
#X obj 187 29 unpack f f;
#X connect 0 0 1 0;
#X connect 1 0 55 0;
#X connect 1 1 57 0;
#X connect 1 2 52 0;
#X connect 1 3 50 0;
#X connect 2 0 10 0;
#X connect 3 0 54 0;
#X connect 4 0 8 0;
#X connect 5 0 60 0;
#X connect 6 0 61 0;
#X connect 7 0 14 0;
#X connect 11 0 23 0;
#X connect 12 0 35 0;
#X connect 13 0 24 0;
#X connect 14 0 15 0;
#X connect 14 1 16 0;
#X connect 17 0 25 0;
#X connect 18 0 28 0;
#X connect 19 0 22 0;
#X connect 20 0 21 0;
#X connect 21 0 18 1;
#X connect 22 0 26 1;
#X connect 23 0 19 0;
#X connect 23 1 20 0;
#X connect 24 0 19 1;
#X connect 24 1 20 1;
#X connect 25 0 26 0;
#X connect 25 1 18 0;
#X connect 26 0 29 0;
#X connect 27 0 30 0;
#X connect 28 0 27 1;
#X connect 29 0 27 0;
#X connect 30 0 45 0;
#X connect 31 0 34 0;
#X connect 32 0 33 0;
#X connect 33 0 37 1;
#X connect 34 0 39 1;
#X connect 35 0 31 0;
#X connect 35 1 32 0;
#X connect 36 0 31 1;
#X connect 36 1 32 1;
#X connect 37 0 41 0;
#X connect 38 0 39 0;
#X connect 38 1 37 0;
#X connect 39 0 42 0;
#X connect 40 0 43 0;
#X connect 41 0 40 1;
#X connect 42 0 40 0;
#X connect 43 0 45 1;
#X connect 44 0 38 0;
#X connect 45 0 46 0;
#X connect 46 0 47 0;
#X connect 47 0 48 0;
#X connect 49 0 36 0;
#X connect 50 0 51 0;
#X connect 51 0 2 0;
#X connect 52 0 53 0;
#X connect 53 0 3 0;
#X connect 55 0 56 0;
#X connect 56 0 4 0;
#X connect 57 0 58 0;
#X connect 58 0 59 0;
#X connect 59 0 9 0;
#X connect 60 0 4 0;
#X connect 60 1 59 0;
#X connect 61 0 3 0;
#X connect 61 1 2 0;
