#N canvas 128 358 450 300 10;
#X obj 102 102 cnv 15 96 56 empty empty k_mouse 5 12 0 14 -203904 -66577
0;
#X obj 155 71 expr ($f1*-8)+4;
#X obj 92 17 gemmouse 1 1;
#X floatatom 108 132 5 0 0 0 - - -;
#X floatatom 155 131 5 0 0 0 - - -;
#X text 142 133 x;
#X text 189 132 y;
#X obj 109 253 outlet;
#X obj 43 174 t f f;
#X obj 70 196 sel 1;
#X obj 127 174 v \$0-xx;
#X obj 181 174 v \$0-yy;
#X obj 274 24 route dimen;
#X obj 274 52 expr ($f1/$f2)*4;
#X obj 274 -13 inlet;
#X obj 108 46 expr ($f1*$f3)-$f2;
#X floatatom 272 93 5 0 0 0 - - -;
#X obj 314 88 expr ($f1/$f2)*4;
#X obj 281 119 * 2;
#X obj 109 228 pack f f f;
#X connect 1 0 4 0;
#X connect 2 0 15 0;
#X connect 2 1 1 0;
#X connect 2 2 8 0;
#X connect 3 0 10 0;
#X connect 4 0 11 0;
#X connect 8 0 19 0;
#X connect 8 1 9 0;
#X connect 9 0 10 0;
#X connect 9 0 11 0;
#X connect 10 0 19 1;
#X connect 11 0 19 2;
#X connect 12 0 13 0;
#X connect 13 0 16 0;
#X connect 14 0 12 0;
#X connect 15 0 3 0;
#X connect 16 0 15 1;
#X connect 16 0 18 0;
#X connect 18 0 15 2;
#X connect 19 0 7 0;
#X coords 0 -1 1 1 100 60 2 100 100;
