#N canvas 378 166 450 300 10;
#X obj 102 102 cnv 15 96 56 empty empty k_mouse 5 12 0 14 -203904 -66577
0;
#X obj 108 46 expr ($f1*8)-4;
#X obj 155 71 expr ($f1*-8)+4;
#X obj 92 17 gemmouse 1 1;
#X floatatom 108 132 5 0 0 0 - - -;
#X floatatom 155 131 5 0 0 0 - - -;
#X text 142 133 x;
#X text 189 132 y;
#X obj 109 228 pack f f f;
#X obj 109 253 outlet;
#X obj 43 174 t f f;
#X obj 70 196 sel 1;
#X obj 127 174 v \$0-xx;
#X obj 181 174 v \$0-yy;
#X connect 1 0 4 0;
#X connect 2 0 5 0;
#X connect 3 0 1 0;
#X connect 3 1 2 0;
#X connect 3 2 10 0;
#X connect 4 0 12 0;
#X connect 5 0 13 0;
#X connect 8 0 9 0;
#X connect 10 0 8 0;
#X connect 10 1 11 0;
#X connect 11 0 12 0;
#X connect 11 0 13 0;
#X connect 12 0 8 1;
#X connect 13 0 8 2;
#X coords 0 -1 1 1 100 60 2 100 100;
