#N canvas 371 193 450 300 10;
#X obj 169 164 * 2;
#X obj 226 166 * 2;
#X obj 169 95 expr $f1*2*3.1415926;
#X floatatom 265 133 5 0 0 0 - - -;
#X obj 168 61 inlet;
#X obj 274 59 inlet;
#X obj 165 205 outlet;
#X obj 227 202 outlet;
#X obj 169 138 cos;
#X obj 226 142 sin;
#X connect 0 0 6 0;
#X connect 1 0 7 0;
#X connect 2 0 8 0;
#X connect 2 0 9 0;
#X connect 3 0 0 1;
#X connect 3 0 1 1;
#X connect 4 0 2 0;
#X connect 5 0 3 0;
#X connect 8 0 0 0;
#X connect 9 0 1 0;
