#N canvas 132 59 1229 653 10;
#X obj -132 224 inlet~;
#X obj -122 276 rfft~;
#X obj -122 309 *~;
#X obj -91 309 *~;
#X obj -122 339 sqrt~;
#X obj 127 31 hsl 50 12 1 50 0 0 \$0a \$0b Gain -36 5 0 10 -228856
-1 -1 2450 1;
#X obj -122 428 tabwrite~ \$0-spectrum;
#X obj -131 449 outlet~;
#N canvas 0 22 1035 635 (subpatch) 0;
#X array \$0-spectrum 256 float 0;
#X coords 0 1 255 0 256 100 1;
#X restore 14 47 graph;
#X obj -122 252 hip~ 40;
#X obj -251 214 tgl 15 0 empty empty empty 0 -6 0 8 -262144 -1 -1 1
1;
#X obj -251 189 loadbang;
#X obj 141 14 hradio 12 1 0 3 empty empty Block -40 6 0 10 -262144
-1 -1 0;
#X obj -122 369 *~ 0.5;
#X obj -122 389 /~ 2048;
#X obj 17 152 hsl 251 10 0 256 0 0 empty empty start 30 6 0 8 -191407
-1 -1 0 1;
#X obj 17 166 hsl 251 10 0 256 0 0 empty empty end 30 6 0 8 -191407
-1 -1 391 1;
#X obj 14 211 int;
#X obj 254 14 tgl 30 0 empty empty empty 17 7 0 10 -262144 -1 -1 1
1;
#X obj 330 230 outlet;
#X obj 274 49 vsl 10 95 0 1 0 0 empty empty empty 0 -9 0 10 -262144
-1 -1 7520 1;
#X obj 125 -75 loadbang;
#X obj -251 379 switch~ 8192;
#X obj 303 147 t b b;
#X obj 303 124 metro 10;
#X obj -223 233 sel 0 1 2 3;
#X obj -63 356 f;
#X obj -38 356 + 1;
#X obj -14 356 % 5;
#X obj -63 379 sel 0;
#X obj -122 409 clip~ 0 1;
#X obj 189 28 hradio 15 1 0 4 empty empty Track 0 -8 0 10 -258113 -1
-1 0;
#X msg 174 -16 0;
#X obj 216 -15 s \$0-track;
#N canvas 770 200 634 570 track-0 0;
#X floatatom 183 142 5 0 0 0 - - -;
#X obj 183 172 expr abs($f1-$f2);
#X floatatom 183 197 5 0 0 0 - - -;
#X obj 272 249 min;
#X floatatom 272 274 5 0 0 0 - - -;
#X obj 295 171 t f f;
#X obj 183 271 f 0;
#X obj 212 271 + 1;
#X obj 183 300 +;
#X msg 222 242 0;
#X obj 183 326 tabread \$0-spectrum;
#X obj 183 384 > 0.5;
#X obj 183 420 sel 1;
#X obj 183 469 tgl 15 0 empty empty empty 17 7 0 10 -262144 -1 -1 0
1;
#X obj 183 491 change;
#X floatatom 295 147 5 0 0 0 - - -;
#X msg 183 442 1;
#X msg 216 442 0;
#X obj 183 220 until;
#X obj 183 515 sel 1;
#X obj 183 115 tabread \$0-ee;
#X msg 183 91 0;
#X msg 295 103 0;
#X obj 183 57 t b b b b b;
#X msg 266 382 0;
#X obj 183 29 inlet;
#X obj 183 541 outlet;
#X obj 266 407 tabread \$0-ll;
#X obj 297 125 tabread \$0-ss;
#X connect 0 0 1 0;
#X connect 0 0 3 0;
#X connect 1 0 2 0;
#X connect 2 0 18 0;
#X connect 3 0 4 0;
#X connect 4 0 8 1;
#X connect 5 0 1 1;
#X connect 5 1 3 1;
#X connect 6 0 7 0;
#X connect 6 0 8 0;
#X connect 7 0 6 1;
#X connect 8 0 10 0;
#X connect 9 0 6 1;
#X connect 10 0 11 0;
#X connect 11 0 12 0;
#X connect 12 0 16 0;
#X connect 12 0 18 1;
#X connect 13 0 14 0;
#X connect 14 0 19 0;
#X connect 15 0 5 0;
#X connect 16 0 13 0;
#X connect 17 0 13 0;
#X connect 18 0 6 0;
#X connect 19 0 26 0;
#X connect 20 0 0 0;
#X connect 21 0 20 0;
#X connect 22 0 28 0;
#X connect 23 0 21 0;
#X connect 23 1 22 0;
#X connect 23 2 9 0;
#X connect 23 3 17 0;
#X connect 23 4 24 0;
#X connect 24 0 27 0;
#X connect 25 0 23 0;
#X connect 27 0 11 1;
#X connect 28 0 15 0;
#X restore 330 208 pd track-0;
#X obj 220 292 table \$0-ss 5;
#X obj 221 314 table \$0-ee 5;
#X obj 222 337 table \$0-ll 5;
#X obj 345 276 outlet;
#X obj 364 322 outlet;
#X obj 394 369 outlet;
#N canvas 388 314 634 570 track-1 0;
#X floatatom 183 142 5 0 0 0 - - -;
#X obj 183 172 expr abs($f1-$f2);
#X floatatom 183 197 5 0 0 0 - - -;
#X obj 272 249 min;
#X floatatom 272 274 5 0 0 0 - - -;
#X obj 295 171 t f f;
#X obj 183 271 f 0;
#X obj 212 271 + 1;
#X obj 183 300 +;
#X msg 222 242 0;
#X obj 183 326 tabread \$0-spectrum;
#X obj 183 384 > 0.5;
#X obj 183 420 sel 1;
#X obj 183 469 tgl 15 0 empty empty empty 17 7 0 10 -262144 -1 -1 0
1;
#X obj 183 491 change;
#X floatatom 295 147 5 0 0 0 - - -;
#X msg 183 442 1;
#X msg 216 442 0;
#X obj 183 220 until;
#X obj 183 515 sel 1;
#X obj 183 116 tabread \$0-ee;
#X obj 183 57 t b b b b b;
#X obj 183 29 inlet;
#X obj 183 541 outlet;
#X obj 266 407 tabread \$0-ll;
#X msg 183 91 1;
#X msg 295 103 1;
#X msg 267 380 1;
#X obj 295 125 tabread \$0-ss;
#X connect 0 0 1 0;
#X connect 0 0 3 0;
#X connect 1 0 2 0;
#X connect 2 0 18 0;
#X connect 3 0 4 0;
#X connect 4 0 8 1;
#X connect 5 0 1 1;
#X connect 5 1 3 1;
#X connect 6 0 7 0;
#X connect 6 0 8 0;
#X connect 7 0 6 1;
#X connect 8 0 10 0;
#X connect 9 0 6 1;
#X connect 10 0 11 0;
#X connect 11 0 12 0;
#X connect 12 0 16 0;
#X connect 12 0 18 1;
#X connect 13 0 14 0;
#X connect 14 0 19 0;
#X connect 15 0 5 0;
#X connect 16 0 13 0;
#X connect 17 0 13 0;
#X connect 18 0 6 0;
#X connect 19 0 23 0;
#X connect 20 0 0 0;
#X connect 21 0 25 0;
#X connect 21 1 26 0;
#X connect 21 2 9 0;
#X connect 21 3 17 0;
#X connect 21 4 27 0;
#X connect 22 0 21 0;
#X connect 24 0 11 1;
#X connect 25 0 20 0;
#X connect 26 0 28 0;
#X connect 27 0 24 0;
#X connect 28 0 15 0;
#X restore 345 254 pd track-1;
#N canvas 388 314 634 570 track-2 0;
#X floatatom 183 142 5 0 0 0 - - -;
#X obj 183 172 expr abs($f1-$f2);
#X floatatom 183 197 5 0 0 0 - - -;
#X obj 272 249 min;
#X floatatom 272 274 5 0 0 0 - - -;
#X obj 295 171 t f f;
#X obj 183 271 f 0;
#X obj 212 271 + 1;
#X obj 183 300 +;
#X msg 222 242 0;
#X obj 183 326 tabread \$0-spectrum;
#X obj 183 384 > 0.5;
#X obj 183 420 sel 1;
#X obj 183 469 tgl 15 0 empty empty empty 17 7 0 10 -262144 -1 -1 0
1;
#X obj 183 491 change;
#X floatatom 295 147 5 0 0 0 - - -;
#X msg 183 442 1;
#X msg 216 442 0;
#X obj 183 220 until;
#X obj 183 515 sel 1;
#X obj 183 116 tabread \$0-ee;
#X obj 183 57 t b b b b b;
#X obj 183 29 inlet;
#X obj 183 541 outlet;
#X obj 266 407 tabread \$0-ll;
#X msg 183 91 2;
#X msg 295 102 2;
#X msg 266 382 2;
#X obj 295 125 tabread \$0-ss;
#X connect 0 0 1 0;
#X connect 0 0 3 0;
#X connect 1 0 2 0;
#X connect 2 0 18 0;
#X connect 3 0 4 0;
#X connect 4 0 8 1;
#X connect 5 0 1 1;
#X connect 5 1 3 1;
#X connect 6 0 7 0;
#X connect 6 0 8 0;
#X connect 7 0 6 1;
#X connect 8 0 10 0;
#X connect 9 0 6 1;
#X connect 10 0 11 0;
#X connect 11 0 12 0;
#X connect 12 0 16 0;
#X connect 12 0 18 1;
#X connect 13 0 14 0;
#X connect 14 0 19 0;
#X connect 15 0 5 0;
#X connect 16 0 13 0;
#X connect 17 0 13 0;
#X connect 18 0 6 0;
#X connect 19 0 23 0;
#X connect 20 0 0 0;
#X connect 21 0 25 0;
#X connect 21 1 26 0;
#X connect 21 2 9 0;
#X connect 21 3 17 0;
#X connect 21 4 27 0;
#X connect 22 0 21 0;
#X connect 24 0 11 1;
#X connect 25 0 20 0;
#X connect 26 0 28 0;
#X connect 27 0 24 0;
#X connect 28 0 15 0;
#X restore 364 300 pd track-2;
#N canvas 437 168 634 570 track-3 0;
#X floatatom 183 142 5 0 0 0 - - -;
#X obj 183 172 expr abs($f1-$f2);
#X floatatom 183 197 5 0 0 0 - - -;
#X obj 272 249 min;
#X floatatom 272 274 5 0 0 0 - - -;
#X obj 295 171 t f f;
#X obj 183 271 f 0;
#X obj 212 271 + 1;
#X obj 183 300 +;
#X msg 222 242 0;
#X obj 183 326 tabread \$0-spectrum;
#X obj 183 384 > 0.5;
#X obj 183 420 sel 1;
#X obj 183 469 tgl 15 0 empty empty empty 17 7 0 10 -262144 -1 -1 0
1;
#X obj 183 491 change;
#X floatatom 295 147 5 0 0 0 - - -;
#X msg 183 442 1;
#X msg 216 442 0;
#X obj 183 220 until;
#X obj 183 515 sel 1;
#X obj 183 116 tabread \$0-ee;
#X obj 183 57 t b b b b b;
#X obj 183 29 inlet;
#X obj 183 541 outlet;
#X obj 266 407 tabread \$0-ll;
#X msg 183 91 3;
#X msg 295 103 3;
#X msg 267 382 3;
#X obj 295 125 tabread \$0-ss;
#X connect 0 0 1 0;
#X connect 0 0 3 0;
#X connect 1 0 2 0;
#X connect 2 0 18 0;
#X connect 3 0 4 0;
#X connect 4 0 8 1;
#X connect 5 0 1 1;
#X connect 5 1 3 1;
#X connect 6 0 7 0;
#X connect 6 0 8 0;
#X connect 7 0 6 1;
#X connect 8 0 10 0;
#X connect 9 0 6 1;
#X connect 10 0 11 0;
#X connect 11 0 12 0;
#X connect 12 0 16 0;
#X connect 12 0 18 1;
#X connect 13 0 14 0;
#X connect 14 0 19 0;
#X connect 15 0 5 0;
#X connect 16 0 13 0;
#X connect 17 0 13 0;
#X connect 18 0 6 0;
#X connect 19 0 23 0;
#X connect 20 0 0 0;
#X connect 21 0 25 0;
#X connect 21 1 26 0;
#X connect 21 2 9 0;
#X connect 21 3 17 0;
#X connect 21 4 27 0;
#X connect 22 0 21 0;
#X connect 24 0 11 1;
#X connect 25 0 20 0;
#X connect 26 0 28 0;
#X connect 27 0 24 0;
#X connect 28 0 15 0;
#X restore 394 347 pd track-3;
#X obj 14 277 tabwrite \$0-ee;
#X obj -113 -92 r \$0-track;
#X obj -114 -14 tabread \$0-ss;
#X obj -97 13 tabread \$0-ee;
#X floatatom -97 36 5 0 0 0 - - -;
#X floatatom -114 64 5 0 0 0 - - -;
#X obj -114 -45 t f f f f;
#X obj -63 38 v \$0-index;
#X floatatom -80 95 5 0 0 0 - - -;
#X obj -80 72 tabread \$0-ll;
#X obj 14 232 t f b;
#X obj 41 253 v \$0-index;
#X obj 113 209 int;
#X obj 113 230 t f b;
#X obj 140 251 v \$0-index;
#X obj 113 275 tabwrite \$0-ss;
#X obj 221 207 t f b;
#X obj 248 228 v \$0-index;
#X obj 221 252 tabwrite \$0-ll;
#X obj 330 172 t b b b b b;
#X obj 837 127 outlet;
#X obj 837 70 inlet;
#X obj 837 98 tabread \$0-spectrum;
#X msg -224 261 set 1024;
#X msg -192 311 set 4096;
#X msg -209 288 set 2048;
#X msg 122 -18 0;
#X floatatom 274 186 5 0 0 0 - - -;
#X obj 139 -175 f \$0;
#X msg 139 -147 \; \$1-ll const 1;
#X obj 125 -50 t b b b b;
#X obj 256 -160 f \$0;
#X obj 89 -64 bng 15 250 50 0 empty empty empty 17 7 0 10 -262144 -1
-1;
#X msg 256 -136 \; \$1-ss 0 0 50 100 200 \; \$1-ee 0 50 100 200 255
;
#X obj -82 224 inlet~;
#X obj -81 452 outlet~;
#X obj 446 -51 inlet;
#X floatatom -58 309 5 0 0 0 - - -;
#X obj 10 -106 k_range 0 1 1 50;
#X msg 10 -135 0;
#X obj 471 84 tabwrite \$0-ss;
#X obj 471 43 t f b;
#X msg 552 58 0;
#X obj 496 113 t f b;
#X msg 577 128 0;
#X obj 496 154 tabwrite \$0-ee;
#X obj 522 183 t f b;
#X msg 603 198 0;
#X obj 522 224 tabwrite \$0-ll;
#X obj 603 88 tabwrite \$0-ss;
#X obj 603 47 t f b;
#X obj 628 117 t f b;
#X obj 628 158 tabwrite \$0-ee;
#X obj 654 187 t f b;
#X obj 654 228 tabwrite \$0-ll;
#X obj 558 330 tabwrite \$0-ss;
#X obj 558 289 t f b;
#X obj 583 359 t f b;
#X obj 583 400 tabwrite \$0-ee;
#X obj 609 429 t f b;
#X obj 609 470 tabwrite \$0-ll;
#X obj 690 334 tabwrite \$0-ss;
#X obj 690 293 t f b;
#X obj 715 363 t f b;
#X obj 715 404 tabwrite \$0-ee;
#X obj 741 433 t f b;
#X obj 741 474 tabwrite \$0-ll;
#X msg 684 62 1;
#X msg 709 132 1;
#X msg 735 202 1;
#X msg 639 304 2;
#X msg 664 374 2;
#X msg 690 444 2;
#X msg 771 308 3;
#X msg 796 379 3;
#X msg 823 448 3;
#X floatatom -114 -69 5 0 0 0 - - -;
#X obj 471 17 unpack f f f;
#X obj 603 21 unpack f f f;
#X obj 558 263 unpack f f f;
#X obj 690 267 unpack f f f;
#X obj 446 -25 route block gain t1 t2 t3 t4 tgl;
#X obj 92 390 pack f f f;
#X obj 110 330 t b f;
#X obj 150 328 t b f;
#X obj 89 420 print;
#X obj 53 356 expr int($f1*100)/100;
#X obj 98 307 expr int($f1*100)/100;
#X obj 213 393 expr int($f1*100)/100;
#X connect 0 0 7 0;
#X connect 0 0 9 0;
#X connect 1 0 2 0;
#X connect 1 0 2 1;
#X connect 1 1 3 0;
#X connect 1 1 3 1;
#X connect 2 0 4 0;
#X connect 3 0 4 0;
#X connect 4 0 13 0;
#X connect 5 0 81 0;
#X connect 9 0 1 0;
#X connect 10 0 22 0;
#X connect 11 0 10 0;
#X connect 12 0 25 0;
#X connect 13 0 14 0;
#X connect 14 0 30 0;
#X connect 15 0 56 0;
#X connect 15 0 130 0;
#X connect 16 0 17 0;
#X connect 16 0 131 0;
#X connect 17 0 54 0;
#X connect 18 0 24 0;
#X connect 20 0 60 0;
#X connect 20 0 71 0;
#X connect 20 0 132 0;
#X connect 21 0 74 0;
#X connect 23 0 26 0;
#X connect 23 1 63 0;
#X connect 24 0 23 0;
#X connect 25 0 67 0;
#X connect 25 1 69 0;
#X connect 25 2 68 0;
#X connect 26 0 27 0;
#X connect 26 0 29 0;
#X connect 27 0 28 0;
#X connect 28 0 26 1;
#X connect 29 0 6 0;
#X connect 30 0 6 0;
#X connect 31 0 33 0;
#X connect 32 0 31 0;
#X connect 34 0 19 0;
#X connect 41 0 38 0;
#X connect 42 0 39 0;
#X connect 43 0 40 0;
#X connect 45 0 120 0;
#X connect 46 0 49 0;
#X connect 47 0 48 0;
#X connect 48 0 16 0;
#X connect 49 0 15 0;
#X connect 50 0 46 0;
#X connect 50 1 47 0;
#X connect 50 2 53 0;
#X connect 50 3 51 0;
#X connect 52 0 20 0;
#X connect 53 0 52 0;
#X connect 54 0 44 0;
#X connect 54 1 55 0;
#X connect 55 0 44 1;
#X connect 56 0 57 0;
#X connect 57 0 59 0;
#X connect 57 1 58 0;
#X connect 58 0 59 1;
#X connect 60 0 62 0;
#X connect 60 1 61 0;
#X connect 61 0 62 1;
#X connect 63 0 34 0;
#X connect 63 1 41 0;
#X connect 63 2 42 0;
#X connect 63 3 43 0;
#X connect 65 0 66 0;
#X connect 66 0 64 0;
#X connect 67 0 22 0;
#X connect 68 0 22 0;
#X connect 69 0 22 0;
#X connect 70 0 12 0;
#X connect 72 0 73 0;
#X connect 74 0 70 0;
#X connect 74 1 32 0;
#X connect 74 2 72 0;
#X connect 74 3 75 0;
#X connect 74 3 83 0;
#X connect 75 0 77 0;
#X connect 76 0 21 0;
#X connect 78 0 9 0;
#X connect 78 0 79 0;
#X connect 80 0 125 0;
#X connect 81 0 13 1;
#X connect 82 0 5 0;
#X connect 83 0 82 0;
#X connect 85 0 84 0;
#X connect 85 1 86 0;
#X connect 86 0 84 1;
#X connect 87 0 89 0;
#X connect 87 1 88 0;
#X connect 88 0 89 1;
#X connect 90 0 92 0;
#X connect 90 1 91 0;
#X connect 91 0 92 1;
#X connect 94 0 93 0;
#X connect 94 1 111 0;
#X connect 95 0 96 0;
#X connect 95 1 112 0;
#X connect 97 0 98 0;
#X connect 97 1 113 0;
#X connect 100 0 99 0;
#X connect 100 1 114 0;
#X connect 101 0 102 0;
#X connect 101 1 115 0;
#X connect 103 0 104 0;
#X connect 103 1 116 0;
#X connect 106 0 105 0;
#X connect 106 1 117 0;
#X connect 107 0 108 0;
#X connect 107 1 118 0;
#X connect 109 0 110 0;
#X connect 109 1 119 0;
#X connect 111 0 93 1;
#X connect 112 0 96 1;
#X connect 113 0 98 1;
#X connect 114 0 99 1;
#X connect 115 0 102 1;
#X connect 116 0 104 1;
#X connect 117 0 105 1;
#X connect 118 0 108 1;
#X connect 119 0 110 1;
#X connect 120 0 50 0;
#X connect 121 0 85 0;
#X connect 121 1 87 0;
#X connect 121 2 90 0;
#X connect 122 0 94 0;
#X connect 122 1 95 0;
#X connect 122 2 97 0;
#X connect 123 0 100 0;
#X connect 123 1 101 0;
#X connect 123 2 103 0;
#X connect 124 0 106 0;
#X connect 124 1 107 0;
#X connect 124 2 109 0;
#X connect 125 0 12 0;
#X connect 125 1 82 0;
#X connect 125 2 121 0;
#X connect 125 3 122 0;
#X connect 125 4 123 0;
#X connect 125 5 124 0;
#X connect 125 6 18 0;
#X connect 126 0 129 0;
#X connect 127 0 126 0;
#X connect 127 1 126 1;
#X connect 128 0 126 0;
#X connect 128 1 126 2;
#X connect 130 0 126 0;
#X connect 131 0 127 0;
#X connect 132 0 128 0;
#X coords 0 -1 1 1 280 170 1 10 10;
