#N canvas 693 234 431 424 10;
#X obj 88 86 k_multiSlider 0 300;
#X obj 88 185 PRINT;
#X obj 124 348 PRINT;
#X obj 124 249 k_multiSlider 0 1;
#X obj 11 215 gemhead;
#X obj 11 302 color;
#X obj 11 270 rotateXYZ;
#X obj 28 241 unpack f f f;
#X obj 254 101 gemwin;
#X msg 237 49 destroy;
#X obj 11 330 cube 1;
#X msg 254 72 reset \, lighting 1 \, create \, 1;
#X obj 310 186 gemhead;
#X obj 310 216 world_light;
#X connect 0 0 1 0;
#X connect 0 0 7 0;
#X connect 3 0 2 0;
#X connect 3 0 5 1;
#X connect 4 0 6 0;
#X connect 5 0 10 0;
#X connect 6 0 5 0;
#X connect 7 0 6 1;
#X connect 7 1 6 2;
#X connect 7 2 6 3;
#X connect 9 0 8 0;
#X connect 11 0 8 0;
#X connect 12 0 13 0;
