#N canvas 0 22 450 300 10;
#X obj 226 75 unpack f f;
#X floatatom 226 105 5 0 0 0 - - -;
#X floatatom 283 102 5 0 0 0 - - -;
#X text 225 121 pitch;
#X text 282 119 velocity;
#X obj 242 151 / 127;
#X obj 226 49 inlet;
#X obj 166 273 throw~ all;
#X msg 242 173 \$1 50;
#X msg 308 48 0;
#X obj 308 26 r reset;
#X obj 242 194 line~;
#X obj 166 207 *~;
#X obj 113 141 noise~;
#X obj 166 104 mtof;
#X obj 166 238 *~ 0.5;
#X obj 134 170 bp~ 100 1;
#X connect 0 0 1 0;
#X connect 0 1 2 0;
#X connect 1 0 14 0;
#X connect 2 0 5 0;
#X connect 5 0 8 0;
#X connect 6 0 0 0;
#X connect 8 0 11 0;
#X connect 9 0 2 0;
#X connect 9 0 1 0;
#X connect 10 0 9 0;
#X connect 11 0 12 1;
#X connect 12 0 15 0;
#X connect 13 0 16 0;
#X connect 14 0 16 1;
#X connect 15 0 7 0;
#X connect 16 0 12 0;
