#N canvas 158 193 450 300 10;
#X obj 170 124 spigot;
#X obj 200 238 outlet;
#X obj 303 65 loadbang;
#X obj 303 112 + \$1;
#X obj 303 135 * 500;
#X msg 169 205 1;
#X obj 170 29 inlet;
#X msg 170 78 0;
#X obj 235 26 loadbang;
#X msg 235 49 1;
#X obj 203 102 tgl 15 0 empty empty empty 17 7 0 10 -262144 -1 -1 1
1;
#X floatatom 303 157 5 0 0 0 - - -;
#X obj 169 182 delay 500;
#X msg 303 88 1;
#X obj 169 149 t b b;
#X obj 170 55 t b b;
#X connect 0 0 14 0;
#X connect 2 0 13 0;
#X connect 3 0 4 0;
#X connect 4 0 11 0;
#X connect 5 0 10 0;
#X connect 6 0 15 0;
#X connect 7 0 10 0;
#X connect 8 0 9 0;
#X connect 9 0 10 0;
#X connect 10 0 0 1;
#X connect 11 0 12 1;
#X connect 12 0 5 0;
#X connect 13 0 3 0;
#X connect 14 0 12 0;
#X connect 14 1 1 0;
#X connect 15 0 7 0;
#X connect 15 1 0 0;
