#N canvas 229 124 209 345 10;
#X obj 18 149 spigot;
#X obj 45 194 onebang;
#X obj 51 125 tgl 15 0 empty empty empty 17 7 0 10 -262144 -1 -1 1
1;
#X msg 72 123 0;
#X obj 18 172 t a b;
#X obj 122 118 bng 15 250 50 0 empty empty empty 17 7 0 10 -262144
-1 -1;
#X obj 122 137 t b b;
#X msg 72 94 1;
#X obj 18 96 inlet;
#X obj 72 65 loadbang;
#X obj 18 223 outlet;
#X obj 144 83 inlet;
#X connect 0 0 4 0;
#X connect 1 0 3 0;
#X connect 2 0 0 1;
#X connect 3 0 2 0;
#X connect 4 0 10 0;
#X connect 4 1 1 0;
#X connect 5 0 6 0;
#X connect 6 0 7 0;
#X connect 6 1 1 1;
#X connect 7 0 2 0;
#X connect 8 0 0 0;
#X connect 9 0 7 0;
#X connect 11 0 5 0;
#X coords 0 345 1 344 40 35 0;
