#N canvas 404 141 448 398 10;
#X obj 97 163 gemhead;
#X obj 123 306 curve 2;
#X obj 97 221 t a b b b;
#X obj 30 249 loadbang;
#X obj 182 141 init \$1;
#X obj 233 140 init \$2;
#X obj 285 141 init \$3;
#X msg 30 271 width 1;
#X obj 97 191 color 1 1 1;
#X obj 181 189 pack f f f;
#X obj 142 267 list;
#X obj 181 270 list;
#X obj 260 240 pack f f f;
#X obj 261 192 init \$4;
#X obj 312 191 init \$5;
#X obj 364 192 init \$6;
#X connect 0 0 8 0;
#X connect 2 0 1 0;
#X connect 2 1 10 0;
#X connect 2 2 11 0;
#X connect 3 0 7 0;
#X connect 4 0 9 0;
#X connect 5 0 9 1;
#X connect 6 0 9 2;
#X connect 7 0 1 0;
#X connect 8 0 2 0;
#X connect 9 0 10 1;
#X connect 10 0 1 1;
#X connect 11 0 1 2;
#X connect 12 0 11 1;
#X connect 13 0 12 0;
#X connect 14 0 12 1;
#X connect 15 0 12 2;
