#N canvas 538 228 497 456 10;
#X obj 216 65 unpack f f;
#X floatatom 216 95 5 0 0 0 - - -;
#X floatatom 273 92 5 0 0 0 - - -;
#X text 215 111 pitch;
#X text 272 109 velocity;
#X obj 232 141 / 127;
#X obj 216 39 inlet;
#X msg 232 163 \$1 50;
#X msg 298 38 0;
#X obj 298 16 r reset;
#X obj 232 184 line~;
#X obj 156 197 *~;
#X obj 156 94 mtof~;
#X obj 156 227 *~ 0.2;
#X obj 156 263 throw~ piano;
#X obj 156 163 phasor~;
#X connect 0 0 1 0;
#X connect 0 1 2 0;
#X connect 1 0 12 0;
#X connect 2 0 5 0;
#X connect 5 0 7 0;
#X connect 6 0 0 0;
#X connect 7 0 10 0;
#X connect 8 0 2 0;
#X connect 8 0 1 0;
#X connect 9 0 8 0;
#X connect 10 0 11 1;
#X connect 11 0 13 0;
#X connect 12 0 15 0;
#X connect 13 0 14 0;
#X connect 15 0 11 0;
