#N canvas 592 95 691 547 10;
#X obj 65 78 r viewcin;
#X obj 65 224 s viewc;
#N canvas 499 22 708 806 vectorGUI 0;
#X obj -94 14 unpack 0 0 0 0 0 0 0 0 0;
#X obj -127 205 -;
#X obj -127 182 f;
#X obj -84 206 -;
#X obj -84 183 f;
#X obj -40 205 -;
#X obj -40 176 f;
#N canvas 333 233 450 432 unitvector3D 0;
#X obj 111 151 pow 2;
#X obj 81 131 moses 0;
#X obj 81 151 * -1;
#X obj 181 151 pow 2;
#X obj 149 132 moses 0;
#X obj 149 151 * -1;
#X obj 251 151 pow 2;
#X obj 219 132 moses 0;
#X obj 219 151 * -1;
#X obj 145 222 +;
#X obj 160 197 +;
#X obj 145 243 sqrt;
#X obj 312 247 /;
#X obj 341 247 /;
#X obj 368 247 /;
#X obj 310 211 f;
#X obj 338 211 f;
#X obj 365 211 f;
#X obj 289 183 t b b b f;
#X text 128 90 A - B;
#X obj 304 311 outlet;
#X obj 346 310 outlet;
#X obj 390 310 outlet;
#X obj 164 49 inlet;
#X obj 204 49 inlet;
#X obj 247 50 inlet;
#X obj 170 92 f;
#X obj 198 92 f;
#X obj 224 92 f;
#X obj 259 228 f;
#X obj 220 204 t b f;
#X obj 220 227 del 1;
#X connect 0 0 9 0;
#X connect 1 0 2 0;
#X connect 1 1 0 0;
#X connect 2 0 0 0;
#X connect 3 0 10 0;
#X connect 4 0 5 0;
#X connect 4 1 3 0;
#X connect 5 0 3 0;
#X connect 6 0 10 1;
#X connect 7 0 8 0;
#X connect 7 1 6 0;
#X connect 8 0 6 0;
#X connect 9 0 11 0;
#X connect 10 0 9 1;
#X connect 11 0 30 0;
#X connect 12 0 20 0;
#X connect 13 0 21 0;
#X connect 14 0 22 0;
#X connect 15 0 12 0;
#X connect 16 0 13 0;
#X connect 17 0 14 0;
#X connect 18 0 15 0;
#X connect 18 1 16 0;
#X connect 18 2 17 0;
#X connect 18 3 14 1;
#X connect 18 3 13 1;
#X connect 18 3 12 1;
#X connect 23 0 26 0;
#X connect 24 0 27 0;
#X connect 25 0 28 0;
#X connect 26 0 1 0;
#X connect 26 0 15 1;
#X connect 27 0 4 0;
#X connect 27 0 16 1;
#X connect 28 0 7 0;
#X connect 28 0 17 1;
#X connect 29 0 18 0;
#X connect 30 0 31 0;
#X connect 30 1 29 1;
#X connect 31 0 29 0;
#X restore 28 385 pd unitvector3D;
#N canvas 52 336 450 432 unitvector3D 0;
#X obj 111 151 pow 2;
#X obj 81 131 moses 0;
#X obj 81 151 * -1;
#X obj 181 151 pow 2;
#X obj 149 132 moses 0;
#X obj 149 151 * -1;
#X obj 251 151 pow 2;
#X obj 219 132 moses 0;
#X obj 219 151 * -1;
#X obj 145 222 +;
#X obj 160 197 +;
#X obj 145 243 sqrt;
#X obj 312 247 /;
#X obj 341 247 /;
#X obj 368 247 /;
#X obj 310 211 f;
#X obj 338 211 f;
#X obj 365 211 f;
#X obj 356 184 t b b b f;
#X text 128 90 A - B;
#X obj 304 311 outlet;
#X obj 346 310 outlet;
#X obj 390 310 outlet;
#X obj 164 49 inlet;
#X obj 204 49 inlet;
#X obj 247 50 inlet;
#X obj 170 92 f;
#X obj 199 92 f;
#X obj 225 92 f;
#X floatatom 162 283 5 0 0 0 - - -;
#X obj 249 218 f;
#X obj 210 194 t b f;
#X obj 210 217 del 1;
#X connect 0 0 9 0;
#X connect 1 0 2 0;
#X connect 1 1 0 0;
#X connect 2 0 0 0;
#X connect 3 0 10 0;
#X connect 4 0 5 0;
#X connect 4 1 3 0;
#X connect 5 0 3 0;
#X connect 6 0 10 1;
#X connect 7 0 8 0;
#X connect 7 1 6 0;
#X connect 8 0 6 0;
#X connect 9 0 11 0;
#X connect 10 0 9 1;
#X connect 11 0 29 0;
#X connect 11 0 31 0;
#X connect 12 0 20 0;
#X connect 13 0 21 0;
#X connect 14 0 22 0;
#X connect 15 0 12 0;
#X connect 16 0 13 0;
#X connect 17 0 14 0;
#X connect 18 0 15 0;
#X connect 18 1 16 0;
#X connect 18 2 17 0;
#X connect 18 3 14 1;
#X connect 18 3 13 1;
#X connect 18 3 12 1;
#X connect 23 0 26 0;
#X connect 24 0 27 0;
#X connect 25 0 28 0;
#X connect 26 0 1 0;
#X connect 26 0 15 1;
#X connect 27 0 4 0;
#X connect 27 0 16 1;
#X connect 28 0 7 0;
#X connect 28 0 17 1;
#X connect 30 0 18 0;
#X connect 31 0 32 0;
#X connect 31 1 30 1;
#X connect 32 0 30 0;
#X restore 204 401 pd unitvector3D;
#N canvas 333 233 450 432 unitvector3D 0;
#X obj 111 151 pow 2;
#X obj 81 131 moses 0;
#X obj 81 151 * -1;
#X obj 181 151 pow 2;
#X obj 149 132 moses 0;
#X obj 149 151 * -1;
#X obj 251 151 pow 2;
#X obj 219 132 moses 0;
#X obj 219 151 * -1;
#X obj 145 222 +;
#X obj 160 197 +;
#X obj 145 243 sqrt;
#X obj 312 247 /;
#X obj 341 247 /;
#X obj 368 247 /;
#X obj 310 211 f;
#X obj 338 211 f;
#X obj 365 211 f;
#X obj 227 194 t b b b f;
#X text 128 90 A - B;
#X obj 304 311 outlet;
#X obj 346 310 outlet;
#X obj 390 310 outlet;
#X obj 170 92 nop;
#X obj 198 92 nop;
#X obj 224 92 nop;
#X obj 164 49 inlet;
#X obj 204 49 inlet;
#X obj 247 50 inlet;
#X floatatom 490 643 5 0 0 0 - - -;
#X floatatom 524 642 5 0 0 0 - - -;
#X floatatom 559 641 5 0 0 0 - - -;
#X obj 250 249 f;
#X obj 211 225 t b f;
#X obj 211 248 del 1;
#X connect 0 0 9 0;
#X connect 1 0 2 0;
#X connect 1 1 0 0;
#X connect 2 0 0 0;
#X connect 3 0 10 0;
#X connect 4 0 5 0;
#X connect 4 1 3 0;
#X connect 5 0 3 0;
#X connect 6 0 10 1;
#X connect 7 0 8 0;
#X connect 7 1 6 0;
#X connect 8 0 6 0;
#X connect 9 0 11 0;
#X connect 10 0 9 1;
#X connect 11 0 33 0;
#X connect 12 0 20 0;
#X connect 13 0 21 0;
#X connect 14 0 22 0;
#X connect 15 0 12 0;
#X connect 16 0 13 0;
#X connect 17 0 14 0;
#X connect 18 0 15 0;
#X connect 18 1 16 0;
#X connect 18 2 17 0;
#X connect 18 3 14 1;
#X connect 18 3 13 1;
#X connect 18 3 12 1;
#X connect 23 0 1 0;
#X connect 23 0 15 1;
#X connect 24 0 4 0;
#X connect 24 0 16 1;
#X connect 25 0 7 0;
#X connect 25 0 17 1;
#X connect 26 0 23 0;
#X connect 27 0 24 0;
#X connect 28 0 25 0;
#X connect 32 0 18 0;
#X connect 33 0 34 0;
#X connect 33 1 32 1;
#X connect 34 0 32 0;
#X restore -127 235 pd unitvector3D;
#X obj -127 268 +;
#X obj -100 266 +;
#X obj -71 268 +;
#X obj 148 394 r wdim;
#X obj 148 422 unpack;
#X obj 148 449 /;
#X obj 105 423 r zoom;
#X obj -148 606 *;
#X obj -120 606 *;
#X obj -91 605 *;
#X obj 11 625 *;
#X obj 93 623 *;
#X obj 159 624 *;
#X obj 49 82 f;
#X obj 76 82 f;
#X obj 104 81 f;
#X obj 255 92 -;
#X obj 281 92 -;
#X obj 312 92 -;
#X obj 270 56 unpack 0 0 0;
#N canvas 333 233 450 432 unitvector3D 0;
#X obj 111 151 pow 2;
#X obj 81 131 moses 0;
#X obj 81 151 * -1;
#X obj 181 151 pow 2;
#X obj 149 132 moses 0;
#X obj 149 151 * -1;
#X obj 251 151 pow 2;
#X obj 219 132 moses 0;
#X obj 219 151 * -1;
#X obj 145 222 +;
#X obj 160 197 +;
#X obj 145 243 sqrt;
#X obj 312 247 /;
#X obj 341 247 /;
#X obj 368 247 /;
#X obj 310 211 f;
#X obj 338 211 f;
#X obj 365 211 f;
#X obj 227 194 t b b b f;
#X text 128 90 A - B;
#X obj 304 311 outlet;
#X obj 346 310 outlet;
#X obj 390 310 outlet;
#X obj 164 49 inlet;
#X obj 204 49 inlet;
#X obj 247 50 inlet;
#X obj 170 92 f;
#X obj 199 92 f;
#X obj 225 92 f;
#X obj 269 238 f;
#X obj 230 214 t b f;
#X obj 230 237 del 1;
#X connect 0 0 9 0;
#X connect 1 0 2 0;
#X connect 1 1 0 0;
#X connect 2 0 0 0;
#X connect 3 0 10 0;
#X connect 4 0 5 0;
#X connect 4 1 3 0;
#X connect 5 0 3 0;
#X connect 6 0 10 1;
#X connect 7 0 8 0;
#X connect 7 1 6 0;
#X connect 8 0 6 0;
#X connect 9 0 11 0;
#X connect 10 0 9 1;
#X connect 11 0 30 0;
#X connect 12 0 20 0;
#X connect 13 0 21 0;
#X connect 14 0 22 0;
#X connect 15 0 12 0;
#X connect 16 0 13 0;
#X connect 17 0 14 0;
#X connect 18 0 15 0;
#X connect 18 1 16 0;
#X connect 18 2 17 0;
#X connect 18 3 14 1;
#X connect 18 3 13 1;
#X connect 18 3 12 1;
#X connect 23 0 26 0;
#X connect 24 0 27 0;
#X connect 25 0 28 0;
#X connect 26 0 1 0;
#X connect 26 0 15 1;
#X connect 27 0 4 0;
#X connect 27 0 16 1;
#X connect 28 0 7 0;
#X connect 28 0 17 1;
#X connect 29 0 18 0;
#X connect 30 0 31 0;
#X connect 30 1 29 1;
#X connect 31 0 29 0;
#X restore 250 124 pd unitvector3D;
#X obj 277 201 s tcvu;
#X obj 250 153 pack 0 0 0;
#X text 322 201 ---> select objects;
#X obj 21 437 t b f;
#X obj 74 519 t b f;
#X obj -145 -44 inlet;
#N canvas 426 169 450 300 crossproduct 0;
#X obj 112 154 *;
#X obj 142 154 *;
#X obj 139 183 -;
#X obj 217 153 *;
#X obj 250 154 *;
#X obj 229 182 -;
#X obj 336 155 *;
#X obj 372 156 *;
#X obj 356 183 -;
#X obj 73 123 f;
#X obj 99 123 f;
#X obj 133 123 f;
#X obj 159 123 f;
#X obj 196 127 f;
#X obj 222 127 f;
#X obj 255 127 f;
#X obj 281 128 f;
#X obj 317 130 f;
#X obj 347 130 f;
#X obj 375 129 f;
#X obj 405 129 f;
#X obj 127 91 t b b b b b b b b b b b b f f;
#X obj 127 68 unpack 0 0 0 0 0 0;
#X obj 192 204 pack 0 0 0;
#X obj 123 26 inlet;
#X obj 194 238 outlet;
#X connect 0 0 2 0;
#X connect 1 0 2 1;
#X connect 2 0 23 0;
#X connect 3 0 5 0;
#X connect 4 0 5 1;
#X connect 5 0 23 1;
#X connect 6 0 8 0;
#X connect 7 0 8 1;
#X connect 8 0 23 2;
#X connect 9 0 0 0;
#X connect 10 0 0 1;
#X connect 11 0 1 0;
#X connect 12 0 1 1;
#X connect 13 0 3 0;
#X connect 14 0 3 1;
#X connect 15 0 4 0;
#X connect 16 0 4 1;
#X connect 17 0 6 0;
#X connect 18 0 6 1;
#X connect 19 0 7 0;
#X connect 20 0 7 1;
#X connect 21 0 9 0;
#X connect 21 1 10 0;
#X connect 21 2 11 0;
#X connect 21 3 12 0;
#X connect 21 4 13 0;
#X connect 21 5 14 0;
#X connect 21 6 15 0;
#X connect 21 7 16 0;
#X connect 21 8 17 0;
#X connect 21 9 18 0;
#X connect 21 10 19 0;
#X connect 21 11 20 0;
#X connect 21 12 14 1;
#X connect 21 13 20 1;
#X connect 22 0 21 0;
#X connect 22 1 18 1;
#X connect 22 1 12 1;
#X connect 22 2 16 1;
#X connect 22 2 10 1;
#X connect 22 3 17 1;
#X connect 22 3 15 1;
#X connect 22 4 9 1;
#X connect 22 4 19 1;
#X connect 22 5 11 1;
#X connect 22 5 13 1;
#X connect 23 0 25 0;
#X connect 24 0 22 0;
#X restore 28 315 pd crossproduct;
#X obj 28 348 unpack 0 0 0;
#X obj 49 119 pack 0 0 0;
#X obj 28 230 list;
#X obj 204 233 pack 0 0 0;
#X obj 117 151 unpack 0 0 0;
#X obj 28 290 pack 0 0 0 0 0 0;
#X obj 117 190 t b f;
#X obj 28 259 unpack 0 0 0;
#X obj 204 302 pack 0 0 0 0 0 0;
#X obj 204 264 unpack 0 0 0;
#X obj 284 264 unpack 0 0 0;
#N canvas 426 169 450 300 crossproduct 0;
#X obj 112 154 *;
#X obj 142 154 *;
#X obj 139 183 -;
#X obj 217 153 *;
#X obj 250 154 *;
#X obj 229 182 -;
#X obj 336 155 *;
#X obj 372 156 *;
#X obj 356 183 -;
#X obj 73 123 f;
#X obj 99 123 f;
#X obj 133 123 f;
#X obj 159 123 f;
#X obj 196 127 f;
#X obj 222 127 f;
#X obj 255 127 f;
#X obj 281 128 f;
#X obj 317 130 f;
#X obj 347 130 f;
#X obj 375 129 f;
#X obj 405 129 f;
#X obj 127 91 t b b b b b b b b b b b b f f;
#X obj 127 68 unpack 0 0 0 0 0 0;
#X obj 192 204 pack 0 0 0;
#X obj 123 26 inlet;
#X obj 194 238 outlet;
#X connect 0 0 2 0;
#X connect 1 0 2 1;
#X connect 2 0 23 0;
#X connect 3 0 5 0;
#X connect 4 0 5 1;
#X connect 5 0 23 1;
#X connect 6 0 8 0;
#X connect 7 0 8 1;
#X connect 8 0 23 2;
#X connect 9 0 0 0;
#X connect 10 0 0 1;
#X connect 11 0 1 0;
#X connect 12 0 1 1;
#X connect 13 0 3 0;
#X connect 14 0 3 1;
#X connect 15 0 4 0;
#X connect 16 0 4 1;
#X connect 17 0 6 0;
#X connect 18 0 6 1;
#X connect 19 0 7 0;
#X connect 20 0 7 1;
#X connect 21 0 9 0;
#X connect 21 1 10 0;
#X connect 21 2 11 0;
#X connect 21 3 12 0;
#X connect 21 4 13 0;
#X connect 21 5 14 0;
#X connect 21 6 15 0;
#X connect 21 7 16 0;
#X connect 21 8 17 0;
#X connect 21 9 18 0;
#X connect 21 10 19 0;
#X connect 21 11 20 0;
#X connect 21 12 14 1;
#X connect 21 13 20 1;
#X connect 22 0 21 0;
#X connect 22 1 18 1;
#X connect 22 1 12 1;
#X connect 22 2 16 1;
#X connect 22 2 10 1;
#X connect 22 3 17 1;
#X connect 22 3 15 1;
#X connect 22 4 9 1;
#X connect 22 4 19 1;
#X connect 22 5 11 1;
#X connect 22 5 13 1;
#X connect 23 0 25 0;
#X connect 24 0 22 0;
#X restore 204 328 pd crossproduct;
#X obj 204 355 unpack 0 0 0;
#X obj 250 175 t b a;
#X obj 105 449 * 10;
#X obj 105 481 * 1.4;
#X obj -148 513 t b b b;
#X obj -42 42 f;
#X obj -13 41 f;
#X obj 14 42 f;
#X obj -145 8 outlet;
#N canvas 418 68 731 695 mauszeiger 0;
#X obj -148 32 r wdim;
#X obj -157 53 unpack;
#X obj -228 148 /;
#X obj -200 148 /;
#X obj -178 115 / 2;
#X obj -150 115 / 2;
#X obj -228 178 - 1;
#X obj -199 177 - 1;
#X obj -33 258 *;
#X obj -4 258 *;
#X obj 25 259 *;
#X obj 102 320 +;
#X obj 131 320 +;
#X obj 159 320 +;
#X obj 58 417 +;
#X obj 83 417 +;
#X obj 114 417 +;
#X obj -59 231 f;
#X obj -28 231 f;
#X obj 0 231 f;
#X obj -35 198 t b f;
#X obj 5 198 t b f;
#X obj 42 199 t b f;
#X obj 207 275 *;
#X obj 236 275 *;
#X obj 265 276 *;
#X obj 184 249 f;
#X obj 212 248 f;
#X obj 240 248 f;
#X obj 213 216 t b f;
#X obj 253 216 t b f;
#X obj 290 217 t b f;
#X obj 8 572 s mauszeiger;
#X obj 8 545 pack 0 0 0;
#X obj -252 84 r mrx;
#X obj -211 85 r mry;
#X obj -53 173 unpack 0 0 0;
#X obj 212 190 unpack 0 0 0;
#X obj 85 285 unpack 0 0 0;
#X obj -18 82 inlet;
#X obj 42 80 inlet;
#X obj 94 79 inlet;
#X floatatom -130 151 5 0 0 0 - - -;
#X connect 0 0 1 0;
#X connect 1 0 4 0;
#X connect 1 1 5 0;
#X connect 2 0 6 0;
#X connect 3 0 7 0;
#X connect 4 0 2 1;
#X connect 5 0 3 1;
#X connect 5 0 42 0;
#X connect 6 0 17 0;
#X connect 6 0 18 0;
#X connect 6 0 19 0;
#X connect 7 0 28 0;
#X connect 7 0 27 0;
#X connect 7 0 26 0;
#X connect 8 0 11 1;
#X connect 9 0 12 1;
#X connect 10 0 13 1;
#X connect 11 0 14 0;
#X connect 12 0 15 0;
#X connect 13 0 16 0;
#X connect 14 0 33 0;
#X connect 15 0 33 1;
#X connect 16 0 33 2;
#X connect 17 0 8 0;
#X connect 18 0 9 0;
#X connect 19 0 10 0;
#X connect 20 0 17 0;
#X connect 20 1 8 1;
#X connect 21 0 18 0;
#X connect 21 1 9 1;
#X connect 22 0 19 0;
#X connect 22 1 10 1;
#X connect 23 0 11 0;
#X connect 24 0 12 0;
#X connect 25 0 13 0;
#X connect 26 0 23 0;
#X connect 27 0 24 0;
#X connect 28 0 25 0;
#X connect 29 0 26 0;
#X connect 29 1 23 1;
#X connect 30 0 27 0;
#X connect 30 1 24 1;
#X connect 31 0 28 0;
#X connect 31 1 25 1;
#X connect 33 0 32 0;
#X connect 34 0 2 0;
#X connect 35 0 3 0;
#X connect 36 0 20 0;
#X connect 36 1 21 0;
#X connect 36 2 22 0;
#X connect 37 0 29 0;
#X connect 37 1 30 0;
#X connect 37 2 31 0;
#X connect 38 0 14 1;
#X connect 38 1 15 1;
#X connect 38 2 16 1;
#X connect 39 0 36 0;
#X connect 40 0 38 0;
#X connect 41 0 37 0;
#X restore -148 703 pd mauszeiger;
#X obj -148 642 pack 0 0 0;
#X obj -127 296 pack 0 0 0;
#X obj -73 677 pack 0 0 0;
#X obj 255 -16 r mauszeiger;
#X obj 255 23 unpack 0 0 0;
#X floatatom -148 543 5 0 0 0 - - -;
#X floatatom -120 575 5 0 0 0 - - -;
#X floatatom -109 543 5 0 0 0 - - -;
#X obj 74 544 t b b b;
#X floatatom 11 579 5 0 0 0 - - -;
#X floatatom 93 580 5 0 0 0 - - -;
#X floatatom 159 580 5 0 0 0 - - -;
#X obj 150 545 * -1;
#X obj -127 151 t b f f;
#X obj -84 104 t b f f;
#X obj -40 151 t b f f;
#X obj -145 -21 t a a a;
#X connect 0 0 73 0;
#X connect 0 1 74 0;
#X connect 0 2 75 0;
#X connect 0 3 55 0;
#X connect 0 4 56 0;
#X connect 0 5 57 0;
#X connect 0 6 23 0;
#X connect 0 7 24 0;
#X connect 0 8 25 0;
#X connect 1 0 9 0;
#X connect 1 0 41 0;
#X connect 2 0 1 0;
#X connect 3 0 9 1;
#X connect 3 0 41 1;
#X connect 4 0 3 0;
#X connect 5 0 9 2;
#X connect 5 0 41 2;
#X connect 6 0 5 0;
#X connect 7 0 65 0;
#X connect 7 1 66 0;
#X connect 7 2 67 0;
#X connect 8 0 69 0;
#X connect 8 1 70 0;
#X connect 8 2 71 0;
#X connect 9 0 10 0;
#X connect 9 1 11 0;
#X connect 9 2 12 0;
#X connect 10 0 61 0;
#X connect 11 0 61 1;
#X connect 12 0 61 2;
#X connect 13 0 14 0;
#X connect 14 0 15 0;
#X connect 14 1 15 1;
#X connect 15 0 53 1;
#X connect 16 0 52 0;
#X connect 17 0 60 0;
#X connect 18 0 60 1;
#X connect 19 0 60 2;
#X connect 20 0 62 0;
#X connect 21 0 62 1;
#X connect 22 0 62 2;
#X connect 23 0 39 0;
#X connect 24 0 39 1;
#X connect 25 0 39 2;
#X connect 26 0 30 0;
#X connect 27 0 30 1;
#X connect 28 0 30 2;
#X connect 29 0 26 1;
#X connect 29 1 27 1;
#X connect 29 2 28 1;
#X connect 30 0 32 0;
#X connect 30 1 32 1;
#X connect 30 2 32 2;
#X connect 32 0 51 0;
#X connect 34 0 54 0;
#X connect 34 1 19 1;
#X connect 34 1 18 1;
#X connect 34 1 17 1;
#X connect 35 0 68 0;
#X connect 35 1 72 0;
#X connect 36 0 76 0;
#X connect 37 0 38 0;
#X connect 37 0 48 0;
#X connect 38 0 7 0;
#X connect 38 1 7 1;
#X connect 38 2 7 2;
#X connect 39 0 40 1;
#X connect 40 0 45 0;
#X connect 41 0 42 0;
#X connect 41 0 47 0;
#X connect 42 0 44 0;
#X connect 42 1 43 4;
#X connect 42 2 43 5;
#X connect 43 0 37 0;
#X connect 44 0 40 0;
#X connect 44 1 43 3;
#X connect 45 0 43 0;
#X connect 45 1 43 1;
#X connect 45 2 43 2;
#X connect 46 0 49 0;
#X connect 47 0 46 0;
#X connect 47 1 46 1;
#X connect 47 2 46 2;
#X connect 48 0 46 3;
#X connect 48 1 46 4;
#X connect 48 2 46 5;
#X connect 49 0 50 0;
#X connect 50 0 8 0;
#X connect 50 1 8 1;
#X connect 50 2 8 2;
#X connect 51 1 31 0;
#X connect 52 0 35 0;
#X connect 52 0 53 0;
#X connect 53 0 34 0;
#X connect 54 0 65 0;
#X connect 54 1 66 0;
#X connect 54 2 67 0;
#X connect 55 0 2 1;
#X connect 56 0 4 1;
#X connect 57 0 6 1;
#X connect 60 0 59 0;
#X connect 61 0 59 1;
#X connect 62 0 59 2;
#X connect 63 0 64 0;
#X connect 64 0 26 0;
#X connect 64 1 27 0;
#X connect 64 2 28 0;
#X connect 65 0 17 0;
#X connect 66 0 18 0;
#X connect 67 0 19 0;
#X connect 68 0 69 0;
#X connect 68 1 70 0;
#X connect 68 2 71 0;
#X connect 69 0 20 0;
#X connect 70 0 21 0;
#X connect 71 0 22 0;
#X connect 72 0 20 1;
#X connect 72 0 21 1;
#X connect 72 0 22 1;
#X connect 73 0 2 0;
#X connect 73 1 1 1;
#X connect 73 2 10 1;
#X connect 74 0 4 0;
#X connect 74 1 3 1;
#X connect 74 2 11 1;
#X connect 75 0 6 0;
#X connect 75 1 5 1;
#X connect 75 2 12 1;
#X connect 76 0 58 0;
#X connect 76 1 0 0;
#X connect 76 2 29 0;
#X restore 65 198 pd vectorGUI;
#N canvas 190 428 450 300 unpack 0;
#X floatatom 102 102 5 0 0 0 - - -;
#X floatatom 134 102 5 0 0 0 - - -;
#X floatatom 166 102 5 0 0 0 - - -;
#X obj 100 14 inlet;
#X obj 129 62 unpack 0 0 0 0 0 0 0 0 0 0 0 0 0 0 0 0 0 0;
#X floatatom 102 118 5 0 0 0 - - -;
#X floatatom 134 118 5 0 0 0 - - -;
#X floatatom 166 118 5 0 0 0 - - -;
#X floatatom 102 134 5 0 0 0 - - -;
#X floatatom 134 134 5 0 0 0 - - -;
#X floatatom 166 134 5 0 0 0 - - -;
#X connect 3 0 4 0;
#X connect 4 0 0 0;
#X connect 4 1 1 0;
#X connect 4 2 2 0;
#X connect 4 3 5 0;
#X connect 4 4 6 0;
#X connect 4 5 7 0;
#X connect 4 6 8 0;
#X connect 4 7 9 0;
#X connect 4 8 10 0;
#X coords 0 -1 1 1 100 50 1 100 100;
#X restore 103 138 pd unpack;
#X obj 65 106 t a a;
#X obj -255 -18 r tcvu;
#X obj -255 10 unpack 0 0 0;
#X obj -270 112 *;
#X obj -243 112 *;
#X obj -217 112 *;
#X msg -221 -88 1;
#X obj -240 -50 + 1;
#X obj -270 80 t f f f;
#X obj -255 139 r viewc;
#X obj -270 195 +;
#X obj -243 195 +;
#X obj -217 194 +;
#X obj -255 168 unpack 0 0 0;
#X obj -270 256 s uzi;
#X obj -270 228 pack 0 0 0;
#X obj 45 -225 r uzii;
#X obj 63 48 s agtol;
#X obj -106 -21 r tcvu;
#X obj -127 10 list;
#X obj -270 -88 until;
#X obj 63 -17 loadbang;
#X obj 115 47 s agtolang;
#X obj -128 -85 sel 1;
#X obj -127 -133 r mouseleft3;
#X obj -127 -107 tgl 15 0 empty empty empty 17 7 0 10 -262144 -1 -1
0 1;
#X obj -91 193 list;
#X obj -57 171 f;
#X obj -30 170 + 1;
#X obj -3 170 % 20;
#X floatatom -57 194 5 0 0 0 - - -;
#X obj -57 214 t f f;
#X obj -91 274 outlet;
#X obj 6 275 outlet;
#X obj -44 275 outlet;
#X obj -270 -50 i 0;
#X obj -108 143 t b b b b;
#X obj -127 37 t b b a;
#X obj -255 37 * 0.1;
#X obj -216 38 * 0.1;
#X obj -175 38 * 0.1;
#X floatatom 171 120 5 0 0 0 repeat-time - -;
#X obj -108 86 until;
#X msg -108 58 20;
#X obj -270 -145 t b b;
#X obj 45 -159 t b b;
#X msg -29 59 set \$1;
#X msg 246 185 20;
#X obj 246 135 init \$1;
#X obj 246 159 moses 1;
#X obj 45 -197 t b a;
#X obj -127 -59 t b b;
#X obj -44 3 s ch-function;
#X msg -44 -22 1;
#X obj -39 -84 sel 1;
#X obj -38 -106 tgl 15 0 empty empty empty 17 7 0 10 -262144 -1 -1
0 1;
#X obj -38 -132 r mouseright3;
#X obj -40 -61 t b b;
#X msg -6 -22 2;
#X msg -270 -110 200;
#X msg 63 11 0.3;
#X connect 0 0 4 0;
#X connect 2 0 1 0;
#X connect 4 0 2 0;
#X connect 4 1 3 0;
#X connect 5 0 6 0;
#X connect 6 0 42 0;
#X connect 6 1 43 0;
#X connect 6 2 44 0;
#X connect 7 0 14 0;
#X connect 8 0 15 0;
#X connect 9 0 16 0;
#X connect 10 0 39 0;
#X connect 11 0 39 1;
#X connect 12 0 7 0;
#X connect 12 1 8 0;
#X connect 12 2 9 0;
#X connect 13 0 17 0;
#X connect 14 0 19 0;
#X connect 15 0 19 1;
#X connect 16 0 19 2;
#X connect 17 0 14 1;
#X connect 17 1 15 1;
#X connect 17 2 16 1;
#X connect 19 0 18 0;
#X connect 20 0 54 0;
#X connect 22 0 23 1;
#X connect 23 0 41 0;
#X connect 24 0 39 0;
#X connect 25 0 64 0;
#X connect 27 0 55 0;
#X connect 28 0 29 0;
#X connect 29 0 27 0;
#X connect 30 0 36 0;
#X connect 31 0 32 0;
#X connect 31 0 34 0;
#X connect 32 0 33 0;
#X connect 33 0 31 1;
#X connect 34 0 35 0;
#X connect 35 0 38 0;
#X connect 35 1 37 0;
#X connect 39 0 11 0;
#X connect 39 0 12 0;
#X connect 40 0 63 0;
#X connect 40 1 30 0;
#X connect 40 2 31 0;
#X connect 40 3 10 0;
#X connect 41 1 47 0;
#X connect 41 2 30 1;
#X connect 42 0 7 1;
#X connect 43 0 8 1;
#X connect 44 0 9 1;
#X connect 45 0 50 0;
#X connect 45 0 33 1;
#X connect 46 0 40 0;
#X connect 47 0 46 0;
#X connect 48 0 63 0;
#X connect 48 1 24 1;
#X connect 49 0 48 0;
#X connect 49 1 46 1;
#X connect 50 0 47 0;
#X connect 51 0 45 0;
#X connect 52 0 53 0;
#X connect 53 0 51 0;
#X connect 53 1 45 0;
#X connect 54 0 49 0;
#X connect 55 0 23 0;
#X connect 55 1 57 0;
#X connect 57 0 56 0;
#X connect 58 0 61 0;
#X connect 59 0 58 0;
#X connect 60 0 59 0;
#X connect 61 0 23 0;
#X connect 61 1 62 0;
#X connect 62 0 56 0;
#X connect 63 0 24 0;
#X connect 64 0 21 0;
#X connect 64 0 26 0;
#X coords 0 -1 1 1 105 90 1 100 100;
