#N canvas 265 171 907 518 10;
#X obj 61 -156 inlet;
#X obj 361 -97 inlet;
#X obj 267 -301 loadbang;
#X obj 267 -219 v canvas-x;
#X obj 344 -218 v canvas-y;
#X floatatom 266 -159 5 0 0 0 - - -;
#X floatatom 343 -158 5 0 0 0 - - -;
#X obj 267 -280 bng 15 250 50 0 empty empty empty 17 7 0 10 -262144
-1 -1;
#X obj 266 -133 expr $f1/$f2;
#X floatatom 266 -109 5 0 0 0 - - -;
#X obj 266 -86 * 4;
#X floatatom 266 -62 5 0 0 0 - - -;
#X obj 8 86 inlet;
#X obj 8 201 outlet;
#X obj 86 64 k_2point;
#X obj 8 154 scaleXYZ;
#X obj 8 116 translateXYZ;
#X obj 61 -128 unpack f f;
#X obj 361 -71 unpack f f;
#X text 143 63 vector;
#X obj 61 -70 expr ($f1/$f2)*$f3-$f4;
#X floatatom 61 -96 5 0 0 0 - - -;
#X floatatom 61 -42 5 0 0 0 - - -;
#X floatatom 118 -99 5 0 0 0 - - -;
#X obj 266 -40 * 2;
#X obj 119 -42 expr ($f1/$f2)*-8+4;
#X floatatom 119 -20 5 0 0 0 - - -;
#X obj 61 7 pack f f;
#X obj 361 13 expr ($f1/$f2)*$f3-$f4;
#X obj 419 41 expr ($f1/$f2)*-8+4;
#X obj 361 78 pack f f;
#X obj 267 -244 t b b b;
#X msg 421 -219 500;
#X obj 421 -197 t f f;
#X obj 267 -194 moses 1;
#X obj 344 -194 moses 1;
#X obj 361 100 t b a;
#X obj -95 -175 loadbang;
#X obj -95 -148 t b b b b;
#X floatatom -9 -63 5 0 0 0 - - -;
#X floatatom -61 -12 5 0 0 0 - - -;
#X floatatom -138 75 5 0 0 0 - - -;
#X obj -138 104 s \$0-x;
#X obj -94 73 s \$0-y;
#X obj -9 -40 s \$0-y1;
#X msg -9 -118 0;
#X obj -9 -95 + \$4;
#X msg -61 -61 0;
#X obj -61 -38 + \$3;
#X obj -61 9 s \$0-x1;
#X msg -138 21 0;
#X obj -138 44 + \$1;
#X msg -94 6 0;
#X obj -94 29 + \$2;
#X floatatom -94 51 5 0 0 0 - - -;
#X obj 99 -157 r \$0-x;
#X obj 147 -159 r \$0-y;
#X obj 402 -99 r \$0-x1;
#X obj 453 -98 r \$0-y1;
#X floatatom 419 -35 5 0 0 0 - - -;
#X floatatom 361 -33 5 0 0 0 - - -;
#X obj 267 -263 del 50;
#X connect 0 0 17 0;
#X connect 1 0 18 0;
#X connect 2 0 7 0;
#X connect 3 0 34 0;
#X connect 4 0 35 0;
#X connect 5 0 8 0;
#X connect 5 0 20 1;
#X connect 5 0 28 1;
#X connect 6 0 8 1;
#X connect 6 0 25 1;
#X connect 6 0 29 1;
#X connect 7 0 61 0;
#X connect 8 0 9 0;
#X connect 9 0 10 0;
#X connect 10 0 11 0;
#X connect 11 0 24 0;
#X connect 11 0 20 3;
#X connect 11 0 28 3;
#X connect 12 0 16 0;
#X connect 14 0 16 1;
#X connect 14 1 16 2;
#X connect 14 2 15 1;
#X connect 14 3 15 2;
#X connect 15 0 13 0;
#X connect 16 0 15 0;
#X connect 17 0 21 0;
#X connect 17 1 23 0;
#X connect 18 0 60 0;
#X connect 18 1 59 0;
#X connect 20 0 22 0;
#X connect 21 0 20 0;
#X connect 22 0 27 0;
#X connect 23 0 25 0;
#X connect 24 0 20 2;
#X connect 24 0 28 2;
#X connect 25 0 26 0;
#X connect 26 0 27 1;
#X connect 27 0 14 0;
#X connect 28 0 30 0;
#X connect 29 0 30 1;
#X connect 30 0 36 0;
#X connect 31 0 3 0;
#X connect 31 1 4 0;
#X connect 31 2 32 0;
#X connect 32 0 33 0;
#X connect 33 0 5 0;
#X connect 33 1 6 0;
#X connect 34 1 5 0;
#X connect 35 1 6 0;
#X connect 36 0 26 0;
#X connect 36 1 14 1;
#X connect 37 0 38 0;
#X connect 38 0 50 0;
#X connect 38 1 52 0;
#X connect 38 2 47 0;
#X connect 38 3 45 0;
#X connect 39 0 44 0;
#X connect 40 0 49 0;
#X connect 41 0 42 0;
#X connect 45 0 46 0;
#X connect 46 0 39 0;
#X connect 47 0 48 0;
#X connect 48 0 40 0;
#X connect 50 0 51 0;
#X connect 51 0 41 0;
#X connect 52 0 53 0;
#X connect 53 0 54 0;
#X connect 54 0 43 0;
#X connect 55 0 21 0;
#X connect 56 0 23 0;
#X connect 57 0 60 0;
#X connect 58 0 59 0;
#X connect 59 0 29 0;
#X connect 60 0 28 0;
#X connect 61 0 31 0;
