#N canvas 602 43 762 681 10;
#X obj 22 28 cnv 12 5 5 empty \$0-low.label.r 60 0 7 0 9 -262144 -1
0;
#X obj 143 30 cnv 12 5 5 empty \$0-high.label.r 72 2 7 0 9 -262144
-1 0;
#X obj 557 192 loadbang;
#X msg 557 215 5;
#X obj 557 240 s \$0-octave.slider.r;
#X obj 287 102 r \$0-octave.slider;
#X msg 101 361 72 127;
#X obj 101 338 prepend set;
#X obj 287 176 * 12;
#X obj 189 157 unpack f f;
#X obj 189 205 + 60;
#X obj 189 267 pack f f;
#X obj 287 249 makefilename %d;
#X msg 287 280 label \$1;
#X obj 287 311 s \$0-low.label.r;
#X obj 417 223 + 12;
#X obj 417 249 makefilename %d;
#X msg 417 280 label \$1;
#X obj 417 311 s \$0-high.label.r;
#X obj 189 343 outlet;
#X msg 189 311 \$1;
#N canvas 335 331 450 300 (subpatch) 0;
#X obj 0 2 vsl 20 60 0 127 0 0 \$0-C0 \$0-C0.r z 7 55 0 10 -262144
-262144 -1 5900 0;
#N canvas 616 320 450 300 w 0;
#N canvas 489 145 872 547 RGB_____________ 0;
#X obj 243 -28 inlet;
#X obj 217 386 outlet;
#X obj 405 161 t b f;
#X obj 339 204 +;
#X obj 339 229 t b f;
#X obj 339 260 +;
#X obj 264 386 outlet;
#X obj 311 386 outlet;
#X obj 311 363 f;
#X obj 264 362 f;
#X obj 217 362 f;
#X obj 289 179 * -65536;
#X obj 339 139 * -256;
#X obj 405 139 * -1;
#X obj 339 291 - 1;
#X obj 210 213 t b b b b;
#X obj 338 -81 inlet;
#X obj 262 78 line;
#X msg 357 15 \$1 0;
#X obj 262 145 t b f;
#X obj 338 -11 t b f b;
#X floatatom 262 98 5 0 0 0 - - -;
#X floatatom 405 105 5 0 0 0 - - -;
#X floatatom 339 113 5 0 0 0 - - -;
#X floatatom 338 -57 5 0 0 0 - - -;
#X obj 262 121 int;
#X msg 243 30 255 200;
#X obj 243 1 delay 50;
#X msg 377 44 0 0;
#X obj 339 66 line;
#X obj 339 88 int;
#X obj 210 184 del 10;
#X connect 0 0 27 0;
#X connect 2 0 3 0;
#X connect 2 1 3 1;
#X connect 3 0 4 0;
#X connect 4 0 5 0;
#X connect 4 1 5 1;
#X connect 5 0 14 0;
#X connect 8 0 7 0;
#X connect 9 0 6 0;
#X connect 10 0 1 0;
#X connect 11 0 5 0;
#X connect 12 0 3 0;
#X connect 13 0 2 0;
#X connect 14 0 10 0;
#X connect 14 0 9 0;
#X connect 14 0 8 0;
#X connect 15 0 10 0;
#X connect 15 1 9 0;
#X connect 15 2 8 0;
#X connect 15 3 14 0;
#X connect 16 0 24 0;
#X connect 17 0 21 0;
#X connect 18 0 17 0;
#X connect 19 0 31 0;
#X connect 19 1 11 0;
#X connect 20 1 18 0;
#X connect 20 2 28 0;
#X connect 21 0 25 0;
#X connect 22 0 13 0;
#X connect 23 0 12 0;
#X connect 24 0 20 0;
#X connect 25 0 19 0;
#X connect 26 0 17 0;
#X connect 26 0 29 0;
#X connect 27 0 26 0;
#X connect 28 0 29 0;
#X connect 29 0 30 0;
#X connect 30 0 22 0;
#X connect 30 0 23 0;
#X connect 31 0 15 0;
#X restore 22 183 pd RGB_____________;
#X obj 86 121 * 2;
#X obj 22 206 pack 0 0 0;
#X obj 86 146 t b f;
#X obj 86 78 inlet;
#X obj 22 269 outlet;
#X msg 22 237 color \$1 \$2 22;
#X connect 0 0 2 0;
#X connect 0 1 2 1;
#X connect 0 2 2 2;
#X connect 1 0 3 0;
#X connect 2 0 6 0;
#X connect 3 0 0 0;
#X connect 3 1 0 1;
#X connect 4 0 1 0;
#X connect 6 0 5 0;
#X restore -24 72 pd w;
#X obj -5 -68 inlet;
#X floatatom -5 -37 5 0 0 0 - - -;
#X obj 65 -25 key;
#X floatatom 65 -2 5 0 0 0 - - -;
#X msg 65 56 127;
#X obj 64 96 spigot;
#X obj 64 124 t f b b;
#X obj 128 75 tgl 15 0 empty empty empty 17 7 0 10 -262144 -1 -1 1
1;
#X msg 115 151 0;
#X msg 81 201 1;
#X obj 128 25 loadbang;
#X msg 128 46 1;
#X obj 65 32 sel 122;
#X obj 81 174 del 100;
#X connect 0 0 1 0;
#X connect 1 0 0 0;
#X connect 2 0 3 0;
#X connect 3 0 0 0;
#X connect 4 0 5 0;
#X connect 5 0 14 0;
#X connect 6 0 7 0;
#X connect 7 0 8 0;
#X connect 8 0 3 0;
#X connect 8 1 15 0;
#X connect 8 2 10 0;
#X connect 9 0 7 1;
#X connect 10 0 9 0;
#X connect 11 0 9 0;
#X connect 12 0 13 0;
#X connect 13 0 9 0;
#X connect 14 0 6 0;
#X connect 15 0 11 0;
#X coords 0 1 100 -1 20 65 1 0 0;
#X restore 10 55 graph;
#N canvas 449 175 450 300 (subpatch) 0;
#X obj 0 2 vsl 20 60 0 127 0 0 \$0-D0 \$0-D0.r x 7 55 0 10 -262144
-262144 -1 5900 0;
#N canvas 0 22 450 300 w 0;
#N canvas 489 145 872 547 RGB_____________ 0;
#X obj 243 -28 inlet;
#X obj 217 386 outlet;
#X obj 405 161 t b f;
#X obj 339 204 +;
#X obj 339 229 t b f;
#X obj 339 260 +;
#X obj 264 386 outlet;
#X obj 311 386 outlet;
#X obj 311 363 f;
#X obj 264 362 f;
#X obj 217 362 f;
#X obj 289 179 * -65536;
#X obj 339 139 * -256;
#X obj 405 139 * -1;
#X obj 339 291 - 1;
#X obj 210 213 t b b b b;
#X obj 338 -81 inlet;
#X obj 262 78 line;
#X msg 357 15 \$1 0;
#X obj 262 145 t b f;
#X obj 338 -11 t b f b;
#X floatatom 262 98 5 0 0 0 - - -;
#X floatatom 405 105 5 0 0 0 - - -;
#X floatatom 339 113 5 0 0 0 - - -;
#X floatatom 338 -57 5 0 0 0 - - -;
#X obj 262 121 int;
#X msg 243 30 255 200;
#X obj 243 1 delay 50;
#X msg 377 44 0 0;
#X obj 339 66 line;
#X obj 339 88 int;
#X obj 210 184 del 10;
#X connect 0 0 27 0;
#X connect 2 0 3 0;
#X connect 2 1 3 1;
#X connect 3 0 4 0;
#X connect 4 0 5 0;
#X connect 4 1 5 1;
#X connect 5 0 14 0;
#X connect 8 0 7 0;
#X connect 9 0 6 0;
#X connect 10 0 1 0;
#X connect 11 0 5 0;
#X connect 12 0 3 0;
#X connect 13 0 2 0;
#X connect 14 0 10 0;
#X connect 14 0 9 0;
#X connect 14 0 8 0;
#X connect 15 0 10 0;
#X connect 15 1 9 0;
#X connect 15 2 8 0;
#X connect 15 3 14 0;
#X connect 16 0 24 0;
#X connect 17 0 21 0;
#X connect 18 0 17 0;
#X connect 19 0 31 0;
#X connect 19 1 11 0;
#X connect 20 1 18 0;
#X connect 20 2 28 0;
#X connect 21 0 25 0;
#X connect 22 0 13 0;
#X connect 23 0 12 0;
#X connect 24 0 20 0;
#X connect 25 0 19 0;
#X connect 26 0 17 0;
#X connect 26 0 29 0;
#X connect 27 0 26 0;
#X connect 28 0 29 0;
#X connect 29 0 30 0;
#X connect 30 0 22 0;
#X connect 30 0 23 0;
#X connect 31 0 15 0;
#X restore 22 183 pd RGB_____________;
#X obj 86 121 * 2;
#X obj 22 206 pack 0 0 0;
#X obj 86 146 t b f;
#X obj 86 78 inlet;
#X obj 22 269 outlet;
#X msg 22 237 color \$1 \$2 22;
#X connect 0 0 2 0;
#X connect 0 1 2 1;
#X connect 0 2 2 2;
#X connect 1 0 3 0;
#X connect 2 0 6 0;
#X connect 3 0 0 0;
#X connect 3 1 0 1;
#X connect 4 0 1 0;
#X connect 6 0 5 0;
#X restore -24 72 pd w;
#X obj -5 -68 inlet;
#X floatatom -5 -37 5 0 0 0 - - -;
#X obj 66 -30 key;
#X floatatom 66 -7 5 0 0 0 - - -;
#X msg 66 51 127;
#X obj 65 91 spigot;
#X obj 65 119 t f b b;
#X obj 129 70 tgl 15 0 empty empty empty 17 7 0 10 -262144 -1 -1 1
1;
#X msg 116 146 0;
#X msg 82 196 1;
#X obj 129 20 loadbang;
#X msg 129 41 1;
#X obj 66 29 sel 120;
#X obj 82 169 del 100;
#X connect 0 0 1 0;
#X connect 1 0 0 0;
#X connect 2 0 3 0;
#X connect 3 0 0 0;
#X connect 4 0 5 0;
#X connect 5 0 14 0;
#X connect 6 0 7 0;
#X connect 7 0 8 0;
#X connect 8 0 3 0;
#X connect 8 1 15 0;
#X connect 8 2 10 0;
#X connect 9 0 7 1;
#X connect 10 0 9 0;
#X connect 11 0 9 0;
#X connect 12 0 13 0;
#X connect 13 0 9 0;
#X connect 14 0 6 0;
#X connect 15 0 11 0;
#X coords 0 1 100 -1 20 65 1 0 0;
#X restore 30 55 graph;
#N canvas 453 150 450 300 (subpatch) 0;
#X obj 0 2 vsl 20 60 0 127 0 0 \$0-E0 \$0-E0.r c 7 55 0 10 -262144
-262144 -1 5900 0;
#N canvas 0 22 450 300 w 0;
#N canvas 489 145 872 547 RGB_____________ 0;
#X obj 243 -28 inlet;
#X obj 217 386 outlet;
#X obj 405 161 t b f;
#X obj 339 204 +;
#X obj 339 229 t b f;
#X obj 339 260 +;
#X obj 264 386 outlet;
#X obj 311 386 outlet;
#X obj 311 363 f;
#X obj 264 362 f;
#X obj 217 362 f;
#X obj 289 179 * -65536;
#X obj 339 139 * -256;
#X obj 405 139 * -1;
#X obj 339 291 - 1;
#X obj 210 213 t b b b b;
#X obj 338 -81 inlet;
#X obj 262 78 line;
#X msg 357 15 \$1 0;
#X obj 262 145 t b f;
#X obj 338 -11 t b f b;
#X floatatom 262 98 5 0 0 0 - - -;
#X floatatom 405 105 5 0 0 0 - - -;
#X floatatom 339 113 5 0 0 0 - - -;
#X floatatom 338 -57 5 0 0 0 - - -;
#X obj 262 121 int;
#X msg 243 30 255 200;
#X obj 243 1 delay 50;
#X msg 377 44 0 0;
#X obj 339 66 line;
#X obj 339 88 int;
#X obj 210 184 del 10;
#X connect 0 0 27 0;
#X connect 2 0 3 0;
#X connect 2 1 3 1;
#X connect 3 0 4 0;
#X connect 4 0 5 0;
#X connect 4 1 5 1;
#X connect 5 0 14 0;
#X connect 8 0 7 0;
#X connect 9 0 6 0;
#X connect 10 0 1 0;
#X connect 11 0 5 0;
#X connect 12 0 3 0;
#X connect 13 0 2 0;
#X connect 14 0 10 0;
#X connect 14 0 9 0;
#X connect 14 0 8 0;
#X connect 15 0 10 0;
#X connect 15 1 9 0;
#X connect 15 2 8 0;
#X connect 15 3 14 0;
#X connect 16 0 24 0;
#X connect 17 0 21 0;
#X connect 18 0 17 0;
#X connect 19 0 31 0;
#X connect 19 1 11 0;
#X connect 20 1 18 0;
#X connect 20 2 28 0;
#X connect 21 0 25 0;
#X connect 22 0 13 0;
#X connect 23 0 12 0;
#X connect 24 0 20 0;
#X connect 25 0 19 0;
#X connect 26 0 17 0;
#X connect 26 0 29 0;
#X connect 27 0 26 0;
#X connect 28 0 29 0;
#X connect 29 0 30 0;
#X connect 30 0 22 0;
#X connect 30 0 23 0;
#X connect 31 0 15 0;
#X restore 22 183 pd RGB_____________;
#X obj 86 121 * 2;
#X obj 22 206 pack 0 0 0;
#X obj 86 146 t b f;
#X obj 86 78 inlet;
#X obj 22 269 outlet;
#X msg 22 235 color \$1 \$2 22;
#X connect 0 0 2 0;
#X connect 0 1 2 1;
#X connect 0 2 2 2;
#X connect 1 0 3 0;
#X connect 2 0 6 0;
#X connect 3 0 0 0;
#X connect 3 1 0 1;
#X connect 4 0 1 0;
#X connect 6 0 5 0;
#X restore -24 72 pd w;
#X obj -5 -68 inlet;
#X floatatom -5 -37 5 0 0 0 - - -;
#X obj 75 -15 key;
#X floatatom 75 8 5 0 0 0 - - -;
#X msg 75 66 127;
#X obj 74 106 spigot;
#X obj 74 134 t f b b;
#X obj 138 85 tgl 15 0 empty empty empty 17 7 0 10 -262144 -1 -1 1
1;
#X msg 125 161 0;
#X msg 91 211 1;
#X obj 138 35 loadbang;
#X msg 138 56 1;
#X obj 75 44 sel 99;
#X obj 91 184 del 100;
#X connect 0 0 1 0;
#X connect 1 0 0 0;
#X connect 2 0 3 0;
#X connect 3 0 0 0;
#X connect 4 0 5 0;
#X connect 5 0 14 0;
#X connect 6 0 7 0;
#X connect 7 0 8 0;
#X connect 8 0 3 0;
#X connect 8 1 15 0;
#X connect 8 2 10 0;
#X connect 9 0 7 1;
#X connect 10 0 9 0;
#X connect 11 0 9 0;
#X connect 12 0 13 0;
#X connect 13 0 9 0;
#X connect 14 0 6 0;
#X connect 15 0 11 0;
#X coords 0 1 100 -1 20 65 1 0 0;
#X restore 50 55 graph;
#N canvas 453 150 450 300 (subpatch) 0;
#X obj 0 2 vsl 20 60 0 127 0 0 \$0-F0 \$0-F0.r v 7 55 0 10 -262144
-262144 -1 5900 0;
#N canvas 0 22 450 300 w 0;
#N canvas 489 145 872 547 RGB_____________ 0;
#X obj 243 -28 inlet;
#X obj 217 386 outlet;
#X obj 405 161 t b f;
#X obj 339 204 +;
#X obj 339 229 t b f;
#X obj 339 260 +;
#X obj 264 386 outlet;
#X obj 311 386 outlet;
#X obj 311 363 f;
#X obj 264 362 f;
#X obj 217 362 f;
#X obj 289 179 * -65536;
#X obj 339 139 * -256;
#X obj 405 139 * -1;
#X obj 339 291 - 1;
#X obj 210 213 t b b b b;
#X obj 338 -81 inlet;
#X obj 262 78 line;
#X msg 357 15 \$1 0;
#X obj 262 145 t b f;
#X obj 338 -11 t b f b;
#X floatatom 262 98 5 0 0 0 - - -;
#X floatatom 405 105 5 0 0 0 - - -;
#X floatatom 339 113 5 0 0 0 - - -;
#X floatatom 338 -57 5 0 0 0 - - -;
#X obj 262 121 int;
#X msg 243 30 255 200;
#X obj 243 1 delay 50;
#X msg 377 44 0 0;
#X obj 339 66 line;
#X obj 339 88 int;
#X obj 210 184 del 10;
#X connect 0 0 27 0;
#X connect 2 0 3 0;
#X connect 2 1 3 1;
#X connect 3 0 4 0;
#X connect 4 0 5 0;
#X connect 4 1 5 1;
#X connect 5 0 14 0;
#X connect 8 0 7 0;
#X connect 9 0 6 0;
#X connect 10 0 1 0;
#X connect 11 0 5 0;
#X connect 12 0 3 0;
#X connect 13 0 2 0;
#X connect 14 0 10 0;
#X connect 14 0 9 0;
#X connect 14 0 8 0;
#X connect 15 0 10 0;
#X connect 15 1 9 0;
#X connect 15 2 8 0;
#X connect 15 3 14 0;
#X connect 16 0 24 0;
#X connect 17 0 21 0;
#X connect 18 0 17 0;
#X connect 19 0 31 0;
#X connect 19 1 11 0;
#X connect 20 1 18 0;
#X connect 20 2 28 0;
#X connect 21 0 25 0;
#X connect 22 0 13 0;
#X connect 23 0 12 0;
#X connect 24 0 20 0;
#X connect 25 0 19 0;
#X connect 26 0 17 0;
#X connect 26 0 29 0;
#X connect 27 0 26 0;
#X connect 28 0 29 0;
#X connect 29 0 30 0;
#X connect 30 0 22 0;
#X connect 30 0 23 0;
#X connect 31 0 15 0;
#X restore 22 183 pd RGB_____________;
#X obj 86 121 * 2;
#X obj 22 206 pack 0 0 0;
#X obj 86 146 t b f;
#X obj 86 78 inlet;
#X obj 22 269 outlet;
#X msg 22 237 color \$1 \$2 22;
#X connect 0 0 2 0;
#X connect 0 1 2 1;
#X connect 0 2 2 2;
#X connect 1 0 3 0;
#X connect 2 0 6 0;
#X connect 3 0 0 0;
#X connect 3 1 0 1;
#X connect 4 0 1 0;
#X connect 6 0 5 0;
#X restore -24 72 pd w;
#X obj -5 -68 inlet;
#X floatatom -5 -37 5 0 0 0 - - -;
#X obj 75 -15 key;
#X floatatom 75 8 5 0 0 0 - - -;
#X msg 75 66 127;
#X obj 74 106 spigot;
#X obj 74 134 t f b b;
#X obj 138 85 tgl 15 0 empty empty empty 17 7 0 10 -262144 -1 -1 1
1;
#X msg 125 161 0;
#X msg 91 211 1;
#X obj 138 35 loadbang;
#X msg 138 56 1;
#X obj 75 43 sel 118;
#X obj 91 184 del 100;
#X connect 0 0 1 0;
#X connect 1 0 0 0;
#X connect 2 0 3 0;
#X connect 3 0 0 0;
#X connect 4 0 5 0;
#X connect 5 0 14 0;
#X connect 6 0 7 0;
#X connect 7 0 8 0;
#X connect 8 0 3 0;
#X connect 8 1 15 0;
#X connect 8 2 10 0;
#X connect 9 0 7 1;
#X connect 10 0 9 0;
#X connect 11 0 9 0;
#X connect 12 0 13 0;
#X connect 13 0 9 0;
#X connect 14 0 6 0;
#X connect 15 0 11 0;
#X coords 0 1 100 -1 20 65 1 0 0;
#X restore 70 55 graph;
#N canvas 453 150 450 300 (subpatch) 0;
#X obj 0 2 vsl 20 60 0 127 0 0 \$0-G0 \$0-G0.r b 7 55 0 10 -262144
-262144 -1 5900 0;
#N canvas 0 22 450 300 w 0;
#N canvas 489 145 872 547 RGB_____________ 0;
#X obj 243 -28 inlet;
#X obj 217 386 outlet;
#X obj 405 161 t b f;
#X obj 339 204 +;
#X obj 339 229 t b f;
#X obj 339 260 +;
#X obj 264 386 outlet;
#X obj 311 386 outlet;
#X obj 311 363 f;
#X obj 264 362 f;
#X obj 217 362 f;
#X obj 289 179 * -65536;
#X obj 339 139 * -256;
#X obj 405 139 * -1;
#X obj 339 291 - 1;
#X obj 210 213 t b b b b;
#X obj 338 -81 inlet;
#X obj 262 78 line;
#X msg 357 15 \$1 0;
#X obj 262 145 t b f;
#X obj 338 -11 t b f b;
#X floatatom 262 98 5 0 0 0 - - -;
#X floatatom 405 105 5 0 0 0 - - -;
#X floatatom 339 113 5 0 0 0 - - -;
#X floatatom 338 -57 5 0 0 0 - - -;
#X obj 262 121 int;
#X msg 243 30 255 200;
#X obj 243 1 delay 50;
#X msg 377 44 0 0;
#X obj 339 66 line;
#X obj 339 88 int;
#X obj 210 184 del 10;
#X connect 0 0 27 0;
#X connect 2 0 3 0;
#X connect 2 1 3 1;
#X connect 3 0 4 0;
#X connect 4 0 5 0;
#X connect 4 1 5 1;
#X connect 5 0 14 0;
#X connect 8 0 7 0;
#X connect 9 0 6 0;
#X connect 10 0 1 0;
#X connect 11 0 5 0;
#X connect 12 0 3 0;
#X connect 13 0 2 0;
#X connect 14 0 10 0;
#X connect 14 0 9 0;
#X connect 14 0 8 0;
#X connect 15 0 10 0;
#X connect 15 1 9 0;
#X connect 15 2 8 0;
#X connect 15 3 14 0;
#X connect 16 0 24 0;
#X connect 17 0 21 0;
#X connect 18 0 17 0;
#X connect 19 0 31 0;
#X connect 19 1 11 0;
#X connect 20 1 18 0;
#X connect 20 2 28 0;
#X connect 21 0 25 0;
#X connect 22 0 13 0;
#X connect 23 0 12 0;
#X connect 24 0 20 0;
#X connect 25 0 19 0;
#X connect 26 0 17 0;
#X connect 26 0 29 0;
#X connect 27 0 26 0;
#X connect 28 0 29 0;
#X connect 29 0 30 0;
#X connect 30 0 22 0;
#X connect 30 0 23 0;
#X connect 31 0 15 0;
#X restore 22 183 pd RGB_____________;
#X obj 86 121 * 2;
#X obj 22 206 pack 0 0 0;
#X obj 86 146 t b f;
#X obj 86 78 inlet;
#X obj 22 269 outlet;
#X msg 22 237 color \$1 \$2 22;
#X connect 0 0 2 0;
#X connect 0 1 2 1;
#X connect 0 2 2 2;
#X connect 1 0 3 0;
#X connect 2 0 6 0;
#X connect 3 0 0 0;
#X connect 3 1 0 1;
#X connect 4 0 1 0;
#X connect 6 0 5 0;
#X restore -24 72 pd w;
#X obj -5 -68 inlet;
#X floatatom -5 -37 5 0 0 0 - - -;
#X obj 75 -15 key;
#X floatatom 75 8 5 0 0 0 - - -;
#X msg 75 66 127;
#X obj 74 106 spigot;
#X obj 74 134 t f b b;
#X obj 138 85 tgl 15 0 empty empty empty 17 7 0 10 -262144 -1 -1 1
1;
#X msg 125 161 0;
#X msg 91 211 1;
#X obj 138 35 loadbang;
#X msg 138 56 1;
#X obj 75 44 sel 98;
#X obj 91 183 del 100;
#X connect 0 0 1 0;
#X connect 1 0 0 0;
#X connect 2 0 3 0;
#X connect 3 0 0 0;
#X connect 4 0 5 0;
#X connect 5 0 14 0;
#X connect 6 0 7 0;
#X connect 7 0 8 0;
#X connect 8 0 3 0;
#X connect 8 1 15 0;
#X connect 8 2 10 0;
#X connect 9 0 7 1;
#X connect 10 0 9 0;
#X connect 11 0 9 0;
#X connect 12 0 13 0;
#X connect 13 0 9 0;
#X connect 14 0 6 0;
#X connect 15 0 11 0;
#X coords 0 1 100 -1 20 65 1 0 0;
#X restore 90 55 graph;
#N canvas 453 150 450 300 (subpatch) 0;
#X obj 0 2 vsl 20 60 0 127 0 0 \$0-A0 \$0-A0.r n 7 55 0 10 -262144
-262144 -1 5900 0;
#N canvas 0 22 450 300 w 0;
#N canvas 489 145 872 547 RGB_____________ 0;
#X obj 243 -28 inlet;
#X obj 217 386 outlet;
#X obj 405 161 t b f;
#X obj 339 204 +;
#X obj 339 229 t b f;
#X obj 339 260 +;
#X obj 264 386 outlet;
#X obj 311 386 outlet;
#X obj 311 363 f;
#X obj 264 362 f;
#X obj 217 362 f;
#X obj 289 179 * -65536;
#X obj 339 139 * -256;
#X obj 405 139 * -1;
#X obj 339 291 - 1;
#X obj 210 213 t b b b b;
#X obj 338 -81 inlet;
#X obj 262 78 line;
#X msg 357 15 \$1 0;
#X obj 262 145 t b f;
#X obj 338 -11 t b f b;
#X floatatom 262 98 5 0 0 0 - - -;
#X floatatom 405 105 5 0 0 0 - - -;
#X floatatom 339 113 5 0 0 0 - - -;
#X floatatom 338 -57 5 0 0 0 - - -;
#X obj 262 121 int;
#X msg 243 30 255 200;
#X obj 243 1 delay 50;
#X msg 377 44 0 0;
#X obj 339 66 line;
#X obj 339 88 int;
#X obj 210 184 del 10;
#X connect 0 0 27 0;
#X connect 2 0 3 0;
#X connect 2 1 3 1;
#X connect 3 0 4 0;
#X connect 4 0 5 0;
#X connect 4 1 5 1;
#X connect 5 0 14 0;
#X connect 8 0 7 0;
#X connect 9 0 6 0;
#X connect 10 0 1 0;
#X connect 11 0 5 0;
#X connect 12 0 3 0;
#X connect 13 0 2 0;
#X connect 14 0 10 0;
#X connect 14 0 9 0;
#X connect 14 0 8 0;
#X connect 15 0 10 0;
#X connect 15 1 9 0;
#X connect 15 2 8 0;
#X connect 15 3 14 0;
#X connect 16 0 24 0;
#X connect 17 0 21 0;
#X connect 18 0 17 0;
#X connect 19 0 31 0;
#X connect 19 1 11 0;
#X connect 20 1 18 0;
#X connect 20 2 28 0;
#X connect 21 0 25 0;
#X connect 22 0 13 0;
#X connect 23 0 12 0;
#X connect 24 0 20 0;
#X connect 25 0 19 0;
#X connect 26 0 17 0;
#X connect 26 0 29 0;
#X connect 27 0 26 0;
#X connect 28 0 29 0;
#X connect 29 0 30 0;
#X connect 30 0 22 0;
#X connect 30 0 23 0;
#X connect 31 0 15 0;
#X restore 22 183 pd RGB_____________;
#X obj 86 121 * 2;
#X obj 22 206 pack 0 0 0;
#X obj 86 146 t b f;
#X obj 86 78 inlet;
#X obj 22 269 outlet;
#X msg 22 237 color \$1 \$2 22;
#X connect 0 0 2 0;
#X connect 0 1 2 1;
#X connect 0 2 2 2;
#X connect 1 0 3 0;
#X connect 2 0 6 0;
#X connect 3 0 0 0;
#X connect 3 1 0 1;
#X connect 4 0 1 0;
#X connect 6 0 5 0;
#X restore -24 72 pd w;
#X obj -5 -68 inlet;
#X floatatom -5 -37 5 0 0 0 - - -;
#X obj 75 -15 key;
#X floatatom 75 8 5 0 0 0 - - -;
#X msg 75 66 127;
#X obj 74 106 spigot;
#X obj 74 134 t f b b;
#X obj 138 85 tgl 15 0 empty empty empty 17 7 0 10 -262144 -1 -1 1
1;
#X msg 125 161 0;
#X msg 91 211 1;
#X obj 138 35 loadbang;
#X msg 138 56 1;
#X obj 75 44 sel 110;
#X obj 91 184 del 100;
#X connect 0 0 1 0;
#X connect 1 0 0 0;
#X connect 2 0 3 0;
#X connect 3 0 0 0;
#X connect 4 0 5 0;
#X connect 5 0 14 0;
#X connect 6 0 7 0;
#X connect 7 0 8 0;
#X connect 8 0 3 0;
#X connect 8 1 15 0;
#X connect 8 2 10 0;
#X connect 9 0 7 1;
#X connect 10 0 9 0;
#X connect 11 0 9 0;
#X connect 12 0 13 0;
#X connect 13 0 9 0;
#X connect 14 0 6 0;
#X connect 15 0 11 0;
#X coords 0 1 100 -1 20 65 1 0 0;
#X restore 110 55 graph;
#N canvas 453 150 450 300 (subpatch) 0;
#X obj 0 2 vsl 20 60 0 127 0 0 \$0-B0 \$0-B0.r m 7 55 0 10 -262144
-262144 -1 5900 0;
#N canvas 0 22 450 300 w 0;
#N canvas 489 145 872 547 RGB_____________ 0;
#X obj 243 -28 inlet;
#X obj 217 386 outlet;
#X obj 405 161 t b f;
#X obj 339 204 +;
#X obj 339 229 t b f;
#X obj 339 260 +;
#X obj 264 386 outlet;
#X obj 311 386 outlet;
#X obj 311 363 f;
#X obj 264 362 f;
#X obj 217 362 f;
#X obj 289 179 * -65536;
#X obj 339 139 * -256;
#X obj 405 139 * -1;
#X obj 339 291 - 1;
#X obj 210 213 t b b b b;
#X obj 338 -81 inlet;
#X obj 262 78 line;
#X msg 357 15 \$1 0;
#X obj 262 145 t b f;
#X obj 338 -11 t b f b;
#X floatatom 262 98 5 0 0 0 - - -;
#X floatatom 405 105 5 0 0 0 - - -;
#X floatatom 339 113 5 0 0 0 - - -;
#X floatatom 338 -57 5 0 0 0 - - -;
#X obj 262 121 int;
#X msg 243 30 255 200;
#X obj 243 1 delay 50;
#X msg 377 44 0 0;
#X obj 339 66 line;
#X obj 339 88 int;
#X obj 210 184 del 10;
#X connect 0 0 27 0;
#X connect 2 0 3 0;
#X connect 2 1 3 1;
#X connect 3 0 4 0;
#X connect 4 0 5 0;
#X connect 4 1 5 1;
#X connect 5 0 14 0;
#X connect 8 0 7 0;
#X connect 9 0 6 0;
#X connect 10 0 1 0;
#X connect 11 0 5 0;
#X connect 12 0 3 0;
#X connect 13 0 2 0;
#X connect 14 0 10 0;
#X connect 14 0 9 0;
#X connect 14 0 8 0;
#X connect 15 0 10 0;
#X connect 15 1 9 0;
#X connect 15 2 8 0;
#X connect 15 3 14 0;
#X connect 16 0 24 0;
#X connect 17 0 21 0;
#X connect 18 0 17 0;
#X connect 19 0 31 0;
#X connect 19 1 11 0;
#X connect 20 1 18 0;
#X connect 20 2 28 0;
#X connect 21 0 25 0;
#X connect 22 0 13 0;
#X connect 23 0 12 0;
#X connect 24 0 20 0;
#X connect 25 0 19 0;
#X connect 26 0 17 0;
#X connect 26 0 29 0;
#X connect 27 0 26 0;
#X connect 28 0 29 0;
#X connect 29 0 30 0;
#X connect 30 0 22 0;
#X connect 30 0 23 0;
#X connect 31 0 15 0;
#X restore 22 183 pd RGB_____________;
#X obj 86 121 * 2;
#X obj 22 206 pack 0 0 0;
#X obj 86 146 t b f;
#X obj 86 78 inlet;
#X obj 22 269 outlet;
#X msg 22 237 color \$1 \$2 22;
#X connect 0 0 2 0;
#X connect 0 1 2 1;
#X connect 0 2 2 2;
#X connect 1 0 3 0;
#X connect 2 0 6 0;
#X connect 3 0 0 0;
#X connect 3 1 0 1;
#X connect 4 0 1 0;
#X connect 6 0 5 0;
#X restore -24 72 pd w;
#X obj -5 -68 inlet;
#X floatatom -5 -37 5 0 0 0 - - -;
#X obj 75 -15 key;
#X floatatom 75 8 5 0 0 0 - - -;
#X msg 75 66 127;
#X obj 74 106 spigot;
#X obj 74 134 t f b b;
#X obj 138 85 tgl 15 0 empty empty empty 17 7 0 10 -262144 -1 -1 1
1;
#X msg 125 161 0;
#X msg 91 211 1;
#X obj 138 35 loadbang;
#X msg 138 56 1;
#X obj 75 43 sel 109;
#X obj 91 183 del 100;
#X connect 0 0 1 0;
#X connect 1 0 0 0;
#X connect 2 0 3 0;
#X connect 3 0 0 0;
#X connect 4 0 5 0;
#X connect 5 0 14 0;
#X connect 6 0 7 0;
#X connect 7 0 8 0;
#X connect 8 0 3 0;
#X connect 8 1 15 0;
#X connect 8 2 10 0;
#X connect 9 0 7 1;
#X connect 10 0 9 0;
#X connect 11 0 9 0;
#X connect 12 0 13 0;
#X connect 13 0 9 0;
#X connect 14 0 6 0;
#X connect 15 0 11 0;
#X coords 0 1 100 -1 20 65 1 0 0;
#X restore 130 55 graph;
#N canvas 453 150 450 300 (subpatch) 0;
#X obj 0 2 vsl 20 60 0 127 0 0 \$0-C1 \$0-C1.r < 7 55 0 10 -262144
-262144 -1 5900 0;
#N canvas 0 22 450 300 w 0;
#N canvas 489 145 872 547 RGB_____________ 0;
#X obj 243 -28 inlet;
#X obj 217 386 outlet;
#X obj 405 161 t b f;
#X obj 339 204 +;
#X obj 339 229 t b f;
#X obj 339 260 +;
#X obj 264 386 outlet;
#X obj 311 386 outlet;
#X obj 311 363 f;
#X obj 264 362 f;
#X obj 217 362 f;
#X obj 289 179 * -65536;
#X obj 339 139 * -256;
#X obj 405 139 * -1;
#X obj 339 291 - 1;
#X obj 210 213 t b b b b;
#X obj 338 -81 inlet;
#X obj 262 78 line;
#X msg 357 15 \$1 0;
#X obj 262 145 t b f;
#X obj 338 -11 t b f b;
#X floatatom 262 98 5 0 0 0 - - -;
#X floatatom 405 105 5 0 0 0 - - -;
#X floatatom 339 113 5 0 0 0 - - -;
#X floatatom 338 -57 5 0 0 0 - - -;
#X obj 262 121 int;
#X msg 243 30 255 200;
#X obj 243 1 delay 50;
#X msg 377 44 0 0;
#X obj 339 66 line;
#X obj 339 88 int;
#X obj 210 184 del 10;
#X connect 0 0 27 0;
#X connect 2 0 3 0;
#X connect 2 1 3 1;
#X connect 3 0 4 0;
#X connect 4 0 5 0;
#X connect 4 1 5 1;
#X connect 5 0 14 0;
#X connect 8 0 7 0;
#X connect 9 0 6 0;
#X connect 10 0 1 0;
#X connect 11 0 5 0;
#X connect 12 0 3 0;
#X connect 13 0 2 0;
#X connect 14 0 10 0;
#X connect 14 0 9 0;
#X connect 14 0 8 0;
#X connect 15 0 10 0;
#X connect 15 1 9 0;
#X connect 15 2 8 0;
#X connect 15 3 14 0;
#X connect 16 0 24 0;
#X connect 17 0 21 0;
#X connect 18 0 17 0;
#X connect 19 0 31 0;
#X connect 19 1 11 0;
#X connect 20 1 18 0;
#X connect 20 2 28 0;
#X connect 21 0 25 0;
#X connect 22 0 13 0;
#X connect 23 0 12 0;
#X connect 24 0 20 0;
#X connect 25 0 19 0;
#X connect 26 0 17 0;
#X connect 26 0 29 0;
#X connect 27 0 26 0;
#X connect 28 0 29 0;
#X connect 29 0 30 0;
#X connect 30 0 22 0;
#X connect 30 0 23 0;
#X connect 31 0 15 0;
#X restore 22 183 pd RGB_____________;
#X obj 86 121 * 2;
#X obj 22 206 pack 0 0 0;
#X obj 86 146 t b f;
#X obj 86 78 inlet;
#X obj 22 269 outlet;
#X msg 22 236 color \$1 \$2 22;
#X connect 0 0 2 0;
#X connect 0 1 2 1;
#X connect 0 2 2 2;
#X connect 1 0 3 0;
#X connect 2 0 6 0;
#X connect 3 0 0 0;
#X connect 3 1 0 1;
#X connect 4 0 1 0;
#X connect 6 0 5 0;
#X restore -24 72 pd w;
#X obj -5 -68 inlet;
#X floatatom -5 -37 5 0 0 0 - - -;
#X obj 75 -15 key;
#X floatatom 75 8 5 0 0 0 - - -;
#X msg 75 66 127;
#X obj 74 106 spigot;
#X obj 74 134 t f b b;
#X obj 138 85 tgl 15 0 empty empty empty 17 7 0 10 -262144 -1 -1 1
1;
#X msg 125 161 0;
#X msg 91 211 1;
#X obj 138 35 loadbang;
#X msg 138 56 1;
#X obj 75 43 sel 44;
#X obj 91 184 del 100;
#X connect 0 0 1 0;
#X connect 1 0 0 0;
#X connect 2 0 3 0;
#X connect 3 0 0 0;
#X connect 4 0 5 0;
#X connect 5 0 14 0;
#X connect 6 0 7 0;
#X connect 7 0 8 0;
#X connect 8 0 3 0;
#X connect 8 1 15 0;
#X connect 8 2 10 0;
#X connect 9 0 7 1;
#X connect 10 0 9 0;
#X connect 11 0 9 0;
#X connect 12 0 13 0;
#X connect 13 0 9 0;
#X connect 14 0 6 0;
#X connect 15 0 11 0;
#X coords 0 1 100 -1 20 65 1 0 0;
#X restore 150 55 graph;
#X obj -4 -79 inlet;
#X msg -4 -15 127;
#X msg 26 -14 127;
#X msg 57 -14 127;
#X msg 95 -9 127;
#X msg 132 -12 127;
#X msg 170 -11 127;
#X msg 201 -11 127;
#X obj -4 -59 sel 1 2 3 4 5 6 7 8;
#X msg 232 -10 127;
#N canvas 0 22 450 300 (subpatch) 0;
#X obj 0 2 vsl 15 40 0 127 0 0 \$0-Db0 \$0-Db0.r s 5 35 0 10 -1 -1
-262144 3900 0;
#N canvas 990 396 450 300 b 0;
#N canvas 307 177 872 547 RGB_____________ 0;
#X obj 243 -28 inlet;
#X obj 217 386 outlet;
#X obj 405 161 t b f;
#X obj 339 204 +;
#X obj 339 229 t b f;
#X obj 339 260 +;
#X obj 264 386 outlet;
#X obj 311 386 outlet;
#X obj 311 363 f;
#X obj 264 362 f;
#X obj 217 362 f;
#X obj 289 179 * -65536;
#X obj 339 139 * -256;
#X obj 405 139 * -1;
#X obj 339 291 - 1;
#X obj 210 213 t b b b b;
#X obj 338 -81 inlet;
#X obj 262 78 line;
#X msg 357 15 \$1 0;
#X obj 262 145 t b f;
#X obj 338 -11 t b f b;
#X floatatom 262 98 5 0 0 0 - - -;
#X floatatom 405 105 5 0 0 0 - - -;
#X floatatom 339 113 5 0 0 0 - - -;
#X floatatom 338 -57 5 0 0 0 - - -;
#X obj 262 121 int;
#X obj 243 1 delay 50;
#X msg 377 44 0 0;
#X obj 339 66 line;
#X obj 339 88 int;
#X obj 210 184 del 10;
#X msg 243 30 0 200;
#X connect 0 0 26 0;
#X connect 2 0 3 0;
#X connect 2 1 3 1;
#X connect 3 0 4 0;
#X connect 4 0 5 0;
#X connect 4 1 5 1;
#X connect 5 0 14 0;
#X connect 8 0 7 0;
#X connect 9 0 6 0;
#X connect 10 0 1 0;
#X connect 11 0 5 0;
#X connect 12 0 3 0;
#X connect 13 0 2 0;
#X connect 14 0 10 0;
#X connect 14 0 9 0;
#X connect 14 0 8 0;
#X connect 15 0 10 0;
#X connect 15 1 9 0;
#X connect 15 2 8 0;
#X connect 15 3 14 0;
#X connect 16 0 24 0;
#X connect 17 0 21 0;
#X connect 18 0 17 0;
#X connect 19 0 30 0;
#X connect 19 1 11 0;
#X connect 20 1 18 0;
#X connect 20 2 27 0;
#X connect 21 0 25 0;
#X connect 22 0 13 0;
#X connect 23 0 12 0;
#X connect 24 0 20 0;
#X connect 25 0 19 0;
#X connect 26 0 31 0;
#X connect 27 0 28 0;
#X connect 28 0 29 0;
#X connect 29 0 22 0;
#X connect 29 0 23 0;
#X connect 30 0 15 0;
#X connect 31 0 17 0;
#X connect 31 0 28 0;
#X restore 22 183 pd RGB_____________;
#X obj 86 121 * 2;
#X obj 22 206 pack 0 0 0;
#X obj 86 146 t b f;
#X obj 86 78 inlet;
#X obj 22 269 outlet;
#X msg 22 237 color \$1 \$2 0;
#X connect 0 0 2 0;
#X connect 0 1 2 1;
#X connect 0 2 2 2;
#X connect 1 0 3 0;
#X connect 2 0 6 0;
#X connect 3 0 0 0;
#X connect 3 1 0 1;
#X connect 4 0 1 0;
#X connect 6 0 5 0;
#X restore -12 57 pd b;
#X obj 0 -51 inlet;
#X floatatom 0 -26 5 0 0 0 - - -;
#X obj 170 -17 key;
#X floatatom 170 6 5 0 0 0 - - -;
#X msg 170 64 127;
#X obj 169 104 spigot;
#X obj 169 132 t f b b;
#X obj 233 83 tgl 15 0 empty empty empty 17 7 0 10 -262144 -1 -1 1
1;
#X msg 220 159 0;
#X msg 186 209 1;
#X obj 233 33 loadbang;
#X msg 233 54 1;
#X obj 170 42 sel 115;
#X obj 186 182 del 100;
#X connect 0 0 1 0;
#X connect 1 0 0 0;
#X connect 2 0 3 0;
#X connect 3 0 0 0;
#X connect 4 0 5 0;
#X connect 5 0 14 0;
#X connect 6 0 7 0;
#X connect 7 0 8 0;
#X connect 8 0 0 0;
#X connect 8 1 15 0;
#X connect 8 2 10 0;
#X connect 9 0 7 1;
#X connect 10 0 9 0;
#X connect 11 0 9 0;
#X connect 12 0 13 0;
#X connect 13 0 9 0;
#X connect 14 0 6 0;
#X connect 15 0 11 0;
#X coords 0 1 100 -1 15 45 1 0 0;
#X restore 22 49 graph;
#N canvas 0 22 450 300 (subpatch) 0;
#X obj 0 2 vsl 15 40 0 127 0 0 \$0-Eb0 \$0-Eb0.r d 5 35 0 10 -1 -1
-262144 3900 0;
#N canvas 990 396 450 300 b 0;
#N canvas 307 177 872 547 RGB_____________ 0;
#X obj 243 -28 inlet;
#X obj 217 386 outlet;
#X obj 405 161 t b f;
#X obj 339 204 +;
#X obj 339 229 t b f;
#X obj 339 260 +;
#X obj 264 386 outlet;
#X obj 311 386 outlet;
#X obj 311 363 f;
#X obj 264 362 f;
#X obj 217 362 f;
#X obj 289 179 * -65536;
#X obj 339 139 * -256;
#X obj 405 139 * -1;
#X obj 339 291 - 1;
#X obj 210 213 t b b b b;
#X obj 338 -81 inlet;
#X obj 262 78 line;
#X msg 357 15 \$1 0;
#X obj 262 145 t b f;
#X obj 338 -11 t b f b;
#X floatatom 262 98 5 0 0 0 - - -;
#X floatatom 405 105 5 0 0 0 - - -;
#X floatatom 339 113 5 0 0 0 - - -;
#X floatatom 338 -57 5 0 0 0 - - -;
#X obj 262 121 int;
#X obj 243 1 delay 50;
#X msg 377 44 0 0;
#X obj 339 66 line;
#X obj 339 88 int;
#X obj 210 184 del 10;
#X msg 243 30 0 200;
#X connect 0 0 26 0;
#X connect 2 0 3 0;
#X connect 2 1 3 1;
#X connect 3 0 4 0;
#X connect 4 0 5 0;
#X connect 4 1 5 1;
#X connect 5 0 14 0;
#X connect 8 0 7 0;
#X connect 9 0 6 0;
#X connect 10 0 1 0;
#X connect 11 0 5 0;
#X connect 12 0 3 0;
#X connect 13 0 2 0;
#X connect 14 0 10 0;
#X connect 14 0 9 0;
#X connect 14 0 8 0;
#X connect 15 0 10 0;
#X connect 15 1 9 0;
#X connect 15 2 8 0;
#X connect 15 3 14 0;
#X connect 16 0 24 0;
#X connect 17 0 21 0;
#X connect 18 0 17 0;
#X connect 19 0 30 0;
#X connect 19 1 11 0;
#X connect 20 1 18 0;
#X connect 20 2 27 0;
#X connect 21 0 25 0;
#X connect 22 0 13 0;
#X connect 23 0 12 0;
#X connect 24 0 20 0;
#X connect 25 0 19 0;
#X connect 26 0 31 0;
#X connect 27 0 28 0;
#X connect 28 0 29 0;
#X connect 29 0 22 0;
#X connect 29 0 23 0;
#X connect 30 0 15 0;
#X connect 31 0 17 0;
#X connect 31 0 28 0;
#X restore 22 183 pd RGB_____________;
#X obj 86 121 * 2;
#X obj 22 206 pack 0 0 0;
#X obj 86 146 t b f;
#X obj 86 78 inlet;
#X obj 22 269 outlet;
#X msg 22 236 color \$1 \$2 0;
#X connect 0 0 2 0;
#X connect 0 1 2 1;
#X connect 0 2 2 2;
#X connect 1 0 3 0;
#X connect 2 0 6 0;
#X connect 3 0 0 0;
#X connect 3 1 0 1;
#X connect 4 0 1 0;
#X connect 6 0 5 0;
#X restore -12 57 pd b;
#X obj 0 -51 inlet;
#X floatatom 0 -26 5 0 0 0 - - -;
#X obj 170 -17 key;
#X floatatom 170 6 5 0 0 0 - - -;
#X msg 170 64 127;
#X obj 169 104 spigot;
#X obj 169 132 t f b b;
#X obj 233 83 tgl 15 0 empty empty empty 17 7 0 10 -262144 -1 -1 1
1;
#X msg 220 159 0;
#X msg 186 209 1;
#X obj 233 33 loadbang;
#X msg 233 54 1;
#X obj 170 42 sel 100;
#X obj 186 181 del 100;
#X connect 0 0 1 0;
#X connect 1 0 0 0;
#X connect 2 0 3 0;
#X connect 3 0 0 0;
#X connect 4 0 5 0;
#X connect 5 0 14 0;
#X connect 6 0 7 0;
#X connect 7 0 8 0;
#X connect 8 0 0 0;
#X connect 8 1 15 0;
#X connect 8 2 10 0;
#X connect 9 0 7 1;
#X connect 10 0 9 0;
#X connect 11 0 9 0;
#X connect 12 0 13 0;
#X connect 13 0 9 0;
#X connect 14 0 6 0;
#X connect 15 0 11 0;
#X coords 0 1 100 -1 15 45 1 0 0;
#X restore 44 49 graph;
#N canvas 0 22 450 300 (subpatch) 0;
#X obj 0 2 vsl 15 40 0 127 0 0 \$0-Gb0 \$0-Gb0.r g 5 35 0 10 -1 -1
-262144 0 0;
#N canvas 990 396 253 326 b 0;
#N canvas 307 177 872 547 RGB_____________ 0;
#X obj 243 -28 inlet;
#X obj 217 386 outlet;
#X obj 405 161 t b f;
#X obj 339 204 +;
#X obj 339 229 t b f;
#X obj 339 260 +;
#X obj 264 386 outlet;
#X obj 311 386 outlet;
#X obj 311 363 f;
#X obj 264 362 f;
#X obj 217 362 f;
#X obj 289 179 * -65536;
#X obj 339 139 * -256;
#X obj 405 139 * -1;
#X obj 339 291 - 1;
#X obj 210 213 t b b b b;
#X obj 338 -81 inlet;
#X obj 262 78 line;
#X msg 357 15 \$1 0;
#X obj 262 145 t b f;
#X obj 338 -11 t b f b;
#X floatatom 262 98 5 0 0 0 - - -;
#X floatatom 405 105 5 0 0 0 - - -;
#X floatatom 339 113 5 0 0 0 - - -;
#X floatatom 338 -57 5 0 0 0 - - -;
#X obj 262 121 int;
#X obj 243 1 delay 50;
#X msg 377 44 0 0;
#X obj 339 66 line;
#X obj 339 88 int;
#X obj 210 184 del 10;
#X msg 243 30 0 200;
#X connect 0 0 26 0;
#X connect 2 0 3 0;
#X connect 2 1 3 1;
#X connect 3 0 4 0;
#X connect 4 0 5 0;
#X connect 4 1 5 1;
#X connect 5 0 14 0;
#X connect 8 0 7 0;
#X connect 9 0 6 0;
#X connect 10 0 1 0;
#X connect 11 0 5 0;
#X connect 12 0 3 0;
#X connect 13 0 2 0;
#X connect 14 0 10 0;
#X connect 14 0 9 0;
#X connect 14 0 8 0;
#X connect 15 0 10 0;
#X connect 15 1 9 0;
#X connect 15 2 8 0;
#X connect 15 3 14 0;
#X connect 16 0 24 0;
#X connect 17 0 21 0;
#X connect 18 0 17 0;
#X connect 19 0 30 0;
#X connect 19 1 11 0;
#X connect 20 1 18 0;
#X connect 20 2 27 0;
#X connect 21 0 25 0;
#X connect 22 0 13 0;
#X connect 23 0 12 0;
#X connect 24 0 20 0;
#X connect 25 0 19 0;
#X connect 26 0 31 0;
#X connect 27 0 28 0;
#X connect 28 0 29 0;
#X connect 29 0 22 0;
#X connect 29 0 23 0;
#X connect 30 0 15 0;
#X connect 31 0 17 0;
#X connect 31 0 28 0;
#X restore 22 183 pd RGB_____________;
#X obj 86 121 * 2;
#X obj 22 206 pack 0 0 0;
#X obj 86 146 t b f;
#X obj 86 78 inlet;
#X obj 22 269 outlet;
#X msg 22 237 color \$1 \$2 0;
#X connect 0 0 2 0;
#X connect 0 1 2 1;
#X connect 0 2 2 2;
#X connect 1 0 3 0;
#X connect 2 0 6 0;
#X connect 3 0 0 0;
#X connect 3 1 0 1;
#X connect 4 0 1 0;
#X connect 6 0 5 0;
#X restore -12 57 pd b;
#X obj 0 -51 inlet;
#X floatatom 0 -26 5 0 0 0 - - -;
#X obj 170 -17 key;
#X floatatom 170 6 5 0 0 0 - - -;
#X msg 170 64 127;
#X obj 169 104 spigot;
#X obj 169 132 t f b b;
#X obj 233 83 tgl 15 0 empty empty empty 17 7 0 10 -262144 -1 -1 1
1;
#X msg 220 159 0;
#X msg 186 209 1;
#X obj 233 33 loadbang;
#X msg 233 54 1;
#X obj 170 42 sel 103;
#X obj 186 181 del 100;
#X connect 0 0 1 0;
#X connect 1 0 0 0;
#X connect 2 0 3 0;
#X connect 3 0 0 0;
#X connect 4 0 5 0;
#X connect 5 0 14 0;
#X connect 6 0 7 0;
#X connect 7 0 8 0;
#X connect 8 0 0 0;
#X connect 8 1 15 0;
#X connect 8 2 10 0;
#X connect 9 0 7 1;
#X connect 10 0 9 0;
#X connect 11 0 9 0;
#X connect 12 0 13 0;
#X connect 13 0 9 0;
#X connect 14 0 6 0;
#X connect 15 0 11 0;
#X coords 0 1 100 -1 15 45 1 0 0;
#X restore 81 49 graph;
#N canvas 358 374 450 300 (subpatch) 0;
#X obj 0 2 vsl 15 40 0 127 0 0 \$0-Ab0 \$0-Ab0.r h 5 35 0 10 -1 -1
-262144 0 0;
#N canvas 990 396 450 300 b 0;
#N canvas 307 177 872 547 RGB_____________ 0;
#X obj 243 -28 inlet;
#X obj 217 386 outlet;
#X obj 405 161 t b f;
#X obj 339 204 +;
#X obj 339 229 t b f;
#X obj 339 260 +;
#X obj 264 386 outlet;
#X obj 311 386 outlet;
#X obj 311 363 f;
#X obj 264 362 f;
#X obj 217 362 f;
#X obj 289 179 * -65536;
#X obj 339 139 * -256;
#X obj 405 139 * -1;
#X obj 339 291 - 1;
#X obj 210 213 t b b b b;
#X obj 338 -81 inlet;
#X obj 262 78 line;
#X msg 357 15 \$1 0;
#X obj 262 145 t b f;
#X obj 338 -11 t b f b;
#X floatatom 262 98 5 0 0 0 - - -;
#X floatatom 405 105 5 0 0 0 - - -;
#X floatatom 339 113 5 0 0 0 - - -;
#X floatatom 338 -57 5 0 0 0 - - -;
#X obj 262 121 int;
#X obj 243 1 delay 50;
#X msg 377 44 0 0;
#X obj 339 66 line;
#X obj 339 88 int;
#X obj 210 184 del 10;
#X msg 243 30 0 200;
#X connect 0 0 26 0;
#X connect 2 0 3 0;
#X connect 2 1 3 1;
#X connect 3 0 4 0;
#X connect 4 0 5 0;
#X connect 4 1 5 1;
#X connect 5 0 14 0;
#X connect 8 0 7 0;
#X connect 9 0 6 0;
#X connect 10 0 1 0;
#X connect 11 0 5 0;
#X connect 12 0 3 0;
#X connect 13 0 2 0;
#X connect 14 0 10 0;
#X connect 14 0 9 0;
#X connect 14 0 8 0;
#X connect 15 0 10 0;
#X connect 15 1 9 0;
#X connect 15 2 8 0;
#X connect 15 3 14 0;
#X connect 16 0 24 0;
#X connect 17 0 21 0;
#X connect 18 0 17 0;
#X connect 19 0 30 0;
#X connect 19 1 11 0;
#X connect 20 1 18 0;
#X connect 20 2 27 0;
#X connect 21 0 25 0;
#X connect 22 0 13 0;
#X connect 23 0 12 0;
#X connect 24 0 20 0;
#X connect 25 0 19 0;
#X connect 26 0 31 0;
#X connect 27 0 28 0;
#X connect 28 0 29 0;
#X connect 29 0 22 0;
#X connect 29 0 23 0;
#X connect 30 0 15 0;
#X connect 31 0 17 0;
#X connect 31 0 28 0;
#X restore 22 183 pd RGB_____________;
#X obj 86 121 * 2;
#X obj 22 206 pack 0 0 0;
#X obj 86 146 t b f;
#X obj 86 78 inlet;
#X obj 22 269 outlet;
#X msg 22 237 color \$1 \$2 0;
#X connect 0 0 2 0;
#X connect 0 1 2 1;
#X connect 0 2 2 2;
#X connect 1 0 3 0;
#X connect 2 0 6 0;
#X connect 3 0 0 0;
#X connect 3 1 0 1;
#X connect 4 0 1 0;
#X connect 6 0 5 0;
#X restore -12 57 pd b;
#X obj 0 -51 inlet;
#X floatatom 0 -26 5 0 0 0 - - -;
#X obj 170 -17 key;
#X floatatom 170 6 5 0 0 0 - - -;
#X msg 170 64 127;
#X obj 169 104 spigot;
#X obj 169 132 t f b b;
#X obj 233 83 tgl 15 0 empty empty empty 17 7 0 10 -262144 -1 -1 1
1;
#X msg 220 159 0;
#X msg 186 209 1;
#X obj 233 33 loadbang;
#X msg 233 54 1;
#X obj 170 42 sel 104;
#X obj 186 182 del 100;
#X connect 0 0 1 0;
#X connect 1 0 0 0;
#X connect 2 0 3 0;
#X connect 3 0 0 0;
#X connect 4 0 5 0;
#X connect 5 0 14 0;
#X connect 6 0 7 0;
#X connect 7 0 8 0;
#X connect 8 0 0 0;
#X connect 8 1 15 0;
#X connect 8 2 10 0;
#X connect 9 0 7 1;
#X connect 10 0 9 0;
#X connect 11 0 9 0;
#X connect 12 0 13 0;
#X connect 13 0 9 0;
#X connect 14 0 6 0;
#X connect 15 0 11 0;
#X coords 0 1 100 -1 15 45 1 0 0;
#X restore 104 49 graph;
#N canvas 740 177 450 300 (subpatch) 0;
#X obj 0 2 vsl 15 40 0 127 0 0 \$0-Bb0 \$0-Bb0.r j 5 35 0 10 -1 -1
-262144 0 0;
#N canvas 990 396 450 300 b 0;
#N canvas 307 177 872 547 RGB_____________ 0;
#X obj 243 -28 inlet;
#X obj 217 386 outlet;
#X obj 405 161 t b f;
#X obj 339 204 +;
#X obj 339 229 t b f;
#X obj 339 260 +;
#X obj 264 386 outlet;
#X obj 311 386 outlet;
#X obj 311 363 f;
#X obj 264 362 f;
#X obj 217 362 f;
#X obj 289 179 * -65536;
#X obj 339 139 * -256;
#X obj 405 139 * -1;
#X obj 339 291 - 1;
#X obj 210 213 t b b b b;
#X obj 338 -81 inlet;
#X obj 262 78 line;
#X msg 357 15 \$1 0;
#X obj 262 145 t b f;
#X obj 338 -11 t b f b;
#X floatatom 262 98 5 0 0 0 - - -;
#X floatatom 405 105 5 0 0 0 - - -;
#X floatatom 339 113 5 0 0 0 - - -;
#X floatatom 338 -57 5 0 0 0 - - -;
#X obj 262 121 int;
#X obj 243 1 delay 50;
#X msg 377 44 0 0;
#X obj 339 66 line;
#X obj 339 88 int;
#X obj 210 184 del 10;
#X msg 243 30 0 200;
#X connect 0 0 26 0;
#X connect 2 0 3 0;
#X connect 2 1 3 1;
#X connect 3 0 4 0;
#X connect 4 0 5 0;
#X connect 4 1 5 1;
#X connect 5 0 14 0;
#X connect 8 0 7 0;
#X connect 9 0 6 0;
#X connect 10 0 1 0;
#X connect 11 0 5 0;
#X connect 12 0 3 0;
#X connect 13 0 2 0;
#X connect 14 0 10 0;
#X connect 14 0 9 0;
#X connect 14 0 8 0;
#X connect 15 0 10 0;
#X connect 15 1 9 0;
#X connect 15 2 8 0;
#X connect 15 3 14 0;
#X connect 16 0 24 0;
#X connect 17 0 21 0;
#X connect 18 0 17 0;
#X connect 19 0 30 0;
#X connect 19 1 11 0;
#X connect 20 1 18 0;
#X connect 20 2 27 0;
#X connect 21 0 25 0;
#X connect 22 0 13 0;
#X connect 23 0 12 0;
#X connect 24 0 20 0;
#X connect 25 0 19 0;
#X connect 26 0 31 0;
#X connect 27 0 28 0;
#X connect 28 0 29 0;
#X connect 29 0 22 0;
#X connect 29 0 23 0;
#X connect 30 0 15 0;
#X connect 31 0 17 0;
#X connect 31 0 28 0;
#X restore 22 183 pd RGB_____________;
#X obj 86 121 * 2;
#X obj 22 206 pack 0 0 0;
#X obj 86 146 t b f;
#X obj 86 78 inlet;
#X obj 22 269 outlet;
#X msg 22 236 color \$1 \$2 0;
#X connect 0 0 2 0;
#X connect 0 1 2 1;
#X connect 0 2 2 2;
#X connect 1 0 3 0;
#X connect 2 0 6 0;
#X connect 3 0 0 0;
#X connect 3 1 0 1;
#X connect 4 0 1 0;
#X connect 6 0 5 0;
#X restore -12 57 pd b;
#X obj 0 -51 inlet;
#X floatatom 0 -26 5 0 0 0 - - -;
#X obj 170 -17 key;
#X floatatom 170 6 5 0 0 0 - - -;
#X msg 170 64 127;
#X obj 169 104 spigot;
#X obj 169 132 t f b b;
#X obj 233 83 tgl 15 0 empty empty empty 17 7 0 10 -262144 -1 -1 1
1;
#X msg 220 159 0;
#X msg 186 209 1;
#X obj 233 33 loadbang;
#X msg 233 54 1;
#X obj 170 42 sel 106;
#X obj 186 182 del 100;
#X connect 0 0 1 0;
#X connect 1 0 0 0;
#X connect 2 0 3 0;
#X connect 3 0 0 0;
#X connect 4 0 5 0;
#X connect 5 0 14 0;
#X connect 6 0 7 0;
#X connect 7 0 8 0;
#X connect 8 0 0 0;
#X connect 8 1 15 0;
#X connect 8 2 10 0;
#X connect 9 0 7 1;
#X connect 10 0 9 0;
#X connect 11 0 9 0;
#X connect 12 0 13 0;
#X connect 13 0 9 0;
#X connect 14 0 6 0;
#X connect 15 0 11 0;
#X coords 0 1 100 -1 15 45 1 0 0;
#X restore 126 49 graph;
#N canvas 228 145 1212 596 input 0;
#X obj 698 77 r \$0-C1;
#X obj 641 53 r \$0-B0;
#X obj 591 33 r \$0-Bb0;
#X obj 541 53 r \$0-A0;
#X obj 483 78 r \$0-Ab0;
#X obj 441 53 r \$0-G0;
#X obj 391 33 r \$0-Gb0;
#X obj 341 53 r \$0-F0;
#X obj 291 53 r \$0-E0;
#X obj 241 33 r \$0-Eb0;
#X obj 192 69 r \$0-D0;
#X obj 141 33 r \$0-Db0;
#X obj 91 53 r \$0-C0;
#X msg 91 252 0 \$1;
#X msg 141 252 1 \$1;
#X msg 191 252 2 \$1;
#X msg 241 252 3 \$1;
#X msg 291 252 4 \$1;
#X msg 341 252 5 \$1;
#X msg 391 252 6 \$1;
#X msg 441 252 7 \$1;
#X msg 491 252 8 \$1;
#X msg 541 252 9 \$1;
#X msg 591 252 10 \$1;
#X msg 641 252 11 \$1;
#X msg 691 252 12 \$1;
#X msg 415 391 set \$1 0;
#X msg 415 425 12 0;
#X obj 375 350 list;
#X obj 375 468 outlet;
#N canvas 0 22 506 467 filter 0;
#X obj 64 82 inlet;
#X obj 91 277 outlet;
#X obj 64 118 t b f;
#X obj 64 154 s \$0-poll;
#X obj 91 244 int;
#X connect 0 0 2 0;
#X connect 2 0 3 0;
#X connect 2 1 4 0;
#X connect 4 0 1 0;
#X restore 91 104 pd filter;
#N canvas 0 22 506 467 filter 0;
#X obj 64 82 inlet;
#X obj 91 277 outlet;
#X obj 64 118 t b f;
#X obj 64 154 s \$0-poll;
#X obj 91 244 int;
#X connect 0 0 2 0;
#X connect 2 0 3 0;
#X connect 2 1 4 0;
#X connect 4 0 1 0;
#X restore 146 155 pd filter;
#N canvas 0 22 506 467 filter 0;
#X obj 64 82 inlet;
#X obj 91 277 outlet;
#X obj 64 118 t b f;
#X obj 64 154 s \$0-poll;
#X obj 91 244 int;
#X connect 0 0 2 0;
#X connect 2 0 3 0;
#X connect 2 1 4 0;
#X connect 4 0 1 0;
#X restore 189 103 pd filter;
#N canvas 0 22 506 467 filter 0;
#X obj 64 82 inlet;
#X obj 91 277 outlet;
#X obj 64 118 t b f;
#X obj 64 154 s \$0-poll;
#X obj 91 244 int;
#X connect 0 0 2 0;
#X connect 2 0 3 0;
#X connect 2 1 4 0;
#X connect 4 0 1 0;
#X restore 238 159 pd filter;
#N canvas 0 22 506 467 filter 0;
#X obj 64 82 inlet;
#X obj 91 277 outlet;
#X obj 64 118 t b f;
#X obj 64 154 s \$0-poll;
#X obj 91 244 int;
#X connect 0 0 2 0;
#X connect 2 0 3 0;
#X connect 2 1 4 0;
#X connect 4 0 1 0;
#X restore 281 107 pd filter;
#N canvas 0 22 506 467 filter 0;
#X obj 64 82 inlet;
#X obj 91 277 outlet;
#X obj 64 118 t b f;
#X obj 64 154 s \$0-poll;
#X obj 91 244 int;
#X connect 0 0 2 0;
#X connect 2 0 3 0;
#X connect 2 1 4 0;
#X connect 4 0 1 0;
#X restore 344 161 pd filter;
#N canvas 0 22 506 467 filter 0;
#X obj 64 82 inlet;
#X obj 91 277 outlet;
#X obj 64 118 t b f;
#X obj 64 154 s \$0-poll;
#X obj 91 244 int;
#X connect 0 0 2 0;
#X connect 2 0 3 0;
#X connect 2 1 4 0;
#X connect 4 0 1 0;
#X restore 387 109 pd filter;
#N canvas 0 22 506 467 filter 0;
#X obj 64 82 inlet;
#X obj 91 277 outlet;
#X obj 64 118 t b f;
#X obj 64 154 s \$0-poll;
#X obj 91 244 int;
#X connect 0 0 2 0;
#X connect 2 0 3 0;
#X connect 2 1 4 0;
#X connect 4 0 1 0;
#X restore 439 166 pd filter;
#N canvas 0 22 506 467 filter 0;
#X obj 64 82 inlet;
#X obj 91 277 outlet;
#X obj 64 118 t b f;
#X obj 64 154 s \$0-poll;
#X obj 91 244 int;
#X connect 0 0 2 0;
#X connect 2 0 3 0;
#X connect 2 1 4 0;
#X connect 4 0 1 0;
#X restore 482 114 pd filter;
#N canvas 0 22 506 467 filter 0;
#X obj 64 82 inlet;
#X obj 91 277 outlet;
#X obj 64 118 t b f;
#X obj 64 154 s \$0-poll;
#X obj 91 244 int;
#X connect 0 0 2 0;
#X connect 2 0 3 0;
#X connect 2 1 4 0;
#X connect 4 0 1 0;
#X restore 540 170 pd filter;
#N canvas 0 22 506 467 filter 0;
#X obj 64 82 inlet;
#X obj 91 277 outlet;
#X obj 64 118 t b f;
#X obj 64 154 s \$0-poll;
#X obj 91 244 int;
#X connect 0 0 2 0;
#X connect 2 0 3 0;
#X connect 2 1 4 0;
#X connect 4 0 1 0;
#X restore 583 118 pd filter;
#N canvas 0 22 506 467 filter 0;
#X obj 64 82 inlet;
#X obj 91 277 outlet;
#X obj 64 118 t b f;
#X obj 64 154 s \$0-poll;
#X obj 91 244 int;
#X connect 0 0 2 0;
#X connect 2 0 3 0;
#X connect 2 1 4 0;
#X connect 4 0 1 0;
#X restore 636 181 pd filter;
#N canvas 0 22 506 467 filter 0;
#X obj 64 82 inlet;
#X obj 91 277 outlet;
#X obj 64 118 t b f;
#X obj 64 154 s \$0-poll;
#X obj 91 244 int;
#X connect 0 0 2 0;
#X connect 2 0 3 0;
#X connect 2 1 4 0;
#X connect 4 0 1 0;
#X restore 679 129 pd filter;
#X connect 0 0 42 0;
#X connect 1 0 41 0;
#X connect 2 0 40 0;
#X connect 3 0 39 0;
#X connect 4 0 38 0;
#X connect 5 0 37 0;
#X connect 6 0 36 0;
#X connect 7 0 35 0;
#X connect 8 0 34 0;
#X connect 9 0 33 0;
#X connect 10 0 32 0;
#X connect 11 0 31 0;
#X connect 12 0 30 0;
#X connect 13 0 28 0;
#X connect 14 0 28 0;
#X connect 15 0 28 0;
#X connect 16 0 28 0;
#X connect 17 0 28 0;
#X connect 18 0 28 0;
#X connect 19 0 28 0;
#X connect 20 0 28 0;
#X connect 21 0 28 0;
#X connect 22 0 28 0;
#X connect 23 0 28 0;
#X connect 24 0 28 0;
#X connect 25 0 28 0;
#X connect 26 0 27 0;
#X connect 27 0 29 0;
#X connect 28 0 26 0;
#X connect 28 0 29 0;
#X connect 30 0 13 0;
#X connect 31 0 14 0;
#X connect 32 0 15 0;
#X connect 33 0 16 0;
#X connect 34 0 17 0;
#X connect 35 0 18 0;
#X connect 36 0 19 0;
#X connect 37 0 20 0;
#X connect 38 0 21 0;
#X connect 39 0 22 0;
#X connect 40 0 23 0;
#X connect 41 0 24 0;
#X connect 42 0 25 0;
#X restore 189 98 pd input;
#X obj 160 -90 sel 1.5 2.5 4.5 5.5 6.5;
#X obj 371 -85 keyname;
#X obj 410 -49 sel Right Left;
#X obj 388 -6 once;
#X obj 371 -63 sel 0;
#X obj 432 -1 once;
#X obj 44 28 hradio 15 1 0 6 \$0-octave.slider \$0-octave.slider.r
empty 0 -8 0 10 -258113 -1 -1 2;
#X obj 287 125 + 3;
#X floatatom 287 154 5 0 0 0 - - -;
#X obj 288 -27 inlet;
#X obj 400 80 f;
#X obj 429 82 + 1;
#X obj 428 111 moses 0;
#X obj 468 133 moses 6;
#X floatatom 468 159 5 0 0 0 - - -;
#X obj 398 28 t b b;
#X msg 425 48 1;
#X obj 452 29 t b b;
#X msg 479 49 -1;
#X floatatom 288 5 5 0 0 0 - - -;
#X obj 269 44 loadbang;
#X msg 269 67 1;
#X msg 164 -62 127;
#X msg 201 -67 127;
#X msg 236 -49 127;
#X msg 271 -62 127;
#X msg 313 -59 127;
#X text 15 92 C;
#X text 35 92 D;
#X text 55 92 E;
#X text 75 91 F;
#X text 95 91 G;
#X text 115 91 A;
#X text 135 91 B;
#X text 155 90 C;
#X connect 2 0 3 0;
#X connect 3 0 4 0;
#X connect 5 0 52 0;
#X connect 7 0 6 0;
#X connect 8 0 10 1;
#X connect 8 0 12 0;
#X connect 8 0 15 0;
#X connect 9 0 10 0;
#X connect 9 1 11 1;
#X connect 10 0 11 0;
#X connect 11 0 7 0;
#X connect 11 0 20 0;
#X connect 12 0 13 0;
#X connect 13 0 14 0;
#X connect 15 0 16 0;
#X connect 16 0 17 0;
#X connect 17 0 18 0;
#X connect 20 0 19 0;
#X connect 29 0 37 0;
#X connect 30 0 21 0;
#X connect 31 0 22 0;
#X connect 32 0 23 0;
#X connect 33 0 24 0;
#X connect 34 0 25 0;
#X connect 35 0 26 0;
#X connect 36 0 27 0;
#X connect 37 0 30 0;
#X connect 37 1 31 0;
#X connect 37 2 32 0;
#X connect 37 3 33 0;
#X connect 37 4 34 0;
#X connect 37 5 35 0;
#X connect 37 6 36 0;
#X connect 37 7 38 0;
#X connect 37 8 45 0;
#X connect 38 0 28 0;
#X connect 44 0 9 0;
#X connect 45 0 67 0;
#X connect 45 1 68 0;
#X connect 45 2 69 0;
#X connect 45 3 70 0;
#X connect 45 4 71 0;
#X connect 46 0 49 0;
#X connect 46 1 47 0;
#X connect 47 0 48 0;
#X connect 47 1 50 0;
#X connect 48 0 60 0;
#X connect 49 0 48 1;
#X connect 49 0 50 1;
#X connect 50 0 62 0;
#X connect 52 0 53 0;
#X connect 53 0 8 0;
#X connect 54 0 64 0;
#X connect 55 0 56 0;
#X connect 56 0 57 0;
#X connect 57 1 58 0;
#X connect 58 0 59 0;
#X connect 59 0 55 1;
#X connect 59 0 64 0;
#X connect 60 0 55 0;
#X connect 60 1 61 0;
#X connect 61 0 56 1;
#X connect 62 0 55 0;
#X connect 62 1 63 0;
#X connect 63 0 56 1;
#X connect 64 0 51 0;
#X connect 65 0 66 0;
#X connect 66 0 55 0;
#X connect 67 0 39 0;
#X connect 68 0 40 0;
#X connect 69 0 41 0;
#X connect 70 0 42 0;
#X connect 71 0 43 0;
#X coords 0 -1 1 1 160 110 1 10 10;
