#N canvas 603 152 1066 599 10;
#X obj 329 525 tabwrite \$0-speed;
#X obj 469 450 tabwrite \$0-y;
#X obj 187 405 +;
#N canvas 299 161 679 450 z-pos 0;
#X floatatom 89 34 5 0 0 0 - - -;
#X floatatom 14 164 5 0 0 0 - - -;
#X floatatom 297 161 5 0 0 0 - - -;
#X obj 330 144 tgl 15 0 empty empty empty 17 7 0 10 -262144 -1 -1 1
1;
#X obj 297 185 spigot;
#X obj 35 208 spigot;
#X floatatom 35 243 5 0 0 0 - - -;
#X obj 89 6 inlet;
#X obj 35 275 outlet;
#X obj 89 91 expr if($f1<30 \, $f1 \, -30) \; if($f1>-30 \, $f1 \,
30);
#X obj 330 116 expr if($f1<30 \, 1 \, 0) \;;
#X obj 108 179 tgl 15 0 empty empty empty 17 7 0 10 -262144 -1 -1 1
1;
#X obj 108 154 expr if($f1>-30 \, 1 \, 0) \;;
#X obj 89 58 t f f f;
#X connect 0 0 13 0;
#X connect 1 0 5 0;
#X connect 2 0 4 0;
#X connect 3 0 4 1;
#X connect 4 0 6 0;
#X connect 5 0 6 0;
#X connect 6 0 8 0;
#X connect 7 0 0 0;
#X connect 9 0 1 0;
#X connect 9 1 2 0;
#X connect 10 0 3 0;
#X connect 11 0 5 1;
#X connect 12 0 11 0;
#X connect 13 0 9 0;
#X connect 13 1 12 0;
#X connect 13 2 10 0;
#X restore 187 429 pd z-pos;
#X obj 211 283 t f f f f;
#X obj 274 331 tabread \$0-speed;
#X obj 100 275 tabread \$0-y;
#X obj 78 189 t f f f f;
#X obj 274 378 + 0.05;
#X obj 274 356 * 1;
#X obj 78 151 inlet;
#X obj 187 463 tabwrite \$0-z;
#X obj 78 247 tabread \$0-x;
#X obj 324 277 tabwrite \$0-x;
#X obj 575 405 tabwrite \$0-z;
#X obj 187 380 tabread \$0-z;
#X obj 127 316 tabread \$0-z;
#X obj 87 342 pack f f f;
#X obj 83 374 outlet;
#X obj 707 175 f \$0;
#X obj 663 198 pack f f;
#X obj 707 148 loadbang;
#X obj 709 121 bng 15 250 50 0 empty empty empty 17 7 0 10 -262144
-1 -1;
#X obj 692 318 table \$0-x 100;
#X obj 692 347 table \$0-y 100;
#X obj 692 371 table \$0-z 100;
#X obj 692 398 table \$0-speed 100;
#X msg 663 222 \; \$2-x resize \$1 \; \$2-y resize \$1 \; \$2-z resize
\$1 \; \$2-speed resize \$1 \;;
#X floatatom 163 121 5 0 0 0 - - -;
#X obj 478 131 f;
#X obj 510 131 + 1;
#X obj 542 131 % 120;
#X obj 478 107 repeat 120;
#X obj 471 -6 init \$1;
#X obj 526 -5 inlet;
#X floatatom 526 27 5 0 0 0 - - -;
#X obj 471 55 t b f f f;
#X obj 478 157 t b b b b b f;
#X obj 107 122 hsl 50 15 0.01 1 0 0 empty empty Speed 5 8 0 10 -262144
-1 -1 1700 1;
#X obj 329 471 randomF 0.7;
#X obj 329 499 + 0.1;
#X obj 324 227 randomF 30;
#X obj 324 250 - 15;
#X obj 469 392 randomF 14;
#X obj 466 421 - 7;
#X obj 577 43 expr if($f1==0 \, 100 \, $f1);
#X obj 575 355 randomF 60;
#X obj 573 380 - 30;
#X connect 2 0 3 0;
#X connect 3 0 11 0;
#X connect 4 0 15 0;
#X connect 4 1 5 0;
#X connect 4 2 11 1;
#X connect 5 0 9 0;
#X connect 6 0 17 1;
#X connect 7 0 12 0;
#X connect 7 1 6 0;
#X connect 7 2 16 0;
#X connect 7 3 4 0;
#X connect 8 0 2 1;
#X connect 9 0 8 0;
#X connect 10 0 7 0;
#X connect 12 0 17 0;
#X connect 15 0 2 0;
#X connect 16 0 17 2;
#X connect 17 0 18 0;
#X connect 19 0 20 1;
#X connect 20 0 27 0;
#X connect 21 0 19 0;
#X connect 22 0 21 0;
#X connect 28 0 9 1;
#X connect 29 0 30 0;
#X connect 29 0 37 0;
#X connect 30 0 31 0;
#X connect 31 0 29 1;
#X connect 32 0 29 0;
#X connect 33 0 45 0;
#X connect 34 0 35 0;
#X connect 35 0 36 0;
#X connect 36 0 32 0;
#X connect 36 1 32 1;
#X connect 36 2 31 1;
#X connect 36 3 20 0;
#X connect 37 0 41 0;
#X connect 37 1 39 0;
#X connect 37 2 43 0;
#X connect 37 3 46 0;
#X connect 37 5 13 1;
#X connect 37 5 0 1;
#X connect 37 5 1 1;
#X connect 37 5 14 1;
#X connect 38 0 28 0;
#X connect 39 0 40 0;
#X connect 40 0 0 0;
#X connect 41 0 42 0;
#X connect 42 0 13 0;
#X connect 43 0 44 0;
#X connect 44 0 1 0;
#X connect 45 0 35 0;
#X connect 46 0 47 0;
#X connect 47 0 14 0;
#X coords 0 -1 1 1 100 40 1 100 100;
