#N canvas 83 271 723 514 10;
#X obj 345 56 / 360;
#X obj 478 73 / 360;
#X obj 319 319 pack f f f;
#X floatatom 235 53 5 0 0 0 - - -;
#X obj 345 79 expr $f1*2*3.1415926;
#X obj 478 98 expr $f1*2*3.1415926;
#X obj 269 166 expr $f1*cos($f2)*cos($f3);
#X obj 353 203 expr $f1*sin($f2);
#X obj 434 235 expr $f1*sin($f2)*cos($f3);
#X obj 353 284 +;
#X obj 388 284 +;
#X obj 325 246 unpack f f f;
#X obj 235 17 inlet;
#X obj 68 -108 inlet;
#X obj 269 137 t f f f;
#X obj 478 123 t f f f;
#X obj 345 104 t f f;
#X obj 319 284 +;
#X obj 490 -82 inlet;
#X obj 299 -80 inlet;
#X obj 317 364 outlet signal;
#X obj 68 -82 t a b;
#X obj 202 -114 t b b b;
#X obj 274 24 init \$1;
#X obj 365 -78 init \$2;
#X floatatom 326 -21 5 0 0 0 - - -;
#X floatatom 461 -11 5 0 0 0 - - -;
#X obj 522 -45 init \$3;
#X obj 181 337 translateXYZ 0 0 0;
#X obj 181 288 color 1 0 0;
#X obj 181 363 sphere 0.02 6;
#X obj 186 261 gemhead;
#X obj 209 308 unpack f f f;
#X connect 0 0 4 0;
#X connect 1 0 5 0;
#X connect 2 0 20 0;
#X connect 2 0 32 0;
#X connect 3 0 14 0;
#X connect 4 0 16 0;
#X connect 5 0 15 0;
#X connect 6 0 17 1;
#X connect 7 0 9 1;
#X connect 8 0 10 1;
#X connect 9 0 2 1;
#X connect 10 0 2 2;
#X connect 11 0 17 0;
#X connect 11 1 9 0;
#X connect 11 2 10 0;
#X connect 12 0 3 0;
#X connect 13 0 21 0;
#X connect 14 0 6 0;
#X connect 14 1 7 0;
#X connect 14 2 8 0;
#X connect 15 0 6 2;
#X connect 15 1 7 1;
#X connect 15 2 8 2;
#X connect 16 0 6 1;
#X connect 16 1 8 1;
#X connect 17 0 2 0;
#X connect 18 0 26 0;
#X connect 19 0 25 0;
#X connect 21 0 11 0;
#X connect 21 1 22 0;
#X connect 23 0 3 0;
#X connect 24 0 25 0;
#X connect 25 0 0 0;
#X connect 26 0 1 0;
#X connect 27 0 26 0;
#X connect 28 0 30 0;
#X connect 29 0 28 0;
#X connect 31 0 29 0;
#X connect 32 0 28 1;
#X connect 32 1 28 2;
#X connect 32 2 28 3;
