#N canvas 694 199 525 404 10;
#X obj 28 70 gemhead;
#X floatatom 212 32 5 0 0 0 theta - -;
#X obj 212 59 / 360;
#X floatatom 379 107 5 0 0 0 phi - -;
#X obj 379 135 / 360;
#X obj 124 296 pack f f f;
#X floatatom 136 145 5 0 0 0 - - -;
#X obj 212 82 expr $f1*2*3.1415926;
#X obj 379 164 expr $f1*2*3.1415926;
#X obj 136 177 expr $f1*cos($f2)*cos($f3);
#X obj 177 143 expr $f1*sin($f2);
#X obj 226 217 expr $f1*sin($f2)*cos($f3);
#X obj 103 348 outlet signal;
#X obj 124 267 +;
#X obj 154 267 +;
#X obj 190 267 +;
#X obj 139 229 unpack f f f;
#X obj 103 319 list;
#X obj 67 124 list;
#X obj 28 101 t b b b;
#X text 0 227 \$1=start-pos;
#X text -1 250 \$2=dis;
#X text -4 208 [k_pos];
#X text 0 317 \$1-out=pos;
#X text -1 343 \$2=set-pos;
#X obj 88 98 inlet in_1;
#X obj 136 65 inlet in_2;
#X obj 212 8 inlet in_3;
#X obj 379 84 inlet in_4;
#X text 0 270 \$3=theta;
#X text -1 289 \$4=phi;
#X connect 0 0 19 0;
#X connect 1 0 2 0;
#X connect 2 0 7 0;
#X connect 3 0 4 0;
#X connect 4 0 8 0;
#X connect 5 0 17 1;
#X connect 6 0 9 0;
#X connect 6 0 10 0;
#X connect 6 0 11 0;
#X connect 7 0 9 1;
#X connect 7 0 11 1;
#X connect 8 0 9 2;
#X connect 8 0 10 1;
#X connect 8 0 11 2;
#X connect 9 0 13 0;
#X connect 10 0 14 0;
#X connect 11 0 15 0;
#X connect 13 0 5 0;
#X connect 14 0 5 1;
#X connect 15 0 5 2;
#X connect 16 0 13 1;
#X connect 16 1 14 1;
#X connect 16 2 15 1;
#X connect 17 0 12 0;
#X connect 18 0 16 0;
#X connect 19 0 17 0;
#X connect 19 1 6 0;
#X connect 19 2 18 0;
#X connect 25 0 18 1;
#X connect 26 0 6 0;
#X connect 27 0 1 0;
#X connect 28 0 3 0;
