#N canvas 98 186 738 574 10;
#X floatatom 136 140 5 0 0 0 row - -;
#X floatatom 180 118 3 0 0 0 x - -;
#X floatatom 206 118 3 0 0 0 - - -;
#X obj 84 -37 init \$1;
#X obj 98 356 % 10;
#X floatatom 180 140 3 0 0 0 y - -;
#X floatatom 206 140 3 0 0 0 - - -;
#X obj 264 56 expr if($f1==0 \, 4 \, $f1);
#X obj 307 80 expr if($f1==0 \, -4 \, $f1);
#X obj 194 1 expr if($f1==0 \, -4 \, $f1);
#X obj 237 25 expr if($f1==0 \, 4 \, $f1);
#X obj 109 83 expr if($f1==0 \, 10 \, $f1);
#X obj 159 181 t f f f f f;
#X obj 138 -36 init \$2;
#X obj 195 -37 init \$3;
#X obj 246 -38 init \$4;
#X obj 304 -38 init \$5;
#X obj 355 -39 init \$6;
#X floatatom 137 117 4 0 0 0 total - -;
#X obj 113 220 t b f;
#X floatatom 111 241 5 0 0 0 - - -;
#X obj 112 265 expr int($f1/$f2);
#X obj 239 384 k_range 0 7 4 -4;
#X obj 33 177 inlet;
#X obj 239 359 expr int($f1/ $f2);
#X obj 48 268 t f f;
#X obj 98 384 k_range 0 9 -4 4;
#X obj 97 419 pack f f 0;
#X obj 92 444 outlet;
#X obj 32 26 expr if($f1==0 \, 100 \, $f1);
#X floatatom 229 299 5 0 0 0 - - -;
#X obj 230 323 - 1;
#X obj 142 337 - 1;
#X obj 358 168 inlet;
#X connect 0 0 12 0;
#X connect 1 0 26 3;
#X connect 2 0 26 4;
#X connect 3 0 29 0;
#X connect 4 0 26 0;
#X connect 5 0 22 3;
#X connect 6 0 22 4;
#X connect 7 0 5 0;
#X connect 8 0 6 0;
#X connect 9 0 1 0;
#X connect 10 0 2 0;
#X connect 11 0 0 0;
#X connect 12 0 19 0;
#X connect 12 1 4 1;
#X connect 12 2 32 0;
#X connect 12 4 24 1;
#X connect 13 0 11 0;
#X connect 14 0 9 0;
#X connect 15 0 10 0;
#X connect 16 0 7 0;
#X connect 17 0 8 0;
#X connect 18 0 20 0;
#X connect 19 0 20 0;
#X connect 19 1 21 1;
#X connect 20 0 21 0;
#X connect 21 0 30 0;
#X connect 22 0 27 1;
#X connect 23 0 25 0;
#X connect 24 0 22 0;
#X connect 25 0 4 0;
#X connect 25 1 24 0;
#X connect 26 0 27 0;
#X connect 27 0 28 0;
#X connect 29 0 18 0;
#X connect 30 0 31 0;
#X connect 31 0 22 2;
#X connect 32 0 26 2;
#X connect 33 0 18 0;
#X coords 0 -1 1 1 130 60 1 100 100;
