#N canvas 539 200 862 515 10;
#N canvas 315 175 749 511 rotate-pos 0;
#X obj 12 121 / 100;
#X obj 175 200 expr $f1*2*3.1415;
#X obj 175 222 t f f;
#X obj 175 255 sin;
#X obj 207 255 cos;
#X obj 175 284 * 2;
#X obj 207 284 * 2;
#X obj 175 17 inlet;
#X obj 175 332 outlet;
#X obj 289 330 outlet;
#X obj 302 100 tabread \$0-radius;
#X obj 302 129 * 1;
#X obj 345 131 r \$0-ctl-radius;
#X obj 51 120 r \$0-num;
#X obj 503 378 +;
#X obj 503 273 t f f f f;
#X obj 520 301 tabread \$0-speed;
#X obj 520 326 * 1;
#X obj 503 352 tabread \$0-posx;
#X obj 503 436 tabwrite \$0-posx;
#X obj 503 408 expr fmod($f1 \, 1);
#X obj 556 326 r \$0-ctl-speed;
#X obj 153 136 tabread \$0-posx;
#X obj 344 416 +;
#X obj 344 273 t f f f f;
#X obj 361 301 tabread \$0-speed;
#X obj 395 333 r \$0-ctl-speed;
#X obj 361 364 * 1;
#X obj 344 474 tabwrite \$0-posy;
#X obj 344 390 tabread \$0-posy;
#N canvas 490 270 679 450 y-pos 0;
#X floatatom 89 34 5 0 0 0 - - -;
#X floatatom 14 164 5 0 0 0 - - -;
#X floatatom 297 161 5 0 0 0 - - -;
#X obj 330 144 tgl 15 0 empty empty empty 17 7 0 10 -262144 -1 -1 1
1;
#X obj 297 185 spigot;
#X obj 35 208 spigot;
#X floatatom 35 243 5 0 0 0 - - -;
#X obj 89 6 inlet;
#X obj 35 296 outlet;
#X obj 108 179 tgl 15 0 empty empty empty 17 7 0 10 -262144 -1 -1 1
1;
#X obj 89 58 t f f f;
#X obj 89 91 expr if($f1<6 \, $f1 \, -6) \; if($f1>-6 \, $f1 \, 6)
;
#X obj 108 153 expr if($f1>-6 \, 1 \, 0) \;;
#X obj 330 116 expr if($f1<6 \, 1 \, 0) \;;
#X connect 0 0 10 0;
#X connect 1 0 5 0;
#X connect 2 0 4 0;
#X connect 3 0 4 1;
#X connect 4 0 6 0;
#X connect 5 0 6 0;
#X connect 6 0 8 0;
#X connect 7 0 0 0;
#X connect 9 0 5 1;
#X connect 10 0 11 0;
#X connect 10 1 12 0;
#X connect 10 2 13 0;
#X connect 11 0 1 0;
#X connect 11 1 2 0;
#X connect 12 0 9 0;
#X connect 13 0 3 0;
#X restore 344 440 pd y-pos;
#X obj 175 47 t f f f f f;
#X obj 185 441 outlet;
#X obj 168 105 t f f;
#X obj 191 161 tabread \$0-posy;
#X obj 302 156 + 0.1;
#X obj 200 367 r \$0-ctl-radiusy;
#X obj 185 393 * 0;
#X floatatom 452 372 5 0 0 0 - - -;
#X floatatom 600 358 5 0 0 0 - - -;
#X obj 395 360 * 10;
#X connect 1 0 2 0;
#X connect 2 0 3 0;
#X connect 2 1 4 0;
#X connect 3 0 5 0;
#X connect 4 0 6 0;
#X connect 5 0 8 0;
#X connect 6 0 9 0;
#X connect 7 0 31 0;
#X connect 10 0 11 0;
#X connect 11 0 35 0;
#X connect 12 0 11 1;
#X connect 13 0 0 1;
#X connect 14 0 20 0;
#X connect 15 0 18 0;
#X connect 15 1 16 0;
#X connect 15 2 19 1;
#X connect 16 0 17 0;
#X connect 17 0 14 1;
#X connect 18 0 14 0;
#X connect 20 0 19 0;
#X connect 21 0 17 1;
#X connect 21 0 39 0;
#X connect 22 0 1 0;
#X connect 23 0 30 0;
#X connect 24 0 29 0;
#X connect 24 1 25 0;
#X connect 24 2 28 1;
#X connect 25 0 27 0;
#X connect 26 0 40 0;
#X connect 27 0 23 1;
#X connect 29 0 23 0;
#X connect 30 0 28 0;
#X connect 31 0 0 0;
#X connect 31 1 33 0;
#X connect 31 2 15 0;
#X connect 31 3 10 0;
#X connect 31 4 24 0;
#X connect 33 0 22 0;
#X connect 33 1 34 0;
#X connect 34 0 37 0;
#X connect 35 0 5 1;
#X connect 35 0 6 1;
#X connect 36 0 37 1;
#X connect 37 0 32 0;
#X connect 40 0 27 1;
#X connect 40 0 38 0;
#X restore -5 109 pd rotate-pos;
#N canvas 70 139 939 593 meta 0;
#X obj 144 187 randomF 4;
#X obj 144 62 repeat 100;
#X obj 201 31 r \$0-num;
#X obj 144 87 f;
#X obj 170 87 + 1;
#X obj 197 87 % 100;
#X obj 145 40 bng 15 250 50 0 empty empty empty 17 7 0 10 -262144 -1
-1;
#X obj 144 163 t b f;
#X obj 144 217 tabwrite \$0-radius;
#X obj 272 68 s \$0-num;
#X obj 144 123 t f f f f f f;
#X obj 265 162 t b f;
#X obj 265 185 randomF 0.01;
#X obj 265 248 tabwrite \$0-speed;
#X obj 377 162 t b f;
#X obj 377 185 randomF 1;
#X obj 377 216 tabwrite \$0-posx;
#X obj 487 162 t b f;
#X obj 487 241 tabwrite \$0-posy;
#X obj 487 213 - 4;
#X obj 487 184 randomF 8;
#X obj 265 215 + 0.005;
#X obj 333 311 table \$0-speed 100;
#X obj 333 335 table \$0-posx 100;
#X obj 333 388 table \$0-radius 100;
#X obj 333 362 table \$0-posy 100;
#X obj 145 -105 inlet;
#X obj 365 -40 f \$0;
#X obj 145 -53 t b f f;
#X obj 321 -17 pack f f;
#X obj 365 -67 loadbang;
#X obj 367 -94 bng 15 250 50 0 empty empty empty 17 7 0 10 -262144
-1 -1;
#X msg 207 -86 192;
#X msg 349 18 \; \$2-speed resize \$1 \; \$2-posx resize \$1 \; \$2-posy
resize \$1 \; \$2-radius resize \$1 \;;
#X connect 0 0 8 0;
#X connect 1 0 3 0;
#X connect 2 0 1 1;
#X connect 2 0 5 1;
#X connect 3 0 4 0;
#X connect 3 0 10 0;
#X connect 4 0 5 0;
#X connect 5 0 3 1;
#X connect 6 0 1 0;
#X connect 7 0 0 0;
#X connect 7 1 8 1;
#X connect 10 0 7 0;
#X connect 10 1 11 0;
#X connect 10 2 14 0;
#X connect 10 3 17 0;
#X connect 11 0 12 0;
#X connect 11 1 13 1;
#X connect 12 0 21 0;
#X connect 14 0 15 0;
#X connect 14 1 16 1;
#X connect 15 0 16 0;
#X connect 17 0 20 0;
#X connect 17 1 18 1;
#X connect 19 0 18 0;
#X connect 20 0 19 0;
#X connect 21 0 13 0;
#X connect 26 0 28 0;
#X connect 27 0 29 1;
#X connect 28 0 6 0;
#X connect 28 1 9 0;
#X connect 28 2 29 0;
#X connect 29 0 33 0;
#X connect 30 0 27 0;
#X connect 31 0 30 0;
#X connect 32 0 28 0;
#X restore 149 242 pd meta;
#X obj 108 139 hsl 70 15 0 1 0 0 empty empty Radius-x 5 8 0 10 -262144
-1 -1 690 1;
#X obj -157 307 s \$0-ctl-radius;
#X obj 108 176 hsl 70 15 0 1 0 0 empty empty Speed 5 8 0 10 -262144
-1 -1 138 1;
#X obj 19 414 line;
#X msg 19 393 \$1 100;
#X obj 19 438 s \$0-ctl-speed;
#X obj 108 158 hsl 70 15 0 1 0 0 empty empty Radius-y 5 8 0 10 -262144
-1 -1 690 1;
#X obj -60 308 s \$0-ctl-radiusy;
#X obj -60 280 k_spring 1;
#X obj -157 279 k_spring 1;
#X obj 19 363 expr ($f1*2)+0.05;
#X obj -5 56 inlet;
#X floatatom 149 121 5 0 0 0 - - -;
#X obj 149 78 init \$1;
#X obj -5 172 pack f f f;
#X obj -5 202 outlet;
#X obj 202 78 inlet;
#X obj 249 75 init \$2;
#X obj 307 75 init \$3;
#X obj 358 74 init \$4;
#X obj -156 253 expr ($f1*3);
#X obj -59 253 expr ($f1*3);
#X obj 325 160 expr if($f1==0 \, 0.02 \, $f1);
#X obj 282 136 expr if($f1==0 \, 0.499 \, $f1);
#X obj 254 105 expr if($f1==0 \, 0.499 \, $f1);
#X connect 0 0 16 0;
#X connect 0 1 16 1;
#X connect 0 2 16 2;
#X connect 2 0 22 0;
#X connect 4 0 12 0;
#X connect 5 0 7 0;
#X connect 6 0 5 0;
#X connect 8 0 23 0;
#X connect 10 0 9 0;
#X connect 11 0 3 0;
#X connect 12 0 6 0;
#X connect 13 0 0 0;
#X connect 14 0 1 0;
#X connect 15 0 14 0;
#X connect 16 0 17 0;
#X connect 18 0 14 0;
#X connect 19 0 26 0;
#X connect 20 0 25 0;
#X connect 21 0 24 0;
#X connect 22 0 11 0;
#X connect 23 0 10 0;
#X connect 24 0 4 0;
#X connect 25 0 8 0;
#X connect 26 0 2 0;
#X coords 0 -1 1 1 85 95 1 100 100;
