#N canvas 442 142 882 671 10;
#X text 10 2 x = x0 + rsin(theta)*cos(phi);
#X text 10 12 y = y0 + rsin(theta)*sin(phi);
#X text 10 22 z = z0 + rcos(theta);
#X text 10 32 0 <= phi <= 2pi;
#X text 10 42 0 <= theta <= pi;
#N canvas 258 155 520 619 end 0;
#X obj 37 448 deg2rad;
#X obj 37 469 / 2;
#X obj 167 329 * 360;
#X obj 167 350 deg2rad;
#X obj 38 427 * 360;
#X obj 133 101 inlet;
#X obj 133 127 repeat 100;
#X obj 133 151 f 1;
#X obj 133 171 +;
#X obj 133 199 % 100;
#X obj 133 220 t f f;
#X obj 43 380 random 100;
#X obj 43 404 / 99;
#X obj 166 288 random 100;
#X obj 166 312 / 99;
#X obj 161 255 t b f f;
#X obj 165 402 +;
#X obj 56 261 t b f f;
#X obj 38 507 +;
#X floatatom 239 207 5 0 0 0 - - -;
#X obj 239 152 r \$0-num;
#X obj 188 370 tabread \$0-phi_start;
#X obj 165 434 tabwrite \$0-phi_end;
#X obj 90 474 tabread \$0-theta_start;
#X obj 38 534 tabwrite \$0-theta_end;
#X obj 250 245 * 4;
#X connect 0 0 1 0;
#X connect 1 0 18 0;
#X connect 2 0 3 0;
#X connect 3 0 16 0;
#X connect 4 0 0 0;
#X connect 5 0 6 0;
#X connect 6 0 7 0;
#X connect 7 0 8 0;
#X connect 8 0 9 0;
#X connect 9 0 8 1;
#X connect 9 0 10 0;
#X connect 10 0 17 0;
#X connect 10 1 15 0;
#X connect 11 0 12 0;
#X connect 12 0 4 0;
#X connect 13 0 14 0;
#X connect 14 0 2 0;
#X connect 15 0 13 0;
#X connect 15 1 22 1;
#X connect 15 2 21 0;
#X connect 16 0 22 0;
#X connect 17 0 11 0;
#X connect 17 1 24 1;
#X connect 17 2 23 0;
#X connect 18 0 24 0;
#X connect 19 0 13 1;
#X connect 19 0 11 1;
#X connect 19 0 25 0;
#X connect 20 0 6 1;
#X connect 20 0 19 0;
#X connect 20 0 9 1;
#X connect 21 0 16 1;
#X connect 23 0 18 1;
#X connect 25 0 14 1;
#X connect 25 0 12 1;
#X restore 148 390 pd end;
#N canvas 208 126 391 563 motion 0;
#X obj 199 163 -;
#X obj 184 195 *;
#X obj 178 231 +;
#X obj 161 362 -;
#X obj 146 394 *;
#X obj 140 430 +;
#X obj 60 29 inlet;
#X obj 144 226 f;
#X obj 60 106 f 1;
#X obj 60 128 +;
#X obj 161 299 t f f f;
#X obj 199 100 t f f f;
#X obj 60 178 t b f b f;
#X obj 109 230 f;
#X obj 61 56 t b f f;
#X obj 60 83 repeat 100;
#X obj 60 149 % 100;
#X obj 140 465 tabwrite \$0-phi_motion;
#X obj 161 340 tabread \$0-phi_end;
#X obj 188 322 tabread \$0-phi_start;
#X obj 178 254 tabwrite \$0-theta_motion;
#X obj 199 141 tabread \$0-theta_end;
#X obj 227 122 tabread \$0-theta_start;
#X obj 117 22 r \$0-num;
#X connect 0 0 1 1;
#X connect 1 0 2 0;
#X connect 2 0 20 0;
#X connect 3 0 4 1;
#X connect 4 0 5 0;
#X connect 5 0 17 0;
#X connect 6 0 14 0;
#X connect 7 0 4 0;
#X connect 8 0 9 0;
#X connect 9 0 16 0;
#X connect 10 0 18 0;
#X connect 10 1 19 0;
#X connect 10 2 17 1;
#X connect 11 0 21 0;
#X connect 11 1 22 0;
#X connect 11 2 20 1;
#X connect 12 0 13 0;
#X connect 12 1 11 0;
#X connect 12 2 7 0;
#X connect 12 3 10 0;
#X connect 13 0 1 0;
#X connect 14 0 15 0;
#X connect 14 1 13 1;
#X connect 14 2 7 1;
#X connect 15 0 8 0;
#X connect 16 0 9 1;
#X connect 16 0 12 0;
#X connect 18 0 3 0;
#X connect 19 0 5 1;
#X connect 19 0 3 1;
#X connect 21 0 0 0;
#X connect 22 0 2 1;
#X connect 22 0 0 1;
#X connect 23 0 15 1;
#X connect 23 0 16 1;
#X restore 83 510 pd motion;
#X obj 129 353 t b b b;
#X obj 83 454 line;
#N canvas 153 325 535 425 copy_end 0;
#X obj 96 33 inlet;
#X obj 96 62 repeat 100;
#X obj 96 86 f 1;
#X obj 96 106 +;
#X obj 96 134 % 100;
#X obj 188 215 t f f f;
#X obj 79 164 t f f;
#X obj 37 199 t f f f;
#X obj 153 22 r \$0-num;
#X obj 207 246 tabread \$0-theta_end;
#X obj 207 278 tabwrite \$0-theta_start;
#X obj 56 250 tabread \$0-phi_end;
#X obj 56 279 tabwrite \$0-phi_start;
#X connect 0 0 1 0;
#X connect 1 0 2 0;
#X connect 2 0 3 0;
#X connect 3 0 4 0;
#X connect 4 0 3 1;
#X connect 4 0 6 0;
#X connect 5 1 9 0;
#X connect 5 2 10 1;
#X connect 6 0 7 0;
#X connect 6 1 5 0;
#X connect 7 1 11 0;
#X connect 7 2 12 1;
#X connect 8 0 1 1;
#X connect 8 0 4 1;
#X connect 9 0 10 0;
#X connect 11 0 12 0;
#X restore 168 422 pd copy_end;
#X obj 129 307 tgl 15 0 empty empty empty 17 7 0 10 -262144 -1 -1 1
1;
#N canvas 455 323 650 429 init 0;
#X obj 116 251 deg2rad;
#X obj 220 186 * 360;
#X obj 220 207 deg2rad;
#X obj 116 219 * 360;
#X obj 193 19 repeat 100;
#X obj 193 43 f 1;
#X obj 193 63 +;
#X obj 193 88 % 100;
#X obj 193 112 t f f;
#X obj 193 -26 inlet;
#X obj 250 -18 r \$0-num;
#X obj 220 163 randomF 1;
#X obj 116 185 randomF 1;
#X obj 220 138 t b f;
#X obj 116 153 t b f;
#X obj 220 231 tabwrite \$0-phi_end;
#X obj 116 280 tabwrite \$0-theta_end;
#X connect 0 0 16 0;
#X connect 1 0 2 0;
#X connect 2 0 15 0;
#X connect 3 0 0 0;
#X connect 4 0 5 0;
#X connect 5 0 6 0;
#X connect 6 0 7 0;
#X connect 7 0 6 1;
#X connect 7 0 8 0;
#X connect 8 0 14 0;
#X connect 8 1 13 0;
#X connect 9 0 4 0;
#X connect 10 0 4 1;
#X connect 10 0 7 1;
#X connect 11 0 1 0;
#X connect 12 0 3 0;
#X connect 13 0 11 0;
#X connect 13 1 15 1;
#X connect 14 0 12 0;
#X connect 14 1 16 1;
#X restore -223 283 pd init;
#X obj 129 282 loadbang;
#X obj 129 331 metro 2000;
#X obj -223 259 bng 15 250 50 0 empty empty empty 17 7 0 10 -262144
-1 -1;
#X obj -512 228 inlet;
#X obj -144 309 f \$0;
#X obj -189 334 pack f f;
#X obj -144 282 loadbang;
#X obj -144 260 bng 15 250 50 0 empty empty empty 17 7 0 10 -262144
-1 -1;
#X obj 105 122 k_slider 0.1 4;
#X obj 42 179 s \$0-rad;
#X obj -223 143 init \$1;
#X obj 245 181 table \$0-theta_start 1000;
#X obj 245 201 table \$0-theta_end 1000;
#X obj 245 220 table \$0-phi_start 1000;
#X obj 244 242 table \$0-phi_end 1000;
#X obj 245 264 table \$0-phi_motion 1000;
#X obj 245 281 table \$0-theta_motion 1000;
#X obj -223 166 t b f f b;
#X obj 105 141 k_slider 100 2000;
#X msg 83 434 0 \, 1 \$1;
#X obj 83 410 list;
#X msg -189 361 \; \$2-theta_start resize \$1 \; \$2-theta_end resize
\$1 \; \$2-phi_start resize \$1 \; \$2-phi_end resize \$1 \; \$2-phi_motion
resize \$1 \; \$2-theta_motion resize \$1 \;;
#X obj -206 200 s \$0-num;
#X obj -461 491 expr cos($f1);
#X obj -477 424 expr sin($f1)*sin($f2);
#X obj -516 466 expr sin($f1)*cos($f2);
#X obj -516 514 * 2;
#X obj -486 514 * 2;
#X obj -461 514 * 2;
#X obj -454 444 r \$0-rad;
#X obj -340 342 tabread \$0-phi_motion;
#X obj -494 348 tabread \$0-theta_motion;
#X obj -512 250 t f f;
#X obj -493 377 t f f f;
#X obj -340 369 t f f;
#X obj -516 548 pack f f f;
#X obj -516 576 outlet;
#X obj 193 54 init \$2;
#X obj 258 53 init \$3;
#X obj 193 77 expr if($f1==0 \, 2 \, $f1);
#X obj 248 106 expr if($f1==0 \, 1000 \, $f1);
#X connect 7 0 32 0;
#X connect 7 1 5 0;
#X connect 7 2 9 0;
#X connect 8 0 6 0;
#X connect 10 0 13 0;
#X connect 12 0 10 0;
#X connect 13 0 7 0;
#X connect 14 0 11 0;
#X connect 15 0 44 0;
#X connect 16 0 17 1;
#X connect 17 0 33 0;
#X connect 18 0 16 0;
#X connect 19 0 18 0;
#X connect 20 0 21 0;
#X connect 22 0 29 0;
#X connect 29 0 14 0;
#X connect 29 1 34 0;
#X connect 29 2 17 0;
#X connect 29 3 19 0;
#X connect 30 0 32 1;
#X connect 30 0 13 1;
#X connect 31 0 8 0;
#X connect 32 0 31 0;
#X connect 35 0 40 0;
#X connect 36 0 39 0;
#X connect 37 0 38 0;
#X connect 38 0 47 0;
#X connect 39 0 47 1;
#X connect 40 0 47 2;
#X connect 41 0 40 1;
#X connect 41 0 39 1;
#X connect 41 0 38 1;
#X connect 42 0 46 0;
#X connect 43 0 45 0;
#X connect 44 0 43 0;
#X connect 44 1 42 0;
#X connect 45 0 37 0;
#X connect 45 1 36 0;
#X connect 45 2 35 0;
#X connect 46 0 37 1;
#X connect 46 1 36 1;
#X connect 47 0 48 0;
#X connect 49 0 51 0;
#X connect 50 0 52 0;
#X connect 51 0 20 0;
#X connect 52 0 30 0;
#X coords 0 -1 1 1 120 60 1 100 100;
