#N canvas 589 104 736 685 10;
#X obj 64 406 part_info 1 1 1;
#X obj 64 244 gemhead;
#X obj 318 247 t b b b;
#X obj 319 225 bng 15 250 50 0 empty empty empty 17 7 0 10 -262144
-1 -1;
#X obj 320 386 pack f f f;
#X obj 317 277 randomF 3;
#X obj 371 312 randomF 3;
#X obj 454 287 randomF 3;
#X obj 317 300 - 1.5;
#X obj 371 335 - 1.5;
#X obj 454 310 - 1.5;
#X obj 86 515 unpack f f f;
#X obj 64 406 part_info 1 1 1;
#X obj 201 482 t f f f;
#X obj -55 367 f \$0;
#X obj -139 321 t b f f;
#X obj -99 390 pack f f;
#X obj -55 340 loadbang;
#X obj -53 313 bng 15 250 50 0 empty empty empty 17 7 0 10 -262144
-1 -1;
#X msg -99 414 \; \$2-x resize \$1 \; \$2-y resize \$1 \; \$2-z resize
\$1 \;;
#X obj -139 265 init \$1;
#X obj 87 554 tabwrite \$0-x;
#X obj 169 613 tabwrite \$0-z;
#X obj 121 588 tabwrite \$0-y;
#X obj -184 466 inlet;
#X obj -168 510 t f f f;
#X floatatom -137 290 5 0 0 0 - - -;
#X obj 311 481 table \$0-x 100;
#X obj 311 510 table \$0-y 100;
#X obj 311 534 table \$0-z 100;
#X obj -161 630 pack f f f;
#X obj -162 659 outlet;
#X floatatom 112 121 3 0 0 0 x - -;
#X floatatom 146 121 3 0 0 0 y - -;
#X floatatom 181 121 3 0 0 0 z - -;
#X obj 224 170 t f f;
#X obj 266 171 t f f;
#X obj 309 171 t f f;
#X obj 222 246 / 2;
#X obj 265 266 / 2;
#X obj 309 197 / 2;
#X obj 289 33 expr if($f1==0 \, 4 \, $f1);
#X obj 262 2 expr if($f1==0 \, 4 \, $f1);
#X obj 332 57 expr if($f1==0 \, 4 \, $f1);
#X obj 256 -28 init \$2;
#X obj 314 -28 init \$3;
#X obj 365 -29 init \$4;
#X floatatom 170 142 5 0 0 0 speed - -;
#X obj 321 134 metro 1000;
#X obj 418 -27 init \$5;
#X obj 393 168 loadbang;
#X obj 393 191 tgl 15 0 empty empty empty 17 7 0 10 -262144 -1 -1 1
1;
#X obj -168 547 tabread \$0-x;
#X obj -150 571 tabread \$0-y;
#X obj -126 597 tabread \$0-z;
#X obj 64 294 part_velocity sphere 0 0 0 0.2;
#X obj 360 94 expr if($f1==0 \, 3000 \, $f1);
#X obj 64 381 part_orbitpoint 0 1 0 0.1;
#X obj -66 259 inlet;
#X obj 64 344 part_killold 100;
#X obj 64 267 part_head 2000;
#X obj 237 352 expr 2000/$f1;
#X floatatom 238 375 5 0 0 0 - - -;
#X obj 201 433 expr int($f1/$f2);
#X obj 201 456 change;
#X obj 64 320 part_source 50;
#X connect 0 1 63 0;
#X connect 0 2 11 0;
#X connect 1 0 60 0;
#X connect 2 0 5 0;
#X connect 2 1 6 0;
#X connect 2 2 7 0;
#X connect 3 0 2 0;
#X connect 4 0 57 1;
#X connect 5 0 8 0;
#X connect 6 0 9 0;
#X connect 7 0 10 0;
#X connect 8 0 4 0;
#X connect 9 0 4 1;
#X connect 10 0 4 2;
#X connect 11 0 21 0;
#X connect 11 1 23 0;
#X connect 11 2 22 0;
#X connect 13 0 21 1;
#X connect 13 1 23 1;
#X connect 13 2 22 1;
#X connect 14 0 16 1;
#X connect 15 2 16 0;
#X connect 16 0 19 0;
#X connect 17 0 14 0;
#X connect 18 0 17 0;
#X connect 20 0 26 0;
#X connect 24 0 25 0;
#X connect 25 0 52 0;
#X connect 25 1 53 0;
#X connect 25 2 54 0;
#X connect 26 0 15 0;
#X connect 26 0 61 0;
#X connect 30 0 31 0;
#X connect 32 0 35 0;
#X connect 33 0 36 0;
#X connect 34 0 37 0;
#X connect 35 0 38 0;
#X connect 35 1 5 1;
#X connect 36 0 39 0;
#X connect 36 1 6 1;
#X connect 37 0 40 0;
#X connect 37 1 7 1;
#X connect 38 0 8 1;
#X connect 39 0 9 1;
#X connect 40 0 10 1;
#X connect 41 0 33 0;
#X connect 42 0 32 0;
#X connect 43 0 34 0;
#X connect 44 0 42 0;
#X connect 45 0 41 0;
#X connect 46 0 43 0;
#X connect 47 0 48 1;
#X connect 48 0 3 0;
#X connect 49 0 56 0;
#X connect 50 0 51 0;
#X connect 51 0 48 0;
#X connect 52 0 30 0;
#X connect 53 0 30 1;
#X connect 54 0 30 2;
#X connect 55 0 65 0;
#X connect 56 0 47 0;
#X connect 57 0 0 0;
#X connect 58 0 26 0;
#X connect 59 0 57 0;
#X connect 60 0 55 0;
#X connect 61 0 62 0;
#X connect 62 0 63 1;
#X connect 63 0 64 0;
#X connect 64 0 13 0;
#X connect 65 0 59 0;
#X coords 0 -1 1 1 110 60 1 100 100;
