#N canvas 714 409 370 326 10;
#X obj -203 166 k_sig;
#X obj -203 236 pack f f;
#X obj -203 264 print;
#X obj -158 132 k_sig;
#X obj -203 135 inlet~;
#X obj -158 108 inlet~;
#X obj -134 251 print =======================;
#X obj -203 204 t f f;
#X obj -134 225 sel 0;
#X connect 0 0 7 0;
#X connect 1 0 2 0;
#X connect 3 0 1 1;
#X connect 4 0 0 0;
#X connect 5 0 3 0;
#X connect 7 0 1 0;
#X connect 7 1 8 0;
#X connect 8 0 6 0;
