#N canvas -119 313 713 502 10;
#X obj 217 48 f \$2;
#X obj 340 16 f \$4;
#X obj 161 -46 loadbang;
#X obj 122 -70 inlet;
#X obj 234 -75 inlet;
#X obj 305 -71 inlet;
#X obj 371 -67 inlet;
#X obj 63 72 inlet;
#X obj 77 284 outlet;
#X obj 139 47 f \$1;
#X obj 161 -20 t b b b b b;
#X obj 265 46 f \$3;
#X obj 141 106 expr abs($f2-$f1);
#X obj 71 142 expr 2*abs(($f1/$f2)-0.5);
#X text 306 175 -5 20 -5;
#X floatatom 299 131 5 0 0 0 - - -;
#X obj 68 213 expr ($f1*$f2)+$f3;
#X obj 270 72 t f f;
#X obj 299 105 expr ($f2-$f1);
#X connect 0 0 12 0;
#X connect 1 0 18 1;
#X connect 2 0 10 0;
#X connect 3 0 9 0;
#X connect 4 0 0 0;
#X connect 5 0 11 0;
#X connect 6 0 1 0;
#X connect 7 0 13 0;
#X connect 9 0 12 1;
#X connect 10 0 9 0;
#X connect 10 1 0 0;
#X connect 10 2 11 0;
#X connect 10 3 1 0;
#X connect 11 0 17 0;
#X connect 12 0 13 1;
#X connect 13 0 16 0;
#X connect 15 0 16 1;
#X connect 16 0 8 0;
#X connect 17 0 16 2;
#X connect 17 1 18 0;
#X connect 18 0 15 0;
