#N canvas 306 417 450 300 10;
#X obj 118 19 init \$1;
#X obj 258 36 init \$2;
#X obj 128 113 expr abs($f2-$f1);
#X obj 89 160 randomF;
#X floatatom 128 137 5 0 0 0 - - -;
#X obj 89 189 +;
#X obj 89 131 inlet;
#X obj 89 216 outlet;
#X obj 117 71 t f f;
#X floatatom 259 102 5 0 0 0 - - -;
#X floatatom 118 44 5 0 0 0 - - -;
#X obj 221 57 t b f;
#X connect 0 0 10 0;
#X connect 1 0 11 0;
#X connect 2 0 4 0;
#X connect 3 0 5 0;
#X connect 4 0 3 1;
#X connect 5 0 7 0;
#X connect 6 0 3 0;
#X connect 8 0 5 1;
#X connect 8 1 2 0;
#X connect 9 0 2 1;
#X connect 10 0 8 0;
#X connect 11 0 10 0;
#X connect 11 1 9 0;
