#N canvas 756 483 607 291 10;
#X obj 160 61 f \$1;
#X obj 227 44 f \$2;
#X obj 292 58 f \$3;
#X obj 340 16 f \$4;
#X obj 161 -46 loadbang;
#X obj 161 -20 t b b b b;
#X obj 160 90 expr $f2-$f1;
#X obj 293 89 expr $f2-$f1;
#X obj 122 -70 inlet;
#X obj 234 -75 inlet;
#X obj 305 -71 inlet;
#X obj 371 -67 inlet;
#X obj 227 66 t b f;
#X obj 340 48 t b f;
#X obj 94 19 t b f;
#X obj 63 72 inlet;
#X obj 70 156 outlet;
#X obj 71 128 expr ((($f1-$f2)/$f3)*$f4)+$f5;
#X connect 0 0 6 0;
#X connect 0 0 17 1;
#X connect 1 0 12 0;
#X connect 2 0 7 0;
#X connect 2 0 17 4;
#X connect 3 0 13 0;
#X connect 4 0 5 0;
#X connect 5 0 0 0;
#X connect 5 1 1 0;
#X connect 5 2 2 0;
#X connect 5 3 3 0;
#X connect 6 0 17 2;
#X connect 7 0 14 0;
#X connect 8 0 0 0;
#X connect 9 0 1 0;
#X connect 10 0 2 0;
#X connect 11 0 3 0;
#X connect 12 0 0 0;
#X connect 12 1 6 1;
#X connect 13 0 2 0;
#X connect 13 1 7 1;
#X connect 14 1 17 3;
#X connect 15 0 17 0;
#X connect 17 0 16 0;
