#N canvas 382 295 505 508 10;
#X obj 156 359 writesf~ 2;
#X msg 228 310 stop;
#X obj 65 175 savepanel;
#X msg 126 251 open \$1;
#X obj 103 137 bng 30 250 50 0 empty empty empty 17 7 0 10 -262144
-1 -1;
#X msg 65 296 start;
#X msg 85 239 0;
#X obj 11 281 outlet;
#X obj 349 278 inlet~;
#X obj 402 278 inlet~;
#X obj 228 235 sel 0;
#X obj 137 117 k_sig;
#X obj 275 20 init \$1;
#X obj 228 262 f;
#X obj 256 262 + 1;
#X obj 228 287 sel 1;
#X obj 65 203 t b b a b;
#X msg 270 235 0;
#X obj 140 32 phasor~;
#X obj 140 -22 sig~ \$1;
#X obj 140 4 expr~ 1/$v1;
#X obj 140 71 expr~ floor($v1*$f2 \, 0);
#X floatatom 275 44 5 0 0 0 - - -;
#X connect 1 0 0 0;
#X connect 2 0 16 0;
#X connect 3 0 0 0;
#X connect 4 0 2 0;
#X connect 5 0 0 0;
#X connect 6 0 7 0;
#X connect 6 0 18 1;
#X connect 8 0 0 0;
#X connect 9 0 0 1;
#X connect 10 0 13 0;
#X connect 11 0 10 0;
#X connect 12 0 22 0;
#X connect 13 0 14 0;
#X connect 13 0 15 0;
#X connect 14 0 13 1;
#X connect 15 0 1 0;
#X connect 16 0 5 0;
#X connect 16 1 6 0;
#X connect 16 2 3 0;
#X connect 16 3 17 0;
#X connect 17 0 13 1;
#X connect 18 0 21 0;
#X connect 19 0 20 0;
#X connect 20 0 18 0;
#X connect 21 0 11 0;
#X connect 22 0 21 1;
#X coords 0 -1 1 1 150 70 1 100 100;
