#N canvas 0 22 552 579 10;
#X obj 158 308 translateXYZ 0 0 0;
#X obj 210 -68 inlet;
#X obj 158 276 inlet;
#X obj 158 332 outlet;
#X obj 147 39 max 0;
#X floatatom 210 -43 5 0 0 0 - - -;
#X obj 195 31 max 0.25;
#X obj 148 63 min 0.25;
#X floatatom 154 86 5 0 0 0 - - -;
#X obj 209 60 min 0.5;
#X floatatom 271 92 5 0 0 0 - - -;
#X floatatom 330 90 5 0 0 0 - - -;
#X obj 268 34 max 0.5;
#X obj 329 27 max 0.75;
#X obj 330 55 min 1;
#X obj 156 119 k_range 0 0.25 -0.5 0.5;
#X obj 204 150 k_range 0.25 0.5 0.5 -0.5;
#X obj 277 179 k_range 0.5 0.75 0.5 -0.5;
#X obj 269 58 min 0.75;
#X floatatom 209 89 5 0 0 0 - - -;
#X obj 210 -20 moses 0.5;
#X obj 325 210 k_range 0.75 1 -0.5 0.5;
#X obj 415 68 init \$1;
#X obj 416 91 t f f;
#X obj 442 118 * -1;
#X obj 331 391 pack f f 0;
#X obj 331 420 outlet;
#X obj 179 191 t f f;
#X obj 219 215 t f f;
#X obj 275 220 t f f;
#X obj 315 244 t f f;
#X obj 140 -14 t f f;
#X obj 307 -11 t f f;
#X connect 0 0 3 0;
#X connect 1 0 5 0;
#X connect 2 0 0 0;
#X connect 4 0 7 0;
#X connect 5 0 20 0;
#X connect 6 0 9 0;
#X connect 7 0 8 0;
#X connect 8 0 15 0;
#X connect 9 0 19 0;
#X connect 10 0 17 0;
#X connect 11 0 21 0;
#X connect 12 0 18 0;
#X connect 13 0 14 0;
#X connect 14 0 11 0;
#X connect 15 0 27 0;
#X connect 16 0 28 0;
#X connect 17 0 29 0;
#X connect 18 0 10 0;
#X connect 19 0 16 0;
#X connect 20 0 31 0;
#X connect 20 1 32 0;
#X connect 21 0 30 0;
#X connect 22 0 23 0;
#X connect 23 0 15 4;
#X connect 23 0 16 3;
#X connect 23 0 17 3;
#X connect 23 0 21 4;
#X connect 23 1 24 0;
#X connect 24 0 21 3;
#X connect 24 0 17 4;
#X connect 24 0 16 4;
#X connect 24 0 15 3;
#X connect 25 0 26 0;
#X connect 27 0 25 0;
#X connect 27 1 0 1;
#X connect 28 0 25 1;
#X connect 28 1 0 2;
#X connect 29 0 25 0;
#X connect 29 1 0 1;
#X connect 30 0 25 1;
#X connect 30 1 0 2;
#X connect 31 0 4 0;
#X connect 31 1 6 0;
#X connect 32 0 12 0;
#X connect 32 1 13 0;
