#N canvas 204 279 579 291 10;
#X obj 152 125 / 255;
#X obj 217 126 / 255;
#X obj 295 125 / 255;
#X obj 153 70 init \$1;
#X obj 218 71 init \$2;
#X obj 295 71 init \$3;
#X obj 62 27 inlet;
#X obj 61 67 unpack f f f;
#X obj 152 156 outlet;
#X obj 217 152 outlet;
#X obj 295 156 outlet;
#X connect 0 0 8 0;
#X connect 1 0 9 0;
#X connect 2 0 10 0;
#X connect 3 0 0 0;
#X connect 4 0 1 0;
#X connect 5 0 2 0;
#X connect 6 0 7 0;
#X connect 7 0 0 0;
#X connect 7 1 1 0;
#X connect 7 2 2 0;
