#N canvas 365 166 541 486 10;
#X obj 222 69 / 360;
#X obj 389 145 / 360;
#X floatatom 144 70 5 0 0 0 - - -;
#X obj 222 92 expr $f1*2*3.1415926;
#X obj 389 174 expr $f1*2*3.1415926;
#X obj 144 187 expr $f1*cos($f2)*cos($f3);
#X obj 163 154 expr $f1*sin($f2);
#X obj 200 217 expr $f1*sin($f2)*cos($f3);
#X obj 134 277 +;
#X obj 164 277 +;
#X obj 200 277 +;
#X obj 149 239 unpack f f f;
#X obj 222 18 inlet;
#X obj 47 72 inlet;
#X obj 77 137 list;
#X obj 144 41 inlet;
#X obj 389 94 inlet;
#X obj 134 338 outlet;
#X obj 134 306 pack f f f;
#X obj 47 100 t b b b a;
#X obj 144 123 t f f f;
#X obj 144 91 v \$0-size;
#X obj 222 120 t f f;
#X connect 0 0 3 0;
#X connect 1 0 4 0;
#X connect 2 0 21 0;
#X connect 3 0 22 0;
#X connect 4 0 5 2;
#X connect 4 0 6 1;
#X connect 4 0 7 2;
#X connect 5 0 8 0;
#X connect 6 0 9 0;
#X connect 7 0 10 0;
#X connect 8 0 18 0;
#X connect 9 0 18 1;
#X connect 10 0 18 2;
#X connect 11 0 8 1;
#X connect 11 1 9 1;
#X connect 11 2 10 1;
#X connect 12 0 1 0;
#X connect 13 0 19 0;
#X connect 14 0 11 0;
#X connect 15 0 2 0;
#X connect 16 0 0 0;
#X connect 18 0 17 0;
#X connect 19 1 21 0;
#X connect 19 2 14 0;
#X connect 19 3 14 1;
#X connect 20 0 5 0;
#X connect 20 1 6 0;
#X connect 20 2 7 0;
#X connect 21 0 20 0;
#X connect 22 0 5 1;
#X connect 22 1 7 1;
