#N canvas 398 288 553 428 10;
#X obj 72 135 multimodel;
#X msg 6 38 rescale 0;
#X obj -21 -7 loadbang;
#X obj -21 15 t b b;
#X obj 71 -41 rotateXYZ 0 0 0;
#X floatatom 100 -67 5 0 0 0 - - -;
#X floatatom 158 -66 5 0 0 0 - - -;
#X obj 71 -170 inlet;
#X obj 71 -132 separator;
#X obj 139 61 inlet;
#X obj 139 112 % 7;
#X obj 72 -18 scale 0.1;
#X msg -21 70 open model/b*.obj 1 7 1;
#X connect 1 0 0 0;
#X connect 2 0 3 0;
#X connect 3 0 12 0;
#X connect 3 1 1 0;
#X connect 4 0 11 0;
#X connect 5 0 4 1;
#X connect 6 0 4 2;
#X connect 6 0 4 3;
#X connect 7 0 8 0;
#X connect 8 0 4 0;
#X connect 9 0 10 0;
#X connect 10 0 0 1;
#X connect 11 0 0 0;
#X connect 12 0 0 0;
