#N canvas 418 22 837 726 10;
#X obj -10 231 loadbang;
#X obj -10 280 f;
#X obj 22 280 + 1;
#X obj 9 365 randomF 40;
#X obj 136 374 randomF 40;
#X obj 136 397 - 20;
#X obj 9 388 - 20;
#X obj 367 24 gemhead;
#X obj 367 117 t a b;
#X obj 394 142 f;
#X obj 426 142 + 1;
#X obj 367 282 separator;
#X obj 544 221 +;
#X obj 367 353 translateXYZ 0 0 0;
#N canvas 564 231 679 450 z-pos 0;
#X floatatom 89 34 5 0 0 0 - - -;
#X floatatom 14 164 5 0 0 0 - - -;
#X floatatom 297 161 5 0 0 0 - - -;
#X obj 330 144 tgl 15 0 empty empty empty 17 7 0 10 -262144 -1 -1 1
1;
#X obj 297 185 spigot;
#X obj 35 208 spigot;
#X floatatom 35 243 5 0 0 0 - - -;
#X obj 89 6 inlet;
#X obj 35 275 outlet;
#X obj 108 179 tgl 15 0 empty empty empty 17 7 0 10 -262144 -1 -1 1
1;
#X obj 89 58 t f f f;
#X obj 89 91 expr if($f1<15 \, $f1 \, -15) \; if($f1>-15 \, $f1 \,
15);
#X obj 108 154 expr if($f1>-15 \, 1 \, 0) \;;
#X obj 330 116 expr if($f1<15 \, 1 \, 0) \;;
#X connect 0 0 10 0;
#X connect 1 0 5 0;
#X connect 2 0 4 0;
#X connect 3 0 4 1;
#X connect 4 0 6 0;
#X connect 5 0 6 0;
#X connect 6 0 8 0;
#X connect 7 0 0 0;
#X connect 9 0 5 1;
#X connect 10 0 11 0;
#X connect 10 1 12 0;
#X connect 10 2 13 0;
#X connect 11 0 1 0;
#X connect 11 1 2 0;
#X connect 12 0 9 0;
#X connect 13 0 3 0;
#X restore 544 245 pd z-pos;
#X obj 544 116 t f f f f;
#X obj 53 466 tabwrite \$0-pos;
#X obj -4 438 tabwrite \$0-speed;
#X obj 544 279 tabwrite \$0-go;
#X obj 561 144 tabread \$0-speed;
#X obj 544 196 tabread \$0-go;
#X obj 402 246 tabread \$0-pos;
#X obj 136 432 tabwrite \$0-y;
#X obj 437 298 tabread \$0-y;
#X obj 283 510 table \$0-speed 120;
#X obj 284 534 table \$0-pos 120;
#X obj 405 509 table \$0-go 120;
#X obj 406 533 table \$0-y 120;
#X obj 54 280 % 120;
#X obj -10 256 repeat 120;
#X obj 367 89 repeat 120;
#X obj 459 142 % 120;
#X obj 285 557 table \$0-fly 120;
#X obj 70 531 tabwrite \$0-fly;
#X obj 528 340 tabread \$0-fly;
#X obj 394 186 t f f f f;
#X obj 575 419 f 0;
#X obj 605 419 + 1;
#X obj 634 420 % 14;
#X floatatom 575 518 5 0 0 0 - - -;
#X obj 575 495 expr if($f1<7 \, $f1 \, abs($f1-13));
#X obj 528 315 t f b;
#X obj 575 369 f 0;
#X obj 605 369 + 1;
#X obj 575 394 sel 0;
#X obj 69 505 random 6;
#X obj 576 444 + 0;
#X obj 575 468 % 14;
#X obj 699 208 + 0.05;
#X obj 132 141 gemwin;
#X obj 367 452 k_seagull;
#X obj 367 56 translateXYZ 0 0 0;
#X obj -10 306 t f b b b b b;
#X obj 231 376 randomF 20;
#X obj 231 399 - 10;
#X obj 71 236 bng 15 250 50 0 empty empty empty 17 7 0 10 -262144 -1
-1;
#X obj 231 434 tabwrite \$0-go;
#X obj 634 370 % 120;
#X obj 561 169 * 1;
#X obj 88 339 randomF 0.5;
#X obj 88 367 + 0.1;
#X obj 123 69 loadbang;
#X msg 125 101 destroy \, reset \, dimen 800 400 \, create \, 1;
#X connect 0 0 29 0;
#X connect 1 0 2 0;
#X connect 1 0 52 0;
#X connect 2 0 28 0;
#X connect 3 0 6 0;
#X connect 4 0 5 0;
#X connect 5 0 22 0;
#X connect 6 0 16 0;
#X connect 7 0 51 0;
#X connect 8 0 11 0;
#X connect 8 1 9 0;
#X connect 9 0 10 0;
#X connect 9 0 35 0;
#X connect 10 0 31 0;
#X connect 11 0 13 0;
#X connect 12 0 14 0;
#X connect 13 0 50 0;
#X connect 14 0 13 3;
#X connect 14 0 18 0;
#X connect 15 0 20 0;
#X connect 15 1 19 0;
#X connect 15 2 18 1;
#X connect 19 0 58 0;
#X connect 20 0 12 0;
#X connect 21 0 13 1;
#X connect 23 0 13 2;
#X connect 28 0 1 1;
#X connect 29 0 1 0;
#X connect 30 0 8 0;
#X connect 31 0 9 1;
#X connect 34 0 46 0;
#X connect 35 0 21 0;
#X connect 35 1 23 0;
#X connect 35 2 15 0;
#X connect 35 3 41 0;
#X connect 36 0 37 0;
#X connect 36 0 46 1;
#X connect 37 0 38 0;
#X connect 38 0 36 1;
#X connect 39 0 50 1;
#X connect 40 0 39 0;
#X connect 41 0 34 0;
#X connect 41 1 42 0;
#X connect 42 0 43 0;
#X connect 42 0 44 0;
#X connect 43 0 57 0;
#X connect 44 0 36 0;
#X connect 45 0 33 0;
#X connect 46 0 47 0;
#X connect 47 0 40 0;
#X connect 48 0 12 1;
#X connect 51 0 30 0;
#X connect 52 0 16 1;
#X connect 52 0 17 1;
#X connect 52 0 22 1;
#X connect 52 0 33 1;
#X connect 52 0 56 1;
#X connect 52 1 3 0;
#X connect 52 2 59 0;
#X connect 52 3 4 0;
#X connect 52 4 45 0;
#X connect 52 5 53 0;
#X connect 53 0 54 0;
#X connect 54 0 56 0;
#X connect 55 0 29 0;
#X connect 57 0 42 1;
#X connect 58 0 48 0;
#X connect 59 0 60 0;
#X connect 60 0 17 0;
#X connect 61 0 62 0;
#X connect 62 0 49 0;
#X coords 0 726 1 725 110 40 0;
