#N canvas 601 218 582 515 10;
#X obj 130 354 outlet;
#X obj 104 105 hradio 30 1 0 5 empty empty empty 0 -8 0 10 -262144
-1 -1 4;
#X obj 107 185 GLdefine GL_POINTS;
#X obj 120 206 GLdefine GL_LINES;
#X obj 143 242 GLdefine GL_LINE_LOOP;
#X obj 162 273 GLdefine GL_TRIANGLE_STRIP;
#X obj 107 153 sel 0 1 2 3 4;
#X obj 191 314 GLdefine GL_QUAD_STRIP;
#X obj 294 190 loadbang;
#X msg 295 214 4;
#X connect 1 0 6 0;
#X connect 2 0 0 0;
#X connect 3 0 0 0;
#X connect 4 0 0 0;
#X connect 5 0 0 0;
#X connect 6 0 2 0;
#X connect 6 1 3 0;
#X connect 6 2 4 0;
#X connect 6 3 5 0;
#X connect 6 4 7 0;
#X connect 7 0 0 0;
#X connect 8 0 9 0;
#X connect 9 0 1 0;
#X coords 0 -1 1 1 160 40 2 100 100;
