#N canvas 601 218 582 515 10;
#X obj 130 354 outlet;
#X obj 191 314 GLdefine GL_QUAD_STRIP;
#X obj 294 190 loadbang;
#X msg 295 214 4;
#X connect 1 0 0 0;
#X connect 2 0 3 0;
#X connect 3 0 1 0;
#X coords 0 -1 1 1 160 40 2 100 100;
