#N canvas 497 140 489 437 10;
#X obj 106 24 inlet~;
#X obj 73 181 change;
#X obj 103 117 nbx 5 30 -1e+37 1e+37 0 0 empty empty empty 0 -8 0 12
-262144 -1 -1 640.485 256;
#X obj 106 59 unsig~ 20;
#X obj 73 209 expr int($f1*1000)/1000;
#X obj 73 310 outlet;
#X connect 0 0 3 0;
#X connect 1 0 4 0;
#X connect 3 0 1 0;
#X connect 4 0 5 0;
#X connect 4 0 2 0;
#X coords 0 -1 1 1 76 50 1 100 100;
