#N canvas 140 22 450 300 10;
#X obj 106 24 inlet~;
#X obj 73 208 outlet;
#X obj 73 181 change;
#X obj 103 117 nbx 5 30 -1e+37 1e+37 0 0 empty empty empty 0 -8 0 12
-262144 -1 -1 -290.275 256;
#X obj 106 59 unsig~ 20;
#X connect 0 0 4 0;
#X connect 2 0 1 0;
#X connect 4 0 2 0;
#X connect 4 0 3 0;
#X coords 0 -1 1 1 76 50 1 100 100;
