#N canvas 412 180 641 583 12;
#X obj 106 156 hsl 80 15 0 1 0 0 empty empty empty -2 -8 0 10 -262144
-1 -1 0 1;
#X obj 106 173 hsl 80 15 0 1 0 0 empty empty empty -2 -8 0 10 -262144
-1 -1 0 1;
#X obj 41 297 t b f;
#X floatatom 14 324 5 0 0 0 - - -, f 5;
#X floatatom 106 136 4 0 0 0 - - -, f 4;
#X floatatom 147 136 4 0 0 0 - - -, f 4;
#X obj 235 259 pack f f;
#X msg 235 282 range \$1 \$2;
#X obj 30 -75 loadbang;
#X obj 54 -7 f \$1;
#X obj 91 -10 f \$2;
#X obj 22 23 expr if($f1==0 \, 0 \, $f1);
#X obj 63 46 expr if($f1==0 \, 1 \, $f1);
#X obj -83 -58 inlet;
#X obj -83 -26 unpack f f f;
#X obj 106 190 hsl 80 15 0 1 0 0 empty empty empty -2 -8 0 10 -262144
-1 -1 0 1;
#X obj 13 350 pack f f f;
#X obj 85 297 t b f;
#X obj 31 -35 t b b b;
#X floatatom 215 31 5 0 0 0 - - -, f 5;
#X obj 215 7 r mic3;
#X obj 215 54 > 0.8;
#X obj 215 78 sel 1;
#X obj 237 165 randomF 1;
#X obj 237 140 t b b b;
#X msg 13 373 color \$1 \$2 \$3;
#X obj 13 394 outlet;
#X obj 263 184 randomF 1;
#X obj 290 211 randomF 1;
#X obj -63 123 sel 0;
#X msg -63 146 0;
#X obj 171 114 bng 15 250 50 0 empty empty empty 17 7 0 10 -262144
-1 -1;
#X connect 0 0 3 0;
#X connect 1 0 2 0;
#X connect 2 0 3 0;
#X connect 2 1 16 1;
#X connect 3 0 16 0;
#X connect 4 0 6 0;
#X connect 5 0 6 1;
#X connect 6 0 7 0;
#X connect 7 0 0 0;
#X connect 7 0 1 0;
#X connect 7 0 15 0;
#X connect 8 0 18 0;
#X connect 9 0 11 0;
#X connect 10 0 12 0;
#X connect 11 0 4 0;
#X connect 12 0 5 0;
#X connect 13 0 14 0;
#X connect 14 0 0 0;
#X connect 14 1 1 0;
#X connect 14 2 15 0;
#X connect 15 0 17 0;
#X connect 16 0 25 0;
#X connect 17 0 3 0;
#X connect 17 1 16 2;
#X connect 18 1 9 0;
#X connect 18 2 10 0;
#X connect 19 0 21 0;
#X connect 20 0 19 0;
#X connect 21 0 22 0;
#X connect 22 0 31 0;
#X connect 23 0 15 0;
#X connect 24 0 23 0;
#X connect 24 1 27 0;
#X connect 24 2 28 0;
#X connect 25 0 26 0;
#X connect 27 0 1 0;
#X connect 28 0 0 0;
#X connect 29 0 30 0;
#X connect 30 0 0 0;
#X connect 30 0 1 0;
#X connect 30 0 15 0;
#X connect 31 0 24 0;
#X coords 0 -1 1 1 90 110 1 100 100;
