#N canvas 112 258 451 384 10;
#X obj 104 101 hsl 100 15 0 1 0 0 empty empty k_slider~=0 5 8 0 10
-262144 -1 -1 0 1;
#X obj 101 63 inlet;
#X obj 101 153 t f f;
#X obj -24 195 expr int($f1*100)/100;
#X obj 128 196 sig~ 1;
#X obj 128 241 outlet~;
#X msg -24 221 label k_slider~=\$1;
#X msg 169 142 \$1 200;
#X obj 167 167 line;
#X connect 0 0 7 0;
#X connect 1 0 0 0;
#X connect 2 0 3 0;
#X connect 2 1 4 0;
#X connect 3 0 6 0;
#X connect 4 0 5 0;
#X connect 6 0 0 0;
#X connect 7 0 8 0;
#X connect 8 0 2 0;
#X coords 0 -1 1 1 107 17 2 100 100;
