#N canvas 412 180 629 504 10;
#X obj 106 137 hsl 80 15 0 1 0 0 empty empty empty -2 -8 0 10 -262144
-1 -1 0 1;
#X obj 106 153 hsl 80 15 0 1 0 0 empty empty empty -2 -8 0 10 -262144
-1 -1 0 1;
#X obj 41 278 t b f;
#X floatatom 14 305 5 0 0 0 - - -;
#X obj 13 355 outlet;
#X floatatom 121 117 5 0 0 0 - - -;
#X floatatom 155 117 5 0 0 0 - - -;
#X obj 214 187 pack f f;
#X msg 214 210 range \$1 \$2;
#X obj 129 -48 loadbang;
#X obj 129 19 f \$1;
#X obj 164 20 f \$2;
#X obj 121 50 expr if($f1==0 \, 0 \, $f1);
#X obj 162 73 expr if($f1==0 \, 1 \, $f1);
#X obj -126 -25 inlet;
#X obj 106 170 hsl 80 15 0 1 0 0 empty empty empty -2 -8 0 10 -262144
-1 -1 0 1;
#X obj 85 278 t b f;
#X obj 106 186 hsl 80 15 0 1 0 0 empty empty empty -2 -8 0 10 -262144
-1 -1 0 1;
#X obj 13 331 pack f f f f;
#X obj 131 281 t b f;
#X obj -126 1 unpack f f f f;
#X obj 130 -8 t b b b;
#X obj 37 68 f \$1;
#X connect 0 0 3 0;
#X connect 1 0 2 0;
#X connect 2 0 3 0;
#X connect 2 1 18 1;
#X connect 3 0 18 0;
#X connect 5 0 7 0;
#X connect 6 0 7 1;
#X connect 7 0 8 0;
#X connect 8 0 0 0;
#X connect 8 0 1 0;
#X connect 8 0 15 0;
#X connect 8 0 17 0;
#X connect 9 0 21 0;
#X connect 10 0 12 0;
#X connect 11 0 13 0;
#X connect 12 0 5 0;
#X connect 13 0 6 0;
#X connect 14 0 20 0;
#X connect 15 0 16 0;
#X connect 16 0 3 0;
#X connect 16 1 18 2;
#X connect 17 0 19 0;
#X connect 18 0 4 0;
#X connect 19 0 3 0;
#X connect 19 1 18 3;
#X connect 20 0 0 0;
#X connect 20 1 1 0;
#X connect 20 2 15 0;
#X connect 20 3 17 0;
#X connect 21 0 22 0;
#X connect 21 1 10 0;
#X connect 21 2 11 0;
#X connect 22 0 0 0;
#X connect 22 0 1 0;
#X connect 22 0 15 0;
#X connect 22 0 17 0;
#X coords 0 -1 1 1 90 105 1 100 100;
