#N canvas 768 206 515 441 10;
#X obj 13 324 +;
#X obj 28 177 f;
#X obj -47 24 loadbang;
#X msg -47 53 1;
#X obj -47 80 tgl 15 0 empty empty empty 17 7 0 10 -262144 -1 -1 0
1;
#X obj -47 127 t b b;
#X floatatom 28 111 5 0 0 0 - - -;
#X obj 28 201 - 0;
#X obj -18 325 f 0;
#X floatatom 28 279 5 0 0 0 - - -;
#X text 68 109 <--input;
#X text -82 375 output-->;
#X obj 81 279 tgl 15 0 empty empty empty 17 7 0 10 -262144 -1 -1 0
1;
#X obj 28 223 t f f;
#X obj 81 298 change;
#X obj -18 353 t f f;
#X floatatom -18 378 5 0 0 0 - - -;
#X obj 81 255 expr if($f1>-0.001 && $f1<0.001 \, 0 \, 1);
#X obj 28 66 inlet;
#X obj -18 402 outlet;
#X obj -47 105 metro 20;
#X obj 28 256 * 0.4;
#X connect 0 0 8 1;
#X connect 1 0 7 0;
#X connect 2 0 3 0;
#X connect 3 0 4 0;
#X connect 4 0 20 0;
#X connect 5 0 8 0;
#X connect 5 1 1 0;
#X connect 6 0 1 0;
#X connect 7 0 13 0;
#X connect 8 0 0 0;
#X connect 8 0 15 0;
#X connect 9 0 0 1;
#X connect 12 0 14 0;
#X connect 13 0 21 0;
#X connect 13 1 17 0;
#X connect 14 0 4 0;
#X connect 15 0 16 0;
#X connect 15 1 7 1;
#X connect 16 0 19 0;
#X connect 17 0 12 0;
#X connect 18 0 6 0;
#X connect 20 0 5 0;
#X connect 21 0 9 0;
