#N canvas 273 228 515 441 10;
#X obj 13 324 +;
#X obj 28 177 f;
#X obj -47 24 loadbang;
#X obj -47 80 tgl 15 0 empty empty empty 17 7 0 10 -262144 -1 -1 0
1;
#X obj -47 127 t b b;
#X obj 28 201 - 0;
#X obj -18 325 f 0;
#X text -82 375 output-->;
#X obj 81 279 tgl 15 0 empty empty empty 17 7 0 10 -262144 -1 -1 0
1;
#X obj 28 223 t f f;
#X obj 81 298 change;
#X obj -18 353 t f f;
#X obj 81 255 expr if($f1>-0.001 && $f1<0.001 \, 0 \, 1);
#X obj 28 42 inlet;
#X obj -18 402 outlet;
#X obj -47 105 metro 20;
#X msg -47 53 0;
#X obj 169 75 loadbang;
#X obj 169 124 + \$1;
#X obj 22 141 pipe;
#X obj 169 181 expr (1-($f1/10))*0.15+0.05;
#X obj 28 256 * 0.05;
#X obj 187 153 expr ($f1/10)*500;
#X obj 28 86 line;
#X msg 169 99 0;
#X text 235 125 1---10;
#X msg 28 64 \$1 100;
#X connect 0 0 6 1;
#X connect 1 0 5 0;
#X connect 2 0 16 0;
#X connect 3 0 15 0;
#X connect 4 0 6 0;
#X connect 4 1 1 0;
#X connect 5 0 9 0;
#X connect 6 0 0 0;
#X connect 6 0 11 0;
#X connect 8 0 10 0;
#X connect 9 0 21 0;
#X connect 9 1 12 0;
#X connect 10 0 3 0;
#X connect 11 0 14 0;
#X connect 11 1 5 1;
#X connect 12 0 8 0;
#X connect 13 0 26 0;
#X connect 15 0 4 0;
#X connect 16 0 3 0;
#X connect 17 0 24 0;
#X connect 18 0 20 0;
#X connect 18 0 22 0;
#X connect 19 0 1 0;
#X connect 20 0 21 1;
#X connect 21 0 0 1;
#X connect 22 0 19 1;
#X connect 23 0 19 0;
#X connect 24 0 18 0;
#X connect 26 0 23 0;
