#N canvas 661 29 778 777 10;
#X obj 140 552 pix_texture;
#X obj 140 584 alpha;
#X obj 193 170 t a b;
#X obj 192 317 separator;
#X obj 220 191 f;
#X obj 250 191 + 1;
#N canvas 0 22 450 300 (subpatch) 0;
#X array \$0-z 10 float 3;
#A 0 5.05504 6.05504 7.05506 0.0550518 1.05504 2.05504 3.05504 4.05503
6.4 7.2;
#X coords 0 8 10 0 200 140 1;
#X restore 477 552 graph;
#X obj 512 351 bng 15 250 50 0 empty empty empty 17 7 0 10 -262144
-1 -1;
#X obj 512 396 f;
#X obj 541 395 + 1;
#X obj 512 418 t f f;
#X obj 306 494 expr abs(1-(2*abs($f1-0.5)));
#X obj 512 325 loadbang;
#X obj 65 524 loadbang;
#X obj 193 -33 tgl 15 0 empty empty empty 17 7 0 10 -262144 -1 -1 1
1;
#X obj 192 401 rotateXYZ 0 0 0;
#X obj 192 346 translateXYZ 0 0 0;
#X obj 140 661 scale 1;
#X obj 391 354 expr $f1*53;
#X obj 193 11 t a b;
#X obj 281 28 f;
#X obj 220 215 t f f f f f f;
#X obj 314 215 expr ($f1*3)%7;
#X obj 314 237 expr ($f1/7)*2-1;
#X obj 279 376 expr ($f1/10)+$f2;
#X obj 391 332 expr ($f1*3)%11;
#X obj 512 487 tabwrite \$0-z;
#X obj 298 321 tabwrite \$0-z;
#X obj 220 261 tabread \$0-z;
#X obj 306 519 *;
#X obj 193 -56 inlet;
#X obj 362 439 inlet;
#X floatatom 362 461 5 0 0 0 - - -;
#X obj 438 -25 loadbang;
#X floatatom 438 21 5 0 0 0 - - -;
#X obj 502 -24 inlet;
#X obj 438 48 moses 0.1;
#X msg 438 -4 0.11;
#X floatatom 489 71 5 0 0 0 - - -;
#X obj 489 172 line;
#X obj 140 526 pix_image clould-2.tif;
#X obj 220 284 expr fmod($f1+$f2 \, 8);
#X obj 512 465 * 8;
#X obj 159 632 expr ((8-$f1)/8)+1;
#X obj 193 -10 gemhead -1;
#X obj 122 473 tgl 15 0 empty empty empty 17 7 0 10 -262144 -1 -1 1
1;
#X obj 306 472 / 8;
#X floatatom 234 561 5 0 0 0 - - -;
#X obj 140 609 colorRGB 1 1 1 0.5;
#X obj 140 684 square 10;
#X msg 65 546 auto 1;
#X obj 204 474 inlet;
#X obj 123 446 inlet;
#X obj 296 76 expr abs(($f1/360.0)-0.5)*1-0.5;
#X obj 311 28 + 0.1;
#X obj 349 28 fmod 360;
#X obj 489 144 \$1 5000;
#X obj 489 104 / 1.5;
#X obj 512 375 repeat 8;
#X obj 576 395 % 8;
#X obj 512 441 / 8;
#X obj 193 136 repeat 8;
#X obj 279 191 % 8;
#X obj 193 71 rotateXYZ 0 0 0;
#X obj 193 108 translateXYZ 0 0 -6;
#X connect 0 0 1 0;
#X connect 1 0 48 0;
#X connect 2 0 3 0;
#X connect 2 1 4 0;
#X connect 3 0 16 0;
#X connect 4 0 5 0;
#X connect 4 0 21 0;
#X connect 5 0 62 0;
#X connect 7 0 58 0;
#X connect 8 0 9 0;
#X connect 8 0 10 0;
#X connect 9 0 59 0;
#X connect 10 0 60 0;
#X connect 10 1 26 1;
#X connect 11 0 29 0;
#X connect 12 0 7 0;
#X connect 13 0 50 0;
#X connect 14 0 44 0;
#X connect 15 0 40 0;
#X connect 16 0 15 0;
#X connect 17 0 49 0;
#X connect 18 0 24 1;
#X connect 19 0 63 0;
#X connect 19 1 20 0;
#X connect 20 0 54 0;
#X connect 20 0 53 0;
#X connect 20 0 63 3;
#X connect 21 0 28 0;
#X connect 21 1 25 0;
#X connect 21 2 27 1;
#X connect 21 3 24 0;
#X connect 21 5 22 0;
#X connect 22 0 23 0;
#X connect 23 0 16 1;
#X connect 24 0 15 3;
#X connect 25 0 18 0;
#X connect 28 0 41 0;
#X connect 29 0 48 4;
#X connect 30 0 14 0;
#X connect 31 0 32 0;
#X connect 32 0 29 1;
#X connect 33 0 37 0;
#X connect 34 0 36 0;
#X connect 35 0 34 0;
#X connect 36 1 38 0;
#X connect 37 0 34 0;
#X connect 38 0 57 0;
#X connect 39 0 41 1;
#X connect 40 0 0 0;
#X connect 41 0 16 3;
#X connect 41 0 27 0;
#X connect 41 0 43 0;
#X connect 41 0 46 0;
#X connect 42 0 26 0;
#X connect 43 0 17 1;
#X connect 44 0 19 0;
#X connect 45 0 1 1;
#X connect 46 0 11 0;
#X connect 47 0 48 1;
#X connect 47 0 48 2;
#X connect 47 0 48 3;
#X connect 48 0 17 0;
#X connect 50 0 1 0;
#X connect 51 0 40 0;
#X connect 52 0 45 0;
#X connect 53 0 64 2;
#X connect 53 0 64 1;
#X connect 54 0 55 0;
#X connect 55 0 20 1;
#X connect 56 0 39 0;
#X connect 57 0 56 0;
#X connect 58 0 8 0;
#X connect 59 0 8 1;
#X connect 60 0 42 0;
#X connect 61 0 2 0;
#X connect 62 0 4 1;
#X connect 63 0 64 0;
#X connect 64 0 61 0;
