#N canvas 615 96 1068 623 10;
#X obj 236 174 f 0;
#X symbolatom 236 275 10 0 0 0 - - -, f 10;
#X msg 130 409 save /Users/aluan/Desktop/2016_ITRI/_12inch_pd/cross_60.png
1;
#X obj 154 127 t b b;
#X msg 178 372 set save \$1.png 1;
#X obj -74 336 t a b;
#X obj -74 267 t a b;
#X msg 262 139 0;
#X obj 236 250 makefilename %02d;
#X obj 265 174 + 1;
#X obj 250 -36 inlet;
#X obj 178 326 pack s s s 1;
#X obj 322 171 symbol;
#X obj 235 222 t f f;
#X obj 323 16 inlet;
#X obj 155 49 spigot;
#X obj 207 33 tgl 15 0 empty empty empty 17 7 0 10 -262144 -1 -1 0
1;
#X obj 251 50 t b b;
#X obj -74 201 gemhead 50000;
#X msg 360 345 0;
#X msg 251 73 1;
#X obj 149 304 bng 15 250 50 0 empty empty empty 17 7 0 10 -262144
-1 -1;
#X obj 178 293 getdir 2;
#X obj -74 303 pix_snap 0 0 500 500;
#X obj 288 499 outlet;
#X obj 388 488 print;
#X msg 387 460 snap done;
#X floatatom 423 203 5 0 0 0 - - -, f 5;
#X obj 323 70 route name dimen end;
#X obj 178 349 makesymbol %s/%s_%s;
#X obj -74 239 alpha;
#X obj 357 318 sel 1;
#X obj 250 29 bng 15 250 50 0 empty empty empty 17 7 0 10 -262144 -1
-1;
#X obj 192 129 t b b;
#X floatatom 232 199 5 0 0 0 - - -, f 5;
#X obj 206 162 bng 15 250 50 0 empty empty empty 17 7 0 10 -262144
-1 -1;
#X obj 130 478 pix_buffer \$0-test 2;
#X obj -73 360 pix_buffer_write \$0-test 2;
#X msg -31 335 1;
#X obj 155 19 gemhead;
#X connect 0 0 9 0;
#X connect 0 0 34 0;
#X connect 1 0 11 2;
#X connect 2 0 36 0;
#X connect 3 0 2 0;
#X connect 3 1 33 0;
#X connect 4 0 2 0;
#X connect 5 0 37 0;
#X connect 5 1 38 0;
#X connect 6 0 23 0;
#X connect 6 1 23 0;
#X connect 7 0 0 1;
#X connect 8 0 1 0;
#X connect 9 0 0 1;
#X connect 10 0 32 0;
#X connect 11 0 29 0;
#X connect 12 0 11 1;
#X connect 13 0 31 0;
#X connect 13 1 8 0;
#X connect 14 0 28 0;
#X connect 15 0 3 0;
#X connect 16 0 15 1;
#X connect 17 0 20 0;
#X connect 17 1 7 0;
#X connect 18 0 30 0;
#X connect 19 0 16 0;
#X connect 19 0 26 0;
#X connect 19 0 24 0;
#X connect 20 0 16 0;
#X connect 20 0 24 0;
#X connect 21 0 22 0;
#X connect 22 0 11 0;
#X connect 23 0 5 0;
#X connect 26 0 25 0;
#X connect 27 0 31 1;
#X connect 28 0 12 0;
#X connect 28 1 23 2;
#X connect 28 2 27 0;
#X connect 29 0 4 0;
#X connect 30 0 6 0;
#X connect 31 0 19 0;
#X connect 32 0 17 0;
#X connect 33 0 22 0;
#X connect 33 1 0 0;
#X connect 34 0 13 0;
#X connect 35 0 0 0;
#X connect 38 0 37 1;
#X connect 39 0 15 0;
