#N canvas 281 280 450 300 10;
#X obj 147 82 inlet;
#X obj 148 128 spigot;
#X obj 248 50 loadbang;
#X obj 247 86 init \$1;
#X obj 139 202 delay 50;
#X msg 137 229 1;
#X obj 183 102 tgl 15 0 empty empty empty 17 7 0 10 -262144 -1 -1 0
1;
#X obj 224 266 outlet;
#X msg 171 231 0;
#X obj 146 161 t b b f;
#X floatatom 252 121 5 0 0 0 - - -;
#X connect 0 0 1 0;
#X connect 1 0 9 0;
#X connect 2 0 3 0;
#X connect 2 0 6 0;
#X connect 3 0 4 1;
#X connect 3 0 10 0;
#X connect 4 0 5 0;
#X connect 5 0 6 0;
#X connect 6 0 1 1;
#X connect 8 0 6 0;
#X connect 9 0 4 0;
#X connect 9 1 8 0;
#X connect 9 2 7 0;
