#N canvas 169 156 289 444 10;
#X obj 3 102 inlet;
#X obj 58 231 spigot;
#X obj 107 106 tgl 15 0 empty empty empty 17 7 0 10 -262144 -1 -1 0
1;
#X obj 110 128 sel 0 1;
#X obj 58 103 inlet;
#X obj 52 286 outlet;
#X msg 109 151 0 1;
#X msg 140 151 1 0;
#X obj 92 176 unpack f f;
#X obj 106 232 spigot;
#X obj 107 33 loadbang;
#X msg 107 62 0;
#X obj 163 59 inlet;
#X connect 0 0 1 0;
#X connect 1 0 5 0;
#X connect 2 0 3 0;
#X connect 3 0 6 0;
#X connect 3 1 7 0;
#X connect 4 0 9 0;
#X connect 6 0 8 0;
#X connect 7 0 8 0;
#X connect 8 0 1 1;
#X connect 8 1 9 1;
#X connect 9 0 5 0;
#X connect 10 0 11 0;
#X connect 11 0 2 0;
#X connect 12 0 2 0;
#X coords 0 -1 1 1 30 25 2 100 100;
