#N canvas 673 187 715 585 10;
#X obj 229 228 s \$0-out;
#X msg 3 192 posX fix \$1;
#N canvas 565 515 355 193 compute 0;
#X obj 159 37 inlet;
#X obj 159 74 metro 20;
#X obj 159 135 s \$0-in;
#X msg 159 104 bang \, massesPosL;
#X connect 0 0 1 0;
#X connect 1 0 3 0;
#X connect 3 0 2 0;
#X restore 230 157 pd compute;
#X obj 230 140 tgl 15 0 empty empty ON/OFF 25 10 1 10 -262144 -1 -1
0 1;
#X obj 89 73 r \$0-out;
#X obj 89 97 route massesPosL;
#X obj 229 203 pmpd;
#X obj 3 216 s \$0-in;
#X obj 229 180 r \$0-in;
#X obj 89 121 unpack;
#X obj 385 374 t a;
#X msg 493 145 mass fix 0 10 0;
#X obj 385 400 s \$0-in;
#X obj 446 100 t b b b b b;
#X msg 518 121 reset;
#X obj 446 78 bng 15 250 50 0 empty empty empty 17 7 0 10 -262144 -1
-1;
#X msg 476 177 mass mob 1 10 0;
#X obj 446 39 loadbang;
#X floatatom 89 144 5 0 0 0 - - -;
#X floatatom 122 170 5 0 0 0 - - -;
#X obj 202 1 inlet;
#X obj 67 294 outlet;
#X obj 422 200 f \$1;
#X msg 422 304 set link souple 0 1 0.2 \$1;
#X msg 385 336 link souple 0 1 0.2 1;
#X obj 202 46 t f b;
#X msg 230 96 1;
#X obj 230 117 change;
#X obj 162 235 t f f;
#X obj 160 267 -;
#X floatatom 160 292 10 0 0 0 - - -;
#X msg 160 407 0;
#X obj 300 157 outlet;
#X obj 160 377 sel 1;
#X obj 160 323 abs;
#X msg 67 251 \$1 200;
#X obj 67 271 line;
#X obj 365 156 t b b;
#X floatatom 202 25 5 0 0 0 - - -;
#X msg 365 235 0;
#X obj 365 179 t b b;
#X msg 392 210 1;
#X obj 160 354 < 5e-05;
#X obj 443 177 inlet;
#X connect 1 0 7 0;
#X connect 3 0 2 0;
#X connect 4 0 5 0;
#X connect 5 0 9 0;
#X connect 6 0 0 0;
#X connect 8 0 6 0;
#X connect 9 0 18 0;
#X connect 9 1 19 0;
#X connect 10 0 12 0;
#X connect 11 0 10 0;
#X connect 13 0 37 0;
#X connect 13 1 22 0;
#X connect 13 2 16 0;
#X connect 13 3 11 0;
#X connect 13 4 14 0;
#X connect 14 0 10 0;
#X connect 15 0 13 0;
#X connect 16 0 10 0;
#X connect 17 0 15 0;
#X connect 18 0 1 0;
#X connect 19 0 28 0;
#X connect 19 0 35 0;
#X connect 20 0 38 0;
#X connect 22 0 23 0;
#X connect 23 0 24 0;
#X connect 24 0 10 0;
#X connect 25 0 18 0;
#X connect 25 1 26 0;
#X connect 26 0 27 0;
#X connect 27 0 3 0;
#X connect 27 0 32 0;
#X connect 28 0 29 1;
#X connect 28 1 29 0;
#X connect 29 0 30 0;
#X connect 30 0 34 0;
#X connect 31 0 27 0;
#X connect 33 0 31 0;
#X connect 34 0 42 0;
#X connect 35 0 36 0;
#X connect 36 0 21 0;
#X connect 37 0 40 0;
#X connect 37 1 24 0;
#X connect 38 0 25 0;
#X connect 39 0 38 0;
#X connect 40 0 39 0;
#X connect 40 1 41 0;
#X connect 41 0 38 0;
#X connect 42 0 33 0;
#X connect 43 0 22 1;
