#N canvas 655 209 727 407 10;
#X obj 103 115 hsl 75 28 0 1 0 0 empty empty 0.567568 0 15 0 10 -262144
-1 -1 4200 1;
#X obj 100 176 line~;
#X msg 100 154 \$1 1000;
#X floatatom 159 184 5 0 0 0 - - -;
#X obj 211 158 list prepend label;
#X obj 212 183 route list;
#X obj 211 134 makefilename %f;
#X obj 100 39 loadbang;
#X msg 100 63 0.4999;
#X obj 100 215 expr~ 1-$v1;
#X obj -28 55 inlet~;
#X obj 54 49 inlet~;
#X obj -43 129 +~;
#X obj 54 123 -~;
#X obj -43 221 -~;
#X obj 39 227 +~;
#X obj 54 172 *~;
#X obj -43 178 *~;
#X obj -43 248 outlet~;
#X obj 39 253 outlet~;
#X connect 0 0 2 0;
#X connect 0 0 3 0;
#X connect 1 0 9 0;
#X connect 1 0 17 1;
#X connect 2 0 1 0;
#X connect 3 0 6 0;
#X connect 4 0 5 0;
#X connect 5 0 0 0;
#X connect 6 0 4 0;
#X connect 7 0 8 0;
#X connect 8 0 0 0;
#X connect 9 0 16 1;
#X connect 10 0 12 1;
#X connect 10 0 13 1;
#X connect 11 0 12 0;
#X connect 11 0 13 0;
#X connect 12 0 17 0;
#X connect 13 0 16 0;
#X connect 14 0 18 0;
#X connect 15 0 19 0;
#X connect 16 0 14 1;
#X connect 16 0 15 1;
#X connect 17 0 14 0;
#X connect 17 0 15 0;
#X coords 0 -1 1 1 80 45 1 100 100;
