#N canvas 825 128 524 642 10;
#X obj -59 219 inlet~;
#X obj 23 213 inlet~;
#X obj -74 293 +~;
#X obj 23 287 -~;
#X obj -74 385 -~;
#X obj 8 391 +~;
#X obj 23 336 *~;
#X obj 138 123 hsl 118 30 0.02 0.98 0 0 empty empty WIDTH 0 8 0 10
-262144 -1 -1 7448 1;
#X obj 186 244 expr 1-$f1;
#X floatatom 228 285 5 0 0 0 - - -;
#X floatatom 186 269 5 0 0 0 - - -;
#X obj 102 123 bng 30 250 50 0 empty empty empty 17 7 0 10 -258113
-1 -1;
#X obj -74 342 *~;
#X obj 19 83 loadbang;
#X obj -73 458 st-pureverb /key;
#X msg 88 424 3 \$1;
#X msg 133 427 1 0.8;
#X obj 133 401 loadbang;
#X floatatom 88 400 5 0 0 0 - - -;
#X obj 88 374 expr ($f1-0.5)/0.6;
#X floatatom 108 208 5 0 0 0 - - -;
#X obj 108 256 line;
#X msg 90 45 0.4999;
#X obj 135 44 inlet;
#X floatatom 135 67 5 0 0 0 - - -;
#X obj 290 306 line~;
#X obj 232 166 moses 0.49;
#X msg 290 255 \$1 100;
#X obj 229 309 sig~;
#X obj 186 294 sig~;
#X obj 186 218 t f f;
#X floatatom 290 281 5 0 0 0 - - -;
#X obj 231 192 k_range 0.1 0.5 1 0.9;
#X obj 290 218 k_range 0.5 1 0.9 0.85;
#X obj -74 410 *~ 1;
#X obj 8 415 *~ 1;
#X obj -67 536 outlet~;
#X obj 96 534 outlet~;
#X msg 127 298 \$1 50;
#X obj 127 327 line~;
#X msg 187 322 \$1 50;
#X obj 187 351 line~;
#X msg 108 233 \$1 1000;
#X connect 0 0 2 1;
#X connect 0 0 3 1;
#X connect 1 0 2 0;
#X connect 1 0 3 0;
#X connect 2 0 12 0;
#X connect 3 0 6 0;
#X connect 4 0 34 0;
#X connect 5 0 35 0;
#X connect 6 0 4 1;
#X connect 6 0 5 1;
#X connect 7 0 20 0;
#X connect 8 0 10 0;
#X connect 9 0 28 0;
#X connect 9 0 40 0;
#X connect 10 0 29 0;
#X connect 10 0 38 0;
#X connect 11 0 22 0;
#X connect 12 0 4 0;
#X connect 12 0 5 0;
#X connect 13 0 11 0;
#X connect 14 0 36 0;
#X connect 14 1 37 0;
#X connect 15 0 14 2;
#X connect 16 0 14 2;
#X connect 17 0 16 0;
#X connect 18 0 15 0;
#X connect 19 0 18 0;
#X connect 20 0 42 0;
#X connect 21 0 19 0;
#X connect 21 0 26 0;
#X connect 21 0 30 0;
#X connect 22 0 24 0;
#X connect 23 0 24 0;
#X connect 24 0 7 0;
#X connect 26 0 32 0;
#X connect 26 1 33 0;
#X connect 27 0 31 0;
#X connect 30 0 8 0;
#X connect 30 1 9 0;
#X connect 31 0 25 0;
#X connect 32 0 27 0;
#X connect 33 0 27 0;
#X connect 34 0 14 0;
#X connect 35 0 14 1;
#X connect 38 0 39 0;
#X connect 39 0 12 1;
#X connect 40 0 41 0;
#X connect 41 0 6 1;
#X connect 42 0 21 0;
#X coords 0 -1 1 1 160 55 1 100 100;
