#N canvas 626 134 820 601 12;
#X obj 348 188 tgl 15 0 empty empty empty 17 7 0 10 -262144 -1 -1 1
1;
#X obj 287 96 tgl 15 0 empty empty empty 17 7 0 10 -262144 -1 -1 1
1;
#X obj 297 254 t b b b b b;
#X msg 393 280 0;
#X obj 195 58 t f f;
#X obj 297 182 sel 0;
#X obj 195 98 sel 1;
#X obj 168 289 timer;
#X obj 168 262 bng 15 250 50 0 empty empty empty 17 7 0 10 -262144
-1 -1;
#X obj 200 261 bng 15 250 50 0 empty empty empty 17 7 0 10 -262144
-1 -1;
#X floatatom 168 311 10 0 0 0 - - -, f 10;
#X msg 321 320 1;
#X obj 168 367 > 500;
#X obj 168 393 tgl 15 0 empty empty empty 17 7 0 10 -262144 -1 -1 0
1;
#X obj 168 413 sel 1;
#X obj 168 441 t b b b;
#X msg 228 473 0;
#X msg 198 534 1;
#X obj 198 512 del 500;
#X obj 195 28 inlet;
#X obj 239 338 init \$1;
#X obj 294 439 init \$2;
#X obj 231 280 inlet;
#X obj 330 407 inlet;
#X obj 69 379 outlet;
#X obj 369 338 outlet 0-click;
#X obj 168 568 outlet 1-click;
#X obj 386 70 loadbang;
#X msg 386 120 1;
#X obj 195 139 spigot;
#X obj 297 219 spigot;
#X floatatom 227 369 5 0 0 0 - - -, f 5;
#X floatatom 330 480 5 0 0 0 - - -, f 5;
#X connect 0 0 24 0;
#X connect 0 0 30 1;
#X connect 1 0 29 1;
#X connect 2 1 11 0;
#X connect 2 2 8 0;
#X connect 2 3 25 0;
#X connect 2 4 3 0;
#X connect 3 0 0 0;
#X connect 4 0 6 0;
#X connect 4 1 5 0;
#X connect 5 0 30 0;
#X connect 6 0 29 0;
#X connect 7 0 10 0;
#X connect 8 0 7 0;
#X connect 9 0 7 1;
#X connect 10 0 12 0;
#X connect 11 0 1 0;
#X connect 12 0 13 0;
#X connect 13 0 14 0;
#X connect 14 0 15 0;
#X connect 15 0 26 0;
#X connect 15 1 18 0;
#X connect 15 2 16 0;
#X connect 16 0 1 0;
#X connect 17 0 0 0;
#X connect 18 0 17 0;
#X connect 19 0 4 0;
#X connect 20 0 31 0;
#X connect 21 0 32 0;
#X connect 22 0 31 0;
#X connect 23 0 32 0;
#X connect 27 0 28 0;
#X connect 28 0 1 0;
#X connect 28 0 0 0;
#X connect 29 0 9 0;
#X connect 30 0 2 0;
#X connect 31 0 12 1;
#X connect 32 0 18 1;
