#N canvas 433 203 282 250 10;
#X obj 103 118 cnv 15 54 49 empty empty empty 20 12 0 14 -175035 -66577
0;
#X obj 108 131 tgl 20 0 empty empty empty 17 7 0 10 -258113 -1 -1 0
1;
#X obj -4 5 loadbang;
#X msg -4 27 0;
#X obj 104 208 syphonserver aluan_pd;
#X obj 104 183 gemhead 99999;
#X msg 181 160 set \$1;
#X obj 181 68 r gemlayer;
#X obj 181 90 sel 0 1;
#X msg 181 114 10000;
#X msg 200 138 -1;
#X obj 132 131 tgl 20 0 empty empty empty 17 7 0 10 -262144 -1 -1 0
1;
#X connect 1 0 5 0;
#X connect 2 0 3 0;
#X connect 3 0 1 0;
#X connect 5 0 4 0;
#X connect 6 0 5 0;
#X connect 7 0 8 0;
#X connect 8 0 9 0;
#X connect 8 1 10 0;
#X connect 9 0 6 0;
#X connect 10 0 6 0;
#X connect 11 0 8 0;
#X coords 0 -1 1 1 60 70 1 100 100;
