#N canvas 221 243 967 583 10;
#X obj -310 159 f;
#X floatatom 137 116 7 0 0 0 index - -;
#X obj -310 -5 r uzi;
#X obj -310 79 tgl 15 0 empty empty empty 17 7 0 10 -262144 -1 -1 0
1;
#X obj -310 102 select 1;
#X obj -310 213 s uzii;
#X obj 69 27 r uzii;
#X obj -265 7 tgl 15 0 empty empty empty 17 7 0 10 -262144 -1 -1 0
1;
#X obj -310 30 spigot 0;
#X obj -110 -39 r viewc;
#X obj -131 19 unpack 0 0 0;
#X obj -265 -55 t a b;
#X obj -131 -12 list;
#N canvas 554 71 378 548 unitvector3D 0;
#X obj 49 405 /;
#X obj 104 404 /;
#X obj 154 403 /;
#X obj 49 368 f;
#X obj 104 368 f;
#X obj 154 370 f;
#X obj 197 293 t b b b f;
#X obj 120 -22 inlet;
#X obj 49 429 outlet;
#X obj 104 430 outlet;
#X obj 154 428 outlet;
#X obj 120 44 -;
#X obj 147 44 -;
#X obj 173 45 -;
#X obj 20 177 pow 2;
#X obj 20 128 moses 0;
#X obj 20 148 * -1;
#X obj 82 175 pow 2;
#X obj 82 128 moses 0;
#X obj 82 147 * -1;
#X obj 227 174 pow 2;
#X obj 227 132 moses 0;
#X obj 227 151 * -1;
#X obj 197 236 +;
#X obj 212 211 +;
#X obj 197 264 sqrt;
#X obj 120 14 unpack 0 0 0 0 0 0;
#X text 78 42 A - B;
#X obj 120 82 t f f;
#X obj 161 83 t f f;
#X obj 201 83 t f f;
#X obj 248 318 t f f f;
#X connect 0 0 8 0;
#X connect 1 0 9 0;
#X connect 2 0 10 0;
#X connect 3 0 0 0;
#X connect 4 0 1 0;
#X connect 5 0 2 0;
#X connect 6 0 3 0;
#X connect 6 1 4 0;
#X connect 6 2 5 0;
#X connect 6 3 31 0;
#X connect 7 0 26 0;
#X connect 11 0 3 1;
#X connect 11 0 28 0;
#X connect 12 0 29 0;
#X connect 13 0 30 0;
#X connect 14 0 23 0;
#X connect 15 0 16 0;
#X connect 15 1 14 0;
#X connect 16 0 14 0;
#X connect 17 0 24 0;
#X connect 18 0 19 0;
#X connect 18 1 17 0;
#X connect 19 0 17 0;
#X connect 20 0 24 1;
#X connect 21 0 22 0;
#X connect 21 1 20 0;
#X connect 22 0 20 0;
#X connect 23 0 25 0;
#X connect 24 0 23 1;
#X connect 25 0 6 0;
#X connect 26 0 11 0;
#X connect 26 1 12 0;
#X connect 26 2 13 0;
#X connect 26 3 11 1;
#X connect 26 4 12 1;
#X connect 26 5 13 1;
#X connect 28 0 15 0;
#X connect 28 1 3 1;
#X connect 29 0 18 0;
#X connect 29 1 4 1;
#X connect 30 0 21 0;
#X connect 30 1 5 1;
#X connect 31 0 0 1;
#X connect 31 1 1 1;
#X connect 31 2 2 1;
#X restore -131 93 pd unitvector3D;
#X obj -131 137 pack 0 0 0;
#X obj -131 45 pack 0 0 0 0 0 0;
#X msg -131 68 \$4 \$5 \$6 \$1 \$2 \$3;
#N canvas 705 154 586 542 dirisdir 0;
#X obj 176 211 -;
#X obj 293 233 -;
#X obj 95 300 &&;
#X obj 106 258 t b f;
#X obj 176 316 &&;
#X obj 222 275 t b f;
#X obj 337 321 &&;
#X obj 337 289 t b f;
#X obj 176 369 &&;
#X obj 176 342 t b f;
#X obj 337 380 &&;
#X obj 337 350 t b f;
#X obj 352 113 * -1;
#X obj 106 176 -;
#X obj 106 124 inlet;
#X obj 106 150 unpack 0 0 0;
#X obj 121 57 inlet;
#X obj 121 83 unpack 0 0 0;
#X obj 337 435 outlet;
#X obj 337 407 change;
#X obj 338 263 < 0.2;
#X obj 292 287 > -0.2;
#X obj 222 243 < 0.2;
#X obj 176 240 > -0.2;
#X obj 106 232 < 0.2;
#X obj 61 233 > -0.2;
#X obj 325 53 r agtolang;
#X obj 325 83 t f f;
#X connect 0 0 22 0;
#X connect 0 0 23 0;
#X connect 1 0 20 0;
#X connect 1 0 21 0;
#X connect 2 0 8 0;
#X connect 3 0 2 0;
#X connect 3 1 2 1;
#X connect 4 0 9 0;
#X connect 5 0 4 0;
#X connect 5 1 4 1;
#X connect 6 0 11 0;
#X connect 7 0 6 0;
#X connect 7 1 6 1;
#X connect 8 0 10 0;
#X connect 9 0 8 0;
#X connect 9 1 8 1;
#X connect 10 0 19 0;
#X connect 11 0 10 0;
#X connect 11 1 10 1;
#X connect 12 0 21 1;
#X connect 12 0 23 1;
#X connect 12 0 25 1;
#X connect 13 0 24 0;
#X connect 13 0 25 0;
#X connect 14 0 15 0;
#X connect 15 0 13 0;
#X connect 15 1 0 0;
#X connect 15 2 1 0;
#X connect 16 0 17 0;
#X connect 17 0 13 1;
#X connect 17 1 0 1;
#X connect 17 2 1 1;
#X connect 19 0 18 0;
#X connect 20 0 7 0;
#X connect 21 0 6 0;
#X connect 22 0 5 0;
#X connect 23 0 4 0;
#X connect 24 0 3 0;
#X connect 25 0 2 0;
#X connect 26 0 27 0;
#X connect 27 0 20 1;
#X connect 27 0 22 1;
#X connect 27 0 24 1;
#X connect 27 1 12 0;
#X restore -265 -19 pd dirisdir;
#N canvas 705 154 586 542 dirisdir 0;
#X obj 176 211 -;
#X obj 293 233 -;
#X obj 95 300 &&;
#X obj 106 258 t b f;
#X obj 176 316 &&;
#X obj 222 275 t b f;
#X obj 337 321 &&;
#X obj 337 289 t b f;
#X obj 176 369 &&;
#X obj 176 342 t b f;
#X obj 337 380 &&;
#X obj 337 350 t b f;
#X obj 352 113 * -1;
#X obj 106 176 -;
#X obj 106 124 inlet;
#X obj 106 150 unpack 0 0 0;
#X obj 121 57 inlet;
#X obj 121 83 unpack 0 0 0;
#X obj 337 435 outlet;
#X obj 337 407 change;
#X obj 338 263 < 0.2;
#X obj 292 287 > -0.2;
#X obj 222 243 < 0.2;
#X obj 176 240 > -0.2;
#X obj 106 232 < 0.2;
#X obj 61 233 > -0.2;
#X obj 325 83 t f f;
#X obj 325 53 r agtol;
#X connect 0 0 22 0;
#X connect 0 0 23 0;
#X connect 1 0 20 0;
#X connect 1 0 21 0;
#X connect 2 0 8 0;
#X connect 3 0 2 0;
#X connect 3 1 2 1;
#X connect 4 0 9 0;
#X connect 5 0 4 0;
#X connect 5 1 4 1;
#X connect 6 0 11 0;
#X connect 7 0 6 0;
#X connect 7 1 6 1;
#X connect 8 0 10 0;
#X connect 9 0 8 0;
#X connect 9 1 8 1;
#X connect 10 0 19 0;
#X connect 11 0 10 0;
#X connect 11 1 10 1;
#X connect 12 0 21 1;
#X connect 12 0 23 1;
#X connect 12 0 25 1;
#X connect 13 0 24 0;
#X connect 13 0 25 0;
#X connect 14 0 15 0;
#X connect 15 0 13 0;
#X connect 15 1 0 0;
#X connect 15 2 1 0;
#X connect 16 0 17 0;
#X connect 17 0 13 1;
#X connect 17 1 0 1;
#X connect 17 2 1 1;
#X connect 19 0 18 0;
#X connect 20 0 7 0;
#X connect 21 0 6 0;
#X connect 22 0 5 0;
#X connect 23 0 4 0;
#X connect 24 0 3 0;
#X connect 25 0 2 0;
#X connect 26 0 20 1;
#X connect 26 0 22 1;
#X connect 26 0 24 1;
#X connect 26 1 12 0;
#X connect 27 0 26 0;
#X restore -310 57 pd dirisdir;
#X obj -115 -97 inlet;
#X obj -76 -8 unpack f f f;
#X obj -310 187 list;
#X obj -115 -67 t a a a;
#X obj -265 -80 inlet;
#X obj -17 -74 inlet;
#X text -74 -97 2.set pos;
#X text 28 -75 1.set name;
#X text -224 -80 3.test dis;
#X obj 69 53 unpack f f f f;
#X floatatom 102 140 5 0 0 0 - - -;
#X floatatom 136 140 5 0 0 0 - - -;
#X floatatom 171 140 5 0 0 0 - - -;
#X obj 148 324 pack 0 0 0;
#X obj 94 279 line;
#X obj 164 284 line;
#X obj 253 285 line;
#X obj 148 417 s camerapoint;
#X msg 94 254 \$1 500;
#X msg 164 259 \$1 500;
#X msg 253 262 \$1 500;
#X obj 185 117 tgl 15 0 empty empty empty 17 7 0 10 -262144 -1 -1 1
1;
#X obj 185 72 loadbang;
#X obj 100 219 spigot;
#X obj 160 224 spigot;
#X obj 250 231 spigot;
#X obj 148 364 gate 2;
#X obj 44 335 r ch-function;
#X obj 181 390 s targetpoint;
#X connect 0 0 21 0;
#X connect 2 0 8 0;
#X connect 3 0 4 0;
#X connect 4 0 0 0;
#X connect 6 0 28 0;
#X connect 7 0 8 1;
#X connect 8 0 18 0;
#X connect 9 0 12 1;
#X connect 10 0 15 0;
#X connect 10 1 15 1;
#X connect 10 2 15 2;
#X connect 11 0 17 0;
#X connect 11 1 12 0;
#X connect 12 0 10 0;
#X connect 13 0 14 0;
#X connect 13 1 14 1;
#X connect 13 2 14 2;
#X connect 14 0 17 1;
#X connect 15 0 16 0;
#X connect 16 0 13 0;
#X connect 17 0 7 0;
#X connect 18 0 3 0;
#X connect 19 0 22 0;
#X connect 20 0 15 3;
#X connect 20 1 15 4;
#X connect 20 2 15 5;
#X connect 21 0 5 0;
#X connect 22 0 21 1;
#X connect 22 1 18 1;
#X connect 22 2 20 0;
#X connect 23 0 11 0;
#X connect 24 0 0 1;
#X connect 28 0 1 0;
#X connect 28 1 29 0;
#X connect 28 2 30 0;
#X connect 28 3 31 0;
#X connect 29 0 42 0;
#X connect 30 0 43 0;
#X connect 31 0 44 0;
#X connect 32 0 45 1;
#X connect 33 0 32 0;
#X connect 34 0 32 1;
#X connect 35 0 32 2;
#X connect 37 0 33 0;
#X connect 38 0 34 0;
#X connect 39 0 35 0;
#X connect 40 0 42 1;
#X connect 40 0 43 1;
#X connect 40 0 44 1;
#X connect 41 0 40 0;
#X connect 42 0 37 0;
#X connect 43 0 38 0;
#X connect 44 0 39 0;
#X connect 45 0 36 0;
#X connect 45 1 47 0;
#X connect 46 0 45 0;
#X coords 0 -1 1 1 105 60 1 100 100;
