#N canvas 367 233 784 403 10;
#X obj 103 103 cnv 15 384 154 empty empty empty 20 12 0 14 -228856
-66577 0;
#N canvas 268 351 859 366 row 0;
#N canvas 525 172 450 300 (subpatch) 0;
#X obj 102 102 tgl 15 0 empty empty empty 17 7 0 10 -262144 -1 -1 0
1;
#X obj 73 75 inlet;
#X obj 73 172 outlet;
#X obj 73 140 spigot;
#X connect 0 0 3 1;
#X connect 1 0 3 0;
#X connect 3 0 2 0;
#X coords 0 -1 1 1 19 19 2 100 100;
#X restore 102 106 pd;
#N canvas 525 172 450 300 (subpatch) 0;
#X obj 102 102 tgl 15 0 empty empty empty 17 7 0 10 -262144 -1 -1 0
1;
#X obj 73 75 inlet;
#X obj 73 172 outlet;
#X obj 73 140 spigot;
#X connect 0 0 3 1;
#X connect 1 0 3 0;
#X connect 3 0 2 0;
#X coords 0 -1 1 1 19 19 2 100 100;
#X restore 124 106 pd;
#N canvas 525 172 450 300 (subpatch) 0;
#X obj 102 102 tgl 15 0 empty empty empty 17 7 0 10 -262144 -1 -1 0
1;
#X obj 73 75 inlet;
#X obj 73 172 outlet;
#X obj 73 140 spigot;
#X connect 0 0 3 1;
#X connect 1 0 3 0;
#X connect 3 0 2 0;
#X coords 0 -1 1 1 19 19 2 100 100;
#X restore 146 106 pd;
#N canvas 525 172 450 300 (subpatch) 0;
#X obj 102 102 tgl 15 0 empty empty empty 17 7 0 10 -262144 -1 -1 0
1;
#X obj 73 75 inlet;
#X obj 73 172 outlet;
#X obj 73 140 spigot;
#X connect 0 0 3 1;
#X connect 1 0 3 0;
#X connect 3 0 2 0;
#X coords 0 -1 1 1 19 19 2 100 100;
#X restore 168 106 pd;
#N canvas 525 172 450 300 (subpatch) 0;
#X obj 102 102 tgl 15 0 empty empty empty 17 7 0 10 -262144 -1 -1 0
1;
#X obj 73 75 inlet;
#X obj 73 172 outlet;
#X obj 73 140 spigot;
#X connect 0 0 3 1;
#X connect 1 0 3 0;
#X connect 3 0 2 0;
#X coords 0 -1 1 1 19 19 2 100 100;
#X restore 198 106 pd;
#N canvas 525 172 450 300 (subpatch) 0;
#X obj 102 102 tgl 15 0 empty empty empty 17 7 0 10 -262144 -1 -1 0
1;
#X obj 73 75 inlet;
#X obj 73 172 outlet;
#X obj 73 140 spigot;
#X connect 0 0 3 1;
#X connect 1 0 3 0;
#X connect 3 0 2 0;
#X coords 0 -1 1 1 19 19 2 100 100;
#X restore 220 106 pd;
#N canvas 525 172 450 300 (subpatch) 0;
#X obj 102 102 tgl 15 0 empty empty empty 17 7 0 10 -262144 -1 -1 0
1;
#X obj 73 75 inlet;
#X obj 73 172 outlet;
#X obj 73 140 spigot;
#X connect 0 0 3 1;
#X connect 1 0 3 0;
#X connect 3 0 2 0;
#X coords 0 -1 1 1 19 19 2 100 100;
#X restore 242 106 pd;
#N canvas 525 172 450 300 (subpatch) 0;
#X obj 102 102 tgl 15 0 empty empty empty 17 7 0 10 -262144 -1 -1 0
1;
#X obj 73 75 inlet;
#X obj 73 172 outlet;
#X obj 73 140 spigot;
#X connect 0 0 3 1;
#X connect 1 0 3 0;
#X connect 3 0 2 0;
#X coords 0 -1 1 1 19 19 2 100 100;
#X restore 264 106 pd;
#N canvas 525 172 450 300 (subpatch) 0;
#X obj 102 102 tgl 15 0 empty empty empty 17 7 0 10 -262144 -1 -1 0
1;
#X obj 73 75 inlet;
#X obj 73 172 outlet;
#X obj 73 140 spigot;
#X connect 0 0 3 1;
#X connect 1 0 3 0;
#X connect 3 0 2 0;
#X coords 0 -1 1 1 19 19 2 100 100;
#X restore 295 106 pd;
#N canvas 525 172 450 300 (subpatch) 0;
#X obj 102 102 tgl 15 0 empty empty empty 17 7 0 10 -262144 -1 -1 0
1;
#X obj 73 75 inlet;
#X obj 73 172 outlet;
#X obj 73 140 spigot;
#X connect 0 0 3 1;
#X connect 1 0 3 0;
#X connect 3 0 2 0;
#X coords 0 -1 1 1 19 19 2 100 100;
#X restore 317 106 pd;
#N canvas 525 172 450 300 (subpatch) 0;
#X obj 102 102 tgl 15 0 empty empty empty 17 7 0 10 -262144 -1 -1 0
1;
#X obj 73 75 inlet;
#X obj 73 172 outlet;
#X obj 73 140 spigot;
#X connect 0 0 3 1;
#X connect 1 0 3 0;
#X connect 3 0 2 0;
#X coords 0 -1 1 1 19 19 2 100 100;
#X restore 339 106 pd;
#N canvas 525 172 450 300 (subpatch) 0;
#X obj 102 102 tgl 15 0 empty empty empty 17 7 0 10 -262144 -1 -1 0
1;
#X obj 73 75 inlet;
#X obj 73 172 outlet;
#X obj 73 140 spigot;
#X connect 0 0 3 1;
#X connect 1 0 3 0;
#X connect 3 0 2 0;
#X coords 0 -1 1 1 19 19 2 100 100;
#X restore 361 106 pd;
#X obj 153 187 outlet;
#X obj 153 156 t b;
#X obj 126 24 sel 0 1 2 3 4 5 6 7 8 9 10 11 12 13 14 15;
#N canvas 525 172 450 300 (subpatch) 0;
#X obj 102 102 tgl 15 0 empty empty empty 17 7 0 10 -262144 -1 -1 0
1;
#X obj 73 75 inlet;
#X obj 73 172 outlet;
#X obj 73 140 spigot;
#X connect 0 0 3 1;
#X connect 1 0 3 0;
#X connect 3 0 2 0;
#X coords 0 -1 1 1 19 19 2 100 100;
#X restore 390 106 pd;
#N canvas 525 172 450 300 (subpatch) 0;
#X obj 102 102 tgl 15 0 empty empty empty 17 7 0 10 -262144 -1 -1 0
1;
#X obj 73 75 inlet;
#X obj 73 172 outlet;
#X obj 73 140 spigot;
#X connect 0 0 3 1;
#X connect 1 0 3 0;
#X connect 3 0 2 0;
#X coords 0 -1 1 1 19 19 2 100 100;
#X restore 412 106 pd;
#N canvas 525 172 450 300 (subpatch) 0;
#X obj 102 102 tgl 15 0 empty empty empty 17 7 0 10 -262144 -1 -1 0
1;
#X obj 73 75 inlet;
#X obj 73 172 outlet;
#X obj 73 140 spigot;
#X connect 0 0 3 1;
#X connect 1 0 3 0;
#X connect 3 0 2 0;
#X coords 0 -1 1 1 19 19 2 100 100;
#X restore 434 106 pd;
#N canvas 525 172 450 300 (subpatch) 0;
#X obj 102 102 tgl 15 0 empty empty empty 17 7 0 10 -262144 -1 -1 0
1;
#X obj 73 75 inlet;
#X obj 73 172 outlet;
#X obj 73 140 spigot;
#X connect 0 0 3 1;
#X connect 1 0 3 0;
#X connect 3 0 2 0;
#X coords 0 -1 1 1 19 19 2 100 100;
#X restore 456 106 pd;
#X obj 126 -3 inlet;
#X obj 101 101 cnv 2 10 2 empty empty empty 20 12 0 14 -258113 -66577
0;
#X obj 100 127 cnv 2 10 2 empty empty empty 20 12 0 14 -258113 -66577
0;
#X connect 0 0 13 0;
#X connect 1 0 13 0;
#X connect 2 0 13 0;
#X connect 3 0 13 0;
#X connect 4 0 13 0;
#X connect 5 0 13 0;
#X connect 6 0 13 0;
#X connect 7 0 13 0;
#X connect 8 0 13 0;
#X connect 9 0 13 0;
#X connect 10 0 13 0;
#X connect 11 0 13 0;
#X connect 13 0 12 0;
#X connect 14 0 0 0;
#X connect 14 1 1 0;
#X connect 14 2 2 0;
#X connect 14 3 3 0;
#X connect 14 4 4 0;
#X connect 14 5 5 0;
#X connect 14 6 6 0;
#X connect 14 7 7 0;
#X connect 14 8 8 0;
#X connect 14 9 9 0;
#X connect 14 10 10 0;
#X connect 14 11 11 0;
#X connect 14 12 15 0;
#X connect 14 13 16 0;
#X connect 14 14 17 0;
#X connect 14 15 18 0;
#X connect 15 0 13 0;
#X connect 16 0 13 0;
#X connect 17 0 13 0;
#X connect 18 0 13 0;
#X connect 19 0 14 0;
#X coords 0 -1 1 1 378 30 2 100 100;
#X restore 106 135 pd row;
#N canvas 268 351 859 366 row 0;
#N canvas 525 172 450 300 (subpatch) 0;
#X obj 102 102 tgl 15 0 empty empty empty 17 7 0 10 -262144 -1 -1 0
1;
#X obj 73 75 inlet;
#X obj 73 172 outlet;
#X obj 73 140 spigot;
#X connect 0 0 3 1;
#X connect 1 0 3 0;
#X connect 3 0 2 0;
#X coords 0 -1 1 1 19 19 2 100 100;
#X restore 102 106 pd;
#N canvas 525 172 450 300 (subpatch) 0;
#X obj 102 102 tgl 15 0 empty empty empty 17 7 0 10 -262144 -1 -1 0
1;
#X obj 73 75 inlet;
#X obj 73 172 outlet;
#X obj 73 140 spigot;
#X connect 0 0 3 1;
#X connect 1 0 3 0;
#X connect 3 0 2 0;
#X coords 0 -1 1 1 19 19 2 100 100;
#X restore 124 106 pd;
#N canvas 525 172 450 300 (subpatch) 0;
#X obj 102 102 tgl 15 0 empty empty empty 17 7 0 10 -262144 -1 -1 0
1;
#X obj 73 75 inlet;
#X obj 73 172 outlet;
#X obj 73 140 spigot;
#X connect 0 0 3 1;
#X connect 1 0 3 0;
#X connect 3 0 2 0;
#X coords 0 -1 1 1 19 19 2 100 100;
#X restore 146 106 pd;
#N canvas 525 172 450 300 (subpatch) 0;
#X obj 102 102 tgl 15 0 empty empty empty 17 7 0 10 -262144 -1 -1 0
1;
#X obj 73 75 inlet;
#X obj 73 172 outlet;
#X obj 73 140 spigot;
#X connect 0 0 3 1;
#X connect 1 0 3 0;
#X connect 3 0 2 0;
#X coords 0 -1 1 1 19 19 2 100 100;
#X restore 168 106 pd;
#N canvas 525 172 450 300 (subpatch) 0;
#X obj 102 102 tgl 15 0 empty empty empty 17 7 0 10 -262144 -1 -1 0
1;
#X obj 73 75 inlet;
#X obj 73 172 outlet;
#X obj 73 140 spigot;
#X connect 0 0 3 1;
#X connect 1 0 3 0;
#X connect 3 0 2 0;
#X coords 0 -1 1 1 19 19 2 100 100;
#X restore 198 106 pd;
#N canvas 525 172 450 300 (subpatch) 0;
#X obj 102 102 tgl 15 0 empty empty empty 17 7 0 10 -262144 -1 -1 0
1;
#X obj 73 75 inlet;
#X obj 73 172 outlet;
#X obj 73 140 spigot;
#X connect 0 0 3 1;
#X connect 1 0 3 0;
#X connect 3 0 2 0;
#X coords 0 -1 1 1 19 19 2 100 100;
#X restore 220 106 pd;
#N canvas 525 172 450 300 (subpatch) 0;
#X obj 102 102 tgl 15 0 empty empty empty 17 7 0 10 -262144 -1 -1 0
1;
#X obj 73 75 inlet;
#X obj 73 172 outlet;
#X obj 73 140 spigot;
#X connect 0 0 3 1;
#X connect 1 0 3 0;
#X connect 3 0 2 0;
#X coords 0 -1 1 1 19 19 2 100 100;
#X restore 242 106 pd;
#N canvas 525 172 450 300 (subpatch) 0;
#X obj 102 102 tgl 15 0 empty empty empty 17 7 0 10 -262144 -1 -1 0
1;
#X obj 73 75 inlet;
#X obj 73 172 outlet;
#X obj 73 140 spigot;
#X connect 0 0 3 1;
#X connect 1 0 3 0;
#X connect 3 0 2 0;
#X coords 0 -1 1 1 19 19 2 100 100;
#X restore 264 106 pd;
#N canvas 525 172 450 300 (subpatch) 0;
#X obj 102 102 tgl 15 0 empty empty empty 17 7 0 10 -262144 -1 -1 0
1;
#X obj 73 75 inlet;
#X obj 73 172 outlet;
#X obj 73 140 spigot;
#X connect 0 0 3 1;
#X connect 1 0 3 0;
#X connect 3 0 2 0;
#X coords 0 -1 1 1 19 19 2 100 100;
#X restore 295 106 pd;
#N canvas 525 172 450 300 (subpatch) 0;
#X obj 102 102 tgl 15 0 empty empty empty 17 7 0 10 -262144 -1 -1 0
1;
#X obj 73 75 inlet;
#X obj 73 172 outlet;
#X obj 73 140 spigot;
#X connect 0 0 3 1;
#X connect 1 0 3 0;
#X connect 3 0 2 0;
#X coords 0 -1 1 1 19 19 2 100 100;
#X restore 317 106 pd;
#N canvas 525 172 450 300 (subpatch) 0;
#X obj 102 102 tgl 15 0 empty empty empty 17 7 0 10 -262144 -1 -1 0
1;
#X obj 73 75 inlet;
#X obj 73 172 outlet;
#X obj 73 140 spigot;
#X connect 0 0 3 1;
#X connect 1 0 3 0;
#X connect 3 0 2 0;
#X coords 0 -1 1 1 19 19 2 100 100;
#X restore 339 106 pd;
#N canvas 525 172 450 300 (subpatch) 0;
#X obj 102 102 tgl 15 0 empty empty empty 17 7 0 10 -262144 -1 -1 0
1;
#X obj 73 75 inlet;
#X obj 73 172 outlet;
#X obj 73 140 spigot;
#X connect 0 0 3 1;
#X connect 1 0 3 0;
#X connect 3 0 2 0;
#X coords 0 -1 1 1 19 19 2 100 100;
#X restore 361 106 pd;
#X obj 153 187 outlet;
#X obj 153 156 t b;
#X obj 126 24 sel 0 1 2 3 4 5 6 7 8 9 10 11 12 13 14 15;
#N canvas 525 172 450 300 (subpatch) 0;
#X obj 102 102 tgl 15 0 empty empty empty 17 7 0 10 -262144 -1 -1 0
1;
#X obj 73 75 inlet;
#X obj 73 172 outlet;
#X obj 73 140 spigot;
#X connect 0 0 3 1;
#X connect 1 0 3 0;
#X connect 3 0 2 0;
#X coords 0 -1 1 1 19 19 2 100 100;
#X restore 390 106 pd;
#N canvas 525 172 450 300 (subpatch) 0;
#X obj 102 102 tgl 15 0 empty empty empty 17 7 0 10 -262144 -1 -1 0
1;
#X obj 73 75 inlet;
#X obj 73 172 outlet;
#X obj 73 140 spigot;
#X connect 0 0 3 1;
#X connect 1 0 3 0;
#X connect 3 0 2 0;
#X coords 0 -1 1 1 19 19 2 100 100;
#X restore 412 106 pd;
#N canvas 525 172 450 300 (subpatch) 0;
#X obj 102 102 tgl 15 0 empty empty empty 17 7 0 10 -262144 -1 -1 0
1;
#X obj 73 75 inlet;
#X obj 73 172 outlet;
#X obj 73 140 spigot;
#X connect 0 0 3 1;
#X connect 1 0 3 0;
#X connect 3 0 2 0;
#X coords 0 -1 1 1 19 19 2 100 100;
#X restore 434 106 pd;
#N canvas 525 172 450 300 (subpatch) 0;
#X obj 102 102 tgl 15 0 empty empty empty 17 7 0 10 -262144 -1 -1 0
1;
#X obj 73 75 inlet;
#X obj 73 172 outlet;
#X obj 73 140 spigot;
#X connect 0 0 3 1;
#X connect 1 0 3 0;
#X connect 3 0 2 0;
#X coords 0 -1 1 1 19 19 2 100 100;
#X restore 456 106 pd;
#X obj 126 -3 inlet;
#X obj 101 101 cnv 2 10 2 empty empty empty 20 12 0 14 -258113 -66577
0;
#X obj 100 127 cnv 2 10 2 empty empty empty 20 12 0 14 -258113 -66577
0;
#X connect 0 0 13 0;
#X connect 1 0 13 0;
#X connect 2 0 13 0;
#X connect 3 0 13 0;
#X connect 4 0 13 0;
#X connect 5 0 13 0;
#X connect 6 0 13 0;
#X connect 7 0 13 0;
#X connect 8 0 13 0;
#X connect 9 0 13 0;
#X connect 10 0 13 0;
#X connect 11 0 13 0;
#X connect 13 0 12 0;
#X connect 14 0 0 0;
#X connect 14 1 1 0;
#X connect 14 2 2 0;
#X connect 14 3 3 0;
#X connect 14 4 4 0;
#X connect 14 5 5 0;
#X connect 14 6 6 0;
#X connect 14 7 7 0;
#X connect 14 8 8 0;
#X connect 14 9 9 0;
#X connect 14 10 10 0;
#X connect 14 11 11 0;
#X connect 14 12 15 0;
#X connect 14 13 16 0;
#X connect 14 14 17 0;
#X connect 14 15 18 0;
#X connect 15 0 13 0;
#X connect 16 0 13 0;
#X connect 17 0 13 0;
#X connect 18 0 13 0;
#X connect 19 0 14 0;
#X coords 0 -1 1 1 378 30 2 100 100;
#X restore 106 165 pd row;
#N canvas 268 351 859 366 row 0;
#N canvas 525 172 450 300 (subpatch) 0;
#X obj 102 102 tgl 15 0 empty empty empty 17 7 0 10 -262144 -1 -1 0
1;
#X obj 73 75 inlet;
#X obj 73 172 outlet;
#X obj 73 140 spigot;
#X connect 0 0 3 1;
#X connect 1 0 3 0;
#X connect 3 0 2 0;
#X coords 0 -1 1 1 19 19 2 100 100;
#X restore 102 106 pd;
#N canvas 525 172 450 300 (subpatch) 0;
#X obj 102 102 tgl 15 0 empty empty empty 17 7 0 10 -262144 -1 -1 0
1;
#X obj 73 75 inlet;
#X obj 73 172 outlet;
#X obj 73 140 spigot;
#X connect 0 0 3 1;
#X connect 1 0 3 0;
#X connect 3 0 2 0;
#X coords 0 -1 1 1 19 19 2 100 100;
#X restore 124 106 pd;
#N canvas 525 172 450 300 (subpatch) 0;
#X obj 102 102 tgl 15 0 empty empty empty 17 7 0 10 -262144 -1 -1 0
1;
#X obj 73 75 inlet;
#X obj 73 172 outlet;
#X obj 73 140 spigot;
#X connect 0 0 3 1;
#X connect 1 0 3 0;
#X connect 3 0 2 0;
#X coords 0 -1 1 1 19 19 2 100 100;
#X restore 146 106 pd;
#N canvas 525 172 450 300 (subpatch) 0;
#X obj 102 102 tgl 15 0 empty empty empty 17 7 0 10 -262144 -1 -1 0
1;
#X obj 73 75 inlet;
#X obj 73 172 outlet;
#X obj 73 140 spigot;
#X connect 0 0 3 1;
#X connect 1 0 3 0;
#X connect 3 0 2 0;
#X coords 0 -1 1 1 19 19 2 100 100;
#X restore 168 106 pd;
#N canvas 525 172 450 300 (subpatch) 0;
#X obj 102 102 tgl 15 0 empty empty empty 17 7 0 10 -262144 -1 -1 0
1;
#X obj 73 75 inlet;
#X obj 73 172 outlet;
#X obj 73 140 spigot;
#X connect 0 0 3 1;
#X connect 1 0 3 0;
#X connect 3 0 2 0;
#X coords 0 -1 1 1 19 19 2 100 100;
#X restore 198 106 pd;
#N canvas 525 172 450 300 (subpatch) 0;
#X obj 102 102 tgl 15 0 empty empty empty 17 7 0 10 -262144 -1 -1 0
1;
#X obj 73 75 inlet;
#X obj 73 172 outlet;
#X obj 73 140 spigot;
#X connect 0 0 3 1;
#X connect 1 0 3 0;
#X connect 3 0 2 0;
#X coords 0 -1 1 1 19 19 2 100 100;
#X restore 220 106 pd;
#N canvas 525 172 450 300 (subpatch) 0;
#X obj 102 102 tgl 15 0 empty empty empty 17 7 0 10 -262144 -1 -1 0
1;
#X obj 73 75 inlet;
#X obj 73 172 outlet;
#X obj 73 140 spigot;
#X connect 0 0 3 1;
#X connect 1 0 3 0;
#X connect 3 0 2 0;
#X coords 0 -1 1 1 19 19 2 100 100;
#X restore 242 106 pd;
#N canvas 525 172 450 300 (subpatch) 0;
#X obj 102 102 tgl 15 0 empty empty empty 17 7 0 10 -262144 -1 -1 0
1;
#X obj 73 75 inlet;
#X obj 73 172 outlet;
#X obj 73 140 spigot;
#X connect 0 0 3 1;
#X connect 1 0 3 0;
#X connect 3 0 2 0;
#X coords 0 -1 1 1 19 19 2 100 100;
#X restore 264 106 pd;
#N canvas 525 172 450 300 (subpatch) 0;
#X obj 102 102 tgl 15 0 empty empty empty 17 7 0 10 -262144 -1 -1 0
1;
#X obj 73 75 inlet;
#X obj 73 172 outlet;
#X obj 73 140 spigot;
#X connect 0 0 3 1;
#X connect 1 0 3 0;
#X connect 3 0 2 0;
#X coords 0 -1 1 1 19 19 2 100 100;
#X restore 295 106 pd;
#N canvas 525 172 450 300 (subpatch) 0;
#X obj 102 102 tgl 15 0 empty empty empty 17 7 0 10 -262144 -1 -1 0
1;
#X obj 73 75 inlet;
#X obj 73 172 outlet;
#X obj 73 140 spigot;
#X connect 0 0 3 1;
#X connect 1 0 3 0;
#X connect 3 0 2 0;
#X coords 0 -1 1 1 19 19 2 100 100;
#X restore 317 106 pd;
#N canvas 525 172 450 300 (subpatch) 0;
#X obj 102 102 tgl 15 0 empty empty empty 17 7 0 10 -262144 -1 -1 0
1;
#X obj 73 75 inlet;
#X obj 73 172 outlet;
#X obj 73 140 spigot;
#X connect 0 0 3 1;
#X connect 1 0 3 0;
#X connect 3 0 2 0;
#X coords 0 -1 1 1 19 19 2 100 100;
#X restore 339 106 pd;
#N canvas 525 172 450 300 (subpatch) 0;
#X obj 102 102 tgl 15 0 empty empty empty 17 7 0 10 -262144 -1 -1 0
1;
#X obj 73 75 inlet;
#X obj 73 172 outlet;
#X obj 73 140 spigot;
#X connect 0 0 3 1;
#X connect 1 0 3 0;
#X connect 3 0 2 0;
#X coords 0 -1 1 1 19 19 2 100 100;
#X restore 361 106 pd;
#X obj 153 187 outlet;
#X obj 153 156 t b;
#X obj 126 24 sel 0 1 2 3 4 5 6 7 8 9 10 11 12 13 14 15;
#N canvas 525 172 450 300 (subpatch) 0;
#X obj 102 102 tgl 15 0 empty empty empty 17 7 0 10 -262144 -1 -1 0
1;
#X obj 73 75 inlet;
#X obj 73 172 outlet;
#X obj 73 140 spigot;
#X connect 0 0 3 1;
#X connect 1 0 3 0;
#X connect 3 0 2 0;
#X coords 0 -1 1 1 19 19 2 100 100;
#X restore 390 106 pd;
#N canvas 525 172 450 300 (subpatch) 0;
#X obj 102 102 tgl 15 0 empty empty empty 17 7 0 10 -262144 -1 -1 0
1;
#X obj 73 75 inlet;
#X obj 73 172 outlet;
#X obj 73 140 spigot;
#X connect 0 0 3 1;
#X connect 1 0 3 0;
#X connect 3 0 2 0;
#X coords 0 -1 1 1 19 19 2 100 100;
#X restore 412 106 pd;
#N canvas 525 172 450 300 (subpatch) 0;
#X obj 102 102 tgl 15 0 empty empty empty 17 7 0 10 -262144 -1 -1 0
1;
#X obj 73 75 inlet;
#X obj 73 172 outlet;
#X obj 73 140 spigot;
#X connect 0 0 3 1;
#X connect 1 0 3 0;
#X connect 3 0 2 0;
#X coords 0 -1 1 1 19 19 2 100 100;
#X restore 434 106 pd;
#N canvas 525 172 450 300 (subpatch) 0;
#X obj 102 102 tgl 15 0 empty empty empty 17 7 0 10 -262144 -1 -1 0
1;
#X obj 73 75 inlet;
#X obj 73 172 outlet;
#X obj 73 140 spigot;
#X connect 0 0 3 1;
#X connect 1 0 3 0;
#X connect 3 0 2 0;
#X coords 0 -1 1 1 19 19 2 100 100;
#X restore 456 106 pd;
#X obj 126 -3 inlet;
#X obj 101 101 cnv 2 10 2 empty empty empty 20 12 0 14 -258113 -66577
0;
#X obj 100 127 cnv 2 10 2 empty empty empty 20 12 0 14 -258113 -66577
0;
#X connect 0 0 13 0;
#X connect 1 0 13 0;
#X connect 2 0 13 0;
#X connect 3 0 13 0;
#X connect 4 0 13 0;
#X connect 5 0 13 0;
#X connect 6 0 13 0;
#X connect 7 0 13 0;
#X connect 8 0 13 0;
#X connect 9 0 13 0;
#X connect 10 0 13 0;
#X connect 11 0 13 0;
#X connect 13 0 12 0;
#X connect 14 0 0 0;
#X connect 14 1 1 0;
#X connect 14 2 2 0;
#X connect 14 3 3 0;
#X connect 14 4 4 0;
#X connect 14 5 5 0;
#X connect 14 6 6 0;
#X connect 14 7 7 0;
#X connect 14 8 8 0;
#X connect 14 9 9 0;
#X connect 14 10 10 0;
#X connect 14 11 11 0;
#X connect 14 12 15 0;
#X connect 14 13 16 0;
#X connect 14 14 17 0;
#X connect 14 15 18 0;
#X connect 15 0 13 0;
#X connect 16 0 13 0;
#X connect 17 0 13 0;
#X connect 18 0 13 0;
#X connect 19 0 14 0;
#X coords 0 -1 1 1 378 30 2 100 100;
#X restore 106 195 pd row;
#N canvas 268 351 859 366 row 1;
#N canvas 525 172 450 300 (subpatch) 0;
#X obj 102 102 tgl 15 0 empty empty empty 17 7 0 10 -262144 -1 -1 0
1;
#X obj 73 75 inlet;
#X obj 73 172 outlet;
#X obj 73 140 spigot;
#X connect 0 0 3 1;
#X connect 1 0 3 0;
#X connect 3 0 2 0;
#X coords 0 -1 1 1 19 19 2 100 100;
#X restore 102 106 pd;
#N canvas 525 172 450 300 (subpatch) 0;
#X obj 102 102 tgl 15 0 empty empty empty 17 7 0 10 -262144 -1 -1 0
1;
#X obj 73 75 inlet;
#X obj 73 172 outlet;
#X obj 73 140 spigot;
#X connect 0 0 3 1;
#X connect 1 0 3 0;
#X connect 3 0 2 0;
#X coords 0 -1 1 1 19 19 2 100 100;
#X restore 124 106 pd;
#N canvas 525 172 450 300 (subpatch) 0;
#X obj 102 102 tgl 15 0 empty empty empty 17 7 0 10 -262144 -1 -1 0
1;
#X obj 73 75 inlet;
#X obj 73 172 outlet;
#X obj 73 140 spigot;
#X connect 0 0 3 1;
#X connect 1 0 3 0;
#X connect 3 0 2 0;
#X coords 0 -1 1 1 19 19 2 100 100;
#X restore 146 106 pd;
#N canvas 525 172 450 300 (subpatch) 0;
#X obj 102 102 tgl 15 0 empty empty empty 17 7 0 10 -262144 -1 -1 0
1;
#X obj 73 75 inlet;
#X obj 73 172 outlet;
#X obj 73 140 spigot;
#X connect 0 0 3 1;
#X connect 1 0 3 0;
#X connect 3 0 2 0;
#X coords 0 -1 1 1 19 19 2 100 100;
#X restore 168 106 pd;
#N canvas 525 172 450 300 (subpatch) 0;
#X obj 102 102 tgl 15 0 empty empty empty 17 7 0 10 -262144 -1 -1 0
1;
#X obj 73 75 inlet;
#X obj 73 172 outlet;
#X obj 73 140 spigot;
#X connect 0 0 3 1;
#X connect 1 0 3 0;
#X connect 3 0 2 0;
#X coords 0 -1 1 1 19 19 2 100 100;
#X restore 198 106 pd;
#N canvas 525 172 450 300 (subpatch) 0;
#X obj 102 102 tgl 15 0 empty empty empty 17 7 0 10 -262144 -1 -1 0
1;
#X obj 73 75 inlet;
#X obj 73 172 outlet;
#X obj 73 140 spigot;
#X connect 0 0 3 1;
#X connect 1 0 3 0;
#X connect 3 0 2 0;
#X coords 0 -1 1 1 19 19 2 100 100;
#X restore 220 106 pd;
#N canvas 525 172 450 300 (subpatch) 0;
#X obj 102 102 tgl 15 0 empty empty empty 17 7 0 10 -262144 -1 -1 0
1;
#X obj 73 75 inlet;
#X obj 73 172 outlet;
#X obj 73 140 spigot;
#X connect 0 0 3 1;
#X connect 1 0 3 0;
#X connect 3 0 2 0;
#X coords 0 -1 1 1 19 19 2 100 100;
#X restore 242 106 pd;
#N canvas 525 172 450 300 (subpatch) 0;
#X obj 102 102 tgl 15 0 empty empty empty 17 7 0 10 -262144 -1 -1 0
1;
#X obj 73 75 inlet;
#X obj 73 172 outlet;
#X obj 73 140 spigot;
#X connect 0 0 3 1;
#X connect 1 0 3 0;
#X connect 3 0 2 0;
#X coords 0 -1 1 1 19 19 2 100 100;
#X restore 264 106 pd;
#N canvas 525 172 450 300 (subpatch) 0;
#X obj 102 102 tgl 15 0 empty empty empty 17 7 0 10 -262144 -1 -1 0
1;
#X obj 73 75 inlet;
#X obj 73 172 outlet;
#X obj 73 140 spigot;
#X connect 0 0 3 1;
#X connect 1 0 3 0;
#X connect 3 0 2 0;
#X coords 0 -1 1 1 19 19 2 100 100;
#X restore 295 106 pd;
#N canvas 525 172 450 300 (subpatch) 0;
#X obj 102 102 tgl 15 0 empty empty empty 17 7 0 10 -262144 -1 -1 0
1;
#X obj 73 75 inlet;
#X obj 73 172 outlet;
#X obj 73 140 spigot;
#X connect 0 0 3 1;
#X connect 1 0 3 0;
#X connect 3 0 2 0;
#X coords 0 -1 1 1 19 19 2 100 100;
#X restore 317 106 pd;
#N canvas 525 172 450 300 (subpatch) 0;
#X obj 102 102 tgl 15 0 empty empty empty 17 7 0 10 -262144 -1 -1 0
1;
#X obj 73 75 inlet;
#X obj 73 172 outlet;
#X obj 73 140 spigot;
#X connect 0 0 3 1;
#X connect 1 0 3 0;
#X connect 3 0 2 0;
#X coords 0 -1 1 1 19 19 2 100 100;
#X restore 339 106 pd;
#N canvas 525 172 450 300 (subpatch) 0;
#X obj 102 102 tgl 15 0 empty empty empty 17 7 0 10 -262144 -1 -1 0
1;
#X obj 73 75 inlet;
#X obj 73 172 outlet;
#X obj 73 140 spigot;
#X connect 0 0 3 1;
#X connect 1 0 3 0;
#X connect 3 0 2 0;
#X coords 0 -1 1 1 19 19 2 100 100;
#X restore 361 106 pd;
#X obj 153 187 outlet;
#X obj 153 156 t b;
#X obj 126 24 sel 0 1 2 3 4 5 6 7 8 9 10 11 12 13 14 15;
#N canvas 525 172 450 300 (subpatch) 0;
#X obj 102 102 tgl 15 0 empty empty empty 17 7 0 10 -262144 -1 -1 0
1;
#X obj 73 75 inlet;
#X obj 73 172 outlet;
#X obj 73 140 spigot;
#X connect 0 0 3 1;
#X connect 1 0 3 0;
#X connect 3 0 2 0;
#X coords 0 -1 1 1 19 19 2 100 100;
#X restore 390 106 pd;
#N canvas 525 172 450 300 (subpatch) 0;
#X obj 102 102 tgl 15 0 empty empty empty 17 7 0 10 -262144 -1 -1 0
1;
#X obj 73 75 inlet;
#X obj 73 172 outlet;
#X obj 73 140 spigot;
#X connect 0 0 3 1;
#X connect 1 0 3 0;
#X connect 3 0 2 0;
#X coords 0 -1 1 1 19 19 2 100 100;
#X restore 412 106 pd;
#N canvas 525 172 450 300 (subpatch) 0;
#X obj 102 102 tgl 15 0 empty empty empty 17 7 0 10 -262144 -1 -1 0
1;
#X obj 73 75 inlet;
#X obj 73 172 outlet;
#X obj 73 140 spigot;
#X connect 0 0 3 1;
#X connect 1 0 3 0;
#X connect 3 0 2 0;
#X coords 0 -1 1 1 19 19 2 100 100;
#X restore 434 106 pd;
#N canvas 525 172 450 300 (subpatch) 0;
#X obj 102 102 tgl 15 0 empty empty empty 17 7 0 10 -262144 -1 -1 0
1;
#X obj 73 75 inlet;
#X obj 73 172 outlet;
#X obj 73 140 spigot;
#X connect 0 0 3 1;
#X connect 1 0 3 0;
#X connect 3 0 2 0;
#X coords 0 -1 1 1 19 19 2 100 100;
#X restore 456 106 pd;
#X obj 126 -3 inlet;
#X obj 101 101 cnv 2 10 2 empty empty empty 20 12 0 14 -258113 -66577
0;
#X obj 100 127 cnv 2 10 2 empty empty empty 20 12 0 14 -258113 -66577
0;
#X connect 0 0 13 0;
#X connect 1 0 13 0;
#X connect 2 0 13 0;
#X connect 3 0 13 0;
#X connect 4 0 13 0;
#X connect 5 0 13 0;
#X connect 6 0 13 0;
#X connect 7 0 13 0;
#X connect 8 0 13 0;
#X connect 9 0 13 0;
#X connect 10 0 13 0;
#X connect 11 0 13 0;
#X connect 13 0 12 0;
#X connect 14 0 0 0;
#X connect 14 1 1 0;
#X connect 14 2 2 0;
#X connect 14 3 3 0;
#X connect 14 4 4 0;
#X connect 14 5 5 0;
#X connect 14 6 6 0;
#X connect 14 7 7 0;
#X connect 14 8 8 0;
#X connect 14 9 9 0;
#X connect 14 10 10 0;
#X connect 14 11 11 0;
#X connect 14 12 15 0;
#X connect 14 13 16 0;
#X connect 14 14 17 0;
#X connect 14 15 18 0;
#X connect 15 0 13 0;
#X connect 16 0 13 0;
#X connect 17 0 13 0;
#X connect 18 0 13 0;
#X connect 19 0 14 0;
#X coords 0 -1 1 1 378 30 2 100 100;
#X restore 106 225 pd row;
#X obj 17 165 outlet;
#X obj 25 195 outlet;
#X obj 30 225 outlet;
#X obj 45 254 outlet;
#X obj 72 43 inlet;
#N canvas 268 351 859 366 row 0;
#X obj 126 24 sel 0 1 2 3 4 5 6 7 8 9 10 11 12 13 14 15;
#X obj 126 -3 inlet;
#X obj 101 101 cnv 2 10 2 empty empty empty 20 12 0 14 -258113 -66577
0;
#X obj 103 109 bng 15 250 50 0 empty empty empty 17 7 0 10 -262144
-1 -1;
#X obj 126 109 bng 15 250 50 0 empty empty empty 17 7 0 10 -262144
-1 -1;
#X obj 147 109 bng 15 250 50 0 empty empty empty 17 7 0 10 -262144
-1 -1;
#X obj 170 109 bng 15 250 50 0 empty empty empty 17 7 0 10 -262144
-1 -1;
#X obj 199 109 bng 15 250 50 0 empty empty empty 17 7 0 10 -262144
-1 -1;
#X obj 222 109 bng 15 250 50 0 empty empty empty 17 7 0 10 -262144
-1 -1;
#X obj 243 109 bng 15 250 50 0 empty empty empty 17 7 0 10 -262144
-1 -1;
#X obj 266 109 bng 15 250 50 0 empty empty empty 17 7 0 10 -262144
-1 -1;
#X obj 296 109 bng 15 250 50 0 empty empty empty 17 7 0 10 -262144
-1 -1;
#X obj 319 109 bng 15 250 50 0 empty empty empty 17 7 0 10 -262144
-1 -1;
#X obj 340 109 bng 15 250 50 0 empty empty empty 17 7 0 10 -262144
-1 -1;
#X obj 363 109 bng 15 250 50 0 empty empty empty 17 7 0 10 -262144
-1 -1;
#X obj 392 109 bng 15 250 50 0 empty empty empty 17 7 0 10 -262144
-1 -1;
#X obj 415 109 bng 15 250 50 0 empty empty empty 17 7 0 10 -262144
-1 -1;
#X obj 436 109 bng 15 250 50 0 empty empty empty 17 7 0 10 -262144
-1 -1;
#X obj 459 109 bng 15 250 50 0 empty empty empty 17 7 0 10 -262144
-1 -1;
#X connect 0 0 3 0;
#X connect 0 1 4 0;
#X connect 0 2 5 0;
#X connect 0 3 6 0;
#X connect 0 4 7 0;
#X connect 0 5 8 0;
#X connect 0 6 9 0;
#X connect 0 7 10 0;
#X connect 0 8 11 0;
#X connect 0 9 12 0;
#X connect 0 10 13 0;
#X connect 0 11 14 0;
#X connect 0 12 15 0;
#X connect 0 13 16 0;
#X connect 0 14 17 0;
#X connect 0 15 18 0;
#X connect 1 0 0 0;
#X coords 0 -1 1 1 378 30 2 100 100;
#X restore 106 105 pd row;
#X connect 1 0 5 0;
#X connect 2 0 6 0;
#X connect 3 0 7 0;
#X connect 4 0 8 0;
#X connect 9 0 1 0;
#X connect 9 0 2 0;
#X connect 9 0 3 0;
#X connect 9 0 4 0;
#X connect 9 0 10 0;
#X coords 0 -1 1 1 390 160 2 100 100;
