#N canvas 346 96 492 656 10;
#X obj 11 402 pix_texture;
#X obj 85 447 loadbang;
#X obj 11 373 pix_image ink_3.png;
#X floatatom 96 402 5 0 0 0 - - -, f 5;
#X msg 85 472 rectangle 0;
#X obj 66 65 loadbang;
#X obj 12 231 gemframebuffer;
#X obj 12 254 translateXYZ 0 0 -4;
#X msg 93 180 format RGBA \, color 1 1 1 0 \, dimen 512 512 \, rectangle
0;
#X obj 12 189 gemhead;
#X obj 10 436 alpha;
#X obj 10 462 square 4;
#X obj 181 264 inlet;
#X msg 181 317 open \$1;
#X obj 181 293 symbol;
#X obj 218 450 outlet;
#X floatatom 90 285 5 0 0 0 - - -, f 5;
#X msg 66 153 texunit \$1;
#X obj 66 129 f \$1;
#X obj 66 106 t b b;
#X connect 0 0 10 0;
#X connect 0 1 3 0;
#X connect 1 0 4 0;
#X connect 2 0 0 0;
#X connect 4 0 0 0;
#X connect 5 0 19 0;
#X connect 6 0 7 0;
#X connect 6 1 15 0;
#X connect 6 1 16 0;
#X connect 7 0 2 0;
#X connect 8 0 6 0;
#X connect 9 0 6 0;
#X connect 10 0 11 0;
#X connect 12 0 14 0;
#X connect 13 0 2 0;
#X connect 14 0 13 0;
#X connect 17 0 6 0;
#X connect 18 0 17 0;
#X connect 19 0 18 0;
#X connect 19 1 8 0;
