#N canvas 434 211 450 300 10;
#X obj 51 86 inlet;
#X obj 51 223 spigot;
#X obj 51 248 outlet;
#X obj 100 100 tgl 30 0 empty empty empty 17 7 0 10 -1 -258113 -258113
1 1;
#X obj 100 40 loadbang;
#X obj 162 39 inlet;
#X obj 100 151 sel 0 1;
#X msg 119 216 1;
#X msg 100 195 0;
#X msg 160 182 0;
#X obj 179 251 line;
#X msg 179 200 1;
#X obj 159 159 sel 0 1;
#X obj 179 273 outlet;
#X msg 100 67 0;
#X obj 100 174 del 300;
#X msg 179 231 \$1 300;
#X connect 0 0 1 0;
#X connect 1 0 2 0;
#X connect 3 0 6 0;
#X connect 3 0 12 0;
#X connect 4 0 14 0;
#X connect 5 0 3 0;
#X connect 6 0 15 0;
#X connect 6 1 7 0;
#X connect 7 0 1 1;
#X connect 8 0 1 1;
#X connect 9 0 16 0;
#X connect 10 0 13 0;
#X connect 11 0 16 0;
#X connect 12 0 9 0;
#X connect 12 1 11 0;
#X connect 14 0 3 0;
#X connect 15 0 8 0;
#X connect 16 0 10 0;
#X coords 0 -1 1 1 30 30 2 100 100;
