#N canvas 320 152 918 572 10;
#X obj 375 177 unpack f f f;
#X obj 545 178 unpack f f f;
#X obj 505 289 * 0;
#X obj 233 136 t f f b b;
#X obj 504 237 expr 1-$f1;
#X obj 538 291 * 0;
#X obj 576 290 * 0;
#X obj 504 258 t f f f;
#X obj 311 267 * 0;
#X obj 344 269 * 0;
#X obj 382 268 * 0;
#X obj 313 225 t f f f;
#X obj 222 323 expr ($f1+$f2);
#X obj 314 342 expr ($f1+$f2);
#X obj 440 388 expr ($f1+$f2);
#X obj 396 89 inlet;
#X obj 517 102 inlet;
#X obj 375 145 list;
#X obj 496 137 list;
#X obj 152 4 inlet;
#X obj 201 517 outlet;
#X obj 278 427 pack f f f;
#X obj 152 51 moses 0;
#X floatatom -167 27 5 0 0 0 - - -;
#X floatatom 232 14 5 0 0 0 - - -;
#X obj -34 192 unpack f f f;
#X obj 136 193 unpack f f f;
#X obj 96 304 * 0;
#X obj -176 151 t f f b b;
#X obj 95 252 expr 1-$f1;
#X obj 129 306 * 0;
#X obj 167 305 * 0;
#X obj 95 273 t f f f;
#X obj -98 282 * 0;
#X obj -65 284 * 0;
#X obj -27 283 * 0;
#X obj -96 240 t f f f;
#X obj -187 338 expr ($f1+$f2);
#X obj -95 357 expr ($f1+$f2);
#X obj 31 403 expr ($f1+$f2);
#X obj -34 160 list;
#X obj 134 161 list;
#X obj 82 472 pack f f f;
#X obj 331 80 inlet;
#X obj -168 50 abs;
#X obj -179 76 expr pow(1-$f1 \, 2);
#X obj 232 38 expr pow(1-$f1 \, 2);
#X connect 0 0 8 1;
#X connect 0 1 9 1;
#X connect 0 2 10 1;
#X connect 1 0 2 1;
#X connect 1 1 5 1;
#X connect 1 2 6 1;
#X connect 2 0 12 1;
#X connect 3 0 11 0;
#X connect 3 1 4 0;
#X connect 3 2 17 0;
#X connect 3 3 18 0;
#X connect 4 0 7 0;
#X connect 5 0 13 1;
#X connect 6 0 14 1;
#X connect 7 0 2 0;
#X connect 7 1 5 0;
#X connect 7 2 6 0;
#X connect 8 0 12 0;
#X connect 9 0 13 0;
#X connect 10 0 14 0;
#X connect 11 0 8 0;
#X connect 11 1 9 0;
#X connect 11 2 10 0;
#X connect 12 0 21 0;
#X connect 13 0 21 1;
#X connect 14 0 21 2;
#X connect 15 0 17 1;
#X connect 15 0 40 1;
#X connect 16 0 18 1;
#X connect 17 0 0 0;
#X connect 18 0 1 0;
#X connect 19 0 22 0;
#X connect 21 0 20 0;
#X connect 22 0 23 0;
#X connect 22 1 24 0;
#X connect 23 0 44 0;
#X connect 24 0 46 0;
#X connect 25 0 33 1;
#X connect 25 1 34 1;
#X connect 25 2 35 1;
#X connect 26 0 27 1;
#X connect 26 1 30 1;
#X connect 26 2 31 1;
#X connect 27 0 37 1;
#X connect 28 0 36 0;
#X connect 28 1 29 0;
#X connect 28 2 40 0;
#X connect 28 3 41 0;
#X connect 29 0 32 0;
#X connect 30 0 38 1;
#X connect 31 0 39 1;
#X connect 32 0 27 0;
#X connect 32 1 30 0;
#X connect 32 2 31 0;
#X connect 33 0 37 0;
#X connect 34 0 38 0;
#X connect 35 0 39 0;
#X connect 36 0 33 0;
#X connect 36 1 34 0;
#X connect 36 2 35 0;
#X connect 37 0 42 0;
#X connect 38 0 42 1;
#X connect 39 0 42 2;
#X connect 40 0 25 0;
#X connect 41 0 26 0;
#X connect 42 0 20 0;
#X connect 43 0 41 1;
#X connect 44 0 45 0;
#X connect 45 0 28 0;
#X connect 46 0 3 0;
