#N canvas 0 22 477 439 12;
#X obj 212 45 inlet;
#X obj 210 152 t b b b;
#X obj 211 113 spigot 1;
#X obj 341 42 loadbang;
#X obj 341 67 f \$1;
#X obj 210 177 delay 100;
#X msg 210 202 1;
#X msg 239 236 0;
#X obj 274 79 tgl 15 0 empty empty empty 17 7 0 10 -262144 -1 -1 1
1;
#X obj 267 304 outlet;
#X floatatom 360 113 5 0 0 0 - - -, f 5;
#X obj 400 80 bng 15 250 50 0 empty empty empty 17 7 0 10 -262144 -1
-1;
#X connect 0 0 2 0;
#X connect 1 0 5 0;
#X connect 1 1 7 0;
#X connect 1 2 9 0;
#X connect 2 0 1 0;
#X connect 3 0 4 0;
#X connect 4 0 5 1;
#X connect 4 0 10 0;
#X connect 5 0 6 0;
#X connect 6 0 8 0;
#X connect 7 0 8 0;
#X connect 8 0 2 1;
#X connect 11 0 4 0;
