#N canvas 4 22 954 679 10;
#X obj 103 103 cnv 30 750 350 empty empty k_tunes 10 20 1 25 -228856
-66577 0;
#X obj 297 189 k_dac;
#N canvas 578 203 729 497 meta 0;
#X floatatom 85 160 3 0 0 0 - - -;
#X floatatom 55 159 3 0 0 0 - - -;
#X obj 55 134 ctlin;
#X obj 55 181 bng 20 250 50 0 empty empty empty 17 7 0 10 -262144 -1
-1;
#X floatatom 90 291 3 0 0 0 - - -;
#X floatatom 60 290 3 0 0 0 - - -;
#X obj 58 319 / 127;
#X floatatom 157 292 3 0 0 0 - - -;
#X floatatom 127 291 3 0 0 0 - - -;
#X obj 125 320 / 127;
#X obj 127 265 ctlin 45;
#X obj 127 380 s \$0-45;
#X obj 60 264 ctlin 16;
#X obj 60 379 s \$0-16;
#X floatatom -10 288 3 0 0 0 - - -;
#X floatatom -40 287 3 0 0 0 - - -;
#X obj -42 316 / 127;
#X obj -40 261 ctlin 0;
#X obj -40 376 s \$0-0;
#X msg 6 354 0.5;
#X obj 6 330 loadbang;
#X floatatom 223 293 3 0 0 0 - - -;
#X floatatom 193 292 3 0 0 0 - - -;
#X obj 191 321 / 127;
#X obj 192 266 ctlin 17;
#X obj 193 381 s \$0-17;
#X msg 223 348 0.5;
#X obj 240 325 loadbang;
#X floatatom 334 285 3 0 0 0 - - -;
#X floatatom 304 284 3 0 0 0 - - -;
#X obj 302 313 / 127;
#X obj 351 317 loadbang;
#X msg 334 340 1;
#X obj 303 258 ctlin 1;
#X obj 304 373 s \$0-1;
#X floatatom 456 278 3 0 0 0 - - -;
#X floatatom 426 277 3 0 0 0 - - -;
#X obj 424 306 / 127;
#X obj 473 310 loadbang;
#X obj 425 250 ctlin 18;
#X msg 456 333 0;
#X obj 426 366 s \$0-18;
#X floatatom 254 139 3 0 0 0 - - -;
#X floatatom 224 138 3 0 0 0 - - -;
#X obj 222 167 / 127;
#X obj 271 171 loadbang;
#X obj 223 112 ctlin 2;
#X msg 254 193 0;
#X obj 224 226 s \$0-2;
#X floatatom 419 143 3 0 0 0 - - -;
#X floatatom 389 142 3 0 0 0 - - -;
#X obj 387 171 / 127;
#X obj 436 175 loadbang;
#X msg 419 198 0;
#X obj 388 115 ctlin 19;
#X obj 389 230 s \$0-19;
#X floatatom 559 138 3 0 0 0 - - -;
#X floatatom 529 137 3 0 0 0 - - -;
#X obj 527 166 / 127;
#X obj 576 170 loadbang;
#X msg 559 193 0;
#X obj 528 110 ctlin 3;
#X obj 529 224 s \$0-3;
#X msg -12 93 \; pd dsp 1;
#X obj -12 68 loadbang;
#X connect 1 0 3 0;
#X connect 2 0 1 0;
#X connect 2 1 0 0;
#X connect 5 0 6 0;
#X connect 6 0 13 0;
#X connect 8 0 9 0;
#X connect 9 0 11 0;
#X connect 10 0 8 0;
#X connect 10 1 7 0;
#X connect 12 0 5 0;
#X connect 12 1 4 0;
#X connect 15 0 16 0;
#X connect 16 0 18 0;
#X connect 17 0 15 0;
#X connect 17 1 14 0;
#X connect 19 0 13 0;
#X connect 19 0 18 0;
#X connect 20 0 19 0;
#X connect 22 0 23 0;
#X connect 23 0 25 0;
#X connect 24 0 22 0;
#X connect 24 1 21 0;
#X connect 26 0 25 0;
#X connect 27 0 26 0;
#X connect 29 0 30 0;
#X connect 30 0 34 0;
#X connect 31 0 32 0;
#X connect 32 0 34 0;
#X connect 33 0 29 0;
#X connect 33 1 28 0;
#X connect 36 0 37 0;
#X connect 37 0 41 0;
#X connect 38 0 40 0;
#X connect 39 0 36 0;
#X connect 39 1 35 0;
#X connect 40 0 41 0;
#X connect 43 0 44 0;
#X connect 44 0 48 0;
#X connect 45 0 47 0;
#X connect 46 0 43 0;
#X connect 46 1 42 0;
#X connect 47 0 48 0;
#X connect 50 0 51 0;
#X connect 51 0 55 0;
#X connect 52 0 53 0;
#X connect 53 0 55 0;
#X connect 54 0 50 0;
#X connect 54 1 49 0;
#X connect 57 0 58 0;
#X connect 58 0 62 0;
#X connect 59 0 60 0;
#X connect 60 0 62 0;
#X connect 61 0 57 0;
#X connect 61 1 56 0;
#X connect 64 0 63 0;
#X restore 231 141 pd meta;
#N canvas 206 298 650 346 Mic-ch 0;
#X obj 179 249 outlet~;
#X obj 234 249 outlet~;
#X obj 317 86 sig~;
#X obj 317 64 line;
#X obj 181 171 *~;
#X obj 239 175 *~;
#X obj 317 112 expr~ $v1;
#X obj 338 143 expr~ 1-$v1;
#X obj 295 190 *~;
#X obj 328 192 *~;
#X msg 317 39 \$1 200;
#X obj 103 46 loadbang;
#X obj 135 66 r \$0-45;
#X msg 103 66 0;
#X obj 103 121 tgl 15 0 empty empty empty 17 7 0 10 -262144 -1 -1 0
1;
#X obj 190 65 adc~;
#X obj 431 282 throw~ rowR;
#X obj 277 285 throw~ rowL;
#N canvas 0 22 619 310 noise 0;
#X obj 240 34 noise~;
#X obj 322 34 noise~;
#X obj 240 79 *~ 0.5;
#X obj 310 94 expr~ abs($v1*0.3);
#X obj 243 147 +~;
#X obj 298 155 +~;
#X obj 345 66 expr~ (1-abs($v1))*0.3;
#X obj 242 178 lop~ 200;
#X obj 306 184 lop~ 200;
#X obj 131 119 tgl 15 0 empty empty empty 17 7 0 10 -262144 -1 -1 0
1;
#X obj 239 257 outlet~;
#X obj 306 258 outlet~;
#X obj 103 144 hsl 80 15 60 800 0 0 empty empty empty -2 -8 0 10 -262144
-1 -1 0 1;
#X obj 245 206 *~ 0;
#X obj 310 212 *~ 0;
#X connect 0 0 2 0;
#X connect 1 0 3 0;
#X connect 1 0 6 0;
#X connect 2 0 4 0;
#X connect 2 0 5 0;
#X connect 3 0 4 1;
#X connect 4 0 7 0;
#X connect 5 0 8 0;
#X connect 6 0 5 1;
#X connect 7 0 13 0;
#X connect 8 0 14 0;
#X connect 9 0 13 1;
#X connect 9 0 14 1;
#X connect 12 0 7 1;
#X connect 12 0 8 1;
#X connect 13 0 10 0;
#X connect 14 0 11 0;
#X coords 0 -1 1 1 85 60 1 100 100;
#X restore 218 -24 pd noise;
#X obj 179 210 *~ 2;
#X obj 236 208 *~ 2;
#X connect 2 0 6 0;
#X connect 2 0 7 0;
#X connect 3 0 2 0;
#X connect 4 0 19 0;
#X connect 5 0 20 0;
#X connect 6 0 4 1;
#X connect 6 0 5 1;
#X connect 7 0 9 1;
#X connect 7 0 8 1;
#X connect 8 0 17 0;
#X connect 9 0 16 0;
#X connect 10 0 3 0;
#X connect 11 0 13 0;
#X connect 12 0 14 0;
#X connect 13 0 14 0;
#X connect 14 0 10 0;
#X connect 15 0 4 0;
#X connect 15 0 8 0;
#X connect 15 1 5 0;
#X connect 15 1 9 0;
#X connect 18 0 4 0;
#X connect 18 0 8 0;
#X connect 18 1 5 0;
#X connect 18 1 9 0;
#X connect 19 0 0 0;
#X connect 20 0 1 0;
#X coords 0 -1 1 1 60 40 1 100 100;
#X restore 113 146 pd Mic-ch;
#N canvas 495 34 470 665 stereo 0;
#X obj 26 402 inlet~;
#X obj 26 525 outlet~;
#X obj 131 524 outlet~;
#X obj 131 430 *~;
#X obj 26 426 *~;
#X obj 108 50 r \$0-16;
#X floatatom -11 249 5 0 0 0 - - -;
#X obj 131 404 inlet~;
#X obj 111 141 hsl 128 15 0 1 0 0 empty empty PAN 0 8 0 10 -262144
-1 -1 6223 1;
#X msg -11 202 \$1 200;
#X obj -11 224 line;
#X obj 227 102 bng 15 250 50 0 empty empty empty 17 7 0 10 -262144
-1 -1;
#X obj 111 122 hsl 128 15 0 1 0 0 empty empty VOLUME 0 8 0 10 -262144
-1 -1 12700 1;
#X obj 37 496 catch~ rowL;
#X obj 142 496 catch~ rowR;
#X obj 249 347 sig~;
#X obj 26 473 *~;
#X obj 131 472 *~;
#X obj 227 41 loadbang;
#X obj 249 276 +;
#X obj 111 160 hsl 128 15 0 1 0 0 empty empty GAIN 0 8 0 10 -262144
-1 -1 0 1;
#X obj 239 215 t b f;
#X floatatom 239 246 5 0 0 0 - - -;
#X msg 249 300 \$1 100;
#X obj 249 324 line;
#X obj -11 277 expr if($f1<0.5 \, ($f1/0.5)*-0.5+1 \, 1-$f1 );
#X obj 35 300 expr abs($f1-1);
#X floatatom 35 323 5 0 0 0 - - -;
#X obj -11 301 t f f;
#X obj 35 347 sig~;
#X obj -11 352 sig~;
#X obj 30 30 t b b b;
#X msg 69 53 1;
#X msg 30 57 0;
#X msg 49 81 0.49;
#X connect 0 0 4 0;
#X connect 3 0 17 0;
#X connect 4 0 16 0;
#X connect 5 0 8 0;
#X connect 6 0 25 0;
#X connect 7 0 3 0;
#X connect 8 0 9 0;
#X connect 9 0 10 0;
#X connect 10 0 6 0;
#X connect 11 0 31 0;
#X connect 12 0 22 0;
#X connect 13 0 1 0;
#X connect 14 0 2 0;
#X connect 15 0 16 1;
#X connect 15 0 17 1;
#X connect 16 0 1 0;
#X connect 17 0 2 0;
#X connect 18 0 11 0;
#X connect 19 0 23 0;
#X connect 20 0 21 0;
#X connect 21 0 22 0;
#X connect 21 1 19 1;
#X connect 22 0 19 0;
#X connect 23 0 24 0;
#X connect 24 0 15 0;
#X connect 25 0 28 0;
#X connect 26 0 27 0;
#X connect 27 0 29 0;
#X connect 28 0 30 0;
#X connect 28 1 26 0;
#X connect 29 0 3 1;
#X connect 30 0 4 1;
#X connect 31 0 33 0;
#X connect 31 1 34 0;
#X connect 31 2 32 0;
#X connect 32 0 12 0;
#X connect 33 0 20 0;
#X connect 34 0 8 0;
#X coords 0 -1 1 1 150 80 1 100 100;
#X restore 113 354 pd stereo;
#N canvas 0 22 722 595 effect 0;
#X obj 290 175 st-pureverb /key;
#N canvas 612 442 450 300 pan 0;
#X obj 128 258 outlet;
#X obj 165 43 * 1.5708;
#X obj 106 75 cos;
#X obj 195 77 sin;
#X obj 195 135 pack 0 10;
#X obj 106 138 pack 0 10;
#X floatatom 106 104 5 0 0 0 - - -;
#X floatatom 192 102 5 0 0 0 - - -;
#X obj 106 164 line;
#X obj 195 161 line;
#X obj 117 203 pack f f;
#X msg 131 226 2 \$1 \, 3 \$2;
#X obj 164 13 r \$0-17;
#X obj 42 170 r \$0-1;
#X msg 42 196 0 \$1;
#X connect 1 0 2 0;
#X connect 1 0 3 0;
#X connect 2 0 6 0;
#X connect 3 0 7 0;
#X connect 4 0 9 0;
#X connect 5 0 8 0;
#X connect 6 0 5 0;
#X connect 7 0 4 0;
#X connect 8 0 10 0;
#X connect 9 0 10 1;
#X connect 10 0 11 0;
#X connect 11 0 0 0;
#X connect 12 0 1 0;
#X connect 13 0 14 0;
#X connect 14 0 0 0;
#X restore 475 176 pd pan;
#N canvas 281 69 961 688 chours 0;
#X obj 26 290 phasor~;
#X obj 26 316 cos~;
#X obj 26 344 +~ 1;
#X obj 26 370 *~ 0.5;
#X obj 45 443 *~;
#X obj 156 356 cos~;
#X obj 156 384 +~ 1;
#X obj 156 410 *~ 0.5;
#X obj 175 454 *~;
#X obj 286 356 cos~;
#X obj 286 384 +~ 1;
#X obj 286 410 *~ 0.5;
#X obj 305 454 *~;
#X obj 286 321 +~ 0.66;
#X obj 156 321 +~ 0.33;
#X obj 45 509 *~ 0.33;
#X obj 175 509 *~ 0.33;
#X obj 305 509 *~ 0.33;
#X obj 46 176 inlet~;
#X obj 175 488 vd~ CHORUS-l;
#X obj 45 486 vd~ CHORUS-l;
#X obj 305 486 vd~ CHORUS-l;
#X obj 165 563 outlet~;
#X obj 547 244 phasor~;
#X obj 423 314 cos~;
#X obj 423 342 +~ 1;
#X obj 423 368 *~ 0.5;
#X obj 442 441 *~;
#X obj 553 354 cos~;
#X obj 553 382 +~ 1;
#X obj 553 408 *~ 0.5;
#X obj 572 452 *~;
#X obj 683 354 cos~;
#X obj 683 382 +~ 1;
#X obj 683 408 *~ 0.5;
#X obj 702 452 *~;
#X obj 683 319 +~ 0.66;
#X obj 553 319 +~ 0.33;
#X obj 442 507 *~ 0.33;
#X obj 572 507 *~ 0.33;
#X obj 702 507 *~ 0.33;
#X obj 562 561 outlet~;
#X obj 558 127 inlet~;
#X obj 442 483 vd~ CHORUS-r;
#X obj 572 486 vd~ CHORUS-r;
#X obj 702 484 vd~ CHORUS-r;
#X obj 224 65 r \$0-18;
#X obj 46 199 delwrite~ CHORUS-l 10000;
#X obj 557 153 delwrite~ CHORUS-r 10000;
#X floatatom 321 201 5 0 0 0 - - -;
#X obj 100 69 r \$0-2;
#X obj 321 177 * 5;
#X obj 321 152 + 0.001;
#X obj 430 152 + 0.001;
#X obj 430 223 sig~;
#X obj 430 174 * 50;
#X floatatom 430 197 5 0 0 0 - - -;
#X obj 112 119 hsl 128 15 0 1 0 0 empty empty empty -2 -8 0 10 -262144
-1 -1 0 1;
#X obj 112 139 hsl 128 15 0 1 0 0 empty empty empty -2 -8 0 10 -262144
-1 -1 0 1;
#X msg 321 103 \$1 200;
#X obj 321 125 line;
#X msg 424 106 \$1 200;
#X obj 424 128 line;
#X connect 0 0 1 0;
#X connect 0 0 14 0;
#X connect 0 0 13 0;
#X connect 1 0 2 0;
#X connect 2 0 3 0;
#X connect 3 0 4 0;
#X connect 4 0 20 0;
#X connect 5 0 6 0;
#X connect 6 0 7 0;
#X connect 7 0 8 0;
#X connect 8 0 19 0;
#X connect 9 0 10 0;
#X connect 10 0 11 0;
#X connect 11 0 12 0;
#X connect 12 0 21 0;
#X connect 13 0 9 0;
#X connect 14 0 5 0;
#X connect 15 0 22 0;
#X connect 16 0 22 0;
#X connect 17 0 22 0;
#X connect 18 0 47 0;
#X connect 19 0 16 0;
#X connect 20 0 15 0;
#X connect 21 0 17 0;
#X connect 23 0 24 0;
#X connect 23 0 37 0;
#X connect 23 0 36 0;
#X connect 24 0 25 0;
#X connect 25 0 26 0;
#X connect 26 0 27 0;
#X connect 27 0 43 0;
#X connect 28 0 29 0;
#X connect 29 0 30 0;
#X connect 30 0 31 0;
#X connect 31 0 44 0;
#X connect 32 0 33 0;
#X connect 33 0 34 0;
#X connect 34 0 35 0;
#X connect 35 0 45 0;
#X connect 36 0 32 0;
#X connect 37 0 28 0;
#X connect 38 0 41 0;
#X connect 39 0 41 0;
#X connect 40 0 41 0;
#X connect 42 0 48 0;
#X connect 43 0 38 0;
#X connect 44 0 39 0;
#X connect 45 0 40 0;
#X connect 46 0 58 0;
#X connect 49 0 0 0;
#X connect 49 0 23 0;
#X connect 50 0 57 0;
#X connect 51 0 49 0;
#X connect 52 0 51 0;
#X connect 53 0 55 0;
#X connect 54 0 4 1;
#X connect 54 0 8 1;
#X connect 54 0 12 1;
#X connect 54 0 27 1;
#X connect 54 0 31 1;
#X connect 54 0 35 1;
#X connect 55 0 56 0;
#X connect 56 0 54 0;
#X connect 57 0 59 0;
#X connect 58 0 61 0;
#X connect 59 0 60 0;
#X connect 60 0 52 0;
#X connect 61 0 62 0;
#X connect 62 0 53 0;
#X coords 0 -1 1 1 150 60 1 100 100;
#X restore 291 249 pd chours;
#N canvas 600 213 699 506 fuzz 0;
#X obj -165 145 inlet~;
#X obj -72 152 inlet~;
#X obj -166 490 outlet~;
#X obj -71 491 outlet~;
#X obj 78 62 r \$0-19;
#X obj -72 210 *~;
#X obj -170 210 *~;
#X obj -49 183 sig~;
#X obj -75 271 clip~ -1 1;
#X obj -174 275 clip~ -1 1;
#X obj -70 376 *~;
#X obj -168 376 *~;
#X obj -4 158 expr ($f1*50)+1;
#X obj 110 120 hsl 128 15 0 1 0 0 empty empty empty -2 -8 0 10 -262144
-1 -1 0 1;
#X floatatom 22 240 5 0 0 0 - - -;
#X obj 42 269 *;
#X obj 43 293 *;
#X floatatom 45 312 5 0 0 0 - - -;
#X msg 150 269 \$1 200;
#X obj 150 291 line;
#X obj 22 208 expr 1-($f1/1.1);
#X obj 162 190 t f f;
#X obj 174 242 line;
#X msg 174 220 \$1 50;
#X connect 0 0 6 0;
#X connect 1 0 5 0;
#X connect 4 0 13 0;
#X connect 5 0 8 0;
#X connect 6 0 9 0;
#X connect 7 0 5 1;
#X connect 7 0 6 1;
#X connect 8 0 10 0;
#X connect 9 0 11 0;
#X connect 10 0 3 0;
#X connect 11 0 2 0;
#X connect 12 0 7 0;
#X connect 13 0 21 0;
#X connect 14 0 15 0;
#X connect 14 0 15 1;
#X connect 15 0 16 0;
#X connect 15 0 16 1;
#X connect 16 0 17 0;
#X connect 17 0 11 1;
#X connect 17 0 10 1;
#X connect 18 0 19 0;
#X connect 19 0 12 0;
#X connect 20 0 14 0;
#X connect 21 0 18 0;
#X connect 21 1 23 0;
#X connect 22 0 20 0;
#X connect 23 0 22 0;
#X coords 0 -1 1 1 150 40 1 100 100;
#X restore 291 309 pd fuzz;
#X connect 1 0 0 2;
#X connect 2 0 3 0;
#X connect 2 1 3 1;
#X restore 231 120 pd effect;
#N canvas 386 102 506 686 stereo 0;
#X obj 24 622 outlet~;
#X obj 38 233 inlet~;
#X obj 120 227 inlet~;
#X obj 197 621 outlet~;
#X obj 23 307 +~;
#X obj 120 301 -~;
#X obj 23 399 -~;
#X obj 105 405 +~;
#X obj 120 350 *~;
#X obj 111 122 hsl 128 15 0.02 0.98 0 0 empty empty WIDTH 0 8 0 10
-262144 -1 -1 6349 1;
#X obj 237 252 expr 1-$f1;
#X floatatom 275 278 5 0 0 0 - - -;
#X floatatom 238 277 5 0 0 0 - - -;
#X obj 236 225 t f f b;
#X obj 225 104 bng 15 250 50 0 empty empty empty 17 7 0 10 -262144
-1 -1;
#X obj 23 356 *~;
#X obj 273 73 loadbang;
#X obj 23 424 *~ 1;
#X obj 105 430 *~ 1;
#X obj 24 472 st-pureverb /key;
#X msg 185 438 3 \$1;
#X msg 230 441 1 0.8;
#X obj 230 415 loadbang;
#X floatatom 186 414 5 0 0 0 - - -;
#X obj 185 388 expr ($f1-0.5)/0.6;
#X floatatom 190 103 5 0 0 0 - - -;
#X obj 108 189 line;
#X msg 178 41 0.4999;
#X msg 108 166 \$1 100;
#X obj 316 560 k_vol;
#X obj 305 158 moses 0.5;
#X floatatom 355 180 5 0 0 0 - - -;
#X floatatom 355 235 5 0 0 0 - - -;
#X obj 355 204 expr ($f1-0.5)*0.4+1;
#X connect 1 0 4 1;
#X connect 1 0 5 1;
#X connect 2 0 4 0;
#X connect 2 0 5 0;
#X connect 4 0 15 0;
#X connect 5 0 8 0;
#X connect 6 0 17 0;
#X connect 7 0 18 0;
#X connect 8 0 6 1;
#X connect 8 0 7 1;
#X connect 9 0 25 0;
#X connect 10 0 12 0;
#X connect 11 0 8 1;
#X connect 12 0 15 1;
#X connect 13 0 10 0;
#X connect 13 1 11 0;
#X connect 14 0 27 0;
#X connect 15 0 6 0;
#X connect 15 0 7 0;
#X connect 16 0 14 0;
#X connect 17 0 19 0;
#X connect 18 0 19 1;
#X connect 19 0 0 0;
#X connect 19 1 3 0;
#X connect 19 1 29 0;
#X connect 20 0 19 2;
#X connect 21 0 19 2;
#X connect 22 0 21 0;
#X connect 23 0 20 0;
#X connect 24 0 23 0;
#X connect 25 0 28 0;
#X connect 26 0 13 0;
#X connect 26 0 24 0;
#X connect 26 0 30 0;
#X connect 27 0 9 0;
#X connect 28 0 26 0;
#X connect 30 1 31 0;
#X connect 31 0 33 0;
#X connect 32 0 17 1;
#X connect 32 0 18 1;
#X connect 33 0 32 0;
#X coords 0 -1 1 1 150 40 1 100 100;
#X restore 113 307 pd stereo;
#X obj 113 190 st-EQ7 /key;
#N canvas 0 22 450 300 signal 0;
#X obj 39 241 outlet;
#X msg -100 189 0 0.499 \, 1 0.499 \, 2 0.499 \, 3 0.499 \, 4 0.499
\, 5 0.499 \, 6 0.499 \, 7 0.499;
#X obj 104 100 hsl 60 15 0 1 0 0 empty empty empty -2 -8 0 10 -262144
-1 -1 2950 1;
#N canvas 676 298 634 372 siignal 0;
#X obj 94 -81 inlet;
#X floatatom -15 48 5 0 0 0 - - -;
#X obj 98 247 outlet;
#X obj 96 -27 t f f f f f f f f;
#X obj 114 185 pack f f f f f f f f;
#X floatatom 429 138 5 0 0 0 - - -;
#X msg 115 216 0 \$1 \, 1 \$2 \, 2 \$3 \, 3 \$4 \, 4 \$5 \, 5 \$6 \,
6 \$7 \, 7 \$8;
#X msg 155 -80 \$1 200;
#X obj 155 -58 line;
#X obj 263 75 expr 1-$f1;
#X floatatom 27 72 5 0 0 0 - - -;
#X floatatom 65 99 5 0 0 0 - - -;
#X floatatom 182 62 5 0 0 0 - - -;
#X obj 429 110 expr 0.5+(-0.2*($f1-0.5));
#X floatatom 354 59 5 0 0 0 - - -;
#X obj 354 31 expr 0.5+(-0.3*($f1-0.5));
#X obj 26 45 expr $f1*0.7+0.15;
#X obj 208 103 expr 1-($f1*0.7+0.15);
#X obj 64 74 expr $f1*0.4+0.25;
#X floatatom 201 133 5 0 0 0 - - -;
#X obj 181 38 expr 1-($f1*0.4+0.25);
#X connect 0 0 7 0;
#X connect 1 0 4 0;
#X connect 3 0 1 0;
#X connect 3 1 16 0;
#X connect 3 2 18 0;
#X connect 3 3 15 0;
#X connect 3 4 20 0;
#X connect 3 5 17 0;
#X connect 3 6 9 0;
#X connect 3 7 13 0;
#X connect 4 0 6 0;
#X connect 5 0 4 7;
#X connect 6 0 2 0;
#X connect 7 0 8 0;
#X connect 8 0 3 0;
#X connect 9 0 4 5;
#X connect 10 0 4 1;
#X connect 11 0 4 2;
#X connect 12 0 4 3;
#X connect 13 0 5 0;
#X connect 14 0 4 6;
#X connect 15 0 14 0;
#X connect 16 0 10 0;
#X connect 17 0 19 0;
#X connect 18 0 11 0;
#X connect 19 0 4 4;
#X connect 20 0 12 0;
#X restore 101 161 pd siignal;
#X obj 101 76 r \$0-0;
#X obj -100 161 loadbang;
#X obj 175 100 bng 15 250 50 0 empty empty empty 17 7 0 10 -262144
-1 -1;
#X msg 264 54 0.499;
#X obj 100 124 expr 1-$f1;
#X connect 1 0 0 0;
#X connect 2 0 8 0;
#X connect 3 0 0 0;
#X connect 4 0 2 0;
#X connect 5 0 1 0;
#X connect 6 0 7 0;
#X connect 7 0 2 0;
#X connect 8 0 3 0;
#X coords 0 -1 1 1 90 15 2 100 100;
#X restore 199 165 pd signal;
#X obj 256 433 throw~ k_r;
#X obj 297 166 catch~ k_l;
#X obj 783 172 catch~ k_r;
#X obj 113 433 throw~ k_l;
#X connect 3 0 7 0;
#X connect 3 1 7 1;
#X connect 4 0 12 0;
#X connect 4 1 9 0;
#X connect 6 0 4 0;
#X connect 6 1 4 1;
#X connect 7 0 6 0;
#X connect 7 1 6 1;
#X connect 8 0 7 2;
#X connect 10 0 1 0;
#X connect 11 0 1 1;
#X coords 0 -1 1 1 756 356 1 100 100;
