#N canvas 130 128 907 562 10;
#X declare -lib mrpeach;
#X obj 103 115 cnv 15 74 37 empty empty empty 20 12 0 14 -1 -66577
0;
#X obj 127 118 tgl 30 0 empty empty empty 17 7 0 10 -258113 -1 -1 0
1;
#X obj 160 56 loadbang;
#X msg 160 88 0;
#X obj 158 525 tgl 15 0 empty empty empty 17 7 0 10 -262144 -1 -1 0
1;
#X msg 129 246 disconnect;
#X obj 110 216 sel 1 0;
#X obj 36 193 sel 0 1;
#X obj 160 118 vradio 15 1 0 2 empty empty empty 0 -8 0 10 -262144
-1 -1 0;
#X msg 36 217 1 0;
#X msg 72 219 0 1;
#X obj 39 300 spigot;
#X obj 80 323 spigot;
#X obj 72 269 unpack f f;
#X obj 215 524 print;
#X obj 245 295 inlet~;
#X obj 297 294 inlet~;
#X msg 57 461 format 8bit;
#X obj 57 437 loadbang;
#X obj 219 342 spigot~;
#X obj 271 342 spigot~;
#X obj -135 54 import mrpeach;
#X msg -173 281 send /test 1;
#X obj -173 254 metro 200;
#X obj -173 234 tgl 15 0 empty empty empty 17 7 0 10 -262144 -1 -1
0 1;
#X floatatom -93 224 5 0 0 0 - - -;
#X msg 1 403 disconnect;
#X obj -48 308 sel 1 0;
#X obj -121 324 sel 0 1;
#X msg -121 348 1 0;
#X msg -85 350 0 1;
#X obj -118 431 spigot;
#X obj -77 454 spigot;
#X obj -85 400 unpack f f;
#X text -47 198 radius;
#X obj -93 198 r mb-5;
#X obj -173 166 r mb-1;
#X obj -173 206 spigot;
#X obj -254 391 spigot;
#X obj -254 357 r tomain;
#X obj -130 115 sel 0;
#X msg -130 138 0;
#X obj -178 465 tgl 15 0 empty empty empty 17 7 0 10 -262144 -1 -1
0 1;
#X obj -178 439 sendOSC;
#X obj -46 138 t f f f;
#X msg -118 478 connect localhost 12999;
#X msg -78 500 connect 192.168.0.99 12999;
#X msg 39 347 connect localhost 10001;
#X msg 79 369 connect 192.168.0.99 10001;
#X obj 158 501 netsend~ 2;
#X obj 228 175 s eq;
#X connect 1 0 6 0;
#X connect 1 0 19 1;
#X connect 1 0 20 1;
#X connect 1 0 27 0;
#X connect 1 0 50 0;
#X connect 2 0 3 0;
#X connect 3 0 8 0;
#X connect 3 0 1 0;
#X connect 5 0 49 0;
#X connect 6 0 11 0;
#X connect 6 0 12 0;
#X connect 6 1 5 0;
#X connect 7 0 9 0;
#X connect 7 1 10 0;
#X connect 8 0 7 0;
#X connect 8 0 28 0;
#X connect 9 0 13 0;
#X connect 10 0 13 0;
#X connect 11 0 47 0;
#X connect 12 0 48 0;
#X connect 13 0 11 1;
#X connect 13 1 12 1;
#X connect 15 0 19 0;
#X connect 16 0 20 0;
#X connect 17 0 49 0;
#X connect 18 0 17 0;
#X connect 19 1 49 0;
#X connect 20 1 49 1;
#X connect 22 0 43 0;
#X connect 23 0 22 0;
#X connect 24 0 23 0;
#X connect 25 0 23 1;
#X connect 26 0 43 0;
#X connect 27 0 31 0;
#X connect 27 0 32 0;
#X connect 27 1 26 0;
#X connect 28 0 29 0;
#X connect 28 1 30 0;
#X connect 29 0 33 0;
#X connect 30 0 33 0;
#X connect 31 0 45 0;
#X connect 32 0 46 0;
#X connect 33 0 31 1;
#X connect 33 1 32 1;
#X connect 35 0 25 0;
#X connect 36 0 37 0;
#X connect 37 0 24 0;
#X connect 38 0 43 0;
#X connect 39 0 38 0;
#X connect 40 0 41 0;
#X connect 40 1 24 0;
#X connect 41 0 24 0;
#X connect 43 0 42 0;
#X connect 44 0 40 0;
#X connect 44 1 37 1;
#X connect 44 2 38 1;
#X connect 45 0 43 0;
#X connect 46 0 43 0;
#X connect 47 0 49 0;
#X connect 48 0 49 0;
#X connect 49 0 4 0;
#X connect 49 1 14 0;
#X coords 0 -1 1 1 80 55 1 100 100;
