#N canvas 100 39 1440 780 10;
#X declare -lib mrpeach;
#X obj 103 117 cnv 15 74 40 empty empty empty 20 12 0 14 -1 -66577
0;
#X obj 109 124 tgl 30 0 empty empty empty 17 7 0 10 -258113 -1 -1 1
1;
#X obj 149 46 loadbang;
#X msg 149 78 0;
#X obj -30 182 sel 0 1;
#X msg -30 205 1 0;
#X msg 7 204 0 1;
#X obj -30 234 s chudp;
#X obj -19 29 import mrpeach;
#X obj 158 446 udpsend;
#X obj 158 470 tgl 15 0 empty empty empty 17 7 0 10 -262144 -1 -1 1
1;
#X msg 158 260 disconnect;
#X obj 109 165 sel 1 0;
#X obj 249 356 s toudp;
#X obj 249 329 packOSC;
#X obj 249 234 r v-speed;
#X obj 321 177 r v-distance;
#X obj 494 170 r fader;
#X msg 249 280 send /gem /1 \$1;
#X msg 321 254 send /gem /2 \$1;
#X msg 494 255 send /gem /3 \$1;
#X obj 211 180 spigot;
#X floatatom 321 200 5 0 0 0 - - -;
#X floatatom 249 256 5 0 0 0 - - -;
#X obj 211 156 r toudp;
#X msg 494 142 send /gem /4 \$1;
#X msg 342 117 send /gem /5 \$1;
#X obj 342 94 r spain;
#X obj 36 181 sel 0 1;
#X obj 149 122 vradio 15 1 0 2 empty empty empty 0 -8 0 10 -262144
-1 -1 0;
#X msg 36 205 1 0;
#X msg 72 207 0 1;
#X obj 39 288 spigot;
#X obj 80 311 spigot;
#X obj 72 257 unpack f f;
#X floatatom 494 202 5 0 0 0 - - -;
#X floatatom 494 89 5 0 0 0 - - -;
#X obj 494 229 v \$0-fader;
#X obj 401 177 tgl 15 0 empty empty empty 17 7 0 10 -262144 -1 -1 1
1;
#X obj 401 155 loadbang;
#X obj 321 224 v \$0-dis;
#X obj 543 347 r scrollvol;
#X obj 329 454 s toudp;
#X obj 329 427 packOSC;
#X floatatom 329 365 5 0 0 0 - - -;
#X floatatom 433 365 5 0 0 0 - - -;
#X floatatom 543 368 5 0 0 0 - - -;
#X msg 329 387 send /gem /5 \$1;
#X msg 433 388 send /gem /6 \$1;
#X msg 543 388 send /gem /7 \$1;
#X obj 329 340 r sx_1;
#X obj 433 341 r sy_1;
#X obj 401 196 metro 50;
#X obj 494 60 r fadery;
#X obj 494 113 v \$0-fadery;
#X floatatom 666 369 5 0 0 0 - - -;
#X msg 666 391 send /gem /8 \$1;
#X obj 666 344 r 3d;
#X floatatom 399 553 5 0 0 0 - - -;
#X msg 399 575 send /gem /9 \$1;
#X floatatom 541 440 5 0 0 0 - - -;
#X msg 541 462 send /gem /10 \$1;
#X floatatom 656 165 5 0 0 0 - - -;
#X obj 656 265 s toudp;
#X obj 656 238 packOSC;
#X floatatom 708 133 5 0 0 0 - - -;
#X floatatom 721 242 5 0 0 0 - - -;
#X floatatom 789 209 5 0 0 0 - - -;
#X floatatom 776 95 5 0 0 0 - - -;
#X obj 721 217 ctlin 5;
#X obj 789 184 ctlin 6;
#X obj 776 70 ctlin 7;
#X msg 721 264 send /midi /5 \$1;
#X msg 789 231 send /midi /6 \$1;
#X msg 776 117 send /midi /7 \$1;
#X msg 708 155 send /midi /4 \$1;
#X obj 656 140 ctlin 0;
#X msg 656 187 send /midi /0 \$1;
#X obj 587 202 s midi-0;
#X obj 817 471 s toudp;
#X obj 817 444 packOSC;
#X obj 817 364 r e-bloom-tgl;
#X msg 817 420 send /effect /1 \$1;
#X obj 817 391 tgl 15 0 empty empty empty 17 7 0 10 -262144 -1 -1 0
1;
#X obj 670 417 r gem-3d;
#X msg 670 458 send /gem /11 \$1;
#X floatatom 670 437 5 0 0 0 - - -;
#X obj 929 361 r e-wave-tgl;
#X msg 929 389 send /effect /2 \$1;
#X obj 920 223 / 127;
#X obj 920 308 s midi-1;
#X floatatom 920 247 5 0 0 0 - - -;
#X floatatom 712 -32 5 0 0 0 - - -;
#X obj 711 34 s midi-16;
#X floatatom 912 -35 5 0 0 0 - - -;
#X floatatom 780 -38 5 0 0 0 - - -;
#X floatatom 843 -37 5 0 0 0 - - -;
#X obj 911 31 s midi-19;
#X obj 779 28 s midi-17;
#X obj 843 29 s midi-18;
#X floatatom 990 117 5 0 0 0 - - -;
#X floatatom 921 115 5 0 0 0 - - -;
#X obj 921 93 ctlin 32;
#X obj 990 95 ctlin 48;
#X obj 922 137 s midi-32;
#X obj 990 139 s midi-48;
#X floatatom 546 557 5 0 0 0 - - -;
#X floatatom 673 556 5 0 0 0 - - -;
#X obj 399 527 r mouseleft;
#X msg 546 579 send /gem /12 \$1;
#X msg 673 578 send /gem /13 \$1;
#X obj 742 490 r gem-flash;
#X floatatom 742 523 5 0 0 0 - - -;
#X msg 742 545 send /gem /14 \$1;
#X obj 280 529 r 2window;
#X floatatom 279 554 5 0 0 0 - - -;
#X msg 279 576 send /gem /15 \$1;
#X obj 1037 398 udpreceive 12000;
#X obj 1037 421 unpackOSC;
#X obj 1037 447 s sound-main;
#X obj 979 223 / 127;
#X floatatom 979 247 5 0 0 0 - - -;
#X obj 1042 224 / 127;
#X floatatom 1042 248 5 0 0 0 - - -;
#X obj 979 308 s midi-2;
#X obj 1042 309 s midi-3;
#X floatatom 985 -34 5 0 0 0 - - -;
#X obj 992 28 s midi-20;
#X msg 871 269 send /midi /1 \$1;
#X msg 956 286 send /midi /2 \$1;
#X msg 1073 272 send /midi /3 \$1;
#X msg 642 52 send /midi /16 \$1;
#X msg 769 51 send /midi /17 \$1;
#X msg 841 73 send /midi /18 \$1;
#X msg 911 54 send /midi /19 \$1;
#X msg 1024 63 send /midi /20 \$1;
#X obj 713 -8 / 127;
#X obj 776 -12 / 127;
#X obj 842 -9 / 127;
#X obj 920 -7 / 127;
#X obj 989 -5 / 127;
#X obj 831 156 s midi-4;
#X obj 817 291 s midi-6;
#X obj 697 295 s midi-5;
#X msg 39 335 connect localhost 13000;
#X msg 79 357 connect 192.168.0.255 13000;
#X obj 920 203 ctlin 16;
#X obj 712 -54 ctlin 17;
#X obj 780 -60 ctlin 18;
#X obj 843 -59 ctlin 19;
#X obj 912 -57 ctlin 20;
#X obj 985 -56 ctlin 21;
#X obj 979 202 ctlin 1;
#X obj 1042 204 ctlin 2;
#X obj 708 108 ctlin 3;
#X obj -123 390 unpackOSC;
#X obj -123 445 s touchosc;
#X obj 38 527 udpsend;
#X obj 38 551 tgl 15 0 empty empty empty 17 7 0 10 -262144 -1 -1 1
1;
#X obj 5 445 spigot;
#X obj 5 421 r totouch;
#X obj 677 -129 r touchosc;
#X obj 677 -106 routeOSC /eq;
#X obj 677 -81 route /1 /2 /3 /4 /5 /15;
#N canvas 452 84 748 612 toeq=========== 0;
#X obj 69 23 inlet;
#X obj 114 26 inlet;
#X obj 169 27 inlet;
#X obj 214 30 inlet;
#X obj 259 34 inlet;
#X obj 404 14 inlet;
#X obj 404 45 sel 1;
#X obj 115 121 line;
#X obj 158 129 line;
#X obj 211 132 line;
#X obj 254 140 line;
#X obj 307 136 line;
#X obj 115 165 spigot;
#X obj 165 170 spigot;
#X obj 217 171 spigot;
#X obj 267 171 spigot;
#X obj 320 172 spigot;
#X obj 402 71 t b b b;
#X msg 438 97 1;
#X msg 401 181 0;
#X msg 309 -1 0.4999;
#X obj 309 23 t f f f f f;
#X obj 298 329 s totouch;
#X obj 298 306 packOSC;
#X msg 105 248 send /eq/1 \$1;
#X msg 197 249 send /eq/2 \$1;
#X msg 288 249 send /eq/3 \$1;
#X msg 380 250 send /eq/4 \$1;
#X msg 480 249 send /eq/5 \$1;
#X obj 11 573 s toudp;
#X obj 11 546 packOSC;
#X msg -3 360 send /midi /16 \$1;
#X msg 124 359 send /midi /17 \$1;
#X msg 266 362 send /midi /19 \$1;
#X msg 379 361 send /midi /20 \$1;
#X msg 191 400 send /midi /18 \$1;
#X obj 402 156 del 2000;
#X msg 262 100 \$1 2000;
#X msg 209 104 \$1 2000;
#X msg 166 94 \$1 2000;
#X msg 113 93 \$1 2000;
#X msg 70 84 \$1 2000;
#X msg 308 492 send /midi /23 \$1;
#X msg 421 491 send /midi /24 \$1;
#X obj 381 392 r touchosc;
#X obj 381 415 routeOSC /eq;
#X obj 386 441 route /23 /24;
#X connect 0 0 41 0;
#X connect 0 0 31 0;
#X connect 1 0 40 0;
#X connect 1 0 32 0;
#X connect 2 0 39 0;
#X connect 2 0 35 0;
#X connect 3 0 38 0;
#X connect 3 0 33 0;
#X connect 4 0 37 0;
#X connect 4 0 34 0;
#X connect 5 0 6 0;
#X connect 6 0 17 0;
#X connect 7 0 12 0;
#X connect 8 0 13 0;
#X connect 9 0 14 0;
#X connect 10 0 15 0;
#X connect 11 0 16 0;
#X connect 12 0 24 0;
#X connect 13 0 25 0;
#X connect 14 0 26 0;
#X connect 15 0 27 0;
#X connect 16 0 28 0;
#X connect 17 0 36 0;
#X connect 17 1 20 0;
#X connect 17 2 18 0;
#X connect 18 0 16 1;
#X connect 18 0 15 1;
#X connect 18 0 14 1;
#X connect 18 0 13 1;
#X connect 18 0 12 1;
#X connect 19 0 16 1;
#X connect 19 0 15 1;
#X connect 19 0 14 1;
#X connect 19 0 13 1;
#X connect 19 0 12 1;
#X connect 20 0 21 0;
#X connect 21 0 41 0;
#X connect 21 1 40 0;
#X connect 21 2 39 0;
#X connect 21 3 38 0;
#X connect 21 4 37 0;
#X connect 23 0 22 0;
#X connect 24 0 23 0;
#X connect 25 0 23 0;
#X connect 26 0 23 0;
#X connect 27 0 23 0;
#X connect 28 0 23 0;
#X connect 30 0 29 0;
#X connect 31 0 30 0;
#X connect 32 0 30 0;
#X connect 33 0 30 0;
#X connect 34 0 30 0;
#X connect 35 0 30 0;
#X connect 36 0 19 0;
#X connect 37 0 11 0;
#X connect 38 0 10 0;
#X connect 39 0 9 0;
#X connect 40 0 8 0;
#X connect 41 0 7 0;
#X connect 42 0 30 0;
#X connect 43 0 30 0;
#X connect 44 0 45 0;
#X connect 45 0 46 0;
#X connect 46 0 42 0;
#X connect 46 1 43 0;
#X restore 522 -6 pd toeq===========;
#X obj 587 487 r toclicksound;
#X obj 587 508 sel 1 0;
#X msg 548 538 1;
#X msg 670 534 1;
#X obj -14 120 s udp_tgl;
#X obj 421 -85 r touchosc;
#X obj 421 -61 routeOSC /vj;
#X floatatom 420 -3 5 0 0 0 - - -;
#X obj 421 -38 route /23;
#X msg 423 22 send /midi /21 \$1;
#X text 221 471 to ipad;
#X text -123 467 from ipad;
#X obj -123 415 spigot;
#X obj -185 484 s displayipad;
#X obj -123 361 udpreceive 9876;
#X obj 541 415 r bombbomb;
#X obj -133 287 hid;
#X obj -133 311 spigot;
#X obj -99 292 tgl 15 0 empty empty empty 17 7 0 10 -262144 -1 -1 1
1;
#X obj -132 179 t f f;
#X obj -132 207 sel 1;
#X msg -89 208 close;
#X obj -134 334 s gemkey;
#X obj -132 151 tgl 15 0 empty empty empty 17 7 0 10 -262144 -1 -1
1 1;
#X obj -175 -171 unpackOSC;
#X obj -174 -146 spigot;
#X obj -175 -200 udpreceive 1234;
#X obj -138 588 udpsend;
#X obj -138 612 tgl 15 0 empty empty empty 17 7 0 10 -262144 -1 -1
1 1;
#X obj -135 558 spigot;
#X obj -134 526 r toipod;
#X msg -44 584 disconnect;
#X obj -70 557 sel 1 0;
#X obj -177 -115 route /accxyz;
#X obj -178 -92 unpack f f f;
#X obj -178 -68 expr int($f1*100)/10;
#X obj -141 -46 expr int($f1*100)/10;
#X obj -89 -23 expr int($f1*100)/10;
#X obj -179 96 packOSC;
#X obj -179 123 s toipod;
#X msg -186 28 send /1/a7 \$1;
#X msg -151 48 send /1/a8 \$1;
#X msg -124 72 send /1/a9 \$1;
#X obj -9 -116 tgl 15 0 empty empty empty 17 7 0 10 -262144 -1 -1 1
1;
#X obj -9 -91 metro 200;
#X obj -180 -17 f;
#X obj -145 0 f;
#X obj -101 7 f;
#X obj -8 -67 t b b b;
#X msg -78 605 connect 192.168.0.101 4321;
#X text 56 587 to ipod;
#X obj -94 -139 s showipod;
#X obj -133 236 f;
#X obj -104 236 + 1;
#X msg -133 262 open keyboard \$1 \, 1;
#X obj 990 510 r viewcin;
#X obj 990 631 s toudp;
#X obj 990 604 packOSC;
#X obj 1064 561 r fog-tgl;
#X obj 990 575 spigot;
#X msg 990 533 send /gem /pos \$1 \$2 \$3 \$4 \$5 \$6;
#X obj -74 236 % 2;
#X msg 104 494 connect 192.168.0.100 6789;
#X connect 1 0 4 0;
#X connect 1 0 12 0;
#X connect 1 0 169 0;
#X connect 1 0 177 1;
#X connect 1 0 188 0;
#X connect 1 0 197 0;
#X connect 1 0 190 1;
#X connect 1 0 208 0;
#X connect 2 0 3 0;
#X connect 3 0 29 0;
#X connect 4 0 5 0;
#X connect 4 1 6 0;
#X connect 5 0 7 0;
#X connect 6 0 7 0;
#X connect 9 0 10 0;
#X connect 10 0 21 1;
#X connect 11 0 9 0;
#X connect 11 0 157 0;
#X connect 12 0 32 0;
#X connect 12 0 33 0;
#X connect 12 0 227 0;
#X connect 12 1 11 0;
#X connect 14 0 13 0;
#X connect 15 0 23 0;
#X connect 16 0 22 0;
#X connect 17 0 35 0;
#X connect 18 0 14 0;
#X connect 19 0 14 0;
#X connect 20 0 14 0;
#X connect 21 0 9 0;
#X connect 22 0 40 0;
#X connect 23 0 18 0;
#X connect 24 0 21 0;
#X connect 25 0 14 0;
#X connect 26 0 14 0;
#X connect 27 0 26 0;
#X connect 28 0 30 0;
#X connect 28 1 31 0;
#X connect 29 0 28 0;
#X connect 30 0 34 0;
#X connect 31 0 34 0;
#X connect 32 0 144 0;
#X connect 33 0 145 0;
#X connect 34 0 32 1;
#X connect 34 1 33 1;
#X connect 35 0 37 0;
#X connect 36 0 54 0;
#X connect 37 0 20 0;
#X connect 38 0 52 0;
#X connect 39 0 38 0;
#X connect 40 0 19 0;
#X connect 41 0 46 0;
#X connect 43 0 42 0;
#X connect 44 0 47 0;
#X connect 45 0 48 0;
#X connect 46 0 49 0;
#X connect 47 0 43 0;
#X connect 48 0 43 0;
#X connect 49 0 43 0;
#X connect 50 0 44 0;
#X connect 51 0 45 0;
#X connect 52 0 37 0;
#X connect 52 0 40 0;
#X connect 52 0 54 0;
#X connect 53 0 36 0;
#X connect 54 0 25 0;
#X connect 55 0 56 0;
#X connect 56 0 43 0;
#X connect 57 0 55 0;
#X connect 58 0 59 0;
#X connect 59 0 43 0;
#X connect 60 0 61 0;
#X connect 61 0 43 0;
#X connect 62 0 77 0;
#X connect 62 0 78 0;
#X connect 64 0 63 0;
#X connect 65 0 75 0;
#X connect 65 0 141 0;
#X connect 66 0 72 0;
#X connect 66 0 143 0;
#X connect 67 0 73 0;
#X connect 67 0 142 0;
#X connect 68 0 74 0;
#X connect 69 0 66 0;
#X connect 70 0 67 0;
#X connect 71 0 68 0;
#X connect 72 0 64 0;
#X connect 73 0 64 0;
#X connect 74 0 64 0;
#X connect 75 0 64 0;
#X connect 76 0 62 0;
#X connect 77 0 64 0;
#X connect 80 0 79 0;
#X connect 81 0 83 0;
#X connect 82 0 80 0;
#X connect 83 0 82 0;
#X connect 84 0 86 0;
#X connect 85 0 43 0;
#X connect 86 0 85 0;
#X connect 87 0 88 0;
#X connect 88 0 80 0;
#X connect 89 0 91 0;
#X connect 91 0 90 0;
#X connect 91 0 128 0;
#X connect 92 0 136 0;
#X connect 94 0 139 0;
#X connect 95 0 137 0;
#X connect 96 0 138 0;
#X connect 100 0 105 0;
#X connect 101 0 104 0;
#X connect 102 0 101 0;
#X connect 103 0 100 0;
#X connect 106 0 109 0;
#X connect 107 0 110 0;
#X connect 108 0 58 0;
#X connect 109 0 43 0;
#X connect 110 0 43 0;
#X connect 111 0 112 0;
#X connect 112 0 113 0;
#X connect 113 0 43 0;
#X connect 114 0 115 0;
#X connect 115 0 116 0;
#X connect 116 0 43 0;
#X connect 117 0 118 0;
#X connect 118 0 119 0;
#X connect 120 0 121 0;
#X connect 121 0 124 0;
#X connect 121 0 129 0;
#X connect 122 0 123 0;
#X connect 123 0 125 0;
#X connect 123 0 130 0;
#X connect 126 0 140 0;
#X connect 128 0 64 0;
#X connect 129 0 64 0;
#X connect 130 0 64 0;
#X connect 131 0 64 0;
#X connect 132 0 64 0;
#X connect 133 0 64 0;
#X connect 134 0 64 0;
#X connect 135 0 64 0;
#X connect 136 0 93 0;
#X connect 136 0 131 0;
#X connect 137 0 98 0;
#X connect 137 0 132 0;
#X connect 138 0 99 0;
#X connect 138 0 133 0;
#X connect 139 0 97 0;
#X connect 139 0 134 0;
#X connect 140 0 127 0;
#X connect 140 0 135 0;
#X connect 144 0 9 0;
#X connect 145 0 9 0;
#X connect 146 0 89 0;
#X connect 147 0 92 0;
#X connect 148 0 95 0;
#X connect 149 0 96 0;
#X connect 150 0 94 0;
#X connect 151 0 126 0;
#X connect 152 0 120 0;
#X connect 153 0 122 0;
#X connect 154 0 65 0;
#X connect 155 0 177 0;
#X connect 155 0 178 0;
#X connect 157 0 158 0;
#X connect 158 0 159 1;
#X connect 159 0 157 0;
#X connect 160 0 159 0;
#X connect 161 0 162 0;
#X connect 162 0 163 0;
#X connect 163 0 131 0;
#X connect 163 0 164 0;
#X connect 163 1 132 0;
#X connect 163 1 164 1;
#X connect 163 2 133 0;
#X connect 163 2 164 2;
#X connect 163 3 134 0;
#X connect 163 3 164 3;
#X connect 163 4 135 0;
#X connect 163 4 164 4;
#X connect 163 5 164 5;
#X connect 165 0 166 0;
#X connect 166 0 167 0;
#X connect 166 1 168 0;
#X connect 167 0 106 0;
#X connect 168 0 107 0;
#X connect 170 0 171 0;
#X connect 171 0 173 0;
#X connect 172 0 174 0;
#X connect 173 0 172 0;
#X connect 174 0 64 0;
#X connect 177 0 156 0;
#X connect 179 0 155 0;
#X connect 180 0 60 0;
#X connect 181 0 182 0;
#X connect 182 0 187 0;
#X connect 183 0 182 1;
#X connect 184 0 185 0;
#X connect 184 1 183 0;
#X connect 185 0 217 0;
#X connect 185 1 186 0;
#X connect 186 0 181 0;
#X connect 188 0 184 0;
#X connect 189 0 190 0;
#X connect 190 0 198 0;
#X connect 190 0 216 0;
#X connect 192 0 193 0;
#X connect 193 0 194 1;
#X connect 194 0 192 0;
#X connect 195 0 194 0;
#X connect 196 0 192 0;
#X connect 197 0 214 0;
#X connect 197 1 196 0;
#X connect 198 0 199 0;
#X connect 199 0 200 0;
#X connect 199 1 201 0;
#X connect 199 2 202 0;
#X connect 200 0 210 1;
#X connect 201 0 211 1;
#X connect 202 0 212 1;
#X connect 205 0 203 0;
#X connect 206 0 203 0;
#X connect 207 0 203 0;
#X connect 208 0 209 0;
#X connect 209 0 213 0;
#X connect 210 0 205 0;
#X connect 211 0 206 0;
#X connect 212 0 207 0;
#X connect 213 0 210 0;
#X connect 213 1 211 0;
#X connect 213 2 212 0;
#X connect 214 0 192 0;
#X connect 217 0 218 0;
#X connect 217 0 219 0;
#X connect 218 0 226 0;
#X connect 219 0 181 0;
#X connect 220 0 225 0;
#X connect 222 0 221 0;
#X connect 223 0 224 1;
#X connect 224 0 222 0;
#X connect 225 0 224 0;
#X connect 226 0 217 1;
#X connect 227 0 157 0;
#X coords 0 -1 1 1 80 60 1 100 100;
