#N canvas 378 137 1028 659 10;
#X obj 101 101 cnv 15 108 68 empty empty k_ui 5 12 0 14 -195837 -66577
0;
#X obj 326 383 pix_texture;
#X obj 342 278 ui_3;
#X obj 105 129 tgl 15 0 empty empty 1 5 7 0 10 -262144 -1 -1 0 1;
#X obj 105 148 tgl 15 0 empty empty 2 5 7 0 10 -262144 -1 -1 0 1;
#X obj 123 129 tgl 15 0 empty empty 3 5 7 0 10 -262144 -1 -1 0 1;
#X obj 123 148 tgl 15 0 empty empty 4 5 7 0 10 -262144 -1 -1 1 1;
#X obj 49 164 s \$0-u1;
#X obj 49 186 s \$0-u2;
#X obj 49 206 s \$0-u3;
#X obj 49 228 s \$0-u4;
#X obj 87 426 ui_1;
#X obj 208 420 ui_2;
#X obj 141 148 tgl 15 0 empty empty 5 5 7 0 10 -262144 -1 -1 1 1;
#X obj 49 248 s \$0-u5;
#X obj 849 402 scaleXYZ 0.15 0.15 0.15;
#X obj 326 484 rectangle 4 3.1;
#X obj 212 -99 loadbang;
#X obj 212 -58 t f f f f f f;
#X msg 212 -79 0;
#X obj 13 -134 r hid;
#X obj 46 -87 route key_225;
#X obj 13 -112 t a a;
#X obj 13 -58 spigot;
#X obj 13 1 sel 1;
#X obj 60 1 sel 1;
#X obj 107 2 sel 1;
#X obj 155 3 sel 1;
#X obj 202 3 sel 1;
#X obj 221 88 tgl 15 0 empty empty empty 17 7 0 10 -262144 -1 -1 1
1;
#X obj 221 61 loadbang;
#X obj 221 139 t b b;
#X obj 279 173 - 0.005;
#X floatatom 206 167 5 0 0 0 - - -;
#X floatatom 206 224 5 0 0 0 - - -;
#X obj 87 335 t a b;
#N canvas 92 312 450 300 tran-noise 0;
#X obj 59 185 translateXYZ 0 0 0;
#X obj 120 53 inlet;
#X obj 54 51 inlet;
#X obj 120 105 randomF;
#X obj 176 103 randomF;
#X obj 58 228 outlet;
#X obj 120 76 t b b b;
#X obj 202 52 v \$0-noise;
#X obj 120 136 / 30;
#X obj 175 137 / 30;
#X connect 0 0 5 0;
#X connect 1 0 6 0;
#X connect 2 0 0 0;
#X connect 3 0 8 0;
#X connect 4 0 9 0;
#X connect 6 0 3 0;
#X connect 6 1 4 0;
#X connect 6 2 7 0;
#X connect 7 0 4 1;
#X connect 7 0 3 1;
#X connect 8 0 0 1;
#X connect 9 0 0 2;
#X restore 87 359 pd tran-noise;
#X obj 206 200 v \$0-noise;
#X obj 279 142 v \$0-noise;
#X obj 208 328 t a b;
#N canvas 92 312 450 300 tran-noise 0;
#X obj 59 185 translateXYZ 0 0 0;
#X obj 120 53 inlet;
#X obj 54 51 inlet;
#X obj 120 105 randomF;
#X obj 176 103 randomF;
#X obj 58 228 outlet;
#X obj 120 76 t b b b;
#X obj 202 52 v \$0-noise;
#X obj 120 136 / 30;
#X obj 175 137 / 30;
#X connect 0 0 5 0;
#X connect 1 0 6 0;
#X connect 2 0 0 0;
#X connect 3 0 8 0;
#X connect 4 0 9 0;
#X connect 6 0 3 0;
#X connect 6 1 4 0;
#X connect 6 2 7 0;
#X connect 7 0 4 1;
#X connect 7 0 3 1;
#X connect 8 0 0 1;
#X connect 9 0 0 2;
#X restore 208 352 pd tran-noise;
#X obj 326 330 t a b;
#N canvas 92 312 450 300 tran-noise 0;
#X obj 59 185 translateXYZ 0 0 0;
#X obj 120 53 inlet;
#X obj 54 51 inlet;
#X obj 120 105 randomF;
#X obj 176 103 randomF;
#X obj 58 228 outlet;
#X obj 120 76 t b b b;
#X obj 202 52 v \$0-noise;
#X obj 120 136 / 30;
#X obj 175 137 / 30;
#X connect 0 0 5 0;
#X connect 1 0 6 0;
#X connect 2 0 0 0;
#X connect 3 0 8 0;
#X connect 4 0 9 0;
#X connect 6 0 3 0;
#X connect 6 1 4 0;
#X connect 6 2 7 0;
#X connect 7 0 4 1;
#X connect 7 0 3 1;
#X connect 8 0 0 1;
#X connect 9 0 0 2;
#X restore 326 354 pd tran-noise;
#X obj 492 324 t a b;
#N canvas 92 312 450 300 tran-noise 0;
#X obj 59 185 translateXYZ 0 0 0;
#X obj 120 53 inlet;
#X obj 54 51 inlet;
#X obj 120 105 randomF;
#X obj 176 103 randomF;
#X obj 58 228 outlet;
#X obj 120 76 t b b b;
#X obj 202 52 v \$0-noise;
#X obj 120 136 / 30;
#X obj 175 137 / 30;
#X connect 0 0 5 0;
#X connect 1 0 6 0;
#X connect 2 0 0 0;
#X connect 3 0 8 0;
#X connect 4 0 9 0;
#X connect 6 0 3 0;
#X connect 6 1 4 0;
#X connect 6 2 7 0;
#X connect 7 0 4 1;
#X connect 7 0 3 1;
#X connect 8 0 0 1;
#X connect 9 0 0 2;
#X restore 492 348 pd tran-noise;
#X obj 849 323 t a b;
#N canvas 92 312 450 300 tran-noise 0;
#X obj 59 185 translateXYZ 0 0 0;
#X obj 120 53 inlet;
#X obj 54 51 inlet;
#X obj 120 105 randomF;
#X obj 176 103 randomF;
#X obj 58 228 outlet;
#X obj 120 76 t b b b;
#X obj 202 52 v \$0-noise;
#X obj 120 136 / 30;
#X obj 175 137 / 30;
#X connect 0 0 5 0;
#X connect 1 0 6 0;
#X connect 2 0 0 0;
#X connect 3 0 8 0;
#X connect 4 0 9 0;
#X connect 6 0 3 0;
#X connect 6 1 4 0;
#X connect 6 2 7 0;
#X connect 7 0 4 1;
#X connect 7 0 3 1;
#X connect 8 0 0 1;
#X connect 9 0 0 2;
#X restore 849 347 pd tran-noise;
#X obj 221 113 metro 10;
#X obj 256 14 r gui-noise;
#X msg 288 55 3;
#N canvas 0 22 450 300 keyboard 0;
#X obj 133 -179 r hid;
#X obj 133 -157 t a a;
#X obj 133 -103 spigot;
#X obj 133 -44 sel 1;
#X obj 180 -41 sel 1;
#X obj 227 -38 sel 1;
#X obj 275 -38 sel 1;
#X obj 322 -37 sel 1;
#X obj 166 -132 route key_57;
#X obj 133 1 s \$0-ui1;
#X obj 180 34 s \$0-ui2;
#X obj 227 -8 s \$0-ui3;
#X obj 275 25 s \$0-ui4;
#X obj 322 -4 s \$0-ui5;
#X obj 381 -37 sel 1;
#X obj 133 -76 route key_30 key_31 key_32 key_33 key_34 key_35;
#X obj 381 -4 s \$0-ui6;
#X connect 0 0 1 0;
#X connect 1 0 2 0;
#X connect 1 1 8 0;
#X connect 2 0 15 0;
#X connect 3 0 9 0;
#X connect 4 0 10 0;
#X connect 5 0 11 0;
#X connect 6 0 12 0;
#X connect 7 0 13 0;
#X connect 8 0 2 1;
#X connect 14 0 16 0;
#X connect 15 0 3 0;
#X connect 15 1 4 0;
#X connect 15 2 5 0;
#X connect 15 3 6 0;
#X connect 15 4 7 0;
#X connect 15 5 14 0;
#X restore 335 13 pd keyboard;
#N canvas 653 166 494 644 tran 0;
#X obj 157 63 r \$0-ui1;
#X obj 157 96 f;
#X obj 185 96 + 1;
#X obj 215 96 % 2;
#X obj 157 141 t f f f f;
#X obj 258 41 r x_size;
#X floatatom 258 65 5 0 0 0 - - -;
#X obj 258 91 / 4;
#X floatatom 258 116 5 0 0 0 - - -;
#X obj 157 187 expr $f1*$f2;
#X obj 174 217 expr $f1*0.62;
#X obj 208 323 t f f f;
#X obj 45 475 scaleXYZ 0.079 0.06 1;
#X obj 208 354 expr $f1*0.079;
#X obj 227 379 expr $f1*0.06;
#X obj 208 299 + 1;
#X obj 45 367 inlet;
#X obj 45 509 outlet;
#X floatatom 157 119 5 0 0 0 - - -;
#X obj 45 441 translateXYZ -1.65 0.62 2.99;
#X obj 208 276 invert;
#N canvas 460 314 450 300 line 0;
#X obj 145 74 inlet;
#X obj 145 153 outlet;
#X obj 145 128 line;
#X msg 145 103 \$1 2000;
#X connect 0 0 3 0;
#X connect 2 0 1 0;
#X connect 3 0 2 0;
#X restore 108 316 pd line;
#N canvas 460 314 450 300 line 0;
#X obj 145 74 inlet;
#X obj 145 153 outlet;
#X obj 145 128 line;
#X msg 145 103 \$1 2000;
#X connect 0 0 3 0;
#X connect 2 0 1 0;
#X connect 3 0 2 0;
#X restore 174 240 pd line;
#N canvas 460 314 450 300 line 0;
#X obj 145 74 inlet;
#X obj 145 153 outlet;
#X obj 145 128 line;
#X msg 145 103 \$1 2000;
#X connect 0 0 3 0;
#X connect 2 0 1 0;
#X connect 3 0 2 0;
#X restore 192 402 pd line;
#N canvas 460 314 450 300 line 0;
#X obj 145 74 inlet;
#X obj 145 153 outlet;
#X obj 145 128 line;
#X msg 145 103 \$1 2000;
#X connect 0 0 3 0;
#X connect 2 0 1 0;
#X connect 3 0 2 0;
#X restore 227 424 pd line;
#X msg 96 55 1;
#X obj 258 161 t b f;
#X obj 258 138 * -0.72;
#X connect 0 0 1 0;
#X connect 1 0 2 0;
#X connect 1 0 18 0;
#X connect 2 0 3 0;
#X connect 3 0 1 1;
#X connect 4 0 9 0;
#X connect 4 1 10 0;
#X connect 4 3 20 0;
#X connect 5 0 6 0;
#X connect 6 0 7 0;
#X connect 7 0 8 0;
#X connect 8 0 27 0;
#X connect 9 0 21 0;
#X connect 10 0 22 0;
#X connect 11 0 13 0;
#X connect 11 1 14 0;
#X connect 12 0 17 0;
#X connect 13 0 23 0;
#X connect 14 0 24 0;
#X connect 15 0 11 0;
#X connect 16 0 19 0;
#X connect 18 0 4 0;
#X connect 19 0 12 0;
#X connect 20 0 15 0;
#X connect 21 0 19 1;
#X connect 22 0 19 2;
#X connect 23 0 12 1;
#X connect 24 0 12 2;
#X connect 25 0 1 0;
#X connect 26 0 25 0;
#X connect 26 1 9 1;
#X connect 27 0 26 0;
#X restore 87 384 pd tran;
#N canvas 24 122 494 644 tran 0;
#X obj 157 96 f;
#X obj 185 96 + 1;
#X obj 215 96 % 2;
#X obj 157 141 t f f f f;
#X obj 258 41 r x_size;
#X floatatom 258 65 5 0 0 0 - - -;
#X obj 258 91 / 4;
#X floatatom 258 116 5 0 0 0 - - -;
#X obj 157 187 expr $f1*$f2;
#X obj 208 323 t f f f;
#X obj 45 476 scaleXYZ 0.079 0.06 1;
#X obj 208 354 expr $f1*0.079;
#X obj 227 379 expr $f1*0.06;
#X obj 208 299 + 1;
#X obj 45 367 inlet;
#X obj 45 509 outlet;
#X floatatom 157 119 5 0 0 0 - - -;
#X obj 45 441 translateXYZ -1.65 0.62 2.99;
#X obj 208 276 invert;
#N canvas 460 314 450 300 line 0;
#X obj 145 74 inlet;
#X obj 145 153 outlet;
#X obj 145 128 line;
#X msg 145 103 \$1 2000;
#X connect 0 0 3 0;
#X connect 2 0 1 0;
#X connect 3 0 2 0;
#X restore 108 316 pd line;
#N canvas 460 314 450 300 line 0;
#X obj 145 74 inlet;
#X obj 145 153 outlet;
#X obj 145 128 line;
#X msg 145 103 \$1 2000;
#X connect 0 0 3 0;
#X connect 2 0 1 0;
#X connect 3 0 2 0;
#X restore 174 240 pd line;
#N canvas 460 314 450 300 line 0;
#X obj 145 74 inlet;
#X obj 145 153 outlet;
#X obj 145 128 line;
#X msg 145 103 \$1 2000;
#X connect 0 0 3 0;
#X connect 2 0 1 0;
#X connect 3 0 2 0;
#X restore 192 402 pd line;
#N canvas 460 314 450 300 line 0;
#X obj 145 74 inlet;
#X obj 145 153 outlet;
#X obj 145 128 line;
#X msg 145 103 \$1 2000;
#X connect 0 0 3 0;
#X connect 2 0 1 0;
#X connect 3 0 2 0;
#X restore 227 424 pd line;
#X obj 174 217 expr $f1*-0.03;
#X obj 157 63 r \$0-ui2;
#X msg 87 64 1;
#X obj 258 164 t b f;
#X obj 258 138 * -0.72;
#X connect 0 0 1 0;
#X connect 0 0 16 0;
#X connect 1 0 2 0;
#X connect 2 0 0 1;
#X connect 3 0 8 0;
#X connect 3 1 23 0;
#X connect 3 3 18 0;
#X connect 4 0 5 0;
#X connect 5 0 6 0;
#X connect 6 0 7 0;
#X connect 7 0 27 0;
#X connect 8 0 19 0;
#X connect 9 0 11 0;
#X connect 9 1 12 0;
#X connect 10 0 15 0;
#X connect 11 0 21 0;
#X connect 12 0 22 0;
#X connect 13 0 9 0;
#X connect 14 0 17 0;
#X connect 16 0 3 0;
#X connect 17 0 10 0;
#X connect 18 0 13 0;
#X connect 19 0 17 1;
#X connect 20 0 17 2;
#X connect 21 0 10 1;
#X connect 22 0 10 2;
#X connect 23 0 20 0;
#X connect 24 0 0 0;
#X connect 25 0 0 0;
#X connect 26 0 25 0;
#X connect 26 1 8 1;
#X connect 27 0 26 0;
#X restore 208 377 pd tran;
#N canvas 597 267 450 300 head 0;
#X obj 244 245 outlet;
#X obj 156 238 outlet;
#X obj 189 42 sel 0 1;
#X obj 189 14 r \$0-u1;
#X obj 157 86 t b b;
#X obj 156 204 line;
#X msg 239 89 1;
#X obj 239 66 t b b;
#X msg 211 200 0;
#X msg 169 147 1 1500;
#X msg 157 175 0 1500;
#X obj 184 110 del 1500;
#X connect 2 0 4 0;
#X connect 2 1 7 0;
#X connect 3 0 2 0;
#X connect 4 0 10 0;
#X connect 4 1 11 0;
#X connect 5 0 1 0;
#X connect 6 0 0 0;
#X connect 7 0 6 0;
#X connect 7 1 9 0;
#X connect 8 0 0 0;
#X connect 9 0 5 0;
#X connect 10 0 5 0;
#X connect 11 0 8 0;
#X restore 48 281 pd head;
#N canvas 56 132 450 300 head 0;
#X obj 273 227 outlet;
#X obj 140 215 outlet;
#X obj 212 33 sel 0 1;
#X obj 180 77 t b b;
#X obj 140 190 line;
#X msg 262 80 1;
#X obj 262 57 t b b;
#X obj 212 5 r \$0-u2;
#X msg 227 130 0;
#X obj 207 101 del 1500;
#X msg 185 164 1 1500;
#X msg 141 161 0 1500;
#X connect 2 0 3 0;
#X connect 2 1 6 0;
#X connect 3 0 11 0;
#X connect 3 1 9 0;
#X connect 4 0 1 0;
#X connect 5 0 0 0;
#X connect 6 0 5 0;
#X connect 6 1 10 0;
#X connect 7 0 2 0;
#X connect 8 0 0 0;
#X connect 9 0 8 0;
#X connect 10 0 4 0;
#X connect 11 0 4 0;
#X restore 169 272 pd head;
#N canvas 782 168 450 300 head 0;
#X obj 176 37 sel 0 1;
#X obj 144 77 t b b;
#X obj 143 195 line;
#X msg 226 80 1;
#X obj 226 57 t b b;
#X obj 176 9 r \$0-u3;
#X msg 200 140 0;
#X obj 143 235 outlet;
#X obj 221 203 outlet;
#X obj 171 101 del 1500;
#X msg 156 138 1 1500;
#X msg 144 166 0 1500;
#X connect 0 0 1 0;
#X connect 0 1 4 0;
#X connect 1 0 11 0;
#X connect 1 1 9 0;
#X connect 2 0 7 0;
#X connect 3 0 8 0;
#X connect 4 0 3 0;
#X connect 4 1 10 0;
#X connect 5 0 0 0;
#X connect 6 0 8 0;
#X connect 9 0 6 0;
#X connect 10 0 2 0;
#X connect 11 0 2 0;
#X restore 287 270 pd head;
#N canvas 0 22 450 300 color 0;
#X obj 168 69 inlet;
#X obj 168 218 outlet;
#X obj 322 58 inlet;
#X obj 273 121 * 0.8;
#X obj 168 167 alpha;
#X obj 207 169 tgl 15 0 empty empty empty 17 7 0 10 -262144 -1 -1 1
1;
#X obj 168 144 colorRGB 1 1 1 0.8;
#X obj 228 168 loadbang;
#X connect 0 0 6 0;
#X connect 2 0 3 0;
#X connect 3 0 6 4;
#X connect 4 0 1 0;
#X connect 5 0 4 1;
#X connect 6 0 4 0;
#X connect 7 0 5 0;
#X restore 326 454 pd color;
#N canvas 643 48 494 644 tran 0;
#X obj 157 96 f;
#X obj 185 96 + 1;
#X obj 215 96 % 2;
#X obj 157 141 t f f f f;
#X obj 242 23 r x_size;
#X floatatom 242 47 5 0 0 0 - - -;
#X obj 242 73 / 4;
#X floatatom 242 98 5 0 0 0 - - -;
#X obj 157 187 expr $f1*$f2;
#X obj 208 323 t f f f;
#X obj 208 299 + 1;
#X obj 45 367 inlet;
#X obj 45 509 outlet;
#X floatatom 157 119 5 0 0 0 - - -;
#X obj 45 441 translateXYZ -1.65 0.62 2.99;
#X obj 208 276 invert;
#N canvas 460 314 450 300 line 0;
#X obj 145 74 inlet;
#X obj 145 153 outlet;
#X obj 145 128 line;
#X msg 145 103 \$1 2000;
#X connect 0 0 3 0;
#X connect 2 0 1 0;
#X connect 3 0 2 0;
#X restore 108 316 pd line;
#N canvas 460 314 450 300 line 0;
#X obj 145 74 inlet;
#X obj 145 153 outlet;
#X obj 145 128 line;
#X msg 145 103 \$1 2000;
#X connect 0 0 3 0;
#X connect 2 0 1 0;
#X connect 3 0 2 0;
#X restore 174 240 pd line;
#N canvas 460 314 450 300 line 0;
#X obj 145 74 inlet;
#X obj 145 153 outlet;
#X obj 145 128 line;
#X msg 145 103 \$1 2000;
#X connect 0 0 3 0;
#X connect 2 0 1 0;
#X connect 3 0 2 0;
#X restore 208 382 pd line;
#X obj 174 217 expr $f1*-0.66;
#X obj 157 63 r \$0-ui3;
#X obj 45 476 scaleXYZ 0.08 0.08 1;
#X floatatom 119 519 5 0 0 0 - - -;
#X floatatom 171 520 5 0 0 0 - - -;
#N canvas 460 314 450 300 line 0;
#X obj 145 74 inlet;
#X obj 145 153 outlet;
#X obj 145 128 line;
#X msg 145 103 \$1 2000;
#X connect 0 0 3 0;
#X connect 2 0 1 0;
#X connect 3 0 2 0;
#X restore 267 410 pd line;
#X obj 208 354 expr $f1*0.08;
#X obj 267 382 expr $f1*0.0785;
#X msg 85 67 1;
#X obj 242 143 t b f;
#X obj 242 120 * -0.72;
#X connect 0 0 1 0;
#X connect 0 0 13 0;
#X connect 1 0 2 0;
#X connect 2 0 0 1;
#X connect 3 0 8 0;
#X connect 3 1 19 0;
#X connect 3 3 15 0;
#X connect 4 0 5 0;
#X connect 5 0 6 0;
#X connect 6 0 7 0;
#X connect 7 0 29 0;
#X connect 8 0 16 0;
#X connect 9 0 25 0;
#X connect 9 1 26 0;
#X connect 10 0 9 0;
#X connect 11 0 14 0;
#X connect 13 0 3 0;
#X connect 14 0 21 0;
#X connect 15 0 10 0;
#X connect 16 0 14 1;
#X connect 17 0 14 2;
#X connect 18 0 21 1;
#X connect 19 0 17 0;
#X connect 20 0 0 0;
#X connect 21 0 12 0;
#X connect 22 0 21 1;
#X connect 23 0 21 2;
#X connect 24 0 21 2;
#X connect 25 0 18 0;
#X connect 26 0 24 0;
#X connect 27 0 0 0;
#X connect 28 0 27 0;
#X connect 28 1 8 1;
#X connect 29 0 28 0;
#X restore 326 421 pd tran;
#N canvas 0 22 450 300 head 0;
#X obj 176 37 sel 0 1;
#X obj 144 77 t b b;
#X obj 143 195 line;
#X msg 226 80 1;
#X obj 226 57 t b b;
#X msg 200 140 0;
#X obj 143 235 outlet;
#X obj 221 203 outlet;
#X obj 176 9 r \$0-u4;
#X obj 171 101 del 1500;
#X msg 156 137 1 1500;
#X msg 144 166 0 1500;
#X connect 0 0 1 0;
#X connect 0 1 4 0;
#X connect 1 0 11 0;
#X connect 1 1 9 0;
#X connect 2 0 6 0;
#X connect 3 0 7 0;
#X connect 4 0 3 0;
#X connect 4 1 10 0;
#X connect 5 0 7 0;
#X connect 8 0 0 0;
#X connect 9 0 5 0;
#X connect 10 0 2 0;
#X connect 11 0 2 0;
#X restore 453 270 pd head;
#N canvas 643 48 494 644 tran 0;
#X obj 157 96 f;
#X obj 185 96 + 1;
#X obj 215 96 % 2;
#X obj 157 141 t f f f f;
#X obj 258 41 r x_size;
#X floatatom 258 65 5 0 0 0 - - -;
#X obj 258 91 / 4;
#X floatatom 258 116 5 0 0 0 - - -;
#X obj 157 187 expr $f1*$f2;
#X obj 208 323 t f f f;
#X obj 208 299 + 1;
#X obj 45 367 inlet;
#X obj 45 509 outlet;
#X floatatom 157 119 5 0 0 0 - - -;
#X obj 45 441 translateXYZ -1.65 0.62 2.99;
#X obj 208 276 invert;
#N canvas 460 314 450 300 line 0;
#X obj 145 74 inlet;
#X obj 145 153 outlet;
#X obj 145 128 line;
#X msg 145 103 \$1 2000;
#X connect 0 0 3 0;
#X connect 2 0 1 0;
#X connect 3 0 2 0;
#X restore 108 316 pd line;
#N canvas 460 314 450 300 line 0;
#X obj 145 74 inlet;
#X obj 145 153 outlet;
#X obj 145 128 line;
#X msg 145 103 \$1 2000;
#X connect 0 0 3 0;
#X connect 2 0 1 0;
#X connect 3 0 2 0;
#X restore 174 240 pd line;
#N canvas 460 314 450 300 line 0;
#X obj 145 74 inlet;
#X obj 145 153 outlet;
#X obj 145 128 line;
#X msg 145 103 \$1 2000;
#X connect 0 0 3 0;
#X connect 2 0 1 0;
#X connect 3 0 2 0;
#X restore 208 382 pd line;
#X obj 208 354 expr $f1*0.08;
#X obj 157 63 r \$0-ui4;
#X obj 45 474 scaleXYZ 0.079 0.06 1;
#N canvas 460 314 450 300 line 0;
#X obj 145 74 inlet;
#X obj 145 153 outlet;
#X obj 145 128 line;
#X msg 145 102 \$1 2000;
#X connect 0 0 3 0;
#X connect 2 0 1 0;
#X connect 3 0 2 0;
#X restore 265 429 pd line;
#X msg 103 45 1;
#X obj 258 160 t b f;
#X obj 265 384 expr $f1*0.08;
#X obj 258 138 * 0.72;
#X obj 174 216 expr $f1*-0.7;
#X connect 0 0 1 0;
#X connect 0 0 13 0;
#X connect 1 0 2 0;
#X connect 2 0 0 1;
#X connect 3 0 8 0;
#X connect 3 1 27 0;
#X connect 3 3 15 0;
#X connect 4 0 5 0;
#X connect 5 0 6 0;
#X connect 6 0 7 0;
#X connect 7 0 26 0;
#X connect 8 0 16 0;
#X connect 9 0 19 0;
#X connect 9 1 25 0;
#X connect 10 0 9 0;
#X connect 11 0 14 0;
#X connect 13 0 3 0;
#X connect 14 0 21 0;
#X connect 15 0 10 0;
#X connect 16 0 14 1;
#X connect 17 0 14 2;
#X connect 18 0 21 1;
#X connect 19 0 18 0;
#X connect 20 0 0 0;
#X connect 21 0 12 0;
#X connect 22 0 21 2;
#X connect 23 0 0 0;
#X connect 24 0 23 0;
#X connect 24 1 8 1;
#X connect 25 0 22 0;
#X connect 26 0 24 0;
#X connect 27 0 17 0;
#X restore 492 376 pd tran;
#N canvas 0 22 450 300 head 0;
#X obj 176 37 sel 0 1;
#X obj 144 77 t b b;
#X obj 143 195 line;
#X msg 226 80 1;
#X obj 226 57 t b b;
#X msg 200 140 0;
#X obj 143 235 outlet;
#X obj 221 203 outlet;
#X obj 171 101 del 1500;
#X msg 156 138 1 1500;
#X msg 144 166 0 1500;
#X obj 176 9 r \$0-u6;
#X connect 0 0 1 0;
#X connect 0 1 4 0;
#X connect 1 0 10 0;
#X connect 1 1 8 0;
#X connect 2 0 6 0;
#X connect 3 0 7 0;
#X connect 4 0 3 0;
#X connect 4 1 9 0;
#X connect 5 0 7 0;
#X connect 8 0 5 0;
#X connect 9 0 2 0;
#X connect 10 0 2 0;
#X connect 11 0 0 0;
#X restore 810 272 pd head;
#X obj 143 129 hsl 40 15 0.001 4 0 0 empty empty NOISE 5 8 0 10 -262144
-1 -1 0 1;
#X obj 355 188 outlet~;
#X obj 408 189 outlet~;
#X obj 336 41 netreceive~ 10001 4;
#X obj 342 251 k_framebuffer;
#X obj 87 307 gemhead -1;
#X obj 208 308 gemhead -1;
#X obj 326 304 gemhead -1;
#X obj 492 296 gemhead -1;
#X obj 849 297 gemhead -1;
#X obj 324 -63 spigot~;
#X obj 346 -40 spigot~;
#X obj 141 108 tgl 15 0 empty empty mic-tgl 17 7 0 10 -262144 -1 -1
0 1;
#X obj 325 -101 adc~;
#X obj 849 375 translateXYZ 0 -0.825 2.99;
#X obj 492 473 ui_4 0 0 0 0;
#X obj 849 476 ui_6 0 0 0 0;
#X obj 664 320 t a b;
#N canvas 92 312 450 300 tran-noise 0;
#X obj 59 185 translateXYZ 0 0 0;
#X obj 120 53 inlet;
#X obj 54 51 inlet;
#X obj 120 105 randomF;
#X obj 176 103 randomF;
#X obj 58 228 outlet;
#X obj 120 76 t b b b;
#X obj 202 52 v \$0-noise;
#X obj 120 136 / 30;
#X obj 175 137 / 30;
#X connect 0 0 5 0;
#X connect 1 0 6 0;
#X connect 2 0 0 0;
#X connect 3 0 8 0;
#X connect 4 0 9 0;
#X connect 6 0 3 0;
#X connect 6 1 4 0;
#X connect 6 2 7 0;
#X connect 7 0 4 1;
#X connect 7 0 3 1;
#X connect 8 0 0 1;
#X connect 9 0 0 2;
#X restore 664 344 pd tran-noise;
#N canvas 606 379 450 300 head 0;
#X obj 176 37 sel 0 1;
#X obj 144 77 t b b;
#X obj 143 195 line;
#X msg 226 80 1;
#X obj 226 57 t b b;
#X msg 200 140 0;
#X obj 143 235 outlet;
#X obj 221 203 outlet;
#X obj 171 101 del 1500;
#X msg 156 137 1 1500;
#X msg 144 166 0 1500;
#X obj 176 9 r \$0-u5;
#X connect 0 0 1 0;
#X connect 0 1 4 0;
#X connect 1 0 10 0;
#X connect 1 1 8 0;
#X connect 2 0 6 0;
#X connect 3 0 7 0;
#X connect 4 0 3 0;
#X connect 4 1 9 0;
#X connect 5 0 7 0;
#X connect 8 0 5 0;
#X connect 9 0 2 0;
#X connect 10 0 2 0;
#X connect 11 0 0 0;
#X restore 625 266 pd head;
#N canvas 906 107 494 644 tran 0;
#X obj 157 96 f;
#X obj 185 96 + 1;
#X obj 215 96 % 2;
#X obj 157 141 t f f f f;
#X obj 258 41 r x_size;
#X floatatom 258 65 5 0 0 0 - - -;
#X obj 258 91 / 4;
#X floatatom 258 116 5 0 0 0 - - -;
#X obj 157 187 expr $f1*$f2;
#X obj 208 323 t f f f;
#X obj 208 299 + 1;
#X obj 45 367 inlet;
#X obj 45 509 outlet;
#X floatatom 157 119 5 0 0 0 - - -;
#X obj 45 441 translateXYZ -1.65 0.62 2.99;
#X obj 208 276 invert;
#N canvas 460 314 450 300 line 0;
#X obj 145 74 inlet;
#X obj 145 153 outlet;
#X obj 145 128 line;
#X msg 145 103 \$1 2000;
#X connect 0 0 3 0;
#X connect 2 0 1 0;
#X connect 3 0 2 0;
#X restore 108 316 pd line;
#N canvas 460 314 450 300 line 0;
#X obj 145 74 inlet;
#X obj 145 153 outlet;
#X obj 145 128 line;
#X msg 145 103 \$1 2000;
#X connect 0 0 3 0;
#X connect 2 0 1 0;
#X connect 3 0 2 0;
#X restore 174 240 pd line;
#N canvas 460 314 450 300 line 0;
#X obj 145 74 inlet;
#X obj 145 153 outlet;
#X obj 145 128 line;
#X msg 145 103 \$1 2000;
#X connect 0 0 3 0;
#X connect 2 0 1 0;
#X connect 3 0 2 0;
#X restore 208 382 pd line;
#X obj 208 354 expr $f1*0.08;
#X obj 45 474 scaleXYZ 0.079 0.06 1;
#N canvas 460 314 450 300 line 0;
#X obj 145 74 inlet;
#X obj 145 153 outlet;
#X obj 145 128 line;
#X msg 145 102 \$1 2000;
#X connect 0 0 3 0;
#X connect 2 0 1 0;
#X connect 3 0 2 0;
#X restore 265 429 pd line;
#X msg 103 45 1;
#X obj 258 160 t b f;
#X obj 265 384 expr $f1*0.08;
#X obj 258 138 * 0.72;
#X obj 157 63 r \$0-ui5;
#X obj 174 216 expr $f1*-0.001;
#X connect 0 0 1 0;
#X connect 0 0 13 0;
#X connect 1 0 2 0;
#X connect 2 0 0 1;
#X connect 3 0 8 0;
#X connect 3 1 27 0;
#X connect 3 3 15 0;
#X connect 4 0 5 0;
#X connect 5 0 6 0;
#X connect 6 0 7 0;
#X connect 7 0 25 0;
#X connect 8 0 16 0;
#X connect 9 0 19 0;
#X connect 9 1 24 0;
#X connect 10 0 9 0;
#X connect 11 0 14 0;
#X connect 13 0 3 0;
#X connect 14 0 20 0;
#X connect 15 0 10 0;
#X connect 16 0 14 1;
#X connect 17 0 14 2;
#X connect 18 0 20 1;
#X connect 19 0 18 0;
#X connect 20 0 12 0;
#X connect 21 0 20 2;
#X connect 22 0 0 0;
#X connect 23 0 22 0;
#X connect 23 1 8 1;
#X connect 24 0 21 0;
#X connect 25 0 23 0;
#X connect 26 0 0 0;
#X connect 27 0 17 0;
#X restore 664 372 pd tran;
#X obj 664 469 ui_5 0 0 0 0;
#X obj 160 148 tgl 15 0 empty empty 6 5 7 0 10 -262144 -1 -1 0 1;
#X obj 102 247 s \$0-u6;
#X obj 13 -31 route key_30 key_31 key_32 key_33 key_34 key_35;
#X obj 245 -7 sel 1;
#X obj 664 292 gemhead -1;
#X obj 490 159 s~ l1;
#X obj 557 159 s~ r1;
#X obj 108 403 r~ l1;
#X obj 519 442 r~ l1;
#X obj 698 446 r~ l1;
#X obj 895 451 r~ l1;
#X obj 229 400 r~ r1;
#X obj 533 418 r~ r1;
#X obj 712 422 r~ r1;
#X obj 918 429 r~ r1;
#X connect 1 0 57 0;
#X connect 3 0 7 0;
#X connect 4 0 8 0;
#X connect 5 0 9 0;
#X connect 6 0 10 0;
#X connect 13 0 14 0;
#X connect 15 0 77 0;
#X connect 17 0 19 0;
#X connect 18 0 3 0;
#X connect 18 1 4 0;
#X connect 18 2 5 0;
#X connect 18 3 6 0;
#X connect 18 4 13 0;
#X connect 19 0 18 0;
#X connect 20 0 22 0;
#X connect 21 0 23 1;
#X connect 22 0 23 0;
#X connect 22 1 21 0;
#X connect 23 0 85 0;
#X connect 24 0 3 0;
#X connect 25 0 4 0;
#X connect 26 0 5 0;
#X connect 27 0 6 0;
#X connect 28 0 13 0;
#X connect 29 0 47 0;
#X connect 30 0 29 0;
#X connect 31 0 37 0;
#X connect 31 1 38 0;
#X connect 32 0 61 0;
#X connect 33 0 37 0;
#X connect 35 0 36 0;
#X connect 35 1 36 1;
#X connect 36 0 51 0;
#X connect 37 0 34 0;
#X connect 38 0 32 0;
#X connect 39 0 40 0;
#X connect 39 1 40 1;
#X connect 40 0 52 0;
#X connect 41 0 42 0;
#X connect 41 1 42 1;
#X connect 42 0 1 0;
#X connect 43 0 44 0;
#X connect 43 1 44 1;
#X connect 44 0 59 0;
#X connect 45 0 46 0;
#X connect 45 1 46 1;
#X connect 46 0 75 0;
#X connect 47 0 31 0;
#X connect 48 0 49 0;
#X connect 49 0 61 0;
#X connect 51 0 11 0;
#X connect 52 0 12 0;
#X connect 53 0 11 1;
#X connect 53 1 66 0;
#X connect 54 0 12 1;
#X connect 54 1 67 0;
#X connect 55 0 56 1;
#X connect 55 1 68 0;
#X connect 56 0 16 0;
#X connect 57 0 56 0;
#X connect 58 0 76 1;
#X connect 58 1 69 0;
#X connect 59 0 76 0;
#X connect 60 0 77 1;
#X connect 60 1 70 0;
#X connect 61 0 33 0;
#X connect 64 0 62 0;
#X connect 64 0 88 0;
#X connect 64 1 63 0;
#X connect 64 1 89 0;
#X connect 65 0 2 0;
#X connect 65 1 1 1;
#X connect 66 0 35 0;
#X connect 67 0 39 0;
#X connect 68 0 41 0;
#X connect 69 0 43 0;
#X connect 70 0 45 0;
#X connect 71 1 62 0;
#X connect 71 1 88 0;
#X connect 72 1 63 0;
#X connect 72 1 89 0;
#X connect 73 0 71 1;
#X connect 73 0 72 1;
#X connect 74 0 71 0;
#X connect 74 1 72 0;
#X connect 75 0 15 0;
#X connect 78 0 79 0;
#X connect 78 1 79 1;
#X connect 79 0 81 0;
#X connect 80 1 87 0;
#X connect 81 0 82 0;
#X connect 83 0 84 0;
#X connect 85 0 24 0;
#X connect 85 1 25 0;
#X connect 85 2 26 0;
#X connect 85 3 27 0;
#X connect 85 4 28 0;
#X connect 85 5 86 0;
#X connect 86 0 83 0;
#X connect 87 0 78 0;
#X connect 90 0 11 2;
#X connect 91 0 76 2;
#X connect 92 0 82 1;
#X connect 93 0 77 2;
#X connect 94 0 12 2;
#X connect 95 0 76 3;
#X connect 96 0 82 2;
#X connect 97 0 77 3;
#X coords 0 -1 1 1 110 70 1 100 100;
