#N canvas 563 23 746 738 10;
#X obj 101 101 cnv 15 108 68 empty empty k_ui 5 12 0 14 -195837 -66577
0;
#X obj 376 409 pix_texture;
#X obj 364 276 ui_3;
#X obj 123 129 tgl 15 0 empty empty 1 5 7 0 10 -262144 -1 -1 0 1;
#X obj 104 148 tgl 15 0 empty empty 2 5 7 0 10 -262144 -1 -1 0 1;
#X obj 123 148 tgl 15 0 empty empty 3 5 7 0 10 -262144 -1 -1 0 1;
#X obj 140 148 tgl 15 0 empty empty 4 5 7 0 10 -262144 -1 -1 0 1;
#X obj 82 205 s \$0-u1;
#X obj 82 227 s \$0-u2;
#X obj 82 247 s \$0-u3;
#X obj 82 269 s \$0-u4;
#X obj 385 83 ui_1;
#X obj 364 225 ui_2;
#X obj 159 148 tgl 15 0 empty empty 5 5 7 0 10 -262144 -1 -1 0 1;
#X obj 82 289 s \$0-u5;
#X obj -58 -169 r hid;
#X obj -25 -122 route key_225;
#X obj -58 -147 t a a;
#X obj -58 -93 spigot;
#X obj -58 -34 sel 1;
#X obj -11 -34 sel 1;
#X obj 36 -33 sel 1;
#X obj 84 -32 sel 1;
#X obj 131 -32 sel 1;
#X obj 258 170 tgl 15 0 empty empty empty 17 7 0 10 -262144 -1 -1 0
1;
#X obj 258 143 loadbang;
#X obj 258 222 t b b;
#X obj 285 272 - 0.005;
#X obj 385 -32 t a b;
#N canvas 92 312 450 300 tran-noise 0;
#X obj 59 185 translateXYZ 0 0 0;
#X obj 120 53 inlet;
#X obj 54 51 inlet;
#X obj 120 105 randomF;
#X obj 176 103 randomF;
#X obj 58 228 outlet;
#X obj 120 76 t b b b;
#X obj 202 52 v \$0-noise;
#X obj 120 136 / 30;
#X obj 175 137 / 30;
#X connect 0 0 5 0;
#X connect 1 0 6 0;
#X connect 2 0 0 0;
#X connect 3 0 8 0;
#X connect 4 0 9 0;
#X connect 6 0 3 0;
#X connect 6 1 4 0;
#X connect 6 2 7 0;
#X connect 7 0 4 1;
#X connect 7 0 3 1;
#X connect 8 0 0 1;
#X connect 9 0 0 2;
#X restore 385 -8 pd tran-noise;
#X obj 185 259 v \$0-noise;
#X obj 364 133 t a b;
#N canvas 92 312 450 300 tran-noise 0;
#X obj 59 185 translateXYZ 0 0 0;
#X obj 120 53 inlet;
#X obj 54 51 inlet;
#X obj 120 105 randomF;
#X obj 176 103 randomF;
#X obj 58 228 outlet;
#X obj 120 76 t b b b;
#X obj 202 52 v \$0-noise;
#X obj 120 136 / 30;
#X obj 175 137 / 30;
#X connect 0 0 5 0;
#X connect 1 0 6 0;
#X connect 2 0 0 0;
#X connect 3 0 8 0;
#X connect 4 0 9 0;
#X connect 6 0 3 0;
#X connect 6 1 4 0;
#X connect 6 2 7 0;
#X connect 7 0 4 1;
#X connect 7 0 3 1;
#X connect 8 0 0 1;
#X connect 9 0 0 2;
#X restore 364 157 pd tran-noise;
#X obj 376 356 t a b;
#N canvas 92 312 450 300 tran-noise 0;
#X obj 59 185 translateXYZ 0 0 0;
#X obj 120 53 inlet;
#X obj 54 51 inlet;
#X obj 120 105 randomF;
#X obj 176 103 randomF;
#X obj 58 228 outlet;
#X obj 120 76 t b b b;
#X obj 202 52 v \$0-noise;
#X obj 120 136 / 30;
#X obj 175 137 / 30;
#X connect 0 0 5 0;
#X connect 1 0 6 0;
#X connect 2 0 0 0;
#X connect 3 0 8 0;
#X connect 4 0 9 0;
#X connect 6 0 3 0;
#X connect 6 1 4 0;
#X connect 6 2 7 0;
#X connect 7 0 4 1;
#X connect 7 0 3 1;
#X connect 8 0 0 1;
#X connect 9 0 0 2;
#X restore 376 380 pd tran-noise;
#X obj 546 -3 t a b;
#N canvas 92 312 450 300 tran-noise 0;
#X obj 59 185 translateXYZ 0 0 0;
#X obj 120 53 inlet;
#X obj 54 51 inlet;
#X obj 120 105 randomF;
#X obj 176 103 randomF;
#X obj 58 228 outlet;
#X obj 120 76 t b b b;
#X obj 202 52 v \$0-noise;
#X obj 120 136 / 30;
#X obj 175 137 / 30;
#X connect 0 0 5 0;
#X connect 1 0 6 0;
#X connect 2 0 0 0;
#X connect 3 0 8 0;
#X connect 4 0 9 0;
#X connect 6 0 3 0;
#X connect 6 1 4 0;
#X connect 6 2 7 0;
#X connect 7 0 4 1;
#X connect 7 0 3 1;
#X connect 8 0 0 1;
#X connect 9 0 0 2;
#X restore 546 21 pd tran-noise;
#X obj 527 372 t a b;
#N canvas 92 312 450 300 tran-noise 0;
#X obj 59 185 translateXYZ 0 0 0;
#X obj 120 53 inlet;
#X obj 54 51 inlet;
#X obj 120 105 randomF;
#X obj 176 103 randomF;
#X obj 58 228 outlet;
#X obj 120 76 t b b b;
#X obj 202 52 v \$0-noise;
#X obj 120 136 / 30;
#X obj 175 137 / 30;
#X connect 0 0 5 0;
#X connect 1 0 6 0;
#X connect 2 0 0 0;
#X connect 3 0 8 0;
#X connect 4 0 9 0;
#X connect 6 0 3 0;
#X connect 6 1 4 0;
#X connect 6 2 7 0;
#X connect 7 0 4 1;
#X connect 7 0 3 1;
#X connect 8 0 0 1;
#X connect 9 0 0 2;
#X restore 527 396 pd tran-noise;
#X obj 258 196 metro 10;
#X obj 185 19 r gui-noise;
#X msg 185 70 3;
#N canvas 383 463 599 273 keyboard 0;
#X obj 133 -179 r hid;
#X obj 133 -157 t a a;
#X obj 133 -103 spigot;
#X obj 133 -44 sel 1;
#X obj 180 -41 sel 1;
#X obj 227 -38 sel 1;
#X obj 275 -38 sel 1;
#X obj 322 -37 sel 1;
#X obj 166 -132 route key_57;
#X obj 133 1 s \$0-ui1;
#X obj 180 34 s \$0-ui2;
#X obj 227 -8 s \$0-ui3;
#X obj 275 25 s \$0-ui4;
#X obj 322 -4 s \$0-ui5;
#X obj 381 -37 sel 1;
#X obj 133 -76 route key_30 key_31 key_32 key_33 key_34 key_35;
#X obj 381 -4 s \$0-ui6;
#X obj 254 -205 r touchosc;
#X obj 254 -181 routeOSC /gemctl;
#X obj 254 -150 route /23 /25 /27 /29 /31 /33 35;
#X obj 75 22 s \$0-ui0;
#X obj 83 -32 sel 1;
#X obj 250 -127 invert;
#X obj 258 -107 invert;
#X obj 310 -106 invert;
#X obj 361 -100 invert;
#X obj 292 -127 invert;
#X obj 347 -128 invert;
#X obj 407 -105 invert;
#X connect 0 0 1 0;
#X connect 1 0 2 0;
#X connect 1 1 8 0;
#X connect 2 0 15 0;
#X connect 3 0 9 0;
#X connect 4 0 10 0;
#X connect 5 0 11 0;
#X connect 6 0 12 0;
#X connect 7 0 13 0;
#X connect 8 0 2 1;
#X connect 14 0 16 0;
#X connect 15 0 3 0;
#X connect 15 1 4 0;
#X connect 15 2 5 0;
#X connect 15 3 6 0;
#X connect 15 4 7 0;
#X connect 15 5 14 0;
#X connect 17 0 18 0;
#X connect 18 0 19 0;
#X connect 19 0 22 0;
#X connect 19 1 23 0;
#X connect 19 2 26 0;
#X connect 19 3 24 0;
#X connect 19 4 27 0;
#X connect 19 5 25 0;
#X connect 19 6 28 0;
#X connect 21 0 20 0;
#X connect 22 0 20 0;
#X connect 23 0 9 0;
#X connect 24 0 11 0;
#X connect 25 0 13 0;
#X connect 26 0 10 0;
#X connect 27 0 12 0;
#X connect 28 0 16 0;
#X restore 252 -11 pd keyboard;
#N canvas 597 267 433 399 head 0;
#X obj 244 245 outlet;
#X obj 156 304 outlet;
#X obj 189 42 sel 0 1;
#X obj 189 14 r \$0-u1;
#X obj 157 86 t b b;
#X obj 156 204 line;
#X msg 239 89 1;
#X obj 239 66 t b b;
#X msg 211 200 0;
#X obj 267 194 loadbang;
#X msg 267 214 0;
#X msg 157 175 0 1000;
#X msg 169 147 1 1000;
#X obj 184 110 del 1000;
#X obj 156 241 outback;
#X connect 2 0 4 0;
#X connect 2 1 7 0;
#X connect 3 0 2 0;
#X connect 4 0 11 0;
#X connect 4 1 13 0;
#X connect 5 0 14 0;
#X connect 6 0 0 0;
#X connect 7 0 6 0;
#X connect 7 1 12 0;
#X connect 8 0 0 0;
#X connect 9 0 10 0;
#X connect 10 0 0 0;
#X connect 11 0 5 0;
#X connect 12 0 5 0;
#X connect 13 0 8 0;
#X connect 14 0 1 0;
#X restore 346 -86 pd head;
#N canvas 386 362 450 300 head 0;
#X obj 273 227 outlet;
#X obj 140 235 outlet;
#X obj 212 33 sel 0 1;
#X obj 180 77 t b b;
#X obj 140 190 line;
#X msg 262 80 1;
#X obj 262 57 t b b;
#X obj 212 5 r \$0-u2;
#X msg 227 130 0;
#X obj 293 173 loadbang;
#X msg 293 193 0;
#X obj 207 101 del 1000;
#X msg 185 164 1 1000;
#X msg 141 161 0 1000;
#X obj 140 213 outback;
#X connect 2 0 3 0;
#X connect 2 1 6 0;
#X connect 3 0 13 0;
#X connect 3 1 11 0;
#X connect 4 0 14 0;
#X connect 5 0 0 0;
#X connect 6 0 5 0;
#X connect 6 1 12 0;
#X connect 7 0 2 0;
#X connect 8 0 0 0;
#X connect 9 0 10 0;
#X connect 10 0 0 0;
#X connect 11 0 8 0;
#X connect 12 0 4 0;
#X connect 13 0 4 0;
#X connect 14 0 1 0;
#X restore 325 77 pd head;
#X obj 152 129 hsl 40 15 0.001 4 0 0 empty empty NOISE 5 8 0 10 -262144
-1 -1 0 1;
#X obj 364 249 k_framebuffer;
#X obj 546 122 ui_4 0 0 0 0;
#X obj 527 464 ui_6 0 0 0 0;
#X obj 550 215 t a b;
#N canvas 92 312 450 300 tran-noise 0;
#X obj 59 185 translateXYZ 0 0 0;
#X obj 120 53 inlet;
#X obj 54 51 inlet;
#X obj 120 105 randomF;
#X obj 176 103 randomF;
#X obj 58 228 outlet;
#X obj 120 76 t b b b;
#X obj 202 52 v \$0-noise;
#X obj 120 136 / 30;
#X obj 175 137 / 30;
#X connect 0 0 5 0;
#X connect 1 0 6 0;
#X connect 2 0 0 0;
#X connect 3 0 8 0;
#X connect 4 0 9 0;
#X connect 6 0 3 0;
#X connect 6 1 4 0;
#X connect 6 2 7 0;
#X connect 7 0 4 1;
#X connect 7 0 3 1;
#X connect 8 0 0 1;
#X connect 9 0 0 2;
#X restore 550 239 pd tran-noise;
#N canvas 602 46 494 644 tran 0;
#X obj 157 96 f;
#X obj 185 96 + 1;
#X obj 215 96 % 2;
#X obj 157 141 t f f f f;
#X obj 258 41 r x_size;
#X floatatom 258 65 5 0 0 0 - - -;
#X obj 258 91 / 4;
#X floatatom 258 116 5 0 0 0 - - -;
#X obj 45 367 inlet;
#X obj 45 557 outlet;
#X floatatom 157 119 5 0 0 0 - - -;
#X obj 45 441 translateXYZ -1.65 0.62 2.99;
#N canvas 864 407 450 300 line 0;
#X obj 145 74 inlet;
#X obj 145 240 outlet;
#X obj 257 71 inlet;
#X obj 140 138 k_range 0 1 0 1;
#X connect 0 0 3 0;
#X connect 2 0 3 4;
#X connect 3 0 1 0;
#X restore 108 316 pd line;
#X obj 45 478 scaleXYZ 0.079 0.06 1;
#X msg 103 45 1;
#X obj 258 160 t b f;
#X obj 157 63 r \$0-ui5;
#X obj 15 83 sel 0 1;
#X msg 15 108 1 \, 0 1000;
#X obj 15 131 line;
#X obj 30 175 line;
#X msg 30 152 0 \, 1 1000;
#N canvas 864 407 450 300 line 0;
#X obj 145 74 inlet;
#X obj 145 240 outlet;
#X obj 140 138 k_range 0 1 0 -0.06;
#X connect 0 0 2 0;
#X connect 2 0 1 0;
#X restore 162 240 pd line;
#N canvas 254 470 450 300 line 0;
#X obj 145 74 inlet;
#X obj 145 240 outlet;
#X obj 140 138 k_range 1 0 0.08 0.16;
#X connect 0 0 2 0;
#X connect 2 0 1 0;
#X restore 185 351 pd line;
#N canvas 254 470 450 300 line 0;
#X obj 145 74 inlet;
#X obj 145 240 outlet;
#X obj 140 138 k_range 1 0 0.08 0.16;
#X connect 0 0 2 0;
#X connect 2 0 1 0;
#X restore 268 380 pd line;
#X obj 117 193 inback;
#X obj 138 510 inlet;
#X obj 14 204 inoutback;
#X obj 139 532 * 0.7;
#X obj 45 514 scale 0.7;
#X obj 258 138 * 0.79;
#X connect 0 0 1 0;
#X connect 0 0 10 0;
#X connect 1 0 2 0;
#X connect 2 0 0 1;
#X connect 4 0 5 0;
#X connect 5 0 6 0;
#X connect 6 0 7 0;
#X connect 7 0 30 0;
#X connect 8 0 11 0;
#X connect 10 0 3 0;
#X connect 10 0 17 0;
#X connect 11 0 13 0;
#X connect 12 0 11 1;
#X connect 13 0 29 0;
#X connect 14 0 0 0;
#X connect 15 0 14 0;
#X connect 15 1 12 1;
#X connect 16 0 0 0;
#X connect 17 0 18 0;
#X connect 17 1 21 0;
#X connect 18 0 19 0;
#X connect 19 0 27 0;
#X connect 20 0 25 0;
#X connect 21 0 20 0;
#X connect 22 0 11 2;
#X connect 23 0 13 1;
#X connect 24 0 13 2;
#X connect 25 0 12 0;
#X connect 25 0 22 0;
#X connect 25 0 24 0;
#X connect 25 0 23 0;
#X connect 26 0 28 0;
#X connect 27 0 12 0;
#X connect 27 0 22 0;
#X connect 27 0 23 0;
#X connect 27 0 24 0;
#X connect 28 0 29 1;
#X connect 29 0 9 0;
#X connect 30 0 15 0;
#X restore 550 267 pd tran;
#X obj 550 291 ui_5 0 0 0 0;
#X obj 179 148 tgl 15 0 empty empty 6 5 7 0 10 -262144 -1 -1 0 1;
#X obj 81 312 s \$0-u6;
#X obj 174 -42 sel 1;
#X obj 406 36 r~ l1;
#X obj 592 67 r~ l1;
#X obj 573 439 r~ l1;
#X obj 385 205 r~ r1;
#X obj 615 91 r~ r1;
#X obj 596 417 r~ r1;
#N canvas 604 116 494 644 tran 0;
#X obj 157 96 f;
#X obj 185 96 + 1;
#X obj 215 96 % 2;
#X obj 157 141 t f f f f;
#X obj 258 41 r x_size;
#X floatatom 258 65 5 0 0 0 - - -;
#X obj 258 91 / 4;
#X floatatom 258 116 5 0 0 0 - - -;
#X obj 45 367 inlet;
#X obj 45 549 outlet;
#X floatatom 157 119 5 0 0 0 - - -;
#X obj 45 441 translateXYZ -1.65 0.62 2.99;
#N canvas 864 407 450 300 line 0;
#X obj 145 74 inlet;
#X obj 145 240 outlet;
#X obj 257 71 inlet;
#X obj 140 138 k_range 0 1 0 1;
#X connect 0 0 3 0;
#X connect 2 0 3 4;
#X connect 3 0 1 0;
#X restore 108 316 pd line;
#X obj 45 474 scaleXYZ 0.079 0.06 1;
#X msg 103 45 1;
#X obj 258 160 t b f;
#X obj 15 83 sel 0 1;
#X msg 15 108 1 \, 0 1000;
#X obj 15 131 line;
#X obj 30 175 line;
#X msg 30 152 0 \, 1 1000;
#N canvas 864 407 450 300 line 0;
#X obj 145 74 inlet;
#X obj 145 240 outlet;
#X floatatom 188 176 5 0 0 0 - - -;
#X obj 140 138 k_range 0 1 0 -0.56;
#X connect 0 0 3 0;
#X connect 2 0 1 0;
#X connect 3 0 1 0;
#X restore 162 240 pd line;
#N canvas 254 470 450 300 line 0;
#X obj 145 74 inlet;
#X obj 145 240 outlet;
#X obj 140 138 k_range 1 0 0.08 0.16;
#X connect 0 0 2 0;
#X connect 2 0 1 0;
#X restore 185 351 pd line;
#N canvas 254 470 450 300 line 0;
#X obj 145 74 inlet;
#X obj 145 240 outlet;
#X obj 140 138 k_range 1 0 0.08 0.16;
#X connect 0 0 2 0;
#X connect 2 0 1 0;
#X restore 268 380 pd line;
#X obj 117 193 inback;
#X obj 157 63 r \$0-ui4;
#X obj 117 514 inlet;
#X obj 14 204 inoutback;
#X obj 45 505 scale 0.7;
#X obj 116 539 * 0.7;
#X obj 258 138 * 0.79;
#X connect 0 0 1 0;
#X connect 0 0 10 0;
#X connect 1 0 2 0;
#X connect 2 0 0 1;
#X connect 4 0 5 0;
#X connect 5 0 6 0;
#X connect 6 0 7 0;
#X connect 7 0 30 0;
#X connect 8 0 11 0;
#X connect 10 0 3 0;
#X connect 10 0 16 0;
#X connect 11 0 13 0;
#X connect 12 0 11 1;
#X connect 13 0 28 0;
#X connect 14 0 0 0;
#X connect 15 0 14 0;
#X connect 15 1 12 1;
#X connect 16 0 17 0;
#X connect 16 1 20 0;
#X connect 17 0 18 0;
#X connect 18 0 27 0;
#X connect 19 0 24 0;
#X connect 20 0 19 0;
#X connect 21 0 11 2;
#X connect 22 0 13 1;
#X connect 23 0 13 2;
#X connect 24 0 12 0;
#X connect 24 0 21 0;
#X connect 24 0 23 0;
#X connect 24 0 22 0;
#X connect 25 0 0 0;
#X connect 26 0 29 0;
#X connect 27 0 12 0;
#X connect 27 0 21 0;
#X connect 27 0 22 0;
#X connect 27 0 23 0;
#X connect 28 0 9 0;
#X connect 29 0 28 1;
#X connect 30 0 15 0;
#X restore 546 46 pd tran;
#N canvas 443 144 494 644 tran 0;
#X obj 157 72 f;
#X obj 185 72 + 1;
#X obj 215 72 % 2;
#X obj 157 141 t f f f f;
#X obj 258 41 r x_size;
#X floatatom 258 65 5 0 0 0 - - -;
#X obj 258 91 / 4;
#X floatatom 258 116 5 0 0 0 - - -;
#X obj 45 367 inlet;
#X obj 45 543 outlet;
#X floatatom 157 119 5 0 0 0 - - -;
#X obj 45 441 translateXYZ -1.65 0.62 2.99;
#N canvas 578 460 450 300 line 0;
#X obj 145 74 inlet;
#X obj 145 240 outlet;
#X obj 257 71 inlet;
#X obj 140 138 k_range 0 1 0 1;
#X connect 0 0 3 0;
#X connect 2 0 3 4;
#X connect 3 0 1 0;
#X restore 108 316 pd line;
#X obj 45 474 scaleXYZ 0.079 0.06 1;
#X msg 209 101 1;
#X obj 258 160 t b f;
#X obj 15 83 sel 0 1;
#X msg 15 108 1 \, 0 1000;
#X obj 15 131 line;
#X obj 30 175 line;
#X msg 30 152 0 \, 1 1000;
#N canvas 356 438 450 300 line 0;
#X obj 145 74 inlet;
#X obj 145 240 outlet;
#X obj 140 138 k_range 0 1 0 0.48;
#X connect 0 0 2 0;
#X connect 2 0 1 0;
#X restore 162 240 pd line;
#N canvas 623 426 450 300 line 0;
#X obj 145 74 inlet;
#X obj 145 240 outlet;
#X obj 140 138 k_range 1 0 0.06 0.12;
#X connect 0 0 2 0;
#X connect 2 0 1 0;
#X restore 185 351 pd line;
#N canvas 89 167 450 300 line 0;
#X obj 145 74 inlet;
#X obj 145 240 outlet;
#X obj 140 138 k_range 1 0 0.08 0.16;
#X connect 0 0 2 0;
#X connect 2 0 1 0;
#X restore 268 380 pd line;
#X obj 117 193 inback;
#X obj 157 39 r \$0-ui1;
#X obj 121 374 inlet;
#X obj 14 204 inoutback;
#X obj 45 503 scale 0.7;
#X obj 116 513 * 0.7;
#X floatatom 78 395 5 0 0 0 - - -;
#X obj 258 138 * -0.78;
#X obj 300 102 t b f;
#X floatatom 301 69 5 0 0 0 - - -;
#X floatatom 192 390 5 0 0 0 - - -;
#X connect 0 0 1 0;
#X connect 0 0 10 0;
#X connect 1 0 2 0;
#X connect 2 0 0 1;
#X connect 4 0 5 0;
#X connect 5 0 6 0;
#X connect 6 0 7 0;
#X connect 7 0 31 0;
#X connect 8 0 11 0;
#X connect 10 0 3 0;
#X connect 10 0 16 0;
#X connect 11 0 13 0;
#X connect 12 0 11 1;
#X connect 13 0 28 0;
#X connect 14 0 0 0;
#X connect 15 0 14 0;
#X connect 15 1 12 1;
#X connect 16 0 17 0;
#X connect 16 1 20 0;
#X connect 17 0 18 0;
#X connect 18 0 27 0;
#X connect 19 0 24 0;
#X connect 20 0 19 0;
#X connect 21 0 11 2;
#X connect 22 0 13 2;
#X connect 23 0 13 1;
#X connect 24 0 12 0;
#X connect 24 0 21 0;
#X connect 24 0 23 0;
#X connect 24 0 22 0;
#X connect 25 0 0 0;
#X connect 26 0 29 0;
#X connect 27 0 12 0;
#X connect 27 0 21 0;
#X connect 27 0 22 0;
#X connect 27 0 23 0;
#X connect 28 0 9 0;
#X connect 29 0 28 1;
#X connect 30 0 11 1;
#X connect 31 0 15 0;
#X connect 32 0 7 0;
#X connect 32 1 31 1;
#X connect 33 0 32 0;
#X connect 34 0 11 2;
#X restore 385 14 pd tran;
#N canvas 435 133 494 644 tran 0;
#X obj 157 96 f;
#X obj 185 96 + 1;
#X obj 215 96 % 2;
#X obj 157 141 t f f f f;
#X obj 258 41 r x_size;
#X floatatom 258 65 5 0 0 0 - - -;
#X obj 258 91 / 4;
#X floatatom 258 116 5 0 0 0 - - -;
#X obj 45 367 inlet;
#X obj 45 544 outlet;
#X floatatom 157 119 5 0 0 0 - - -;
#X obj 45 441 translateXYZ -1.65 0.62 2.99;
#N canvas 578 460 450 300 line 0;
#X obj 145 74 inlet;
#X obj 145 240 outlet;
#X obj 257 71 inlet;
#X obj 140 138 k_range 0 1 0 1;
#X connect 0 0 3 0;
#X connect 2 0 3 4;
#X connect 3 0 1 0;
#X restore 108 316 pd line;
#X obj 45 474 scaleXYZ 0.079 0.06 1;
#X msg 103 45 1;
#X obj 258 160 t b f;
#X obj 15 83 sel 0 1;
#X msg 15 108 1 \, 0 1000;
#X obj 15 131 line;
#X obj 30 175 line;
#X msg 30 152 0 \, 1 1000;
#N canvas 356 438 450 300 line 0;
#X obj 145 74 inlet;
#X obj 145 240 outlet;
#X obj 140 138 k_range 0 1 0 -0.03;
#X connect 0 0 2 0;
#X connect 2 0 1 0;
#X restore 162 240 pd line;
#N canvas 623 426 450 300 line 0;
#X obj 145 74 inlet;
#X obj 145 240 outlet;
#X obj 140 138 k_range 1 0 0.06 0.12;
#X connect 0 0 2 0;
#X connect 2 0 1 0;
#X restore 185 351 pd line;
#N canvas 89 167 450 300 line 0;
#X obj 145 74 inlet;
#X obj 145 240 outlet;
#X obj 140 138 k_range 1 0 0.08 0.16;
#X connect 0 0 2 0;
#X connect 2 0 1 0;
#X restore 268 380 pd line;
#X obj 117 193 inback;
#X obj 157 63 r \$0-ui2;
#X obj 100 508 inlet;
#X obj 14 204 inoutback;
#X obj 156 500 * 0.7;
#X obj 45 506 scale 0.7;
#X floatatom 126 396 5 0 0 0 - - -;
#X floatatom 314 81 5 0 0 0 - - -;
#X obj 312 107 t b f;
#X obj 258 138 * -0.78;
#X connect 0 0 1 0;
#X connect 0 0 10 0;
#X connect 1 0 2 0;
#X connect 2 0 0 1;
#X connect 4 0 5 0;
#X connect 5 0 6 0;
#X connect 6 0 7 0;
#X connect 7 0 33 0;
#X connect 8 0 11 0;
#X connect 10 0 3 0;
#X connect 10 0 16 0;
#X connect 11 0 13 0;
#X connect 12 0 11 1;
#X connect 13 0 29 0;
#X connect 14 0 0 0;
#X connect 15 0 14 0;
#X connect 15 1 12 1;
#X connect 16 0 17 0;
#X connect 16 1 20 0;
#X connect 17 0 18 0;
#X connect 18 0 27 0;
#X connect 19 0 24 0;
#X connect 20 0 19 0;
#X connect 21 0 11 2;
#X connect 22 0 13 2;
#X connect 23 0 13 1;
#X connect 24 0 12 0;
#X connect 24 0 21 0;
#X connect 24 0 23 0;
#X connect 24 0 22 0;
#X connect 25 0 0 0;
#X connect 26 0 28 0;
#X connect 27 0 12 0;
#X connect 27 0 21 0;
#X connect 27 0 22 0;
#X connect 27 0 23 0;
#X connect 28 0 29 1;
#X connect 29 0 9 0;
#X connect 30 0 11 1;
#X connect 31 0 32 0;
#X connect 32 0 7 0;
#X connect 32 1 33 1;
#X connect 33 0 15 0;
#X restore 364 179 pd tran;
#X obj 406 59 *~ 1;
#N canvas 386 362 450 300 head 0;
#X obj 273 227 outlet;
#X obj 140 235 outlet;
#X obj 212 33 sel 0 1;
#X obj 180 77 t b b;
#X obj 140 190 line;
#X msg 262 80 1;
#X obj 262 57 t b b;
#X msg 227 130 0;
#X obj 293 173 loadbang;
#X msg 293 193 0;
#X obj 207 101 del 1000;
#X msg 185 164 1 1000;
#X msg 141 161 0 1000;
#X obj 212 5 r \$0-u3;
#X obj 140 213 outback;
#X connect 2 0 3 0;
#X connect 2 1 6 0;
#X connect 3 0 12 0;
#X connect 3 1 10 0;
#X connect 4 0 14 0;
#X connect 5 0 0 0;
#X connect 6 0 5 0;
#X connect 6 1 11 0;
#X connect 7 0 0 0;
#X connect 8 0 9 0;
#X connect 9 0 0 0;
#X connect 10 0 7 0;
#X connect 11 0 4 0;
#X connect 12 0 4 0;
#X connect 13 0 2 0;
#X connect 14 0 1 0;
#X restore 337 302 pd head;
#N canvas 507 105 494 644 tran&color 0;
#X obj 157 96 f;
#X obj 185 96 + 1;
#X obj 215 96 % 2;
#X obj 258 41 r x_size;
#X floatatom 258 65 5 0 0 0 - - -;
#X obj 258 91 / 4;
#X floatatom 258 116 5 0 0 0 - - -;
#X obj 45 367 inlet;
#X obj 45 585 outlet;
#X floatatom 157 119 5 0 0 0 - - -;
#X obj 45 441 translateXYZ -1.65 0.62 2.99;
#N canvas 578 460 450 300 line 0;
#X obj 145 74 inlet;
#X obj 145 240 outlet;
#X obj 257 71 inlet;
#X obj 140 138 k_range 0 1 0 1;
#X connect 0 0 3 0;
#X connect 2 0 3 4;
#X connect 3 0 1 0;
#X restore 108 316 pd line;
#X obj 45 474 scaleXYZ 0.079 0.06 1;
#X msg 103 45 1;
#X obj 258 160 t b f;
#X obj 15 83 sel 0 1;
#X msg 15 108 1 \, 0 1000;
#X obj 15 131 line;
#X obj 30 175 line;
#X msg 30 152 0 \, 1 1000;
#N canvas 356 438 450 300 line 0;
#X obj 145 74 inlet;
#X obj 145 240 outlet;
#X floatatom 181 187 5 0 0 0 - - -;
#X obj 140 138 k_range 0 1 0 -0.55;
#X connect 0 0 3 0;
#X connect 2 0 1 0;
#X connect 3 0 1 0;
#X restore 162 240 pd line;
#N canvas 623 426 450 300 line 0;
#X obj 145 74 inlet;
#X obj 145 240 outlet;
#X obj 140 138 k_range 1 0 0.0785 0.157;
#X connect 0 0 2 0;
#X connect 2 0 1 0;
#X restore 185 351 pd line;
#N canvas 89 167 450 300 line 0;
#X obj 145 74 inlet;
#X obj 145 240 outlet;
#X obj 140 138 k_range 1 0 0.08 0.16;
#X connect 0 0 2 0;
#X connect 2 0 1 0;
#X restore 268 380 pd line;
#X obj 117 193 inback;
#X obj 157 63 r \$0-ui3;
#X obj 172 491 inlet;
#X obj 45 562 alpha;
#X obj 84 564 tgl 15 0 empty empty empty 17 7 0 10 -262144 -1 -1 1
1;
#X obj 105 563 loadbang;
#X obj 45 539 colorRGB 1 1 1 0.8;
#X obj 14 204 inoutback;
#X obj 45 512 scale 0.7;
#X obj 172 512 * 0.7;
#X obj 258 138 * -0.78;
#X connect 0 0 1 0;
#X connect 0 0 9 0;
#X connect 1 0 2 0;
#X connect 2 0 0 1;
#X connect 3 0 4 0;
#X connect 4 0 5 0;
#X connect 5 0 6 0;
#X connect 6 0 33 0;
#X connect 7 0 10 0;
#X connect 9 0 15 0;
#X connect 10 0 12 0;
#X connect 11 0 10 1;
#X connect 12 0 31 0;
#X connect 13 0 0 0;
#X connect 14 0 13 0;
#X connect 14 1 11 1;
#X connect 15 0 16 0;
#X connect 15 1 19 0;
#X connect 16 0 17 0;
#X connect 17 0 30 0;
#X connect 18 0 23 0;
#X connect 19 0 18 0;
#X connect 20 0 10 2;
#X connect 21 0 12 2;
#X connect 22 0 12 1;
#X connect 23 0 11 0;
#X connect 23 0 20 0;
#X connect 23 0 22 0;
#X connect 23 0 21 0;
#X connect 24 0 0 0;
#X connect 25 0 32 0;
#X connect 26 0 8 0;
#X connect 27 0 26 1;
#X connect 28 0 27 0;
#X connect 29 0 26 0;
#X connect 30 0 11 0;
#X connect 30 0 20 0;
#X connect 30 0 21 0;
#X connect 30 0 22 0;
#X connect 31 0 29 0;
#X connect 32 0 31 1;
#X connect 33 0 14 0;
#X restore 376 440 pd tran&color;
#N canvas 386 362 450 300 head 0;
#X obj 273 227 outlet;
#X obj 140 235 outlet;
#X obj 212 33 sel 0 1;
#X obj 180 77 t b b;
#X obj 140 190 line;
#X msg 262 80 1;
#X obj 262 57 t b b;
#X msg 227 130 0;
#X obj 293 173 loadbang;
#X msg 293 193 0;
#X obj 207 101 del 1000;
#X msg 185 164 1 1000;
#X msg 141 161 0 1000;
#X obj 212 5 r \$0-u4;
#X obj 140 213 outback;
#X connect 2 0 3 0;
#X connect 2 1 6 0;
#X connect 3 0 12 0;
#X connect 3 1 10 0;
#X connect 4 0 14 0;
#X connect 5 0 0 0;
#X connect 6 0 5 0;
#X connect 6 1 11 0;
#X connect 7 0 0 0;
#X connect 8 0 9 0;
#X connect 9 0 0 0;
#X connect 10 0 7 0;
#X connect 11 0 4 0;
#X connect 12 0 4 0;
#X connect 13 0 2 0;
#X connect 14 0 1 0;
#X restore 507 -56 pd head;
#N canvas 386 362 450 300 head 0;
#X obj 273 227 outlet;
#X obj 140 235 outlet;
#X obj 212 33 sel 0 1;
#X obj 180 77 t b b;
#X obj 140 190 line;
#X msg 262 80 1;
#X obj 262 57 t b b;
#X msg 227 130 0;
#X obj 293 173 loadbang;
#X msg 293 193 0;
#X obj 207 101 del 1000;
#X msg 185 164 1 1000;
#X msg 141 161 0 1000;
#X obj 212 5 r \$0-u5;
#X obj 140 213 outback;
#X connect 2 0 3 0;
#X connect 2 1 6 0;
#X connect 3 0 12 0;
#X connect 3 1 10 0;
#X connect 4 0 14 0;
#X connect 5 0 0 0;
#X connect 6 0 5 0;
#X connect 6 1 11 0;
#X connect 7 0 0 0;
#X connect 8 0 9 0;
#X connect 9 0 0 0;
#X connect 10 0 7 0;
#X connect 11 0 4 0;
#X connect 12 0 4 0;
#X connect 13 0 2 0;
#X connect 14 0 1 0;
#X restore 511 159 pd head;
#N canvas 386 362 450 300 head 0;
#X obj 273 227 outlet;
#X obj 140 235 outlet;
#X obj 212 33 sel 0 1;
#X obj 180 77 t b b;
#X obj 140 190 line;
#X msg 262 80 1;
#X obj 262 57 t b b;
#X msg 227 130 0;
#X obj 293 173 loadbang;
#X msg 293 193 0;
#X obj 207 101 del 1000;
#X msg 185 164 1 1000;
#X msg 141 161 0 1000;
#X obj 212 5 r \$0-u6;
#X obj 140 213 outback;
#X connect 2 0 3 0;
#X connect 2 1 6 0;
#X connect 3 0 12 0;
#X connect 3 1 10 0;
#X connect 4 0 14 0;
#X connect 5 0 0 0;
#X connect 6 0 5 0;
#X connect 6 1 11 0;
#X connect 7 0 0 0;
#X connect 8 0 9 0;
#X connect 9 0 0 0;
#X connect 10 0 7 0;
#X connect 11 0 4 0;
#X connect 12 0 4 0;
#X connect 13 0 2 0;
#X connect 14 0 1 0;
#X restore 488 318 pd head;
#X obj 285 249 v \$0-noise;
#X obj 185 43 t b b;
#X msg 235 86 1;
#X obj 184 306 == 0.001;
#X obj 184 335 sel 1;
#X msg 184 359 0;
#X obj 106 -214 r touchosc;
#X obj 104 129 tgl 15 0 empty empty 0 5 7 0 10 -262144 -1 -1 0 1;
#X obj -58 -66 route key_30 key_31 key_32 key_33 key_34 key_35 key_39
;
#X obj 219 -33 sel 1;
#N canvas 99 396 450 300 head 0;
#X obj 273 227 outlet;
#X obj 140 235 outlet;
#X obj 212 33 sel 0 1;
#X obj 180 77 t b b;
#X obj 140 190 line;
#X msg 262 80 1;
#X obj 262 57 t b b;
#X msg 227 130 0;
#X obj 293 173 loadbang;
#X msg 293 193 0;
#X obj 207 101 del 1000;
#X msg 185 164 1 1000;
#X msg 141 161 0 1000;
#X obj 140 213 outback;
#X obj 211 5 r \$0-u0;
#X connect 2 0 3 0;
#X connect 2 1 6 0;
#X connect 3 0 12 0;
#X connect 3 1 10 0;
#X connect 4 0 13 0;
#X connect 5 0 0 0;
#X connect 6 0 5 0;
#X connect 6 1 11 0;
#X connect 7 0 0 0;
#X connect 8 0 9 0;
#X connect 9 0 0 0;
#X connect 10 0 7 0;
#X connect 11 0 4 0;
#X connect 12 0 4 0;
#X connect 13 0 1 0;
#X connect 14 0 2 0;
#X restore -31 289 pd head;
#X obj 8 440 ui_0;
#X obj 8 415 scale 0.7;
#X obj 8 344 translateXYZ 0 -0.65 0;
#X obj 84 181 s \$0-u0;
#X obj 33 383 * 0.7;
#X obj 106 -190 routeOSC /gemctl;
#X obj 108 -126 route /22 /24 /26 /28 /30 /32 /34;
#X obj 100 368 r \$0-ui0;
#X obj 100 398 t b b;
#X obj 100 457 line;
#X obj 148 400 del 300;
#X obj 97 481 outbounce;
#X msg 99 435 1 \, 0.8 300;
#X msg 164 427 0.8 \, 1 500;
#X obj 228 62 del 50;
#X obj 376 463 rectangle 4.8 3.72;
#X msg 458 -106 set \$1;
#X obj 458 -198 r gemlayer;
#X obj 458 -176 sel 0 1;
#X msg 458 -152 99998;
#X msg 477 -128 -5;
#X obj 385 -60 gemhead -5;
#X obj 546 -31 gemhead -5;
#X obj 550 187 gemhead -5;
#X obj 364 113 gemhead -5;
#X obj 376 330 gemhead -5;
#X obj 527 346 gemhead -5;
#X obj 8 315 gemhead -5;
#X connect 1 0 67 0;
#X connect 3 0 7 0;
#X connect 4 0 8 0;
#X connect 5 0 9 0;
#X connect 6 0 10 0;
#X connect 13 0 14 0;
#X connect 15 0 17 0;
#X connect 16 0 18 1;
#X connect 17 0 18 0;
#X connect 17 1 16 0;
#X connect 18 0 79 0;
#X connect 19 0 3 0;
#X connect 20 0 4 0;
#X connect 21 0 5 0;
#X connect 22 0 6 0;
#X connect 23 0 13 0;
#X connect 24 0 39 0;
#X connect 25 0 24 0;
#X connect 26 0 30 0;
#X connect 26 1 71 0;
#X connect 27 0 45 0;
#X connect 28 0 29 0;
#X connect 28 1 29 1;
#X connect 29 0 63 0;
#X connect 30 0 74 0;
#X connect 31 0 32 0;
#X connect 31 1 32 1;
#X connect 32 0 64 0;
#X connect 33 0 34 0;
#X connect 33 1 34 1;
#X connect 34 0 1 0;
#X connect 35 0 36 0;
#X connect 35 1 36 1;
#X connect 36 0 62 0;
#X connect 37 0 38 0;
#X connect 37 1 38 1;
#X connect 38 0 48 0;
#X connect 39 0 26 0;
#X connect 40 0 72 0;
#X connect 41 0 45 0;
#X connect 43 0 63 1;
#X connect 43 1 103 0;
#X connect 44 0 64 1;
#X connect 44 1 106 0;
#X connect 45 0 30 0;
#X connect 46 0 2 0;
#X connect 46 1 1 1;
#X connect 49 0 50 0;
#X connect 49 1 50 1;
#X connect 50 0 51 0;
#X connect 51 0 52 0;
#X connect 53 0 54 0;
#X connect 55 0 53 0;
#X connect 56 0 65 0;
#X connect 57 0 47 2;
#X connect 58 0 48 2;
#X connect 59 0 12 2;
#X connect 60 0 47 3;
#X connect 61 0 48 3;
#X connect 62 0 47 0;
#X connect 63 0 11 0;
#X connect 64 0 12 0;
#X connect 65 0 11 2;
#X connect 66 0 67 1;
#X connect 66 1 107 0;
#X connect 67 0 97 0;
#X connect 68 0 62 1;
#X connect 68 1 104 0;
#X connect 69 0 51 1;
#X connect 69 1 105 0;
#X connect 70 0 48 1;
#X connect 70 1 108 0;
#X connect 71 0 27 0;
#X connect 72 0 41 0;
#X connect 72 1 96 0;
#X connect 73 0 24 0;
#X connect 74 0 75 0;
#X connect 75 0 76 0;
#X connect 76 0 24 0;
#X connect 77 0 87 0;
#X connect 78 0 85 0;
#X connect 79 0 19 0;
#X connect 79 1 20 0;
#X connect 79 2 21 0;
#X connect 79 3 22 0;
#X connect 79 4 23 0;
#X connect 79 5 55 0;
#X connect 79 6 80 0;
#X connect 80 0 78 0;
#X connect 81 0 86 0;
#X connect 81 1 109 0;
#X connect 83 0 82 0;
#X connect 84 0 83 0;
#X connect 86 0 83 1;
#X connect 87 0 88 0;
#X connect 88 0 78 0;
#X connect 88 1 3 0;
#X connect 88 2 4 0;
#X connect 88 3 5 0;
#X connect 88 4 6 0;
#X connect 88 5 13 0;
#X connect 88 6 53 0;
#X connect 89 0 90 0;
#X connect 90 0 94 0;
#X connect 90 1 92 0;
#X connect 91 0 93 0;
#X connect 92 0 95 0;
#X connect 93 0 86 0;
#X connect 94 0 91 0;
#X connect 95 0 91 0;
#X connect 96 0 73 0;
#X connect 98 0 103 0;
#X connect 98 0 107 0;
#X connect 98 0 108 0;
#X connect 98 0 109 0;
#X connect 98 0 104 0;
#X connect 98 0 105 0;
#X connect 98 0 106 0;
#X connect 99 0 100 0;
#X connect 100 0 101 0;
#X connect 100 1 102 0;
#X connect 101 0 98 0;
#X connect 102 0 98 0;
#X connect 103 0 28 0;
#X connect 104 0 35 0;
#X connect 105 0 49 0;
#X connect 106 0 31 0;
#X connect 107 0 33 0;
#X connect 108 0 37 0;
#X connect 109 0 84 0;
#X coords 0 -1 1 1 110 70 1 100 100;
