#N canvas 195 213 874 486 10;
#X obj 50 -176 inlet~;
#X obj 169 34 vsl 15 128 -99 12 0 0 empty empty empty 0 -9 0 10 -262144
-1 -1 6815 1;
#N canvas 852 247 145 258 vu~ 0;
#X obj 13 24 inlet~;
#X obj 13 158 outlet;
#X obj 13 48 prvu~;
#X obj 13 77 unpack f f f;
#X obj 13 126 line;
#X msg 13 102 \$1 50;
#X connect 0 0 2 0;
#X connect 2 0 3 0;
#X connect 3 0 5 0;
#X connect 4 0 1 0;
#X connect 5 0 4 0;
#X restore 169 -55 pd vu~;
#X obj 187 34 vsl 15 128 -99 12 0 0 empty empty empty 0 -9 0 10 -262144
-1 -1 8579 1;
#N canvas 852 247 145 258 vu~ 1;
#X obj 13 24 inlet~;
#X obj 13 158 outlet;
#X obj 13 48 prvu~;
#X obj 13 77 unpack f f f;
#X obj 13 126 line;
#X msg 13 102 \$1 50;
#X connect 0 0 2 0;
#X connect 2 0 3 0;
#X connect 3 0 5 0;
#X connect 4 0 1 0;
#X connect 5 0 4 0;
#X restore 187 -24 pd vu~;
#X obj 205 34 vsl 15 128 -99 12 0 0 empty empty empty 0 -9 0 10 -262144
-1 -1 8096 1;
#N canvas 852 247 145 258 vu~ 0;
#X obj 13 24 inlet~;
#X obj 13 158 outlet;
#X obj 13 48 prvu~;
#X obj 13 77 unpack f f f;
#X msg 13 102 \$1 100;
#X obj 13 126 line;
#X connect 0 0 2 0;
#X connect 2 0 3 0;
#X connect 3 0 4 0;
#X connect 4 0 5 0;
#X connect 5 0 1 0;
#X restore 205 4 pd vu~;
#X obj 224 34 vsl 15 128 -99 12 0 0 empty empty empty 0 -9 0 10 -262144
-1 -1 7935 1;
#N canvas 852 247 145 258 vu~ 0;
#X obj 13 24 inlet~;
#X obj 13 158 outlet;
#X obj 13 48 prvu~;
#X obj 13 77 unpack f f f;
#X msg 13 102 \$1 100;
#X obj 13 126 line;
#X connect 0 0 2 0;
#X connect 2 0 3 0;
#X connect 3 0 4 0;
#X connect 4 0 5 0;
#X connect 5 0 1 0;
#X restore 224 -55 pd vu~;
#X obj 242 34 vsl 15 128 -99 12 0 0 empty empty empty 0 -9 0 10 -262144
-1 -1 0 1;
#N canvas 852 247 145 258 vu~ 0;
#X obj 13 24 inlet~;
#X obj 13 158 outlet;
#X obj 13 48 prvu~;
#X obj 13 77 unpack f f f;
#X msg 13 102 \$1 100;
#X obj 13 126 line;
#X connect 0 0 2 0;
#X connect 2 0 3 0;
#X connect 3 0 4 0;
#X connect 4 0 5 0;
#X connect 5 0 1 0;
#X restore 242 -24 pd vu~;
#X obj 260 34 vsl 15 128 -99 12 0 0 empty empty empty 0 -9 0 10 -262144
-1 -1 0 1;
#N canvas 852 247 145 258 vu~ 0;
#X obj 13 24 inlet~;
#X obj 13 158 outlet;
#X obj 13 48 prvu~;
#X obj 13 77 unpack f f f;
#X msg 13 102 \$1 100;
#X obj 13 126 line;
#X connect 0 0 2 0;
#X connect 2 0 3 0;
#X connect 3 0 4 0;
#X connect 4 0 5 0;
#X connect 5 0 1 0;
#X restore 260 4 pd vu~;
#X obj 50 -153 hip~ 20;
#X obj -24 -100 bp~ 30 10;
#X obj 50 -101 bp~ 60 10;
#X obj 116 -101 bp~ 80 10;
#X obj 181 -102 bp~ 120 10;
#X connect 0 0 13 0;
#X connect 2 0 1 0;
#X connect 4 0 3 0;
#X connect 6 0 5 0;
#X connect 8 0 7 0;
#X connect 10 0 9 0;
#X connect 12 0 11 0;
#X connect 13 0 14 0;
#X connect 13 0 15 0;
#X connect 13 0 16 0;
#X connect 13 0 17 0;
#X connect 14 0 2 0;
#X connect 15 0 4 0;
#X connect 16 0 6 0;
#X connect 17 0 8 0;
