#N canvas 804 153 663 577 10;
#X obj 38 -21 inlet~;
#X obj 102 102 cnv 30 100 100 empty \$0-test-canvas 0.000000 40 90
0 12 -233017 -66577 0;
#N canvas 0 22 450 300 (subpatch) 0;
#X array \$0-k_vol 400 float 0;
#X coords 0 1 399 -1 100 100 2 0 0;
#X restore 102 102 graph;
#X obj -31 161 env~;
#X floatatom -31 184 5 0 0 0 - - -;
#N canvas 170 276 715 456 size&color 0;
#X obj 89 133 inlet;
#X msg 84 212 0;
#X obj 120 256 change -1;
#X obj 134 209 moses 100;
#X obj 123 284 sel 0 1 2 3;
#X obj 26 370 s \$0-test-canvas;
#X floatatom 89 160 5 0 0 0 - - -;
#X obj 386 166 / 100;
#X floatatom 386 192 5 0 0 0 - - -;
#X obj 388 295 s \$0-test-canvas;
#X obj 386 245 list prepend label;
#X obj 387 270 route list;
#X obj 386 221 makefilename %f;
#X obj 445 90 loadbang;
#X msg 445 115 0;
#X msg 157 316 color 13 2;
#X msg 2 314 color 0 2;
#X msg 176 371 color \$1 2;
#X floatatom 187 345 5 0 0 0 - - -;
#X msg 77 316 color 10 2;
#X obj 89 185 moses 70;
#X msg 134 230 1;
#X msg 184 236 2;
#X connect 0 0 6 0;
#X connect 1 0 2 0;
#X connect 2 0 4 0;
#X connect 3 0 21 0;
#X connect 3 1 22 0;
#X connect 4 0 16 0;
#X connect 4 1 19 0;
#X connect 4 2 15 0;
#X connect 6 0 7 0;
#X connect 6 0 20 0;
#X connect 7 0 8 0;
#X connect 8 0 12 0;
#X connect 10 0 11 0;
#X connect 11 0 9 0;
#X connect 12 0 10 0;
#X connect 13 0 14 0;
#X connect 14 0 8 0;
#X connect 15 0 5 0;
#X connect 16 0 5 0;
#X connect 17 0 5 0;
#X connect 18 0 17 0;
#X connect 19 0 5 0;
#X connect 20 0 1 0;
#X connect 20 1 3 0;
#X connect 21 0 2 0;
#X connect 22 0 2 0;
#X restore -31 222 pd size&color;
#X obj 168 268 unsig~ 1;
#X obj 103 352 sel 1;
#X floatatom 103 267 5 0 0 0 - - -;
#X obj 103 293 expr if($f1>0.95 \, 1 \, 0);
#X obj 103 321 change;
#X obj 168 238 phasor~ 10;
#X obj -78 337 outlet~;
#X obj 389 61 loadbang;
#X msg 364 271 ylabel -16 -1 0 1;
#X obj 439 206 s \$0-test-vol;
#X floatatom 389 131 5 0 0 0 - - -;
#X msg 439 180 resize \$1;
#X obj 389 220 / 20;
#X obj 389 157 t f f;
#X msg 388 243 xticks 0 \$1 \$1;
#X msg 389 95 1200;
#X obj 103 379 tabwrite~ \$0-k_vol;
#X obj 364 310 s \$0-k_vol;
#X connect 0 0 3 0;
#X connect 0 0 12 0;
#X connect 0 0 22 0;
#X connect 3 0 4 0;
#X connect 4 0 5 0;
#X connect 6 0 8 0;
#X connect 7 0 22 0;
#X connect 8 0 9 0;
#X connect 9 0 10 0;
#X connect 10 0 7 0;
#X connect 11 0 6 0;
#X connect 13 0 14 0;
#X connect 13 0 21 0;
#X connect 14 0 23 0;
#X connect 16 0 19 0;
#X connect 17 0 15 0;
#X connect 18 0 20 0;
#X connect 19 0 18 0;
#X connect 19 1 17 0;
#X connect 20 0 23 0;
#X connect 21 0 16 0;
#X coords 0 -1 1 1 104 104 2 100 100;
