#N canvas 407 154 695 492 10;
#X obj 24 119 inlet~;
#X obj 102 102 cnv 30 60 60 empty \$0-test-canvas 0.000000 20 50 0
8 -262144 -66577 0;
#N canvas 0 22 450 300 (subpatch) 0;
#X array \$0-k_vol 400 float 0;
#X coords 0 1 399 -1 60 60 2 0 0;
#X restore 102 102 graph;
#X obj -31 161 env~;
#X floatatom -31 184 5 0 0 0 - - -, f 5;
#N canvas 170 276 715 456 size&color 0;
#X obj 89 133 inlet;
#X msg 84 212 0;
#X obj 120 256 change -1;
#X obj 134 209 moses 100;
#X obj 123 284 sel 0 1 2 3;
#X obj 26 370 s \$0-test-canvas;
#X floatatom 89 160 5 0 0 0 - - -, f 5;
#X obj 386 166 / 100;
#X floatatom 386 192 5 0 0 0 - - -, f 5;
#X obj 385 370 s \$0-test-canvas;
#X obj 387 299 list prepend label;
#X obj 388 324 route list;
#X obj 387 275 makefilename %f;
#X obj 445 90 loadbang;
#X msg 445 115 0;
#X msg 157 316 color 13 2;
#X msg 2 314 color 0 2;
#X msg 176 371 color \$1 2;
#X floatatom 187 345 5 0 0 0 - - -, f 5;
#X msg 77 316 color 10 2;
#X obj 89 185 moses 70;
#X msg 134 230 1;
#X msg 184 236 2;
#X obj 386 220 k_float 100;
#X connect 0 0 6 0;
#X connect 1 0 2 0;
#X connect 2 0 4 0;
#X connect 3 0 21 0;
#X connect 3 1 22 0;
#X connect 4 0 16 0;
#X connect 4 1 19 0;
#X connect 4 2 15 0;
#X connect 6 0 7 0;
#X connect 6 0 20 0;
#X connect 7 0 8 0;
#X connect 8 0 23 0;
#X connect 10 0 11 0;
#X connect 11 0 9 0;
#X connect 12 0 10 0;
#X connect 13 0 14 0;
#X connect 14 0 8 0;
#X connect 15 0 5 0;
#X connect 16 0 5 0;
#X connect 17 0 5 0;
#X connect 18 0 17 0;
#X connect 19 0 5 0;
#X connect 20 0 1 0;
#X connect 20 1 3 0;
#X connect 21 0 2 0;
#X connect 22 0 2 0;
#X connect 23 0 12 0;
#X restore -31 222 pd size&color;
#X obj -78 337 outlet~;
#X obj 329 99 loadbang;
#X msg 304 309 ylabel -16 -1 0 1;
#X obj 379 244 s \$0-test-vol;
#X floatatom 329 169 5 0 0 0 - - -, f 5;
#X msg 379 218 resize \$1;
#X obj 329 258 / 20;
#X obj 329 195 t f f;
#X msg 328 281 xticks 0 \$1 \$1;
#X msg 329 133 1200;
#X obj 103 379 tabwrite~ \$0-k_vol;
#X obj 304 348 s \$0-k_vol;
#X obj 106 246 tgl 15 0 empty empty empty 17 7 0 10 -262144 -1 -1 1
1;
#X obj 107 266 metro 100;
#X obj 107 224 loadbang;
#X connect 0 0 3 0;
#X connect 0 0 6 0;
#X connect 0 0 16 0;
#X connect 3 0 4 0;
#X connect 4 0 5 0;
#X connect 7 0 8 0;
#X connect 7 0 15 0;
#X connect 8 0 17 0;
#X connect 10 0 13 0;
#X connect 11 0 9 0;
#X connect 12 0 14 0;
#X connect 13 0 12 0;
#X connect 13 1 11 0;
#X connect 14 0 17 0;
#X connect 15 0 10 0;
#X connect 18 0 19 0;
#X connect 19 0 16 0;
#X connect 20 0 18 0;
#X coords 0 -1 1 1 64 64 2 100 100;
