#N canvas 733 318 517 482 10;
#X floatatom -13 175 5 0 0 0 - - -;
#X obj 60 -13 expr if($f1>$f2 \, $f1 \, $f2);
#X floatatom 60 31 5 0 0 0 - - -;
#X floatatom 290 -85 5 0 0 0 - - -;
#X msg 290 -112 0;
#X floatatom 6 119 5 0 0 0 - - -;
#X obj 6 77 expr if($f1<$f2 \, $f1 \, $f2);
#X floatatom 6 53 5 0 0 0 - - -;
#X obj -13 149 k_range 0 1 0 1;
#X obj -13 31 t f f f;
#X msg 127 -64 200;
#X floatatom 159 52 5 0 0 0 - - -;
#X obj 60 10 change;
#X obj 6 98 change;
#X obj 103 117 nbx 4 30 -1e+37 1e+37 0 0 empty empty empty 0 -8 0 12
-228856 -1 -1 0.777258 256;
#X obj -13 2 inlet;
#X obj 290 -136 loadbang;
#X obj 290 -169 bng 15 250 50 0 empty empty empty 17 7 0 10 -262144
-1 -1;
#X obj -13 206 outlet;
#X obj 290 -197 inlet;
#X obj -82 219 s vj_pick;
#X floatatom 165 110 5 0 0 0 - - -;
#X floatatom 165 130 5 0 0 0 - - -;
#X connect 0 0 18 0;
#X connect 0 0 20 0;
#X connect 0 0 14 0;
#X connect 1 0 12 0;
#X connect 2 0 3 0;
#X connect 2 0 8 2;
#X connect 3 0 1 1;
#X connect 3 0 22 0;
#X connect 4 0 3 0;
#X connect 5 0 8 1;
#X connect 5 0 11 0;
#X connect 6 0 13 0;
#X connect 7 0 6 0;
#X connect 8 0 0 0;
#X connect 9 0 8 0;
#X connect 9 1 7 0;
#X connect 9 2 1 0;
#X connect 10 0 11 0;
#X connect 11 0 6 1;
#X connect 11 0 21 0;
#X connect 12 0 2 0;
#X connect 13 0 5 0;
#X connect 15 0 9 0;
#X connect 16 0 4 0;
#X connect 16 0 10 0;
#X connect 17 0 16 0;
#X connect 19 0 17 0;
#X coords 0 -1 1 1 100 50 1 100 100;
