#N canvas 552 270 655 392 10;
#X obj 103 116 cnv 15 114 70 empty empty empty 20 12 0 14 -191407 -66577
0;
#X obj 78 -5 inlet~;
#X obj 429 77 loadbang;
#X msg 404 287 ylabel -16 -1 0 1;
#X obj 112 139 cnv 15 100 45 empty \$0-test-canvas empty 20 12 0 14
-262144 -262144 0;
#N canvas 0 22 450 300 (subpatch) 0;
#X array \$0-vol 400 float 0;
#X coords 0 1 399 -1 100 45 1;
#X restore 112 139 graph;
#X obj 9 177 env~;
#X floatatom 9 200 5 0 0 0 - - -;
#N canvas 218 233 451 440 size&color 0;
#X obj 89 133 inlet;
#X msg 84 212 0;
#X msg 140 229 1;
#X msg 120 314 color 14;
#X msg 300 314 color 13;
#X obj 120 256 change -1;
#X msg 201 238 2;
#X obj 201 217 moses 100;
#X msg 251 244 3;
#X obj 123 284 sel 0 1 2 3;
#X msg 180 313 color -1.5626e+07;
#X obj 26 370 s \$0-test-canvas;
#X floatatom 89 160 5 0 0 0 - - -;
#X obj 152 371 outlet;
#X obj 89 185 moses 90;
#X obj 141 206 moses 95;
#X msg 2 314 color 0;
#X connect 0 0 12 0;
#X connect 1 0 5 0;
#X connect 2 0 5 0;
#X connect 3 0 11 0;
#X connect 3 0 13 0;
#X connect 4 0 11 0;
#X connect 4 0 13 0;
#X connect 5 0 9 0;
#X connect 6 0 5 0;
#X connect 7 0 6 0;
#X connect 7 1 8 0;
#X connect 8 0 5 0;
#X connect 9 0 16 0;
#X connect 9 1 3 0;
#X connect 9 2 10 0;
#X connect 9 3 4 0;
#X connect 10 0 11 0;
#X connect 10 0 13 0;
#X connect 12 0 14 0;
#X connect 14 0 1 0;
#X connect 14 1 15 0;
#X connect 15 0 2 0;
#X connect 15 1 7 0;
#X connect 16 0 11 0;
#X connect 16 0 13 0;
#X restore 9 238 pd size&color;
#X obj 52 297 outlet;
#X obj 52 271 / 100;
#X obj 479 222 s \$0-test-vol;
#X floatatom 429 147 5 0 0 0 - - -;
#X msg 479 196 resize \$1;
#X obj 429 236 / 20;
#X obj 429 173 t f f;
#X msg 428 259 xticks 0 \$1 \$1;
#X floatatom 180 119 5 0 0 0 - - -;
#X obj 235 327 tabwrite~ \$0-vol;
#X obj 404 326 s \$0-vol;
#X obj 235 184 unsig~ 1;
#X obj 235 300 sel 1;
#X floatatom 235 215 5 0 0 0 - - -;
#X obj 235 241 expr if($f1>0.95 \, 1 \, 0);
#X obj 235 269 change;
#X obj 235 154 phasor~ 10;
#X obj -38 353 outlet~;
#X msg 429 111 1200;
#X connect 1 0 6 0;
#X connect 1 0 18 0;
#X connect 1 0 26 0;
#X connect 2 0 3 0;
#X connect 2 0 27 0;
#X connect 3 0 19 0;
#X connect 6 0 7 0;
#X connect 7 0 8 0;
#X connect 7 0 10 0;
#X connect 10 0 9 0;
#X connect 10 0 17 0;
#X connect 12 0 15 0;
#X connect 13 0 11 0;
#X connect 14 0 16 0;
#X connect 15 0 14 0;
#X connect 15 1 13 0;
#X connect 16 0 19 0;
#X connect 20 0 22 0;
#X connect 21 0 18 0;
#X connect 22 0 23 0;
#X connect 23 0 24 0;
#X connect 24 0 21 0;
#X connect 25 0 20 0;
#X connect 27 0 12 0;
#X coords 0 -1 1 1 120 90 1 100 100;
