#N canvas 548 221 742 430 10;
#X obj 22 -1 inlet~;
#X obj 223 227 outlet;
#X obj 22 25 hip~ 20;
#X obj 84 -99 loadbang;
#X msg 84 -76 0;
#X obj 84 -55 t f f;
#X obj 84 -28 + \$1;
#X obj 118 -28 + \$2;
#X obj 22 48 lop~ 20;
#X floatatom 83 -4 5 0 0 0 - - -;
#X floatatom 122 -4 5 0 0 0 - - -;
#X obj 191 152 list append;
#X obj 269 178 t l;
#X obj 269 155 list prepend;
#X floatatom 279 116 5 0 0 0 - - -;
#X obj 190 175 minmax;
#X obj 225 58 f;
#X obj 251 58 + 1;
#X floatatom 223 201 5 0 0 0 - - -;
#X obj 225 32 t b f;
#X floatatom 225 12 5 0 0 0 - - -;
#X obj 226 123 t b b;
#X floatatom 226 80 5 0 0 0 - - -;
#X obj 22 71 unsig~ 2;
#X obj 285 56 % 20;
#X obj 226 99 sel 19;
#X connect 0 0 2 0;
#X connect 2 0 8 0;
#X connect 3 0 4 0;
#X connect 4 0 5 0;
#X connect 5 0 6 0;
#X connect 5 1 7 0;
#X connect 6 0 9 0;
#X connect 7 0 10 0;
#X connect 8 0 23 0;
#X connect 9 0 2 1;
#X connect 10 0 8 1;
#X connect 11 0 15 0;
#X connect 12 0 13 1;
#X connect 13 0 12 0;
#X connect 13 0 11 1;
#X connect 14 0 13 0;
#X connect 15 1 18 0;
#X connect 16 0 17 0;
#X connect 16 0 22 0;
#X connect 17 0 24 0;
#X connect 18 0 1 0;
#X connect 19 0 16 0;
#X connect 19 1 14 0;
#X connect 20 0 19 0;
#X connect 21 0 13 1;
#X connect 21 1 11 0;
#X connect 22 0 25 0;
#X connect 23 0 20 0;
#X connect 24 0 16 1;
#X connect 25 0 21 0;
