#N canvas 140 22 1140 767 12;
#X obj 140 314 *~;
#X obj 268 280 *~;
#X obj 395 183 *~;
#X obj 463 327 *~;
#X obj 574 123 noise~;
#X obj 574 212 *~;
#X obj 364 358 expr~ $v1+$v2+$v3+$v4+$v5;
#X obj 267 212 expr~ if($v1>0.5 \, (abs($v1-1)*2) \, ($v1*2));
#X obj 395 123 expr~ if($v1>0.5 \, 1 \, 0);
#X obj 463 268 expr~ cos($v1*2*3.1415926);
#X obj 68 187 phasor~ 441;
#X obj 268 482 outlet~;
#X obj 158 153 inlet;
#X obj 286 170 inlet;
#X obj 413 88 inlet;
#X obj 481 242 inlet;
#X obj 592 153 inlet;
#X obj -53 113 inlet;
#X obj 223 -98 loadbang;
#X obj 223 -66 t b b b b b b b;
#X obj 223 -32 init \$1;
#X obj 240 -3 init \$2;
#X obj 257 22 init \$3;
#X obj 274 49 init \$4;
#X obj 291 -35 init \$5;
#X obj 308 75 init \$6;
#X obj -79 568 print;
#X obj 158 245 sig~ 1;
#X obj 286 245 sig~ 1;
#X obj 413 151 sig~ 1;
#X obj 481 293 sig~ 1;
#X obj 592 179 sig~ 1;
#X obj 364 406 expr~ if($v1>0 && $v1<1 \, 1 \, 0) \; if($v1>=1 && $v1<2
\, ((2-$v1)*0.5)+0.5 \, 0) \; if($v1>=2 && $v1<3 \, ((3-$v1)*0.222)+0.333
\, 0) \; if($v1>=3 && $v1<4 \, ((4-$v1)*0.083)+0.25 \, 0) \; if($v1>=4
&& $v1<5 \, ((5-$v1)*0.05)+0.2 \, 0);
#X obj 364 504 +~;
#X obj 364 534 +~;
#X obj 364 563 +~;
#X obj 364 593 +~;
#X obj 268 394 *~;
#X obj -53 141 route help float;
#X msg -79 521 In-1 [frequence] In-2 [phasor] In-3 [traingle] \, In-4
[square] In-5 [sin] In-6 [noise];
#X connect 0 0 37 0;
#X connect 1 0 37 0;
#X connect 2 0 37 0;
#X connect 3 0 37 0;
#X connect 4 0 5 0;
#X connect 5 0 37 0;
#X connect 6 0 32 0;
#X connect 7 0 1 0;
#X connect 8 0 2 0;
#X connect 9 0 3 0;
#X connect 10 0 0 0;
#X connect 10 0 7 0;
#X connect 10 0 8 0;
#X connect 10 0 9 0;
#X connect 12 0 27 0;
#X connect 13 0 28 0;
#X connect 14 0 29 0;
#X connect 15 0 30 0;
#X connect 16 0 31 0;
#X connect 17 0 38 0;
#X connect 18 0 19 0;
#X connect 19 0 20 0;
#X connect 19 1 21 0;
#X connect 19 2 22 0;
#X connect 19 3 23 0;
#X connect 19 4 24 0;
#X connect 19 5 25 0;
#X connect 20 0 10 0;
#X connect 21 0 27 0;
#X connect 22 0 28 0;
#X connect 23 0 29 0;
#X connect 24 0 30 0;
#X connect 25 0 31 0;
#X connect 27 0 0 1;
#X connect 27 0 6 0;
#X connect 28 0 6 1;
#X connect 28 0 1 1;
#X connect 29 0 6 2;
#X connect 29 0 2 1;
#X connect 30 0 3 1;
#X connect 30 0 6 3;
#X connect 31 0 6 4;
#X connect 31 0 5 1;
#X connect 32 0 33 0;
#X connect 32 1 33 1;
#X connect 32 2 34 1;
#X connect 32 3 35 1;
#X connect 32 4 36 1;
#X connect 33 0 34 0;
#X connect 34 0 35 0;
#X connect 35 0 36 0;
#X connect 36 0 37 1;
#X connect 37 0 11 0;
#X connect 38 0 39 0;
#X connect 38 1 10 0;
#X connect 39 0 26 0;
#X coords 0 0 1 1 200 100 0;
