#N canvas 215 257 549 439 10;
#X obj 104 162 openpanel;
#X obj 105 136 bng 20 250 50 0 empty empty empty 17 7 0 10 -262144
-1 -1;
#X msg 104 188 open \$1;
#X obj 105 384 outlet~;
#X obj 156 382 outlet~;
#X obj 105 274 t b a;
#X msg 105 299 start;
#X obj 131 136 tgl 20 0 empty empty empty 17 7 0 10 -262144 -1 -1 1
1;
#X obj 199 211 spigot;
#X obj 105 332 readsf~ 2;
#X msg 129 245 open /Users/aluan/Desktop/15_Streamer/LindseyStirling.wav
;
#X msg 129 223 set open \$1;
#X text 129 119 Loop;
#X text 103 119 Load;
#X obj 215 302 metro 1000;
#X msg 215 281 1;
#X obj 215 328 f;
#X obj 244 329 + 1;
#X floatatom 157 135 6 0 0 0 - - -;
#X obj 212 384 outlet;
#X obj 295 290 t b b b;
#X msg 336 314 0;
#X msg 308 338 0;
#X obj 236 142 sel 1;
#X obj 178 110 bng 15 250 50 0 empty empty empty 17 7 0 10 -262144
-1 -1;
#X msg 210 107 stop;
#X connect 0 0 2 0;
#X connect 1 0 0 0;
#X connect 2 0 11 0;
#X connect 2 0 5 0;
#X connect 5 0 6 0;
#X connect 5 0 15 0;
#X connect 5 1 9 0;
#X connect 6 0 9 0;
#X connect 7 0 8 1;
#X connect 7 0 23 0;
#X connect 8 0 10 0;
#X connect 9 0 3 0;
#X connect 9 1 4 0;
#X connect 9 2 20 0;
#X connect 10 0 5 0;
#X connect 11 0 10 0;
#X connect 14 0 16 0;
#X connect 15 0 14 0;
#X connect 16 0 17 0;
#X connect 16 0 18 0;
#X connect 17 0 16 1;
#X connect 18 0 19 0;
#X connect 20 0 8 0;
#X connect 20 1 22 0;
#X connect 20 2 21 0;
#X connect 21 0 16 1;
#X connect 22 0 14 0;
#X connect 23 0 20 0;
#X connect 24 0 25 0;
#X connect 25 0 9 0;
#X coords 0 -1 1 1 100 60 1 100 100;
