#N canvas 478 203 450 300 10;
#X obj 125 204 qlist;
#X msg 40 123 clear;
#X obj 39 90 loadbang;
#X obj 104 54 inlet;
#X obj 160 15 inlet;
#X obj 180 80 inlet;
#X msg 126 174 write /Users/aluan_mac/Desktop/model.txt;
#X obj 149 121 bng 30 250 50 0 empty empty empty 17 7 0 10 -262144
-1 -1;
#X msg 240 75 print;
#X obj 106 123 bng 15 250 50 0 empty empty empty 17 7 0 10 -262144
-1 -1;
#X connect 1 0 0 0;
#X connect 2 0 1 0;
#X connect 3 0 0 0;
#X connect 4 0 0 0;
#X connect 5 0 0 0;
#X connect 6 0 0 0;
#X connect 7 0 6 0;
#X connect 8 0 0 0;
#X connect 9 0 1 0;
#X coords 0 -1 1 1 85 60 1 100 100;
