#N canvas 566 152 1273 737 10;
#X obj 321 248 f;
#X obj 315 181 bng 15 250 50 0 empty empty empty 17 7 0 10 -262144
-1 -1;
#X floatatom 321 280 5 0 0 0 - - -, f 5;
#X obj 130 268 inlet;
#X obj 230 116 r \$0-tonext;
#X obj 442 40 inlet;
#X msg 215 256 0;
#X obj 316 103 bng 15 250 50 0 empty empty empty 17 7 0 10 -262144
-1 -1;
#X obj 316 127 t b b;
#X msg 359 158 1;
#X obj 321 218 spigot;
#X msg 405 140 0;
#X obj 584 123 s \$0-length;
#N canvas 456 23 844 698 readobj 0;
#X obj 13 331 f;
#X floatatom 13 354 10 0 0 0 - - -, f 10;
#X obj -33 429 unpack f f f;
#X obj 43 331 + 1;
#X obj -24 268 t a b;
#X obj 300 408 qlist;
#X msg 28 301 0;
#X msg 442 348 clear;
#X obj -23 172 r v;
#X obj 2 55 r vt;
#X obj 4 80 r vn;
#X obj 4 105 r f;
#X obj 5 132 r g;
#X obj 43 67 r usemtl;
#X obj -34 513 * 1;
#X obj -1 535 * 1;
#X obj 108 543 * 1;
#X obj 64 394 s \$0-arraysize;
#X obj -23 242 spigot;
#X obj 63 228 t b b b b b a b;
#X msg 10 196 0;
#X obj 53 125 t a b;
#X msg 80 152 1;
#X obj -44 69 r #;
#X obj -44 94 r (c);
#X obj 37 20 r mtllib;
#X obj -2 561 tabwrite \$0_y;
#X obj -34 591 tabwrite \$0_x;
#X obj 108 577 tabwrite \$0_z;
#X obj 15 224 tgl 15 0 empty empty empty 17 7 0 10 -262144 -1 -1 0
1;
#X obj 56 94 inlet;
#X obj 3 22 r s;
#X obj 300 302 getdir 2;
#X obj 300 328 pack s s;
#X obj 356 328 symbol;
#X obj 300 279 t b a;
#X msg 300 374 read \$1;
#X obj 300 350 makesymbol %s/%s;
#X obj 131 180 route list;
#X obj 131 155 list prepend read;
#X msg 179 360 print;
#X obj 245 467 inlet;
#X connect 0 0 1 0;
#X connect 0 0 3 0;
#X connect 1 0 17 0;
#X connect 1 0 26 1;
#X connect 1 0 27 1;
#X connect 1 0 28 1;
#X connect 2 0 14 0;
#X connect 2 1 15 0;
#X connect 2 2 16 0;
#X connect 3 0 0 1;
#X connect 4 0 2 0;
#X connect 4 1 0 0;
#X connect 5 1 20 0;
#X connect 6 0 0 1;
#X connect 7 0 5 0;
#X connect 8 0 18 0;
#X connect 14 0 27 0;
#X connect 15 0 26 0;
#X connect 16 0 28 0;
#X connect 18 0 4 0;
#X connect 19 2 5 0;
#X connect 19 4 6 0;
#X connect 19 5 35 0;
#X connect 19 6 7 0;
#X connect 20 0 29 0;
#X connect 21 0 19 0;
#X connect 21 1 22 0;
#X connect 22 0 29 0;
#X connect 29 0 18 1;
#X connect 30 0 21 0;
#X connect 32 0 33 0;
#X connect 33 0 37 0;
#X connect 34 0 33 1;
#X connect 35 0 32 0;
#X connect 35 1 34 0;
#X connect 36 0 5 0;
#X connect 37 0 36 0;
#X connect 39 0 38 0;
#X connect 40 0 5 0;
#X connect 41 0 16 1;
#X connect 41 0 15 1;
#X connect 41 0 14 1;
#X restore 196 222 pd readobj;
#N canvas 531 151 534 442 point 0;
#X obj 169 362 gemvertexbuffer;
#X obj 46 294 loadbang;
#X obj 171 218 t a b;
#X msg 46 319 shape point;
#X obj 171 187 separator;
#X obj 256 233 f \$0;
#X obj 170 128 inlet;
#X msg 241 205 resize \$1;
#X floatatom 241 138 5 0 0 0 - - -, f 5;
#X obj 241 116 r \$0-resize;
#X msg 256 256 position \$1_x_1 \$1_y_1 \$1_z_1;
#X obj 171 157 spigot;
#X obj 207 76 r \$0-drawpoint;
#X obj 169 322 GEMglPointSize 5;
#X connect 1 0 3 0;
#X connect 2 0 13 0;
#X connect 2 1 5 0;
#X connect 3 0 0 0;
#X connect 4 0 2 0;
#X connect 5 0 10 0;
#X connect 6 0 11 0;
#X connect 7 0 0 0;
#X connect 8 0 7 0;
#X connect 9 0 8 0;
#X connect 10 0 0 0;
#X connect 11 0 4 0;
#X connect 12 0 11 1;
#X connect 13 0 0 0;
#X restore 161 354 pd point;
#N canvas 460 347 740 442 line 0;
#X obj 180 270 gemvertexbuffer;
#X obj 204 220 loadbang;
#X msg 48 42 resize \$1;
#X floatatom 47 19 5 0 0 0 - - -, f 5;
#X obj 174 37 separator;
#X obj 207 150 f \$0;
#X obj 174 -1 inlet;
#X msg 207 176 position \$1_x_1 \$1_y_1 \$1_z_1;
#X obj 47 -3 r \$0-resize;
#X obj 295 306 r \$0-width;
#X msg 295 327 width \$1;
#X msg 508 -21 shape lines;
#X msg 525 6 shape points;
#X msg 543 33 shape lineloop;
#X msg 560 59 shape linestrip;
#X msg 578 84 shape tri;
#X msg 585 118 shape tristrip;
#X msg 590 148 shape trifan;
#X msg 598 173 shape quad;
#X msg 598 194 shape quadstrip;
#X msg 599 222 shape fill;
#X obj 581 262 t a;
#X msg 204 245 shape linestrip \, width 1;
#X msg 318 206 draw linestrip;
#X obj 12 89 r \$0-shape;
#X msg 12 110 shape \$1;
#X obj 508 -79 r \$0-shape;
#X obj 508 -53 sel 0 1 2 3 4;
#X obj 174 68 t a b b;
#X obj 257 115 f \$0;
#X msg 112 322 color_enable \$1;
#X obj 93 322 tgl 15 0 empty empty empty 17 7 0 10 -262144 -1 -1 0
1;
#X msg 257 139 color \$1_r \$1_g \$1_b \$1_ccc;
#X connect 1 0 22 0;
#X connect 2 0 0 0;
#X connect 3 0 2 0;
#X connect 4 0 28 0;
#X connect 5 0 7 0;
#X connect 6 0 4 0;
#X connect 7 0 0 0;
#X connect 8 0 3 0;
#X connect 9 0 10 0;
#X connect 10 0 0 0;
#X connect 11 0 21 0;
#X connect 12 0 21 0;
#X connect 13 0 21 0;
#X connect 14 0 21 0;
#X connect 15 0 21 0;
#X connect 16 0 21 0;
#X connect 17 0 21 0;
#X connect 18 0 21 0;
#X connect 19 0 21 0;
#X connect 20 0 21 0;
#X connect 21 0 0 0;
#X connect 22 0 0 0;
#X connect 23 0 0 0;
#X connect 24 0 25 0;
#X connect 25 0 0 0;
#X connect 26 0 27 0;
#X connect 27 0 11 0;
#X connect 27 1 12 0;
#X connect 27 2 13 0;
#X connect 27 3 14 0;
#X connect 27 4 15 0;
#X connect 28 0 0 0;
#X connect 28 1 5 0;
#X connect 28 2 29 0;
#X connect 29 0 32 0;
#X connect 30 0 0 0;
#X connect 31 0 30 0;
#X connect 32 0 0 0;
#X restore 177 328 pd line;
#X obj 215 291 s \$0-resize;
#N canvas 670 413 450 300 head-point 1;
#X obj 138 114 translateXYZ;
#X obj 138 79 separator;
#X obj 136 42 inlet;
#X obj 209 78 unpack f f f;
#X obj 209 38 r \$0-move-pos;
#X obj 137 175 alpha;
#X obj 241 153 loadbang;
#X msg 241 175 1;
#X obj 139 145 color 1 0 0;
#X obj 138 250 sphere 0.02 30;
#X connect 0 0 8 0;
#X connect 1 0 0 0;
#X connect 2 0 1 0;
#X connect 3 0 0 1;
#X connect 3 1 0 2;
#X connect 3 2 0 3;
#X connect 4 0 3 0;
#X connect 5 0 9 0;
#X connect 6 0 7 0;
#X connect 7 0 5 1;
#X connect 8 0 5 0;
#X restore 130 379 pd head-point;
#X obj 468 129 s \$0-speed;
#N canvas 507 23 812 774 head-line 0;
#X obj 166 595 inlet;
#X obj 381 58 + 1;
#X obj 381 129 t f f f;
#X obj 238 180 t f f f;
#X obj 219 133 t b f f;
#X obj 167 734 curve 2;
#X obj 338 617 +;
#X obj 366 615 +;
#X obj 395 616 +;
#X obj 381 273 t f f;
#X obj 400 221 t f f;
#X obj 450 224 t f f;
#X obj 437 481 -;
#X obj 467 481 -;
#X obj 496 481 -;
#X obj 238 290 t f f f;
#X obj 257 313 t f f f;
#X obj 298 338 t f f f;
#X obj 245 395 pack f f f;
#X obj 245 425 t a a;
#X obj 338 646 pack f f f;
#X obj 554 535 distance_n;
#X msg 122 398 0 \, 1 \$1;
#X obj 122 422 line;
#X floatatom 554 580 5 0 0 0 - - -, f 5;
#X obj 122 482 sel 1;
#X obj 397 517 expr -1*($f2*$f1);
#X obj 368 544 expr -1*($f2*$f1);
#X obj 338 571 expr -1*($f2*$f1);
#X floatatom 238 158 5 0 0 0 - - -, f 5;
#X floatatom 381 80 5 0 0 0 - - -, f 5;
#X obj 605 679 v \$0_time;
#X obj 122 371 v \$0_time;
#X obj 122 448 t f f f f;
#X floatatom 653 533 5 0 0 0 - - -, f 5;
#X obj 554 557 expr int($f1*$f2);
#X obj 166 618 separator;
#X obj 122 532 s \$0-tonext;
#X obj 238 259 tabread \$0_x;
#X obj 257 230 tabread \$0_y;
#X obj 277 209 tabread \$0_z;
#X obj 450 175 tabread \$0_z;
#X obj 400 196 tabread \$0_y;
#X obj 381 240 tabread \$0_x;
#X obj 338 669 s \$0-move-pos;
#X obj 205 573 r \$0-move-pos;
#X obj 653 508 r \$0-speed;
#X obj 219 104 r \$0-id;
#X obj 34 581 r \$0-width;
#X msg 34 629 width \$1;
#X obj 255 617 r \$0-reset;
#X msg 255 640 0 0 0;
#X obj 605 626 moses 2000;
#X msg 661 647 2000;
#X floatatom 605 654 5 0 0 0 - - -, f 5;
#X obj 554 604 moses 0.5;
#X obj 200 467 r \$0-deltime;
#X floatatom 200 498 5 0 0 0 - - -, f 5;
#X msg 554 635 0;
#X obj 167 701 alpha;
#X obj 253 668 loadbang;
#X msg 253 690 1;
#X obj 381 102 % 19;
#X obj 419 78 r \$0-arraysize;
#X obj 419 101 + 1;
#X obj 122 508 del 0;
#X obj 611 484 pack f f f;
#X obj 166 642 color 1 0 0;
#X obj 483 626 < 2;
#X floatatom 482 649 5 0 0 0 - - -, f 5;
#X obj 165 668 spigot;
#X obj 34 605 * 2;
#X connect 0 0 36 0;
#X connect 1 0 30 0;
#X connect 2 0 43 0;
#X connect 2 1 42 0;
#X connect 2 2 41 0;
#X connect 3 0 38 0;
#X connect 3 1 39 0;
#X connect 3 2 40 0;
#X connect 4 0 32 0;
#X connect 4 1 29 0;
#X connect 4 2 1 0;
#X connect 6 0 20 0;
#X connect 7 0 20 1;
#X connect 8 0 20 2;
#X connect 9 0 12 1;
#X connect 9 1 66 0;
#X connect 10 0 13 1;
#X connect 10 1 66 1;
#X connect 11 0 14 1;
#X connect 11 1 66 2;
#X connect 12 0 28 1;
#X connect 13 0 27 1;
#X connect 14 0 26 1;
#X connect 15 0 18 0;
#X connect 15 1 12 0;
#X connect 15 2 6 1;
#X connect 16 0 18 1;
#X connect 16 1 13 0;
#X connect 16 2 7 1;
#X connect 17 0 18 2;
#X connect 17 1 14 0;
#X connect 17 2 8 1;
#X connect 18 0 19 0;
#X connect 19 0 5 1;
#X connect 19 1 21 0;
#X connect 20 0 44 0;
#X connect 21 0 35 0;
#X connect 21 0 68 0;
#X connect 22 0 23 0;
#X connect 23 0 33 0;
#X connect 24 0 55 0;
#X connect 25 0 65 0;
#X connect 26 0 8 0;
#X connect 27 0 7 0;
#X connect 28 0 6 0;
#X connect 29 0 3 0;
#X connect 30 0 62 0;
#X connect 32 0 22 0;
#X connect 33 0 25 0;
#X connect 33 1 28 0;
#X connect 33 2 27 0;
#X connect 33 3 26 0;
#X connect 34 0 35 1;
#X connect 35 0 24 0;
#X connect 36 0 67 0;
#X connect 38 0 15 0;
#X connect 39 0 16 0;
#X connect 40 0 17 0;
#X connect 41 0 11 0;
#X connect 42 0 10 0;
#X connect 43 0 9 0;
#X connect 45 0 5 2;
#X connect 46 0 34 0;
#X connect 47 0 4 0;
#X connect 48 0 71 0;
#X connect 49 0 5 0;
#X connect 50 0 51 0;
#X connect 51 0 5 1;
#X connect 51 0 5 2;
#X connect 52 0 54 0;
#X connect 52 1 53 0;
#X connect 53 0 54 0;
#X connect 54 0 31 0;
#X connect 55 0 58 0;
#X connect 55 1 52 0;
#X connect 56 0 57 0;
#X connect 57 0 65 1;
#X connect 58 0 54 0;
#X connect 59 0 5 0;
#X connect 60 0 61 0;
#X connect 61 0 59 1;
#X connect 62 0 2 0;
#X connect 63 0 64 0;
#X connect 64 0 62 1;
#X connect 65 0 37 0;
#X connect 66 0 21 1;
#X connect 67 0 70 0;
#X connect 68 0 69 0;
#X connect 69 0 70 1;
#X connect 70 0 59 0;
#X connect 71 0 49 0;
#X restore 145 411 pd head-line;
#X obj 131 683 outlet;
#X obj 562 261 repeat 1000;
#X obj 742 258 r \$0-length;
#X obj 562 433 f;
#X obj 590 433 + 1;
#X obj 619 433 % 1000;
#X obj 562 482 t f f;
#X obj 561 635 tabread \$0_x;
#X obj 561 660 tabwrite \$0_x_1;
#X obj 562 454 t f f f;
#X obj 676 487 t f f;
#X obj 789 493 t f f;
#X obj 676 630 tabread \$0_y;
#X obj 676 655 tabwrite \$0_y_1;
#X obj 789 645 tabread \$0_z;
#X obj 789 670 tabwrite \$0_z_1;
#X msg 577 405 0;
#X obj 562 532 +;
#X obj 676 536 +;
#X obj 789 534 +;
#X obj 562 223 t b b f f;
#X floatatom 596 331 5 0 0 0 - - -, f 5;
#X floatatom 796 283 5 0 0 0 - - -, f 5;
#X floatatom 804 459 5 0 0 0 - - -, f 5;
#X obj 596 377 t f f f;
#X obj 690 151 loadbang;
#X msg 690 177 2000;
#X obj 196 196 t a b b;
#X obj 7 420 f \$0;
#X msg 7 454 \; \$1_x_1 const 0 \; \$1_x const 0 \; \$1_y_1 const 0
\; \$1_y const 0 \; \$1_z_1 const 0 \; \$1_z const 0 \;;
#X obj 754 237 s \$0-resize;
#X msg 754 212 0;
#X obj 779 204 s \$0-width;
#X obj 699 122 s \$0-reset;
#X obj 125 90 r \$0-reset;
#X obj 125 112 t b b b;
#X obj 161 165 s \$0-arraysize;
#X msg 164 142 0;
#X obj 352 312 r \$0-arraysize;
#X obj 352 333 + 1;
#X floatatom 352 385 5 0 0 0 - - -, f 5;
#X text 634 329 repeat time;
#X obj 296 444 %;
#X obj 313 547 s \$0-id;
#X obj 626 508 r \$0-arraysize;
#X floatatom 626 555 5 0 0 0 - - -, f 5;
#X obj 562 586 % 60;
#X obj 676 593 % 60;
#X obj 789 589 % 60;
#X obj 596 308 expr if($f1-$f2<=0 \, $f1 \, $f2);
#X obj 1168 396 r \$0-arraysize;
#X obj 1168 417 + 1;
#X floatatom 1168 443 5 0 0 0 - - -, f 5;
#X obj 913 512 expr if($f1-$f2<=0 \, $f3+$f1-$f2 \, $f1-$f2+1);
#X floatatom 562 198 5 0 0 0 - - -, f 5;
#X obj 534 227 bng 15 250 50 0 empty empty empty 17 7 0 10 -262144
-1 -1;
#X floatatom 707 350 5 0 0 0 - - -, f 5;
#X obj 707 372 + 1;
#X obj 707 397 moses 20;
#X msg 752 422 39.5;
#X floatatom 707 419 5 0 0 0 - - -, f 5;
#X obj 804 373 r \$0-length;
#X obj 804 399 - 1;
#X obj 880 454 cyclone/gate 2;
#X obj 1044 376 r \$0-length;
#X obj 296 416 t f f f;
#X floatatom 880 428 5 0 0 0 - - -, f 5;
#X obj 880 484 expr if($f1<$f2 \, 0 \, $f1-$f2+1);
#X obj 707 447 v \$0-ss;
#X obj 296 570 v \$0-ss;
#X obj 296 518 t b f f f;
#X obj 296 620 s \$0-resize;
#X msg 804 422 set \$1;
#X obj 596 351 + 1;
#X obj 296 490 moses 20000;
#X obj 811 179 s \$0-resize;
#X obj 840 156 s \$0-deltime;
#X obj 296 343 list;
#X obj 130 299 t a a a a b;
#X obj 296 367 change;
#X obj 354 197 tgl 15 0 empty empty empty 17 7 0 10 -262144 -1 -1 1
1;
#X obj 627 529 + 1;
#X obj 562 176 + 1;
#X floatatom 918 544 5 0 0 0 - - -, f 5;
#X obj 869 510 + 0;
#X obj 296 391 t f f;
#X obj 379 575 tgl 15 0 empty empty empty 17 7 0 10 -262144 -1 -1 1
1;
#X obj 296 593 + 0;
#X obj 379 552 > 12;
#X obj 918 567 + 0;
#X obj 880 404 expr if($f1<=$f2-2 \, 1 \, 2);
#X obj 383 425 outlet total;
#X obj 315 153 del 200;
#X floatatom 388 254 5 0 0 0 - - -, f 5;
#X obj 348 249 + 1;
#X obj 426 529 outlet now;
#X floatatom 426 503 5 0 0 0 - - -, f 5;
#X obj 782 120 s \$0-drawpoint;
#X obj 460 587 outlet now;
#N canvas 717 218 483 513 now 0;
#X obj 114 -39 inlet;
#X obj 114 122 t f f;
#X obj 113 205 t f f f;
#X obj 242 204 t f f f;
#X obj 110 352 pack f f f f f f;
#X obj 110 389 outlet;
#X obj 115 60 random;
#X obj 115 12 f;
#X obj 145 11 + 1;
#X obj 115 38 sel 0;
#X floatatom 114 90 5 0 0 0 - - -, f 5;
#X obj 175 14 % 50;
#X obj 113 284 tabread \$0_x_1;
#X obj 206 284 tabread \$0_x_1;
#X obj 239 259 tabread \$0_y_1;
#X obj 281 233 tabread \$0_z_1;
#X obj 152 234 tabread \$0_z_1;
#X obj 132 255 tabread \$0_y_1;
#X obj 195 93 moses 1;
#X obj 141 151 - 1;
#X obj 114 181 - 0;
#X obj 114 -11 t b f f;
#X floatatom 232 119 5 0 0 0 - - -, f 5;
#X connect 0 0 21 0;
#X connect 1 0 20 0;
#X connect 1 1 19 0;
#X connect 2 0 12 0;
#X connect 2 1 17 0;
#X connect 2 2 16 0;
#X connect 3 0 13 0;
#X connect 3 1 14 0;
#X connect 3 2 15 0;
#X connect 4 0 5 0;
#X connect 6 0 10 0;
#X connect 7 0 8 0;
#X connect 7 0 9 0;
#X connect 8 0 11 0;
#X connect 9 0 6 0;
#X connect 11 0 7 1;
#X connect 12 0 4 0;
#X connect 13 0 4 3;
#X connect 14 0 4 4;
#X connect 15 0 4 5;
#X connect 16 0 4 2;
#X connect 17 0 4 1;
#X connect 18 1 1 0;
#X connect 18 1 22 0;
#X connect 19 0 3 0;
#X connect 20 0 2 0;
#X connect 21 0 7 0;
#X connect 21 1 6 1;
#X connect 21 2 18 0;
#X restore 460 563 pd now;
#X floatatom 901 62 5 0 0 0 - - -, f 5;
#X obj 125 532 f;
#X obj 158 532 + 1;
#X obj 195 532 % 100;
#X obj 176 472 r \$0-speed;
#X obj 125 502 metro 100;
#X obj 125 559 t f f f;
#X obj 125 588 tabread \$0_x_1;
#X obj 143 613 tabread \$0_y_1;
#X obj 166 637 tabread \$0_z_1;
#X obj 131 658 pack f f f;
#X obj 959 146 s \$0-shape;
#N canvas 282 176 998 521 color 0;
#X obj 156 277 pack f f f;
#X obj 192 107 + 1;
#X obj 158 133 t f f;
#X obj 322 285 pack f f f;
#X obj 322 185 t f f f;
#X obj 322 130 + 1;
#X obj 156 329 distance_n;
#X obj 154 435 tabwrite \$0_ccc;
#X obj 156 177 t f f f f;
#X obj 158 107 f 0;
#X obj 158 72 repeat 250;
#X msg 246 69 0;
#X obj 322 156 expr if($f1==$f2 \, 0 \, $f1);
#X obj 158 34 t b f b f, f 13;
#X obj 252 362 moses 0;
#X msg 251 384 0;
#X floatatom 296 390 5 0 0 0 - - -, f 5;
#X obj 252 331 + 1;
#X obj 157 -13 inlet;
#X obj 156 209 tabread \$0_x;
#X obj 179 232 tabread \$0_y;
#X obj 202 251 tabread \$0_z;
#X obj 322 217 tabread \$0_x;
#X obj 345 240 tabread \$0_y;
#X obj 368 259 tabread \$0_z;
#X obj 156 356 < 2;
#X obj 539 221 inlet;
#X obj 539 243 unpack f f f;
#X obj 491 326 pack f f;
#X obj 528 275 t f b;
#X obj 558 299 f \$0;
#X msg 489 354 \; \$2_r const \$1;
#X obj 606 337 pack f f;
#X obj 643 286 t f b;
#X obj 673 310 f \$0;
#X obj 736 339 pack f f;
#X obj 773 288 t f b;
#X obj 803 312 f \$0;
#X msg 604 365 \; \$2_g const \$1;
#X msg 734 366 \; \$2_b const \$1;
#X connect 0 0 6 0;
#X connect 1 0 9 1;
#X connect 2 0 8 0;
#X connect 2 1 5 0;
#X connect 3 0 6 1;
#X connect 4 0 22 0;
#X connect 4 1 23 0;
#X connect 4 2 24 0;
#X connect 5 0 12 0;
#X connect 6 0 25 0;
#X connect 8 0 19 0;
#X connect 8 1 20 0;
#X connect 8 2 21 0;
#X connect 8 3 17 0;
#X connect 9 0 1 0;
#X connect 9 0 2 0;
#X connect 10 0 9 0;
#X connect 11 0 9 1;
#X connect 12 0 4 0;
#X connect 13 0 10 0;
#X connect 13 1 10 1;
#X connect 13 2 11 0;
#X connect 13 3 12 1;
#X connect 14 0 15 0;
#X connect 14 1 16 0;
#X connect 15 0 7 1;
#X connect 16 0 7 1;
#X connect 17 0 14 0;
#X connect 18 0 13 0;
#X connect 19 0 0 0;
#X connect 20 0 0 1;
#X connect 21 0 0 2;
#X connect 22 0 3 0;
#X connect 23 0 3 1;
#X connect 24 0 3 2;
#X connect 25 0 7 0;
#X connect 26 0 27 0;
#X connect 27 0 29 0;
#X connect 27 1 33 0;
#X connect 27 2 36 0;
#X connect 28 0 31 0;
#X connect 29 0 28 0;
#X connect 29 1 30 0;
#X connect 30 0 28 1;
#X connect 32 0 38 0;
#X connect 33 0 32 0;
#X connect 33 1 34 0;
#X connect 34 0 32 1;
#X connect 35 0 39 0;
#X connect 36 0 35 0;
#X connect 36 1 37 0;
#X connect 37 0 35 1;
#X restore 471 385 pd color;
#X obj 352 358 t f f f;
#X msg 482 102 50;
#X obj -7 101 table \$0_r 5000;
#X obj -4 122 table \$0_g 5000;
#X obj -4 147 table \$0_b 5000;
#X obj 4 180 table \$0_ccc 5000;
#X obj 5 200 table \$0_x_1 5000;
#X obj 5 222 table \$0_y_1 5000;
#X obj 5 245 table \$0_z_1 5000;
#X obj 3 266 table \$0_x 5000;
#X obj 3 288 table \$0_y 5000;
#X obj 3 310 table \$0_z 5000;
#X obj 441 63 route start speed read loop stop length width reset resize
deltime scale step point shape color;
#X connect 0 0 2 0;
#X connect 0 0 114 0;
#X connect 1 0 10 0;
#X connect 2 0 97 1;
#X connect 3 0 98 0;
#X connect 4 0 1 0;
#X connect 5 0 145 0;
#X connect 6 0 0 1;
#X connect 6 0 16 0;
#X connect 7 0 8 0;
#X connect 8 0 112 0;
#X connect 8 1 9 0;
#X connect 9 0 100 0;
#X connect 10 0 0 0;
#X connect 11 0 100 0;
#X connect 21 0 23 0;
#X connect 22 0 42 0;
#X connect 22 0 78 1;
#X connect 23 0 24 0;
#X connect 23 0 29 0;
#X connect 24 0 25 0;
#X connect 25 0 23 1;
#X connect 26 0 37 0;
#X connect 26 1 28 1;
#X connect 27 0 28 0;
#X connect 29 0 26 0;
#X connect 29 1 30 0;
#X connect 29 2 31 0;
#X connect 30 0 38 0;
#X connect 30 1 33 1;
#X connect 31 0 39 0;
#X connect 31 1 35 1;
#X connect 32 0 33 0;
#X connect 34 0 35 0;
#X connect 36 0 23 1;
#X connect 37 0 66 0;
#X connect 38 0 67 0;
#X connect 39 0 68 0;
#X connect 40 0 21 0;
#X connect 40 1 36 0;
#X connect 40 3 83 1;
#X connect 41 0 93 0;
#X connect 41 0 76 0;
#X connect 42 0 69 1;
#X connect 42 0 73 1;
#X connect 43 0 37 1;
#X connect 43 0 38 1;
#X connect 43 0 39 1;
#X connect 44 0 21 1;
#X connect 44 1 25 1;
#X connect 44 2 123 1;
#X connect 45 0 46 0;
#X connect 45 0 134 0;
#X connect 45 0 51 0;
#X connect 46 0 12 0;
#X connect 47 0 13 0;
#X connect 47 1 6 0;
#X connect 47 2 48 0;
#X connect 48 0 49 0;
#X connect 51 0 50 0;
#X connect 54 0 55 0;
#X connect 55 0 6 0;
#X connect 55 1 48 0;
#X connect 55 2 57 0;
#X connect 57 0 56 0;
#X connect 58 0 59 0;
#X connect 58 0 108 1;
#X connect 59 0 133 0;
#X connect 60 0 62 1;
#X connect 62 0 94 0;
#X connect 62 0 116 0;
#X connect 64 0 101 0;
#X connect 65 0 66 1;
#X connect 65 0 67 1;
#X connect 65 0 68 1;
#X connect 66 0 27 0;
#X connect 67 0 32 0;
#X connect 68 0 34 0;
#X connect 69 0 41 0;
#X connect 70 0 71 0;
#X connect 71 0 72 0;
#X connect 72 0 73 2;
#X connect 73 0 103 0;
#X connect 74 0 40 0;
#X connect 75 0 21 0;
#X connect 76 0 77 0;
#X connect 77 0 78 0;
#X connect 78 0 80 0;
#X connect 78 1 79 0;
#X connect 79 0 80 0;
#X connect 80 0 88 0;
#X connect 81 0 82 0;
#X connect 82 0 92 0;
#X connect 83 0 87 0;
#X connect 83 1 73 0;
#X connect 84 0 87 1;
#X connect 84 0 110 1;
#X connect 85 0 62 0;
#X connect 85 1 69 0;
#X connect 85 2 110 0;
#X connect 86 0 83 0;
#X connect 87 0 104 0;
#X connect 89 0 107 0;
#X connect 90 0 89 0;
#X connect 90 1 63 0;
#X connect 90 3 102 0;
#X connect 92 0 79 0;
#X connect 93 0 44 0;
#X connect 94 0 90 0;
#X connect 97 0 99 0;
#X connect 98 0 17 0;
#X connect 98 1 19 0;
#X connect 98 2 14 0;
#X connect 98 3 15 0;
#X connect 98 4 97 0;
#X connect 99 0 105 0;
#X connect 100 0 10 1;
#X connect 100 0 125 0;
#X connect 101 0 65 0;
#X connect 102 0 74 0;
#X connect 103 0 109 0;
#X connect 104 0 43 0;
#X connect 105 0 85 0;
#X connect 105 1 108 0;
#X connect 106 0 107 1;
#X connect 107 0 91 0;
#X connect 108 0 106 0;
#X connect 109 0 43 0;
#X connect 110 0 86 0;
#X connect 112 0 1 0;
#X connect 113 0 114 1;
#X connect 114 0 0 1;
#X connect 116 0 115 0;
#X connect 116 0 119 0;
#X connect 119 0 118 0;
#X connect 121 0 122 0;
#X connect 121 0 126 0;
#X connect 122 0 123 0;
#X connect 123 0 121 1;
#X connect 124 0 125 1;
#X connect 125 0 121 0;
#X connect 126 0 127 0;
#X connect 126 1 128 0;
#X connect 126 2 129 0;
#X connect 127 0 130 0;
#X connect 128 0 130 1;
#X connect 129 0 130 2;
#X connect 130 0 20 0;
#X connect 133 0 60 0;
#X connect 133 1 111 0;
#X connect 133 2 132 0;
#X connect 134 0 18 0;
#X connect 145 0 7 0;
#X connect 145 1 18 0;
#X connect 145 2 47 0;
#X connect 145 4 11 0;
#X connect 145 5 12 0;
#X connect 145 6 52 0;
#X connect 145 7 53 0;
#X connect 145 8 95 0;
#X connect 145 9 96 0;
#X connect 145 10 13 1;
#X connect 145 11 113 0;
#X connect 145 12 117 0;
#X connect 145 13 120 0;
#X connect 145 13 131 0;
#X connect 145 14 132 1;
