#N canvas 627 217 632 447 10;
#X obj -15 241 gemwin;
#X obj -72 161 k_camera;
#X obj -55 -119 gemhead;
#X obj -55 1 alpha;
#X obj -12 -12 loadbang;
#X msg -12 12 1;
#X msg 19 12 auto 1;
#X msg 113 -19 stop;
#X msg 151 -19 start;
#X floatatom 10 151 5 0 0 1 total - -;
#X floatatom -4 111 5 0 0 1 now - -;
#X obj -55 85 linemodel;
#X msg 71 -40 reset;
#X obj -55 -70 t a b;
#X obj -55 -39 rotateXYZ 0 0 0;
#X msg -15 214 destroy \, reset \, FSAA 8 \, dimen 600 600 \, create
\, 1;
#X msg 147 39 width \$1;
#X floatatom 147 17 5 1 10 0 - - -;
#X obj -55 35 colorRGB 0.1 0.3 0.8 0.4;
#X floatatom 227 8 5 0 0 0 - - -;
#X msg 217 40 speed \$1;
#X obj 3 -68 k_count 0.2 360;
#X obj -55 -93 scale 2;
#X obj 125 72 loadbang;
#X msg 118 170 length \$1;
#X obj 118 146 / 2;
#X msg 125 100 read model/grid.txt \, speed 1000 \, width 3 \, start
;
#X connect 1 0 0 0;
#X connect 2 0 22 0;
#X connect 3 0 18 0;
#X connect 4 0 5 0;
#X connect 4 0 6 0;
#X connect 5 0 3 1;
#X connect 6 0 3 0;
#X connect 7 0 11 1;
#X connect 8 0 11 1;
#X connect 9 0 25 0;
#X connect 11 1 9 0;
#X connect 11 2 10 0;
#X connect 12 0 11 1;
#X connect 13 0 14 0;
#X connect 13 1 21 0;
#X connect 14 0 3 0;
#X connect 15 0 0 0;
#X connect 16 0 11 1;
#X connect 17 0 16 0;
#X connect 18 0 11 0;
#X connect 19 0 20 0;
#X connect 20 0 11 1;
#X connect 21 0 14 2;
#X connect 22 0 13 0;
#X connect 23 0 26 0;
#X connect 24 0 11 1;
#X connect 25 0 24 0;
#X connect 26 0 11 1;
