#N canvas 138 42 1273 737 10;
#X obj 181 -44 f;
#X obj 175 -111 bng 15 250 50 0 empty empty empty 17 7 0 10 -262144
-1 -1;
#X floatatom 181 -12 5 0 0 0 - - -;
#X obj -10 -24 inlet;
#X obj 90 -176 r \$0-tonext;
#X obj 302 -252 inlet;
#X msg 75 -36 0;
#X obj 176 -189 bng 15 250 50 0 empty empty empty 17 7 0 10 -262144
-1 -1;
#X obj 176 -165 t b b;
#X msg 219 -134 1;
#X obj 181 -74 spigot;
#X msg 265 -152 0;
#X obj 453 -146 s \$0-length;
#N canvas 90 277 711 592 readobj 0;
#X obj 13 331 f;
#X floatatom 13 354 10 0 0 0 - - -;
#X obj -24 387 unpack f f f;
#X obj 43 331 + 1;
#X obj -24 268 t a b;
#X obj 135 323 qlist;
#X msg 28 301 0;
#X msg 150 268 clear;
#X obj -23 172 r v;
#X obj 2 55 r vt;
#X obj 4 80 r vn;
#X obj 4 105 r f;
#X obj 5 132 r g;
#X obj 43 67 r usemtl;
#X obj -25 420 * 1;
#X obj 6 442 * 1;
#X obj 60 429 * 1;
#X obj 83 394 s \$0-arraysize;
#X obj -23 242 spigot;
#X obj 63 228 t b b b b b a b;
#X msg 10 196 0;
#X obj 53 125 t a b;
#X msg 80 152 1;
#X obj -44 69 r #;
#X obj -44 94 r (c);
#X obj -43 121 r mtllib;
#X obj 7 467 tabwrite \$0_y;
#X obj -28 502 tabwrite \$0_x;
#X obj 45 530 tabwrite \$0_z;
#X obj 15 224 tgl 15 0 empty empty empty 17 7 0 10 -262144 -1 -1 0
1;
#X obj 56 94 inlet;
#X obj 3 22 r s;
#X obj 240 302 getdir 2;
#X obj 240 328 pack s s;
#X obj 296 328 symbol;
#X obj 240 279 t b a;
#X msg 240 374 read \$1;
#X obj 240 350 makesymbol %s/%s;
#X obj 131 180 route list;
#X obj 131 155 list prepend read;
#X obj 421 91 inlet;
#X floatatom 417 129 5 0 0 0 - - -;
#X msg 179 360 print;
#X connect 0 0 1 0;
#X connect 0 0 3 0;
#X connect 1 0 17 0;
#X connect 1 0 26 1;
#X connect 1 0 27 1;
#X connect 1 0 28 1;
#X connect 2 0 14 0;
#X connect 2 1 15 0;
#X connect 2 2 16 0;
#X connect 3 0 0 1;
#X connect 4 0 2 0;
#X connect 4 1 0 0;
#X connect 5 1 20 0;
#X connect 6 0 0 1;
#X connect 7 0 5 0;
#X connect 8 0 18 0;
#X connect 14 0 27 0;
#X connect 15 0 26 0;
#X connect 16 0 28 0;
#X connect 18 0 4 0;
#X connect 19 2 5 0;
#X connect 19 4 6 0;
#X connect 19 5 35 0;
#X connect 19 6 7 0;
#X connect 20 0 29 0;
#X connect 21 0 19 0;
#X connect 21 1 22 0;
#X connect 22 0 29 0;
#X connect 29 0 18 1;
#X connect 30 0 21 0;
#X connect 32 0 33 0;
#X connect 33 0 37 0;
#X connect 34 0 33 1;
#X connect 35 0 32 0;
#X connect 35 1 34 0;
#X connect 36 0 5 0;
#X connect 37 0 36 0;
#X connect 39 0 38 0;
#X connect 40 0 14 1;
#X connect 40 0 15 1;
#X connect 40 0 16 1;
#X connect 40 0 41 0;
#X connect 42 0 5 0;
#X restore 56 -70 pd readobj;
#N canvas 198 197 405 547 point 0;
#X obj -49 290 gemvertexbuffer;
#X obj -172 222 loadbang;
#X obj -47 146 t a b;
#X msg -172 247 shape point;
#X obj -49 250 GEMglPointSize 3;
#X obj -47 115 separator;
#X obj 38 161 f \$0;
#X obj -48 56 inlet;
#X msg 23 133 resize \$1;
#X floatatom 23 66 5 0 0 0 - - -;
#X obj 23 44 r \$0-resize;
#X msg 38 184 position \$1_x_1 \$1_y_1 \$1_z_1;
#X obj -47 85 spigot;
#X obj -11 4 r \$0-drawpoint;
#X connect 1 0 3 0;
#X connect 2 0 4 0;
#X connect 2 1 6 0;
#X connect 3 0 0 0;
#X connect 4 0 0 0;
#X connect 5 0 2 0;
#X connect 6 0 11 0;
#X connect 7 0 12 0;
#X connect 8 0 0 0;
#X connect 9 0 8 0;
#X connect 10 0 9 0;
#X connect 11 0 0 0;
#X connect 12 0 5 0;
#X connect 13 0 12 1;
#X restore 21 62 pd point;
#N canvas 648 168 594 398 line 0;
#X obj 180 270 gemvertexbuffer;
#X obj 204 220 loadbang;
#X obj 180 120 t a b;
#X msg 244 113 resize \$1;
#X floatatom 244 46 5 0 0 0 - - -;
#X obj 180 89 separator;
#X obj 207 150 f \$0;
#X obj 180 51 inlet;
#X msg 207 176 position \$1_x_1 \$1_y_1 \$1_z_1;
#X obj 244 24 r \$0-resize;
#X obj 295 306 r \$0-width;
#X msg 295 327 width \$1;
#X msg 469 32 shape lines;
#X msg 479 53 shape points;
#X msg 470 74 shape lineloop;
#X msg 470 95 shape linestrip;
#X msg 478 120 shape tri;
#X msg 478 141 shape tristrip;
#X msg 483 171 shape trifan;
#X msg 491 196 shape quad;
#X msg 491 217 shape quadstrip;
#X msg 492 245 shape fill;
#X obj 444 295 t a;
#X msg 204 245 shape linestrip \, width 1;
#X msg 443 340 draw linestrip;
#X connect 1 0 23 0;
#X connect 2 0 0 0;
#X connect 2 1 6 0;
#X connect 3 0 0 0;
#X connect 4 0 3 0;
#X connect 5 0 2 0;
#X connect 6 0 8 0;
#X connect 7 0 5 0;
#X connect 8 0 0 0;
#X connect 9 0 4 0;
#X connect 10 0 11 0;
#X connect 11 0 0 0;
#X connect 12 0 22 0;
#X connect 13 0 22 0;
#X connect 14 0 22 0;
#X connect 15 0 22 0;
#X connect 16 0 22 0;
#X connect 17 0 22 0;
#X connect 18 0 22 0;
#X connect 19 0 22 0;
#X connect 20 0 22 0;
#X connect 21 0 22 0;
#X connect 22 0 0 0;
#X connect 23 0 0 0;
#X connect 24 0 0 0;
#X restore 37 36 pd line;
#X obj 75 -1 s \$0-resize;
#N canvas 186 419 450 300 head-point 0;
#X obj 138 114 translateXYZ;
#X obj 138 79 separator;
#X obj 136 42 inlet;
#X obj 209 78 unpack f f f;
#X obj 209 38 r \$0-move-pos;
#X obj 276 144 r \$0-width;
#X obj 276 170 * 0.05;
#X obj 139 145 color 1 1 1;
#X obj 137 175 alpha;
#X obj 210 165 loadbang;
#X msg 210 187 1;
#X obj 137 207 sphere 0.03 30;
#X connect 0 0 7 0;
#X connect 1 0 0 0;
#X connect 2 0 1 0;
#X connect 3 0 0 1;
#X connect 3 1 0 2;
#X connect 3 2 0 3;
#X connect 4 0 3 0;
#X connect 5 0 6 0;
#X connect 7 0 8 0;
#X connect 8 0 11 0;
#X connect 9 0 10 0;
#X connect 10 0 8 1;
#X restore -10 87 pd head-point;
#X obj 332 -156 s \$0-speed;
#N canvas 356 22 812 774 head-line 0;
#X obj 166 595 inlet;
#X obj 381 58 + 1;
#X obj 381 129 t f f f;
#X obj 238 180 t f f f;
#X obj 219 133 t b f f;
#X obj 166 711 curve 2;
#X obj 338 617 +;
#X obj 366 615 +;
#X obj 395 616 +;
#X obj 381 273 t f f;
#X obj 400 221 t f f;
#X obj 450 224 t f f;
#X obj 437 481 -;
#X obj 467 481 -;
#X obj 496 481 -;
#X obj 238 290 t f f f;
#X obj 257 313 t f f f;
#X obj 298 338 t f f f;
#X obj 245 395 pack f f f;
#X obj 245 425 t a a;
#X obj 338 646 pack f f f;
#X obj 554 535 distance_n;
#X msg 122 398 0 \, 1 \$1;
#X obj 122 422 line;
#X floatatom 554 580 5 0 0 0 - - -;
#X obj 122 482 sel 1;
#X obj 397 517 expr -1*($f2*$f1);
#X obj 368 544 expr -1*($f2*$f1);
#X obj 338 571 expr -1*($f2*$f1);
#X floatatom 238 158 5 0 0 0 - - -;
#X floatatom 381 80 5 0 0 0 - - -;
#X obj 605 679 v \$0_time;
#X obj 122 371 v \$0_time;
#X obj 122 448 t f f f f;
#X floatatom 653 533 5 0 0 0 - - -;
#X obj 554 557 expr int($f1*$f2);
#X obj 166 618 separator;
#X obj 122 532 s \$0-tonext;
#X obj 238 259 tabread \$0_x;
#X obj 257 230 tabread \$0_y;
#X obj 277 209 tabread \$0_z;
#X obj 450 175 tabread \$0_z;
#X obj 400 196 tabread \$0_y;
#X obj 381 240 tabread \$0_x;
#X obj 338 669 s \$0-move-pos;
#X obj 205 573 r \$0-move-pos;
#X obj 653 508 r \$0-speed;
#X obj 219 104 r \$0-id;
#X obj 34 581 r \$0-width;
#X msg 34 629 width \$1;
#X obj 245 617 r \$0-reset;
#X msg 245 640 0 0 0;
#X obj 605 626 moses 2000;
#X msg 661 647 2000;
#X floatatom 605 654 5 0 0 0 - - -;
#X obj 554 604 moses 0.5;
#X obj 200 467 r \$0-deltime;
#X floatatom 200 498 5 0 0 0 - - -;
#X msg 554 635 0;
#X obj 166 642 color 1 1 1;
#X obj 166 678 alpha;
#X obj 243 668 loadbang;
#X msg 243 690 1;
#X obj 114 572 loadbang;
#X obj 381 102 % 19;
#X obj 419 78 r \$0-arraysize;
#X obj 419 101 + 1;
#X obj 34 605 * 1;
#X msg 114 594 1;
#X obj 122 508 del 0;
#X obj 611 484 pack f f f;
#X connect 0 0 36 0;
#X connect 1 0 30 0;
#X connect 2 0 43 0;
#X connect 2 1 42 0;
#X connect 2 2 41 0;
#X connect 3 0 38 0;
#X connect 3 1 39 0;
#X connect 3 2 40 0;
#X connect 4 0 32 0;
#X connect 4 1 29 0;
#X connect 4 2 1 0;
#X connect 6 0 20 0;
#X connect 7 0 20 1;
#X connect 8 0 20 2;
#X connect 9 0 12 1;
#X connect 9 1 70 0;
#X connect 10 0 13 1;
#X connect 10 1 70 1;
#X connect 11 0 14 1;
#X connect 11 1 70 2;
#X connect 12 0 28 1;
#X connect 13 0 27 1;
#X connect 14 0 26 1;
#X connect 15 0 18 0;
#X connect 15 1 12 0;
#X connect 15 2 6 1;
#X connect 16 0 18 1;
#X connect 16 1 13 0;
#X connect 16 2 7 1;
#X connect 17 0 18 2;
#X connect 17 1 14 0;
#X connect 17 2 8 1;
#X connect 18 0 19 0;
#X connect 19 0 5 1;
#X connect 19 1 21 0;
#X connect 20 0 44 0;
#X connect 21 0 35 0;
#X connect 22 0 23 0;
#X connect 23 0 33 0;
#X connect 24 0 55 0;
#X connect 25 0 69 0;
#X connect 26 0 8 0;
#X connect 27 0 7 0;
#X connect 28 0 6 0;
#X connect 29 0 3 0;
#X connect 30 0 64 0;
#X connect 32 0 22 0;
#X connect 33 0 25 0;
#X connect 33 1 28 0;
#X connect 33 2 27 0;
#X connect 33 3 26 0;
#X connect 34 0 35 1;
#X connect 35 0 24 0;
#X connect 36 0 59 0;
#X connect 38 0 15 0;
#X connect 39 0 16 0;
#X connect 40 0 17 0;
#X connect 41 0 11 0;
#X connect 42 0 10 0;
#X connect 43 0 9 0;
#X connect 45 0 5 2;
#X connect 46 0 34 0;
#X connect 47 0 4 0;
#X connect 48 0 67 0;
#X connect 49 0 5 0;
#X connect 50 0 51 0;
#X connect 51 0 5 1;
#X connect 51 0 5 2;
#X connect 52 0 54 0;
#X connect 52 1 53 0;
#X connect 53 0 54 0;
#X connect 54 0 31 0;
#X connect 55 0 58 0;
#X connect 55 1 52 0;
#X connect 56 0 57 0;
#X connect 57 0 69 1;
#X connect 58 0 54 0;
#X connect 59 0 60 0;
#X connect 60 0 5 0;
#X connect 61 0 62 0;
#X connect 62 0 60 1;
#X connect 63 0 68 0;
#X connect 64 0 2 0;
#X connect 65 0 66 0;
#X connect 66 0 64 1;
#X connect 67 0 49 0;
#X connect 68 0 49 0;
#X connect 69 0 37 0;
#X connect 70 0 21 1;
#X restore 5 119 pd head-line;
#X obj -9 435 outlet;
#X obj 422 -31 repeat 1000;
#X obj 627 -37 r \$0-length;
#X obj 422 141 f;
#X obj 450 141 + 1;
#X obj 479 141 % 1000;
#X obj 422 190 t f f;
#X obj 421 343 tabread \$0_x;
#X obj 421 368 tabwrite \$0_x_1;
#X obj 422 162 t f f f;
#X obj 536 195 t f f;
#X obj 649 201 t f f;
#X obj 536 338 tabread \$0_y;
#X obj 536 363 tabwrite \$0_y_1;
#X obj 649 353 tabread \$0_z;
#X obj 649 378 tabwrite \$0_z_1;
#X msg 437 113 0;
#X obj 422 240 +;
#X obj 536 244 +;
#X obj 649 242 +;
#X obj 422 -69 t b b f f;
#X floatatom 456 39 5 0 0 0 - - -;
#X floatatom 627 -12 5 0 0 0 - - -;
#X floatatom 664 167 5 0 0 0 - - -;
#X obj 456 85 t f f f;
#X obj 550 -141 loadbang;
#X msg 550 -113 2000;
#X msg 520 -95 1000;
#X obj 56 -96 t a b b;
#X obj -133 128 f \$0;
#X msg -133 162 \; \$1_x_1 const 0 \; \$1_x const 0 \; \$1_y_1 const
0 \; \$1_y const 0 \; \$1_z_1 const 0 \; \$1_z const 0 \;;
#X obj 614 -55 s \$0-resize;
#X msg 614 -80 0;
#X obj 687 -104 s \$0-width;
#X obj 559 -170 s \$0-reset;
#X obj -26 -190 r \$0-reset;
#X obj -26 -168 t b b b;
#X obj 21 -127 s \$0-arraysize;
#X msg 24 -150 0;
#X obj 212 20 r \$0-arraysize;
#X obj 212 41 + 1;
#X floatatom 212 93 5 0 0 0 - - -;
#X text 494 37 repeat time;
#X obj 156 152 %;
#X obj 173 255 s \$0-id;
#X obj 486 216 r \$0-arraysize;
#X floatatom 486 263 5 0 0 0 - - -;
#X obj 422 294 % 60;
#X obj 536 301 % 60;
#X obj 649 297 % 60;
#X obj 456 16 expr if($f1-$f2<=0 \, $f1 \, $f2);
#X obj 1028 104 r \$0-arraysize;
#X obj 1028 125 + 1;
#X floatatom 1028 151 5 0 0 0 - - -;
#X obj 773 220 expr if($f1-$f2<=0 \, $f3+$f1-$f2 \, $f1-$f2+1);
#X floatatom 422 -94 5 0 0 0 - - -;
#X obj 394 -65 bng 15 250 50 0 empty empty empty 17 7 0 10 -262144
-1 -1;
#X floatatom 567 58 5 0 0 0 - - -;
#X obj 567 80 + 1;
#X obj 567 105 moses 20;
#X msg 612 130 99;
#X floatatom 567 127 5 0 0 0 - - -;
#X obj 664 81 r \$0-length;
#X obj 664 107 - 1;
#X obj 740 162 gate 2;
#X obj 904 84 r \$0-length;
#X obj 156 124 t f f f;
#X floatatom 740 136 5 0 0 0 - - -;
#X obj 740 192 expr if($f1<$f2 \, 0 \, $f1-$f2+1);
#X obj 567 155 v \$0-ss;
#X obj 156 278 v \$0-ss;
#X obj 156 226 t b f f f;
#X obj 156 328 s \$0-resize;
#X msg 664 130 set \$1;
#X obj 456 59 + 1;
#X obj 156 198 moses 20000;
#X obj 719 -129 s \$0-resize;
#X obj 745 -151 s \$0-deltime;
#X obj 156 51 list;
#X obj -10 7 t a a a a b;
#X obj 156 75 change;
#X obj 214 -95 tgl 15 0 empty empty empty 17 7 0 10 -262144 -1 -1 1
1;
#X obj 487 237 + 1;
#X obj 422 -116 + 1;
#X floatatom 778 252 5 0 0 0 - - -;
#X obj -135 -70 table \$0_y_1 10000;
#X obj -135 -47 table \$0_z_1 10000;
#X obj -137 -26 table \$0_x 10000;
#X obj -137 -4 table \$0_y 10000;
#X obj -137 18 table \$0_z 10000;
#X obj -135 -92 table \$0_x_1 10000;
#X obj 729 218 + 0;
#X obj 156 99 t f f;
#X obj 239 283 tgl 15 0 empty empty empty 17 7 0 10 -262144 -1 -1 0
1;
#X obj 156 301 + 0;
#X obj 239 260 > 12;
#X obj 778 275 + 0;
#X obj 740 112 expr if($f1<=$f2-2 \, 1 \, 2);
#X obj 239 122 outlet total;
#X obj 175 -139 del 200;
#X floatatom 248 -38 5 0 0 0 - - -;
#X obj 208 -43 + 1;
#X obj 286 237 outlet now;
#X floatatom 286 211 5 0 0 0 - - -;
#X obj 301 -229 route start speed read loop stop length width reset
resize deltime scale step point;
#X obj 672 -175 s \$0-drawpoint;
#X obj 212 66 t f f;
#X obj 319 317 outlet now;
#N canvas 717 218 483 513 now 0;
#X obj 114 -39 inlet;
#X obj 114 122 t f f;
#X obj 113 205 t f f f;
#X obj 242 204 t f f f;
#X obj 110 352 pack f f f f f f;
#X obj 110 389 outlet;
#X obj 115 60 random;
#X obj 115 12 f;
#X obj 145 11 + 1;
#X obj 115 38 sel 0;
#X floatatom 114 90 5 0 0 0 - - -;
#X obj 175 14 % 50;
#X obj 113 284 tabread \$0_x_1;
#X obj 206 284 tabread \$0_x_1;
#X obj 239 259 tabread \$0_y_1;
#X obj 281 233 tabread \$0_z_1;
#X obj 152 234 tabread \$0_z_1;
#X obj 132 255 tabread \$0_y_1;
#X obj 195 93 moses 1;
#X obj 141 151 - 1;
#X obj 114 181 - 0;
#X obj 114 -11 t b f f;
#X floatatom 232 119 5 0 0 0 - - -;
#X connect 0 0 21 0;
#X connect 1 0 20 0;
#X connect 1 1 19 0;
#X connect 2 0 12 0;
#X connect 2 1 17 0;
#X connect 2 2 16 0;
#X connect 3 0 13 0;
#X connect 3 1 14 0;
#X connect 3 2 15 0;
#X connect 4 0 5 0;
#X connect 6 0 10 0;
#X connect 7 0 8 0;
#X connect 7 0 9 0;
#X connect 8 0 11 0;
#X connect 9 0 6 0;
#X connect 11 0 7 1;
#X connect 12 0 4 0;
#X connect 13 0 4 3;
#X connect 14 0 4 4;
#X connect 15 0 4 5;
#X connect 16 0 4 2;
#X connect 17 0 4 1;
#X connect 18 1 1 0;
#X connect 18 1 22 0;
#X connect 19 0 3 0;
#X connect 20 0 2 0;
#X connect 21 0 7 0;
#X connect 21 1 6 1;
#X connect 21 2 18 0;
#X restore 320 271 pd now;
#X floatatom 732 -237 5 0 0 0 - - -;
#X obj -15 240 f;
#X obj 18 240 + 1;
#X obj 55 240 % 100;
#X obj 36 180 r \$0-speed;
#X obj -15 210 metro 100;
#X obj -15 311 t f f f;
#X obj -15 340 tabread \$0_x_1;
#X obj 3 365 tabread \$0_y_1;
#X obj 26 389 tabread \$0_z_1;
#X obj -9 410 pack f f f;
#X connect 0 0 2 0;
#X connect 0 0 121 0;
#X connect 1 0 10 0;
#X connect 2 0 98 1;
#X connect 3 0 99 0;
#X connect 4 0 1 0;
#X connect 5 0 124 0;
#X connect 6 0 0 1;
#X connect 6 0 16 0;
#X connect 7 0 8 0;
#X connect 8 0 119 0;
#X connect 8 1 9 0;
#X connect 9 0 101 0;
#X connect 10 0 0 0;
#X connect 11 0 101 0;
#X connect 21 0 23 0;
#X connect 22 0 42 0;
#X connect 22 0 79 1;
#X connect 23 0 24 0;
#X connect 23 0 29 0;
#X connect 24 0 25 0;
#X connect 25 0 23 1;
#X connect 26 0 37 0;
#X connect 26 1 28 1;
#X connect 27 0 28 0;
#X connect 29 0 26 0;
#X connect 29 1 30 0;
#X connect 29 2 31 0;
#X connect 30 0 38 0;
#X connect 30 1 33 1;
#X connect 31 0 39 0;
#X connect 31 1 35 1;
#X connect 32 0 33 0;
#X connect 34 0 35 0;
#X connect 36 0 23 1;
#X connect 37 0 67 0;
#X connect 38 0 68 0;
#X connect 39 0 69 0;
#X connect 40 0 21 0;
#X connect 40 1 36 0;
#X connect 40 3 84 1;
#X connect 41 0 94 0;
#X connect 41 0 77 0;
#X connect 42 0 70 1;
#X connect 42 0 74 1;
#X connect 43 0 37 1;
#X connect 43 0 38 1;
#X connect 43 0 39 1;
#X connect 44 0 21 1;
#X connect 44 1 25 1;
#X connect 44 2 132 1;
#X connect 45 0 46 0;
#X connect 45 0 47 0;
#X connect 45 0 52 0;
#X connect 46 0 12 0;
#X connect 47 0 18 0;
#X connect 48 0 13 0;
#X connect 48 1 6 0;
#X connect 48 2 49 0;
#X connect 49 0 50 0;
#X connect 52 0 51 0;
#X connect 55 0 56 0;
#X connect 56 0 6 0;
#X connect 56 1 49 0;
#X connect 56 2 58 0;
#X connect 58 0 57 0;
#X connect 59 0 60 0;
#X connect 59 0 115 1;
#X connect 60 0 126 0;
#X connect 61 0 63 1;
#X connect 63 0 95 0;
#X connect 63 0 123 0;
#X connect 65 0 102 0;
#X connect 66 0 67 1;
#X connect 66 0 68 1;
#X connect 66 0 69 1;
#X connect 67 0 27 0;
#X connect 68 0 32 0;
#X connect 69 0 34 0;
#X connect 70 0 41 0;
#X connect 71 0 72 0;
#X connect 72 0 73 0;
#X connect 73 0 74 2;
#X connect 74 0 104 0;
#X connect 75 0 40 0;
#X connect 76 0 21 0;
#X connect 77 0 78 0;
#X connect 78 0 79 0;
#X connect 79 0 81 0;
#X connect 79 1 80 0;
#X connect 80 0 81 0;
#X connect 81 0 89 0;
#X connect 82 0 83 0;
#X connect 83 0 93 0;
#X connect 84 0 88 0;
#X connect 84 1 74 0;
#X connect 85 0 88 1;
#X connect 85 0 117 1;
#X connect 86 0 63 0;
#X connect 86 1 70 0;
#X connect 86 2 117 0;
#X connect 87 0 84 0;
#X connect 88 0 111 0;
#X connect 90 0 114 0;
#X connect 91 0 90 0;
#X connect 91 1 64 0;
#X connect 91 3 103 0;
#X connect 93 0 80 0;
#X connect 94 0 44 0;
#X connect 95 0 91 0;
#X connect 98 0 100 0;
#X connect 99 0 17 0;
#X connect 99 1 19 0;
#X connect 99 2 14 0;
#X connect 99 3 15 0;
#X connect 99 4 98 0;
#X connect 100 0 112 0;
#X connect 101 0 10 1;
#X connect 101 0 134 0;
#X connect 102 0 66 0;
#X connect 103 0 75 0;
#X connect 104 0 116 0;
#X connect 111 0 43 0;
#X connect 112 0 86 0;
#X connect 112 1 115 0;
#X connect 113 0 114 1;
#X connect 114 0 92 0;
#X connect 115 0 113 0;
#X connect 116 0 43 0;
#X connect 117 0 87 0;
#X connect 119 0 1 0;
#X connect 120 0 121 1;
#X connect 121 0 0 1;
#X connect 123 0 122 0;
#X connect 123 0 128 0;
#X connect 124 0 7 0;
#X connect 124 1 18 0;
#X connect 124 2 48 0;
#X connect 124 4 11 0;
#X connect 124 5 12 0;
#X connect 124 6 53 0;
#X connect 124 7 54 0;
#X connect 124 8 96 0;
#X connect 124 9 97 0;
#X connect 124 10 13 1;
#X connect 124 11 120 0;
#X connect 124 12 125 0;
#X connect 124 13 129 0;
#X connect 126 0 61 0;
#X connect 126 1 118 0;
#X connect 128 0 127 0;
#X connect 130 0 131 0;
#X connect 130 0 135 0;
#X connect 131 0 132 0;
#X connect 132 0 130 1;
#X connect 133 0 134 1;
#X connect 134 0 130 0;
#X connect 135 0 136 0;
#X connect 135 1 137 0;
#X connect 135 2 138 0;
#X connect 136 0 139 0;
#X connect 137 0 139 1;
#X connect 138 0 139 2;
#X connect 139 0 20 0;
