#N canvas 0 22 1339 710 10;
#X obj 149 290 repeat 50;
#X obj 149 315 t a b;
#X obj 176 338 f;
#X obj 202 338 + 1;
#X obj 230 338 % 50;
#X obj 149 441 separator;
#X obj 149 598 curve 2;
#X obj 176 360 t f f;
#X obj 212 382 + 1;
#X obj 212 406 % 50;
#X obj 177 493 t f f;
#X obj 177 571 pack f f 0;
#X obj 311 520 t f f;
#X obj 311 598 pack f f 0;
#X obj 177 471 expr ($f1-0.25)*2*3.141592;
#X obj 258 494 expr ($f1-0.25)*2*3.141592;
#X obj 212 429 / 49;
#X obj 212 450 / 2;
#X obj 176 382 / 49;
#X obj 176 403 / 2;
#X msg 112 557 width 2;
#X obj 112 531 loadbang;
#X obj 204 546 expr cos($f1)* 1;
#X obj 177 523 expr sin($f1)* 1;
#X obj 339 574 expr cos($f1)* 1;
#X obj 311 550 expr sin($f1)* 1;
#X obj 496 128 expr 1-$f1;
#X obj 452 105 t f f;
#X floatatom 452 129 5 0 0 0 - - -;
#X obj 452 -19 r fader;
#X floatatom 452 53 5 0 0 0 - - -;
#X floatatom 452 6 5 0 0 0 - - -;
#X obj 593 -15 r v-distance;
#X floatatom 593 7 5 0 0 0 - - -;
#X obj 452 29 expr (($f1+$f2))/($f2*2);
#X obj 452 79 expr if($f1<0.5 \, ($f1/0.5)*-0.5+1 \, 1-$f1 );
#X floatatom 496 151 5 0 0 0 - - -;
#X obj 1055 558 curve 2;
#X obj 1054 456 color 1 0 0;
#X obj 1002 500 loadbang;
#X obj 1074 535 pack f f 0;
#X obj 850 -2 r fader;
#X floatatom 850 23 5 0 0 0 - - -;
#X obj 925 2 r v-distance;
#X floatatom 925 24 5 0 0 0 - - -;
#X obj 850 52 expr $f1/ $f2;
#X floatatom 850 76 5 0 0 0 - - -;
#X obj 850 99 / 4;
#X obj 149 257 translateXYZ 0 -2.5 0;
#X obj 1054 424 translateXYZ 0 -2.5 0;
#X obj 965 251 color 1 0 0;
#X obj 965 219 translateXYZ 0 -2.5 0;
#X obj 965 307 translateXYZ 0 0 0;
#X obj 965 351 circle 0.07;
#X obj 434 405 text2d;
#X obj 481 406 loadbang;
#X msg 481 430 12;
#X obj 449 347 expr int($f1*100)/100;
#X obj 598 348 text2d;
#X obj 643 349 loadbang;
#X msg 643 373 12;
#X obj 628 289 expr int($f1*100)/100;
#X obj 1035 5 expr ($f1)*2*3.141592;
#X obj 1036 30 t f f;
#X msg 1002 522 width 2;
#X obj 757 305 text2d;
#X obj 802 306 loadbang;
#X obj 757 211 translateXYZ 0 -2.7 0;
#X obj 788 237 expr abs(int($f1*100)/100);
#X obj 788 190 / 4;
#X obj 1168 53 k_event 0 4;
#X obj 1231 75 k_event 4.01 13;
#X floatatom 1168 145 5 0 0 0 - - -;
#X obj 1168 98 k_range 0 4 0 1;
#X obj 1231 118 k_range 4.01 13 1 2;
#X obj 1065 263 expr sin($f1)* $f2;
#X obj 1092 285 expr cos($f1)* $f2;
#X msg 679 446 font forgottenfuturistrg.ttf;
#X obj 679 417 loadbang;
#X msg 802 330 14;
#X msg 788 264 text D:\$1;
#X msg 449 372 text L:\$1;
#X msg 628 312 text R:\$1;
#X obj 150 193 separator;
#X obj 168 218 separator;
#X obj 600 223 separator;
#X obj 756 148 separator;
#X obj 964 187 separator;
#X obj 148 159 t a a a a a a a;
#X obj 1055 387 separator;
#X obj 598 260 translateXYZ 1.5 -2.4 0;
#X obj 434 325 translateXYZ -1.5 -2.4 0;
#X obj 762 168 color 0.4 0.56 1;
#X obj 173 98 inlet;
#X connect 0 0 1 0;
#X connect 1 0 5 0;
#X connect 1 1 2 0;
#X connect 2 0 3 0;
#X connect 2 0 7 0;
#X connect 3 0 4 0;
#X connect 4 0 2 1;
#X connect 5 0 6 0;
#X connect 7 0 18 0;
#X connect 7 1 8 0;
#X connect 8 0 9 0;
#X connect 9 0 16 0;
#X connect 10 0 23 0;
#X connect 10 1 22 0;
#X connect 11 0 6 1;
#X connect 12 0 25 0;
#X connect 12 1 24 0;
#X connect 13 0 6 2;
#X connect 14 0 10 0;
#X connect 15 0 12 0;
#X connect 16 0 17 0;
#X connect 17 0 15 0;
#X connect 18 0 19 0;
#X connect 19 0 14 0;
#X connect 20 0 6 0;
#X connect 21 0 20 0;
#X connect 22 0 11 1;
#X connect 23 0 11 0;
#X connect 24 0 13 1;
#X connect 25 0 13 0;
#X connect 26 0 36 0;
#X connect 27 0 28 0;
#X connect 27 1 26 0;
#X connect 28 0 57 0;
#X connect 29 0 31 0;
#X connect 30 0 35 0;
#X connect 31 0 34 0;
#X connect 32 0 33 0;
#X connect 33 0 34 1;
#X connect 34 0 30 0;
#X connect 35 0 27 0;
#X connect 36 0 61 0;
#X connect 38 0 37 0;
#X connect 39 0 64 0;
#X connect 40 0 37 1;
#X connect 41 0 42 0;
#X connect 42 0 45 0;
#X connect 43 0 44 0;
#X connect 44 0 45 1;
#X connect 44 0 69 0;
#X connect 44 0 70 0;
#X connect 45 0 46 0;
#X connect 46 0 47 0;
#X connect 47 0 62 0;
#X connect 48 0 0 0;
#X connect 49 0 38 0;
#X connect 50 0 52 0;
#X connect 51 0 50 0;
#X connect 52 0 53 0;
#X connect 55 0 56 0;
#X connect 56 0 54 1;
#X connect 57 0 81 0;
#X connect 59 0 60 0;
#X connect 60 0 58 1;
#X connect 61 0 82 0;
#X connect 62 0 63 0;
#X connect 63 0 75 0;
#X connect 63 1 76 0;
#X connect 64 0 37 0;
#X connect 66 0 79 0;
#X connect 67 0 65 0;
#X connect 68 0 80 0;
#X connect 69 0 68 0;
#X connect 70 0 73 0;
#X connect 70 1 71 0;
#X connect 71 0 74 0;
#X connect 72 0 75 1;
#X connect 72 0 76 1;
#X connect 73 0 72 0;
#X connect 74 0 72 0;
#X connect 75 0 52 1;
#X connect 75 0 40 0;
#X connect 76 0 52 2;
#X connect 76 0 40 1;
#X connect 77 0 54 0;
#X connect 77 0 58 0;
#X connect 77 0 65 0;
#X connect 78 0 77 0;
#X connect 79 0 65 1;
#X connect 80 0 65 0;
#X connect 81 0 54 0;
#X connect 82 0 58 0;
#X connect 83 0 48 0;
#X connect 84 0 91 0;
#X connect 85 0 90 0;
#X connect 86 0 92 0;
#X connect 87 0 51 0;
#X connect 88 0 83 0;
#X connect 88 1 84 0;
#X connect 88 2 85 0;
#X connect 88 3 86 0;
#X connect 88 5 87 0;
#X connect 88 6 89 0;
#X connect 89 0 49 0;
#X connect 90 0 58 0;
#X connect 91 0 54 0;
#X connect 92 0 67 0;
#X connect 93 0 88 0;
