#N canvas 273 193 1070 583 10;
#N canvas 0 22 450 300 (subpatch) 0;
#X array \$0-vol 100 float 3;
#A 0 0 0 0 0 0 0 0 0 0 0 0 0 0 0 0 0 0 0 0 0 0 0 0 0 0 0 0 0 0 0 0
0 0 0 0 0 0 0 0 0 0 0 0 0 0 0 0 0 0 0 0 0 0 0 0 0 0 0 0 0 0 0 0 0 0
0 0 0 0 0 0 0 0 0 0 0 0 0 0 0 0 0 0 0 0 0 0 0 0 0 0 0 0 0 0 0 0 0 0
0;
#X coords 0 1 99 -1 100 100 1;
#X restore 22 258 graph;
#X obj 79 -102 inlet;
#X msg -73 159 draw line;
#X obj 23 109 separator;
#X obj 23 211 square 4;
#X obj -73 107 loadbang;
#X obj -73 133 t b b;
#X obj 295 60 separator;
#X obj 76 -19 alpha;
#X obj 3 -23 loadbang;
#X obj 3 0 tgl 15 0 empty empty empty 17 7 0 10 -262144 -1 -1 1 1;
#X obj 76 -46 colorRGB 1 1 1 0.8;
#X obj 438 113 separator;
#X obj 438 166 t a b;
#X obj 473 191 f;
#X obj 501 190 + 1;
#X obj 438 226 separator;
#X obj 454 365 translateXYZ 0 -3.8 0;
#X obj 512 223 % 5;
#X obj 542 223 sel 0 1;
#X obj 570 189 == 0;
#X msg 542 249 0.15;
#X msg 507 295 -3.85;
#X msg -46 188 width 1;
#X obj 453 395 rectangle 0.02 0.2;
#X obj 218 -52 inlet;
#X obj 218 -22 * 0.8;
#X obj 438 140 repeat 30;
#X obj 530 190 % 30;
#X obj 476 336 expr ($f1/30)*8-4;
#X msg 575 250 0.3;
#X msg 557 295 -3.7;
#X obj 664 429 text2d;
#X obj 76 13 t a a a a a;
#X obj 655 99 separator;
#X obj 659 204 t a b;
#X obj 694 229 f;
#X obj 722 228 + 1;
#X obj 659 264 separator;
#X obj 734 370 loadbang;
#X obj 654 339 translateXYZ 0 -3 0;
#X obj 658 142 translateXYZ 1.36 0 0;
#X obj 696 295 expr ($f1/6)*8-4;
#X obj 657 178 repeat 5;
#X obj 751 228 % 5;
#X obj 797 231 expr ($f1+1)*100;
#X msg 731 395 7;
#X msg 736 267 text \$1;
#X obj 295 93 translateXYZ 0 3.8 0;
#X obj 295 123 rectangle 4 0.2;
#N canvas 0 22 465 521 matrix 0;
#X obj 128 142 t a b;
#X obj 163 167 f;
#X obj 191 166 + 1;
#X obj 128 277 separator;
#X obj 128 116 repeat 20;
#X obj 220 166 % 20;
#X obj 163 232 expr ($f1/20)*8-4;
#X obj 163 198 t f f f f;
#X obj 198 265 * 5;
#X obj 198 343 t f f;
#X obj 128 407 scaleXYZ 0.15 0.5 1;
#X obj 128 463 square 1;
#X obj 128 58 separator;
#X obj 198 291 tabread \$0-vol;
#X obj 238 344 + 0.05;
#X obj 198 319 expr abs($f1*2);
#X obj 128 376 translateXYZ 0 0 0;
#X obj 128 89 translateXYZ 0.2 0 0;
#X obj 129 25 inlet;
#X connect 0 0 3 0;
#X connect 0 1 1 0;
#X connect 1 0 2 0;
#X connect 1 0 7 0;
#X connect 2 0 5 0;
#X connect 3 0 16 0;
#X connect 4 0 0 0;
#X connect 5 0 1 1;
#X connect 6 0 16 1;
#X connect 7 0 6 0;
#X connect 7 1 8 0;
#X connect 8 0 13 0;
#X connect 9 1 14 0;
#X connect 10 0 11 0;
#X connect 12 0 17 0;
#X connect 13 0 15 0;
#X connect 14 0 10 2;
#X connect 15 0 9 0;
#X connect 16 0 10 0;
#X connect 17 0 4 0;
#X connect 18 0 12 0;
#X restore 91 80 pd matrix;
#X obj 293 317 tabwrite~ \$0-vol;
#X obj 292 172 inlet~;
#X obj 343 218 metro 50;
#X obj 343 198 tgl 15 0 empty empty empty 17 7 0 10 -262144 -1 -1 1
1;
#X obj 339 173 loadbang;
#X connect 1 0 11 0;
#X connect 2 0 4 0;
#X connect 3 0 4 0;
#X connect 5 0 6 0;
#X connect 6 0 2 0;
#X connect 6 1 23 0;
#X connect 7 0 48 0;
#X connect 8 0 33 0;
#X connect 9 0 10 0;
#X connect 10 0 8 1;
#X connect 11 0 8 0;
#X connect 12 0 27 0;
#X connect 13 0 16 0;
#X connect 13 1 14 0;
#X connect 14 0 15 0;
#X connect 14 0 18 0;
#X connect 14 0 29 0;
#X connect 15 0 28 0;
#X connect 16 0 17 0;
#X connect 17 0 24 0;
#X connect 18 0 20 0;
#X connect 19 0 21 0;
#X connect 19 0 22 0;
#X connect 19 1 30 0;
#X connect 19 1 31 0;
#X connect 20 0 19 0;
#X connect 21 0 24 2;
#X connect 22 0 17 2;
#X connect 23 0 4 0;
#X connect 25 0 26 0;
#X connect 26 0 11 4;
#X connect 27 0 13 0;
#X connect 28 0 14 1;
#X connect 29 0 17 1;
#X connect 30 0 24 2;
#X connect 31 0 17 2;
#X connect 33 0 3 0;
#X connect 33 1 50 0;
#X connect 33 2 7 0;
#X connect 33 3 12 0;
#X connect 33 4 34 0;
#X connect 34 0 41 0;
#X connect 35 0 38 0;
#X connect 35 1 36 0;
#X connect 36 0 37 0;
#X connect 36 0 47 0;
#X connect 36 0 42 0;
#X connect 36 0 45 0;
#X connect 37 0 44 0;
#X connect 38 0 40 0;
#X connect 39 0 46 0;
#X connect 40 0 32 0;
#X connect 41 0 43 0;
#X connect 42 0 40 1;
#X connect 43 0 35 0;
#X connect 44 0 36 1;
#X connect 45 0 47 0;
#X connect 46 0 32 1;
#X connect 47 0 32 0;
#X connect 48 0 49 0;
#X connect 52 0 51 0;
#X connect 53 0 51 0;
#X connect 54 0 53 0;
#X connect 55 0 54 0;
