#N canvas 251 133 1070 583 10;
#N canvas 0 22 450 300 (subpatch) 0;
#X array \$0-vol 100 float 3;
#A 0 0 0 0 0 0 0 0 0 0 0 0 0 0 0 0 0 0 0 0 0 0 0 0 0 0 0 0 0 0 0 0
0 0 0 0 0 0 0 0 0 0 0 0 0 0 0 0 0 0 0 0 0 0 0 0 0 0 0 0 0 0 0 0 0 0
0 0 0 0 0 0 0 0 0 0 0 0 0 0 0 0 0 0 0 0 0 0 0 0 0 0 0 0 0 0 0 0 0 0
0;
#X coords 0 1 99 -1 100 100 1;
#X restore 22 258 graph;
#X obj 79 -102 inlet;
#X obj 23 109 separator;
#X obj -46 160 loadbang;
#X obj 149 331 separator;
#X obj 76 -19 alpha;
#X obj 3 -23 loadbang;
#X obj 3 0 tgl 15 0 empty empty empty 17 7 0 10 -262144 -1 -1 1 1;
#X obj 76 -46 colorRGB 1 1 1 0.8;
#X obj 438 79 separator;
#X obj 438 166 t a b;
#X obj 473 191 f;
#X obj 501 190 + 1;
#X obj 438 226 separator;
#X obj 454 365 translateXYZ 0 -3.8 0;
#X obj 512 223 % 5;
#X obj 542 223 sel 0 1;
#X obj 570 189 == 0;
#X msg 542 249 0.15;
#X msg 507 295 -3.85;
#X obj 453 395 rectangle 0.02 0.2;
#X obj 218 -52 inlet;
#X obj 218 -22 * 0.8;
#X obj 438 140 repeat 30;
#X obj 530 190 % 30;
#X obj 476 336 expr ($f1/30)*8-4;
#X msg 575 250 0.3;
#X msg 557 295 -3.7;
#X obj 664 429 text2d;
#X obj 655 99 separator;
#X obj 659 204 t a b;
#X obj 694 229 f;
#X obj 722 228 + 1;
#X obj 659 264 separator;
#X obj 734 370 loadbang;
#X obj 654 339 translateXYZ 0 -3 0;
#X obj 658 142 translateXYZ 1.36 0 0;
#X obj 696 295 expr ($f1/6)*8-4;
#X obj 657 178 repeat 5;
#X obj 751 228 % 5;
#X obj 797 231 expr ($f1+1)*100;
#X msg 736 267 text \$1;
#N canvas 96 186 465 521 matrix 0;
#X obj 128 142 t a b;
#X obj 163 167 f;
#X obj 191 166 + 1;
#X obj 128 277 separator;
#X obj 128 116 repeat 20;
#X obj 220 166 % 20;
#X obj 163 232 expr ($f1/20)*8-4;
#X obj 163 198 t f f f f;
#X obj 198 265 * 5;
#X obj 198 343 t f f;
#X obj 128 407 scaleXYZ 0.15 0.5 1;
#X obj 128 463 square 1;
#X obj 128 40 separator;
#X obj 198 291 tabread \$0-vol;
#X obj 238 344 + 0.05;
#X obj 198 319 expr abs($f1*2);
#X obj 128 376 translateXYZ 0 0 0;
#X obj 128 89 translateXYZ 0.2 0 0;
#X obj 129 7 inlet;
#X obj 129 61 color 0.68 0.7 0.86;
#X connect 0 0 3 0;
#X connect 0 1 1 0;
#X connect 1 0 2 0;
#X connect 1 0 7 0;
#X connect 2 0 5 0;
#X connect 3 0 16 0;
#X connect 4 0 0 0;
#X connect 5 0 1 1;
#X connect 6 0 16 1;
#X connect 7 0 6 0;
#X connect 7 1 8 0;
#X connect 8 0 13 0;
#X connect 9 1 14 0;
#X connect 10 0 11 0;
#X connect 12 0 19 0;
#X connect 13 0 15 0;
#X connect 14 0 10 2;
#X connect 15 0 9 0;
#X connect 16 0 10 0;
#X connect 17 0 4 0;
#X connect 18 0 12 0;
#X connect 19 0 17 0;
#X restore 91 80 pd matrix;
#X obj 293 317 tabwrite~ \$0-vol;
#X obj 292 172 inlet~;
#X obj 343 218 metro 50;
#X obj 343 198 tgl 15 0 empty empty empty 17 7 0 10 -262144 -1 -1 1
1;
#X obj 339 173 loadbang;
#X msg 731 395 10;
#X msg 576 -31 1 0.24 0.37;
#X msg 404 5 0 0.93 0.58;
#X msg 408 28 0.4 0.56 1;
#X msg 401 -56 0.37 0.37 0.44;
#X obj 441 111 color 1 0.24 0.37;
#X obj 23 211 curve 2;
#X msg 39 170 4 1 0;
#X msg 84 170 4 -1 0;
#X msg -46 188 width 2;
#X obj 38 137 loadbang;
#X obj 23 83 t a a;
#X obj 157 83 separator;
#X obj 94 199 loadbang;
#X obj 163 250 curve 2;
#X msg 94 227 width 2;
#X obj 178 176 loadbang;
#X msg 179 209 -4 1 0;
#X msg 224 209 -4 -1 0;
#X msg 576 -4 0.68 0.7 0.86;
#X obj 153 112 color 1 0.24 0.37;
#X msg 578 22 0.42 0.57 0.99;
#X obj 658 121 color 0.42 0.57 0.99;
#X obj 135 399 translateXYZ 0 -4.2 0;
#X obj 135 429 rectangle 4.1 0.05;
#X msg 578 46 0.33 0.27 0.4;
#X obj 138 369 color 0.33 0.27 0.4;
#X obj 293 253 *~ 1.5;
#X obj 294 349 separator;
#X obj 280 417 translateXYZ 0 -4.2 0;
#X obj 299 61 k_count 1 60;
#X obj 104 -2 t a a a a a a b;
#X obj 296 112 k_random -3.5 3.5;
#X obj 296 87 sel 0;
#X msg 296 135 \$1 1000;
#X obj 356 140 line;
#X obj 279 447 rectangle 0.06 0.2;
#X obj 283 386 color 0 0.93 0.58;
#X msg 803 426 font forgottenfuturistrg.ttf;
#X obj 803 397 loadbang;
#X connect 1 0 8 0;
#X connect 2 0 54 0;
#X connect 3 0 57 0;
#X connect 4 0 74 0;
#X connect 5 0 79 0;
#X connect 6 0 7 0;
#X connect 7 0 5 1;
#X connect 8 0 5 0;
#X connect 9 0 53 0;
#X connect 10 0 13 0;
#X connect 10 1 11 0;
#X connect 11 0 12 0;
#X connect 11 0 15 0;
#X connect 11 0 25 0;
#X connect 12 0 24 0;
#X connect 13 0 14 0;
#X connect 14 0 20 0;
#X connect 15 0 17 0;
#X connect 16 0 18 0;
#X connect 16 0 19 0;
#X connect 16 1 26 0;
#X connect 16 1 27 0;
#X connect 17 0 16 0;
#X connect 18 0 20 2;
#X connect 19 0 14 2;
#X connect 21 0 22 0;
#X connect 22 0 8 4;
#X connect 23 0 10 0;
#X connect 24 0 11 1;
#X connect 25 0 14 1;
#X connect 26 0 20 2;
#X connect 27 0 14 2;
#X connect 29 0 70 0;
#X connect 30 0 33 0;
#X connect 30 1 31 0;
#X connect 31 0 32 0;
#X connect 31 0 41 0;
#X connect 31 0 37 0;
#X connect 31 0 40 0;
#X connect 32 0 39 0;
#X connect 33 0 35 0;
#X connect 34 0 48 0;
#X connect 35 0 28 0;
#X connect 36 0 38 0;
#X connect 37 0 35 1;
#X connect 38 0 30 0;
#X connect 39 0 31 1;
#X connect 40 0 41 0;
#X connect 41 0 28 0;
#X connect 44 0 75 0;
#X connect 45 0 43 0;
#X connect 46 0 45 0;
#X connect 47 0 46 0;
#X connect 48 0 28 1;
#X connect 53 0 23 0;
#X connect 55 0 54 1;
#X connect 56 0 54 2;
#X connect 57 0 54 0;
#X connect 58 0 55 0;
#X connect 58 0 56 0;
#X connect 59 0 2 0;
#X connect 59 1 60 0;
#X connect 60 0 68 0;
#X connect 61 0 63 0;
#X connect 63 0 62 0;
#X connect 64 0 65 0;
#X connect 64 0 66 0;
#X connect 65 0 62 1;
#X connect 66 0 62 2;
#X connect 68 0 62 0;
#X connect 70 0 36 0;
#X connect 71 0 72 0;
#X connect 74 0 71 0;
#X connect 75 0 43 0;
#X connect 76 0 85 0;
#X connect 77 0 84 0;
#X connect 78 0 81 0;
#X connect 79 0 76 0;
#X connect 79 1 42 0;
#X connect 79 2 4 0;
#X connect 79 3 9 0;
#X connect 79 4 29 0;
#X connect 79 5 59 0;
#X connect 79 6 78 0;
#X connect 80 0 82 0;
#X connect 81 0 80 0;
#X connect 82 0 83 0;
#X connect 83 0 77 1;
#X connect 85 0 77 0;
#X connect 86 0 28 0;
#X connect 87 0 86 0;
