#N canvas 97 296 809 533 10;
#X obj 111 -60 inlet;
#X obj 128 4 separator;
#X msg -138 147 draw line;
#X obj -42 97 separator;
#X obj -42 199 square 4;
#X obj -138 95 loadbang;
#X obj -138 121 t b b;
#X obj 420 49 separator;
#X floatatom 194 42 5 0 0 0 - - -;
#X obj 111 -23 t a a b a a;
#N canvas 977 163 559 493 matrix 0;
#X obj 191 127 f;
#X obj 219 126 + 1;
#X obj 95 260 separator;
#X obj 152 334 translateXYZ 0 0 0;
#X obj 152 99 t a a b;
#X obj 152 77 repeat 25;
#X msg 43 359 draw line;
#X obj 248 126 % 5;
#X obj 218 169 sel 0;
#X obj 218 192 f;
#X obj 246 191 + 1;
#X obj 275 191 % 5;
#X obj 191 146 t f f f;
#X obj 53 298 loadbang;
#X obj 156 14 inlet;
#X obj 152 358 rotateXYZ 90 0 0;
#X obj 257 300 * -2;
#X obj 187 301 * 2;
#X obj 152 379 square 0.7;
#X msg 59 334 width 5;
#X obj 159 53 color 0.56 0.55 0.69;
#X connect 0 0 1 0;
#X connect 0 0 12 0;
#X connect 1 0 7 0;
#X connect 2 0 3 0;
#X connect 3 0 15 0;
#X connect 4 0 2 0;
#X connect 4 2 0 0;
#X connect 5 0 4 0;
#X connect 6 0 18 0;
#X connect 7 0 0 1;
#X connect 8 0 9 0;
#X connect 9 0 10 0;
#X connect 9 0 16 0;
#X connect 10 0 11 0;
#X connect 11 0 9 1;
#X connect 12 1 8 0;
#X connect 12 2 17 0;
#X connect 13 0 19 0;
#X connect 13 0 6 0;
#X connect 14 0 20 0;
#X connect 15 0 18 0;
#X connect 16 0 3 3;
#X connect 17 0 3 1;
#X connect 19 0 18 0;
#X connect 20 0 5 0;
#X restore 128 215 pd matrix;
#X obj 128 190 separator;
#X obj 128 164 t a a a a a;
#N canvas 610 316 397 453 line 0;
#X obj 148 318 curve 2;
#X obj 148 133 separator;
#X obj 148 227 t a b;
#X obj 148 108 inlet;
#X obj 79 211 loadbang;
#X obj 148 185 translateXYZ 4 0 -4;
#X obj 149 161 color 0.28 0.62 1;
#X obj 213 234 loadbang;
#X msg 93 251 width 8;
#X msg 167 271 2 0 0;
#X msg 186 293 -2 0 0;
#X connect 1 0 6 0;
#X connect 2 0 0 0;
#X connect 3 0 1 0;
#X connect 4 0 8 0;
#X connect 5 0 2 0;
#X connect 6 0 5 0;
#X connect 7 0 9 0;
#X connect 7 0 10 0;
#X connect 8 0 0 0;
#X connect 9 0 0 1;
#X connect 10 0 0 2;
#X restore 143 242 pd line;
#N canvas 258 284 397 453 line 0;
#X obj 148 318 curve 2;
#X obj 148 136 separator;
#X obj 148 227 t a b;
#X obj 148 111 inlet;
#X obj 79 211 loadbang;
#X msg 167 271 0 2.5 0;
#X msg 185 293 0 -2.5 0;
#X obj 148 199 translateXYZ 4 0 -4;
#X obj 151 162 color 0 0.93 0.58;
#X obj 217 235 loadbang;
#X msg 93 251 width 8;
#X connect 1 0 8 0;
#X connect 2 0 0 0;
#X connect 3 0 1 0;
#X connect 4 0 10 0;
#X connect 5 0 0 1;
#X connect 6 0 0 2;
#X connect 7 0 2 0;
#X connect 8 0 7 0;
#X connect 9 0 5 0;
#X connect 9 0 6 0;
#X connect 10 0 0 0;
#X restore 159 270 pd line;
#N canvas 541 323 397 453 line 0;
#X obj 148 318 curve 2;
#X obj 148 147 separator;
#X obj 148 227 t a b;
#X obj 148 120 inlet;
#X obj 79 211 loadbang;
#X obj 148 204 translateXYZ 4 0 -4;
#X obj 148 172 color 1 0.24 0.37;
#X obj 217 237 loadbang;
#X msg 79 234 width 8;
#X msg 167 271 0 0 2;
#X msg 185 293 0 0 -2;
#X connect 1 0 6 0;
#X connect 2 0 0 0;
#X connect 3 0 1 0;
#X connect 4 0 8 0;
#X connect 5 0 2 0;
#X connect 6 0 5 0;
#X connect 7 0 9 0;
#X connect 7 0 10 0;
#X connect 8 0 0 0;
#X connect 9 0 0 1;
#X connect 10 0 0 2;
#X restore 196 243 pd line;
#X obj 320 116 separator;
#X obj 320 147 translateXYZ;
#X obj 420 97 color 1 1 1;
#X obj 320 198 sphere 0.2;
#X obj 128 93 separator;
#X obj 128 120 color 1 1 1;
#X obj 128 63 rotateXYZ 40 0 10;
#X obj 128 145 translateXYZ -4 0 4;
#X obj 312 33 / 3;
#X obj 360 53 / 3;
#X obj 416 10 / 3;
#X obj 420 128 rectangle 4 0.14;
#X obj 420 71 translateXYZ 0 3.79 0;
#X msg -112 176 width 12;
#X obj 267 343 curve 2;
#X obj 311 230 pack f f f;
#X obj 214 113 t a a a;
#X obj 232 177 separator;
#X obj 238 219 color 1 1 1;
#X msg 268 282 draw point \, res 10;
#X obj 268 259 loadbang;
#X obj 239 315 GEMglPointSize 8;
#X obj 194 22 k_count 0.4 360;
#X obj 320 174 color 1 1 1;
#X msg -135 293 draw line;
#X obj -39 243 separator;
#X obj -135 241 loadbang;
#X obj -135 267 t b b;
#X obj -39 344 rectangle 3.8 3.7;
#X msg -109 322 width 7;
#X obj -42 133 color 0.35 0.35 0.35;
#X obj -39 279 color 0.4 0.56 1;
#X obj 316 -36 r viewcin;
#X obj 310 -5 unpack f f f;
#X connect 0 0 9 0;
#X connect 1 0 22 0;
#X connect 2 0 4 0;
#X connect 3 0 46 0;
#X connect 5 0 6 0;
#X connect 6 0 2 0;
#X connect 6 1 29 0;
#X connect 7 0 28 0;
#X connect 8 0 22 2;
#X connect 9 0 3 0;
#X connect 9 0 41 0;
#X connect 9 1 1 0;
#X connect 9 2 38 0;
#X connect 11 0 10 0;
#X connect 12 0 11 0;
#X connect 12 1 13 0;
#X connect 12 2 14 0;
#X connect 12 3 15 0;
#X connect 16 0 17 0;
#X connect 17 0 39 0;
#X connect 18 0 27 0;
#X connect 20 0 21 0;
#X connect 21 0 23 0;
#X connect 22 0 32 0;
#X connect 23 0 12 0;
#X connect 24 0 17 1;
#X connect 24 0 31 0;
#X connect 25 0 17 2;
#X connect 25 0 31 1;
#X connect 26 0 17 3;
#X connect 26 0 31 2;
#X connect 28 0 18 0;
#X connect 29 0 4 0;
#X connect 31 0 30 2;
#X connect 32 0 20 0;
#X connect 32 1 33 0;
#X connect 32 2 16 0;
#X connect 33 0 34 0;
#X connect 34 0 37 0;
#X connect 35 0 30 0;
#X connect 36 0 35 0;
#X connect 37 0 30 0;
#X connect 38 0 8 0;
#X connect 39 0 19 0;
#X connect 40 0 44 0;
#X connect 41 0 47 0;
#X connect 42 0 43 0;
#X connect 43 0 40 0;
#X connect 43 1 45 0;
#X connect 45 0 44 0;
#X connect 46 0 4 0;
#X connect 47 0 44 0;
#X connect 48 0 49 0;
#X connect 49 0 24 0;
#X connect 49 1 25 0;
#X connect 49 2 26 0;
