#N canvas 409 314 733 345 10;
#X obj 111 -45 inlet;
#X obj 128 4 separator;
#X msg -73 159 draw line;
#X obj 23 109 separator;
#X obj 23 211 square 4;
#X obj -73 107 loadbang;
#X obj -73 133 t b b;
#X obj 420 49 separator;
#X floatatom 194 42 5 0 0 0 - - -;
#X obj 194 22 counter 360;
#X msg -46 188 width 6;
#X obj 111 -23 t a a b a a;
#N canvas 977 163 559 493 matrix 0;
#X obj 191 127 f;
#X obj 219 126 + 1;
#X obj 95 260 separator;
#X obj 152 334 translateXYZ 0 0 0;
#X obj 152 99 t a a b;
#X obj 152 77 repeat 25;
#X msg 43 359 draw line;
#X obj 248 126 % 5;
#X obj 218 169 sel 0;
#X obj 218 192 f;
#X obj 246 191 + 1;
#X obj 275 191 % 5;
#X obj 191 146 t f f f;
#X obj 53 298 loadbang;
#X obj 156 14 inlet;
#X obj 152 358 rotateXYZ 90 0 0;
#X msg 59 334 width 5;
#X obj 257 300 * -2;
#X obj 187 301 * 2;
#X obj 152 379 square 0.7;
#X connect 0 0 1 0;
#X connect 0 0 12 0;
#X connect 1 0 7 0;
#X connect 2 0 3 0;
#X connect 3 0 15 0;
#X connect 4 0 2 0;
#X connect 4 2 0 0;
#X connect 5 0 4 0;
#X connect 6 0 19 0;
#X connect 7 0 0 1;
#X connect 8 0 9 0;
#X connect 9 0 10 0;
#X connect 9 0 17 0;
#X connect 10 0 11 0;
#X connect 11 0 9 1;
#X connect 12 1 8 0;
#X connect 12 2 18 0;
#X connect 13 0 16 0;
#X connect 13 0 6 0;
#X connect 14 0 5 0;
#X connect 15 0 19 0;
#X connect 16 0 19 0;
#X connect 17 0 3 3;
#X connect 18 0 3 1;
#X restore 128 215 pd matrix;
#X obj 128 190 separator;
#X obj 128 164 t a a a a a;
#N canvas 610 316 397 453 line 0;
#X obj 148 318 curve 2;
#X obj 148 152 separator;
#X obj 148 227 t a b;
#X msg 167 271 15 0 0;
#X msg 185 293 -15 0 0;
#X obj 148 127 inlet;
#X obj 79 211 loadbang;
#X msg 93 251 width 3;
#X obj 148 185 translateXYZ 4 0 -4;
#X connect 1 0 8 0;
#X connect 2 0 0 0;
#X connect 2 1 3 0;
#X connect 2 1 4 0;
#X connect 3 0 0 1;
#X connect 4 0 0 2;
#X connect 5 0 1 0;
#X connect 6 0 7 0;
#X connect 7 0 0 0;
#X connect 8 0 2 0;
#X restore 143 242 pd line;
#N canvas 258 284 397 453 line 0;
#X obj 148 318 curve 2;
#X obj 148 173 separator;
#X obj 148 227 t a b;
#X obj 148 148 inlet;
#X obj 79 211 loadbang;
#X msg 93 251 width 3;
#X msg 167 271 0 2.5 0;
#X msg 185 293 0 -2.5 0;
#X obj 148 199 translateXYZ 4 0 -4;
#X connect 1 0 8 0;
#X connect 2 0 0 0;
#X connect 2 1 6 0;
#X connect 2 1 7 0;
#X connect 3 0 1 0;
#X connect 4 0 5 0;
#X connect 5 0 0 0;
#X connect 6 0 0 1;
#X connect 7 0 0 2;
#X connect 8 0 2 0;
#X restore 159 270 pd line;
#N canvas 541 323 397 453 line 0;
#X obj 148 318 curve 2;
#X obj 148 172 separator;
#X obj 148 227 t a b;
#X obj 148 145 inlet;
#X obj 79 211 loadbang;
#X msg 167 271 0 0 15;
#X msg 185 293 0 0 -15;
#X msg 79 234 width 3;
#X obj 148 204 translateXYZ 4 0 -4;
#X connect 1 0 8 0;
#X connect 2 0 0 0;
#X connect 2 1 5 0;
#X connect 2 1 6 0;
#X connect 3 0 1 0;
#X connect 4 0 7 0;
#X connect 5 0 0 1;
#X connect 6 0 0 2;
#X connect 7 0 0 0;
#X connect 8 0 2 0;
#X restore 196 243 pd line;
#X obj 320 116 separator;
#X obj 320 147 translateXYZ;
#X obj 320 174 color 1 0 0;
#X obj 420 97 color 1 1 1;
#X obj 320 198 sphere 0.2;
#X obj 128 93 separator;
#X obj 128 120 color 1 1 1;
#X obj 23 146 color 1 1 1;
#X obj 128 63 rotateXYZ 40 0 10;
#X obj 312 -20 r view-x;
#X obj 359 22 r view-y;
#X obj 416 -14 r view-z;
#X obj 128 145 translateXYZ -4 0 4;
#X obj 312 33 / 3;
#X obj 360 53 / 3;
#X obj 416 10 / 3;
#X floatatom 274 67 5 0 0 0 - - -;
#X floatatom 344 82 5 0 0 0 - - -;
#X obj 420 128 rectangle 4 0.14;
#X obj 420 71 translateXYZ 0 3.79 0;
#X connect 0 0 11 0;
#X connect 1 0 26 0;
#X connect 2 0 4 0;
#X connect 3 0 25 0;
#X connect 5 0 6 0;
#X connect 6 0 2 0;
#X connect 6 1 10 0;
#X connect 7 0 37 0;
#X connect 8 0 26 2;
#X connect 9 0 8 0;
#X connect 10 0 4 0;
#X connect 11 1 1 0;
#X connect 11 2 9 0;
#X connect 11 3 7 0;
#X connect 11 4 3 0;
#X connect 13 0 12 0;
#X connect 14 0 13 0;
#X connect 14 1 15 0;
#X connect 14 2 16 0;
#X connect 14 3 17 0;
#X connect 18 0 19 0;
#X connect 19 0 20 0;
#X connect 20 0 22 0;
#X connect 21 0 36 0;
#X connect 23 0 24 0;
#X connect 24 0 30 0;
#X connect 25 0 4 0;
#X connect 26 0 23 0;
#X connect 26 0 18 0;
#X connect 27 0 31 0;
#X connect 28 0 32 0;
#X connect 29 0 33 0;
#X connect 30 0 14 0;
#X connect 31 0 19 1;
#X connect 31 0 34 0;
#X connect 32 0 19 2;
#X connect 32 0 35 0;
#X connect 33 0 19 3;
#X connect 37 0 21 0;
