#N canvas 513 47 1036 749 10;
#X obj 128 214 t a b;
#X obj 163 240 f;
#X obj 191 239 + 1;
#X obj 128 350 separator;
#X obj 76 -73 inlet;
#X obj 128 112 separator;
#X msg -73 159 draw line;
#X obj 23 109 separator;
#X obj 23 211 square 4;
#X obj 333 343 inlet~;
#X obj -73 107 loadbang;
#X obj -73 133 t b b;
#X obj 272 39 separator;
#X obj 128 376 translateXYZ 0 0 0;
#X obj 76 -19 alpha;
#X obj 3 -23 loadbang;
#X obj 3 0 tgl 15 0 empty empty empty 17 7 0 10 -262144 -1 -1 1 1;
#X obj 76 -46 colorRGB 1 1 1 0.8;
#X obj -301 224 separator;
#X msg 17 418 draw line;
#X obj 197 328 sin;
#X obj 197 301 t f f;
#X obj 226 329 cos;
#X obj 45 352 loadbang;
#X obj 128 428 scale 1;
#X obj 128 455 circle 1;
#X obj 13 492 separator;
#X obj 128 400 separator;
#X obj 13 526 circle 0.1;
#X msg -46 188 width 1;
#X obj 234 -102 inlet;
#X obj 234 -77 * 0.8;
#X msg -156 236 draw line;
#X obj -315 323 circle 2;
#X obj 226 355 * 2;
#X obj 197 354 * 2;
#X obj -158 197 loadbang;
#X obj -147 285 separator;
#X obj 76 13 t a a a a a a;
#X obj 425 -90 separator;
#X obj 426 123 rotateXYZ 0 0 0;
#X obj 425 15 t a b;
#X obj 460 41 f;
#X obj 488 40 + 1;
#X obj 425 61 separator;
#X obj 425 -11 repeat 4;
#X obj 517 40 % 4;
#X obj 460 91 * 90;
#X obj -148 359 circle 3.2;
#X obj 128 136 translateXYZ 0 -0.15 0;
#X obj -301 259 translateXYZ 0 -0.15 0;
#X obj -148 325 translateXYZ 0 -0.15 0;
#X obj 272 72 translateXYZ 0 3.8 0;
#X obj 272 102 rectangle 4 0.2;
#X obj 128 188 repeat 4;
#X obj 220 239 % 4;
#X obj 163 266 expr ($f1/4)*2*3.14;
#X obj 425 -38 rotateXYZ 0 0 45;
#X obj 425 -65 translateXYZ 0 -0.15 0;
#X obj 426 148 translateXYZ 2 0 0;
#X obj 426 174 rectangle 0.4 0.05;
#X obj 384 343 inlet~;
#X obj 438 342 inlet~;
#X obj 497 341 inlet~;
#X obj 331 369 env~;
#X obj 335 481 v \$0-1;
#X obj 386 369 env~;
#X obj 444 392 env~;
#X obj 502 369 env~;
#X obj 390 481 v \$0-2;
#X obj 506 480 v \$0-4;
#X floatatom 335 515 5 0 0 0 - - -;
#X obj 332 407 dbtorms;
#X obj 380 436 dbtorms;
#X obj 446 417 dbtorms;
#X obj 502 445 dbtorms;
#X obj 443 482 v \$0-3;
#X obj 266 304 sel 0 1 2 3;
#X obj 128 162 rotateXYZ 0 0 45;
#X msg 45 390 width 2;
#X msg -80 287 draw point;
#X obj 335 542 expr ($f1*2)+0.3;
#X connect 0 0 3 0;
#X connect 0 1 1 0;
#X connect 1 0 2 0;
#X connect 1 0 56 0;
#X connect 1 0 77 0;
#X connect 2 0 55 0;
#X connect 3 0 13 0;
#X connect 4 0 17 0;
#X connect 5 0 49 0;
#X connect 6 0 8 0;
#X connect 7 0 8 0;
#X connect 9 0 64 0;
#X connect 10 0 11 0;
#X connect 11 0 6 0;
#X connect 11 1 29 0;
#X connect 12 0 52 0;
#X connect 13 0 27 0;
#X connect 13 0 26 0;
#X connect 14 0 38 0;
#X connect 15 0 16 0;
#X connect 16 0 14 1;
#X connect 17 0 14 0;
#X connect 18 0 50 0;
#X connect 19 0 25 0;
#X connect 20 0 35 0;
#X connect 21 0 20 0;
#X connect 21 1 22 0;
#X connect 22 0 34 0;
#X connect 23 0 79 0;
#X connect 23 0 19 0;
#X connect 24 0 25 0;
#X connect 26 0 28 0;
#X connect 27 0 24 0;
#X connect 29 0 8 0;
#X connect 30 0 31 0;
#X connect 31 0 17 4;
#X connect 32 0 33 0;
#X connect 34 0 13 2;
#X connect 35 0 13 1;
#X connect 36 0 32 0;
#X connect 36 0 80 0;
#X connect 37 0 51 0;
#X connect 38 0 7 0;
#X connect 38 1 5 0;
#X connect 38 2 12 0;
#X connect 38 3 18 0;
#X connect 38 4 37 0;
#X connect 38 5 39 0;
#X connect 39 0 58 0;
#X connect 40 0 59 0;
#X connect 41 0 44 0;
#X connect 41 1 42 0;
#X connect 42 0 43 0;
#X connect 42 0 47 0;
#X connect 43 0 46 0;
#X connect 44 0 40 0;
#X connect 45 0 41 0;
#X connect 46 0 42 1;
#X connect 47 0 40 3;
#X connect 49 0 78 0;
#X connect 50 0 33 0;
#X connect 51 0 48 0;
#X connect 52 0 53 0;
#X connect 54 0 0 0;
#X connect 55 0 1 1;
#X connect 56 0 21 0;
#X connect 57 0 45 0;
#X connect 58 0 57 0;
#X connect 59 0 60 0;
#X connect 61 0 66 0;
#X connect 62 0 67 0;
#X connect 63 0 68 0;
#X connect 64 0 72 0;
#X connect 65 0 71 0;
#X connect 66 0 73 0;
#X connect 67 0 74 0;
#X connect 68 0 75 0;
#X connect 69 0 71 0;
#X connect 70 0 71 0;
#X connect 71 0 81 0;
#X connect 72 0 65 0;
#X connect 73 0 69 0;
#X connect 74 0 76 0;
#X connect 75 0 70 0;
#X connect 76 0 71 0;
#X connect 77 0 65 0;
#X connect 77 1 69 0;
#X connect 77 2 76 0;
#X connect 77 3 70 0;
#X connect 78 0 54 0;
#X connect 79 0 25 0;
#X connect 80 0 48 0;
#X connect 81 0 24 1;
