#N canvas 96 105 1266 692 10;
#X obj 128 214 t a b;
#X obj 163 240 f;
#X obj 191 239 + 1;
#X obj 112 304 separator;
#X obj 76 -73 inlet;
#X obj 127 55 separator;
#X obj 401 331 inlet~;
#X obj 128 376 translateXYZ 0 0 0;
#X obj 76 -19 alpha;
#X obj 3 -23 loadbang;
#X obj 3 0 tgl 15 0 empty empty empty 17 7 0 10 -262144 -1 -1 1 1;
#X obj 76 -46 colorRGB 1 1 1 0.8;
#X obj -299 192 separator;
#X obj 197 328 sin;
#X obj 197 301 t f f;
#X obj 226 329 cos;
#X obj 45 352 loadbang;
#X obj 128 428 scale 1;
#X obj 128 455 circle 1;
#X obj 128 400 separator;
#X obj 234 -102 inlet;
#X obj 234 -77 * 0.8;
#X obj -315 323 circle 2;
#X obj 226 355 * 2;
#X obj 197 354 * 2;
#X obj -158 197 loadbang;
#X obj -146 260 separator;
#X obj 426 -122 separator;
#X obj 426 123 rotateXYZ 0 0 0;
#X obj 425 15 t a b;
#X obj 460 41 f;
#X obj 488 40 + 1;
#X obj 425 61 separator;
#X obj 425 -11 repeat 4;
#X obj 517 40 % 4;
#X obj 460 91 * 90;
#X obj 128 188 repeat 4;
#X obj 220 239 % 4;
#X obj 163 266 expr ($f1/4)*2*3.14;
#X obj 426 -70 rotateXYZ 0 0 45;
#X obj 426 148 translateXYZ 2 0 0;
#X obj 485 332 inlet~;
#X obj 399 357 env~;
#X obj 335 481 v \$0-1;
#X obj 487 358 env~;
#X obj 390 481 v \$0-2;
#X obj 581 525 v \$0-4;
#X floatatom 335 515 5 0 0 0 - - -;
#X obj 400 395 dbtorms;
#X obj 489 398 dbtorms;
#X obj 437 512 v \$0-3;
#X obj 266 304 sel 0 1 2 3;
#X obj 128 162 rotateXYZ 0 0 45;
#X msg -67 263 draw point;
#X obj 335 542 expr ($f1*2)+0.3;
#X obj 588 459 t f b;
#X obj 589 499 +;
#X obj 445 446 t f b;
#X obj 446 486 +;
#X msg -156 236 draw line \, width 2;
#X obj 117 340 color;
#X obj 316 216 sel 0 1 2 3;
#X msg 442 283 1 0.24 0.37;
#X msg 410 261 0 0.93 0.58;
#X obj -304 230 color 0.4 0.4 0.4;
#X obj -207 406 color 0.4 0.56 1;
#X obj 520 219 text2d;
#X obj 590 160 loadbang;
#X msg 659 216 font forgottenfuturistrg.ttf;
#X obj 659 187 loadbang;
#X msg 582 121 text -ENV-;
#X obj 557 -10 separator;
#X obj 556 71 color 1 1 1;
#X msg 45 389 width 3;
#X obj -124 300 t a b;
#X obj -89 326 f;
#X obj -163 352 rotateXYZ;
#X obj -61 325 + 0.5;
#X obj -15 324 fmod 360;
#X obj -160 439 translateXYZ 0 0 0;
#X obj 71 267 GEMglPointSize 2;
#X obj 425 -41 color 1 1 1;
#X obj 128 136 translateXYZ 0 0 0;
#X obj 137 100 f;
#X obj 211 98 fmod 360;
#X obj 128 76 t a b;
#X obj 426 174 rectangle 0.2 0.05;
#X obj 165 99 - 0.3;
#X msg 587 185 20;
#X obj -160 473 circle 2.8;
#X obj -301 259 translateXYZ;
#X obj 426 -97 translateXYZ 0 0 0;
#X obj 619 298 separator;
#X obj 550 349 loadbang;
#X obj 619 400 curve 2;
#X obj 634 326 loadbang;
#X obj 619 272 t a a;
#X obj 753 272 separator;
#X obj 759 439 curve 2;
#X obj 774 365 loadbang;
#X msg 635 359 3.5 0.7 0;
#X msg 680 359 3.5 -0.7 0;
#X msg 820 398 -3.5 -0.7 0;
#X msg 775 398 -3.5 0.7 0;
#X obj 749 301 color 0 0.93 0.58;
#X msg 312 271 0 0.93 0.58;
#X msg 349 296 1 0.24 0.37;
#X obj 304 149 s mb-click;
#X msg -14 420 draw line;
#X obj 76 12 t a a a a a a a a b;
#X msg 550 377 draw point \, res 10;
#X obj 462 461 k_random -0.02 0.02;
#X obj 605 474 k_random -0.02 0.02;
#X connect 0 0 80 0;
#X connect 0 1 1 0;
#X connect 1 0 2 0;
#X connect 1 0 38 0;
#X connect 1 0 51 0;
#X connect 1 0 61 0;
#X connect 2 0 37 0;
#X connect 3 0 60 0;
#X connect 4 0 11 0;
#X connect 5 0 85 0;
#X connect 6 0 42 0;
#X connect 7 0 19 0;
#X connect 8 0 109 0;
#X connect 9 0 10 0;
#X connect 10 0 8 1;
#X connect 11 0 8 0;
#X connect 12 0 64 0;
#X connect 13 0 24 0;
#X connect 14 0 13 0;
#X connect 14 1 15 0;
#X connect 15 0 23 0;
#X connect 16 0 73 0;
#X connect 16 0 108 0;
#X connect 17 0 18 0;
#X connect 19 0 17 0;
#X connect 20 0 21 0;
#X connect 21 0 11 4;
#X connect 23 0 7 2;
#X connect 24 0 7 1;
#X connect 25 0 59 0;
#X connect 25 0 53 0;
#X connect 26 0 74 0;
#X connect 27 0 91 0;
#X connect 28 0 40 0;
#X connect 29 0 32 0;
#X connect 29 1 30 0;
#X connect 30 0 31 0;
#X connect 30 0 35 0;
#X connect 31 0 34 0;
#X connect 32 0 28 0;
#X connect 33 0 29 0;
#X connect 34 0 30 1;
#X connect 35 0 28 3;
#X connect 36 0 0 0;
#X connect 37 0 1 1;
#X connect 38 0 14 0;
#X connect 39 0 81 0;
#X connect 40 0 86 0;
#X connect 41 0 44 0;
#X connect 42 0 48 0;
#X connect 43 0 47 0;
#X connect 44 0 49 0;
#X connect 45 0 47 0;
#X connect 46 0 47 0;
#X connect 47 0 54 0;
#X connect 48 0 57 0;
#X connect 49 0 55 0;
#X connect 50 0 47 0;
#X connect 51 0 43 0;
#X connect 51 1 45 0;
#X connect 51 3 50 0;
#X connect 51 4 46 0;
#X connect 52 0 36 0;
#X connect 53 0 89 0;
#X connect 54 0 17 1;
#X connect 55 0 56 0;
#X connect 55 1 112 0;
#X connect 56 0 46 0;
#X connect 56 0 45 0;
#X connect 57 0 58 0;
#X connect 57 1 111 0;
#X connect 58 0 50 0;
#X connect 58 0 43 0;
#X connect 59 0 22 0;
#X connect 60 0 7 0;
#X connect 61 0 105 0;
#X connect 61 1 106 0;
#X connect 61 2 63 0;
#X connect 61 3 62 0;
#X connect 62 0 60 1;
#X connect 63 0 60 1;
#X connect 64 0 90 0;
#X connect 65 0 79 0;
#X connect 67 0 88 0;
#X connect 67 0 70 0;
#X connect 68 0 66 0;
#X connect 69 0 68 0;
#X connect 70 0 66 0;
#X connect 71 0 72 0;
#X connect 72 0 66 0;
#X connect 73 0 18 0;
#X connect 74 0 76 0;
#X connect 74 1 75 0;
#X connect 75 0 76 3;
#X connect 75 0 77 0;
#X connect 76 0 65 0;
#X connect 77 0 78 0;
#X connect 78 0 75 1;
#X connect 79 0 89 0;
#X connect 80 0 3 0;
#X connect 81 0 33 0;
#X connect 82 0 52 0;
#X connect 83 0 52 3;
#X connect 83 0 39 3;
#X connect 83 0 87 0;
#X connect 84 0 83 1;
#X connect 85 0 82 0;
#X connect 85 1 83 0;
#X connect 87 0 84 0;
#X connect 88 0 66 1;
#X connect 90 0 22 0;
#X connect 91 0 39 0;
#X connect 92 0 94 0;
#X connect 93 0 110 0;
#X connect 95 0 100 0;
#X connect 95 0 101 0;
#X connect 96 0 92 0;
#X connect 96 1 97 0;
#X connect 97 0 104 0;
#X connect 99 0 103 0;
#X connect 99 0 102 0;
#X connect 100 0 94 1;
#X connect 101 0 94 2;
#X connect 102 0 98 2;
#X connect 103 0 98 1;
#X connect 104 0 98 0;
#X connect 105 0 60 1;
#X connect 106 0 60 1;
#X connect 108 0 18 0;
#X connect 109 1 5 0;
#X connect 109 3 12 0;
#X connect 109 4 26 0;
#X connect 109 5 27 0;
#X connect 109 6 71 0;
#X connect 109 7 96 0;
#X connect 110 0 94 0;
#X connect 110 0 98 0;
#X connect 111 0 58 1;
#X connect 112 0 56 1;
