#N canvas 495 222 915 567 10;
#X obj -78 -135 inlet;
#X msg -337 79 draw line;
#X obj -242 80 separator;
#X obj 458 -251 inlet~;
#X obj -337 27 loadbang;
#X obj -337 53 t b b;
#X obj 44 -14 inlet;
#X obj -242 131 rectangle 4 0.5;
#X obj 511 -250 inlet~;
#X obj 458 -225 env~;
#X obj 458 -198 / 100;
#X obj 458 -171 s \$0-l;
#X obj 510 -229 env~;
#X obj 510 -202 / 100;
#X obj 510 -175 s \$0-r;
#X obj -47 139 r \$0-l;
#X obj -47 166 * 3.8;
#X obj -61 4 separator;
#X obj -61 65 translateXYZ -3.8 0 0;
#X obj 97 203 * 3.8;
#X obj 97 179 r \$0-r;
#X obj -107 201 separator;
#X obj 35 203 separator;
#X msg -310 108 width 1;
#X obj -78 -104 alpha;
#X obj -41 -156 loadbang;
#X obj -41 -133 tgl 15 0 empty empty empty 17 7 0 10 -262144 -1 -1
1 1;
#X obj -242 107 colorRGB 1 1 1 0.8;
#X obj -137 84 * 0.8;
#X obj 119 130 text2d;
#X obj -78 -76 t a a a a;
#X obj -61 90 t a a a a;
#X obj 119 24 separator;
#X obj 152 84 loadbang;
#X msg 152 107 10;
#X msg 162 -10 text l-\$1;
#X obj 162 -61 r \$0-l;
#X obj 162 -34 * 3.8;
#X obj 225 207 text2d;
#X obj 225 101 separator;
#X obj 258 161 loadbang;
#X msg 258 184 10;
#X msg 268 67 text l-\$1;
#X obj 268 16 r \$0-l;
#X obj 268 43 * 3.8;
#X obj 90 -260 separator;
#X obj 90 -133 curve 2;
#X msg 107 -178 -3.8 0 0;
#X msg 128 -158 3.8 0 0;
#X obj 90 -206 colorRGB 1 1 1 0.6;
#X obj 195 -229 * 0.6;
#X obj 318 -168 separator;
#X obj 318 -114 t a b;
#X obj 381 -111 f;
#X obj 409 -112 + 1;
#X obj 318 -64 separator;
#X obj 318 -22 translateXYZ -3.8 0 0;
#X obj 318 14 rectangle 0.01 0.05;
#X obj 318 -140 repeat 10;
#X obj 438 -112 % 10;
#X obj 391 -69 expr ($f1/10)*7.8-3.8;
#X obj 35 264 rectangle 3.8 0.15;
#X obj -107 255 rectangle 3.8 0.15;
#X obj -107 228 translateXYZ 0 0.27 0;
#X obj 35 239 translateXYZ 0 -0.25 0;
#X obj 225 138 translateXYZ 1 0.28 0;
#X obj 119 61 translateXYZ 1 -0.22 0;
#X obj 186 -177 loadbang;
#X obj -61 35 colorRGB 1 1 1 0.5;
#X obj 44 9 * 0.5;
#X connect 0 0 24 0;
#X connect 1 0 7 0;
#X connect 2 0 27 0;
#X connect 3 0 9 0;
#X connect 4 0 5 0;
#X connect 5 0 1 0;
#X connect 5 1 23 0;
#X connect 6 0 28 0;
#X connect 6 0 50 0;
#X connect 6 0 69 0;
#X connect 8 0 12 0;
#X connect 9 0 10 0;
#X connect 10 0 11 0;
#X connect 12 0 13 0;
#X connect 13 0 14 0;
#X connect 15 0 16 0;
#X connect 16 0 62 1;
#X connect 16 0 63 1;
#X connect 17 0 68 0;
#X connect 18 0 31 0;
#X connect 19 0 61 1;
#X connect 19 0 64 1;
#X connect 20 0 19 0;
#X connect 21 0 63 0;
#X connect 22 0 64 0;
#X connect 23 0 7 0;
#X connect 24 0 30 0;
#X connect 25 0 26 0;
#X connect 26 0 24 1;
#X connect 27 0 7 0;
#X connect 28 0 27 4;
#X connect 30 0 2 0;
#X connect 30 1 17 0;
#X connect 30 2 51 0;
#X connect 30 3 45 0;
#X connect 31 0 21 0;
#X connect 31 1 22 0;
#X connect 31 2 32 0;
#X connect 31 3 39 0;
#X connect 32 0 66 0;
#X connect 33 0 34 0;
#X connect 34 0 29 1;
#X connect 35 0 29 0;
#X connect 36 0 37 0;
#X connect 37 0 35 0;
#X connect 39 0 65 0;
#X connect 40 0 41 0;
#X connect 41 0 38 1;
#X connect 42 0 38 0;
#X connect 43 0 44 0;
#X connect 44 0 42 0;
#X connect 45 0 49 0;
#X connect 47 0 46 1;
#X connect 48 0 46 2;
#X connect 49 0 46 0;
#X connect 50 0 49 4;
#X connect 51 0 58 0;
#X connect 52 0 55 0;
#X connect 52 1 53 0;
#X connect 53 0 54 0;
#X connect 53 0 60 0;
#X connect 54 0 59 0;
#X connect 55 0 56 0;
#X connect 56 0 57 0;
#X connect 58 0 52 0;
#X connect 59 0 53 1;
#X connect 60 0 56 1;
#X connect 63 0 62 0;
#X connect 64 0 61 0;
#X connect 65 0 38 0;
#X connect 66 0 29 0;
#X connect 67 0 47 0;
#X connect 67 0 48 0;
#X connect 68 0 18 0;
#X connect 69 0 68 4;
