#N canvas 592 22 760 746 10;
#X obj 73 -148 inlet;
#X obj 73 -1 alpha;
#X obj 100 -45 loadbang;
#X obj 100 -22 tgl 15 0 empty empty empty 17 7 0 10 -262144 -1 -1 1
1;
#X obj 73 30 t a a a a a a a a b;
#X obj 73 65 separator;
#X obj 73 115 repeat 20;
#X obj 73 138 t a b;
#X obj 137 127 k_count 1 20;
#X obj 73 203 separator;
#X obj 73 232 translateXYZ;
#X obj 137 154 expr ($f1/20)*3.14159*2;
#X obj 137 177 t f f;
#X obj 164 225 expr sin($f1)* $f2;
#X obj 137 202 expr cos($f1)* $f2;
#X obj -71 290 table \$0-pos 20;
#X obj -169 231 loadbang;
#X obj -169 253 bng 15 250 50 0 empty empty empty 17 7 0 10 -4034 -1
-1;
#X obj -169 273 f \$0;
#X msg -169 295 set \$1-pos;
#X obj -169 321 s ch-array;
#X obj 221 126 t f f;
#X obj 290 155 tabread \$0-pos;
#X obj 320 82 f;
#X obj 347 84 + 1;
#X obj 372 84 % 20;
#X obj 320 124 s t_ui5;
#X floatatom 320 103 5 0 0 0 - - -;
#X obj -103 -86 ui5_tween 0;
#X obj 87 322 separator;
#X obj 87 372 repeat 20;
#X obj 87 395 t a b;
#X obj 151 384 k_count 1 20;
#X obj 87 427 separator;
#X obj 87 489 translateXYZ;
#X obj 151 411 expr ($f1/20)*3.14159*2;
#X obj 151 434 t f f;
#X obj -53 463 loadbang;
#X msg -53 487 draw line \, width 1;
#X obj -68 345 s t_ui5speed;
#X msg -68 321 300;
#X obj 123 258 > 0;
#X obj 73 257 spigot;
#X obj 143 -96 f;
#X obj 213 -96 fmod 360;
#X obj 73 -109 t a b;
#X floatatom -40 321 5 0 0 0 - - -;
#X obj 171 -96 + 0.4;
#X obj 73 -128 separator;
#X obj 87 517 rotateXYZ;
#X obj 216 521 expr (1.0-($f1/20))*-360+90;
#X obj 87 346 color 1 0.24 0.37;
#X obj 290 180 * 2.7;
#X obj 151 459 expr cos($f1)* 2.7;
#X obj 178 482 expr sin($f1)* 2.7;
#X obj 73 303 circle 0.07;
#X obj 87 549 triangle 0.12;
#X obj 73 -68 rotateXYZ;
#X obj 270 -81 r bang_ui5;
#X obj 275 0 repeat;
#X obj 270 -26 t b f f;
#X obj 445 2 > 0;
#X obj 330 22 +;
#X floatatom 329 46 5 0 0 0 - - -;
#X obj -103 -64 ui5_tween 1;
#X obj -103 -42 ui5_tween 2;
#X obj -103 -20 ui5_tween 3;
#X obj -103 2 ui5_tween 4;
#X obj -103 24 ui5_tween 5;
#X obj -103 46 ui5_tween 6;
#X obj -103 68 ui5_tween 7;
#X obj -103 90 ui5_tween 8;
#X obj -103 112 ui5_tween 9;
#X obj -21 -86 ui5_tween 10;
#X obj -21 -64 ui5_tween 11;
#X obj -21 -42 ui5_tween 12;
#X obj -21 -20 ui5_tween 13;
#X obj -21 2 ui5_tween 14;
#X obj -21 24 ui5_tween 15;
#X obj -21 46 ui5_tween 16;
#X obj -21 68 ui5_tween 17;
#X obj -21 90 ui5_tween 18;
#X obj -21 112 ui5_tween 19;
#X obj 331 -2 expr int($f1/15);
#X obj 270 -57 k_speed 100;
#X obj 295 351 loadbang;
#X obj 322 409 square 0.8;
#X obj 248 245 > 0.8;
#X obj 72 281 color 0.28 0.62 1;
#X obj 247 265 sel 0 1;
#X msg 264 311 0.28 0.62 1;
#X msg 241 290 1 0.5 0.45;
#X msg 295 376 draw line \, width 2;
#X obj 382 216 loadbang;
#X msg 382 241 draw line \, width 1;
#X obj 409 274 square 0.4;
#X obj 308 449 separator;
#X obj 310 472 color 0.28 0.62 1;
#X obj 451 171 separator;
#X obj 453 194 color 0 0.84 1;
#X obj 428 329 loadbang;
#X obj 441 427 separator;
#X obj 455 387 circle 3.1;
#X obj 443 450 color 0.57 0.36 0.83;
#X msg 428 354 draw point \, width 1;
#X connect 0 0 48 0;
#X connect 1 0 4 0;
#X connect 2 0 3 0;
#X connect 3 0 1 1;
#X connect 4 0 5 0;
#X connect 4 1 29 0;
#X connect 4 2 96 0;
#X connect 4 3 98 0;
#X connect 4 4 101 0;
#X connect 5 0 6 0;
#X connect 6 0 7 0;
#X connect 7 0 9 0;
#X connect 7 1 8 0;
#X connect 8 0 21 0;
#X connect 9 0 10 0;
#X connect 10 0 42 0;
#X connect 11 0 12 0;
#X connect 12 0 14 0;
#X connect 12 1 13 0;
#X connect 13 0 10 2;
#X connect 14 0 10 1;
#X connect 16 0 17 0;
#X connect 17 0 18 0;
#X connect 18 0 19 0;
#X connect 19 0 20 0;
#X connect 21 0 11 0;
#X connect 21 1 22 0;
#X connect 22 0 41 0;
#X connect 22 0 52 0;
#X connect 23 0 24 0;
#X connect 23 0 27 0;
#X connect 24 0 25 0;
#X connect 25 0 23 1;
#X connect 27 0 26 0;
#X connect 29 0 51 0;
#X connect 30 0 31 0;
#X connect 31 0 33 0;
#X connect 31 1 32 0;
#X connect 32 0 35 0;
#X connect 32 0 50 0;
#X connect 33 0 34 0;
#X connect 34 0 49 0;
#X connect 35 0 36 0;
#X connect 36 0 53 0;
#X connect 36 1 54 0;
#X connect 37 0 38 0;
#X connect 38 0 56 0;
#X connect 40 0 39 0;
#X connect 41 0 42 1;
#X connect 42 0 88 0;
#X connect 43 0 47 0;
#X connect 43 0 57 3;
#X connect 44 0 43 1;
#X connect 45 0 57 0;
#X connect 45 1 43 0;
#X connect 46 0 39 0;
#X connect 47 0 44 0;
#X connect 48 0 45 0;
#X connect 49 0 56 0;
#X connect 50 0 49 3;
#X connect 51 0 30 0;
#X connect 52 0 14 1;
#X connect 52 0 13 1;
#X connect 52 0 87 0;
#X connect 53 0 34 1;
#X connect 54 0 34 2;
#X connect 57 0 1 0;
#X connect 58 0 84 0;
#X connect 59 0 23 0;
#X connect 60 0 59 0;
#X connect 60 1 83 0;
#X connect 60 2 61 0;
#X connect 61 0 62 1;
#X connect 62 0 63 0;
#X connect 63 0 59 1;
#X connect 83 0 62 0;
#X connect 84 0 60 0;
#X connect 85 0 92 0;
#X connect 87 0 89 0;
#X connect 88 0 55 0;
#X connect 89 0 91 0;
#X connect 89 1 90 0;
#X connect 90 0 88 1;
#X connect 91 0 88 1;
#X connect 92 0 86 0;
#X connect 93 0 94 0;
#X connect 94 0 95 0;
#X connect 96 0 97 0;
#X connect 97 0 86 0;
#X connect 98 0 99 0;
#X connect 99 0 95 0;
#X connect 100 0 104 0;
#X connect 101 0 103 0;
#X connect 103 0 102 0;
#X connect 104 0 102 0;
