#N canvas 60 90 1372 785 10;
#X obj 73 -148 inlet;
#X obj 73 -1 alpha;
#X obj 100 -45 loadbang;
#X obj 100 -22 tgl 15 0 empty empty empty 17 7 0 10 -262144 -1 -1 1
1;
#X obj 73 30 t a a a a a a a a b;
#X obj 73 65 separator;
#X obj 73 115 repeat 20;
#X obj 73 138 t a b;
#X obj 137 127 k_count 1 20;
#X obj 73 203 separator;
#X obj 73 232 translateXYZ;
#X obj 137 154 expr ($f1/20)*3.14159*2;
#X obj 137 177 t f f;
#X obj 164 225 expr sin($f1)* $f2;
#X obj 137 202 expr cos($f1)* $f2;
#X obj -71 290 table \$0-pos 20;
#X obj -169 231 loadbang;
#X obj -169 253 bng 15 250 50 0 empty empty empty 17 7 0 10 -4034 -1
-1;
#X obj -169 273 f \$0;
#X msg -169 295 set \$1-pos;
#X obj -169 321 s ch-array;
#X obj 221 126 t f f;
#X obj 290 155 tabread \$0-pos;
#X obj 298 26 f;
#X obj 325 28 + 1;
#X obj 298 70 s t_ui5;
#X floatatom 298 47 5 0 0 0 - - -;
#X obj 483 -118 ui5_tween 0;
#X obj 87 322 separator;
#X obj 87 372 repeat 20;
#X obj 87 395 t a b;
#X obj 151 384 k_count 1 20;
#X obj 87 427 separator;
#X obj 87 489 translateXYZ;
#X obj 151 411 expr ($f1/20)*3.14159*2;
#X obj 151 434 t f f;
#X obj -53 463 loadbang;
#X msg -53 487 draw line \, width 1;
#X obj -68 345 s t_ui5speed;
#X msg -68 321 300;
#X obj 123 258 > 0;
#X obj 73 257 spigot;
#X obj 143 -96 f;
#X obj 213 -96 fmod 360;
#X obj 73 -109 t a b;
#X floatatom -40 321 5 0 0 0 - - -;
#X obj 171 -96 + 0.4;
#X obj 73 -128 separator;
#X obj 87 517 rotateXYZ;
#X obj 216 521 expr (1.0-($f1/20))*-360+90;
#X obj 87 346 color 1 0.24 0.37;
#X obj 290 180 * 2.7;
#X obj 151 459 expr cos($f1)* 2.7;
#X obj 178 482 expr sin($f1)* 2.7;
#X obj 73 303 circle 0.07;
#X obj 87 549 triangle 0.12;
#X obj 73 -68 rotateXYZ;
#X obj 288 -135 r bang_ui5;
#X obj 297 -22 repeat;
#X obj 292 -48 t b f f;
#X obj 374 -22 +;
#X floatatom 373 2 5 0 0 0 - - -;
#X obj 483 -96 ui5_tween 1;
#X obj 483 -74 ui5_tween 2;
#X obj 483 -52 ui5_tween 3;
#X obj 483 -30 ui5_tween 4;
#X obj 483 -8 ui5_tween 5;
#X obj 483 14 ui5_tween 6;
#X obj 483 36 ui5_tween 7;
#X obj 483 58 ui5_tween 8;
#X obj 483 80 ui5_tween 9;
#X obj 565 -118 ui5_tween 10;
#X obj 565 -96 ui5_tween 11;
#X obj 565 -74 ui5_tween 12;
#X obj 565 -52 ui5_tween 13;
#X obj 565 -30 ui5_tween 14;
#X obj 565 -8 ui5_tween 15;
#X obj 565 14 ui5_tween 16;
#X obj 565 36 ui5_tween 17;
#X obj 565 58 ui5_tween 18;
#X obj 565 80 ui5_tween 19;
#X obj 375 -46 expr int($f1/15);
#X obj 292 -79 k_speed 100;
#X obj 295 351 loadbang;
#X obj 322 409 square 0.8;
#X obj 248 245 > 0.8;
#X obj 72 281 color 0.28 0.62 1;
#X obj 247 265 sel 0 1;
#X msg 264 311 0.28 0.62 1;
#X msg 241 290 1 0.5 0.45;
#X msg 295 376 draw line \, width 2;
#X obj 382 216 loadbang;
#X msg 382 241 draw line \, width 1;
#X obj 409 274 square 0.4;
#X obj 308 449 separator;
#X obj 310 472 color 0.28 0.62 1;
#X obj 451 171 separator;
#X obj 453 194 color 0 0.84 1;
#X obj 428 329 loadbang;
#X obj 441 427 separator;
#X obj 455 387 circle 3.1;
#X obj 443 450 color 0.57 0.36 0.83;
#X msg 428 354 draw point \, width 1;
#X obj 459 -65 > 5;
#X obj -373 255 hsl 128 15 0 1.01 0 0 empty empty empty -2 -8 0 10
-262144 -1 -1 0 1;
#X floatatom -376 277 5 0 0 0 - - -;
#X msg -376 300 end \$1;
#X obj -376 183 line;
#X obj -376 206 inoutexpo;
#X obj -376 232 * 1.01;
#X obj -346 409 loadbang;
#X obj -482 171 line;
#X obj -482 194 inoutexpo;
#X obj -474 484 rotateXYZ 0 0 0;
#X obj -411 108 random 4;
#X obj -411 133 * 90;
#X obj -349 129 * 45;
#X obj -482 221 expr $f1*$f2-$f3;
#X obj -349 106 random 8;
#X obj -288 107 randomF 0.5;
#X floatatom -449 382 5 0 0 0 - - -;
#X msg -314 364 stroke \$1;
#X obj -411 56 t b b b b b;
#X obj -474 410 scale 0;
#X msg -482 141 0 \, 1 3000;
#X obj -487 -41 bng 15 250 50 0 empty empty empty 17 7 0 10 -262144
-1 -1;
#X obj -487 -20 t b b b;
#X msg -469 11 0 \, 1 1000;
#X obj -434 -36 bng 15 250 50 0 empty empty empty 17 7 0 10 -262144
-1 -1;
#X msg -434 -14 1 \, 0 1000;
#X obj -439 259 > 0;
#X obj -213 159 + 0.501;
#X obj -213 133 random 0.5;
#X obj -474 509 vj_quarter 0.3;
#X obj -295 285 bng 15 250 50 0 empty empty empty 17 7 0 10 -262144
-1 -1;
#X msg -517 -118 1;
#X msg -447 -96 2;
#X obj -474 -66 sel 1 2;
#X obj -510 -87 change;
#X floatatom 160 -63 5 0 0 0 - - -;
#X obj -284 -107 % 180;
#X obj -518 -138 k_event 0 90;
#X obj -421 -116 k_event 90 180;
#X obj -475 356 separator;
#X obj -471 300 spigot;
#X msg -346 430 color 1 0.24 0.37 \, drawfill 1 \, drawpoint 1;
#X obj -314 340 + 0.95;
#X obj -314 314 randomF 0.03;
#X obj -288 133 + 11;
#X obj -473 330 spigot;
#X obj -423 303 > 12;
#X floatatom 293 -107 5 0 0 0 - - -;
#X obj 350 28 % 20;
#X obj -87 220 r \$0-show;
#X obj -87 244 sel 1;
#X connect 0 0 47 0;
#X connect 1 0 4 0;
#X connect 2 0 3 0;
#X connect 3 0 1 1;
#X connect 4 0 5 0;
#X connect 4 1 28 0;
#X connect 4 2 94 0;
#X connect 4 3 96 0;
#X connect 4 4 99 0;
#X connect 4 5 144 0;
#X connect 5 0 6 0;
#X connect 6 0 7 0;
#X connect 7 0 9 0;
#X connect 7 1 8 0;
#X connect 8 0 21 0;
#X connect 9 0 10 0;
#X connect 10 0 41 0;
#X connect 11 0 12 0;
#X connect 12 0 14 0;
#X connect 12 1 13 0;
#X connect 13 0 10 2;
#X connect 14 0 10 1;
#X connect 16 0 17 0;
#X connect 17 0 18 0;
#X connect 18 0 19 0;
#X connect 19 0 20 0;
#X connect 21 0 11 0;
#X connect 21 1 22 0;
#X connect 22 0 40 0;
#X connect 22 0 51 0;
#X connect 23 0 24 0;
#X connect 23 0 26 0;
#X connect 24 0 152 0;
#X connect 26 0 25 0;
#X connect 28 0 50 0;
#X connect 29 0 30 0;
#X connect 30 0 32 0;
#X connect 30 1 31 0;
#X connect 31 0 34 0;
#X connect 31 0 49 0;
#X connect 32 0 33 0;
#X connect 33 0 48 0;
#X connect 34 0 35 0;
#X connect 35 0 52 0;
#X connect 35 1 53 0;
#X connect 36 0 37 0;
#X connect 37 0 55 0;
#X connect 39 0 38 0;
#X connect 40 0 41 1;
#X connect 41 0 86 0;
#X connect 42 0 46 0;
#X connect 42 0 56 3;
#X connect 42 0 139 0;
#X connect 43 0 42 1;
#X connect 44 0 56 0;
#X connect 44 1 42 0;
#X connect 45 0 38 0;
#X connect 46 0 43 0;
#X connect 47 0 44 0;
#X connect 48 0 55 0;
#X connect 49 0 48 3;
#X connect 50 0 29 0;
#X connect 51 0 14 1;
#X connect 51 0 13 1;
#X connect 51 0 85 0;
#X connect 52 0 33 1;
#X connect 53 0 33 2;
#X connect 56 0 1 0;
#X connect 57 0 151 0;
#X connect 58 0 23 0;
#X connect 59 0 58 0;
#X connect 59 1 81 0;
#X connect 59 2 103 0;
#X connect 60 0 61 0;
#X connect 61 0 58 1;
#X connect 61 0 150 0;
#X connect 81 0 60 0;
#X connect 82 0 59 0;
#X connect 83 0 90 0;
#X connect 85 0 87 0;
#X connect 86 0 54 0;
#X connect 87 0 89 0;
#X connect 87 1 88 0;
#X connect 88 0 86 1;
#X connect 89 0 86 1;
#X connect 90 0 84 0;
#X connect 91 0 92 0;
#X connect 92 0 93 0;
#X connect 94 0 95 0;
#X connect 95 0 84 0;
#X connect 96 0 97 0;
#X connect 97 0 93 0;
#X connect 98 0 102 0;
#X connect 99 0 101 0;
#X connect 101 0 100 0;
#X connect 102 0 100 0;
#X connect 103 0 60 1;
#X connect 104 0 105 0;
#X connect 105 0 106 0;
#X connect 106 0 133 1;
#X connect 107 0 108 0;
#X connect 108 0 109 0;
#X connect 108 0 130 0;
#X connect 109 0 104 0;
#X connect 110 0 145 0;
#X connect 111 0 112 0;
#X connect 112 0 117 0;
#X connect 113 0 133 0;
#X connect 114 0 115 0;
#X connect 115 0 117 1;
#X connect 116 0 117 2;
#X connect 117 0 113 3;
#X connect 118 0 116 0;
#X connect 119 0 148 0;
#X connect 120 0 123 1;
#X connect 121 0 133 1;
#X connect 122 0 114 0;
#X connect 122 1 118 0;
#X connect 122 2 119 0;
#X connect 122 3 147 0;
#X connect 122 4 132 0;
#X connect 123 0 113 0;
#X connect 124 0 111 0;
#X connect 125 0 126 0;
#X connect 126 0 124 0;
#X connect 126 1 127 0;
#X connect 126 2 122 0;
#X connect 127 0 107 0;
#X connect 128 0 129 0;
#X connect 129 0 107 0;
#X connect 130 0 144 1;
#X connect 131 0 109 1;
#X connect 132 0 131 0;
#X connect 134 0 147 0;
#X connect 135 0 138 0;
#X connect 136 0 138 0;
#X connect 137 0 125 0;
#X connect 137 1 128 0;
#X connect 138 0 137 0;
#X connect 139 0 140 0;
#X connect 140 0 141 0;
#X connect 141 0 135 0;
#X connect 141 1 142 0;
#X connect 142 0 136 0;
#X connect 143 0 123 0;
#X connect 144 0 149 0;
#X connect 145 0 133 1;
#X connect 146 0 121 0;
#X connect 147 0 146 0;
#X connect 148 0 120 0;
#X connect 149 0 143 0;
#X connect 150 0 149 1;
#X connect 151 0 82 0;
#X connect 152 0 23 1;
#X connect 153 0 154 0;
#X connect 154 0 17 0;
