#N canvas 894 136 1398 605 10;
#X obj -506 -413 inlet;
#X msg -297 53 draw line;
#X obj -242 23 separator;
#X obj 458 -251 inlet~;
#X obj -297 1 loadbang;
#X obj -297 27 t b b;
#X obj -242 131 rectangle 4 0.5;
#X obj 511 -250 inlet~;
#X obj 458 -225 env~;
#X obj 458 -198 / 100;
#X obj 458 -171 s \$0-l;
#X obj 510 -229 env~;
#X obj 510 -202 / 100;
#X obj 510 -175 s \$0-r;
#X obj -47 139 r \$0-l;
#X obj -47 166 * 3.8;
#X obj -61 4 separator;
#X obj 97 203 * 3.8;
#X obj 97 179 r \$0-r;
#X obj -108 164 separator;
#X obj 34 166 separator;
#X msg -270 82 width 1;
#X obj -506 -382 alpha;
#X obj -469 -434 loadbang;
#X obj -469 -411 tgl 15 0 empty empty empty 17 7 0 10 -262144 -1 -1
1 1;
#X obj 119 130 text2d;
#X obj -61 90 t a a a a;
#X obj 119 24 separator;
#X obj 152 84 loadbang;
#X obj 162 -66 r \$0-l;
#X obj 225 207 text2d;
#X obj 225 101 separator;
#X obj 258 161 loadbang;
#X obj 90 -260 separator;
#X obj 90 -133 curve 2;
#X msg 107 -178 -3.8 0 0;
#X msg 128 -158 3.8 0 0;
#X obj 318 -190 separator;
#X obj 318 -114 t a b;
#X obj 381 -111 f;
#X obj 409 -112 + 1;
#X obj 318 -64 separator;
#X obj 318 -22 translateXYZ -3.8 0 0;
#X obj 318 -140 repeat 10;
#X obj 438 -112 % 10;
#X obj 391 -69 expr ($f1/10)*7.8-3.8;
#X obj 35 264 rectangle 3.8 0.15;
#X obj -107 255 rectangle 3.8 0.15;
#X obj -107 228 translateXYZ 0 0.27 0;
#X obj 35 239 translateXYZ 0 -0.25 0;
#X obj 225 138 translateXYZ 1 0.28 0;
#X obj 119 61 translateXYZ 1 -0.22 0;
#X obj 115 -233 loadbang;
#X msg 289 228 font forgottenfuturistrg.ttf;
#X obj 289 199 loadbang;
#X obj 344 43 r \$0-r;
#X msg 268 67 text R:\$1;
#X msg 162 -10 text L:\$1;
#X msg 152 107 14;
#X msg 258 184 14;
#X obj 34 205 colorRGB 0 0.93 0.58 0.5;
#X obj -182 198 colorRGB 1 0.24 0.37 0.5;
#X obj -61 65 translateXYZ -3.8 0 0;
#X obj -61 35 colorRGB 1 1 1 1;
#X obj -242 50 color 0.28 0.62 1;
#X obj 318 14 rectangle 0.02 0.05;
#X obj 90 -206 color 0.28 0.62 1;
#X obj 318 -166 color 0.4 0.56 1;
#X obj 344 71 expr int($f1*100)/10;
#X obj 162 -38 expr int($f1*100)/10;
#X obj 651 -20 separator;
#X obj 651 11 translateXYZ;
#X obj 651 60 pix_texture;
#X obj -20 -44 translateXYZ 0 -0.825 2.99;
#X obj 693 -184 r x_size;
#X floatatom 693 -160 5 0 0 0 - - -;
#X floatatom 693 -109 5 0 0 0 - - -;
#X obj 651 36 pix_image _imgs/edge_r.png;
#X obj 519 104 separator;
#X obj 519 135 translateXYZ;
#X obj 519 184 pix_texture;
#X obj 519 160 pix_image _imgs/edge_l.png;
#X obj 587 -4 * -1;
#X floatatom 111 -81 5 0 0 0 - - -;
#X obj 729 -11 k_range 0 1 10 5;
#X obj 482 23 k_range 0 1 -10 -5;
#X obj -20 -19 scaleXYZ 0.12 0.12 0.12;
#X obj 519 211 rectangle 1.08 3.6;
#X obj 651 87 rectangle 1.08 3.6;
#X obj 669 188 separator;
#X obj 669 283 pix_texture;
#X obj -78 -76 t a a a a a a a a;
#X obj 669 259 pix_image _imgs/edge_d.png;
#X floatatom 847 203 5 0 0 0 - - -;
#X obj 111 -104 k_range 0 1 -1.2 -0.778;
#X obj 703 208 spigot;
#X obj 865 235 > 0;
#X obj 667 310 rectangle 4.5 1;
#X obj 669 234 translateXYZ 0.02 -3.09 0;
#X obj 801 159 k_range 0 1 0 4.5;
#X obj 693 -134 expr $f1*0.86;
#X obj -279 -129 separator;
#X obj -279 -49 pix_texture;
#X obj -279 -73 pix_image _imgs/edge_v.png;
#X obj -489 -114 separator;
#X obj -508 93 pix_texture;
#X obj -508 69 pix_image _imgs/edge_h.png;
#X obj -611 125 separator;
#X obj -611 205 pix_texture;
#X obj -611 181 pix_image _imgs/edge_h1.png;
#X obj -507 -343 t a a;
#X obj -509 -230 rotateXYZ;
#X obj -376 -337 k_angle;
#X floatatom -415 -230 5 0 0 0 - - -;
#X obj -508 -321 separator;
#X obj -279 -98 translateXYZ 0 0 0;
#X obj -509 -179 t a a a;
#X obj -481 -53 t a b;
#X obj -509 1 separator;
#X obj -508 25 translateXYZ 0 0 0;
#X obj -403 -199 k_count 1 7;
#X obj -483 -78 repeat 7;
#X obj -403 -167 / 7;
#X obj -388 -15 > 0;
#X obj -391 16 sel 0 1;
#X msg -372 113 0.5;
#X msg -339 113 -0.5;
#X obj -406 -136 expr fmod($f1+$f2 \, 1);
#X obj -291 -211 expr abs($f1/360);
#X obj -611 156 translateXYZ 0 2 0;
#X obj -432 154 / 10;
#X obj -611 232 rectangle 2.8 1.4;
#X obj -279 -22 rectangle 7 1;
#X obj 232 -337 inlet;
#X obj 233 -150 f;
#X obj -507 -269 translateXYZ 0 7 0;
#X obj -398 -57 k_range 0 1 12 -12;
#X obj -353 -439 r viewcin;
#X obj -353 -416 t a a;
#X msg -353 -370 \$1 \$2 \$3;
#X msg -326 -393 \$4 \$5 \$6;
#X obj -559 51 t a a;
#X obj -502 48 separator;
#X obj -413 282 text2d;
#X obj -325 259 loadbang;
#X msg -351 205 text V:\$1;
#X floatatom -414 212 5 0 0 0 - - -;
#X msg -325 289 10;
#X floatatom -445 202 5 0 0 0 - - -;
#X msg -355 316 justify left base;
#X obj -361 175 k_range 0 6 -30 30;
#X obj -568 82 color 1 1 1;
#X obj -508 120 rectangle 2 0.4;
#X obj -483 246 translateXYZ -2.47 -0.05 0;
#X connect 0 0 22 0;
#X connect 1 0 6 0;
#X connect 2 0 64 0;
#X connect 3 0 8 0;
#X connect 4 0 5 0;
#X connect 5 0 1 0;
#X connect 5 1 21 0;
#X connect 7 0 11 0;
#X connect 8 0 9 0;
#X connect 9 0 10 0;
#X connect 11 0 12 0;
#X connect 12 0 13 0;
#X connect 14 0 15 0;
#X connect 15 0 47 1;
#X connect 15 0 48 1;
#X connect 16 0 63 0;
#X connect 17 0 46 1;
#X connect 17 0 49 1;
#X connect 18 0 17 0;
#X connect 19 0 61 0;
#X connect 20 0 60 0;
#X connect 21 0 6 0;
#X connect 22 0 110 0;
#X connect 23 0 24 0;
#X connect 24 0 22 1;
#X connect 26 0 19 0;
#X connect 26 1 20 0;
#X connect 26 2 27 0;
#X connect 26 3 31 0;
#X connect 27 0 51 0;
#X connect 28 0 58 0;
#X connect 29 0 69 0;
#X connect 31 0 50 0;
#X connect 32 0 59 0;
#X connect 33 0 66 0;
#X connect 35 0 34 1;
#X connect 36 0 34 2;
#X connect 37 0 67 0;
#X connect 38 0 41 0;
#X connect 38 1 39 0;
#X connect 39 0 40 0;
#X connect 39 0 45 0;
#X connect 40 0 44 0;
#X connect 41 0 42 0;
#X connect 42 0 65 0;
#X connect 43 0 38 0;
#X connect 44 0 39 1;
#X connect 45 0 42 1;
#X connect 48 0 47 0;
#X connect 49 0 46 0;
#X connect 50 0 30 0;
#X connect 51 0 25 0;
#X connect 52 0 35 0;
#X connect 52 0 36 0;
#X connect 53 0 30 0;
#X connect 53 0 25 0;
#X connect 54 0 53 0;
#X connect 55 0 68 0;
#X connect 56 0 30 0;
#X connect 57 0 25 0;
#X connect 58 0 25 1;
#X connect 59 0 30 1;
#X connect 60 0 49 0;
#X connect 61 0 48 0;
#X connect 62 0 26 0;
#X connect 63 0 62 0;
#X connect 64 0 6 0;
#X connect 66 0 34 0;
#X connect 67 0 43 0;
#X connect 68 0 56 0;
#X connect 69 0 57 0;
#X connect 70 0 71 0;
#X connect 71 0 77 0;
#X connect 72 0 88 0;
#X connect 73 0 86 0;
#X connect 74 0 75 0;
#X connect 75 0 100 0;
#X connect 76 0 82 0;
#X connect 76 0 84 4;
#X connect 77 0 72 0;
#X connect 78 0 79 0;
#X connect 79 0 81 0;
#X connect 80 0 87 0;
#X connect 81 0 80 0;
#X connect 82 0 85 4;
#X connect 83 0 73 2;
#X connect 84 0 71 1;
#X connect 85 0 79 1;
#X connect 89 0 95 0;
#X connect 90 0 97 0;
#X connect 91 0 2 0;
#X connect 91 1 16 0;
#X connect 91 2 37 0;
#X connect 91 3 33 0;
#X connect 91 4 73 0;
#X connect 91 5 78 0;
#X connect 91 6 70 0;
#X connect 91 7 89 0;
#X connect 92 0 90 0;
#X connect 93 0 96 0;
#X connect 93 0 97 1;
#X connect 94 0 83 0;
#X connect 95 0 98 0;
#X connect 96 0 95 1;
#X connect 98 0 92 0;
#X connect 99 0 93 0;
#X connect 100 0 76 0;
#X connect 101 0 115 0;
#X connect 102 0 132 0;
#X connect 103 0 102 0;
#X connect 104 0 121 0;
#X connect 105 0 152 0;
#X connect 106 0 105 0;
#X connect 107 0 129 0;
#X connect 108 0 131 0;
#X connect 109 0 108 0;
#X connect 110 0 114 0;
#X connect 110 1 91 0;
#X connect 111 0 116 0;
#X connect 112 0 113 0;
#X connect 112 1 128 0;
#X connect 112 1 130 0;
#X connect 113 0 111 3;
#X connect 114 0 135 0;
#X connect 115 0 103 0;
#X connect 116 0 107 0;
#X connect 116 1 104 0;
#X connect 116 2 101 0;
#X connect 117 0 118 0;
#X connect 117 1 120 0;
#X connect 118 0 119 0;
#X connect 119 0 141 0;
#X connect 120 0 122 0;
#X connect 120 0 150 0;
#X connect 121 0 117 0;
#X connect 122 0 127 0;
#X connect 123 0 124 0;
#X connect 124 0 125 0;
#X connect 124 1 126 0;
#X connect 125 0 152 2;
#X connect 126 0 152 2;
#X connect 127 0 136 0;
#X connect 128 0 127 1;
#X connect 129 0 109 0;
#X connect 130 0 129 2;
#X connect 133 0 134 0;
#X connect 134 0 84 0;
#X connect 134 0 85 0;
#X connect 134 0 94 0;
#X connect 134 0 99 0;
#X connect 135 0 111 0;
#X connect 136 0 119 2;
#X connect 136 0 123 0;
#X connect 137 0 138 0;
#X connect 138 0 139 0;
#X connect 138 1 140 0;
#X connect 139 0 112 0;
#X connect 140 0 112 1;
#X connect 141 0 151 0;
#X connect 141 1 142 0;
#X connect 142 0 106 0;
#X connect 144 0 147 0;
#X connect 144 0 149 0;
#X connect 145 0 143 0;
#X connect 146 0 153 2;
#X connect 147 0 143 1;
#X connect 148 0 153 1;
#X connect 149 0 143 0;
#X connect 150 0 145 0;
#X connect 151 0 153 0;
#X connect 153 0 143 0;
