#N canvas 334 193 915 567 10;
#X obj -78 -135 inlet;
#X msg -337 79 draw line;
#X obj -237 -4 separator;
#X obj 458 -251 inlet~;
#X obj -337 27 loadbang;
#X obj -337 53 t b b;
#X obj 44 -14 inlet;
#X obj -242 131 rectangle 4 0.5;
#X obj 511 -250 inlet~;
#X obj 458 -225 env~;
#X obj 458 -198 / 100;
#X obj 458 -171 s \$0-l;
#X obj 510 -229 env~;
#X obj 510 -202 / 100;
#X obj 510 -175 s \$0-r;
#X obj -47 139 r \$0-l;
#X obj -47 166 * 3.8;
#X obj -61 4 separator;
#X obj 97 203 * 3.8;
#X obj 97 179 r \$0-r;
#X obj -108 164 separator;
#X obj 34 166 separator;
#X msg -310 108 width 1;
#X obj -78 -104 alpha;
#X obj -41 -156 loadbang;
#X obj -41 -133 tgl 15 0 empty empty empty 17 7 0 10 -262144 -1 -1
1 1;
#X obj 119 130 text2d;
#X obj -78 -76 t a a a a;
#X obj -61 90 t a a a a;
#X obj 119 24 separator;
#X obj 152 84 loadbang;
#X obj 160 -92 r \$0-l;
#X obj 225 207 text2d;
#X obj 225 101 separator;
#X obj 258 161 loadbang;
#X obj 90 -260 separator;
#X obj 90 -133 curve 2;
#X msg 107 -178 -3.8 0 0;
#X msg 128 -158 3.8 0 0;
#X obj 315 -214 separator;
#X obj 318 -114 t a b;
#X obj 381 -111 f;
#X obj 409 -112 + 1;
#X obj 318 -64 separator;
#X obj 318 -22 translateXYZ -3.8 0 0;
#X obj 318 -140 repeat 10;
#X obj 438 -112 % 10;
#X obj 391 -69 expr ($f1/10)*7.8-3.8;
#X obj 35 264 rectangle 3.8 0.15;
#X obj -107 255 rectangle 3.8 0.15;
#X obj -107 228 translateXYZ 0 0.27 0;
#X obj 35 239 translateXYZ 0 -0.25 0;
#X obj 225 138 translateXYZ 1 0.28 0;
#X obj 119 61 translateXYZ 1 -0.22 0;
#X obj 186 -177 loadbang;
#X obj 44 9 * 0.5;
#X msg 289 228 font forgottenfuturistrg.ttf;
#X obj 289 199 loadbang;
#X obj 344 43 r \$0-r;
#X msg 268 67 text R:\$1;
#X msg 162 -10 text L:\$1;
#X msg 152 107 14;
#X msg 258 184 14;
#X obj 34 205 colorRGB 0 0.93 0.58 0.5;
#X obj -182 198 colorRGB 1 0.24 0.37 0.5;
#X obj -61 65 translateXYZ -3.8 0 0;
#X obj -61 35 colorRGB 1 1 1 1;
#X obj -242 50 color 0.28 0.62 1;
#X obj 318 14 rectangle 0.02 0.05;
#X obj 90 -206 color 0.28 0.62 1;
#X obj 309 -166 color 0.4 0.56 1;
#X obj 344 71 expr int($f1*100)/10;
#X obj 149 -34 expr int($f1*100)/10;
#X connect 0 0 23 0;
#X connect 1 0 7 0;
#X connect 2 0 67 0;
#X connect 3 0 9 0;
#X connect 4 0 5 0;
#X connect 5 0 1 0;
#X connect 5 1 22 0;
#X connect 6 0 55 0;
#X connect 8 0 12 0;
#X connect 9 0 10 0;
#X connect 10 0 11 0;
#X connect 12 0 13 0;
#X connect 13 0 14 0;
#X connect 15 0 16 0;
#X connect 16 0 49 1;
#X connect 16 0 50 1;
#X connect 17 0 66 0;
#X connect 18 0 48 1;
#X connect 18 0 51 1;
#X connect 19 0 18 0;
#X connect 20 0 64 0;
#X connect 21 0 63 0;
#X connect 22 0 7 0;
#X connect 23 0 27 0;
#X connect 24 0 25 0;
#X connect 25 0 23 1;
#X connect 27 0 2 0;
#X connect 27 1 17 0;
#X connect 27 2 39 0;
#X connect 27 3 35 0;
#X connect 28 0 20 0;
#X connect 28 1 21 0;
#X connect 28 2 29 0;
#X connect 28 3 33 0;
#X connect 29 0 53 0;
#X connect 30 0 61 0;
#X connect 31 0 72 0;
#X connect 33 0 52 0;
#X connect 34 0 62 0;
#X connect 35 0 69 0;
#X connect 37 0 36 1;
#X connect 38 0 36 2;
#X connect 39 0 70 0;
#X connect 40 0 43 0;
#X connect 40 1 41 0;
#X connect 41 0 42 0;
#X connect 41 0 47 0;
#X connect 42 0 46 0;
#X connect 43 0 44 0;
#X connect 44 0 68 0;
#X connect 45 0 40 0;
#X connect 46 0 41 1;
#X connect 47 0 44 1;
#X connect 50 0 49 0;
#X connect 51 0 48 0;
#X connect 52 0 32 0;
#X connect 53 0 26 0;
#X connect 54 0 37 0;
#X connect 54 0 38 0;
#X connect 56 0 32 0;
#X connect 56 0 26 0;
#X connect 57 0 56 0;
#X connect 58 0 71 0;
#X connect 59 0 32 0;
#X connect 60 0 26 0;
#X connect 61 0 26 1;
#X connect 62 0 32 1;
#X connect 63 0 51 0;
#X connect 64 0 50 0;
#X connect 65 0 28 0;
#X connect 66 0 65 0;
#X connect 67 0 7 0;
#X connect 69 0 36 0;
#X connect 70 0 45 0;
#X connect 71 0 59 0;
#X connect 72 0 60 0;
