#N canvas 381 164 515 396 10;
#X obj 159 148 t a a a;
#X obj 211 224 curve 2;
#X obj 244 148 loadbang;
#X obj 309 126 loadbang;
#X obj 159 16 inlet;
#X msg 308 150 width 2;
#X obj 201 339 curve 2;
#X obj 234 263 loadbang;
#X obj 299 241 loadbang;
#X msg 298 265 width 2;
#X obj 43 324 curve 2;
#X obj 76 248 loadbang;
#X obj 141 226 loadbang;
#X msg 140 250 width 2;
#X msg 233 175 -0.2 0 0;
#X msg 250 196 0.3 0 0;
#X msg 65 275 0.5 0.02 0;
#X msg 223 289 0.5 -0.02 0;
#X msg 242 314 0.2 0.2 0;
#X msg 83 296 0.2 -0.2 0;
#X connect 0 0 10 0;
#X connect 0 1 6 0;
#X connect 0 2 1 0;
#X connect 2 0 14 0;
#X connect 2 0 15 0;
#X connect 3 0 5 0;
#X connect 4 0 0 0;
#X connect 5 0 1 0;
#X connect 7 0 17 0;
#X connect 7 0 18 0;
#X connect 8 0 9 0;
#X connect 9 0 6 0;
#X connect 11 0 16 0;
#X connect 11 0 19 0;
#X connect 12 0 13 0;
#X connect 13 0 10 0;
#X connect 14 0 1 1;
#X connect 15 0 1 2;
#X connect 16 0 10 1;
#X connect 17 0 6 1;
#X connect 18 0 6 2;
#X connect 19 0 10 2;
